# Blender v2.82 (sub 7) OBJ File: 'objective.blend'
# www.blender.org
mtllib objective.mtl
o s1_Mesh.001
v -0.151081 0.025000 0.180135
v -0.180158 0.025000 0.151058
v -0.180158 -0.000000 0.151058
v -0.151081 -0.000000 0.180135
v 0.151039 0.025000 0.180135
v 0.180110 0.025000 0.151064
v 0.151039 -0.000000 0.180135
v 0.180110 -0.000000 0.151064
v 0.180110 0.025000 -0.151018
v 0.150995 0.025000 -0.180133
v 0.180110 0.000000 -0.151018
v 0.150995 0.000000 -0.180133
v -0.180158 0.000000 -0.151013
v -0.151038 0.000000 -0.180133
v -0.151038 0.025000 -0.180133
v -0.180158 0.025000 -0.151013
v 0.151029 -0.000000 0.100002
v 0.151029 0.025000 0.100002
v -0.151047 0.000000 -0.100002
v -0.151047 0.025000 -0.100002
v 0.151005 0.000000 -0.100002
v 0.151005 0.025000 -0.100002
v -0.151071 -0.000000 0.100002
v -0.151072 0.025000 0.100002
v 0.151029 -0.000000 0.100002
v 0.180110 -0.000000 0.125002
v 0.157501 -0.000000 0.100629
v 0.163647 -0.000000 0.102478
v 0.169161 -0.000000 0.105456
v 0.173766 -0.000000 0.109415
v 0.177230 -0.000000 0.114155
v 0.179381 -0.000000 0.119439
v 0.180110 0.025000 0.125002
v 0.151029 0.025000 0.100002
v 0.179381 0.025000 0.119439
v 0.177230 0.025000 0.114155
v 0.173766 0.025000 0.109415
v 0.169161 0.025000 0.105456
v 0.163647 0.025000 0.102478
v 0.157501 0.025000 0.100629
v -0.151047 0.000000 -0.100002
v -0.180158 0.000000 -0.125002
v -0.157525 0.000000 -0.100629
v -0.163678 0.000000 -0.102478
v -0.169198 0.000000 -0.105456
v -0.173807 0.000000 -0.109415
v -0.177275 0.000000 -0.114155
v -0.179428 0.000000 -0.119439
v -0.180158 0.025000 -0.125002
v -0.151047 0.025000 -0.100002
v -0.179428 0.025000 -0.119439
v -0.177275 0.025000 -0.114155
v -0.173807 0.025000 -0.109415
v -0.169198 0.025000 -0.105456
v -0.163678 0.025000 -0.102478
v -0.157525 0.025000 -0.100629
v 0.180110 0.000000 -0.125002
v 0.151005 0.000000 -0.100002
v 0.179381 0.000000 -0.119439
v 0.177228 0.000000 -0.114155
v 0.173760 0.000000 -0.109415
v 0.169152 0.000000 -0.105456
v 0.163633 0.000000 -0.102478
v 0.157481 0.000000 -0.100629
v 0.151005 0.025000 -0.100002
v 0.180110 0.025000 -0.125002
v 0.157482 0.025000 -0.100629
v 0.163633 0.025000 -0.102478
v 0.169152 0.025000 -0.105456
v 0.173760 0.025000 -0.109415
v 0.177228 0.025000 -0.114155
v 0.179381 0.025000 -0.119439
v -0.180158 -0.000000 0.125002
v -0.151071 -0.000000 0.100002
v -0.179429 -0.000000 0.119439
v -0.177278 -0.000000 0.114155
v -0.173812 -0.000000 0.109415
v -0.169207 -0.000000 0.105456
v -0.163692 -0.000000 0.102478
v -0.157544 -0.000000 0.100629
v -0.151072 0.025000 0.100002
v -0.180158 0.025000 0.125002
v -0.157544 0.025000 0.100629
v -0.163692 0.025000 0.102478
v -0.169207 0.025000 0.105456
v -0.173812 0.025000 0.109415
v -0.177278 0.025000 0.114155
v -0.179429 0.025000 0.119439
vt 0.842541 0.189635
vt 0.842541 0.189635
vt 0.842553 0.011981
vt 0.057353 0.825257
vt 0.000848 0.889802
vt 0.000848 0.825257
vt 0.448233 0.076444
vt 0.482852 0.011981
vt 0.482863 0.189635
vt 0.942647 0.069971
vt 0.999152 0.360342
vt 0.942647 0.360342
vt 0.999152 0.840536
vt 0.942647 0.904988
vt 0.942647 0.840536
vt 0.999152 0.782756
vt 0.999152 0.370916
vt 0.942647 0.720830
vt 0.942647 0.370916
vt 0.999152 0.069971
vt 0.942647 0.005325
vt 0.999152 0.005325
vt 0.482892 0.633043
vt 0.482892 0.633043
vt 0.482903 0.810693
vt 0.059048 0.984015
vt 0.115554 0.914183
vt 0.115554 0.984015
vt 0.000000 0.000000
vt 0.000000 0.000000
vt 0.000000 0.000000
vt 0.000848 0.947480
vt 0.057353 0.889802
vt 0.057353 0.947480
vt 0.000000 0.000000
vt 0.000000 0.000000
vt 0.000000 0.000000
vt 0.006434 0.076540
vt 0.041104 0.011981
vt 0.041093 0.189631
vt 0.400713 0.189631
vt 0.400713 0.189631
vt 0.400701 0.011981
vt 0.041053 0.810693
vt 0.400742 0.633039
vt 0.400754 0.810693
vt 0.115554 0.857517
vt 0.059048 0.914183
vt 0.059048 0.857517
vt 0.000000 0.000000
vt 0.000000 0.000000
vt 0.000000 0.000000
vt 0.884446 0.898187
vt 0.940952 0.463234
vt 0.940952 0.898187
vt 0.877164 0.746145
vt 0.842500 0.810693
vt 0.842512 0.633043
vt 0.173755 0.824314
vt 0.117249 0.880881
vt 0.117249 0.824314
vt 0.884446 0.006651
vt 0.940952 0.450058
vt 0.884446 0.450058
vt 0.041064 0.633039
vt 0.041064 0.633039
vt 0.000000 0.000000
vt 0.000000 0.000000
vt 0.000000 0.000000
vt 0.942647 0.782756
vt 0.999152 0.770423
vt 0.942647 0.770423
vt 0.999152 0.758708
vt 0.942647 0.758708
vt 0.999152 0.748200
vt 0.942647 0.748200
vt 0.999152 0.739424
vt 0.942647 0.739424
vt 0.999152 0.732821
vt 0.942647 0.728723
vt 0.999152 0.728723
vt 0.240803 0.823506
vt 0.246341 0.878930
vt 0.240803 0.878930
vt 0.173755 0.880881
vt 0.117249 0.893145
vt 0.173755 0.893145
vt 0.117249 0.905125
vt 0.173755 0.905125
vt 0.117249 0.916221
vt 0.173755 0.916221
vt 0.117249 0.925875
vt 0.173755 0.925875
vt 0.117249 0.933605
vt 0.210235 0.823506
vt 0.218035 0.878930
vt 0.210235 0.878930
vt 0.218035 0.823506
vt 0.225865 0.878930
vt 0.226313 0.878930
vt 0.233779 0.823506
vt 0.233779 0.878930
vt 0.240507 0.823506
vt 0.240507 0.878930
vt 0.057353 0.997418
vt 0.000848 0.990814
vt 0.057353 0.990814
vt 0.057353 0.982038
vt 0.000848 0.982038
vt 0.057353 0.971529
vt 0.000848 0.971528
vt 0.057353 0.959814
vt 0.000848 0.959814
vt 0.175118 0.878930
vt 0.182266 0.823506
vt 0.182266 0.878930
vt 0.190664 0.823506
vt 0.190664 0.878930
vt 0.199891 0.823506
vt 0.199891 0.878930
vt 0.209485 0.823506
vt 0.209485 0.878930
vt 0.059048 0.825059
vt 0.115554 0.834581
vt 0.059048 0.834581
vt 0.059048 0.845584
vt 0.115554 0.845584
vt 0.435365 0.746243
vt 0.877164 0.076431
vt 0.877164 0.134211
vt 0.876296 0.146544
vt 0.873736 0.158259
vt 0.869611 0.168767
vt 0.864128 0.177543
vt 0.857564 0.184147
vt 0.850246 0.188246
vt 0.482863 0.189635
vt 0.475157 0.188246
vt 0.467838 0.184147
vt 0.461272 0.177543
vt 0.455788 0.168767
vt 0.451663 0.158259
vt 0.449101 0.146544
vt 0.448233 0.134211
vt 0.999152 0.904988
vt 0.999152 0.720830
vt 0.448233 0.746134
vt 0.448233 0.688467
vt 0.449102 0.676134
vt 0.451666 0.664419
vt 0.455795 0.653911
vt 0.461283 0.645135
vt 0.467854 0.638531
vt 0.475180 0.634432
vt 0.000000 0.000000
vt 0.000000 0.000000
vt 0.041093 0.189631
vt 0.033380 0.188242
vt 0.026055 0.184143
vt 0.019483 0.177540
vt 0.013995 0.168764
vt 0.009866 0.158255
vt 0.007303 0.146540
vt 0.006434 0.134207
vt 0.435365 0.076529
vt 0.435365 0.134207
vt 0.434496 0.146540
vt 0.431933 0.158254
vt 0.427805 0.168763
vt 0.422318 0.177539
vt 0.415748 0.184143
vt 0.408424 0.188242
vt 0.000000 0.000000
vt 0.884446 0.463234
vt 0.842512 0.633043
vt 0.850223 0.634432
vt 0.857547 0.638531
vt 0.864118 0.645135
vt 0.869604 0.653911
vt 0.873733 0.664419
vt 0.876296 0.676134
vt 0.877164 0.688467
vt 0.940952 0.006651
vt 0.006434 0.746230
vt 0.006434 0.688463
vt 0.007302 0.676130
vt 0.009864 0.664416
vt 0.013989 0.653907
vt 0.019473 0.645131
vt 0.026039 0.638528
vt 0.033358 0.634428
vt 0.000000 0.000000
vt 0.942647 0.732821
vt 0.246341 0.823506
vt 0.173755 0.933605
vt 0.225865 0.823506
vt 0.226313 0.823506
vt 0.000848 0.997418
vt 0.175118 0.823506
vt 0.115554 0.825059
vt 0.400742 0.633039
vt 0.408446 0.634428
vt 0.415764 0.638527
vt 0.422329 0.645131
vt 0.427812 0.653907
vt 0.431936 0.664415
vt 0.434497 0.676130
vt 0.435365 0.688463
vn 0.0700 0.6809 0.7290
vn 0.3333 0.6667 0.6666
vn 0.2971 0.6303 0.7173
vn 0.2971 0.6303 -0.7173
vn 0.7173 -0.6303 -0.2971
vn 0.2971 -0.6303 -0.7172
vn -0.7173 0.6303 0.2971
vn -0.2971 0.6303 0.7173
vn -0.2708 0.7958 0.5416
vn -0.2971 -0.6303 -0.7173
vn 0.7173 0.6303 0.2971
vn 0.2971 -0.6303 0.7173
vn 0.7173 -0.6303 0.2971
vn 0.7197 0.6927 -0.0470
vn -0.2971 -0.6303 0.7173
vn -0.2971 0.6303 -0.7173
vn -0.7173 -0.6303 -0.2971
vn -0.7173 0.6303 -0.2971
vn -0.0307 0.2989 0.9538
vn -0.3333 0.6667 0.6666
vn -0.7173 -0.6303 0.2971
vn -0.3333 -0.6667 0.6666
vn -0.0955 0.0000 0.9954
vn 0.7197 -0.6927 0.0470
vn 0.7173 0.6303 -0.2971
vn 0.7197 0.6927 0.0470
vn 0.3333 -0.6667 0.6666
vn 0.0321 -0.0000 0.9995
vn 0.2708 0.7958 0.5416
vn -0.2708 -0.7958 0.5416
vn 0.0307 -0.2989 0.9538
vn 0.2708 -0.7958 0.5416
vn -0.7197 -0.6927 -0.0470
vn -0.7197 0.6927 -0.0470
vn 0.0955 0.0000 0.9954
vn -0.7197 0.6927 0.0470
vn -0.0699 -0.6809 0.7290
vn -0.0321 -0.0000 0.9995
vn 0.7197 -0.6927 -0.0470
vn 0.7094 0.6794 -0.1875
vn 0.7094 -0.6794 -0.1875
vn 0.6398 0.6806 -0.3569
vn 0.6398 -0.6806 -0.3569
vn 0.5370 0.6822 -0.4962
vn 0.5370 -0.6822 -0.4962
vn 0.4136 0.6838 -0.6012
vn 0.4136 -0.6838 -0.6012
vn 0.2795 0.6850 -0.6728
vn 0.1406 -0.6858 -0.7141
vn 0.1406 0.6858 -0.7141
vn -0.7197 -0.6927 0.0470
vn -0.7093 0.6794 0.1877
vn -0.7093 -0.6794 0.1877
vn -0.6396 0.6806 0.3572
vn -0.6396 -0.6806 0.3572
vn -0.5367 0.6822 0.4965
vn -0.5367 -0.6822 0.4965
vn -0.4133 0.6838 0.6013
vn -0.4133 -0.6838 0.6013
vn -0.2793 0.6850 0.6729
vn -0.2793 -0.6850 0.6729
vn -0.1404 0.6858 0.7141
vn -0.1404 -0.6858 0.7141
vn 0.1405 -0.6858 0.7141
vn 0.1405 0.6858 0.7141
vn 0.2793 -0.6850 0.6729
vn 0.2793 0.6850 0.6729
vn 0.4134 -0.6838 0.6013
vn 0.4134 0.6838 0.6013
vn 0.5368 0.6822 0.4964
vn 0.5368 -0.6822 0.4964
vn 0.6397 0.6806 0.3571
vn 0.6397 -0.6806 0.3571
vn 0.7093 0.6794 0.1877
vn 0.7093 -0.6794 0.1877
vn -0.1406 -0.6858 -0.7141
vn -0.1406 0.6858 -0.7141
vn -0.2795 -0.6850 -0.6728
vn -0.2795 0.6850 -0.6728
vn -0.4136 -0.6838 -0.6012
vn -0.4136 0.6838 -0.6012
vn -0.5369 -0.6822 -0.4963
vn -0.5369 0.6822 -0.4963
vn -0.6398 -0.6806 -0.3570
vn -0.6398 0.6806 -0.3570
vn -0.7094 0.6794 -0.1876
vn -0.7094 -0.6794 -0.1876
vn 0.2795 -0.6850 -0.6728
usemtl None
s 1
f 34/1/1 18/2/2 5/3/3
f 10/4/4 11/5/5 12/6/6
f 2/7/7 1/8/8 24/9/9
f 14/10/10 10/11/4 12/12/6
f 6/13/11 7/14/12 8/15/13
f 8/15/13 33/16/14 6/13/11
f 5/17/3 4/18/15 7/19/12
f 15/20/16 13/21/17 16/22/18
f 50/23/19 20/24/20 15/25/16
f 1/26/8 3/27/21 4/28/15
f 23/29/22 81/30/23 24/31/9
f 57/32/24 9/33/25 66/34/26
f 21/35/27 65/36/28 22/37/29
f 13/38/17 14/39/10 19/40/30
f 58/41/31 21/42/27 12/43/6
f 4/44/15 17/45/32 7/46/12
f 73/47/33 2/48/7 82/49/34
f 25/50/35 18/51/2 34/52/1
f 24/53/9 19/54/30 23/55/22
f 9/56/25 10/57/4 22/58/29
f 13/59/17 49/60/36 16/61/18
f 21/62/27 18/63/2 17/64/32
f 74/65/37 23/66/22 4/44/15
f 12/43/6 19/40/30 14/39/10
f 19/67/30 50/68/19 41/69/38
f 21/42/27 23/66/22 19/40/30
f 1/8/8 18/2/2 24/9/9
f 10/57/4 20/24/20 22/58/29
f 22/58/29 24/9/9 18/2/2
f 26/70/39 35/71/40 33/16/14
f 32/72/41 36/73/42 35/71/40
f 31/74/43 37/75/44 36/73/42
f 30/76/45 38/77/46 37/75/44
f 29/78/47 39/79/48 38/77/46
f 39/79/48 27/80/49 40/81/50
f 27/82/49 34/83/1 40/84/50
f 42/85/51 51/86/52 49/60/36
f 48/87/53 52/88/54 51/86/52
f 47/89/55 53/90/56 52/88/54
f 46/91/57 54/92/58 53/90/56
f 45/93/59 55/94/60 54/92/58
f 44/95/61 56/96/62 55/97/60
f 43/98/63 50/99/19 56/96/62
f 65/100/28 64/101/64 67/102/65
f 67/102/65 63/103/66 68/104/67
f 68/105/67 62/106/68 69/107/69
f 62/106/68 70/108/70 69/107/69
f 61/109/71 71/110/72 70/108/70
f 60/111/73 72/112/74 71/110/72
f 59/113/75 66/34/26 72/112/74
f 81/114/23 80/115/76 83/116/77
f 83/116/77 79/117/78 84/118/79
f 84/118/79 78/119/80 85/120/81
f 85/120/81 77/121/82 86/122/83
f 86/123/83 76/124/84 87/125/85
f 76/124/84 88/126/86 87/125/85
f 75/127/87 82/49/34 88/126/86
f 8/128/13 7/46/12 17/45/32
f 5/3/3 6/129/11 34/1/1
f 6/129/11 33/130/14 34/1/1
f 33/130/14 35/131/40 34/1/1
f 35/131/40 36/132/42 34/1/1
f 36/132/42 37/133/44 34/1/1
f 37/133/44 38/134/46 34/1/1
f 38/134/46 39/135/48 34/1/1
f 39/135/48 40/136/50 34/1/1
f 10/4/4 9/33/25 11/5/5
f 24/9/9 81/137/23 83/138/77
f 83/138/77 84/139/79 24/9/9
f 84/139/79 85/140/81 24/9/9
f 85/140/81 86/141/83 24/9/9
f 86/141/83 87/142/85 24/9/9
f 87/142/85 88/143/86 24/9/9
f 88/143/86 82/144/34 24/9/9
f 82/144/34 2/7/7 24/9/9
f 14/10/10 15/20/16 10/11/4
f 6/13/11 5/145/3 7/14/12
f 8/15/13 26/70/39 33/16/14
f 5/17/3 1/146/8 4/18/15
f 15/20/16 14/10/10 13/21/17
f 15/25/16 16/147/18 50/23/19
f 16/147/18 49/148/36 50/23/19
f 49/148/36 51/149/52 50/23/19
f 51/149/52 52/150/54 50/23/19
f 52/150/54 53/151/56 50/23/19
f 53/151/56 54/152/58 50/23/19
f 54/152/58 55/153/60 50/23/19
f 55/153/60 56/154/62 50/23/19
f 1/26/8 2/48/7 3/27/21
f 23/29/22 74/155/37 81/30/23
f 57/32/24 11/5/5 9/33/25
f 21/35/27 58/156/31 65/36/28
f 19/40/30 41/157/38 43/158/63
f 43/158/63 44/159/61 19/40/30
f 44/159/61 45/160/59 19/40/30
f 45/160/59 46/161/57 19/40/30
f 46/161/57 47/162/55 19/40/30
f 47/162/55 48/163/53 19/40/30
f 48/163/53 42/164/51 19/40/30
f 42/164/51 13/38/17 19/40/30
f 12/43/6 11/165/5 58/41/31
f 11/165/5 57/166/24 58/41/31
f 57/166/24 59/167/75 58/41/31
f 59/167/75 60/168/73 58/41/31
f 60/168/73 61/169/71 58/41/31
f 61/169/71 62/170/68 58/41/31
f 62/170/68 63/171/66 58/41/31
f 63/171/66 64/172/64 58/41/31
f 4/44/15 23/66/22 17/45/32
f 73/47/33 3/27/21 2/48/7
f 25/50/35 17/173/32 18/51/2
f 24/53/9 20/174/20 19/54/30
f 22/58/29 65/175/28 67/176/65
f 67/176/65 68/177/67 22/58/29
f 68/177/67 69/178/69 22/58/29
f 69/178/69 70/179/70 22/58/29
f 70/179/70 71/180/72 22/58/29
f 71/180/72 72/181/74 22/58/29
f 72/181/74 66/182/26 22/58/29
f 66/182/26 9/56/25 22/58/29
f 13/59/17 42/85/51 49/60/36
f 21/62/27 22/183/29 18/63/2
f 4/44/15 3/184/21 74/65/37
f 3/184/21 73/185/33 74/65/37
f 73/185/33 75/186/87 74/65/37
f 75/186/87 76/187/84 74/65/37
f 76/187/84 77/188/82 74/65/37
f 77/188/82 78/189/80 74/65/37
f 78/189/80 79/190/78 74/65/37
f 79/190/78 80/191/76 74/65/37
f 12/43/6 21/42/27 19/40/30
f 19/67/30 20/192/20 50/68/19
f 21/42/27 17/45/32 23/66/22
f 1/8/8 5/3/3 18/2/2
f 10/57/4 15/25/16 20/24/20
f 22/58/29 20/24/20 24/9/9
f 26/70/39 32/72/41 35/71/40
f 32/72/41 31/74/43 36/73/42
f 31/74/43 30/76/45 37/75/44
f 30/76/45 29/78/47 38/77/46
f 29/78/47 28/193/88 39/79/48
f 39/79/48 28/193/88 27/80/49
f 27/82/49 25/194/35 34/83/1
f 42/85/51 48/87/53 51/86/52
f 48/87/53 47/89/55 52/88/54
f 47/89/55 46/91/57 53/90/56
f 46/91/57 45/93/59 54/92/58
f 45/93/59 44/195/61 55/94/60
f 44/95/61 43/98/63 56/96/62
f 43/98/63 41/196/38 50/99/19
f 65/100/28 58/197/31 64/101/64
f 67/102/65 64/101/64 63/103/66
f 68/105/67 63/198/66 62/106/68
f 62/106/68 61/109/71 70/108/70
f 61/109/71 60/111/73 71/110/72
f 60/111/73 59/113/75 72/112/74
f 59/113/75 57/32/24 66/34/26
f 81/114/23 74/199/37 80/115/76
f 83/116/77 80/115/76 79/117/78
f 84/118/79 79/117/78 78/119/80
f 85/120/81 78/119/80 77/121/82
f 86/123/83 77/200/82 76/124/84
f 76/124/84 75/127/87 88/126/86
f 75/127/87 73/47/33 82/49/34
f 17/45/32 25/201/35 27/202/49
f 27/202/49 28/203/88 17/45/32
f 28/203/88 29/204/47 17/45/32
f 29/204/47 30/205/45 17/45/32
f 30/205/45 31/206/43 17/45/32
f 31/206/43 32/207/41 17/45/32
f 32/207/41 26/208/39 17/45/32
f 26/208/39 8/128/13 17/45/32
