# Blender v2.91.0 OBJ File: ''
# www.blender.org
o s1_Mesh.002
v -0.269811 0.025609 0.152825
v -0.287864 0.025609 0.135046
v -0.287967 0.025609 0.085323
v -0.279961 0.025609 0.078488
v -0.280403 0.025609 -0.078493
v -0.287620 0.025609 -0.085115
v -0.287746 0.025609 -0.136349
v -0.270265 0.025609 -0.153129
v -0.098083 0.025609 -0.152931
v -0.092055 0.025609 -0.146272
v 0.093465 0.025609 -0.146081
v 0.099430 0.025609 -0.153054
v 0.270908 0.025609 -0.152961
v 0.288191 0.025609 -0.136381
v 0.288382 0.025609 -0.084909
v 0.281954 0.025609 -0.078378
v 0.281773 0.025609 0.078575
v 0.288381 0.025609 0.084433
v 0.288196 0.025609 0.135398
v 0.271046 0.025609 0.152706
v 0.098527 0.025609 0.152861
v 0.091164 0.025609 0.146088
v -0.093843 0.025609 0.146033
v -0.099231 0.025609 0.152989
v 0.291996 0.025609 -0.114437
v -0.291321 0.025609 0.104765
v 0.272323 0.025609 0.156283
v 0.291111 0.025609 0.137082
v -0.291407 0.025609 0.136526
v -0.272651 0.025609 0.155302
v 0.292073 0.025609 -0.136273
v 0.271604 0.025609 -0.156491
v -0.271485 0.025609 -0.156251
v -0.290670 0.025609 -0.137080
vt 0.007337 0.973996
vt 0.011529 0.980431
vt 0.011481 0.987754
vt 0.381910 0.994128
vt 0.377841 0.987707
vt 0.377883 0.980393
vt 0.092617 0.994742
vt 0.069337 0.994866
vt 0.033071 0.994739
vt 0.031300 0.994870
vt 0.030322 0.973300
vt 0.331533 0.973263
vt 0.093375 0.973400
vt 0.296174 0.973397
vt 0.288356 0.973635
vt 0.100393 0.973645
vt 0.011769 0.994071
vt 0.008804 0.994176
vt 0.032341 0.973408
vt 0.019644 0.980704
vt 0.019809 0.987555
vt 0.011623 0.974043
vt 0.357815 0.973403
vt 0.357684 0.973260
vt 0.358962 0.994838
vt 0.296729 0.994726
vt 0.100798 0.994445
vt 0.288794 0.994459
vt 0.377680 0.974043
vt 0.381906 0.974017
vt 0.358085 0.994730
vt 0.369863 0.987484
vt 0.369536 0.980614
vt 0.378170 0.994083
vn 0.0000 1.0000 0.0000
s 1
f 27/1/1 21/2/1 24/3/1
f 33/4/1 9/5/1 12/6/1
f 3/7/1 26/8/1 2/9/1
f 26/8/1 29/10/1 2/9/1
f 28/11/1 25/12/1 18/13/1
f 25/12/1 15/14/1 18/13/1
f 15/14/1 16/15/1 18/13/1
f 16/15/1 17/16/1 18/13/1
f 1/17/1 2/9/1 30/18/1
f 2/9/1 29/10/1 30/18/1
f 28/11/1 18/13/1 19/19/1
f 22/20/1 23/21/1 24/3/1
f 24/3/1 1/17/1 30/18/1
f 27/1/1 28/11/1 20/22/1
f 28/11/1 19/19/1 20/22/1
f 24/3/1 30/18/1 27/1/1
f 21/2/1 22/20/1 24/3/1
f 27/1/1 20/22/1 21/2/1
f 15/14/1 25/12/1 14/23/1
f 25/12/1 31/24/1 14/23/1
f 34/25/1 26/8/1 6/26/1
f 26/8/1 3/7/1 6/26/1
f 3/7/1 4/27/1 5/28/1
f 3/7/1 5/28/1 6/26/1
f 13/29/1 14/23/1 32/30/1
f 14/23/1 31/24/1 32/30/1
f 34/25/1 6/26/1 7/31/1
f 10/32/1 11/33/1 12/6/1
f 12/6/1 13/29/1 32/30/1
f 33/4/1 34/25/1 7/31/1
f 33/4/1 7/31/1 8/34/1
f 12/6/1 32/30/1 33/4/1
f 9/5/1 10/32/1 12/6/1
f 33/4/1 8/34/1 9/5/1
o s1_Mesh.003
v 0.328385 0.000000 -0.119435
v 0.326234 0.000000 -0.114151
v 0.300027 0.000000 -0.099998
v 0.329114 0.000000 -0.124998
v -0.333399 0.025000 0.151058
v -0.304322 0.025000 0.180135
v -0.304313 0.025000 0.100002
v 0.329114 0.000000 -0.151054
v 0.300037 0.000000 -0.180131
v -0.304279 0.025000 -0.180133
v -0.333399 0.000000 -0.151013
v -0.333399 0.025000 -0.151013
v -0.333399 -0.000000 0.151058
v -0.304322 -0.000000 0.180135
v 0.329114 -0.000000 0.151017
v 0.329114 -0.000000 0.125006
v 0.329114 0.025000 0.125006
v 0.300028 0.025000 -0.099998
v 0.300003 0.025000 0.100006
v 0.300003 -0.000000 0.100006
v -0.304279 0.000000 -0.180133
v -0.304288 0.000000 -0.100002
v 0.329114 0.025000 -0.151054
v -0.333399 -0.000000 0.125002
v -0.333399 0.025000 0.125002
v -0.304312 -0.000000 0.100002
v -0.333399 0.025000 -0.125002
v 0.328384 -0.000000 0.119443
v 0.326231 -0.000000 0.114159
v 0.322763 -0.000000 0.109419
v 0.318154 -0.000000 0.105460
v 0.312634 -0.000000 0.102482
v 0.306481 -0.000000 0.100633
v -0.333399 0.000000 -0.125002
v -0.332669 0.025000 -0.119439
v -0.332669 0.000000 -0.119439
v -0.330516 0.025000 -0.114155
v -0.330516 0.000000 -0.114155
v -0.327048 0.025000 -0.109415
v -0.327048 0.000000 -0.109415
v -0.322439 0.025000 -0.105456
v -0.322439 0.000000 -0.105456
v -0.316919 0.025000 -0.102478
v -0.316919 0.000000 -0.102478
v -0.310766 0.025000 -0.100629
v -0.310766 0.000000 -0.100629
v -0.304288 0.025000 -0.100002
v 0.300037 0.025000 -0.180131
v 0.312634 0.025000 0.102482
v 0.306481 0.025000 0.100633
v 0.318154 0.025000 0.105460
v 0.322763 0.025000 0.109419
v 0.326231 0.025000 0.114159
v 0.328384 0.025000 0.119443
v -0.310785 -0.000000 0.100629
v -0.310785 0.025000 0.100629
v -0.316933 -0.000000 0.102478
v -0.316933 0.025000 0.102478
v -0.322448 -0.000000 0.105456
v -0.322448 0.025000 0.105456
v -0.327053 -0.000000 0.109415
v -0.327053 0.025000 0.109415
v -0.330519 -0.000000 0.114155
v -0.330519 0.025000 0.114155
v -0.332670 0.025000 0.119439
v -0.332670 -0.000000 0.119439
v 0.329114 0.025000 0.151017
v 0.299994 0.025000 0.180137
v 0.299994 -0.000000 0.180137
v 0.329114 0.025000 -0.124998
v 0.328385 0.025000 -0.119435
v 0.326234 0.025000 -0.114151
v 0.322768 0.025000 -0.109411
v 0.318163 0.025000 -0.105452
v 0.312648 0.025000 -0.102474
v 0.306500 0.025000 -0.100625
v 0.322768 0.000000 -0.109411
v 0.318163 0.000000 -0.105452
v 0.312648 0.000000 -0.102474
v 0.306500 0.000000 -0.100625
vt 0.583993 0.073994
vt 0.590336 0.076915
vt 0.607202 0.112172
vt 0.577306 0.072978
vt 0.545964 0.072803
vt 0.510813 0.111619
vt 0.228225 0.004362
vt 0.235363 0.004372
vt 0.243535 0.004395
vt 0.600751 0.087802
vt 0.604300 0.095222
vt 0.596017 0.081597
vt 0.058813 0.960881
vt 0.023976 0.922059
vt 0.119941 0.921999
vt 0.058041 0.009070
vt 0.118732 0.009230
vt 0.097979 0.009487
vt 0.165526 0.009731
vt 0.151696 0.009251
vt 0.183710 0.009713
vt 0.166424 0.009248
vt 0.202679 0.009684
vt 0.180932 0.009232
vt 0.221916 0.009639
vt 0.195307 0.009199
vt 0.240864 0.009575
vt 0.209243 0.009142
vt 0.258833 0.009493
vt 0.221419 0.009056
vt 0.275476 0.009397
vt 0.231138 0.008953
vt 0.290508 0.009304
vt 0.091793 0.008968
vt 0.247938 0.008843
vt 0.775748 0.009828
vt 0.702850 0.009872
vt 0.740650 0.009652
vt 0.668229 0.009845
vt 0.710445 0.010223
vt 0.638873 0.010224
vt 0.554101 0.009654
vt 0.610121 0.009485
vt 0.562550 0.009757
vt 0.614841 0.009576
vt 0.572229 0.009862
vt 0.623385 0.009660
vt 0.583723 0.009958
vt 0.633418 0.009726
vt 0.596741 0.010042
vt 0.644419 0.009777
vt 0.610730 0.010112
vt 0.624609 0.010173
vt 0.655973 0.009815
vt 0.607004 0.009356
vt 0.705564 0.004279
vt 0.671130 0.004254
vt 0.663389 0.003916
vt 0.778314 0.004410
vt 0.740387 0.004563
vt 0.621881 0.004565
vt 0.570164 0.004214
vt 0.583717 0.004151
vt 0.630434 0.004425
vt 0.597656 0.004088
vt 0.638303 0.004357
vt 0.611403 0.004033
vt 0.646171 0.004308
vt 0.624895 0.003988
vt 0.654165 0.004275
vt 0.638089 0.003955
vt 0.662418 0.004256
vt 0.650965 0.003932
vt 0.722168 0.004010
vt 0.601104 0.004638
vt 0.243295 0.004137
vt 0.542016 0.961673
vt 0.507164 0.922407
vt 0.603552 0.922959
vt 0.202216 0.004439
vt 0.184784 0.004589
vt 0.159365 0.004445
vt 0.131683 0.004780
vt 0.206508 0.004409
vt 0.185921 0.004255
vt 0.192519 0.004228
vt 0.211090 0.004386
vt 0.199504 0.004203
vt 0.207003 0.004180
vt 0.215207 0.004161
vt 0.216229 0.004371
vt 0.224094 0.004147
vt 0.221899 0.004362
vt 0.233524 0.004140
vt 0.157874 0.004864
vt 0.878028 0.074661
vt 0.909316 0.074836
vt 0.847781 0.113550
vt 0.871333 0.075603
vt 0.864963 0.078456
vt 0.859241 0.083077
vt 0.854451 0.089234
vt 0.850836 0.096620
vt 0.023499 0.039616
vt 0.018967 0.039209
vt 0.028037 0.039039
vt 0.116641 0.097913
vt 0.118858 0.106131
vt 0.119613 0.114784
vt 0.113071 0.090542
vt 0.108328 0.084388
vt 0.102649 0.079758
vt 0.096320 0.076885
vt 0.089658 0.075914
vt 0.058508 0.075929
vt 0.023650 0.114844
vt 0.389055 0.075764
vt 0.420258 0.075749
vt 0.359131 0.114631
vt 0.382393 0.076742
vt 0.376066 0.079618
vt 0.370391 0.084250
vt 0.365653 0.090404
vt 0.362089 0.097772
vt 0.176858 0.054916
vt 0.181362 0.055352
vt 0.172267 0.055469
vt 0.598854 0.011050
vt 0.594223 0.011087
vt 0.603448 0.009998
vt 0.116982 0.938857
vt 0.113419 0.946226
vt 0.108680 0.952379
vt 0.103005 0.957012
vt 0.096679 0.959888
vt 0.090017 0.960865
vt 0.455422 0.921786
vt 0.420564 0.960701
vt 0.359459 0.921846
vt 0.389414 0.960716
vt 0.382751 0.959744
vt 0.376422 0.956872
vt 0.370744 0.952242
vt 0.366000 0.946088
vt 0.362431 0.938716
vt 0.360213 0.930499
vt 0.761380 0.032539
vt 0.756818 0.032130
vt 0.765948 0.031958
vt 0.600497 0.939888
vt 0.596881 0.947274
vt 0.592092 0.953432
vt 0.586369 0.958053
vt 0.580000 0.960906
vt 0.573304 0.961848
vt 0.944168 0.114101
vt 0.940520 0.924890
vt 0.905369 0.963705
vt 0.844130 0.924337
vt 0.874026 0.963530
vt 0.867339 0.962514
vt 0.860996 0.959593
vt 0.855315 0.954911
vt 0.850581 0.948706
vt 0.847032 0.941287
vt 0.455096 0.114571
vn 0.0000 -1.0000 -0.0000
vn 0.0000 1.0000 0.0000
vn -0.7071 0.0000 -0.7071
vn -0.9239 0.0000 -0.3827
vn -0.9979 0.0000 0.0652
vn -0.9667 -0.0000 0.2558
vn -0.8731 0.0000 0.4876
vn -0.7341 0.0000 0.6790
vn -0.5665 -0.0000 0.8241
vn -0.3833 -0.0000 0.9236
vn -0.1930 -0.0000 0.9812
vn -0.0963 -0.0000 0.9953
vn -0.7071 0.0000 0.7071
vn -0.9239 0.0000 0.3827
vn -0.9979 0.0000 -0.0651
vn -0.0964 -0.0000 -0.9953
vn -0.1931 -0.0000 -0.9812
vn -0.3835 0.0000 -0.9235
vn -0.5668 0.0000 -0.8239
vn -0.7344 -0.0000 -0.6787
vn -0.8732 0.0000 -0.4873
vn -0.9668 0.0000 -0.2556
vn 0.9239 0.0000 0.3827
vn 0.9979 -0.0000 -0.0652
vn 0.7071 0.0000 0.7071
vn 0.1930 0.0000 -0.9812
vn 0.0963 0.0000 -0.9953
vn 0.3833 0.0000 -0.9236
vn 0.5665 -0.0000 -0.8241
vn 0.7341 0.0000 -0.6790
vn 0.8731 0.0000 -0.4876
vn 0.9667 0.0000 -0.2558
vn 1.0000 -0.0000 0.0001
vn 0.9979 -0.0000 0.0651
vn 0.9239 0.0000 -0.3827
vn 0.7071 0.0000 -0.7071
vn 0.9668 -0.0000 0.2556
vn 0.8732 0.0000 0.4873
vn 0.7344 0.0000 0.6787
vn 0.5668 -0.0000 0.8239
vn 0.3835 -0.0000 0.9235
vn 0.1931 -0.0000 0.9812
vn 0.0964 -0.0000 0.9953
vn -1.0000 -0.0000 -0.0001
vn 0.0000 0.0000 -1.0000
vn -0.0000 0.0000 1.0000
s 1
f 35/35/2 36/36/2 37/37/2
f 38/38/2 35/35/2 37/37/2
f 42/39/2 38/38/2 37/37/2
f 43/40/2 42/39/2 37/37/2
f 113/41/2 114/42/2 37/43/2
f 112/44/2 113/45/2 37/37/2
f 111/46/2 112/44/2 37/37/2
f 36/36/2 111/46/2 37/37/2
s 2
f 39/47/3 40/48/3 41/49/3
s 3
f 44/50/4 45/51/5 46/52/5
f 45/51/5 61/53/6 46/52/5
f 68/54/6 69/55/7 61/53/6
f 70/56/7 71/57/8 69/55/7
f 72/58/8 73/59/9 71/57/8
f 74/60/9 75/61/10 73/59/9
f 76/62/10 77/63/11 75/61/10
f 78/64/11 79/65/12 77/63/11
f 80/66/12 81/67/13 79/65/12
f 44/50/4 55/68/4 45/51/5
f 45/51/5 68/54/6 61/53/6
f 68/54/6 70/56/7 69/55/7
f 70/56/7 72/58/8 71/57/8
f 72/58/8 74/60/9 73/59/9
f 74/60/9 76/62/10 75/61/10
f 76/62/10 78/64/11 77/63/11
f 78/64/11 80/66/12 79/65/12
f 80/66/12 56/69/13 81/67/13
s 4
f 40/70/14 47/71/15 48/72/14
f 58/73/16 39/74/15 59/75/16
f 41/76/17 89/77/18 90/78/18
f 90/78/18 91/79/19 92/80/19
f 92/80/19 93/81/20 94/82/20
f 94/82/20 95/83/21 96/84/21
f 96/84/21 97/85/22 98/86/22
f 97/85/22 99/87/23 98/86/22
f 100/88/23 59/75/16 99/87/23
f 40/70/14 39/74/15 47/71/15
f 58/73/16 47/71/15 39/74/15
f 41/76/17 60/89/17 89/77/18
f 90/78/18 89/77/18 91/79/19
f 92/80/19 91/79/19 93/81/20
f 94/82/20 93/81/20 95/83/21
f 96/84/21 95/83/21 97/85/22
f 97/85/22 100/88/23 99/87/23
f 100/88/23 58/73/16 59/75/16
s 5
f 49/90/24 50/91/25 51/92/25
f 102/93/26 103/94/26 49/90/24
f 67/95/27 53/96/28 84/97/27
f 66/98/29 84/97/27 83/99/29
f 65/100/30 83/99/29 85/101/30
f 64/102/31 85/101/30 86/103/31
f 63/104/32 86/103/31 87/105/32
f 62/106/33 87/105/32 88/107/33
f 50/91/25 88/107/33 51/92/25
f 49/90/24 51/92/25 101/108/24
f 102/93/26 49/90/24 101/108/24
f 50/91/25 62/106/33 88/107/33
f 62/106/33 63/104/32 87/105/32
f 63/104/32 64/102/31 86/103/31
f 64/102/31 65/100/30 85/101/30
f 65/100/30 66/98/29 83/99/29
f 66/98/29 67/95/27 84/97/27
f 67/95/27 54/109/28 53/96/28
s 6
f 52/110/34 53/96/34 54/109/34
f 52/110/34 54/109/34 37/43/34
s 7
f 45/111/2 55/112/2 56/113/2
s 8
f 38/114/35 42/115/36 57/116/36
f 82/117/37 57/116/36 42/115/36
f 35/118/38 104/119/35 105/120/38
f 36/121/39 105/120/38 106/122/39
f 107/123/40 36/121/39 106/122/39
f 108/124/41 111/125/40 107/123/40
f 109/126/42 112/127/41 108/124/41
f 110/128/43 113/41/42 109/126/42
f 52/110/44 114/42/43 110/128/43
f 38/114/35 57/116/36 104/119/35
f 82/117/37 42/115/36 43/129/37
f 52/110/44 37/43/44 114/42/43
f 110/128/43 114/42/43 113/41/42
f 109/126/42 113/41/42 112/127/41
f 108/124/41 112/127/41 111/125/40
f 107/123/40 111/125/40 36/121/39
f 36/121/39 35/118/38 105/120/38
f 35/118/38 38/114/35 104/119/35
s 9
f 41/76/45 56/69/45 60/89/45
f 41/76/45 81/67/45 56/69/45
s 10
f 50/130/2 49/131/2 54/132/2
f 62/133/2 50/130/2 54/132/2
f 63/134/2 62/133/2 54/132/2
f 64/135/2 63/134/2 54/132/2
f 65/136/2 64/135/2 54/132/2
f 66/137/2 65/136/2 54/132/2
f 67/138/2 66/139/2 54/140/2
s 11
f 83/141/3 84/142/3 53/143/3
f 85/144/3 83/141/3 53/143/3
f 86/145/3 85/144/3 53/143/3
f 87/146/3 86/145/3 53/143/3
f 88/147/3 87/146/3 53/143/3
f 51/148/3 88/147/3 53/143/3
f 101/149/3 51/148/3 53/143/3
f 102/150/3 101/149/3 53/143/3
s 12
f 104/151/3 57/152/3 52/153/3
f 105/154/3 104/151/3 52/153/3
f 106/155/3 105/154/3 52/153/3
f 107/156/3 106/155/3 52/153/3
f 108/157/3 107/156/3 52/153/3
f 109/158/3 108/157/3 52/153/3
f 110/159/3 109/160/3 52/161/3
s 13
f 90/162/3 92/163/3 41/164/3
f 92/165/3 94/166/3 41/49/3
f 94/166/3 96/167/3 41/49/3
f 96/167/3 98/168/3 41/49/3
f 98/168/3 99/169/3 41/49/3
f 99/169/3 59/170/3 41/49/3
f 59/170/3 39/47/3 41/49/3
s 14
f 44/171/3 46/172/3 81/173/3
f 46/172/3 61/174/3 81/173/3
f 61/174/3 69/175/3 81/173/3
f 69/175/3 71/176/3 81/173/3
f 71/176/3 73/177/3 81/173/3
f 73/177/3 75/178/3 81/173/3
f 75/178/3 77/179/3 81/173/3
f 77/179/3 79/180/3 81/173/3
s 15
f 80/181/2 78/182/2 56/183/2
f 78/184/2 76/185/2 56/113/2
f 76/185/2 74/186/2 56/113/2
f 74/186/2 72/187/2 56/113/2
f 72/187/2 70/188/2 56/113/2
f 70/188/2 68/189/2 56/113/2
f 68/189/2 45/111/2 56/113/2
s 16
f 103/190/2 55/112/2 43/40/2
f 103/190/2 48/191/2 55/112/2
s 17
f 48/191/2 47/192/2 60/193/2
f 47/192/2 58/194/2 60/193/2
f 58/194/2 100/195/2 60/193/2
f 100/195/2 97/196/2 60/193/2
f 97/196/2 95/197/2 60/193/2
f 95/197/2 93/198/2 60/193/2
f 93/198/2 91/199/2 60/193/2
f 91/79/2 89/77/2 60/89/2
s 18
f 43/129/46 44/50/46 82/117/46
f 43/129/46 55/68/46 44/50/46
s 19
f 49/131/2 103/190/2 54/132/2
s 20
f 57/152/3 82/200/3 52/153/3
s 21
f 102/93/47 48/72/47 103/94/47
f 102/93/47 40/70/47 48/72/47
s 22
f 102/150/3 44/171/3 40/48/3
f 102/150/3 82/200/3 44/171/3
