# Blender v2.82 (sub 7) OBJ File: 'wing4template.blend'
# www.blender.org
mtllib wing4template-collider.mtl
o s1_Mesh.002
v 0.170372 -0.012500 -0.071071
v 0.161676 -0.012500 -0.100002
v 0.170372 0.012500 -0.071071
v 0.161676 0.012500 -0.100002
v 0.161676 0.008085 -0.100002
v 0.170372 0.012500 0.071071
v 0.170372 -0.012500 0.071071
v 0.161676 -0.008085 0.100002
v 0.161676 -0.012500 0.100002
v 0.161676 0.012500 0.100002
v -0.161676 0.012500 -0.100002
v -0.161676 -0.008085 -0.100002
v -0.170372 -0.012500 -0.071071
v -0.161676 -0.012500 -0.100002
v -0.170372 0.012500 -0.071071
v -0.170372 0.012500 0.071071
v -0.170372 -0.012500 0.071071
v -0.161676 0.008085 0.100002
v -0.161676 -0.012500 0.100002
v -0.161676 0.012500 0.100002
v 0.170372 -0.012500 -0.068160
v 0.170372 0.012500 -0.068160
v -0.170372 -0.012500 0.068160
v -0.170281 0.012500 0.071374
v -0.170372 0.012500 0.068160
vt 0.556254 0.000000
vt 0.404433 0.000000
vt 0.404433 0.175693
vt 0.529443 0.175693
vt 0.556254 0.175693
vt 0.556255 0.000000
vt 0.404434 0.000000
vt 0.404434 0.175692
vt 0.529444 0.175693
vt 0.556255 0.175693
vt 0.556255 0.000000
vt 0.404434 0.000000
vt 0.404434 0.175693
vt 0.529444 0.175693
vt 0.556255 0.175693
vt 0.000000 0.000000
vt 0.000000 0.000000
vt 0.000000 0.000000
vt 0.000000 0.000000
vt 0.000000 0.000000
vt 0.000000 0.000000
vt 0.556255 0.001837
vt 0.404434 0.000000
vt 0.404433 0.175692
vt 0.529443 0.175692
vt 0.556255 0.175693
vt 0.000000 0.000000
vt 0.000000 0.000000
vt 0.000000 0.000000
vt 0.000000 0.000000
vt 0.000000 0.000000
vt 0.000000 0.000000
vt 0.000000 0.000000
vt 0.617373 0.451665
vt 0.621243 0.455700
vt 0.568657 0.455700
vt 0.567827 0.454835
vt 0.578627 0.409952
vt 0.574675 0.406000
vt 0.627325 0.406000
vt 0.628173 0.406848
vt 0.574332 0.449647
vt 0.618768 0.450553
vt 0.621585 0.412035
vt 0.577215 0.411065
vt 0.383882 0.793913
vt 0.080781 0.793913
vt 0.017800 0.778771
vt 0.017800 0.215729
vt 0.080782 0.200588
vt 0.087118 0.200587
vt 0.383882 0.200587
vt 0.390219 0.200588
vt 0.390877 0.200746
vt 0.453200 0.215729
vt 0.453200 0.778771
vt 0.390219 0.793913
vt 0.087118 0.793913
vt 0.080781 0.200587
vt 0.080780 0.793914
vt 0.017800 0.778771
vt 0.017800 0.215729
vt 0.390219 0.200587
vt 0.453200 0.215729
vt 0.453200 0.778771
vt 0.390219 0.793912
vn -0.9577 0.0000 -0.2878
vn 0.9577 0.0000 0.2878
vn 0.9577 -0.0000 -0.2878
vn 1.0000 0.0000 -0.0000
vn -0.9577 0.0000 0.2878
vn -1.0000 0.0000 0.0000
vn -0.0000 -0.0000 -1.0000
vn 0.0000 -0.0000 1.0000
vn -0.0000 -1.0000 -0.0000
vn 0.0000 1.0000 0.0000
usemtl None.003
s off
f 13/1/1 15/2/1 11/3/1 12/4/1 14/5/1
f 7/6/2 6/7/2 10/8/2 8/9/2 9/10/2
f 3/11/3 1/12/3 2/13/3 5/14/3 4/15/3
f 7/16/4 22/17/4 6/18/4
f 7/16/4 21/19/4 22/17/4
f 21/19/4 1/20/4 3/21/4
f 21/19/4 3/21/4 22/17/4
f 24/22/5 17/23/5 19/24/5 18/25/5 20/26/5
f 25/27/6 17/28/6 16/29/6
f 13/30/6 25/27/6 15/31/6
f 13/30/6 23/32/6 25/27/6
f 17/28/5 24/33/5 16/29/5
f 23/32/6 17/28/6 25/27/6
s 1
f 12/34/7 11/35/7 4/36/7 5/37/7
f 8/38/8 10/39/8 20/40/8 18/41/8
f 5/37/7 2/42/7 14/43/7 12/34/7
f 18/41/8 19/44/8 9/45/8 8/38/8
f 21/46/9 7/47/9 9/48/9 19/49/9 17/50/9 23/51/9
f 25/52/10 16/53/10 24/54/10 20/55/10 10/56/10 6/57/10 22/58/10
f 15/59/10 25/52/10 22/58/10 3/60/10 4/61/10 11/62/10
f 23/51/9 13/63/9 14/64/9 2/65/9 1/66/9 21/46/9
o s1_Mesh.003
v 0.200868 0.012500 0.071071
v 0.200868 -0.012500 0.071071
v 0.200868 0.012500 -0.071071
v 0.200868 -0.012500 -0.071071
v 0.170372 -0.012500 -0.071071
v 0.170372 0.012500 -0.071071
v 0.177647 -0.012500 -0.071071
v 0.177647 0.012500 -0.071071
v 0.170372 0.012500 0.071071
v 0.170372 -0.012500 0.071071
v 0.189258 0.012500 -0.071071
v 0.170372 -0.012500 -0.068160
v 0.170372 0.012500 -0.068160
vt 0.556255 1.000000
vt 0.404434 0.750000
vt 0.404434 1.000000
vt 0.404434 0.750000
vt 0.404434 0.940357
vt 0.556255 0.845179
vt 0.000000 0.000000
vt 0.000000 0.000000
vt 0.000000 0.000000
vt 0.000000 0.000000
vt 0.000000 0.000000
vt 0.000000 0.000000
vt 0.000000 0.000000
vt 0.000000 0.000000
vt 0.000000 0.000000
vt 0.556255 0.750000
vt 0.000000 0.000000
vt 0.404434 1.000000
vt 0.556255 1.000000
vt 0.556255 0.940357
vt 0.556255 0.750000
vt 0.080781 0.847013
vt 0.080781 0.793913
vt 0.383882 0.793913
vt 0.390219 0.793912
vt 0.390219 0.806581
vt 0.390219 0.847013
vt 0.080781 0.847014
vt 0.080781 0.826798
vt 0.080780 0.793914
vt 0.087118 0.793913
vt 0.080781 0.806581
vt 0.390219 0.847014
vt 0.390219 0.793913
vn -0.0000 -0.0000 1.0000
vn 0.0000 0.0000 -1.0000
vn 1.0000 0.0000 0.0000
vn -1.0000 -0.0000 0.0000
vn -0.0000 -1.0000 0.0000
vn 0.0000 1.0000 0.0000
usemtl None.003
s off
f 35/67/11 26/68/11 34/69/11
f 29/70/12 32/71/12 36/72/12
f 29/73/13 28/74/13 26/75/13
f 29/73/13 26/75/13 27/76/13
f 35/77/14 34/78/14 38/79/14
f 31/80/14 37/81/14 38/79/14
f 35/67/11 27/82/11 26/68/11
f 37/81/14 31/80/14 30/83/14
f 37/81/14 35/77/14 38/79/14
f 32/71/12 30/84/12 31/85/12
f 31/85/12 33/86/12 32/71/12
f 33/86/12 36/72/12 32/71/12
f 36/72/12 28/87/12 29/70/12
s 1
f 27/88/15 35/89/15 37/90/15
f 37/90/15 30/91/15 32/92/15
f 26/93/16 28/94/16 36/95/16
f 31/96/16 38/97/16 33/98/16
f 32/92/15 29/99/15 37/90/15
f 29/99/15 27/88/15 37/90/15
f 33/98/16 38/97/16 36/95/16
f 38/97/16 34/100/16 26/93/16
f 36/95/16 38/97/16 26/93/16
o s1_Mesh.004_s1_Mesh.005
v 0.249962 -0.012500 -0.100002
v 0.249962 -0.012500 0.100002
v 0.249962 0.012500 0.100002
v 0.249962 0.012500 -0.100002
v 0.209563 0.010480 -0.100002
v 0.209563 -0.012500 -0.100002
v 0.204041 -0.012500 -0.081631
v 0.200868 0.012500 0.071071
v 0.200868 -0.012500 0.071071
v 0.209563 -0.012500 0.100002
v 0.209563 0.012500 0.100002
v 0.209563 -0.010480 0.100002
v 0.209563 0.012500 -0.100002
v 0.200868 0.012500 -0.071071
v 0.204042 0.012500 -0.081631
v 0.200868 -0.012500 -0.071071
v 0.206802 -0.012500 -0.090816
vt 0.404434 0.750000
vt 0.556255 0.750000
vt 0.556255 0.685874
vt 0.556255 0.574307
vt 0.543986 0.574307
vt 0.404434 0.574307
vt 0.404434 0.630091
vt 0.404434 0.685874
vt 0.404434 0.750000
vt 0.556255 0.750000
vt 0.556255 0.574308
vt 0.543986 0.574308
vt 0.404434 0.574308
vt 0.000000 0.000000
vt 0.000000 0.000000
vt 0.000000 0.000000
vt 0.000000 0.000000
vt 0.453200 0.932500
vt 0.017800 0.932500
vt 0.017800 0.862155
vt 0.080781 0.847013
vt 0.390219 0.847014
vt 0.413206 0.852540
vt 0.565100 0.410800
vt 0.560300 0.406000
vt 0.566878 0.406000
vt 0.571290 0.410412
vt 0.562200 0.449400
vt 0.554300 0.455700
vt 0.567752 0.449513
vt 0.560490 0.455304
vt 0.017800 0.862155
vt 0.057794 0.852540
vt 0.017800 0.932500
vt 0.560870 0.455700
vt 0.433203 0.857348
vt 0.453200 0.862155
vt 0.570644 0.410921
vt 0.080781 0.847014
vt 0.390219 0.847013
vt 0.453200 0.862155
vt 0.453200 0.932500
vn -0.9577 0.0000 -0.2878
vn -0.9577 -0.0000 0.2878
vn -1.0000 0.0000 0.0000
vn -0.0000 -1.0000 -0.0000
vn 0.0000 0.0000 1.0000
vn 1.0000 0.0000 -0.0000
vn 0.0000 0.0000 -1.0000
vn 0.0000 1.0000 0.0000
usemtl None.003
s off
f 54/101/17 52/102/17 53/103/17 51/104/17 43/105/17 44/106/17 55/107/17 45/108/17
f 46/109/18 47/110/18 48/111/18 50/112/18 49/113/18
f 54/114/19 47/115/19 52/116/19
f 47/115/19 46/117/19 52/116/19
s 1
f 39/118/20 40/119/20 48/120/20 47/121/20 54/122/20 45/123/20
f 40/124/21 41/125/21 49/126/21 50/127/21
f 40/124/22 39/128/22 42/129/22
f 41/125/22 40/124/22 42/129/22
f 39/128/23 44/130/23 43/131/23 42/129/23
f 51/132/24 53/133/24 42/134/24
f 43/131/23 51/135/23 42/129/23
f 45/123/20 55/136/20 44/137/20 39/118/20
f 50/127/21 48/138/21 40/124/21
f 52/139/24 46/140/24 49/141/24 41/142/24 42/134/24 53/133/24
o s1_Mesh.001_s1_Mesh.006
v -0.200868 -0.012500 -0.071071
v -0.200868 0.012500 -0.071071
v -0.170372 -0.012500 -0.071071
v -0.170372 0.012500 -0.071071
v -0.170372 0.012500 0.071071
v -0.177647 0.012500 0.071071
v -0.170372 -0.012500 0.071071
v -0.200868 -0.012500 0.071071
v -0.177647 -0.012500 0.071071
v -0.200868 0.012500 0.071071
v -0.170372 -0.012500 0.068160
v -0.170281 0.012500 0.071374
v -0.170372 0.012500 0.068160
vt 0.556255 0.000000
vt 0.404434 0.000000
vt 0.556255 0.001837
vt 0.404434 1.000000
vt 0.556255 1.000000
vt 0.556255 0.940357
vt 0.556255 0.750000
vt 0.404433 0.750000
vt 0.404433 0.940356
vt 0.404433 1.000000
vt 0.556254 1.000000
vt 0.556254 0.750000
vt 0.404433 0.750000
vt 0.000000 0.000000
vt 0.000000 0.000000
vt 0.000000 0.000000
vt 0.000000 0.000000
vt 0.000000 0.000000
vt 0.000000 0.000000
vt 0.000000 0.000000
vt 0.000000 0.000000
vt 0.000000 0.000000
vt 0.000000 0.000000
vt 0.390219 0.187919
vt 0.390219 0.200588
vt 0.383882 0.200587
vt 0.080781 0.147486
vt 0.390219 0.147486
vt 0.080781 0.200587
vt 0.080781 0.147486
vt 0.390219 0.147486
vt 0.390219 0.200587
vt 0.087118 0.200587
vt 0.080781 0.187919
vt 0.080782 0.200588
vn -0.9577 0.0000 0.2878
vn 0.0000 0.0000 1.0000
vn 0.0000 -0.0000 -1.0000
vn -1.0000 -0.0000 0.0000
vn 1.0000 0.0000 -0.0000
vn 0.0000 1.0000 -0.0000
vn -0.0000 -1.0000 0.0000
usemtl None.003
s off
f 60/143/25 62/144/25 67/145/25
f 62/146/26 60/147/26 61/148/26 65/149/26 63/150/26 64/151/26
f 59/152/27 58/153/27 56/154/27 57/155/27
f 57/156/28 56/157/28 65/158/28
f 62/159/29 68/160/29 60/161/29
f 56/157/28 63/162/28 65/158/28
f 62/159/29 66/163/29 68/160/29
f 68/160/29 66/163/29 58/164/29
f 59/165/29 68/160/29 58/164/29
s 1
f 61/166/30 60/167/30 68/168/30
f 57/169/30 65/170/30 61/166/30 68/168/30 59/171/30
f 63/172/31 56/173/31 58/174/31 66/175/31 64/176/31
f 66/175/31 62/177/31 64/176/31
o s1_Mesh.005_s1_Mesh.007
v -0.249962 -0.012500 0.100002
v -0.249962 0.012500 0.100002
v -0.249962 -0.012500 -0.100002
v -0.249962 0.012500 -0.100002
v -0.209563 0.012500 -0.100002
v -0.209563 -0.010480 -0.100002
v -0.200868 -0.012500 -0.071071
v -0.209563 -0.012500 -0.100002
v -0.200868 0.012500 -0.071071
v -0.200868 -0.012500 0.071071
v -0.200868 0.012500 0.071071
v -0.209563 0.012500 0.100002
v -0.204041 0.012500 0.081631
v -0.209563 0.010480 0.100002
v -0.204042 -0.012500 0.081631
v -0.209563 -0.012500 0.100002
vt 0.404433 0.750000
vt 0.556255 0.750000
vt 0.556255 0.685874
vt 0.556255 0.574308
vt 0.543986 0.574308
vt 0.404433 0.574308
vt 0.404433 0.685874
vt 0.404433 0.750000
vt 0.556254 0.750000
vt 0.556254 0.574307
vt 0.543985 0.574307
vt 0.404433 0.574307
vt 0.000000 0.000000
vt 0.000000 0.000000
vt 0.000000 0.000000
vt 0.000000 0.000000
vt 0.453200 0.062000
vt 0.453200 0.132345
vt 0.413206 0.141960
vt 0.630900 0.450800
vt 0.633700 0.412300
vt 0.641700 0.406000
vt 0.635600 0.455700
vt 0.629030 0.455700
vt 0.624710 0.451196
vt 0.453200 0.062000
vt 0.453200 0.132345
vt 0.390219 0.147486
vt 0.080781 0.147486
vt 0.057794 0.141960
vt 0.017800 0.062000
vt 0.017800 0.062000
vt 0.390219 0.147486
vt 0.080781 0.147486
vt 0.017800 0.132345
vt 0.628156 0.412179
vt 0.635510 0.406388
vt 0.017800 0.132345
vt 0.635122 0.406000
vt 0.625348 0.450687
vn 0.9577 -0.0000 0.2878
vn 0.9577 0.0000 -0.2878
vn 1.0000 0.0000 -0.0000
vn 0.0000 1.0000 0.0000
vn -1.0000 0.0000 0.0000
vn 0.0000 0.0000 -1.0000
vn -0.0000 -1.0000 0.0000
vn -0.0000 0.0000 1.0000
usemtl None.003
s off
f 78/178/32 79/179/32 81/180/32 80/181/32 82/182/32 84/183/32 83/184/32
f 77/185/33 75/186/33 76/187/33 74/188/33 73/189/33
f 78/190/34 77/191/34 79/192/34
f 78/190/34 75/193/34 77/191/34
s 1
f 70/194/35 80/195/35 81/196/35
f 71/197/36 69/198/36 70/199/36
f 71/197/37 72/200/37 73/201/37 74/202/37
f 71/203/38 76/204/38 75/205/38 78/206/38 83/207/38 69/208/38
f 72/209/35 70/194/35 81/196/35 79/210/35 77/211/35 73/212/35
f 72/200/36 71/197/36 70/199/36
f 69/198/39 84/213/39 82/214/39 70/199/39
f 83/207/38 84/215/38 69/208/38
f 82/214/39 80/216/39 70/199/39
f 74/202/37 76/217/37 71/197/37
o s1_Mesh.006_s1_Mesh.008
v -0.071071 -0.012500 -0.170372
v -0.100002 -0.012500 -0.161676
v -0.071071 0.012500 -0.170372
v -0.100002 0.012500 -0.161676
v -0.100002 0.008085 -0.161676
v 0.071071 0.012500 -0.170372
v 0.071071 -0.012500 -0.170372
v 0.100002 -0.008085 -0.161676
v 0.100002 -0.012500 -0.161676
v 0.100002 0.012500 -0.161676
v -0.100002 0.012500 0.161676
v -0.100002 -0.008085 0.161676
v -0.071071 -0.012500 0.170372
v -0.100002 -0.012500 0.161676
v -0.071071 0.012500 0.170372
v 0.071071 0.012500 0.170372
v 0.071071 -0.012500 0.170372
v 0.100002 0.008085 0.161676
v 0.100002 -0.012500 0.161676
v 0.100002 0.012500 0.161676
v -0.068161 -0.012500 -0.170372
v -0.068161 0.012500 -0.170372
v 0.068161 -0.012500 0.170372
v 0.071374 0.012500 0.170281
v 0.068161 0.012500 0.170372
vt 0.556254 0.000000
vt 0.404433 0.000000
vt 0.404433 0.175693
vt 0.529443 0.175693
vt 0.556254 0.175693
vt 0.556255 0.000000
vt 0.404434 0.000000
vt 0.404434 0.175692
vt 0.529444 0.175693
vt 0.556255 0.175693
vt 0.556255 0.000000
vt 0.404434 0.000000
vt 0.404434 0.175693
vt 0.529444 0.175693
vt 0.556255 0.175693
vt 0.000000 0.000000
vt 0.000000 0.000000
vt 0.000000 0.000000
vt 0.000000 0.000000
vt 0.000000 0.000000
vt 0.000000 0.000000
vt 0.556255 0.001837
vt 0.404434 0.000000
vt 0.404433 0.175692
vt 0.529443 0.175692
vt 0.556255 0.175693
vt 0.000000 0.000000
vt 0.000000 0.000000
vt 0.000000 0.000000
vt 0.000000 0.000000
vt 0.000000 0.000000
vt 0.000000 0.000000
vt 0.000000 0.000000
vt 0.617373 0.451665
vt 0.621243 0.455700
vt 0.568657 0.455700
vt 0.567827 0.454835
vt 0.578627 0.409952
vt 0.574675 0.406000
vt 0.627325 0.406000
vt 0.628173 0.406848
vt 0.574332 0.449647
vt 0.618768 0.450553
vt 0.621585 0.412035
vt 0.577215 0.411065
vt 0.383882 0.793913
vt 0.080781 0.793913
vt 0.017800 0.778771
vt 0.017800 0.215729
vt 0.080782 0.200588
vt 0.087118 0.200587
vt 0.383882 0.200587
vt 0.390219 0.200588
vt 0.390877 0.200746
vt 0.453200 0.215729
vt 0.453200 0.778771
vt 0.390219 0.793913
vt 0.087118 0.793913
vt 0.080781 0.200587
vt 0.080780 0.793914
vt 0.017800 0.778771
vt 0.017800 0.215729
vt 0.390219 0.200587
vt 0.453200 0.215729
vt 0.453200 0.778771
vt 0.390219 0.793912
vn -0.2878 0.0000 0.9577
vn 0.2878 0.0000 -0.9577
vn -0.2878 -0.0000 -0.9577
vn -0.0000 0.0000 -1.0000
vn 0.2878 0.0000 0.9577
vn 0.0000 0.0000 1.0000
vn -1.0000 -0.0000 0.0000
vn 1.0000 0.0000 -0.0000
vn 0.0000 -1.0000 0.0000
vn 0.0000 1.0000 -0.0000
usemtl None.003
s off
f 97/218/40 99/219/40 95/220/40 96/221/40 98/222/40
f 91/223/41 90/224/41 94/225/41 92/226/41 93/227/41
f 87/228/42 85/229/42 86/230/42 89/231/42 88/232/42
f 91/233/43 106/234/43 90/235/43
f 91/233/43 105/236/43 106/234/43
f 105/236/43 85/237/43 87/238/43
f 105/236/43 87/238/43 106/234/43
f 108/239/44 101/240/44 103/241/44 102/242/44 104/243/44
f 109/244/45 101/245/45 100/246/45
f 97/247/45 109/244/45 99/248/45
f 97/247/45 107/249/45 109/244/45
f 101/245/44 108/250/44 100/246/44
f 107/249/45 101/245/45 109/244/45
s 1
f 96/251/46 95/252/46 88/253/46 89/254/46
f 92/255/47 94/256/47 104/257/47 102/258/47
f 89/254/46 86/259/46 98/260/46 96/251/46
f 102/258/47 103/261/47 93/262/47 92/255/47
f 105/263/48 91/264/48 93/265/48 103/266/48 101/267/48 107/268/48
f 109/269/49 100/270/49 108/271/49 104/272/49 94/273/49 90/274/49 106/275/49
f 99/276/49 109/269/49 106/275/49 87/277/49 88/278/49 95/279/49
f 107/268/48 97/280/48 98/281/48 86/282/48 85/283/48 105/263/48
o s1_Mesh.007_s1_Mesh.009
v 0.071071 0.012500 -0.200868
v 0.071071 -0.012500 -0.200868
v -0.071071 0.012500 -0.200868
v -0.071071 -0.012500 -0.200868
v -0.071071 -0.012500 -0.170372
v -0.071071 0.012500 -0.170372
v -0.071071 -0.012500 -0.177647
v -0.071071 0.012500 -0.177647
v 0.071071 0.012500 -0.170372
v 0.071071 -0.012500 -0.170372
v -0.071071 0.012500 -0.189258
v -0.068161 -0.012500 -0.170372
v -0.068161 0.012500 -0.170372
vt 0.556255 1.000000
vt 0.404434 0.750000
vt 0.404434 1.000000
vt 0.404434 0.750000
vt 0.404434 0.940357
vt 0.556255 0.845179
vt 0.000000 0.000000
vt 0.000000 0.000000
vt 0.000000 0.000000
vt 0.000000 0.000000
vt 0.000000 0.000000
vt 0.000000 0.000000
vt 0.000000 0.000000
vt 0.000000 0.000000
vt 0.000000 0.000000
vt 0.556255 0.750000
vt 0.000000 0.000000
vt 0.404434 1.000000
vt 0.556255 1.000000
vt 0.556255 0.940357
vt 0.556255 0.750000
vt 0.080781 0.847013
vt 0.080781 0.793913
vt 0.383882 0.793913
vt 0.390219 0.793912
vt 0.390219 0.806581
vt 0.390219 0.847013
vt 0.080781 0.847014
vt 0.080781 0.826798
vt 0.080780 0.793914
vt 0.087118 0.793913
vt 0.080781 0.806581
vt 0.390219 0.847014
vt 0.390219 0.793913
vn 1.0000 0.0000 -0.0000
vn -1.0000 0.0000 0.0000
vn -0.0000 -0.0000 -1.0000
vn 0.0000 -0.0000 1.0000
vn -0.0000 -1.0000 0.0000
vn 0.0000 1.0000 -0.0000
usemtl None.003
s off
f 119/284/50 110/285/50 118/286/50
f 113/287/51 116/288/51 120/289/51
f 113/290/52 112/291/52 110/292/52
f 113/290/52 110/292/52 111/293/52
f 119/294/53 118/295/53 122/296/53
f 115/297/53 121/298/53 122/296/53
f 119/284/50 111/299/50 110/285/50
f 121/298/53 115/297/53 114/300/53
f 121/298/53 119/294/53 122/296/53
f 116/288/51 114/301/51 115/302/51
f 115/302/51 117/303/51 116/288/51
f 117/303/51 120/289/51 116/288/51
f 120/289/51 112/304/51 113/287/51
s 1
f 111/305/54 119/306/54 121/307/54
f 121/307/54 114/308/54 116/309/54
f 110/310/55 112/311/55 120/312/55
f 115/313/55 122/314/55 117/315/55
f 116/309/54 113/316/54 121/307/54
f 113/316/54 111/305/54 121/307/54
f 117/315/55 122/314/55 120/312/55
f 122/314/55 118/317/55 110/310/55
f 120/312/55 122/314/55 110/310/55
o s1_Mesh.008_s1_Mesh.011
v -0.100002 -0.012500 -0.249962
v 0.100002 -0.012500 -0.249962
v 0.100002 0.012500 -0.249962
v -0.100002 0.012500 -0.249962
v -0.100002 0.010480 -0.209563
v -0.100002 -0.012500 -0.209563
v -0.081631 -0.012500 -0.204041
v 0.071071 0.012500 -0.200868
v 0.071071 -0.012500 -0.200868
v 0.100002 -0.012500 -0.209563
v 0.100002 0.012500 -0.209563
v 0.100002 -0.010480 -0.209563
v -0.100002 0.012500 -0.209563
v -0.071071 0.012500 -0.200868
v -0.081631 0.012500 -0.204041
v -0.071071 -0.012500 -0.200868
v -0.090816 -0.012500 -0.206802
vt 0.404434 0.750000
vt 0.556255 0.750000
vt 0.556255 0.685874
vt 0.556255 0.574307
vt 0.543986 0.574307
vt 0.404434 0.574307
vt 0.404434 0.630091
vt 0.404434 0.685874
vt 0.404434 0.750000
vt 0.556255 0.750000
vt 0.556255 0.574308
vt 0.543986 0.574308
vt 0.404434 0.574308
vt 0.000000 0.000000
vt 0.000000 0.000000
vt 0.000000 0.000000
vt 0.000000 0.000000
vt 0.453200 0.932500
vt 0.017800 0.932500
vt 0.017800 0.862155
vt 0.080781 0.847013
vt 0.390219 0.847014
vt 0.413206 0.852540
vt 0.565100 0.410800
vt 0.560300 0.406000
vt 0.566878 0.406000
vt 0.571290 0.410412
vt 0.562200 0.449400
vt 0.554300 0.455700
vt 0.567752 0.449513
vt 0.560490 0.455304
vt 0.017800 0.862155
vt 0.057794 0.852540
vt 0.017800 0.932500
vt 0.560870 0.455700
vt 0.433203 0.857348
vt 0.453200 0.862155
vt 0.570644 0.410921
vt 0.080781 0.847014
vt 0.390219 0.847013
vt 0.453200 0.862155
vt 0.453200 0.932500
vn -0.2878 0.0000 0.9577
vn 0.2878 -0.0000 0.9577
vn 0.0000 0.0000 1.0000
vn -0.0000 -1.0000 0.0000
vn 1.0000 0.0000 -0.0000
vn -0.0000 0.0000 -1.0000
vn -1.0000 0.0000 0.0000
vn -0.0000 1.0000 -0.0000
usemtl None.003
s off
f 138/318/56 136/319/56 137/320/56 135/321/56 127/322/56 128/323/56 139/324/56 129/325/56
f 130/326/57 131/327/57 132/328/57 134/329/57 133/330/57
f 138/331/58 131/332/58 136/333/58
f 131/332/58 130/334/58 136/333/58
s 1
f 123/335/59 124/336/59 132/337/59 131/338/59 138/339/59 129/340/59
f 124/341/60 125/342/60 133/343/60 134/344/60
f 124/341/61 123/345/61 126/346/61
f 125/342/61 124/341/61 126/346/61
f 123/345/62 128/347/62 127/348/62 126/346/62
f 135/349/63 137/350/63 126/351/63
f 127/348/62 135/352/62 126/346/62
f 129/340/59 139/353/59 128/354/59 123/335/59
f 134/344/60 132/355/60 124/341/60
f 136/356/63 130/357/63 133/358/63 125/359/63 126/351/63 137/350/63
o s1_Mesh.009_s1_Mesh.012
v -0.071071 -0.012500 0.200868
v -0.071071 0.012500 0.200868
v -0.071071 -0.012500 0.170372
v -0.071071 0.012500 0.170372
v 0.071071 0.012500 0.170372
v 0.071071 0.012500 0.177647
v 0.071071 -0.012500 0.170372
v 0.071071 -0.012500 0.200868
v 0.071071 -0.012500 0.177647
v 0.071071 0.012500 0.200868
v 0.068161 -0.012500 0.170372
v 0.071374 0.012500 0.170281
v 0.068161 0.012500 0.170372
vt 0.556255 0.000000
vt 0.404434 0.000000
vt 0.556255 0.001837
vt 0.404434 1.000000
vt 0.556255 1.000000
vt 0.556255 0.940357
vt 0.556255 0.750000
vt 0.404433 0.750000
vt 0.404433 0.940356
vt 0.404433 1.000000
vt 0.556254 1.000000
vt 0.556254 0.750000
vt 0.404433 0.750000
vt 0.000000 0.000000
vt 0.000000 0.000000
vt 0.000000 0.000000
vt 0.000000 0.000000
vt 0.000000 0.000000
vt 0.000000 0.000000
vt 0.000000 0.000000
vt 0.000000 0.000000
vt 0.000000 0.000000
vt 0.000000 0.000000
vt 0.390219 0.187919
vt 0.390219 0.200588
vt 0.383882 0.200587
vt 0.080781 0.147486
vt 0.390219 0.147486
vt 0.080781 0.200587
vt 0.080781 0.147486
vt 0.390219 0.147486
vt 0.390219 0.200587
vt 0.087118 0.200587
vt 0.080781 0.187919
vt 0.080782 0.200588
vn 0.2878 0.0000 0.9577
vn 1.0000 0.0000 -0.0000
vn -1.0000 -0.0000 0.0000
vn 0.0000 0.0000 1.0000
vn -0.0000 0.0000 -1.0000
vn -0.0000 1.0000 -0.0000
vn 0.0000 -1.0000 0.0000
usemtl None.003
s off
f 144/360/64 146/361/64 151/362/64
f 146/363/65 144/364/65 145/365/65 149/366/65 147/367/65 148/368/65
f 143/369/66 142/370/66 140/371/66 141/372/66
f 141/373/67 140/374/67 149/375/67
f 146/376/68 152/377/68 144/378/68
f 140/374/67 147/379/67 149/375/67
f 146/376/68 150/380/68 152/377/68
f 152/377/68 150/380/68 142/381/68
f 143/382/68 152/377/68 142/381/68
s 1
f 145/383/69 144/384/69 152/385/69
f 141/386/69 149/387/69 145/383/69 152/385/69 143/388/69
f 147/389/70 140/390/70 142/391/70 150/392/70 148/393/70
f 150/392/70 146/394/70 148/393/70
o s1_Mesh.010_s1_Mesh.013
v 0.100002 -0.012500 0.249962
v 0.100002 0.012500 0.249962
v -0.100002 -0.012500 0.249962
v -0.100002 0.012500 0.249962
v -0.100002 0.012500 0.209563
v -0.100002 -0.010480 0.209563
v -0.071071 -0.012500 0.200868
v -0.100002 -0.012500 0.209563
v -0.071071 0.012500 0.200868
v 0.071071 -0.012500 0.200868
v 0.071071 0.012500 0.200868
v 0.100002 0.012500 0.209563
v 0.081631 0.012500 0.204041
v 0.100002 0.010480 0.209563
v 0.081631 -0.012500 0.204041
v 0.100002 -0.012500 0.209563
vt 0.404433 0.750000
vt 0.556255 0.750000
vt 0.556255 0.685874
vt 0.556255 0.574308
vt 0.543986 0.574308
vt 0.404433 0.574308
vt 0.404433 0.685874
vt 0.404433 0.750000
vt 0.556254 0.750000
vt 0.556254 0.574307
vt 0.543985 0.574307
vt 0.404433 0.574307
vt 0.000000 0.000000
vt 0.000000 0.000000
vt 0.000000 0.000000
vt 0.000000 0.000000
vt 0.453200 0.062000
vt 0.453200 0.132345
vt 0.413206 0.141960
vt 0.630900 0.450800
vt 0.633700 0.412300
vt 0.641700 0.406000
vt 0.635600 0.455700
vt 0.629030 0.455700
vt 0.624710 0.451196
vt 0.453200 0.062000
vt 0.453200 0.132345
vt 0.390219 0.147486
vt 0.080781 0.147486
vt 0.057794 0.141960
vt 0.017800 0.062000
vt 0.017800 0.062000
vt 0.390219 0.147486
vt 0.080781 0.147486
vt 0.017800 0.132345
vt 0.628156 0.412179
vt 0.635510 0.406388
vt 0.017800 0.132345
vt 0.635122 0.406000
vt 0.625348 0.450687
vn 0.2878 -0.0000 -0.9577
vn -0.2878 -0.0000 -0.9577
vn -0.0000 -0.0000 -1.0000
vn 0.0000 1.0000 -0.0000
vn 0.0000 0.0000 1.0000
vn -1.0000 0.0000 0.0000
vn 0.0000 -1.0000 0.0000
vn 1.0000 0.0000 -0.0000
usemtl None.003
s off
f 162/395/71 163/396/71 165/397/71 164/398/71 166/399/71 168/400/71 167/401/71
f 161/402/72 159/403/72 160/404/72 158/405/72 157/406/72
f 162/407/73 161/408/73 163/409/73
f 162/407/73 159/410/73 161/408/73
s 1
f 154/411/74 164/412/74 165/413/74
f 155/414/75 153/415/75 154/416/75
f 155/414/76 156/417/76 157/418/76 158/419/76
f 155/420/77 160/421/77 159/422/77 162/423/77 167/424/77 153/425/77
f 156/426/74 154/411/74 165/413/74 163/427/74 161/428/74 157/429/74
f 156/417/75 155/414/75 154/416/75
f 153/415/78 168/430/78 166/431/78 154/416/78
f 167/424/77 168/432/77 153/425/77
f 166/431/78 164/433/78 154/416/78
f 158/419/76 160/434/76 155/414/76
o Cube_Cube.006
v -0.037257 0.000093 0.037257
v -0.037257 0.074607 0.037257
v -0.037257 0.000093 -0.037257
v -0.037257 0.074607 -0.037257
v 0.037257 0.000093 0.037257
v 0.037257 0.074607 0.037257
v 0.037257 0.000093 -0.037257
v 0.037257 0.074607 -0.037257
vt 0.375000 0.000000
vt 0.625000 0.000000
vt 0.625000 0.250000
vt 0.375000 0.250000
vt 0.625000 0.500000
vt 0.375000 0.500000
vt 0.625000 0.750000
vt 0.375000 0.750000
vt 0.625000 1.000000
vt 0.375000 1.000000
vt 0.125000 0.500000
vt 0.125000 0.750000
vt 0.875000 0.500000
vt 0.875000 0.750000
vn -1.0000 0.0000 0.0000
vn 0.0000 0.0000 -1.0000
vn 1.0000 0.0000 0.0000
vn 0.0000 0.0000 1.0000
vn 0.0000 -1.0000 0.0000
vn 0.0000 1.0000 0.0000
usemtl None
s off
f 169/435/79 170/436/79 172/437/79 171/438/79
f 171/438/80 172/437/80 176/439/80 175/440/80
f 175/440/81 176/439/81 174/441/81 173/442/81
f 173/442/82 174/441/82 170/443/82 169/444/82
f 171/445/83 175/440/83 173/442/83 169/446/83
f 176/439/84 172/447/84 170/448/84 174/441/84
