# Blender v2.91.0 OBJ File: ''
# www.blender.org
o doublearrow_Plane.001
v 0.910601 0.070149 3.112253
v -0.905140 0.070149 3.112253
v 0.160592 0.070149 3.692361
v -0.160592 0.070149 3.692361
v -0.000000 0.070149 3.436610
v -0.000000 0.070149 3.754492
v 0.750000 0.070149 3.025530
v -0.750000 0.070149 3.025530
v -0.580296 0.070149 3.382443
v -0.875000 0.070149 3.025530
v 0.875000 0.070149 3.025530
v 0.580296 0.070149 3.382442
v -0.790148 0.070149 3.231732
v 0.790148 0.070149 3.231732
v -0.910601 0.070149 -3.112248
v 0.905140 0.070149 -3.112248
v -0.160592 0.070149 -3.692357
v 0.160592 0.070149 -3.692357
v -0.000000 0.070149 -3.436605
v 0.000000 0.070149 -3.754487
v -0.750000 0.070149 -3.025525
v 0.750000 0.070149 -3.025525
v 0.580296 0.070149 -3.382438
v 0.875000 0.070149 -3.025525
v -0.875000 0.070149 -3.025525
v -0.580296 0.070149 -3.382438
v 0.790148 0.070149 -3.231727
v -0.790148 0.070149 -3.231727
vt 0.075295 0.018536
vt 0.075228 0.020987
vt 0.075026 0.018536
vt 0.074219 0.018536
vt 0.074219 0.028339
vt 0.073681 0.028339
vt 0.073412 0.018536
vt 0.073681 0.018536
vt 0.073412 0.028339
vt 0.074757 0.018536
vt 0.074757 0.028339
vt 0.073143 0.023437
vt 0.073143 0.020987
vt 0.075295 0.018536
vt 0.075228 0.020987
vt 0.075026 0.018536
vt 0.074219 0.018536
vt 0.074219 0.028339
vt 0.073681 0.028339
vt 0.073412 0.018536
vt 0.073681 0.018536
vt 0.073412 0.028339
vt 0.074757 0.018536
vt 0.074757 0.028339
vt 0.073143 0.023437
vt 0.073143 0.020987
vt 0.075026 0.028339
vt 0.075160 0.023437
vt 0.075160 0.018536
vt 0.073143 0.018536
vt 0.073277 0.018536
vt 0.073143 0.028339
vt 0.075026 0.028339
vt 0.075160 0.023437
vt 0.075160 0.018536
vt 0.073143 0.018536
vt 0.073277 0.018536
vt 0.073143 0.028339
vn 0.0000 1.0000 -0.0000
s off
f 2/1/1 13/2/1 8/3/1
f 5/4/1 6/5/1 3/6/1
f 7/7/1 5/8/1 3/9/1
f 5/10/1 4/11/1 6/5/1
f 12/12/1 14/13/1 7/7/1
f 5/10/1 8/3/1 4/11/1
f 16/14/1 27/15/1 22/16/1
f 19/17/1 20/18/1 17/19/1
f 21/20/1 19/21/1 17/22/1
f 19/23/1 18/24/1 20/18/1
f 26/25/1 28/26/1 21/20/1
f 19/23/1 22/16/1 18/24/1
f 4/27/1 8/3/1 9/28/1
f 8/3/1 10/29/1 2/1/1
f 9/28/1 8/3/1 13/2/1
f 14/13/1 1/30/1 7/7/1
f 1/30/1 11/31/1 7/7/1
f 7/7/1 3/32/1 12/12/1
f 18/33/1 22/16/1 23/34/1
f 22/16/1 24/35/1 16/14/1
f 23/34/1 22/16/1 27/15/1
f 28/26/1 15/36/1 21/20/1
f 15/36/1 25/37/1 21/20/1
f 21/20/1 17/38/1 26/25/1
o double.001_Cylinder_Cylinder.005
v -0.707107 0.050000 0.707107
v -0.831470 0.050000 0.555570
v -0.831470 -0.050000 0.555570
v -0.923880 0.050000 0.382683
v -0.923880 -0.050000 0.382683
v -0.980785 0.050000 0.195090
v -0.980785 -0.050000 0.195090
v -1.000000 0.050000 0.000000
v -1.000000 -0.050000 -0.000000
v 1.000000 0.050000 0.000001
v 0.980785 0.050000 0.195091
v 0.980785 -0.050000 0.195091
v 0.923879 0.050000 0.382684
v 0.923879 -0.050000 0.382684
v 0.831469 0.050000 0.555571
v 0.831469 -0.050000 0.555571
v 0.707106 0.050000 0.707108
v 0.707106 -0.050000 0.707108
v 0.555570 0.050000 0.831470
v 0.000000 0.050000 1.280000
v 0.000000 -0.050000 1.280000
v 1.000000 -0.050000 0.000001
v 0.588471 -0.050000 0.117055
v 0.600000 0.050000 0.000001
v 0.600000 -0.050000 0.000001
v 0.554327 0.050000 0.229611
v 0.498881 0.050000 0.333343
v -0.424264 0.050000 0.424264
v -0.588471 0.050000 0.117054
v 0.588471 0.050000 0.117055
v 0.424264 0.050000 0.424265
v -0.498882 0.050000 0.333342
v -0.554328 0.050000 0.229610
v 0.554327 -0.050000 0.229611
v 0.424264 -0.050000 0.424265
v -0.554328 -0.050000 0.229610
v -0.498882 -0.050000 0.333342
v 0.555570 -0.050000 0.831470
v 0.333341 -0.050000 0.498882
v -0.588471 -0.050000 0.117054
v 0.498881 -0.050000 0.333343
v -0.424264 -0.050000 0.424264
v -0.600000 -0.050000 -0.000000
v 0.333341 0.050000 0.498882
v 0.229609 -0.050000 0.554328
v 0.229609 0.050000 0.554328
v 0.117053 -0.050000 0.588471
v 0.117053 0.050000 0.588471
v 0.000000 -0.050000 0.600000
v 0.000000 0.050000 0.600000
v -0.117054 -0.050000 0.588471
v -0.117054 0.050000 0.588471
v -0.229610 -0.050000 0.554328
v -0.229610 0.050000 0.554328
v -0.333342 -0.050000 0.498882
v -0.333342 0.050000 0.498882
v -0.555570 0.050000 0.831470
v -0.555570 -0.050000 0.831470
v -0.707107 -0.050000 0.707107
v -0.600000 0.050000 0.000000
v 0.707107 0.050000 -0.707107
v 0.831470 0.050000 -0.555570
v 0.831470 -0.050000 -0.555570
v 0.923880 0.050000 -0.382683
v 0.923880 -0.050000 -0.382683
v 0.980785 0.050000 -0.195090
v 0.980785 -0.050000 -0.195090
v 1.000000 0.050000 0.000000
v 1.000000 -0.050000 -0.000000
v -1.000000 0.050000 -0.000001
v -0.980785 0.050000 -0.195091
v -0.980785 -0.050000 -0.195091
v -0.923879 0.050000 -0.382684
v -0.923879 -0.050000 -0.382684
v -0.831469 0.050000 -0.555571
v -0.831469 -0.050000 -0.555571
v -0.707106 0.050000 -0.707108
v -0.707106 -0.050000 -0.707108
v -0.555570 0.050000 -0.831470
v 0.000000 0.050000 -1.280000
v 0.000000 -0.050000 -1.280000
v -1.000000 -0.050000 -0.000001
v -0.588471 -0.050000 -0.117055
v -0.600000 0.050000 -0.000001
v -0.600000 -0.050000 -0.000001
v -0.554327 0.050000 -0.229611
v -0.498881 0.050000 -0.333343
v 0.424264 0.050000 -0.424264
v 0.588471 0.050000 -0.117054
v -0.588471 0.050000 -0.117055
v -0.424264 0.050000 -0.424265
v 0.498882 0.050000 -0.333342
v 0.554328 0.050000 -0.229610
v -0.554327 -0.050000 -0.229611
v -0.424264 -0.050000 -0.424265
v 0.554328 -0.050000 -0.229610
v 0.498882 -0.050000 -0.333342
v -0.555570 -0.050000 -0.831470
v -0.333341 -0.050000 -0.498882
v 0.588471 -0.050000 -0.117054
v -0.498881 -0.050000 -0.333343
v 0.424264 -0.050000 -0.424264
v 0.600000 -0.050000 -0.000000
v -0.333341 0.050000 -0.498882
v -0.229609 -0.050000 -0.554328
v -0.229609 0.050000 -0.554328
v -0.117053 -0.050000 -0.588471
v -0.117053 0.050000 -0.588471
v 0.000000 -0.050000 -0.600000
v 0.000000 0.050000 -0.600000
v 0.117054 -0.050000 -0.588471
v 0.117054 0.050000 -0.588471
v 0.229610 -0.050000 -0.554328
v 0.229610 0.050000 -0.554328
v 0.333342 -0.050000 -0.498882
v 0.333342 0.050000 -0.498882
v 0.555570 0.050000 -0.831470
v 0.555570 -0.050000 -0.831470
v 0.707107 -0.050000 -0.707107
v 0.600000 0.050000 0.000000
vt 0.317200 0.383100
vt 0.311500 0.380500
vt 0.312700 0.377200
vt 0.305400 0.379200
vt 0.305800 0.375800
vt 0.299100 0.379300
vt 0.298700 0.375800
vt 0.292700 0.380800
vt 0.291500 0.377300
vt 0.317800 0.440900
vt 0.323200 0.437600
vt 0.325300 0.440300
vt 0.327800 0.433200
vt 0.330400 0.435400
vt 0.331400 0.428000
vt 0.334400 0.429700
vt 0.333900 0.422200
vt 0.337100 0.423200
vt 0.335200 0.416200
vt 0.335000 0.396500
vt 0.337400 0.395600
vt 0.174400 0.584100
vt 0.179900 0.523000
vt 0.293800 0.544700
vt 0.286200 0.420000
vt 0.283200 0.421600
vt 0.281500 0.417500
vt 0.772800 0.459700
vt 0.666000 0.504900
vt 0.647500 0.470900
vt 0.222600 0.409800
vt 0.261100 0.362100
vt 0.343600 0.443400
vt 0.171100 0.584200
vt 0.176700 0.523100
vt 0.290400 0.544800
vt 0.797600 0.579300
vt 0.681600 0.580300
vt 0.677500 0.541800
vt 0.743400 0.405700
vt 0.622700 0.441200
vt 0.319300 0.473500
vt 0.301400 0.507700
vt 0.791100 0.518300
vt 0.656300 0.320000
vt 0.704100 0.358600
vt 0.194000 0.464200
vt 0.284800 0.416500
vt 0.280700 0.413200
vt 0.225800 0.409700
vt 0.264400 0.361900
vt 0.347000 0.443200
vt 0.776000 0.459600
vt 0.669400 0.504700
vt 0.650900 0.470800
vt 0.197300 0.464100
vt 0.304800 0.507600
vt 0.311500 0.322600
vt 0.492400 0.152800
vt 0.376700 0.418500
vt 0.794300 0.518200
vt 0.680900 0.541700
vt 0.322700 0.473300
vt 0.746600 0.405600
vt 0.626100 0.441100
vt 0.800800 0.579200
vt 0.685000 0.580100
vt 0.284100 0.412900
vt 0.280700 0.408900
vt 0.284100 0.409200
vt 0.281500 0.404600
vt 0.284800 0.405500
vt 0.283200 0.400500
vt 0.286200 0.402100
vt 0.285500 0.396900
vt 0.288200 0.399000
vt 0.288600 0.393800
vt 0.290800 0.396400
vt 0.292200 0.391300
vt 0.293900 0.394300
vt 0.296200 0.389700
vt 0.297200 0.392900
vt 0.300400 0.388800
vt 0.300800 0.392200
vt 0.304800 0.388900
vt 0.304400 0.392300
vt 0.309000 0.389800
vt 0.308000 0.393000
vt 0.313000 0.391500
vt 0.311300 0.394500
vt 0.316500 0.393900
vt 0.314300 0.396600
vt 0.319500 0.397100
vt 0.316800 0.399200
vt 0.321800 0.400700
vt 0.308300 0.322700
vt 0.325600 0.385500
vt 0.323900 0.387900
vt 0.596000 0.416800
vt 0.659600 0.319900
vt 0.373400 0.418600
vt 0.492300 0.152200
vt 0.410700 0.400000
vt 0.447600 0.388500
vt 0.486100 0.384400
vt 0.524600 0.387800
vt 0.561700 0.398800
vt 0.407300 0.400100
vt 0.444300 0.388600
vt 0.482700 0.384500
vt 0.521200 0.388000
vt 0.558400 0.398900
vt 0.592600 0.416900
vt 0.319100 0.380100
vt 0.319300 0.444100
vt 0.338300 0.416600
vt 0.290300 0.583200
vt 0.286900 0.583300
vt 0.707300 0.358500
vt 0.318800 0.402300
vt 0.317200 0.383100
vt 0.311500 0.380500
vt 0.312700 0.377200
vt 0.305400 0.379200
vt 0.305800 0.375800
vt 0.299100 0.379300
vt 0.298700 0.375800
vt 0.292700 0.380800
vt 0.291500 0.377300
vt 0.317800 0.440900
vt 0.323200 0.437600
vt 0.325300 0.440300
vt 0.327800 0.433200
vt 0.330400 0.435400
vt 0.331400 0.428000
vt 0.334400 0.429700
vt 0.333900 0.422200
vt 0.337100 0.423200
vt 0.335200 0.416200
vt 0.335000 0.396500
vt 0.337400 0.395600
vt 0.174400 0.584100
vt 0.179900 0.523000
vt 0.293800 0.544700
vt 0.286200 0.420000
vt 0.283200 0.421600
vt 0.281500 0.417500
vt 0.772800 0.459700
vt 0.666000 0.504900
vt 0.647500 0.470900
vt 0.222600 0.409800
vt 0.261100 0.362100
vt 0.343600 0.443400
vt 0.171100 0.584200
vt 0.176700 0.523100
vt 0.290400 0.544800
vt 0.797600 0.579300
vt 0.681600 0.580300
vt 0.677500 0.541800
vt 0.743400 0.405700
vt 0.622700 0.441200
vt 0.319300 0.473500
vt 0.301400 0.507700
vt 0.791100 0.518300
vt 0.656300 0.320000
vt 0.704100 0.358600
vt 0.194000 0.464200
vt 0.284800 0.416500
vt 0.280700 0.413200
vt 0.225800 0.409700
vt 0.264400 0.361900
vt 0.347000 0.443200
vt 0.776000 0.459600
vt 0.669400 0.504700
vt 0.650900 0.470800
vt 0.197300 0.464100
vt 0.304800 0.507600
vt 0.311500 0.322600
vt 0.492400 0.152800
vt 0.376700 0.418500
vt 0.794300 0.518200
vt 0.680900 0.541700
vt 0.322700 0.473300
vt 0.746600 0.405600
vt 0.626100 0.441100
vt 0.800800 0.579200
vt 0.685000 0.580100
vt 0.284100 0.412900
vt 0.280700 0.408900
vt 0.284100 0.409200
vt 0.281500 0.404600
vt 0.284800 0.405500
vt 0.283200 0.400500
vt 0.286200 0.402100
vt 0.285500 0.396900
vt 0.288200 0.399000
vt 0.288600 0.393800
vt 0.290800 0.396400
vt 0.292200 0.391300
vt 0.293900 0.394300
vt 0.296200 0.389700
vt 0.297200 0.392900
vt 0.300400 0.388800
vt 0.300800 0.392200
vt 0.304800 0.388900
vt 0.304400 0.392300
vt 0.309000 0.389800
vt 0.308000 0.393000
vt 0.313000 0.391500
vt 0.311300 0.394500
vt 0.316500 0.393900
vt 0.314300 0.396600
vt 0.319500 0.397100
vt 0.316800 0.399200
vt 0.321800 0.400700
vt 0.308300 0.322700
vt 0.325600 0.385500
vt 0.323900 0.387900
vt 0.596000 0.416800
vt 0.659600 0.319900
vt 0.373400 0.418600
vt 0.492300 0.152200
vt 0.410700 0.400000
vt 0.447600 0.388500
vt 0.486100 0.384400
vt 0.524600 0.387800
vt 0.561700 0.398800
vt 0.407300 0.400100
vt 0.444300 0.388600
vt 0.482700 0.384500
vt 0.521200 0.388000
vt 0.558400 0.398900
vt 0.592600 0.416900
vt 0.319100 0.380100
vt 0.319300 0.444100
vt 0.338300 0.416600
vt 0.290300 0.583200
vt 0.286900 0.583300
vt 0.707300 0.358500
vt 0.318800 0.402300
vn -0.7730 0.0000 0.6344
vn -0.8819 0.0000 0.4714
vn -0.9569 -0.0000 0.2903
vn -0.9952 0.0000 0.0980
vn 0.9952 -0.0000 0.0980
vn 0.9569 -0.0000 0.2903
vn 0.8819 0.0000 0.4714
vn 0.7730 0.0000 0.6344
vn 0.6282 -0.0000 0.7781
vn -0.0000 -1.0000 -0.0000
vn -0.9952 0.0000 -0.0980
vn 0.0000 1.0000 0.0000
vn -0.9569 0.0000 -0.2903
vn -0.8819 -0.0000 -0.4714
vn -0.7730 0.0000 -0.6344
vn -0.6344 0.0000 -0.7730
vn -0.4714 0.0000 -0.8819
vn -0.2903 0.0000 -0.9569
vn -0.0980 0.0000 -0.9952
vn 0.0980 0.0000 -0.9952
vn 0.2903 0.0000 -0.9569
vn 0.4714 0.0000 -0.8819
vn 0.6344 0.0000 -0.7730
vn 0.7730 0.0000 -0.6344
vn 0.8819 0.0000 -0.4714
vn 0.9569 0.0000 -0.2903
vn 0.9952 0.0000 -0.0980
vn -0.6313 0.0000 0.7756
vn -0.6344 0.0000 0.7730
vn -0.6282 0.0000 0.7781
vn 0.6344 0.0000 0.7730
vn -0.6282 0.0000 -0.7781
vn 0.4714 0.0000 0.8819
vn 0.2903 0.0000 0.9569
vn 0.0980 0.0000 0.9952
vn -0.0980 0.0000 0.9952
vn -0.2903 0.0000 0.9569
vn -0.4714 0.0000 0.8819
vn 0.6313 0.0000 -0.7756
vn 0.6282 0.0000 -0.7781
s 1
f 29/39/2 30/40/2 31/41/2
f 30/40/3 32/42/3 33/43/3
f 32/42/4 34/44/4 35/45/4
f 34/44/5 36/46/5 37/47/5
f 38/48/6 39/49/6 40/50/6
f 39/49/7 41/51/7 42/52/7
f 41/51/8 43/53/8 44/54/8
f 43/53/9 45/55/9 46/56/9
f 47/57/10 48/58/10 49/59/10
f 50/60/11 40/61/11 51/62/11
f 52/63/12 53/64/12 51/65/12
f 41/66/13 54/67/13 55/68/13
f 30/69/13 29/70/13 56/71/13
f 36/72/13 34/73/13 57/74/13
f 38/75/13 52/76/13 58/77/13
f 43/78/13 55/68/13 59/79/13
f 30/69/13 60/80/13 61/81/13
f 39/82/13 58/77/13 54/67/13
f 47/83/13 45/84/13 59/79/13
f 34/73/13 32/85/13 61/81/13
f 58/86/14 51/65/14 62/87/14
f 44/88/11 46/89/11 63/90/11
f 33/91/11 64/92/11 65/93/11
f 40/61/11 42/94/11 62/95/11
f 66/96/11 49/97/11 67/98/11
f 35/99/11 68/100/11 64/92/11
f 44/88/11 69/101/11 62/95/11
f 31/102/11 65/93/11 70/103/11
f 37/104/11 71/105/11 68/100/11
f 54/106/15 62/87/15 69/107/15
f 55/108/16 69/107/16 63/109/16
f 59/110/17 63/109/17 67/111/17
f 72/112/18 67/111/18 73/113/18
f 74/114/19 73/113/19 75/115/19
f 76/116/20 75/115/20 77/117/20
f 78/118/21 77/117/21 79/119/21
f 80/120/22 79/119/22 81/121/22
f 82/122/23 81/121/23 83/123/23
f 84/124/24 83/123/24 70/125/24
f 56/126/25 70/125/25 65/127/25
f 60/128/26 65/127/26 64/129/26
f 61/130/27 64/129/27 68/131/27
f 57/132/28 68/131/28 71/133/28
f 56/71/13 29/70/13 85/134/13
f 86/135/29 85/136/29 29/39/30
f 70/103/11 83/137/11 86/138/11
f 84/139/13 85/134/13 48/140/13
f 48/58/31 85/136/29 86/135/29
f 83/137/11 49/97/11 86/138/11
f 67/98/11 49/97/11 73/141/11
f 73/141/11 49/97/11 75/142/11
f 75/142/11 49/97/11 77/143/11
f 77/143/11 49/97/11 79/144/11
f 79/144/11 49/97/11 81/145/11
f 81/145/11 49/97/11 83/137/11
f 84/139/13 48/140/13 82/146/13
f 82/146/13 48/140/13 80/147/13
f 80/147/13 48/140/13 78/148/13
f 78/148/13 48/140/13 76/149/13
f 76/149/13 48/140/13 74/150/13
f 74/150/13 48/140/13 72/151/13
f 87/152/2 29/39/2 31/41/2
f 31/41/3 30/40/3 33/43/3
f 33/43/4 32/42/4 35/45/4
f 35/45/5 34/44/5 37/47/5
f 50/153/6 38/48/6 40/50/6
f 40/50/7 39/49/7 42/52/7
f 42/52/8 41/51/8 44/54/8
f 44/54/9 43/53/9 46/56/9
f 66/154/32 46/56/32 45/55/32
f 53/155/11 50/60/11 51/62/11
f 45/55/32 47/57/10 66/154/32
f 66/154/32 47/57/10 49/59/10
f 58/86/12 52/63/12 51/65/12
f 43/78/13 41/66/13 55/68/13
f 60/80/13 30/69/13 56/71/13
f 88/156/13 36/72/13 57/74/13
f 39/82/13 38/75/13 58/77/13
f 45/84/13 43/78/13 59/79/13
f 32/85/13 30/69/13 61/81/13
f 41/66/13 39/82/13 54/67/13
f 72/151/13 48/140/13 47/83/13
f 47/83/13 59/79/13 72/151/13
f 57/74/13 34/73/13 61/81/13
f 54/106/14 58/86/14 62/87/14
f 69/101/11 44/88/11 63/90/11
f 31/102/11 33/91/11 65/93/11
f 51/62/11 40/61/11 62/95/11
f 63/90/11 46/89/11 66/96/11
f 66/96/11 67/98/11 63/90/11
f 33/91/11 35/99/11 64/92/11
f 42/94/11 44/88/11 62/95/11
f 87/157/11 31/102/11 70/103/11
f 35/99/11 37/104/11 68/100/11
f 55/108/15 54/106/15 69/107/15
f 59/110/16 55/108/16 63/109/16
f 72/112/17 59/110/17 67/111/17
f 74/114/18 72/112/18 73/113/18
f 76/116/19 74/114/19 75/115/19
f 78/118/20 76/116/20 77/117/20
f 80/120/21 78/118/21 79/119/21
f 82/122/22 80/120/22 81/121/22
f 84/124/23 82/122/23 83/123/23
f 56/126/24 84/124/24 70/125/24
f 60/128/25 56/126/25 65/127/25
f 61/130/26 60/128/26 64/129/26
f 57/132/27 61/130/27 68/131/27
f 88/158/28 57/132/28 71/133/28
f 84/139/13 56/71/13 85/134/13
f 87/152/30 86/135/29 29/39/30
f 87/157/11 70/103/11 86/138/11
f 49/59/31 48/58/31 86/135/29
f 89/159/25 90/160/25 91/161/25
f 90/160/26 92/162/26 93/163/26
f 92/162/27 94/164/27 95/165/27
f 94/164/28 96/166/28 97/167/28
f 98/168/12 99/169/12 100/170/12
f 99/169/14 101/171/14 102/172/14
f 101/171/15 103/173/15 104/174/15
f 103/173/16 105/175/16 106/176/16
f 107/177/33 108/178/33 109/179/33
f 110/180/11 100/181/11 111/182/11
f 112/183/6 113/184/6 111/185/6
f 101/186/13 114/187/13 115/188/13
f 90/189/13 89/190/13 116/191/13
f 96/192/13 94/193/13 117/194/13
f 98/195/13 112/196/13 118/197/13
f 103/198/13 115/188/13 119/199/13
f 90/189/13 120/200/13 121/201/13
f 99/202/13 118/197/13 114/187/13
f 107/203/13 105/204/13 119/199/13
f 94/193/13 92/205/13 121/201/13
f 118/206/7 111/185/7 122/207/7
f 104/208/11 106/209/11 123/210/11
f 93/211/11 124/212/11 125/213/11
f 100/181/11 102/214/11 122/215/11
f 126/216/11 109/217/11 127/218/11
f 95/219/11 128/220/11 124/212/11
f 104/208/11 129/221/11 122/215/11
f 91/222/11 125/213/11 130/223/11
f 97/224/11 131/225/11 128/220/11
f 114/226/8 122/207/8 129/227/8
f 115/228/9 129/227/9 123/229/9
f 119/230/32 123/229/32 127/231/32
f 132/232/34 127/231/34 133/233/34
f 134/234/35 133/233/35 135/235/35
f 136/236/36 135/235/36 137/237/36
f 138/238/37 137/237/37 139/239/37
f 140/240/38 139/239/38 141/241/38
f 142/242/39 141/241/39 143/243/39
f 144/244/30 143/243/30 130/245/30
f 116/246/2 130/245/2 125/247/2
f 120/248/3 125/247/3 124/249/3
f 121/250/4 124/249/4 128/251/4
f 117/252/5 128/251/5 131/253/5
f 116/191/13 89/190/13 145/254/13
f 146/255/40 145/256/40 89/159/24
f 130/223/11 143/257/11 146/258/11
f 144/259/13 145/254/13 108/260/13
f 108/178/41 145/256/40 146/255/40
f 143/257/11 109/217/11 146/258/11
f 127/218/11 109/217/11 133/261/11
f 133/261/11 109/217/11 135/262/11
f 135/262/11 109/217/11 137/263/11
f 137/263/11 109/217/11 139/264/11
f 139/264/11 109/217/11 141/265/11
f 141/265/11 109/217/11 143/257/11
f 144/259/13 108/260/13 142/266/13
f 142/266/13 108/260/13 140/267/13
f 140/267/13 108/260/13 138/268/13
f 138/268/13 108/260/13 136/269/13
f 136/269/13 108/260/13 134/270/13
f 134/270/13 108/260/13 132/271/13
f 147/272/25 89/159/25 91/161/25
f 91/161/26 90/160/26 93/163/26
f 93/163/27 92/162/27 95/165/27
f 95/165/28 94/164/28 97/167/28
f 110/273/12 98/168/12 100/170/12
f 100/170/14 99/169/14 102/172/14
f 102/172/15 101/171/15 104/174/15
f 104/174/16 103/173/16 106/176/16
f 126/274/17 106/176/17 105/175/17
f 113/275/11 110/180/11 111/182/11
f 105/175/17 107/177/33 126/274/17
f 126/274/17 107/177/33 109/179/33
f 118/206/6 112/183/6 111/185/6
f 103/198/13 101/186/13 115/188/13
f 120/200/13 90/189/13 116/191/13
f 148/276/13 96/192/13 117/194/13
f 99/202/13 98/195/13 118/197/13
f 105/204/13 103/198/13 119/199/13
f 92/205/13 90/189/13 121/201/13
f 101/186/13 99/202/13 114/187/13
f 132/271/13 108/260/13 107/203/13
f 107/203/13 119/199/13 132/271/13
f 117/194/13 94/193/13 121/201/13
f 114/226/7 118/206/7 122/207/7
f 129/221/11 104/208/11 123/210/11
f 91/222/11 93/211/11 125/213/11
f 111/182/11 100/181/11 122/215/11
f 123/210/11 106/209/11 126/216/11
f 126/216/11 127/218/11 123/210/11
f 93/211/11 95/219/11 124/212/11
f 102/214/11 104/208/11 122/215/11
f 147/277/11 91/222/11 130/223/11
f 95/219/11 97/224/11 128/220/11
f 115/228/8 114/226/8 129/227/8
f 119/230/9 115/228/9 123/229/9
f 132/232/32 119/230/32 127/231/32
f 134/234/34 132/232/34 133/233/34
f 136/236/35 134/234/35 135/235/35
f 138/238/36 136/236/36 137/237/36
f 140/240/37 138/238/37 139/239/37
f 142/242/38 140/240/38 141/241/38
f 144/244/39 142/242/39 143/243/39
f 116/246/30 144/244/30 130/245/30
f 120/248/2 116/246/2 125/247/2
f 121/250/3 120/248/3 124/249/3
f 117/252/4 121/250/4 128/251/4
f 148/278/5 117/252/5 131/253/5
f 144/259/13 116/191/13 145/254/13
f 147/272/24 146/255/40 89/159/24
f 147/277/11 130/223/11 146/258/11
f 109/179/41 108/178/41 146/255/40
