# Blender v2.78 (sub 0) OBJ File: ''
# www.blender.org
mtllib arcindicator.mtl
o Cylinder_Cylinder.002
v -0.707107 0.050000 0.707107
v -0.831470 0.050000 0.555570
v -0.831470 -0.050000 0.555570
v -0.923880 0.050000 0.382683
v -0.923880 -0.050000 0.382683
v -0.980785 0.050000 0.195090
v -0.980785 -0.050000 0.195090
v -1.000000 0.050000 0.000000
v -1.000000 -0.050000 0.000000
v 1.000000 0.050000 0.000001
v 1.000000 -0.050000 0.000001
v 0.980785 0.050000 0.195091
v 0.980785 -0.050000 0.195091
v 0.923879 0.050000 0.382684
v 0.923879 -0.050000 0.382684
v 0.831469 0.050000 0.555571
v 0.831469 -0.050000 0.555571
v 0.707106 0.050000 0.707108
v 0.707106 -0.050000 0.707108
v 0.555570 0.050000 0.831470
v 0.000000 0.050000 1.280000
v 0.000000 -0.050000 1.280000
v 0.588471 -0.050000 0.117055
v 0.600000 0.050000 0.000001
v 0.600000 -0.050000 0.000001
v 0.554327 0.050000 0.229611
v 0.498881 0.050000 0.333343
v -0.424264 0.050000 0.424264
v -0.588471 0.050000 0.117054
v 0.588471 0.050000 0.117055
v 0.424264 0.050000 0.424265
v -0.498882 0.050000 0.333342
v -0.554328 0.050000 0.229610
v -0.600000 0.050000 0.000000
v 0.554327 -0.050000 0.229611
v 0.424264 -0.050000 0.424265
v -0.554328 -0.050000 0.229610
v -0.498882 -0.050000 0.333342
v -0.600000 -0.050000 0.000000
v 0.555570 -0.050000 0.831470
v 0.333341 -0.050000 0.498882
v -0.588471 -0.050000 0.117054
v 0.498881 -0.050000 0.333343
v -0.424264 -0.050000 0.424264
v 0.333341 0.050000 0.498882
v 0.229609 -0.050000 0.554328
v 0.229609 0.050000 0.554328
v 0.117053 -0.050000 0.588471
v 0.117053 0.050000 0.588471
v 0.000000 -0.050000 0.600000
v 0.000000 0.050000 0.600000
v -0.117054 -0.050000 0.588471
v -0.117054 0.050000 0.588471
v -0.229610 -0.050000 0.554328
v -0.229610 0.050000 0.554328
v -0.333342 -0.050000 0.498882
v -0.333342 0.050000 0.498882
v -0.555570 0.050000 0.831470
v -0.555570 -0.050000 0.831470
v -0.707107 -0.050000 0.707107
v 0.707107 0.050000 -0.707107
v 0.831470 0.050000 -0.555570
v 0.831470 -0.050000 -0.555570
v 0.923880 0.050000 -0.382683
v 0.923880 -0.050000 -0.382683
v 0.980785 0.050000 -0.195090
v 0.980785 -0.050000 -0.195090
v 1.000000 0.050000 0.000000
v 1.000000 -0.050000 -0.000000
v -1.000000 0.050000 -0.000001
v -1.000000 -0.050000 -0.000001
v -0.980785 0.050000 -0.195091
v -0.980785 -0.050000 -0.195091
v -0.923879 0.050000 -0.382684
v -0.923879 -0.050000 -0.382684
v -0.831469 0.050000 -0.555571
v -0.831469 -0.050000 -0.555571
v -0.707106 0.050000 -0.707108
v -0.707106 -0.050000 -0.707108
v -0.555570 0.050000 -0.831470
v 0.000000 0.050000 -1.280000
v 0.000000 -0.050000 -1.280000
v -0.588471 -0.050000 -0.117055
v -0.600000 0.050000 -0.000001
v -0.600000 -0.050000 -0.000001
v -0.554327 0.050000 -0.229611
v -0.498881 0.050000 -0.333343
v 0.424264 0.050000 -0.424264
v 0.588471 0.050000 -0.117054
v -0.588471 0.050000 -0.117055
v -0.424264 0.050000 -0.424265
v 0.498882 0.050000 -0.333342
v 0.554328 0.050000 -0.229610
v 0.600000 0.050000 0.000000
v -0.554327 -0.050000 -0.229611
v -0.424264 -0.050000 -0.424265
v 0.554328 -0.050000 -0.229610
v 0.498882 -0.050000 -0.333342
v 0.600000 -0.050000 -0.000000
v -0.555570 -0.050000 -0.831470
v -0.333341 -0.050000 -0.498882
v 0.588471 -0.050000 -0.117054
v -0.498881 -0.050000 -0.333343
v 0.424264 -0.050000 -0.424264
v -0.333341 0.050000 -0.498882
v -0.229609 -0.050000 -0.554328
v -0.229609 0.050000 -0.554328
v -0.117053 -0.050000 -0.588471
v -0.117053 0.050000 -0.588471
v 0.000000 -0.050000 -0.600000
v 0.000000 0.050000 -0.600000
v 0.117054 -0.050000 -0.588471
v 0.117054 0.050000 -0.588471
v 0.229610 -0.050000 -0.554328
v 0.229610 0.050000 -0.554328
v 0.333342 -0.050000 -0.498882
v 0.333342 0.050000 -0.498882
v 0.555570 0.050000 -0.831470
v 0.555570 -0.050000 -0.831470
v 0.707107 -0.050000 -0.707107
vt 0.3172 0.3831
vt 0.3115 0.3805
vt 0.3127 0.3772
vt 0.3054 0.3792
vt 0.3058 0.3758
vt 0.2991 0.3793
vt 0.2987 0.3758
vt 0.2927 0.3808
vt 0.2915 0.3773
vt 0.3178 0.4409
vt 0.3232 0.4376
vt 0.3253 0.4403
vt 0.3278 0.4332
vt 0.3304 0.4354
vt 0.3314 0.4280
vt 0.3344 0.4297
vt 0.3339 0.4222
vt 0.3371 0.4232
vt 0.3352 0.4162
vt 0.3350 0.3965
vt 0.3374 0.3956
vt 0.1744 0.5841
vt 0.1799 0.5230
vt 0.2938 0.5447
vt 0.2862 0.4200
vt 0.2832 0.4216
vt 0.2815 0.4175
vt 0.7728 0.4597
vt 0.6660 0.5049
vt 0.6475 0.4709
vt 0.2226 0.4098
vt 0.2611 0.3621
vt 0.3436 0.4434
vt 0.1711 0.5842
vt 0.1767 0.5231
vt 0.2904 0.5448
vt 0.7976 0.5793
vt 0.6816 0.5803
vt 0.6775 0.5418
vt 0.7434 0.4057
vt 0.6227 0.4412
vt 0.3193 0.4735
vt 0.3014 0.5077
vt 0.7911 0.5183
vt 0.6563 0.3200
vt 0.7041 0.3586
vt 0.1940 0.4642
vt 0.2848 0.4165
vt 0.2807 0.4132
vt 0.2258 0.4097
vt 0.2644 0.3619
vt 0.3470 0.4432
vt 0.7760 0.4596
vt 0.6694 0.5047
vt 0.6509 0.4708
vt 0.1973 0.4641
vt 0.3048 0.5076
vt 0.3115 0.3226
vt 0.4924 0.1528
vt 0.3767 0.4185
vt 0.7943 0.5182
vt 0.6809 0.5417
vt 0.3227 0.4733
vt 0.7466 0.4056
vt 0.6261 0.4411
vt 0.8008 0.5792
vt 0.6850 0.5801
vt 0.2841 0.4129
vt 0.2807 0.4089
vt 0.2841 0.4092
vt 0.2815 0.4046
vt 0.2848 0.4055
vt 0.2832 0.4005
vt 0.2862 0.4021
vt 0.2855 0.3969
vt 0.2882 0.3990
vt 0.2886 0.3938
vt 0.2908 0.3964
vt 0.2922 0.3913
vt 0.2939 0.3943
vt 0.2962 0.3897
vt 0.2972 0.3929
vt 0.3004 0.3888
vt 0.3008 0.3922
vt 0.3048 0.3889
vt 0.3044 0.3923
vt 0.3090 0.3898
vt 0.3080 0.3930
vt 0.3130 0.3915
vt 0.3113 0.3945
vt 0.3165 0.3939
vt 0.3143 0.3966
vt 0.3195 0.3971
vt 0.3168 0.3992
vt 0.3218 0.4007
vt 0.3083 0.3227
vt 0.3256 0.3855
vt 0.3239 0.3879
vt 0.5960 0.4168
vt 0.6596 0.3199
vt 0.3734 0.4186
vt 0.4923 0.1522
vt 0.4107 0.4000
vt 0.4476 0.3885
vt 0.4861 0.3844
vt 0.5246 0.3878
vt 0.5617 0.3988
vt 0.4073 0.4001
vt 0.4443 0.3886
vt 0.4827 0.3845
vt 0.5212 0.3880
vt 0.5584 0.3989
vt 0.5926 0.4169
vt 0.3191 0.3801
vt 0.3193 0.4441
vt 0.3383 0.4166
vt 0.2903 0.5832
vt 0.2869 0.5833
vt 0.7073 0.3585
vt 0.3188 0.4023
vt 0.3172 0.3831
vt 0.3115 0.3805
vt 0.3127 0.3772
vt 0.3054 0.3792
vt 0.3058 0.3758
vt 0.2991 0.3793
vt 0.2987 0.3758
vt 0.2927 0.3808
vt 0.2915 0.3773
vt 0.3178 0.4409
vt 0.3232 0.4376
vt 0.3253 0.4403
vt 0.3278 0.4332
vt 0.3304 0.4354
vt 0.3314 0.4280
vt 0.3344 0.4297
vt 0.3339 0.4222
vt 0.3371 0.4232
vt 0.3352 0.4162
vt 0.3350 0.3965
vt 0.3374 0.3956
vt 0.1744 0.5841
vt 0.1799 0.5230
vt 0.2938 0.5447
vt 0.2862 0.4200
vt 0.2832 0.4216
vt 0.2815 0.4175
vt 0.7728 0.4597
vt 0.6660 0.5049
vt 0.6475 0.4709
vt 0.2226 0.4098
vt 0.2611 0.3621
vt 0.3436 0.4434
vt 0.1711 0.5842
vt 0.1767 0.5231
vt 0.2904 0.5448
vt 0.7976 0.5793
vt 0.6816 0.5803
vt 0.6775 0.5418
vt 0.7434 0.4057
vt 0.6227 0.4412
vt 0.3193 0.4735
vt 0.3014 0.5077
vt 0.7911 0.5183
vt 0.6563 0.3200
vt 0.7041 0.3586
vt 0.1940 0.4642
vt 0.2848 0.4165
vt 0.2807 0.4132
vt 0.2258 0.4097
vt 0.2644 0.3619
vt 0.3470 0.4432
vt 0.7760 0.4596
vt 0.6694 0.5047
vt 0.6509 0.4708
vt 0.1973 0.4641
vt 0.3048 0.5076
vt 0.3115 0.3226
vt 0.4924 0.1528
vt 0.3767 0.4185
vt 0.7943 0.5182
vt 0.6809 0.5417
vt 0.3227 0.4733
vt 0.7466 0.4056
vt 0.6261 0.4411
vt 0.8008 0.5792
vt 0.6850 0.5801
vt 0.2841 0.4129
vt 0.2807 0.4089
vt 0.2841 0.4092
vt 0.2815 0.4046
vt 0.2848 0.4055
vt 0.2832 0.4005
vt 0.2862 0.4021
vt 0.2855 0.3969
vt 0.2882 0.3990
vt 0.2886 0.3938
vt 0.2908 0.3964
vt 0.2922 0.3913
vt 0.2939 0.3943
vt 0.2962 0.3897
vt 0.2972 0.3929
vt 0.3004 0.3888
vt 0.3008 0.3922
vt 0.3048 0.3889
vt 0.3044 0.3923
vt 0.3090 0.3898
vt 0.3080 0.3930
vt 0.3130 0.3915
vt 0.3113 0.3945
vt 0.3165 0.3939
vt 0.3143 0.3966
vt 0.3195 0.3971
vt 0.3168 0.3992
vt 0.3218 0.4007
vt 0.3083 0.3227
vt 0.3256 0.3855
vt 0.3239 0.3879
vt 0.5960 0.4168
vt 0.6596 0.3199
vt 0.3734 0.4186
vt 0.4923 0.1522
vt 0.4107 0.4000
vt 0.4476 0.3885
vt 0.4861 0.3844
vt 0.5246 0.3878
vt 0.5617 0.3988
vt 0.4073 0.4001
vt 0.4443 0.3886
vt 0.4827 0.3845
vt 0.5212 0.3880
vt 0.5584 0.3989
vt 0.5926 0.4169
vt 0.3191 0.3801
vt 0.3193 0.4441
vt 0.3383 0.4166
vt 0.2903 0.5832
vt 0.2869 0.5833
vt 0.7073 0.3585
vt 0.3188 0.4023
vn -0.7730 0.0000 0.6344
vn -0.8819 -0.0000 0.4714
vn -0.9569 0.0000 0.2903
vn -0.9952 0.0000 0.0980
vn 0.9952 0.0000 0.0980
vn 0.9569 -0.0000 0.2903
vn 0.8819 0.0000 0.4714
vn 0.7730 0.0000 0.6344
vn 0.6282 0.0000 0.7781
vn -0.0000 -1.0000 0.0000
vn -0.9952 0.0000 -0.0980
vn -0.0000 1.0000 -0.0000
vn -0.9569 0.0000 -0.2903
vn -0.8819 0.0000 -0.4714
vn -0.7730 -0.0000 -0.6344
vn -0.6344 -0.0000 -0.7730
vn -0.4714 -0.0000 -0.8819
vn -0.2903 -0.0000 -0.9569
vn -0.0980 0.0000 -0.9952
vn 0.0980 0.0000 -0.9952
vn 0.2903 0.0000 -0.9569
vn 0.4714 -0.0000 -0.8819
vn 0.6344 -0.0000 -0.7730
vn 0.7730 0.0000 -0.6344
vn 0.8819 0.0000 -0.4714
vn 0.9569 0.0000 -0.2903
vn 0.9952 0.0000 -0.0980
vn -0.6344 0.0000 0.7730
vn -0.6282 0.0000 0.7781
vn 0.6344 0.0000 0.7730
vn -0.6282 0.0000 -0.7781
vn 0.4714 0.0000 0.8819
vn 0.2903 0.0000 0.9569
vn 0.0980 0.0000 0.9952
vn -0.0980 0.0000 0.9952
vn -0.2903 0.0000 0.9569
vn -0.4714 0.0000 0.8819
vn 0.6282 0.0000 -0.7781
usemtl None.001
s off
f 1/1/1 2/2/1 3/3/1
f 2/2/2 4/4/2 5/5/2
f 4/4/3 6/6/3 7/7/3
f 6/6/4 8/8/4 9/9/4
f 10/10/5 12/11/5 13/12/5
f 12/11/6 14/13/6 15/14/6
f 14/13/7 16/15/7 17/16/7
f 16/15/8 18/17/8 19/18/8
f 20/19/9 21/20/9 22/21/9
f 11/22/10 13/23/10 23/24/10
f 24/25/11 25/26/11 23/27/11
f 14/28/12 26/29/12 27/30/12
f 2/31/12 1/32/12 28/33/12
f 8/34/12 6/35/12 29/36/12
f 10/37/12 24/38/12 30/39/12
f 16/40/12 27/30/12 31/41/12
f 2/31/12 32/42/12 33/43/12
f 12/44/12 30/39/12 26/29/12
f 20/45/12 18/46/12 31/41/12
f 6/35/12 4/47/12 33/43/12
f 30/48/13 23/27/13 35/49/13
f 17/50/10 19/51/10 36/52/10
f 5/53/10 37/54/10 38/55/10
f 13/23/10 15/56/10 35/57/10
f 40/58/10 22/59/10 41/60/10
f 7/61/10 42/62/10 37/54/10
f 17/50/10 43/63/10 35/57/10
f 3/64/10 38/55/10 44/65/10
f 9/66/10 39/67/10 42/62/10
f 26/68/14 35/49/14 43/69/14
f 27/70/15 43/69/15 36/71/15
f 31/72/16 36/71/16 41/73/16
f 45/74/17 41/73/17 46/75/17
f 47/76/18 46/75/18 48/77/18
f 49/78/19 48/77/19 50/79/19
f 51/80/20 50/79/20 52/81/20
f 53/82/21 52/81/21 54/83/21
f 55/84/22 54/83/22 56/85/22
f 57/86/23 56/85/23 44/87/23
f 28/88/24 44/87/24 38/89/24
f 32/90/25 38/89/25 37/91/25
f 33/92/26 37/91/26 42/93/26
f 29/94/27 42/93/27 39/95/27
f 28/33/12 1/32/12 58/96/12
f 59/97/28 58/98/28 1/1/28
f 44/65/10 56/99/10 59/100/10
f 57/101/12 58/96/12 21/102/12
f 21/20/29 58/98/29 59/97/29
f 56/99/10 22/59/10 59/100/10
f 41/60/10 22/59/10 46/103/10
f 46/103/10 22/59/10 48/104/10
f 48/104/10 22/59/10 50/105/10
f 50/105/10 22/59/10 52/106/10
f 52/106/10 22/59/10 54/107/10
f 54/107/10 22/59/10 56/99/10
f 57/101/12 21/102/12 55/108/12
f 55/108/12 21/102/12 53/109/12
f 53/109/12 21/102/12 51/110/12
f 51/110/12 21/102/12 49/111/12
f 49/111/12 21/102/12 47/112/12
f 47/112/12 21/102/12 45/113/12
f 60/114/1 1/1/1 3/3/1
f 3/3/2 2/2/2 5/5/2
f 5/5/3 4/4/3 7/7/3
f 7/7/4 6/6/4 9/9/4
f 11/115/5 10/10/5 13/12/5
f 13/12/6 12/11/6 15/14/6
f 15/14/7 14/13/7 17/16/7
f 17/16/8 16/15/8 19/18/8
f 40/116/30 19/18/30 18/17/30
f 25/117/10 11/22/10 23/24/10
f 18/17/30 20/19/30 40/116/30
f 40/116/9 20/19/9 22/21/9
f 30/48/11 24/25/11 23/27/11
f 16/40/12 14/28/12 27/30/12
f 32/42/12 2/31/12 28/33/12
f 34/118/12 8/34/12 29/36/12
f 12/44/12 10/37/12 30/39/12
f 18/46/12 16/40/12 31/41/12
f 4/47/12 2/31/12 33/43/12
f 14/28/12 12/44/12 26/29/12
f 45/113/12 21/102/12 20/45/12
f 20/45/12 31/41/12 45/113/12
f 29/36/12 6/35/12 33/43/12
f 26/68/13 30/48/13 35/49/13
f 43/63/10 17/50/10 36/52/10
f 3/64/10 5/53/10 38/55/10
f 23/24/10 13/23/10 35/57/10
f 36/52/10 19/51/10 40/58/10
f 40/58/10 41/60/10 36/52/10
f 5/53/10 7/61/10 37/54/10
f 15/56/10 17/50/10 35/57/10
f 60/119/10 3/64/10 44/65/10
f 7/61/10 9/66/10 42/62/10
f 27/70/14 26/68/14 43/69/14
f 31/72/15 27/70/15 36/71/15
f 45/74/16 31/72/16 41/73/16
f 47/76/17 45/74/17 46/75/17
f 49/78/18 47/76/18 48/77/18
f 51/80/19 49/78/19 50/79/19
f 53/82/20 51/80/20 52/81/20
f 55/84/21 53/82/21 54/83/21
f 57/86/22 55/84/22 56/85/22
f 28/88/23 57/86/23 44/87/23
f 32/90/24 28/88/24 38/89/24
f 33/92/25 32/90/25 37/91/25
f 29/94/26 33/92/26 42/93/26
f 34/120/27 29/94/27 39/95/27
f 57/101/12 28/33/12 58/96/12
f 60/114/28 59/97/28 1/1/28
f 60/119/10 44/65/10 59/100/10
f 22/21/29 21/20/29 59/97/29
f 61/121/24 62/122/24 63/123/24
f 62/122/25 64/124/25 65/125/25
f 64/124/26 66/126/26 67/127/26
f 66/126/27 68/128/27 69/129/27
f 70/130/11 72/131/11 73/132/11
f 72/131/13 74/133/13 75/134/13
f 74/133/14 76/135/14 77/136/14
f 76/135/15 78/137/15 79/138/15
f 80/139/31 81/140/31 82/141/31
f 71/142/10 73/143/10 83/144/10
f 84/145/5 85/146/5 83/147/5
f 74/148/12 86/149/12 87/150/12
f 62/151/12 61/152/12 88/153/12
f 68/154/12 66/155/12 89/156/12
f 70/157/12 84/158/12 90/159/12
f 76/160/12 87/150/12 91/161/12
f 62/151/12 92/162/12 93/163/12
f 72/164/12 90/159/12 86/149/12
f 80/165/12 78/166/12 91/161/12
f 66/155/12 64/167/12 93/163/12
f 90/168/6 83/147/6 95/169/6
f 77/170/10 79/171/10 96/172/10
f 65/173/10 97/174/10 98/175/10
f 73/143/10 75/176/10 95/177/10
f 100/178/10 82/179/10 101/180/10
f 67/181/10 102/182/10 97/174/10
f 77/170/10 103/183/10 95/177/10
f 63/184/10 98/175/10 104/185/10
f 69/186/10 99/187/10 102/182/10
f 86/188/7 95/169/7 103/189/7
f 87/190/8 103/189/8 96/191/8
f 91/192/30 96/191/30 101/193/30
f 105/194/32 101/193/32 106/195/32
f 107/196/33 106/195/33 108/197/33
f 109/198/34 108/197/34 110/199/34
f 111/200/35 110/199/35 112/201/35
f 113/202/36 112/201/36 114/203/36
f 115/204/37 114/203/37 116/205/37
f 117/206/28 116/205/28 104/207/28
f 88/208/1 104/207/1 98/209/1
f 92/210/2 98/209/2 97/211/2
f 93/212/3 97/211/3 102/213/3
f 89/214/4 102/213/4 99/215/4
f 88/153/12 61/152/12 118/216/12
f 119/217/23 118/218/23 61/121/23
f 104/185/10 116/219/10 119/220/10
f 117/221/12 118/216/12 81/222/12
f 81/140/38 118/218/38 119/217/38
f 116/219/10 82/179/10 119/220/10
f 101/180/10 82/179/10 106/223/10
f 106/223/10 82/179/10 108/224/10
f 108/224/10 82/179/10 110/225/10
f 110/225/10 82/179/10 112/226/10
f 112/226/10 82/179/10 114/227/10
f 114/227/10 82/179/10 116/219/10
f 117/221/12 81/222/12 115/228/12
f 115/228/12 81/222/12 113/229/12
f 113/229/12 81/222/12 111/230/12
f 111/230/12 81/222/12 109/231/12
f 109/231/12 81/222/12 107/232/12
f 107/232/12 81/222/12 105/233/12
f 120/234/24 61/121/24 63/123/24
f 63/123/25 62/122/25 65/125/25
f 65/125/26 64/124/26 67/127/26
f 67/127/27 66/126/27 69/129/27
f 71/235/11 70/130/11 73/132/11
f 73/132/13 72/131/13 75/134/13
f 75/134/14 74/133/14 77/136/14
f 77/136/15 76/135/15 79/138/15
f 100/236/16 79/138/16 78/137/16
f 85/237/10 71/142/10 83/144/10
f 78/137/16 80/139/16 100/236/16
f 100/236/31 80/139/31 82/141/31
f 90/168/5 84/145/5 83/147/5
f 76/160/12 74/148/12 87/150/12
f 92/162/12 62/151/12 88/153/12
f 94/238/12 68/154/12 89/156/12
f 72/164/12 70/157/12 90/159/12
f 78/166/12 76/160/12 91/161/12
f 64/167/12 62/151/12 93/163/12
f 74/148/12 72/164/12 86/149/12
f 105/233/12 81/222/12 80/165/12
f 80/165/12 91/161/12 105/233/12
f 89/156/12 66/155/12 93/163/12
f 86/188/6 90/168/6 95/169/6
f 103/183/10 77/170/10 96/172/10
f 63/184/10 65/173/10 98/175/10
f 83/144/10 73/143/10 95/177/10
f 96/172/10 79/171/10 100/178/10
f 100/178/10 101/180/10 96/172/10
f 65/173/10 67/181/10 97/174/10
f 75/176/10 77/170/10 95/177/10
f 120/239/10 63/184/10 104/185/10
f 67/181/10 69/186/10 102/182/10
f 87/190/7 86/188/7 103/189/7
f 91/192/8 87/190/8 96/191/8
f 105/194/30 91/192/30 101/193/30
f 107/196/32 105/194/32 106/195/32
f 109/198/33 107/196/33 108/197/33
f 111/200/34 109/198/34 110/199/34
f 113/202/35 111/200/35 112/201/35
f 115/204/36 113/202/36 114/203/36
f 117/206/37 115/204/37 116/205/37
f 88/208/28 117/206/28 104/207/28
f 92/210/1 88/208/1 98/209/1
f 93/212/2 92/210/2 97/211/2
f 89/214/3 93/212/3 102/213/3
f 94/240/4 89/214/4 99/215/4
f 117/221/12 88/153/12 118/216/12
f 120/234/23 119/217/23 61/121/23
f 120/239/10 104/185/10 119/220/10
f 82/141/38 81/140/38 119/217/38
