# Blender v2.91.0 OBJ File: ''
# www.blender.org
o Plane
v -1.000000 0.070149 -3.025525
v 1.000000 0.070149 -3.025525
v -0.160592 0.070149 -4.422854
v 0.160592 0.070149 -4.422854
v 0.000000 0.070149 -4.009127
v 0.000000 0.070149 -5.025525
v -0.750000 0.070149 -3.025525
v 0.750000 0.070149 -3.025525
vt 0.075026 0.018536
vt 0.075295 0.018536
vt 0.075026 0.028339
vt 0.074219 0.018536
vt 0.074219 0.028339
vt 0.073681 0.028339
vt 0.073412 0.018536
vt 0.073681 0.018536
vt 0.073412 0.028339
vt 0.074757 0.018536
vt 0.074757 0.028339
vt 0.073143 0.018536
vt 0.073143 0.028339
vn 0.0000 1.0000 0.0000
s off
f 8/1/1 2/2/1 4/3/1
f 5/4/1 6/5/1 3/6/1
f 7/7/1 5/8/1 3/9/1
f 5/10/1 4/11/1 6/5/1
f 1/12/1 7/7/1 3/13/1
f 5/10/1 8/1/1 4/11/1
o Cylinder_Cylinder.003
v 0.707107 0.050000 -0.707107
v 0.831470 0.050000 -0.555570
v 0.831470 -0.050000 -0.555570
v 0.923880 0.050000 -0.382683
v 0.923880 -0.050000 -0.382683
v 0.980785 0.050000 -0.195090
v 0.980785 -0.050000 -0.195090
v 1.000000 0.050000 0.000000
v 1.000000 -0.050000 -0.000000
v 0.980785 0.050000 0.195090
v 0.980785 -0.050000 0.195090
v 0.923880 0.050000 0.382683
v 0.923880 -0.050000 0.382683
v 0.831470 0.050000 0.555570
v 0.831470 -0.050000 0.555570
v 0.707107 0.050000 0.707107
v 0.707107 -0.050000 0.707107
v 0.555570 0.050000 0.831470
v 0.555570 -0.050000 0.831470
v 0.382683 0.050000 0.923880
v 0.382683 -0.050000 0.923880
v 0.195090 0.050000 0.980785
v 0.195090 -0.050000 0.980785
v 0.000000 0.050000 1.000000
v 0.000000 -0.050000 1.000000
v -0.195091 0.050000 0.980785
v -0.195091 -0.050000 0.980785
v -0.382684 0.050000 0.923879
v -0.382684 -0.050000 0.923879
v -0.555571 0.050000 0.831469
v -0.555571 -0.050000 0.831469
v -0.707107 0.050000 0.707106
v -0.707107 -0.050000 0.707106
v -0.831470 0.050000 0.555570
v -0.831470 -0.050000 0.555570
v -0.923880 0.050000 0.382683
v -0.923880 -0.050000 0.382683
v -0.980785 0.050000 0.195089
v -0.980785 -0.050000 0.195089
v -1.000000 0.050000 -0.000001
v -1.000000 -0.050000 -0.000001
v -0.980785 0.050000 -0.195091
v -0.980785 -0.050000 -0.195091
v -0.923879 0.050000 -0.382684
v -0.923879 -0.050000 -0.382684
v -0.831469 0.050000 -0.555571
v -0.831469 -0.050000 -0.555571
v -0.707106 0.050000 -0.707108
v -0.707106 -0.050000 -0.707108
v -0.555570 0.050000 -0.831470
v 0.000000 0.050000 -1.280000
v 0.000000 -0.050000 -1.280000
v -0.588471 -0.050000 -0.117055
v -0.600000 0.050000 -0.000001
v -0.600000 -0.050000 -0.000001
v -0.424264 0.050000 0.424264
v -0.498882 0.050000 0.333342
v 0.588471 0.050000 0.117054
v 0.554328 0.050000 0.229610
v -0.588471 0.050000 0.117054
v 0.424264 0.050000 0.424264
v -0.554327 0.050000 -0.229611
v -0.498881 0.050000 -0.333343
v 0.424264 0.050000 -0.424264
v 0.117054 0.050000 0.588471
v 0.000000 0.050000 0.600000
v -0.229610 0.050000 0.554327
v -0.333342 0.050000 0.498881
v 0.588471 0.050000 -0.117054
v -0.588471 0.050000 -0.117055
v 0.333342 0.050000 0.498882
v -0.424264 0.050000 -0.424265
v 0.498882 0.050000 -0.333342
v 0.554328 0.050000 -0.229610
v 0.600000 0.050000 0.000000
v -0.554328 0.050000 0.229610
v 0.498882 0.050000 0.333342
v 0.229610 0.050000 0.554328
v -0.117054 0.050000 0.588471
v -0.554327 -0.050000 -0.229611
v 0.229610 -0.050000 0.554328
v 0.333342 -0.050000 0.498882
v -0.424264 -0.050000 -0.424265
v -0.117054 -0.050000 0.588471
v 0.000000 -0.050000 0.600000
v 0.554328 -0.050000 -0.229610
v 0.498882 -0.050000 -0.333342
v -0.424264 -0.050000 0.424264
v 0.588471 -0.050000 0.117054
v 0.600000 -0.050000 -0.000000
v -0.588471 -0.050000 0.117054
v 0.424264 -0.050000 0.424264
v 0.498882 -0.050000 0.333342
v 0.117054 -0.050000 0.588471
v -0.555570 -0.050000 -0.831470
v -0.333341 -0.050000 -0.498882
v -0.229610 -0.050000 0.554327
v 0.588471 -0.050000 -0.117054
v -0.498882 -0.050000 0.333342
v 0.554328 -0.050000 0.229610
v -0.498881 -0.050000 -0.333343
v 0.424264 -0.050000 -0.424264
v -0.333342 -0.050000 0.498881
v -0.554328 -0.050000 0.229610
v -0.333341 0.050000 -0.498882
v -0.229609 -0.050000 -0.554328
v -0.229609 0.050000 -0.554328
v -0.117053 -0.050000 -0.588471
v -0.117053 0.050000 -0.588471
v 0.000000 -0.050000 -0.600000
v 0.000000 0.050000 -0.600000
v 0.117054 -0.050000 -0.588471
v 0.117054 0.050000 -0.588471
v 0.229610 -0.050000 -0.554328
v 0.229610 0.050000 -0.554328
v 0.333342 -0.050000 -0.498882
v 0.333342 0.050000 -0.498882
v 0.555570 0.050000 -0.831470
v 0.555570 -0.050000 -0.831470
v 0.707107 -0.050000 -0.707107
vt 0.317158 0.383100
vt 0.311537 0.380510
vt 0.312653 0.377223
vt 0.305421 0.379198
vt 0.305804 0.375750
vt 0.299053 0.379266
vt 0.298676 0.375750
vt 0.292698 0.380758
vt 0.291541 0.377325
vt 0.286672 0.383665
vt 0.284753 0.380493
vt 0.281302 0.387901
vt 0.278688 0.385168
vt 0.276897 0.393298
vt 0.273699 0.391165
vt 0.273722 0.399606
vt 0.270103 0.398211
vt 0.271962 0.406502
vt 0.268152 0.405924
vt 0.271628 0.413600
vt 0.267960 0.413750
vt 0.272598 0.419988
vt 0.269196 0.420862
vt 0.274811 0.425948
vt 0.271699 0.427439
vt 0.278117 0.431324
vt 0.275368 0.433370
vt 0.282386 0.435945
vt 0.280087 0.438476
vt 0.287461 0.439650
vt 0.285693 0.442576
vt 0.293167 0.442303
vt 0.291987 0.445528
vt 0.299300 0.443855
vt 0.298761 0.447253
vt 0.305618 0.444144
vt 0.305771 0.447591
vt 0.311877 0.443156
vt 0.312722 0.446509
vt 0.317821 0.440931
vt 0.319324 0.444050
vt 0.323206 0.437556
vt 0.325304 0.440311
vt 0.327804 0.433172
vt 0.330411 0.435444
vt 0.331416 0.427972
vt 0.334408 0.429652
vt 0.333884 0.422206
vt 0.337083 0.423217
vt 0.335182 0.416193
vt 0.334982 0.396508
vt 0.337359 0.395627
vt 0.174365 0.584133
vt 0.179906 0.522981
vt 0.293825 0.544699
vt 0.286185 0.419960
vt 0.283154 0.421578
vt 0.281513 0.417533
vt 0.707553 0.801536
vt 0.624886 0.720234
vt 0.649192 0.690141
vt 0.177630 0.645301
vt 0.291035 0.621806
vt 0.302553 0.658735
vt 0.792018 0.640496
vt 0.678099 0.618779
vt 0.681589 0.580253
vt 0.312372 0.843582
vt 0.264604 0.805001
vt 0.345828 0.722417
vt 0.772779 0.459669
vt 0.665978 0.504858
vt 0.647476 0.470886
vt 0.222560 0.409819
vt 0.261141 0.362052
vt 0.343646 0.443359
vt 0.425645 0.889466
vt 0.447284 0.775630
vt 0.485809 0.779120
vt 0.606471 0.870227
vt 0.561204 0.763509
vt 0.595176 0.745008
vt 0.171134 0.584243
vt 0.176675 0.523091
vt 0.290432 0.544814
vt 0.774654 0.699392
vt 0.746134 0.753768
vt 0.225281 0.757842
vt 0.195913 0.703918
vt 0.797558 0.579344
vt 0.677496 0.541787
vt 0.366749 0.872102
vt 0.375922 0.746723
vt 0.743411 0.405746
vt 0.622703 0.441177
vt 0.547854 0.888510
vt 0.486796 0.895006
vt 0.319340 0.473453
vt 0.301372 0.507710
vt 0.660395 0.840859
vt 0.286942 0.583340
vt 0.667159 0.655883
vt 0.321054 0.692707
vt 0.791062 0.518286
vt 0.410179 0.764691
vt 0.656320 0.320008
vt 0.704087 0.358588
vt 0.524275 0.775028
vt 0.194039 0.464196
vt 0.284815 0.416522
vt 0.280684 0.413234
vt 0.609699 0.870119
vt 0.564594 0.763396
vt 0.598567 0.744895
vt 0.225792 0.409709
vt 0.264373 0.361941
vt 0.347039 0.443244
vt 0.428873 0.889357
vt 0.450674 0.775516
vt 0.489200 0.779006
vt 0.776010 0.459563
vt 0.669371 0.504746
vt 0.650869 0.470773
vt 0.315601 0.843471
vt 0.267833 0.804890
vt 0.349219 0.722302
vt 0.795248 0.640389
vt 0.681490 0.618666
vt 0.684981 0.580141
vt 0.199144 0.703807
vt 0.180861 0.645190
vt 0.294427 0.621691
vt 0.710782 0.801429
vt 0.628277 0.720121
vt 0.652582 0.690028
vt 0.197271 0.464085
vt 0.304765 0.507595
vt 0.551082 0.888402
vt 0.527666 0.774914
vt 0.311532 0.322619
vt 0.492379 0.152799
vt 0.376750 0.418471
vt 0.369977 0.871992
vt 0.413570 0.764576
vt 0.794293 0.518180
vt 0.680889 0.541674
vt 0.228511 0.757731
vt 0.324446 0.692592
vt 0.777883 0.699285
vt 0.670551 0.655771
vt 0.290335 0.583224
vt 0.663623 0.840752
vt 0.322733 0.473338
vt 0.746643 0.405639
vt 0.626096 0.441064
vt 0.490025 0.894898
vt 0.379313 0.746608
vt 0.800788 0.579238
vt 0.305945 0.658620
vt 0.749363 0.753662
vt 0.284127 0.412874
vt 0.280696 0.408857
vt 0.284147 0.409152
vt 0.281523 0.404568
vt 0.284844 0.405505
vt 0.283154 0.400520
vt 0.286224 0.402079
vt 0.285541 0.396873
vt 0.288242 0.398999
vt 0.288595 0.393773
vt 0.290819 0.396385
vt 0.292196 0.391342
vt 0.293854 0.394337
vt 0.296200 0.389678
vt 0.297228 0.392937
vt 0.300448 0.388846
vt 0.300805 0.392237
vt 0.304769 0.388876
vt 0.304443 0.392266
vt 0.308993 0.389767
vt 0.307997 0.393020
vt 0.312951 0.391482
vt 0.311325 0.394471
vt 0.316489 0.393949
vt 0.314298 0.396562
vt 0.319479 0.397068
vt 0.316800 0.399219
vt 0.321844 0.400715
vt 0.318802 0.402331
vt 0.323476 0.404764
vt 0.320175 0.405774
vt 0.324302 0.409055
vt 0.320868 0.409422
vt 0.324302 0.413413
vt 0.320863 0.413144
vt 0.323521 0.417671
vt 0.320220 0.416779
vt 0.321949 0.421694
vt 0.318895 0.420187
vt 0.319627 0.425323
vt 0.316938 0.423248
vt 0.316635 0.428417
vt 0.314416 0.425848
vt 0.313084 0.430853
vt 0.311422 0.427888
vt 0.309113 0.432535
vt 0.308072 0.429288
vt 0.304873 0.433402
vt 0.304493 0.429996
vt 0.300523 0.433420
vt 0.300824 0.429977
vt 0.296211 0.432588
vt 0.297202 0.429232
vt 0.292075 0.430891
vt 0.290700 0.425714
vt 0.293797 0.427759
vt 0.288519 0.428269
vt 0.285532 0.425203
vt 0.288176 0.423060
vt 0.308300 0.322729
vt 0.325585 0.385462
vt 0.323916 0.387943
vt 0.596003 0.416758
vt 0.659553 0.319900
vt 0.373356 0.418586
vt 0.492272 0.152213
vt 0.410722 0.399970
vt 0.447650 0.388452
vt 0.486116 0.384359
vt 0.524642 0.387850
vt 0.561746 0.398790
vt 0.407328 0.400084
vt 0.444256 0.388566
vt 0.482723 0.384474
vt 0.521248 0.387964
vt 0.558352 0.398904
vt 0.592609 0.416871
vt 0.319149 0.380138
vt 0.338291 0.416567
vt 0.707321 0.358481
vn 0.7730 0.0000 -0.6344
vn 0.8819 0.0000 -0.4714
vn 0.9569 0.0000 -0.2903
vn 0.9952 -0.0000 -0.0980
vn 0.9952 -0.0000 0.0980
vn 0.9569 0.0000 0.2903
vn 0.8819 0.0000 0.4714
vn 0.7730 0.0000 0.6344
vn 0.6344 0.0000 0.7730
vn 0.4714 0.0000 0.8819
vn 0.2903 0.0000 0.9569
vn 0.0980 0.0000 0.9952
vn -0.0980 0.0000 0.9952
vn -0.2903 0.0000 0.9569
vn -0.4714 0.0000 0.8819
vn -0.6344 0.0000 0.7730
vn -0.7730 0.0000 0.6344
vn -0.8819 0.0000 0.4714
vn -0.9569 0.0000 0.2903
vn -0.9952 -0.0000 0.0980
vn -0.9952 0.0000 -0.0980
vn -0.9569 0.0000 -0.2903
vn -0.8819 0.0000 -0.4714
vn -0.7730 0.0000 -0.6344
vn -0.6282 0.0000 -0.7781
vn -0.0000 -1.0000 -0.0000
vn 0.0000 1.0000 0.0000
vn -0.6344 0.0000 -0.7730
vn -0.4714 0.0000 -0.8819
vn -0.2903 0.0000 -0.9569
vn -0.0980 0.0000 -0.9952
vn 0.0980 0.0000 -0.9952
vn 0.2903 0.0000 -0.9569
vn 0.4714 0.0000 -0.8819
vn 0.6344 0.0000 -0.7730
vn 0.6282 0.0000 -0.7781
s off
f 9/14/2 10/15/2 11/16/2
f 10/15/3 12/17/3 13/18/3
f 12/17/4 14/19/4 15/20/4
f 14/19/5 16/21/5 17/22/5
f 16/21/6 18/23/6 19/24/6
f 18/23/7 20/25/7 21/26/7
f 20/25/8 22/27/8 23/28/8
f 22/27/9 24/29/9 25/30/9
f 24/29/10 26/31/10 27/32/10
f 26/31/11 28/33/11 29/34/11
f 28/33/12 30/35/12 31/36/12
f 30/35/13 32/37/13 33/38/13
f 32/37/14 34/39/14 35/40/14
f 34/39/15 36/41/15 37/42/15
f 36/41/16 38/43/16 39/44/16
f 38/43/17 40/45/17 41/46/17
f 40/45/18 42/47/18 43/48/18
f 42/47/19 44/49/19 45/50/19
f 44/49/20 46/51/20 47/52/20
f 46/51/21 48/53/21 49/54/21
f 48/53/22 50/55/22 51/56/22
f 50/55/23 52/57/23 53/58/23
f 52/57/24 54/59/24 55/60/24
f 54/59/25 56/61/25 57/62/25
f 58/63/26 59/64/26 60/65/26
f 49/66/27 51/67/27 61/68/27
f 62/69/6 63/70/6 61/71/6
f 40/72/28 64/73/28 65/74/28
f 18/75/28 66/76/28 67/77/28
f 46/78/28 68/79/28 62/80/28
f 26/81/28 24/82/28 69/83/28
f 52/84/28 70/85/28 71/86/28
f 10/87/28 9/88/28 72/89/28
f 30/90/28 73/91/28 74/92/28
f 36/93/28 75/94/28 76/95/28
f 16/96/28 14/97/28 77/98/28
f 44/99/28 42/100/28 65/74/28
f 22/101/28 20/102/28 67/77/28
f 48/103/28 62/80/28 78/104/28
f 28/105/28 26/81/28 79/106/28
f 54/107/28 71/86/28 80/108/28
f 34/109/28 32/110/28 74/92/28
f 10/87/28 81/111/28 82/112/28
f 38/113/28 76/95/28 64/73/28
f 16/96/28 83/114/28 66/76/28
f 44/99/28 84/115/28 68/79/28
f 24/82/28 22/101/28 85/116/28
f 50/117/28 78/104/28 70/85/28
f 28/105/28 86/118/28 73/91/28
f 58/119/28 56/120/28 80/108/28
f 34/109/28 87/121/28 75/94/28
f 14/97/28 12/122/28 82/112/28
f 78/123/7 61/71/7 88/124/7
f 29/125/27 89/126/27 90/127/27
f 55/128/27 57/129/27 91/130/27
f 35/131/27 92/132/27 93/133/27
f 13/134/27 94/135/27 95/136/27
f 39/137/27 41/138/27 96/139/27
f 19/140/27 97/141/27 98/142/27
f 45/143/27 47/144/27 99/145/27
f 25/146/27 100/147/27 101/148/27
f 51/67/27 53/149/27 88/150/27
f 31/151/27 102/152/27 89/126/27
f 103/153/27 60/154/27 104/155/27
f 35/131/27 37/156/27 105/157/27
f 15/158/27 106/159/27 94/135/27
f 43/160/27 107/161/27 96/139/27
f 21/162/27 108/163/27 97/141/27
f 47/144/27 49/66/27 63/164/27
f 27/165/27 90/127/27 100/147/27
f 55/128/27 109/166/27 88/150/27
f 11/167/27 95/136/27 110/168/27
f 33/169/27 93/133/27 102/152/27
f 39/137/27 111/170/27 105/157/27
f 17/171/27 98/142/27 106/159/27
f 45/143/27 112/172/27 107/161/27
f 23/173/27 101/148/27 108/163/27
f 70/174/8 88/124/8 109/175/8
f 71/176/9 109/175/9 91/177/9
f 80/178/10 91/177/10 104/179/10
f 113/180/11 104/179/11 114/181/11
f 115/182/12 114/181/12 116/183/12
f 117/184/13 116/183/13 118/185/13
f 119/186/14 118/185/14 120/187/14
f 121/188/15 120/187/15 122/189/15
f 123/190/16 122/189/16 124/191/16
f 125/192/17 124/191/17 110/193/17
f 72/194/18 110/193/18 95/195/18
f 81/196/19 95/195/19 94/197/19
f 82/198/20 94/197/20 106/199/20
f 77/200/21 106/199/21 98/201/21
f 83/202/22 98/201/22 97/203/22
f 66/204/23 97/203/23 108/205/23
f 67/206/24 108/205/24 101/207/24
f 85/208/25 101/207/25 100/209/25
f 69/210/29 100/209/29 90/211/29
f 79/212/30 90/211/30 89/213/30
f 86/214/31 89/213/31 102/215/31
f 73/216/32 102/215/32 93/217/32
f 74/218/33 93/217/33 92/219/33
f 87/220/34 92/219/34 105/221/34
f 75/222/35 105/221/35 111/223/35
f 76/224/36 111/223/36 96/225/36
f 64/226/2 96/225/2 107/227/2
f 84/228/3 65/229/3 107/227/3
f 84/228/4 112/230/4 99/231/4
f 68/232/5 99/231/5 63/70/5
f 72/89/28 9/88/28 126/233/28
f 127/234/36 126/235/36 9/14/36
f 110/168/27 124/236/27 127/237/27
f 125/238/28 126/233/28 59/239/28
f 59/64/37 126/235/37 127/234/37
f 124/236/27 60/154/27 127/237/27
f 104/155/27 60/154/27 114/240/27
f 114/240/27 60/154/27 116/241/27
f 116/241/27 60/154/27 118/242/27
f 118/242/27 60/154/27 120/243/27
f 120/243/27 60/154/27 122/244/27
f 122/244/27 60/154/27 124/236/27
f 125/238/28 59/239/28 123/245/28
f 123/245/28 59/239/28 121/246/28
f 121/246/28 59/239/28 119/247/28
f 119/247/28 59/239/28 117/248/28
f 117/248/28 59/239/28 115/249/28
f 115/249/28 59/239/28 113/250/28
f 128/251/2 9/14/2 11/16/2
f 11/16/3 10/15/3 13/18/3
f 13/18/4 12/17/4 15/20/4
f 15/20/5 14/19/5 17/22/5
f 17/22/6 16/21/6 19/24/6
f 19/24/7 18/23/7 21/26/7
f 21/26/8 20/25/8 23/28/8
f 23/28/9 22/27/9 25/30/9
f 25/30/10 24/29/10 27/32/10
f 27/32/11 26/31/11 29/34/11
f 29/34/12 28/33/12 31/36/12
f 31/36/13 30/35/13 33/38/13
f 33/38/14 32/37/14 35/40/14
f 35/40/15 34/39/15 37/42/15
f 37/42/16 36/41/16 39/44/16
f 39/44/17 38/43/17 41/46/17
f 41/46/18 40/45/18 43/48/18
f 43/48/19 42/47/19 45/50/19
f 45/50/20 44/49/20 47/52/20
f 47/52/21 46/51/21 49/54/21
f 49/54/22 48/53/22 51/56/22
f 51/56/23 50/55/23 53/58/23
f 53/58/24 52/57/24 55/60/24
f 55/60/25 54/59/25 57/62/25
f 103/252/29 57/62/29 56/61/29
f 63/164/27 49/66/27 61/68/27
f 56/61/29 58/63/29 103/252/29
f 103/252/26 58/63/26 60/65/26
f 78/123/6 62/69/6 61/71/6
f 42/100/28 40/72/28 65/74/28
f 20/102/28 18/75/28 67/77/28
f 48/103/28 46/78/28 62/80/28
f 79/106/28 26/81/28 69/83/28
f 54/107/28 52/84/28 71/86/28
f 81/111/28 10/87/28 72/89/28
f 32/110/28 30/90/28 74/92/28
f 38/113/28 36/93/28 76/95/28
f 83/114/28 16/96/28 77/98/28
f 84/115/28 44/99/28 65/74/28
f 85/116/28 22/101/28 67/77/28
f 50/117/28 48/103/28 78/104/28
f 86/118/28 28/105/28 79/106/28
f 56/120/28 54/107/28 80/108/28
f 87/121/28 34/109/28 74/92/28
f 12/122/28 10/87/28 82/112/28
f 40/72/28 38/113/28 64/73/28
f 18/75/28 16/96/28 66/76/28
f 46/78/28 44/99/28 68/79/28
f 69/83/28 24/82/28 85/116/28
f 52/84/28 50/117/28 70/85/28
f 30/90/28 28/105/28 73/91/28
f 113/250/28 59/239/28 58/119/28
f 36/93/28 34/109/28 75/94/28
f 58/119/28 80/108/28 113/250/28
f 77/98/28 14/97/28 82/112/28
f 70/174/7 78/123/7 88/124/7
f 27/165/27 29/125/27 90/127/27
f 109/166/27 55/128/27 91/130/27
f 33/169/27 35/131/27 93/133/27
f 11/167/27 13/134/27 95/136/27
f 111/170/27 39/137/27 96/139/27
f 17/171/27 19/140/27 98/142/27
f 112/172/27 45/143/27 99/145/27
f 23/173/27 25/146/27 101/148/27
f 61/68/27 51/67/27 88/150/27
f 29/125/27 31/151/27 89/126/27
f 91/130/27 57/129/27 103/153/27
f 92/132/27 35/131/27 105/157/27
f 103/153/27 104/155/27 91/130/27
f 13/134/27 15/158/27 94/135/27
f 41/138/27 43/160/27 96/139/27
f 19/140/27 21/162/27 97/141/27
f 99/145/27 47/144/27 63/164/27
f 25/146/27 27/165/27 100/147/27
f 53/149/27 55/128/27 88/150/27
f 128/253/27 11/167/27 110/168/27
f 31/151/27 33/169/27 102/152/27
f 37/156/27 39/137/27 105/157/27
f 15/158/27 17/171/27 106/159/27
f 43/160/27 45/143/27 107/161/27
f 21/162/27 23/173/27 108/163/27
f 71/176/8 70/174/8 109/175/8
f 80/178/9 71/176/9 91/177/9
f 113/180/10 80/178/10 104/179/10
f 115/182/11 113/180/11 114/181/11
f 117/184/12 115/182/12 116/183/12
f 119/186/13 117/184/13 118/185/13
f 121/188/14 119/186/14 120/187/14
f 123/190/15 121/188/15 122/189/15
f 125/192/16 123/190/16 124/191/16
f 72/194/17 125/192/17 110/193/17
f 81/196/18 72/194/18 95/195/18
f 82/198/19 81/196/19 94/197/19
f 77/200/20 82/198/20 106/199/20
f 83/202/21 77/200/21 98/201/21
f 66/204/22 83/202/22 97/203/22
f 67/206/23 66/204/23 108/205/23
f 85/208/24 67/206/24 101/207/24
f 69/210/25 85/208/25 100/209/25
f 79/212/29 69/210/29 90/211/29
f 86/214/30 79/212/30 89/213/30
f 73/216/31 86/214/31 102/215/31
f 74/218/32 73/216/32 93/217/32
f 87/220/33 74/218/33 92/219/33
f 75/222/34 87/220/34 105/221/34
f 76/224/35 75/222/35 111/223/35
f 64/226/36 76/224/36 96/225/36
f 65/229/2 64/226/2 107/227/2
f 112/230/3 84/228/3 107/227/3
f 68/232/4 84/228/4 99/231/4
f 62/69/5 68/232/5 63/70/5
f 125/238/28 72/89/28 126/233/28
f 128/251/36 127/234/36 9/14/36
f 128/253/27 110/168/27 127/237/27
f 60/65/37 59/64/37 127/234/37
