# Blender v2.82 (sub 7) OBJ File: ''
# www.blender.org
mtllib gas4col.mtl
o path819
v -0.686263 0.025636 0.279083
v -0.678218 0.025636 -0.100210
v -0.646534 0.025636 -0.208432
v -0.630324 0.025636 0.499661
v -0.570672 0.025636 0.623158
v -0.443470 0.025636 0.801331
v -0.426215 0.025636 -0.614595
v -0.337294 0.025636 0.898496
v -0.356753 0.025636 -0.840795
v -0.310854 0.025636 -0.929263
v -0.235531 0.025636 -1.012791
v -0.178053 0.025636 1.002293
v -0.053531 0.025636 -1.131200
v 0.101354 0.025636 1.115682
v 0.119917 0.025636 -1.183841
v 0.314045 0.025636 1.136210
v 0.298569 0.025636 0.334364
v 0.298010 0.025636 0.304459
v 0.310418 0.025636 0.384484
v 0.309830 0.025636 0.225641
v 0.361424 0.025636 0.481881
v 0.367272 0.025636 0.045458
v 0.384580 0.025636 0.030032
v 0.393822 0.025636 0.516255
v 0.396113 0.025636 0.007693
v 0.428994 0.025636 1.125408
v 0.439731 0.025636 -1.194062
v 0.487404 0.025636 1.108944
v 0.537836 0.025636 -1.178262
v 0.622476 0.025636 1.042526
v 0.688302 0.025636 -1.124719
v 0.698915 0.025636 0.682119
v 0.725171 0.025636 0.956541
v 0.743477 0.025636 0.727323
v 0.771397 0.025636 -1.073775
v 0.755602 0.025636 0.912634
v 0.758301 0.025636 0.751189
v 0.764052 0.025636 0.891576
v 0.768360 0.025636 0.776179
v 0.773809 0.025636 0.802503
v 0.774804 0.025636 0.830370
v 0.841327 0.025636 -1.009540
v 0.863114 0.025636 -0.448756
v 0.896357 0.025636 -0.934381
v 0.875499 0.025636 -0.477185
v 0.900347 0.025636 -0.507463
v 0.934754 0.025636 -0.850666
v 0.942032 0.025636 -0.608234
v 0.954783 0.025636 -0.760764
v 0.950323 0.025636 -0.647697
v 0.953155 0.025636 -0.653005
v 0.955469 0.025636 -0.666821
v -0.686263 0.001831 0.279083
v -0.678218 0.001831 -0.100210
v -0.646534 0.001831 -0.208432
v -0.630324 0.001831 0.499661
v -0.570672 0.001831 0.623158
v -0.443470 0.001831 0.801331
v -0.426215 0.001831 -0.614595
v -0.337294 0.001831 0.898496
v -0.356753 0.001831 -0.840795
v -0.310854 0.001831 -0.929263
v -0.235531 0.001831 -1.012791
v -0.178053 0.001831 1.002293
v -0.053531 0.001831 -1.131200
v 0.101354 0.001831 1.115682
v 0.119917 0.001831 -1.183841
v 0.314045 0.001831 1.136210
v 0.298569 0.001831 0.334364
v 0.298010 0.001831 0.304459
v 0.310418 0.001831 0.384484
v 0.309830 0.001831 0.225641
v 0.361424 0.001831 0.481881
v 0.368075 0.001831 0.045878
v 0.385301 0.005798 0.027894
v 0.393822 0.001831 0.516255
v 0.396113 0.001831 0.007693
v 0.428994 0.001831 1.125408
v 0.439731 0.001831 -1.194062
v 0.487404 0.001831 1.108944
v 0.537836 0.001831 -1.178262
v 0.622476 0.001831 1.042526
v 0.688302 0.001831 -1.124719
v 0.698915 0.001831 0.682119
v 0.725171 0.001831 0.956541
v 0.743477 0.001831 0.727323
v 0.771397 0.001831 -1.073775
v 0.755602 0.001831 0.912634
v 0.758301 0.001831 0.751189
v 0.764052 0.001831 0.891576
v 0.768360 0.001831 0.776179
v 0.773809 0.001831 0.802503
v 0.774804 0.001831 0.830370
v 0.841327 0.001831 -1.009540
v 0.863114 0.001831 -0.448756
v 0.896357 0.001831 -0.934381
v 0.876430 0.001831 -0.478854
v 0.900347 0.001831 -0.507463
v 0.934754 0.001831 -0.850666
v 0.942032 0.001831 -0.608234
v 0.954783 0.001831 -0.760764
v 0.950323 0.001831 -0.647697
v 0.953155 0.001831 -0.653005
v 0.955469 0.001831 -0.666821
vt 0.991739 0.253626
vt 0.968797 0.162663
vt 0.991739 0.253626
vt 0.175244 0.129306
vt 0.165018 0.120344
vt 0.165018 0.120344
vt 0.529821 0.988785
vt 0.576192 0.969631
vt 0.529821 0.988785
vt 0.994130 0.506277
vt 0.998509 0.312935
vt 0.994130 0.506277
vt 0.576192 0.969631
vt 0.750222 0.836438
vt 0.887242 0.036884
vt 0.851373 0.013672
vt 0.887242 0.036884
vt 0.747496 0.009272
vt 0.704319 0.034472
vt 0.704319 0.034472
vt 0.008842 0.517499
vt 0.057426 0.686413
vt 0.057426 0.686413
vt 0.971574 0.611134
vt 0.971574 0.611134
vt 0.000046 0.388918
vt 0.008842 0.517499
vt 0.764405 0.004259
vt 0.747496 0.009272
vt 0.265682 0.340689
vt 0.194613 0.156247
vt 0.265682 0.340689
vt 0.143031 0.110970
vt 0.131091 0.110368
vt 0.131091 0.110368
vt 0.101901 0.782681
vt 0.142133 0.843605
vt 0.142133 0.843605
vt 0.679164 0.056981
vt 0.483588 0.339304
vt 0.483588 0.339304
vt 0.474016 0.346276
vt 0.474016 0.346276
vt 0.004675 0.319426
vt 0.000046 0.388918
vt 0.219876 0.923769
vt 0.272791 0.959832
vt 0.272791 0.959832
vt 0.946969 0.112428
vt 0.946969 0.112428
vt 0.885050 0.766698
vt 0.920839 0.721161
vt 0.885050 0.766698
vt 0.919446 0.070153
vt 0.919446 0.070153
vt 0.695681 0.042072
vt 0.695681 0.042072
vt 0.367304 0.993649
vt 0.367304 0.993649
vt 0.343617 0.398273
vt 0.322142 0.391111
vt 0.322142 0.391111
vt 0.390202 0.391466
vt 0.356430 0.398612
vt 0.356430 0.398612
vt 0.390202 0.391466
vt 0.469941 0.350635
vt 0.154310 0.114264
vt 0.154310 0.114264
vt 0.687285 0.050684
vt 0.679164 0.056981
vt 0.750222 0.836438
vt 0.847143 0.794445
vt 0.463838 0.356615
vt 0.104866 0.116868
vt 0.095843 0.121977
vt 0.095843 0.121977
vt 0.077030 0.140374
vt 0.040187 0.202457
vt 0.040187 0.202457
vt 0.143031 0.110970
vt 0.077030 0.140374
vt 0.011729 0.284115
vt 0.004675 0.319426
vt 0.766680 0.002547
vt 0.764405 0.004259
vt 0.343617 0.398273
vt 0.011729 0.284115
vt 0.772599 0.001148
vt 0.766680 0.002547
vt 0.280410 0.360275
vt 0.280410 0.360275
vt 0.847143 0.794445
vt 0.104866 0.116868
vt 0.812852 0.001562
vt 0.812852 0.001562
vt 0.469941 0.350635
vt 0.772599 0.001148
vt 0.998509 0.312935
vt 0.175244 0.129306
vt 0.144905 0.850205
vt 0.219876 0.923769
vt 0.920839 0.721161
vt 0.101901 0.782681
vt 0.968797 0.162663
vt 0.851373 0.013672
vt 0.194613 0.156247
vt 0.687285 0.050684
vt 0.463838 0.356615
vt 0.144905 0.850205
vn 0.3353 0.0000 -0.9421
vn 0.8495 0.0000 -0.5276
vn -0.9597 0.0000 -0.2810
vn -0.0319 0.0000 -0.9995
vn -0.8790 0.0000 -0.4768
vn 0.9090 0.0000 -0.4169
vn 0.9241 0.0000 0.3822
vn -0.3760 0.0000 0.9266
vn -0.2904 0.0000 -0.9569
vn -0.0961 0.0000 0.9954
vn 0.9786 0.0000 0.2056
vn 0.4776 0.0000 -0.8786
vn 0.9994 0.0000 -0.0357
vn -0.6751 0.0000 0.7377
vn 0.6990 0.0000 0.7151
vn 0.8853 -0.0090 0.4650
vn 0.8848 -0.0078 0.4659
vn 0.8884 -0.0172 0.4587
vn 0.0936 0.0000 0.9956
vn -0.9005 0.0000 0.4349
vn 0.5227 0.0000 -0.8525
vn -0.7426 0.0000 -0.6697
vn 0.6765 0.0000 -0.7365
vn 0.7710 -0.0093 0.6368
vn 0.7693 -0.0052 0.6389
vn 0.7729 -0.0143 0.6343
vn -0.9693 0.0000 0.2458
vn 0.9732 0.0000 -0.2301
vn 0.9889 0.0000 0.1483
vn 0.0000 1.0000 0.0000
vn 0.9277 0.0000 -0.3734
vn 0.9158 0.0031 0.4016
vn 0.9154 0.0045 0.4025
vn 0.9168 0.0000 0.3994
vn -0.9559 0.0000 -0.2936
vn 0.9522 0.0345 0.3036
vn 0.9514 0.0030 0.3079
vn 0.9513 0.0000 0.3082
vn 0.9281 0.0000 0.3724
vn 0.6420 0.0000 0.7667
vn 0.9792 0.0000 -0.2027
vn 0.8219 0.0000 0.5696
vn 0.2713 0.0000 0.9625
vn 0.8823 0.0000 0.4707
vn -0.9998 -0.0000 -0.0212
vn 0.9998 0.0000 -0.0187
vn 0.4413 0.0000 0.8974
vn 0.9863 0.0000 0.1652
vn 0.7277 0.0000 -0.6859
vn -0.8876 0.0000 -0.4605
vn 0.9849 0.0000 0.1730
vn 0.9761 0.0000 -0.2175
vn 0.0000 -1.0000 -0.0000
vn 0.6926 -0.0093 0.7213
vn 0.6960 -0.0033 0.7180
vn 0.7177 0.0365 0.6954
vn 0.8859 0.0000 -0.4639
vn 1.0000 0.0000 -0.0073
vn 0.9999 0.0000 -0.0131
vn 0.1590 0.0000 -0.9873
vn 0.7121 0.0000 -0.7020
vn -0.8139 0.0000 0.5810
vn -0.5453 0.0000 -0.8382
vn -0.5461 0.0000 0.8377
vn 0.8068 0.0000 -0.5908
vn 0.9786 -0.0000 0.2059
vn 0.8817 -0.0000 0.4719
vn 0.7672 0.0000 0.6414
vn 0.9145 0.0074 0.4046
vn 0.9521 0.0374 0.3035
vn 0.0402 -0.9988 0.0295
vn 0.0355 -0.9990 0.0261
vn 0.6243 -0.6326 0.4584
vn 0.6643 -0.0562 0.7453
usemtl SVGMat.004
s 1
f 29/1/1 83/2/1 81/3/1
f 86/4/2 37/5/2 89/6/2
f 2/7/3 55/8/3 54/9/3
f 15/10/4 79/11/4 67/12/4
f 3/13/5 59/14/5 55/8/5
f 44/15/6 99/16/6 96/17/6
f 100/18/7 46/19/7 98/20/7
f 66/21/8 12/22/8 64/23/8
f 13/24/9 67/12/9 65/25/9
f 68/26/10 14/27/10 66/21/10
f 102/28/11 48/29/11 100/18/11
f 24/30/12 84/31/12 76/32/12
f 92/33/13 41/34/13 93/35/13
f 60/36/14 6/37/14 58/38/14
f 95/39/15 25/40/15 77/41/15
f 75/42/16 25/40/17 23/43/18
f 78/44/19 16/45/19 68/26/19
f 57/46/20 4/47/20 56/48/20
f 83/2/21 35/49/21 87/50/21
f 10/51/22 63/52/22 62/53/22
f 87/50/23 42/54/23 94/55/23
f 97/56/24 46/19/25 45/57/26
f 56/48/27 1/58/27 53/59/27
f 69/60/28 19/61/28 71/62/28
f 72/63/29 18/64/29 70/65/29
f 20/66/30 22/67/30 3/13/30
f 89/6/31 39/68/31 91/69/31
f 95/39/32 45/70/33 43/71/34
f 7/72/35 61/73/35 59/14/35
f 74/74/36 20/66/37 72/63/38
f 90/75/39 36/76/39 88/77/39
f 85/78/40 30/79/40 82/80/40
f 91/69/41 40/81/41 92/33/41
f 88/77/42 33/82/42 85/78/42
f 80/83/43 26/84/43 78/44/43
f 103/85/44 50/86/44 102/28/44
f 53/59/45 2/7/45 54/9/45
f 70/65/46 17/87/46 69/60/46
f 82/80/47 28/88/47 80/83/47
f 104/89/48 51/90/48 103/85/48
f 21/91/49 76/32/49 73/92/49
f 9/93/50 62/53/50 61/73/50
f 93/35/51 38/94/51 90/75/51
f 99/16/52 49/95/52 101/96/52
f 53/59/53 72/63/53 70/65/53
f 75/42/54 22/67/55 74/97/56
f 19/61/57 73/92/57 71/62/57
f 101/96/58 52/98/58 104/89/59
f 27/99/60 81/3/60 79/11/60
f 84/31/61 34/100/61 86/4/61
f 58/101/62 5/102/62 57/46/62
f 11/103/63 65/25/63 63/52/63
f 64/23/64 8/104/64 60/36/64
f 42/54/65 96/17/65 94/55/65
f 29/1/1 31/105/1 83/2/1
f 86/4/2 34/100/2 37/5/2
f 2/7/3 3/13/3 55/8/3
f 15/10/4 27/99/4 79/11/4
f 3/13/5 7/72/5 59/14/5
f 44/15/6 47/106/6 99/16/6
f 100/18/7 48/29/7 46/19/7
f 66/21/8 14/27/8 12/22/8
f 13/24/9 15/10/9 67/12/9
f 68/26/10 16/45/10 14/27/10
f 102/28/11 50/86/66 48/29/11
f 24/30/12 32/107/12 84/31/12
f 92/33/13 40/81/13 41/34/13
f 60/36/14 8/104/14 6/37/14
f 95/39/15 43/71/15 25/40/15
f 75/42/16 77/41/67 25/40/17
f 78/44/19 26/84/19 16/45/19
f 57/46/20 5/102/20 4/47/20
f 83/2/21 31/105/21 35/49/21
f 10/51/22 11/103/22 63/52/22
f 87/50/23 35/49/23 42/54/23
f 97/56/24 98/20/68 46/19/25
f 56/48/27 4/47/27 1/58/27
f 69/60/28 17/87/28 19/61/28
f 72/63/29 20/66/29 18/64/29
f 7/72/30 3/13/30 22/67/30
f 3/13/30 2/7/30 20/66/30
f 18/64/30 1/58/30 4/47/30
f 2/7/30 1/58/30 20/66/30
f 17/87/30 4/47/30 5/102/30
f 5/102/30 6/37/30 17/87/30
f 17/87/30 6/37/30 19/61/30
f 6/37/30 8/104/30 19/61/30
f 8/104/30 12/22/30 19/61/30
f 12/22/30 14/27/30 21/91/30
f 14/27/30 16/45/30 24/30/30
f 16/45/30 26/84/30 24/30/30
f 26/84/30 28/88/30 24/30/30
f 28/88/30 30/79/30 24/30/30
f 30/79/30 33/82/30 32/107/30
f 33/82/30 36/76/30 38/94/30
f 38/94/30 41/34/30 32/107/30
f 41/34/30 40/81/30 34/100/30
f 34/100/30 40/81/30 37/5/30
f 40/81/30 39/68/30 37/5/30
f 34/100/30 32/107/30 41/34/30
f 32/107/30 24/30/30 30/79/30
f 38/94/30 32/107/30 33/82/30
f 14/27/30 24/30/30 21/91/30
f 1/58/30 18/64/30 20/66/30
f 4/47/30 17/87/30 18/64/30
f 10/51/30 9/93/30 11/103/30
f 9/93/30 7/72/30 25/40/30
f 13/24/30 9/93/30 25/40/30
f 13/24/30 11/103/30 9/93/30
f 27/99/30 15/10/30 43/71/30
f 15/10/30 13/24/30 25/40/30
f 27/99/30 43/71/30 45/57/30
f 31/105/30 29/1/30 45/57/30
f 29/1/30 27/99/30 45/57/30
f 42/54/30 35/49/30 45/57/30
f 35/49/30 31/105/30 45/57/30
f 47/106/30 44/15/30 45/57/30
f 44/15/30 42/54/30 45/57/30
f 52/98/30 49/95/30 50/86/30
f 49/95/30 47/106/30 50/86/30
f 50/86/30 51/90/30 52/98/30
f 46/19/30 48/29/30 45/57/30
f 48/29/30 50/86/30 45/57/30
f 25/40/30 43/71/30 15/10/30
f 45/57/30 50/86/30 47/106/30
f 22/67/30 23/43/30 25/40/30
f 12/22/30 21/91/30 19/61/30
f 22/67/30 25/40/30 7/72/30
f 89/6/31 37/5/31 39/68/31
f 95/39/32 97/108/69 45/70/33
f 7/72/35 9/93/35 61/73/35
f 74/74/36 22/109/70 20/66/37
f 90/75/39 38/94/39 36/76/39
f 85/78/40 33/82/40 30/79/40
f 91/69/41 39/68/41 40/81/41
f 88/77/42 36/76/42 33/82/42
f 80/83/43 28/88/43 26/84/43
f 103/85/44 51/90/44 50/86/44
f 53/59/45 1/58/45 2/7/45
f 70/65/46 18/64/46 17/87/46
f 82/80/47 30/79/47 28/88/47
f 104/89/48 52/98/48 51/90/48
f 21/91/49 24/30/49 76/32/49
f 9/93/50 10/51/50 62/53/50
f 93/35/51 41/34/51 38/94/51
f 99/16/52 47/106/52 49/95/52
f 65/25/53 67/12/53 77/41/71
f 67/12/53 79/11/53 95/39/53
f 95/39/53 79/11/53 97/108/53
f 79/11/53 81/3/53 97/108/53
f 81/3/53 83/2/53 97/108/53
f 83/2/53 87/50/53 97/108/53
f 87/50/53 94/55/53 97/108/53
f 94/55/53 96/17/53 97/108/53
f 96/17/53 99/16/53 97/108/53
f 99/16/53 101/96/53 102/28/53
f 101/96/53 104/89/53 102/28/53
f 104/89/53 103/85/53 102/28/53
f 102/28/53 100/18/53 97/108/53
f 100/18/53 98/20/53 97/108/53
f 95/39/53 77/41/71 67/12/53
f 62/53/53 63/52/53 61/73/53
f 63/52/53 65/25/53 61/73/53
f 59/14/53 61/73/53 77/41/71
f 54/9/53 55/8/53 72/63/53
f 55/8/53 59/14/53 74/74/72
f 56/48/53 53/59/53 70/65/53
f 53/59/53 54/9/53 72/63/53
f 58/101/53 57/46/53 69/60/53
f 57/46/53 56/48/53 69/60/53
f 64/23/53 60/36/53 71/62/53
f 60/36/53 58/101/53 71/62/53
f 68/26/53 66/21/53 76/32/53
f 66/21/53 64/23/53 73/92/53
f 76/32/53 66/21/53 73/92/53
f 80/83/53 78/44/53 76/32/53
f 78/44/53 68/26/53 76/32/53
f 85/78/53 82/80/53 84/31/53
f 82/80/53 80/83/53 76/32/53
f 84/31/53 82/80/53 76/32/53
f 90/75/53 88/77/53 85/78/53
f 92/33/53 93/35/53 86/4/53
f 93/35/53 90/75/53 84/31/53
f 92/33/53 86/4/53 89/6/53
f 89/6/53 91/69/53 92/33/53
f 84/31/53 86/4/53 93/35/53
f 90/75/53 85/78/53 84/31/53
f 58/101/53 69/60/53 71/62/53
f 56/48/53 70/65/53 69/60/53
f 55/8/53 74/74/72 72/63/53
f 61/73/53 65/25/53 77/41/71
f 99/16/53 102/28/53 97/108/53
f 77/41/71 75/42/73 74/74/72
f 59/14/53 77/41/71 74/74/72
f 71/62/53 73/92/53 64/23/53
f 75/42/54 23/43/74 22/67/55
f 19/61/57 21/91/57 73/92/57
f 101/96/58 49/95/58 52/98/58
f 27/99/60 29/1/60 81/3/60
f 84/31/61 32/107/61 34/100/61
f 58/101/62 6/110/62 5/102/62
f 11/103/63 13/24/63 65/25/63
f 64/23/64 12/22/64 8/104/64
f 42/54/65 44/15/65 96/17/65
