# Blender v2.78 (sub 0) OBJ File: ''
# www.blender.org
mtllib largeFullCollider.mtl
o med_base_Cube.011_Stand_sep29_auv
v -2.329790 -0.145255 2.329789
v -2.329789 -0.145255 -0.000000
v -2.045669 -0.145255 2.329789
v -2.045669 0.072628 2.329789
v -2.045669 0.145255 2.329789
v -0.760087 -0.145255 2.329789
v -0.760087 -0.145255 -0.000000
v -0.561715 -0.145255 2.329789
v -0.760087 -0.004745 2.398938
v -0.760087 -0.004745 2.329789
v -0.760087 0.072628 2.329789
v -2.045669 0.245255 2.329789
v -2.329790 0.245255 2.329789
v -2.329790 0.145255 2.329789
v -2.045669 0.245255 0.000000
v -2.329789 0.245255 0.000000
v -2.045669 -0.145255 -0.000000
v -0.760087 0.145255 2.329789
v -0.760087 -0.145255 -2.329789
v -2.329789 -0.145255 -2.329790
v -2.045669 0.072628 -2.329790
v -2.045669 -0.145255 -2.329790
v -0.561715 -0.145255 -2.398938
v -0.561715 -0.145255 -2.329789
v -0.760087 -0.004745 -2.398938
v -0.760087 -0.145255 -2.398938
v -2.329789 0.145255 -2.329790
v -2.329789 0.245255 -2.329790
v -2.045669 0.245255 -2.329790
v -2.045669 0.145255 -2.329790
v -2.329789 0.145255 0.000000
v -0.561715 0.145255 -2.329789
v -0.760087 0.145255 -2.329789
v 0.000000 0.145255 0.000000
v 0.561715 0.145255 -2.329789
v 0.000000 0.145255 -2.329789
v -0.760087 0.072628 -2.329789
v -0.561715 0.072628 -2.329789
v 0.000000 -0.145255 -2.329789
v -0.561715 -0.145255 -0.000000
v 0.000000 -0.145255 2.329789
v 0.760087 -0.145255 2.329789
v 0.561715 -0.145255 2.398938
v 0.561715 -0.145255 2.329789
v 0.760087 -0.004745 2.398938
v 0.760087 -0.145255 2.398938
v 2.045669 0.245255 2.329790
v 2.045669 0.245255 0.000000
v 2.045669 0.145255 2.329790
v 2.329789 0.145255 2.329790
v 2.329789 0.245255 2.329790
v 2.329789 -0.145255 2.329790
v 2.329789 -0.145255 -0.000000
v 2.329789 0.145255 0.000000
v 0.000000 0.145255 2.329789
v 0.000000 0.072628 2.329789
v 0.561715 0.145255 2.329789
v 2.045669 -0.145255 2.329790
v 2.045669 0.072628 2.329790
v 0.760087 0.145255 2.329789
v 0.760087 0.072628 2.329789
v 0.561715 0.072628 2.329789
v 0.561715 -0.145255 -0.000000
v 0.760087 -0.145255 -0.000000
v 2.045669 -0.145255 -0.000000
v 2.329790 -0.145255 -2.329789
v 2.045669 0.145255 -2.329789
v 2.329790 0.145255 -2.329789
v 0.760087 -0.145255 -2.329789
v 2.045669 -0.145255 -2.329789
v 2.329789 0.245255 0.000000
v 2.329790 0.245255 -2.329789
v 2.045669 0.245255 -2.329789
v 2.045669 0.145255 0.000000
v 0.000000 0.072628 -2.329789
v 0.561715 0.072628 -2.329789
v -2.045669 0.145255 0.000000
v 2.045669 0.072628 -2.329789
v 0.760087 0.072628 -2.329789
v 0.760087 0.145255 -2.329789
v 0.000000 -0.145255 -0.000000
v 0.561715 -0.145255 -2.329789
v 0.561715 -0.145255 -2.398938
v -0.561715 -0.004745 2.329789
v -0.561715 -0.004745 -2.329789
v -0.760087 -0.004745 -2.329789
v 0.561715 -0.004745 2.329789
v 0.561715 -0.004745 2.398938
v -0.679236 -0.145255 2.479789
v -0.719662 -0.004745 2.468957
v -0.719662 -0.145255 2.468957
v -0.760087 -0.145255 2.398938
v -0.561715 -0.145255 2.398938
v -0.749255 -0.004745 2.439364
v -0.749255 -0.145255 2.439364
v -0.602140 -0.145255 2.468957
v -0.642566 -0.145255 2.479789
v -0.572547 -0.004745 2.439364
v -0.572547 -0.145255 2.439364
v -0.642566 -0.004745 2.479789
v -0.602140 -0.004745 2.468957
v -0.749255 -0.004745 -2.439364
v -0.749255 -0.145255 -2.439364
v -0.679236 -0.145255 -2.479789
v -0.642566 -0.004745 -2.479789
v -0.642566 -0.145255 -2.479789
v -0.719661 -0.145255 -2.468957
v -0.719661 -0.004745 -2.468957
v -0.679236 -0.004745 -2.479789
v -0.602140 -0.145255 -2.468957
v -0.602140 -0.004745 -2.468957
v -0.572547 -0.004745 -2.439364
v -0.572547 -0.145255 -2.439364
v -0.561715 -0.004745 -2.398938
v 0.749255 -0.004745 2.439364
v 0.749255 -0.145255 2.439364
v 0.679236 -0.145255 2.479789
v 0.719661 -0.145255 2.468957
v 0.719661 -0.004745 2.468957
v 0.679236 -0.004745 2.479789
v 0.602140 -0.145255 2.468957
v 0.572547 -0.145255 2.439364
v 0.602140 -0.004745 2.468957
v 0.572547 -0.004745 2.439364
v 0.679236 -0.145255 -2.479789
v 0.719662 -0.004745 -2.468957
v 0.719662 -0.145255 -2.468957
v 0.760087 -0.145255 -2.398938
v 0.760087 -0.004745 -2.398938
v 0.760087 -0.004745 -2.329789
v 0.749255 -0.145255 -2.439364
v 0.749255 -0.004745 -2.439364
v 0.602140 -0.145255 -2.468957
v 0.642566 -0.145255 -2.479789
v 0.572547 -0.004745 -2.439364
v 0.572547 -0.145255 -2.439364
v 0.642566 -0.004745 -2.479789
v 0.602140 -0.004745 -2.468957
v -0.679236 -0.004745 2.479789
v -0.561715 -0.004745 2.398938
v 0.642566 -0.004745 2.479789
v 0.642566 -0.145255 2.479789
v 0.679236 -0.004745 -2.479789
v 0.561715 -0.004745 -2.398938
v 0.561715 -0.004745 -2.329789
v -0.561715 0.072628 2.329789
v -0.561715 0.145255 2.329789
v 0.760087 -0.004745 2.329789
v 0.066357 0.063870 -0.160201
v 0.122612 0.063870 -0.122612
v 0.160201 0.063870 -0.066357
v 0.173400 0.063870 0.000000
v 0.160201 0.063870 0.066357
v 0.122612 0.063870 0.122612
v 0.066357 0.063870 0.160201
v 0.000000 0.063870 0.173400
v -0.066357 0.063870 0.160201
v -0.122612 0.063870 0.122612
v -0.160201 0.063870 0.066357
v -0.173400 0.063870 0.000000
v -0.160201 0.063870 -0.066357
v -0.122612 0.063870 -0.122612
v -0.066357 0.063870 -0.160201
v 0.000000 0.063870 -0.173400
vt 0.1422 0.0596
vt 0.1422 0.0506
vt 0.1434 0.0596
vt 0.1422 0.0652
vt 0.1411 0.0517
vt 0.1411 0.0472
vt 0.1484 0.0596
vt 0.1484 0.0506
vt 0.1492 0.0596
vt 0.1609 0.0497
vt 0.1606 0.0410
vt 0.1609 0.0410
vt 0.1361 0.0652
vt 0.1361 0.0517
vt 0.1411 0.0410
vt 0.1422 0.0410
vt 0.1422 0.0472
vt 0.1605 0.0782
vt 0.1594 0.0692
vt 0.1605 0.0692
vt 0.1434 0.0506
vt 0.1422 0.0962
vt 0.1485 0.0872
vt 0.1485 0.0962
vt 0.0468 0.1663
vt 0.0313 0.1389
vt 0.0468 0.1389
vt 0.1484 0.0416
vt 0.1058 0.0652
vt 0.1069 0.0517
vt 0.1069 0.0652
vt 0.1492 0.0413
vt 0.1492 0.0416
vt 0.1597 0.0869
vt 0.1600 0.0782
vt 0.1600 0.0869
vt 0.1058 0.0472
vt 0.1058 0.0410
vt 0.1069 0.0410
vt 0.1069 0.0472
vt 0.1422 0.0782
vt 0.1485 0.0782
vt 0.1422 0.0652
vt 0.1331 0.0714
vt 0.1331 0.0652
vt 0.1077 0.4867
vt 0.0960 0.4867
vt 0.1409 0.3490
vt 0.1331 0.0894
vt 0.1240 0.0714
vt 0.1434 0.0416
vt 0.1741 0.4867
vt 0.1409 0.4867
vt 0.0468 0.1389
vt 0.0313 0.1389
vt 0.0313 0.1663
vt 0.0468 0.1347
vt 0.0313 0.1347
vt 0.1514 0.0416
vt 0.1492 0.0506
vt 0.1514 0.0596
vt 0.1543 0.0596
vt 0.1536 0.0599
vt 0.1536 0.0596
vt 0.1580 0.0869
vt 0.1583 0.0782
vt 0.1583 0.0869
vt 0.1485 0.0962
vt 0.1485 0.0872
vt 0.1548 0.0962
vt 0.1240 0.0472
vt 0.1240 0.0410
vt 0.1251 0.0410
vt 0.1251 0.0472
vt 0.1240 0.0652
vt 0.1240 0.0714
vt 0.1149 0.0894
vt 0.1149 0.0714
vt 0.0468 0.1227
vt 0.0313 0.1227
vt 0.0468 0.1107
vt 0.1594 0.0596
vt 0.1605 0.0506
vt 0.1605 0.0596
vt 0.1251 0.0652
vt 0.1251 0.0517
vt 0.1302 0.0652
vt 0.0468 0.1065
vt 0.0313 0.1065
vt 0.0468 0.0790
vt 0.0313 0.1107
vt 0.1536 0.0506
vt 0.1543 0.0506
vt 0.1594 0.0506
vt 0.1240 0.0652
vt 0.1229 0.0472
vt 0.1240 0.0472
vt 0.1543 0.0416
vt 0.1594 0.0416
vt 0.1583 0.0692
vt 0.1594 0.0692
vt 0.1583 0.0782
vt 0.1583 0.0602
vt 0.1594 0.0602
vt 0.1548 0.0782
vt 0.1548 0.0872
vt 0.1058 0.0652
vt 0.1058 0.0714
vt 0.0468 0.1227
vt 0.0313 0.1227
vt 0.1149 0.0652
vt 0.1149 0.0517
vt 0.1171 0.0517
vt 0.0200 0.2113
vt 0.0960 0.2113
vt 0.0200 0.3490
vt 0.1229 0.0652
vt 0.1229 0.0517
vt 0.0468 0.0790
vt 0.0313 0.1065
vt 0.0468 0.1065
vt 0.1514 0.0506
vt 0.0313 0.1107
vt 0.0468 0.1107
vt 0.1536 0.0416
vt 0.1536 0.0413
vt 0.0000 0.0000
vt 1.0000 0.0000
vt 1.0000 1.0000
vt 0.1353 0.0565
vt 0.1361 0.0565
vt 0.1554 0.0892
vt 0.1551 0.0884
vt 0.1554 0.0884
vt 0.1554 0.0899
vt 0.1551 0.0899
vt 0.1551 0.0892
vt 0.1551 0.0782
vt 0.1549 0.0869
vt 0.1549 0.0782
vt 0.1484 0.0599
vt 0.1492 0.0599
vt 0.1487 0.0602
vt 0.1548 0.0869
vt 0.1548 0.0782
vt 0.1605 0.0497
vt 0.1606 0.0497
vt 0.1490 0.0601
vt 0.1488 0.0602
vt 0.1578 0.0869
vt 0.1580 0.0782
vt 0.1580 0.0869
vt 0.1552 0.0782
vt 0.1552 0.0869
vt 0.1554 0.0782
vt 0.1554 0.0869
vt 0.1601 0.0782
vt 0.1601 0.0869
vt 0.1487 0.0410
vt 0.1484 0.0413
vt 0.1573 0.0782
vt 0.1571 0.0869
vt 0.1571 0.0782
vt 0.1574 0.0782
vt 0.1574 0.0869
vt 0.1573 0.0869
vt 0.1488 0.0410
vt 0.1490 0.0411
vt 0.1570 0.0782
vt 0.1570 0.0869
vt 0.1569 0.0869
vt 0.1589 0.0869
vt 0.1590 0.0782
vt 0.1590 0.0869
vt 0.1584 0.0782
vt 0.1584 0.0869
vt 0.1540 0.0602
vt 0.1543 0.0599
vt 0.1561 0.0782
vt 0.1561 0.0869
vt 0.1559 0.0869
vt 0.1537 0.0601
vt 0.1536 0.0600
vt 0.1556 0.0782
vt 0.1556 0.0869
vt 0.1555 0.0869
vt 0.1601 0.0869
vt 0.1601 0.0782
vt 0.1603 0.0782
vt 0.1565 0.0782
vt 0.1563 0.0869
vt 0.1563 0.0782
vt 0.1543 0.0413
vt 0.1540 0.0410
vt 0.1586 0.0869
vt 0.1586 0.0782
vt 0.1589 0.0782
vt 0.1542 0.0411
vt 0.1543 0.0412
vt 0.1584 0.0869
vt 0.1584 0.0782
vt 0.1537 0.0411
vt 0.1539 0.0410
vt 0.1596 0.0869
vt 0.1597 0.0782
vt 0.1597 0.0869
vt 0.1566 0.0782
vt 0.1566 0.0869
vt 0.1569 0.0782
vt 0.1568 0.0869
vt 0.1568 0.0782
vt 0.1551 0.0876
vt 0.1553 0.0878
vt 0.1554 0.0879
vt 0.1551 0.0884
vt 0.1548 0.0884
vt 0.1553 0.0882
vt 0.1552 0.0884
vt 0.1548 0.0889
vt 0.1548 0.0887
vt 0.1548 0.0886
vt 0.1550 0.0884
vt 0.1551 0.0892
vt 0.1548 0.0890
vt 0.1548 0.0896
vt 0.1548 0.0895
vt 0.1548 0.0893
vt 0.1550 0.0892
vt 0.1558 0.0869
vt 0.1558 0.0782
vt 0.1551 0.0869
vt 0.1553 0.0870
vt 0.1554 0.0872
vt 0.1551 0.0876
vt 0.1548 0.0876
vt 0.1554 0.0873
vt 0.1553 0.0875
vt 0.0313 0.1347
vt 0.0468 0.1347
vt 0.1331 0.0517
vt 0.1353 0.0517
vt 0.1331 0.0652
vt 0.1594 0.0782
vt 0.1240 0.0894
vt 0.1411 0.0652
vt 0.1422 0.0872
vt 0.2618 0.2113
vt 0.2618 0.3490
vt 0.1858 0.2113
vt 0.1422 0.0416
vt 0.1240 0.0652
vt 0.1422 0.0714
vt 0.1605 0.0602
vt 0.2618 0.4867
vt 0.1858 0.4867
vt 0.0468 0.1663
vt 0.1127 0.0652
vt 0.1240 0.0894
vt 0.1240 0.0652
vt 0.1594 0.0782
vt 0.1409 0.2113
vt 0.1077 0.2113
vt 0.1741 0.2113
vt 0.0313 0.0790
vt 0.1179 0.0652
vt 0.1229 0.0410
vt 0.1240 0.0410
vt 0.1485 0.0782
vt 0.1149 0.0652
vt 0.1605 0.0416
vt 0.1548 0.0876
vt 0.1576 0.0782
vt 0.1578 0.0782
vt 0.1554 0.0892
vt 0.1548 0.0869
vt 0.1485 0.0601
vt 0.1551 0.0869
vt 0.1491 0.0600
vt 0.1555 0.0782
vt 0.1555 0.0869
vt 0.1484 0.0412
vt 0.1485 0.0411
vt 0.1576 0.0782
vt 0.1576 0.0869
vt 0.1593 0.0782
vt 0.1491 0.0412
vt 0.1543 0.0600
vt 0.1542 0.0601
vt 0.1562 0.0782
vt 0.1562 0.0869
vt 0.1559 0.0782
vt 0.1539 0.0602
vt 0.1603 0.0869
vt 0.1606 0.0782
vt 0.1555 0.0782
vt 0.1562 0.0869
vt 0.1562 0.0782
vt 0.1536 0.0412
vt 0.1569 0.0869
vt 0.1552 0.0876
vt 0.1554 0.0881
vt 0.1550 0.0891
vt 0.1548 0.0898
vt 0.1565 0.0869
vt 0.1552 0.0869
vt 0.1596 0.0782
vt 0.1119 0.0517
vt 0.0313 0.1663
vt 0.0000 0.0000
vt 1.0000 0.0000
vt 1.0000 1.0000
vt 0.1422 0.0894
vt 0.0000 0.0000
vt 1.0000 0.0000
vt 1.0000 1.0000
vt 0.1594 0.0602
vt 0.1119 0.0652
vt 0.0000 0.0000
vt 1.0000 0.0000
vt 1.0000 1.0000
vt 0.1353 0.0652
vt 0.1309 0.0517
vt 0.1589 0.0869
vt 0.1179 0.0517
vt 0.1058 0.0894
vt 0.0200 0.4867
vt 0.1576 0.0869
vt 0.1597 0.0782
vt 0.1119 0.0565
vt 0.1127 0.0565
vt 0.1580 0.0782
vt 0.1302 0.0565
vt 0.1302 0.0517
vt 0.0000 0.0000
vt 1.0000 0.0000
vt 1.0000 1.0000
vt 0.1593 0.0782
vt 0.1171 0.0565
vt 0.1179 0.0565
vt 0.1484 0.0600
vt 0.1605 0.0410
vt 0.1589 0.0782
vt 0.1550 0.0899
vt 0.1552 0.0876
vt 0.1593 0.0869
vt 0.1606 0.0869
vt 0.1309 0.0652
vt 0.1171 0.0652
vt 0.0000 0.0000
vt 1.0000 0.0000
vt 1.0000 1.0000
vt 0.0000 0.0000
vt 1.0000 0.0000
vt 1.0000 1.0000
vt 0.1309 0.0565
vt 0.0000 0.0000
vt 1.0000 0.0000
vt 1.0000 1.0000
vt 0.1593 0.0869
vt 0.1569 0.0782
vt 0.0313 0.0790
vt 0.1127 0.0517
vt 0.0917 0.1632
vt 0.0888 0.1612
vt 0.0868 0.1582
vt 0.0861 0.1548
vt 0.0868 0.1513
vt 0.0888 0.1483
vt 0.0917 0.1464
vt 0.0952 0.1457
vt 0.0987 0.1464
vt 0.1017 0.1483
vt 0.1036 0.1513
vt 0.1043 0.1548
vt 0.1036 0.1582
vt 0.1017 0.1612
vt 0.0987 0.1632
vt 0.0952 0.1639
vn 0.0000 -1.0000 -0.0000
vn -0.0000 0.0000 1.0000
vn -0.8611 0.4966 -0.1094
vn -1.0000 0.0000 0.0000
vn -0.8557 -0.3659 0.3659
vn -0.5085 -0.0070 0.8610
vn 0.0000 1.0000 0.0000
vn 1.0000 0.0000 0.0000
vn 0.0000 0.0000 -1.0000
vn -0.5175 0.0001 0.8557
vn 0.0000 0.5086 0.8610
vn 0.3659 0.3659 0.8557
vn -0.2588 0.0000 0.9659
vn -0.7071 0.0000 0.7071
vn -0.9659 0.0000 0.2588
vn 0.9659 0.0000 0.2588
vn 0.2588 0.0000 0.9659
vn -0.9659 0.0000 -0.2588
vn -0.2588 0.0000 -0.9659
vn 0.7071 0.0000 -0.7071
vn 0.9659 0.0000 -0.2588
vn 0.2588 0.0000 -0.9659
vn -0.7071 0.0000 -0.7071
vn 0.7071 0.0000 0.7071
vn 0.5852 -0.4223 0.6922
vn -0.8433 0.5374 0.0000
vn 0.3545 -0.9350 0.0000
vn -0.5374 0.0000 -0.8433
vn -0.8610 0.5087 0.0000
vn 0.4511 -0.8925 0.0000
vn 0.9972 0.0000 -0.0750
vn -0.3283 0.6175 -0.7148
vn 0.0000 0.0750 -0.9972
vn -0.5852 -0.7726 0.2461
vn -0.3086 0.7499 -0.5852
vn 0.3545 0.0000 -0.9350
vn 0.0000 0.9350 0.3545
vn -0.4511 -0.0000 0.8925
vn 0.8610 0.4968 -0.1095
vn 0.0000 0.8925 -0.4511
vn 0.7869 -0.5225 -0.3283
vn 0.0000 0.0750 0.9972
vn 0.9404 0.0885 0.3283
vn 0.5086 -0.0070 0.8610
vn 0.9849 0.0000 -0.1732
vn -0.3925 0.7207 -0.5714
vn -0.7450 -0.6369 0.1983
vn 0.8137 -0.4286 -0.3925
vn 0.0000 0.1732 0.9849
vn 0.3397 0.5741 0.7450
vn -0.5847 -0.3212 0.7450
vn 0.5852 -0.7726 -0.2461
vn 0.3086 0.7499 0.5852
vn 0.9037 -0.1708 0.3925
vn 0.0000 0.1732 -0.9849
usemtl Stand_sep29_auv
s off
f 1/1/1 2/2/1 3/3/1
f 1/4/2 4/5/2 5/6/2
f 6/7/1 7/8/1 8/9/1
f 6/10/3 9/11/4 10/12/5
f 6/13/6 11/14/2 4/5/2
f 12/15/2 13/16/2 14/17/2
f 13/18/7 15/19/7 16/20/7
f 3/3/1 17/21/1 6/7/1
f 5/22/8 15/23/8 12/24/8
f 5/25/2 11/26/2 18/27/2
f 7/8/1 17/21/1 19/28/1
f 20/29/9 21/30/9 22/31/9
f 19/28/1 23/32/1 24/33/1
f 19/34/4 25/35/4 26/36/4
f 27/37/9 28/38/9 29/39/9
f 27/37/9 30/40/9 20/29/9
f 15/23/8 30/41/8 29/42/8
f 28/43/4 31/44/4 16/45/4
f 32/46/7 33/47/7 34/48/7
f 31/44/4 2/49/4 14/50/4
f 2/2/1 22/51/1 17/21/1
f 35/52/7 36/53/7 34/48/7
f 33/54/9 37/55/9 21/56/9
f 32/57/9 38/58/9 37/55/9
f 24/33/1 39/59/1 40/60/1
f 40/60/1 41/61/1 8/9/1
f 42/62/1 43/63/1 44/64/1
f 42/65/8 45/66/8 46/67/8
f 47/68/4 48/69/4 49/70/4
f 50/71/2 51/72/2 47/73/2
f 50/71/2 49/74/2 52/75/2
f 50/76/8 53/77/8 54/78/8
f 55/79/2 56/80/2 57/81/2
f 58/82/1 53/83/1 52/84/1
f 58/85/2 59/86/2 42/87/2
f 60/88/2 61/89/2 49/90/2
f 57/81/2 62/91/2 60/88/2
f 44/64/1 63/92/1 64/93/1
f 64/93/1 65/94/1 42/62/1
f 66/95/9 67/96/9 68/97/9
f 69/98/1 70/99/1 65/94/1
f 71/100/7 48/101/7 51/102/7
f 48/101/7 72/103/7 73/104/7
f 48/69/4 67/105/4 74/106/4
f 72/107/8 54/78/8 68/108/8
f 36/109/9 75/110/9 38/58/9
f 39/111/9 75/112/9 76/113/9
f 5/114/7 18/115/7 77/116/7
f 70/117/9 78/118/9 66/95/9
f 67/119/9 79/120/9 80/121/9
f 81/122/1 63/92/1 41/61/1
f 33/47/7 77/116/7 34/48/7
f 80/121/9 76/123/9 35/124/9
f 82/125/1 63/92/1 39/59/1
f 82/125/1 83/126/1 69/98/1
f 10/127/10 11/128/2 6/129/11
f 84/130/2 11/14/2 10/131/12
f 85/132/7 25/133/7 86/134/7
f 87/135/7 88/136/7 45/137/7
f 89/138/13 90/139/13 91/140/13
f 92/141/1 93/142/1 89/143/1
f 91/140/14 94/144/14 95/145/14
f 95/146/15 9/11/15 92/147/15
f 93/142/1 96/148/1 97/149/1
f 93/150/16 98/151/16 99/152/16
f 97/153/2 100/154/2 89/138/2
f 96/155/17 101/156/17 100/154/17
f 26/36/18 102/157/18 103/158/18
f 104/159/1 23/32/1 26/160/1
f 104/161/9 105/162/9 106/163/9
f 107/164/19 108/165/19 109/166/19
f 106/167/1 110/168/1 23/32/1
f 110/169/20 111/170/20 112/171/20
f 113/172/21 114/173/21 23/174/21
f 46/67/16 115/175/16 116/176/16
f 117/177/1 43/63/1 46/178/1
f 118/179/17 119/180/17 120/181/17
f 121/182/1 122/183/1 43/63/1
f 121/184/14 123/185/14 124/186/14
f 122/187/15 124/188/15 88/189/15
f 125/190/22 126/191/22 127/192/22
f 128/193/1 83/126/1 125/194/1
f 128/195/8 129/196/8 130/197/8
f 127/198/1 131/199/1 128/193/1
f 131/200/21 132/201/21 129/196/21
f 83/126/1 133/202/1 134/203/1
f 83/204/18 135/205/18 136/206/18
f 134/207/9 137/208/9 125/190/9
f 136/209/23 138/210/23 133/211/23
f 9/212/7 90/213/7 139/214/7
f 9/212/7 140/215/7 84/216/7
f 101/217/7 98/218/7 140/215/7
f 25/133/7 105/219/7 109/220/7
f 108/221/7 102/222/7 25/133/7
f 114/223/7 111/224/7 105/219/7
f 45/137/7 141/225/7 120/226/7
f 119/227/7 115/228/7 45/137/7
f 141/229/13 123/185/13 142/230/13
f 129/231/7 126/232/7 143/233/7
f 129/231/7 144/234/7 145/235/7
f 137/236/7 138/237/7 144/234/7
f 11/26/2 146/238/2 147/239/2
f 56/240/2 146/241/2 41/242/2
f 6/7/1 17/21/1 7/8/1
f 12/243/7 15/19/7 13/18/7
f 14/17/2 5/6/2 12/15/2
f 14/50/4 2/49/4 1/244/4
f 3/3/1 2/2/1 17/21/1
f 3/245/2 4/5/2 1/4/2
f 5/22/8 77/246/8 15/23/8
f 49/247/7 74/248/7 60/249/7
f 18/27/2 11/26/2 147/239/2
f 147/239/2 146/238/2 56/80/2
f 8/9/1 93/142/1 6/7/1
f 7/8/1 40/60/1 8/9/1
f 20/250/1 22/51/1 2/2/1
f 19/28/1 24/33/1 7/8/1
f 29/39/9 30/40/9 27/37/9
f 16/45/4 31/44/4 13/251/4
f 27/252/4 2/49/4 31/44/4
f 15/19/7 28/253/7 16/20/7
f 17/21/1 22/51/1 19/28/1
f 74/248/7 67/254/7 80/255/7
f 33/54/9 21/56/9 30/256/9
f 32/57/9 37/55/9 33/54/9
f 24/257/9 75/112/9 39/111/9
f 40/60/1 81/122/1 41/61/1
f 52/258/8 53/77/8 50/76/8
f 52/75/2 59/86/2 58/85/2
f 47/73/2 49/74/2 50/71/2
f 50/76/8 54/78/8 51/259/8
f 51/102/7 48/101/7 47/260/7
f 55/261/7 34/48/7 147/262/7
f 41/61/1 63/92/1 44/64/1
f 34/48/7 55/261/7 57/263/7
f 49/90/2 61/89/2 59/264/2
f 18/115/7 147/262/7 34/48/7
f 44/64/1 64/93/1 42/62/1
f 64/93/1 63/92/1 82/125/1
f 66/95/9 78/118/9 67/96/9
f 69/98/1 65/94/1 64/93/1
f 69/98/1 83/126/1 128/193/1
f 69/265/9 78/118/9 70/117/9
f 73/266/9 72/267/9 68/97/9
f 73/268/4 67/105/4 48/69/4
f 71/269/8 54/78/8 72/107/8
f 48/69/4 74/106/4 49/70/4
f 36/109/9 38/58/9 32/57/9
f 39/59/1 63/92/1 81/122/1
f 65/94/1 53/83/1 58/82/1
f 54/78/8 53/77/8 68/108/8
f 53/83/1 70/99/1 66/270/1
f 18/115/7 34/48/7 77/116/7
f 34/48/7 57/263/7 60/249/7
f 10/271/7 9/212/7 84/216/7
f 84/272/8 140/273/8 93/150/8
f 87/135/7 45/137/7 148/274/7
f 130/275/7 129/231/7 145/235/7
f 89/143/1 91/276/1 92/141/1
f 89/138/2 100/154/2 139/277/2
f 92/147/4 9/11/4 6/10/4
f 93/142/1 97/149/1 89/143/1
f 99/278/1 96/148/1 93/142/1
f 99/279/24 98/280/24 101/156/24
f 96/155/17 100/154/17 97/153/17
f 26/160/1 23/32/1 19/28/1
f 103/281/1 107/282/1 26/160/1
f 103/283/23 102/284/23 108/165/23
f 106/167/1 23/32/1 104/159/1
f 23/174/8 114/173/8 85/285/8
f 110/168/1 113/286/1 23/32/1
f 46/178/1 43/63/1 42/62/1
f 116/287/1 118/288/1 46/178/1
f 116/289/24 115/290/24 119/180/24
f 118/179/17 120/181/17 117/291/17
f 142/292/1 43/63/1 117/177/1
f 142/230/13 123/185/13 121/184/13
f 43/293/4 88/189/4 87/294/4
f 121/184/14 124/186/14 122/295/14
f 125/194/1 127/198/1 128/193/1
f 127/192/20 132/296/20 131/297/20
f 131/200/21 129/196/21 128/195/21
f 83/126/1 134/203/1 125/194/1
f 136/298/1 133/202/1 83/126/1
f 136/209/23 135/299/23 138/210/23
f 133/211/19 138/210/19 137/208/19
f 94/300/7 90/213/7 9/212/7
f 100/301/7 101/217/7 140/215/7
f 109/220/7 108/221/7 25/133/7
f 109/166/9 105/162/9 104/161/9
f 25/35/18 102/157/18 26/36/18
f 114/223/7 105/219/7 25/133/7
f 105/162/22 111/170/22 106/163/22
f 112/302/7 111/224/7 114/223/7
f 120/226/7 119/227/7 45/137/7
f 45/66/16 115/175/16 46/67/16
f 88/136/7 123/303/7 141/225/7
f 143/304/22 126/191/22 125/190/22
f 143/233/7 137/236/7 129/231/7
f 132/305/7 126/232/7 129/231/7
f 144/306/18 135/205/18 83/204/18
f 79/120/9 76/123/9 80/121/9
f 21/30/9 37/307/9 22/31/9
f 76/123/9 75/110/9 35/124/9
f 4/308/2 11/26/2 5/25/2
f 56/80/2 62/91/2 57/81/2
f 62/91/2 61/89/2 60/88/2
f 1/4/2 5/6/2 14/17/2
f 6/7/1 93/142/1 92/141/1
f 6/13/2 4/5/2 3/245/2
f 13/251/4 31/44/4 14/50/4
f 80/255/7 35/52/7 34/48/7
f 147/239/2 56/80/2 55/79/2
f 8/309/4 146/310/4 84/311/25
f 20/312/4 2/49/4 27/252/4
f 19/313/26 37/314/4 86/315/27
f 29/316/7 28/253/7 15/19/7
f 27/252/4 31/44/4 28/43/4
f 77/246/8 30/41/8 15/23/8
f 22/31/9 37/307/9 19/317/28
f 30/40/9 21/30/9 20/29/9
f 34/48/7 60/249/7 74/248/7
f 24/33/1 40/60/1 7/8/1
f 42/62/1 65/94/1 58/82/1
f 42/318/29 61/319/4 148/320/30
f 51/259/8 54/78/8 71/269/8
f 41/242/2 146/241/2 8/321/2
f 41/242/2 62/322/2 56/240/2
f 49/74/2 59/86/2 52/75/2
f 64/93/1 82/125/1 69/98/1
f 69/323/31 128/195/8 130/197/32
f 69/265/33 79/324/9 78/118/9
f 71/100/7 72/103/7 48/101/7
f 68/108/8 53/77/8 66/325/8
f 68/97/9 67/96/9 73/266/9
f 39/59/1 81/122/1 40/60/1
f 65/94/1 70/99/1 53/83/1
f 30/326/7 77/116/7 33/47/7
f 36/53/7 32/46/7 34/48/7
f 35/124/9 75/110/9 36/109/9
f 84/272/34 93/150/8 8/327/8
f 84/130/35 146/241/2 11/14/2
f 86/328/36 25/35/4 19/34/26
f 86/329/37 37/307/9 85/330/9
f 85/132/7 114/223/7 25/133/7
f 148/331/38 45/66/8 42/65/39
f 148/332/40 61/333/2 62/322/2
f 130/334/41 79/335/2 69/336/42
f 145/337/4 144/306/4 83/204/4
f 145/338/9 79/324/9 130/339/43
f 91/276/1 95/340/1 92/141/1
f 91/140/14 90/139/14 94/144/14
f 95/146/15 94/341/15 9/11/15
f 99/279/24 101/156/24 96/155/24
f 103/283/23 108/165/23 107/164/23
f 107/164/19 109/166/19 104/161/19
f 106/163/22 111/170/22 110/169/22
f 113/172/21 112/342/21 114/173/21
f 46/178/1 118/288/1 117/177/1
f 116/289/24 119/180/24 118/179/24
f 142/292/1 121/182/1 43/63/1
f 122/187/15 88/189/15 43/293/15
f 125/190/9 137/208/9 143/304/9
f 127/192/20 126/191/20 132/296/20
f 133/211/19 137/208/19 134/207/19
f 139/277/13 90/139/13 89/138/13
f 100/301/7 140/215/7 9/212/7
f 140/273/16 98/151/16 93/150/16
f 120/181/2 141/229/2 117/291/2
f 88/136/7 141/225/7 45/137/7
f 124/343/7 123/303/7 88/136/7
f 137/236/7 144/234/7 129/231/7
f 138/237/7 135/344/7 144/234/7
f 59/86/2 61/333/2 42/87/44
f 24/345/45 23/174/8 85/285/46
f 44/346/4 43/293/4 87/294/47
f 44/347/2 62/322/2 41/242/2
f 39/111/9 76/113/9 82/348/9
f 82/349/4 76/350/4 145/351/25
f 85/352/48 38/353/2 24/354/49
f 148/332/2 62/322/2 87/355/50
f 87/356/51 62/357/2 44/358/2
f 145/337/52 83/204/4 82/359/4
f 145/338/53 76/113/9 79/324/9
f 26/160/1 107/282/1 104/159/1
f 110/169/20 112/171/20 113/360/20
f 117/291/2 141/229/2 142/230/2
f 139/214/7 100/301/7 9/212/7
f 78/361/9 79/120/9 67/119/9
f 37/307/9 38/362/9 85/330/54
f 38/362/9 75/112/9 24/257/55
f 34/48/7 74/248/7 80/255/7
s 1
f 149/363/1 150/364/1 151/365/1 152/366/1 153/367/1 154/368/1 155/369/1 156/370/1 157/371/1 158/372/1 159/373/1 160/374/1 161/375/1 162/376/1 163/377/1 164/378/1
