# Blender v2.82 (sub 7) OBJ File: ''
# www.blender.org
mtllib Large_base_Collider.mtl
o med_base_Cube.011_Stand_sep29_auv
v -2.329790 -0.145255 2.329789
v -2.329790 0.245255 2.329789
v -2.329789 -0.145255 -2.329790
v -2.329789 0.245255 -2.329790
v 2.329789 0.245255 2.329790
v 2.329789 -0.145255 2.329790
v 2.329790 -0.145255 -2.329789
v 2.329790 0.245255 -2.329789
vt 0.000000 0.000000
vt 0.000000 0.000000
vt 0.000000 0.000000
vt 0.000000 0.000000
vt 0.000000 0.000000
vt 0.000000 0.000000
vt 0.000000 0.000000
vt 0.000000 0.000000
vn 1.0000 0.0000 0.0000
vn -0.0000 0.0000 1.0000
vn 0.0000 0.0000 -1.0000
vn -1.0000 0.0000 -0.0000
vn 0.0000 -1.0000 -0.0000
vn -0.0000 1.0000 0.0000
usemtl Stand_sep29_auv
s off
f 2/1/1 1/2/1 3/3/1 4/4/1
f 4/4/2 3/3/2 7/5/2 8/6/2
f 1/2/3 2/1/3 5/7/3 6/8/3
f 8/6/4 7/5/4 6/8/4 5/7/4
f 2/1/5 4/4/5 8/6/5 5/7/5
f 7/5/6 3/3/6 1/2/6 6/8/6
o nub1_med_base_Cube.011_Stand_sep29_auv.001
v 0.760087 -0.145255 -2.329789
v 0.561715 -0.145255 -2.329789
v 0.679236 -0.145255 -2.479789
v 0.743001 -0.004745 -2.435753
v 0.743001 -0.145255 -2.435753
v 0.760087 -0.004745 -2.329789
v 0.578801 -0.145255 -2.435753
v 0.642566 -0.145255 -2.479789
v 0.578801 -0.004745 -2.435753
v 0.642566 -0.004745 -2.479789
v 0.679236 -0.004745 -2.479789
v 0.561715 -0.004745 -2.329789
vt 0.153600 0.041600
vt 0.153600 0.041300
vt 0.154300 0.041600
vt 0.156500 0.078200
vt 0.156300 0.086900
vt 0.156300 0.078200
vt 0.154300 0.041300
vt 0.154000 0.041000
vt 0.158600 0.086900
vt 0.158600 0.078200
vt 0.158900 0.078200
vt 0.156600 0.078200
vt 0.156600 0.086900
vt 0.155100 0.086900
vt 0.155100 0.087600
vt 0.154800 0.087600
vt 0.154800 0.086900
vt 0.153900 0.041000
vt 0.156800 0.078200
vt 0.156800 0.086900
vt 0.156500 0.086900
vt 0.155400 0.087200
vt 0.155400 0.087300
vt 0.158900 0.086900
vt 0.159300 0.078200
vt 0.159600 0.078200
vt 0.159600 0.086900
vt 0.159300 0.086900
vn 0.0000 -1.0000 -0.0000
vn 0.5682 0.0000 -0.8229
vn 0.9872 0.0000 -0.1592
vn 0.0000 0.0000 -1.0000
vn 0.0000 1.0000 0.0000
vn -0.5683 0.0000 -0.8229
vn 0.5683 0.0000 -0.8228
vn 0.9725 0.0000 -0.2328
vn -0.4238 0.7074 -0.5657
vn -0.9872 0.0000 -0.1592
vn -0.5682 0.0000 -0.8229
vn 0.6327 -0.7337 -0.2477
usemtl Stand_sep29_auv.001
s off
f 10/9/7 15/10/7 9/11/7
f 11/12/8 12/13/8 13/14/8
f 13/15/7 15/10/7 11/16/7
f 13/17/9 12/18/9 14/19/9
f 16/20/10 18/21/10 11/12/10
f 12/22/11 17/23/11 20/24/11
f 9/11/7 15/10/7 13/15/7
f 14/25/11 12/22/11 20/24/11
f 15/10/7 16/26/7 11/16/7
f 15/27/12 17/28/12 18/21/12
f 19/29/13 12/13/13 11/12/13
f 19/30/11 18/31/11 12/22/11
f 9/32/14 13/17/9 14/19/15
f 20/33/16 17/34/16 15/35/16
f 11/12/10 18/21/10 19/29/10
f 15/27/17 18/21/17 16/20/17
f 18/31/11 17/23/11 12/22/11
f 20/33/18 15/35/16 10/36/16
o nub2_med_base_Cube.011_Stand_sep29_auv.002
v -0.559913 -0.145255 -2.329789
v -0.758285 -0.145255 -2.329789
v -0.640764 -0.145255 -2.479789
v -0.576999 -0.004745 -2.435753
v -0.576999 -0.145255 -2.435753
v -0.559913 -0.004745 -2.329789
v -0.741199 -0.145255 -2.435753
v -0.677434 -0.145255 -2.479789
v -0.741199 -0.004745 -2.435753
v -0.677434 -0.004745 -2.479789
v -0.640764 -0.004745 -2.479789
v -0.758285 -0.004745 -2.329789
vt 0.153600 0.041600
vt 0.153600 0.041300
vt 0.154300 0.041600
vt 0.156500 0.078200
vt 0.156300 0.086900
vt 0.156300 0.078200
vt 0.154300 0.041300
vt 0.154000 0.041000
vt 0.158600 0.086900
vt 0.158600 0.078200
vt 0.158900 0.078200
vt 0.156600 0.078200
vt 0.156600 0.086900
vt 0.155100 0.086900
vt 0.155100 0.087600
vt 0.154800 0.087600
vt 0.154800 0.086900
vt 0.153900 0.041000
vt 0.156800 0.078200
vt 0.156800 0.086900
vt 0.156500 0.086900
vt 0.155400 0.087200
vt 0.155400 0.087300
vt 0.158900 0.086900
vt 0.159300 0.078200
vt 0.159600 0.078200
vt 0.159600 0.086900
vt 0.159300 0.086900
vn 0.0000 -1.0000 -0.0000
vn 0.5682 0.0000 -0.8229
vn 0.9872 0.0000 -0.1592
vn 0.0000 0.0000 -1.0000
vn 0.0000 1.0000 0.0000
vn -0.5683 0.0000 -0.8229
vn 0.5683 0.0000 -0.8228
vn 0.9725 0.0000 -0.2328
vn -0.4238 0.7074 -0.5657
vn -0.9872 0.0000 -0.1592
vn -0.5682 0.0000 -0.8229
vn 0.6327 -0.7337 -0.2477
usemtl Stand_sep29_auv.002
s off
f 22/37/19 27/38/19 21/39/19
f 23/40/20 24/41/20 25/42/20
f 25/43/19 27/38/19 23/44/19
f 25/45/21 24/46/21 26/47/21
f 28/48/22 30/49/22 23/40/22
f 24/50/23 29/51/23 32/52/23
f 21/39/19 27/38/19 25/43/19
f 26/53/23 24/50/23 32/52/23
f 27/38/19 28/54/19 23/44/19
f 27/55/24 29/56/24 30/49/24
f 31/57/25 24/41/25 23/40/25
f 31/58/23 30/59/23 24/50/23
f 21/60/26 25/45/21 26/47/27
f 32/61/28 29/62/28 27/63/28
f 23/40/22 30/49/22 31/57/22
f 27/55/29 30/49/29 28/48/29
f 30/59/23 29/51/23 24/50/23
f 32/61/30 27/63/28 22/64/28
o nub3_med_base_Cube.011_Stand_sep29_auv.004
v -0.760087 -0.145255 2.329789
v -0.561715 -0.145255 2.329789
v -0.679236 -0.145255 2.479789
v -0.743001 -0.004745 2.435753
v -0.743001 -0.145255 2.435753
v -0.760087 -0.004745 2.329789
v -0.578800 -0.145255 2.435753
v -0.642566 -0.145255 2.479789
v -0.578800 -0.004745 2.435753
v -0.642566 -0.004745 2.479789
v -0.679236 -0.004745 2.479789
v -0.561715 -0.004745 2.329789
vt 0.153600 0.041600
vt 0.153600 0.041300
vt 0.154300 0.041600
vt 0.156500 0.078200
vt 0.156300 0.086900
vt 0.156300 0.078200
vt 0.154300 0.041300
vt 0.154000 0.041000
vt 0.158600 0.086900
vt 0.158600 0.078200
vt 0.158900 0.078200
vt 0.156600 0.078200
vt 0.156600 0.086900
vt 0.155100 0.086900
vt 0.155100 0.087600
vt 0.154800 0.087600
vt 0.154800 0.086900
vt 0.153900 0.041000
vt 0.156800 0.078200
vt 0.156800 0.086900
vt 0.156500 0.086900
vt 0.155400 0.087200
vt 0.155400 0.087300
vt 0.158900 0.086900
vt 0.159300 0.078200
vt 0.159600 0.078200
vt 0.159600 0.086900
vt 0.159300 0.086900
vn 0.0000 -1.0000 0.0000
vn -0.5682 0.0000 0.8229
vn -0.9872 0.0000 0.1592
vn 0.0000 0.0000 1.0000
vn 0.0000 1.0000 -0.0000
vn 0.5683 0.0000 0.8229
vn -0.5683 0.0000 0.8228
vn -0.9725 0.0000 0.2328
vn 0.4238 0.7074 0.5657
vn 0.9872 0.0000 0.1592
vn 0.5682 0.0000 0.8229
vn -0.6327 -0.7337 0.2477
usemtl Stand_sep29_auv.004
s off
f 34/65/31 39/66/31 33/67/31
f 35/68/32 36/69/32 37/70/32
f 37/71/31 39/66/31 35/72/31
f 37/73/33 36/74/33 38/75/33
f 40/76/34 42/77/34 35/68/34
f 36/78/35 41/79/35 44/80/35
f 33/67/31 39/66/31 37/71/31
f 38/81/35 36/78/35 44/80/35
f 39/66/31 40/82/31 35/72/31
f 39/83/36 41/84/36 42/77/36
f 43/85/37 36/69/37 35/68/37
f 43/86/35 42/87/35 36/78/35
f 33/88/38 37/73/33 38/75/39
f 44/89/40 41/90/40 39/91/40
f 35/68/34 42/77/34 43/85/34
f 39/83/41 42/77/41 40/76/41
f 42/87/35 41/79/35 36/78/35
f 44/89/42 39/91/40 34/92/40
o nub4_med_base_Cube.011_Stand_sep29_auv.003
v 0.559913 -0.145255 2.329789
v 0.758285 -0.145255 2.329789
v 0.640764 -0.145255 2.479789
v 0.576999 -0.004745 2.435753
v 0.576999 -0.145255 2.435753
v 0.559913 -0.004745 2.329789
v 0.741200 -0.145255 2.435753
v 0.677434 -0.145255 2.479789
v 0.741200 -0.004745 2.435753
v 0.677434 -0.004745 2.479789
v 0.640764 -0.004745 2.479789
v 0.758285 -0.004745 2.329789
vt 0.153600 0.041600
vt 0.153600 0.041300
vt 0.154300 0.041600
vt 0.156500 0.078200
vt 0.156300 0.086900
vt 0.156300 0.078200
vt 0.154300 0.041300
vt 0.154000 0.041000
vt 0.158600 0.086900
vt 0.158600 0.078200
vt 0.158900 0.078200
vt 0.156600 0.078200
vt 0.156600 0.086900
vt 0.155100 0.086900
vt 0.155100 0.087600
vt 0.154800 0.087600
vt 0.154800 0.086900
vt 0.153900 0.041000
vt 0.156800 0.078200
vt 0.156800 0.086900
vt 0.156500 0.086900
vt 0.155400 0.087200
vt 0.155400 0.087300
vt 0.158900 0.086900
vt 0.159300 0.078200
vt 0.159600 0.078200
vt 0.159600 0.086900
vt 0.159300 0.086900
vn 0.0000 -1.0000 0.0000
vn -0.5682 0.0000 0.8229
vn -0.9872 0.0000 0.1592
vn 0.0000 0.0000 1.0000
vn 0.0000 1.0000 -0.0000
vn 0.5683 0.0000 0.8229
vn -0.5683 0.0000 0.8228
vn -0.9725 0.0000 0.2328
vn 0.4238 0.7074 0.5657
vn 0.9872 0.0000 0.1592
vn 0.5682 0.0000 0.8229
vn -0.6327 -0.7337 0.2477
usemtl Stand_sep29_auv.003
s off
f 46/93/43 51/94/43 45/95/43
f 47/96/44 48/97/44 49/98/44
f 49/99/43 51/94/43 47/100/43
f 49/101/45 48/102/45 50/103/45
f 52/104/46 54/105/46 47/96/46
f 48/106/47 53/107/47 56/108/47
f 45/95/43 51/94/43 49/99/43
f 50/109/47 48/106/47 56/108/47
f 51/94/43 52/110/43 47/100/43
f 51/111/48 53/112/48 54/105/48
f 55/113/49 48/97/49 47/96/49
f 55/114/47 54/115/47 48/106/47
f 45/116/50 49/101/45 50/103/51
f 56/117/52 53/118/52 51/119/52
f 47/96/46 54/105/46 55/113/46
f 51/111/53 54/105/53 52/104/53
f 54/115/47 53/107/47 48/106/47
f 56/117/54 51/119/52 46/120/52
