# Blender v2.82 (sub 7) OBJ File: ''
# www.blender.org
o Cube
v 1.747300 0.255000 -1.747300
v 1.747300 -0.145000 -1.747300
v 1.747300 0.255000 1.747300
v 1.747300 -0.145000 1.747300
v -1.747300 0.255000 -1.747300
v -1.747300 -0.145000 -1.747300
v -1.747300 0.255000 1.747300
v -1.747300 -0.145000 1.747300
vn 0.0000 1.0000 0.0000
vn 0.0000 0.0000 1.0000
vn -1.0000 0.0000 0.0000
vn 0.0000 -1.0000 0.0000
vn 1.0000 0.0000 0.0000
vn 0.0000 0.0000 -1.0000
s off
f 5//1 3//1 1//1
f 3//2 8//2 4//2
f 7//3 6//3 8//3
f 2//4 8//4 6//4
f 1//5 4//5 2//5
f 5//6 2//6 6//6
f 5//1 7//1 3//1
f 3//2 7//2 8//2
f 7//3 5//3 6//3
f 2//4 4//4 8//4
f 1//5 3//5 4//5
f 5//6 1//6 2//6
o Cylinder.162_Cylinder.000
v 0.679236 -0.145255 -1.891937
v 0.744565 -0.004745 -1.848804
v 0.744565 -0.145255 -1.848804
v 0.760087 -0.004745 -1.745664
v 0.577237 -0.145255 -1.848804
v 0.642566 -0.145255 -1.891937
v 0.577237 -0.004745 -1.848804
v 0.642566 -0.004745 -1.891937
v 0.679236 -0.004745 -1.891937
v 0.561715 -0.004745 -1.745664
v 0.561715 -0.145255 -1.745664
v 0.760087 -0.145255 -1.745664
vn 0.0000 0.0000 -1.0000
vn -0.5510 0.0000 -0.8345
vn -0.9889 0.0000 -0.1488
vn 0.9889 0.0000 -0.1488
vn 0.5510 0.0000 -0.8345
vn 0.0000 -1.0000 -0.0000
vn 0.0000 0.0000 1.0000
vn 0.0000 1.0000 0.0000
s 1
f 17//7 14//7 16//7
f 14//8 15//8 16//8
f 18//9 13//9 19//9
f 20//10 10//10 12//10
f 10//11 9//11 17//11
f 14//12 9//12 11//12
f 20//13 18//13 19//13
f 17//14 16//14 15//14
f 17//7 9//7 14//7
f 14//8 13//8 15//8
f 18//9 15//9 13//9
f 20//10 11//10 10//10
f 10//11 11//11 9//11
f 11//12 20//12 19//12
f 19//12 13//12 11//12
f 13//12 14//12 11//12
f 20//13 12//13 18//13
f 15//14 18//14 12//14
f 12//14 10//14 15//14
f 10//14 17//14 15//14
o Cylinder.163_Cylinder.000
v 0.744564 -0.004745 1.846554
v 0.744564 -0.145255 1.846554
v 0.679236 -0.145255 1.889687
v 0.642566 -0.004745 1.889687
v 0.642566 -0.145255 1.889687
v 0.679236 -0.004745 1.889687
v 0.577237 -0.145255 1.846554
v 0.577237 -0.004745 1.846554
v 0.760087 -0.145255 1.743413
v 0.561715 -0.004745 1.743413
v 0.760087 -0.004745 1.743413
v 0.561715 -0.145255 1.743413
vn 0.0000 0.0000 1.0000
vn 0.5510 0.0000 0.8345
vn 0.0000 -1.0000 0.0000
vn 0.0000 1.0000 0.0000
vn -0.9889 0.0000 0.1488
vn -0.5510 0.0000 0.8345
vn 0.0000 0.0000 -1.0000
vn 0.9889 0.0000 0.1488
s 1
f 24//15 23//15 26//15
f 23//16 21//16 26//16
f 23//17 25//17 27//17
f 24//18 26//18 21//18
f 32//19 28//19 30//19
f 27//20 24//20 28//20
f 29//21 30//21 31//21
f 31//22 22//22 29//22
f 24//15 25//15 23//15
f 23//16 22//16 21//16
f 27//17 32//17 29//17
f 29//17 22//17 27//17
f 22//17 23//17 27//17
f 21//18 31//18 30//18
f 30//18 28//18 21//18
f 28//18 24//18 21//18
f 32//19 27//19 28//19
f 27//20 25//20 24//20
f 29//21 32//21 30//21
f 31//22 21//22 22//22
o Cylinder.162_Cylinder.001
v -0.640764 -0.145255 -1.891937
v -0.575435 -0.004745 -1.848804
v -0.575435 -0.145255 -1.848804
v -0.559913 -0.004745 -1.745664
v -0.742763 -0.145255 -1.848804
v -0.677434 -0.145255 -1.891937
v -0.742763 -0.004745 -1.848804
v -0.677434 -0.004745 -1.891937
v -0.640764 -0.004745 -1.891937
v -0.758285 -0.004745 -1.745664
v -2.080087 -0.145255 -1.745664
v -0.758285 -0.145255 -1.745664
v -0.559913 -0.145255 -1.745664
v -1.579242 2.038962 -0.738734
vn 0.0000 0.0000 -1.0000
vn -0.5510 0.0000 -0.8345
vn -0.9889 0.0000 -0.1488
vn 0.9889 0.0000 -0.1488
vn 0.5510 0.0000 -0.8345
vn 0.0000 -1.0000 -0.0000
vn 0.0000 0.0000 1.0000
vn 0.0000 1.0000 0.0000
s 1
f 41//23 38//23 40//23
f 38//24 39//24 40//24
f 42//25 37//25 44//25
f 45//26 34//26 36//26
f 34//27 33//27 41//27
f 38//28 33//28 35//28
f 45//29 42//29 44//29
f 41//30 40//30 39//30
f 41//23 33//23 38//23
f 38//24 37//24 39//24
f 42//25 39//25 37//25
f 45//26 35//26 34//26
f 34//27 35//27 33//27
f 35//28 45//28 44//28
f 44//28 37//28 35//28
f 37//28 38//28 35//28
f 45//29 36//29 42//29
f 39//30 42//30 36//30
f 36//30 34//30 39//30
f 34//30 41//30 39//30
o Cylinder.163_Cylinder.001
v -0.679236 -0.145255 1.889687
v -0.744565 -0.004745 1.846554
v -0.744565 -0.145255 1.846554
v -0.760087 -0.004745 1.743413
v -0.577237 -0.145255 1.846554
v -0.642566 -0.145255 1.889687
v -0.577237 -0.004745 1.846554
v -0.642566 -0.004745 1.889687
v -0.679236 -0.004745 1.889687
v -0.561715 -0.004745 1.743413
v 0.760087 -0.145255 1.743413
v -0.561715 -0.145255 1.743413
v -0.760087 -0.145255 1.743413
vn 0.5510 0.0000 0.8345
vn 0.9889 0.0000 0.1488
vn -0.9889 0.0000 0.1488
vn 0.0000 -1.0000 -0.0000
vn -0.5510 0.0000 0.8345
vn 0.0000 0.0000 1.0000
vn 0.0000 0.0000 -1.0000
vn 0.0000 1.0000 0.0000
s 1
f 52//31 53//31 54//31
f 56//32 51//32 58//32
f 59//33 48//33 50//33
f 52//34 47//34 49//34
f 48//35 47//35 55//35
f 55//36 52//36 54//36
f 59//37 56//37 58//37
f 48//38 55//38 54//38
f 52//31 51//31 53//31
f 56//32 53//32 51//32
f 59//33 49//33 48//33
f 49//34 59//34 58//34
f 58//34 51//34 49//34
f 51//34 52//34 49//34
f 48//35 49//35 47//35
f 55//36 47//36 52//36
f 59//37 50//37 56//37
f 54//38 53//38 48//38
f 53//38 56//38 48//38
f 56//38 50//38 48//38
