# Blender v2.78 (sub 0) OBJ File: 'larger3p.blend'
# www.blender.org
mtllib smallCollider.mtl
o base_side1_small_base_Cube.002_small_base_Cube.002_auv.009
v 0.961315 -0.145255 -1.155937
v 0.961315 0.245255 1.155937
v 0.961315 0.245255 -1.155937
v 0.961315 -0.145255 1.155937
v 1.155937 0.245255 1.155937
v 1.155937 -0.145255 1.155937
v 1.155937 0.245255 -1.155937
v 1.155937 -0.145255 -1.155937
vt 0.5661 0.0715
vt 0.5513 0.1500
vt 0.5513 0.1244
vt 0.5186 0.1043
vt 0.5164 0.0698
vt 0.5186 0.0698
vt 0.5683 0.0971
vt 0.5661 0.0971
vt 0.5661 0.1244
vt 0.5639 0.0988
vt 0.5661 0.0988
vt 0.5143 0.0698
vt 0.5164 0.1043
vt 0.5143 0.1043
vt 0.4905 0.1387
vt 0.5164 0.1043
vt 0.5164 0.1387
vt 0.5164 0.1043
vt 0.5683 0.0715
vt 0.5639 0.1244
vt 0.5164 0.0698
vt 0.4905 0.1043
vn -1.0000 0.0000 0.0000
vn 0.0000 0.0000 1.0000
vn 0.0000 -1.0000 -0.0000
vn 0.0000 1.0000 0.0000
vn 0.0000 0.0000 -1.0000
vn 1.0000 0.0000 0.0000
usemtl small_base_Cube.002_auv.001
s 1
f 1/1/1 2/2/1 3/3/1
f 4/4/2 5/5/2 2/6/2
f 1/1/3 6/7/3 4/8/3
f 2/9/4 7/10/4 3/11/4
f 3/12/5 8/13/5 1/14/5
f 8/15/6 5/16/6 6/17/6
f 1/1/1 4/4/1 2/2/1
f 4/4/2 6/18/2 5/5/2
f 1/1/3 8/19/3 6/7/3
f 2/9/4 5/20/4 7/10/4
f 3/12/5 7/21/5 8/13/5
f 8/15/6 7/22/6 5/16/6
o base_side2_small_base_Cube.002_small_base_Cube.002_auv.008
v -1.155937 -0.145255 -1.155937
v -1.155937 0.245255 1.155937
v -1.155937 0.245255 -1.155937
v -0.961315 0.245255 1.155937
v -0.961315 -0.145255 -1.155937
v -0.961315 0.245255 -1.155937
v -1.155937 -0.145255 1.155937
v -0.961315 -0.145255 1.155937
vt 0.5423 0.1387
vt 0.5164 0.1043
vt 0.5423 0.1043
vt 0.5513 0.1500
vt 0.5445 0.0715
vt 0.5513 0.1244
vt 0.5661 0.0988
vt 0.5683 0.1244
vt 0.5661 0.1244
vt 0.5423 0.0971
vt 0.5445 0.0971
vt 0.5402 0.0698
vt 0.5423 0.1043
vt 0.5402 0.1043
vt 0.4927 0.0698
vt 0.4905 0.1043
vt 0.4905 0.0698
vt 0.5164 0.1387
vt 0.5683 0.0988
vt 0.5423 0.0715
vt 0.5423 0.0698
vt 0.4927 0.1043
vn -1.0000 0.0000 0.0000
vn 1.0000 0.0000 0.0000
vn 0.0000 1.0000 0.0000
vn 0.0000 -1.0000 -0.0000
vn 0.0000 0.0000 1.0000
vn 0.0000 0.0000 -1.0000
usemtl small_base_Cube.002_auv.001
s 1
f 9/23/7 10/24/7 11/25/7
f 12/26/8 13/27/8 14/28/8
f 14/29/9 10/30/9 12/31/9
f 15/32/10 13/27/10 16/33/10
f 12/34/11 15/35/11 16/36/11
f 14/37/12 9/38/12 11/39/12
f 9/23/7 15/40/7 10/24/7
f 12/26/8 16/33/8 13/27/8
f 14/29/9 11/41/9 10/30/9
f 15/32/10 9/42/10 13/27/10
f 12/34/11 10/43/11 15/35/11
f 14/37/12 13/44/12 9/38/12
o base_plate_small_base_Cube.002_small_base_Cube.002_auv
v 1.155937 -0.145255 -1.155937
v 1.155937 0.145255 1.155937
v 1.155937 -0.145255 1.155937
v -1.155937 -0.145255 -1.155937
v 1.155937 -0.145255 1.155937
v -1.155937 -0.145255 1.155937
v -1.155937 0.145255 1.155937
v -1.155937 0.145255 -1.155937
v -1.155937 -0.145255 1.155937
v 1.155937 0.145255 -1.155937
vt 0.4905 0.1387
vt 0.5164 0.1131
vt 0.5164 0.1387
vt 0.5423 0.1387
vt 0.0000 0.0000
vt 0.0000 0.0000
vt 0.5423 0.0787
vt 0.5423 0.1131
vt 0.5164 0.1387
vt 0.5164 0.1131
vt 0.4905 0.1131
vn 1.0000 0.0000 0.0000
vn 0.0000 -1.0000 -0.0000
vn 0.0000 0.0000 1.0000
vn -1.0000 0.0000 0.0000
vn 0.0000 0.0000 -1.0000
vn 0.0000 1.0000 0.0000
vn 0.0000 0.0000 0.0000
usemtl small_base_Cube.002_auv
s 1
f 17/45/13 18/46/13 19/47/13
f 20/48/14 17/45/14 21/49/14
f 22/50/15 18/46/15 23/51/15
f 24/52/16 25/53/16 23/54/16
f 17/45/17 24/52/17 26/55/17
f 24/52/18 18/46/18 26/55/18
f 17/45/13 26/55/13 18/46/13
f 19/47/15 22/50/15 21/49/15
f 21/49/14 25/53/14 20/48/14
f 17/45/19 19/47/19 21/49/19
f 25/53/15 21/49/15 22/50/15
f 22/50/15 19/47/15 18/46/15
f 23/51/15 25/53/15 22/50/15
f 24/52/16 20/48/16 25/53/16
f 17/45/17 20/48/17 24/52/17
f 24/52/18 23/51/18 18/46/18
o base_nub1_small_base_Cube.002_small_base_Cube.002_auv.002
v -0.760088 -0.145255 -1.155937
v -0.561715 -0.145255 -1.225086
v -0.561715 -0.145255 -1.155937
v -0.760088 -0.004745 -1.225086
v -0.760088 -0.145255 -1.225086
v -0.561715 -0.004745 -1.155937
v -0.760088 -0.004745 -1.155937
v -0.642565 -0.145255 -1.305937
v -0.572547 -0.145255 -1.265512
v -0.602140 -0.004745 -1.295105
v -0.602140 -0.145255 -1.295105
v -0.561715 -0.004745 -1.225086
v -0.572547 -0.004745 -1.265512
v -0.749256 -0.145255 -1.265512
v -0.679237 -0.145255 -1.305937
v -0.642565 -0.004745 -1.305937
v -0.749256 -0.004745 -1.265512
v -0.719662 -0.004745 -1.295105
v -0.719662 -0.145255 -1.295105
v -0.679237 -0.004745 -1.305937
vt 0.5468 0.0715
vt 0.5490 0.0707
vt 0.5490 0.0715
vt 0.5683 0.1112
vt 0.5690 0.0988
vt 0.5690 0.1112
vt 0.4922 0.1387
vt 0.4930 0.1409
vt 0.4922 0.1409
vt 0.5481 0.0698
vt 0.5489 0.0703
vt 0.5659 0.1244
vt 0.5655 0.1368
vt 0.5655 0.1244
vt 0.5687 0.1236
vt 0.5687 0.1112
vt 0.5695 0.1112
vt 0.5651 0.1368
vt 0.5651 0.1244
vt 0.5468 0.0707
vt 0.5469 0.0703
vt 0.5477 0.0698
vt 0.5663 0.1244
vt 0.5659 0.1368
vt 0.5695 0.1112
vt 0.5695 0.0988
vt 0.5698 0.0988
vt 0.5668 0.1244
vt 0.5663 0.1368
vt 0.4930 0.1387
vt 0.4934 0.1388
vt 0.4939 0.1396
vt 0.4939 0.1400
vt 0.5695 0.1236
vt 0.5486 0.0700
vt 0.5683 0.1236
vt 0.5472 0.0700
vt 0.5668 0.1368
vt 0.4938 0.1405
vt 0.4934 0.1408
vt 0.5683 0.0988
vt 0.5683 0.1112
vt 0.5698 0.1112
vt 0.4938 0.1392
vn 0.0000 -1.0000 0.0000
vn -1.0000 0.0000 0.0000
vn 0.0000 1.0000 0.0000
vn 0.2588 0.0000 -0.9659
vn 1.0000 0.0000 0.0000
vn 0.7071 0.0000 -0.7071
vn 0.0000 0.0000 -1.0000
vn -0.7071 0.0000 -0.7071
vn -0.2588 0.0000 -0.9659
vn 0.9659 0.0000 -0.2588
vn -0.9659 0.0000 -0.2588
vn 0.0000 0.0000 1.0000
usemtl small_base_Cube.002_auv
s 1
f 27/56/20 28/57/20 29/58/20
f 27/59/21 30/60/21 31/61/21
f 32/62/22 30/63/22 33/64/22
f 34/65/20 35/66/20 28/57/20
f 34/67/23 36/68/23 37/69/23
f 28/70/24 38/71/24 32/72/24
f 37/69/25 39/73/25 35/74/25
f 31/75/20 40/76/20 41/77/20
f 41/78/26 42/79/26 34/67/26
f 40/80/27 43/81/27 44/82/27
f 45/83/28 46/84/28 41/78/28
f 38/85/22 39/86/22 42/87/22
f 46/88/22 30/63/22 42/87/22
f 29/89/24 28/70/24 32/72/24
f 37/90/20 35/66/20 34/65/20
f 37/69/25 36/68/25 39/73/25
f 35/91/29 38/71/29 28/70/29
f 31/75/20 41/77/20 28/57/20
f 31/61/30 43/81/30 40/80/30
f 41/78/26 46/84/26 42/79/26
f 40/76/20 45/92/20 41/77/20
f 45/83/28 44/93/28 46/84/28
f 38/85/22 30/63/22 32/62/22
f 42/79/23 36/68/23 34/67/23
f 44/94/22 43/95/22 30/63/22
f 27/56/20 31/75/20 28/57/20
f 33/96/21 30/60/21 27/59/21
f 28/57/20 41/77/20 34/65/20
f 35/91/29 39/97/29 38/71/29
f 40/80/27 44/82/27 45/98/27
f 42/87/22 30/63/22 38/85/22
f 39/86/22 36/99/22 42/87/22
f 46/88/22 44/94/22 30/63/22
f 30/60/30 43/81/30 31/61/30
f 27/56/31 29/89/31 32/62/31
f 27/56/31 32/62/31 33/64/31
o base_nub2_small_base_Cube.002_small_base_Cube.002_auv.006
v 0.760088 -0.145255 -1.155937
v 0.760088 -0.004745 -1.225086
v 0.760088 -0.004745 -1.155937
v 0.642566 -0.145255 -1.305937
v 0.642566 -0.004745 -1.305937
v 0.679237 -0.145255 -1.305937
v 0.572547 -0.145255 -1.265512
v 0.602140 -0.145255 -1.295105
v 0.572547 -0.004745 -1.265512
v 0.602140 -0.004745 -1.295105
v 0.760088 -0.145255 -1.225086
v 0.561715 -0.145255 -1.225086
v 0.719663 -0.145255 -1.295105
v 0.749256 -0.145255 -1.265512
v 0.719663 -0.004745 -1.295105
v 0.749256 -0.004745 -1.265512
v 0.561715 -0.004745 -1.225086
v 0.679237 -0.004745 -1.305937
v 0.561715 -0.145255 -1.155937
v 0.561715 -0.004745 -1.155937
vt 0.5698 0.0822
vt 0.5690 0.0698
vt 0.5698 0.0698
vt 0.5610 0.1368
vt 0.5610 0.1244
vt 0.5614 0.1368
vt 0.5617 0.0703
vt 0.5621 0.0700
vt 0.5625 0.0698
vt 0.5602 0.1368
vt 0.5602 0.1244
vt 0.5605 0.1244
vt 0.5605 0.1368
vt 0.5629 0.0698
vt 0.5638 0.0707
vt 0.5616 0.0707
vt 0.5634 0.0700
vt 0.5637 0.0703
vt 0.5683 0.0822
vt 0.5683 0.0698
vt 0.5686 0.0698
vt 0.5686 0.0822
vt 0.5690 0.0822
vt 0.5703 0.1112
vt 0.5707 0.1112
vt 0.5703 0.1236
vt 0.4948 0.1387
vt 0.4948 0.1409
vt 0.4939 0.1396
vt 0.5614 0.1244
vt 0.5618 0.1244
vt 0.5695 0.1236
vt 0.4956 0.1387
vt 0.5707 0.1236
vt 0.5618 0.1368
vt 0.4944 0.1388
vt 0.4939 0.1400
vt 0.4944 0.1408
vt 0.4940 0.1405
vt 0.5616 0.0715
vt 0.5638 0.0715
vt 0.4956 0.1409
vt 0.4940 0.1392
vt 0.5695 0.1112
vn 1.0000 0.0000 0.0000
vn 0.0000 0.0000 -1.0000
vn -0.0000 -1.0000 -0.0000
vn -0.7071 0.0000 -0.7071
vn -0.2588 0.0000 -0.9659
vn 0.7071 0.0000 -0.7071
vn 0.9659 0.0000 -0.2588
vn -0.9659 0.0000 -0.2588
vn -0.0000 1.0000 0.0000
vn 0.2588 0.0000 -0.9659
vn -1.0000 0.0000 0.0000
vn 0.0000 0.0000 1.0000
usemtl small_base_Cube.002_auv
s 1
f 47/100/32 48/101/32 49/102/32
f 50/103/33 51/104/33 52/105/33
f 53/106/34 54/107/34 50/108/34
f 53/109/35 55/110/35 56/111/35
f 54/112/36 56/111/36 51/104/36
f 52/113/34 57/114/34 58/115/34
f 59/116/34 60/117/34 52/113/34
f 59/118/37 61/119/37 62/120/37
f 60/121/38 48/101/38 57/122/38
f 63/123/39 55/124/39 58/125/39
f 63/126/40 48/127/40 51/128/40
f 64/129/41 61/130/41 52/105/41
f 65/131/42 63/123/42 58/125/42
f 66/132/40 48/127/40 63/126/40
f 58/125/39 55/124/39 53/133/39
f 50/108/34 52/113/34 58/115/34
f 53/109/35 56/111/35 54/112/35
f 54/112/36 51/104/36 50/103/36
f 52/113/34 60/117/34 57/114/34
f 52/105/41 61/130/41 59/134/41
f 57/122/32 48/101/32 47/100/32
f 59/118/37 62/120/37 60/121/37
f 51/128/40 55/135/40 63/126/40
f 48/127/40 64/136/40 51/128/40
f 62/137/40 61/138/40 48/127/40
f 65/139/34 58/115/34 47/140/34
f 49/141/40 48/127/40 66/132/40
f 58/115/34 53/106/34 50/108/34
f 60/121/38 62/120/38 48/101/38
f 51/104/33 64/129/33 52/105/33
f 56/142/40 55/135/40 51/128/40
f 48/127/40 61/138/40 64/136/40
f 66/143/42 63/123/42 65/131/42
f 58/115/34 57/114/34 47/140/34
f 66/132/43 65/131/43 47/140/43
f 66/132/43 47/140/43 49/141/43
o base_nub3_small_base_Cube.002_small_base_Cube.002_auv.003
v 0.760088 -0.145255 1.155937
v 0.760088 -0.145255 1.225086
v 0.561715 -0.145255 1.225086
v 0.561715 -0.004745 1.155937
v 0.760088 -0.004745 1.225086
v 0.760088 -0.004745 1.155937
v 0.642565 -0.145255 1.305937
v 0.572547 -0.145255 1.265512
v 0.602140 -0.004745 1.295105
v 0.602140 -0.145255 1.295105
v 0.561715 -0.004745 1.225086
v 0.561715 -0.145255 1.155937
v 0.572547 -0.004745 1.265512
v 0.749256 -0.004745 1.265512
v 0.749256 -0.145255 1.265512
v 0.679237 -0.145255 1.305937
v 0.642565 -0.004745 1.305937
v 0.719662 -0.145255 1.295105
v 0.719662 -0.004745 1.295105
v 0.679237 -0.004745 1.305937
vt 0.5638 0.0971
vt 0.5638 0.0979
vt 0.5616 0.0979
vt 0.4956 0.1387
vt 0.4964 0.1409
vt 0.4956 0.1409
vt 0.5625 0.0988
vt 0.5617 0.0983
vt 0.5626 0.1244
vt 0.5622 0.1368
vt 0.5622 0.1244
vt 0.5606 0.1492
vt 0.5606 0.1368
vt 0.5614 0.1492
vt 0.5602 0.1492
vt 0.5602 0.1368
vt 0.5676 0.1368
vt 0.5680 0.1244
vt 0.5680 0.1368
vt 0.5630 0.1244
vt 0.5626 0.1368
vt 0.5637 0.0983
vt 0.5634 0.0987
vt 0.5629 0.0988
vt 0.5635 0.1244
vt 0.5635 0.1368
vt 0.5630 0.1368
vt 0.4968 0.1388
vt 0.4971 0.1392
vt 0.4973 0.1396
vt 0.4973 0.1400
vt 0.4971 0.1405
vt 0.4968 0.1408
vt 0.5616 0.0971
vt 0.5618 0.1368
vt 0.5618 0.1244
vt 0.5683 0.1244
vt 0.4964 0.1387
vt 0.5676 0.1244
vt 0.5614 0.1368
vt 0.5668 0.1368
vt 0.5621 0.0987
vt 0.5683 0.1368
vt 0.5668 0.1244
vn 0.0000 -1.0000 0.0000
vn 0.0000 1.0000 0.0000
vn -0.2588 0.0000 0.9659
vn -1.0000 0.0000 0.0000
vn -0.9659 0.0000 0.2588
vn 0.9659 0.0000 0.2588
vn 0.0000 0.0000 1.0000
vn 0.2588 0.0000 0.9659
vn -0.7071 0.0000 0.7071
vn 0.7071 0.0000 0.7071
vn 1.0000 0.0000 0.0000
vn 0.0000 0.0000 -1.0000
usemtl small_base_Cube.002_auv
s 1
f 67/144/44 68/145/44 69/146/44
f 70/147/45 71/148/45 72/149/45
f 73/150/44 74/151/44 69/146/44
f 73/152/46 75/153/46 76/154/46
f 69/155/47 77/156/47 78/157/47
f 74/158/48 79/159/48 77/156/48
f 68/160/49 80/161/49 81/162/49
f 82/163/50 83/164/50 73/152/50
f 81/165/44 84/166/44 82/167/44
f 84/168/51 85/169/51 86/170/51
f 79/171/45 75/172/45 83/173/45
f 86/174/45 71/148/45 83/173/45
f 85/175/45 80/176/45 71/148/45
f 67/144/44 69/146/44 78/177/44
f 76/154/52 79/178/52 74/179/52
f 74/158/48 77/156/48 69/155/48
f 68/145/44 82/167/44 69/146/44
f 82/163/50 86/170/50 83/164/50
f 81/162/53 80/161/53 85/180/53
f 77/181/45 79/171/45 83/173/45
f 77/181/45 71/148/45 70/147/45
f 83/164/46 75/153/46 73/152/46
f 86/174/45 85/175/45 71/148/45
f 71/182/49 80/161/49 68/160/49
f 78/157/47 77/156/47 70/183/47
f 67/184/54 71/182/54 68/160/54
f 69/146/44 82/167/44 73/150/44
f 76/185/44 74/151/44 73/150/44
f 76/154/52 75/153/52 79/178/52
f 68/145/44 81/165/44 82/167/44
f 81/162/53 85/180/53 84/186/53
f 84/168/51 86/170/51 82/163/51
f 83/173/45 71/148/45 77/181/45
f 72/187/54 71/182/54 67/184/54
f 67/144/55 78/157/55 70/147/55
f 67/144/55 70/147/55 72/149/55
o base_nub4_small_base_Cube.002_small_base_Cube.002_auv.001
v -0.760088 -0.004745 1.155937
v -0.760088 -0.004745 1.225086
v -0.561715 -0.004745 1.155937
v -0.561715 -0.145255 1.225086
v -0.572547 -0.145255 1.265512
v -0.642566 -0.145255 1.305937
v -0.760088 -0.145255 1.225086
v -0.760088 -0.145255 1.155937
v -0.642566 -0.004745 1.305937
v -0.679237 -0.145255 1.305937
v -0.602140 -0.004745 1.295105
v -0.602140 -0.145255 1.295105
v -0.749256 -0.145255 1.265512
v -0.719663 -0.145255 1.295105
v -0.719663 -0.004745 1.295105
v -0.749256 -0.004745 1.265512
v -0.561715 -0.004745 1.225086
v -0.572547 -0.004745 1.265512
v -0.679237 -0.004745 1.305937
v -0.561715 -0.145255 1.155937
vt 0.4922 0.1409
vt 0.4914 0.1409
vt 0.4922 0.1387
vt 0.5490 0.0979
vt 0.5489 0.0983
vt 0.5481 0.0988
vt 0.5468 0.0979
vt 0.5468 0.0971
vt 0.5643 0.1368
vt 0.5643 0.1244
vt 0.5647 0.1368
vt 0.5635 0.1368
vt 0.5638 0.1244
vt 0.5638 0.1368
vt 0.5477 0.0988
vt 0.5469 0.0983
vt 0.5683 0.0946
vt 0.5683 0.0822
vt 0.5686 0.0822
vt 0.5686 0.0946
vt 0.5690 0.0822
vt 0.5691 0.1244
vt 0.5696 0.1244
vt 0.5691 0.1368
vt 0.4907 0.1392
vt 0.4910 0.1388
vt 0.4905 0.1396
vt 0.4905 0.1400
vt 0.5647 0.1244
vt 0.5651 0.1244
vt 0.5683 0.1368
vt 0.5698 0.0946
vt 0.5698 0.0822
vt 0.4914 0.1387
vt 0.5696 0.1368
vt 0.5486 0.0987
vt 0.5651 0.1368
vt 0.5690 0.0946
vt 0.4907 0.1405
vt 0.5490 0.0971
vt 0.5683 0.1244
vt 0.5635 0.1244
vt 0.5472 0.0987
vt 0.4910 0.1408
vn 0.0000 1.0000 0.0000
vn -0.0000 -1.0000 -0.0000
vn 0.0000 0.0000 1.0000
vn 0.7071 0.0000 0.7071
vn -0.7071 0.0000 0.7071
vn -0.9659 0.0000 0.2588
vn 0.9659 0.0000 0.2588
vn -0.2588 0.0000 0.9659
vn 1.0000 0.0000 0.0000
vn -1.0000 0.0000 0.0000
vn 0.2588 0.0000 0.9659
vn 0.0000 0.0000 -1.0000
usemtl small_base_Cube.002_auv
s 1
f 87/188/56 88/189/56 89/190/56
f 90/191/57 91/192/57 92/193/57
f 90/191/57 93/194/57 94/195/57
f 92/196/58 95/197/58 96/198/58
f 91/199/59 97/200/59 98/201/59
f 96/202/57 99/203/57 93/194/57
f 100/204/60 101/205/60 102/206/60
f 99/207/61 102/206/61 88/208/61
f 103/209/62 104/210/62 90/211/62
f 97/212/56 104/213/56 95/214/56
f 88/189/56 105/215/56 95/214/56
f 105/216/63 101/217/63 96/198/63
f 106/218/64 103/209/64 90/211/64
f 94/219/65 88/208/65 87/220/65
f 89/190/56 88/189/56 103/221/56
f 90/211/62 104/210/62 91/222/62
f 92/193/57 96/202/57 90/191/57
f 91/192/57 98/223/57 92/193/57
f 98/201/66 97/200/66 95/197/66
f 96/198/63 101/217/63 100/224/63
f 100/204/60 102/206/60 99/207/60
f 99/207/61 88/208/61 93/225/61
f 95/214/56 104/213/56 103/221/56
f 95/197/58 105/216/58 96/198/58
f 88/189/56 101/226/56 105/215/56
f 106/227/57 90/191/57 94/195/57
f 89/228/64 103/209/64 106/218/64
f 91/199/59 104/229/59 97/200/59
f 98/201/66 95/197/66 92/196/66
f 96/202/57 93/194/57 90/191/57
f 93/225/65 88/208/65 94/219/65
f 100/230/57 99/203/57 96/202/57
f 103/221/56 88/189/56 95/214/56
f 102/231/56 101/226/56 88/189/56
f 106/227/67 94/219/67 87/188/67
f 106/227/67 87/188/67 89/190/67
