# Blender v2.82 (sub 7) OBJ File: ''
# www.blender.org
mtllib bomb_range_1.mtl
o Circle.003_Circle.008
v -0.000006 0.000004 -11.243502
v -2.438519 0.000004 -11.197027
v 2.438539 0.000004 -11.197022
v 3.375439 0.000004 -11.058044
v 4.294204 0.000004 -10.827904
v 5.185988 0.000004 -10.508814
v 6.042203 0.000004 -10.103853
v 6.854600 0.000004 -9.616919
v 7.615357 0.000002 -9.052698
v 8.317149 0.000002 -8.416629
v 8.953217 0.000002 -7.714834
v 9.517431 0.000002 -6.954075
v 10.004364 0.000002 -6.141676
v 10.409323 0.000002 -5.285460
v 10.728407 0.000002 -4.393674
v 10.958545 0.000002 -3.474908
v 11.097519 0.000000 -2.538008
v 11.143994 -0.000000 0.000003
v 11.097519 -0.000000 2.538013
v 10.958543 -0.000002 3.474913
v 10.728403 -0.000002 4.393680
v 10.409319 -0.000002 5.285464
v 10.004360 -0.000002 6.141680
v 9.517427 -0.000002 6.954079
v 8.953211 -0.000002 7.714838
v 8.317143 -0.000002 8.416632
v 7.615349 -0.000002 9.052702
v 6.854589 -0.000004 9.616920
v 6.042187 -0.000004 10.103857
v 5.185972 -0.000004 10.508818
v 4.294185 -0.000004 10.827904
v 3.375416 -0.000004 11.058044
v 2.438514 -0.000004 11.197021
v 0.000002 -0.000004 11.243498
v -2.438511 -0.000004 11.197023
v -3.375413 -0.000004 11.058048
v -4.294182 -0.000004 10.827909
v -5.185970 -0.000004 10.508823
v -6.042187 -0.000004 10.103863
v -6.854588 -0.000004 9.616930
v -7.615349 -0.000002 9.052711
v -8.317142 -0.000002 8.416642
v -8.953214 -0.000002 7.714848
v -9.517433 -0.000002 6.954087
v -10.004368 -0.000002 6.141687
v -10.409328 -0.000002 5.285470
v -10.728415 -0.000002 4.393683
v -10.958554 -0.000002 3.474915
v -11.097530 -0.000000 2.538012
v -11.144006 -0.000000 0.000000
v -11.097530 0.000000 -2.538013
v -10.958554 0.000002 -3.474915
v -10.728415 0.000002 -4.393684
v -10.409328 0.000002 -5.285471
v -10.004369 0.000002 -6.141687
v -9.517435 0.000002 -6.954088
v -8.953217 0.000002 -7.714849
v -8.317146 0.000002 -8.416644
v -7.615353 0.000002 -9.052712
v -6.854592 0.000004 -9.616932
v -6.042192 0.000004 -10.103865
v -5.185975 0.000004 -10.508825
v -4.294188 0.000004 -10.827911
v -3.375420 0.000004 -11.058051
vt 0.000000 0.000000
vt 0.000000 0.000000
vt 0.000000 0.000000
vt 0.000000 0.000000
vt 0.000000 0.000000
vt 0.000000 0.000000
vt 0.000000 0.000000
vt 0.000000 0.000000
vt 0.000000 0.000000
vt 0.000000 0.000000
vt 0.000000 0.000000
vt 0.000000 0.000000
vt 0.000000 0.000000
vt 0.000000 0.000000
vt 0.000000 0.000000
vt 0.000000 0.000000
vt 0.000000 0.000000
vt 0.000000 0.000000
vt 0.000000 0.000000
vt 0.000000 0.000000
vt 0.000000 0.000000
vt 0.000000 0.000000
vt 0.000000 0.000000
vt 0.000000 0.000000
vt 0.000000 0.000000
vt 0.000000 0.000000
vt 0.000000 0.000000
vt 0.000000 0.000000
vt 0.000000 0.000000
vt 0.000000 0.000000
vt 0.000000 0.000000
vt 0.000000 0.000000
vt 0.000000 0.000000
vt 0.000000 0.000000
vt 0.000000 0.000000
vt 0.000000 0.000000
vt 0.000000 0.000000
vt 0.000000 0.000000
vt 0.000000 0.000000
vt 0.000000 0.000000
vt 0.000000 0.000000
vt 0.000000 0.000000
vt 0.000000 0.000000
vt 0.000000 0.000000
vt 0.000000 0.000000
vt 0.000000 0.000000
vt 0.000000 0.000000
vt 0.000000 0.000000
vt 0.000000 0.000000
vt 0.000000 0.000000
vt 0.000000 0.000000
vt 0.000000 0.000000
vt 0.000000 0.000000
vt 0.000000 0.000000
vt 0.000000 0.000000
vt 0.000000 0.000000
vt 0.000000 0.000000
vt 0.000000 0.000000
vt 0.000000 0.000000
vt 0.000000 0.000000
vt 0.000000 0.000000
vt 0.000000 0.000000
vt 0.000000 0.000000
vt 0.000000 0.000000
vn -0.0000 1.0000 0.0000
usemtl None
s off
f 50/1/1 34/2/1 18/3/1
f 1/4/1 2/5/1 51/6/1
f 2/5/1 64/7/1 52/8/1
f 64/7/1 63/9/1 62/10/1
f 62/10/1 61/11/1 58/12/1
f 61/11/1 60/13/1 58/12/1
f 60/13/1 59/14/1 58/12/1
f 58/12/1 57/15/1 56/16/1
f 56/16/1 55/17/1 58/12/1
f 55/17/1 54/18/1 58/12/1
f 54/18/1 53/19/1 52/8/1
f 52/8/1 51/6/1 2/5/1
f 51/6/1 50/1/1 1/4/1
f 50/1/1 49/20/1 34/2/1
f 49/20/1 48/21/1 35/22/1
f 34/2/1 49/20/1 35/22/1
f 48/21/1 47/23/1 46/24/1
f 46/24/1 45/25/1 44/26/1
f 44/26/1 43/27/1 42/28/1
f 42/28/1 41/29/1 40/30/1
f 40/30/1 39/31/1 42/28/1
f 39/31/1 38/32/1 42/28/1
f 38/32/1 37/33/1 36/34/1
f 36/34/1 35/22/1 48/21/1
f 34/2/1 33/35/1 19/36/1
f 33/35/1 32/37/1 20/38/1
f 32/37/1 31/39/1 30/40/1
f 30/40/1 29/41/1 28/42/1
f 28/42/1 27/43/1 26/44/1
f 26/44/1 25/45/1 22/46/1
f 25/45/1 24/47/1 22/46/1
f 24/47/1 23/48/1 22/46/1
f 22/46/1 21/49/1 20/38/1
f 20/38/1 19/36/1 33/35/1
f 19/36/1 18/3/1 34/2/1
f 18/3/1 17/50/1 1/4/1
f 17/50/1 16/51/1 3/52/1
f 1/4/1 17/50/1 3/52/1
f 16/51/1 15/53/1 14/54/1
f 14/54/1 13/55/1 12/56/1
f 12/56/1 11/57/1 10/58/1
f 10/58/1 9/59/1 6/60/1
f 9/59/1 8/61/1 6/60/1
f 8/61/1 7/62/1 6/60/1
f 6/60/1 5/63/1 4/64/1
f 4/64/1 3/52/1 16/51/1
f 64/7/1 62/10/1 52/8/1
f 54/18/1 52/8/1 58/12/1
f 58/12/1 52/8/1 62/10/1
f 48/21/1 46/24/1 42/28/1
f 46/24/1 44/26/1 42/28/1
f 38/32/1 36/34/1 48/21/1
f 32/37/1 30/40/1 20/38/1
f 30/40/1 28/42/1 26/44/1
f 22/46/1 20/38/1 26/44/1
f 26/44/1 20/38/1 30/40/1
f 16/51/1 14/54/1 10/58/1
f 14/54/1 12/56/1 10/58/1
f 6/60/1 4/64/1 16/51/1
f 48/21/1 42/28/1 38/32/1
f 16/51/1 10/58/1 6/60/1
f 1/4/1 50/1/1 18/3/1
