# Blender v2.82 (sub 7) OBJ File: 'bombrange.blend'
# www.blender.org
o mid1_Circle.008
v 10.898774 -0.000000 3.261726
v 11.082890 -0.000000 1.392349
v -5.176762 0.000000 10.381852
v -3.220627 0.000000 10.998388
v -1.351251 0.000000 11.182506
v -8.444018 0.000000 8.233452
v -6.991980 0.000000 9.425110
v -11.372192 -0.000000 1.258595
v -11.193777 -0.000000 3.184758
v -10.648500 -0.000000 4.982293
v -9.763021 -0.000000 6.638913
v 1.303811 0.000000 11.182506
v 3.231362 0.000000 10.976444
v 5.028899 0.000000 10.431166
v 6.743693 0.000000 9.523741
v 8.195731 0.000000 8.332081
v 9.457511 0.000000 6.783318
v 10.342991 0.000000 5.126698
v 11.088175 -0.000000 -0.001356
v 11.082890 -0.000000 -1.392351
v -5.176762 0.000001 -10.381854
v -3.220627 0.000001 -10.998389
v -1.351251 0.000001 -11.182507
v -8.444018 0.000001 -8.233453
v -6.991980 0.000001 -9.425112
v -11.371904 -0.000000 -1.228391
v -11.193777 0.000000 -3.184759
v -10.648500 0.000000 -4.982295
v -9.763021 0.000000 -6.638915
v 1.303811 0.000001 -11.182507
v 3.173187 0.000001 -10.998388
v 5.087074 0.000001 -10.409225
v 6.743693 0.000001 -9.523742
v 8.195731 0.000001 -8.332083
v 9.457511 0.000000 -6.783320
v 10.342991 0.000000 -5.126699
v 10.888266 0.000000 -3.329162
v -11.242606 0.000000 -0.005591
v 0.000000 0.000000 0.000000
vn -0.0000 1.0000 0.0000
s off
f 27//1 39//1 28//1
f 22//1 21//1 39//1
f 2//1 19//1 39//1
f 6//1 7//1 39//1
f 27//1 26//1 39//1
f 26//1 38//1 39//1
f 38//1 8//1 39//1
f 8//1 9//1 39//1
f 39//1 29//1 28//1
f 21//1 25//1 39//1
f 25//1 24//1 39//1
f 24//1 29//1 39//1
f 39//1 32//1 31//1
f 31//1 30//1 39//1
f 30//1 23//1 39//1
f 23//1 22//1 39//1
f 19//1 20//1 39//1
f 20//1 37//1 39//1
f 37//1 36//1 39//1
f 36//1 35//1 39//1
f 35//1 34//1 39//1
f 34//1 33//1 39//1
f 33//1 32//1 39//1
f 39//1 15//1 16//1
f 16//1 17//1 39//1
f 17//1 18//1 39//1
f 18//1 1//1 39//1
f 1//1 2//1 39//1
f 7//1 3//1 39//1
f 3//1 4//1 39//1
f 4//1 5//1 39//1
f 5//1 12//1 39//1
f 12//1 13//1 39//1
f 13//1 14//1 39//1
f 14//1 15//1 39//1
f 39//1 9//1 10//1
f 10//1 11//1 39//1
f 11//1 6//1 39//1
