# Blender v2.82 (sub 7) OBJ File: ''
# www.blender.org
o mid1_Circle.008
v -11.110662 -0.000000 -3.225907
v -10.573845 -0.000000 -4.995553
v -0.090564 -0.000000 -0.090561
v -3.261222 -0.000003 -10.918305
v -5.187006 -0.000003 -10.311337
v 10.820369 0.000000 1.280183
v 10.825573 -0.000000 -0.091899
v -8.403568 0.000003 8.015144
v -6.974056 0.000003 9.188313
v -11.286026 -0.000000 -1.299892
v -11.158735 -0.000000 -0.096065
v -11.286309 0.000000 1.148506
v -11.110662 0.000000 3.044783
v -9.702107 -0.000000 -6.626470
v -6.974058 -0.000003 -9.369436
v -8.403570 -0.000003 -8.196268
v 3.033390 -0.000003 -10.918305
v 4.917581 -0.000003 -10.338283
v 1.193017 -0.000003 -11.099566
v -1.420849 -0.000003 -11.099566
v 10.820369 -0.000000 -1.461310
v 10.628763 -0.000000 -3.368071
v 10.091951 -0.000000 -5.137720
v 9.220207 -0.000000 -6.768636
v 7.978005 -0.000003 -8.293369
v 6.548496 -0.000003 -9.466541
v 7.978006 0.000003 8.112240
v 6.548498 0.000003 9.285411
v 9.220209 0.000000 6.587507
v 10.091951 0.000000 4.956590
v 10.639111 0.000000 3.120554
v -5.187004 0.000003 10.130211
v -3.261220 0.000003 10.737181
v -1.420847 0.000003 10.918442
v 1.193019 0.000003 10.918442
v 3.090665 0.000003 10.715576
v 4.860311 0.000003 10.178758
v -10.573845 0.000000 4.814430
v -9.702106 0.000000 6.445347
v -20.570509 -0.000000 -5.941368
v -20.660231 -0.000000 -0.099841
v 17.374971 -0.000003 -12.553511
v 19.001989 -0.000003 -9.509572
v 9.237670 0.000003 19.077063
v 5.934808 0.000003 20.078979
v 20.023209 0.000000 5.903653
v 5.827911 -0.000006 -20.298441
v -20.898336 0.000000 2.223023
v 15.056529 -0.000006 -15.399264
v 12.388501 0.000003 17.409723
v 2.393046 -0.000006 -20.636745
v 20.361511 0.000000 2.468785
v -9.514615 -0.000006 -19.165594
v -5.920334 -0.000006 -20.298445
v -9.514611 0.000003 18.986452
v -20.570509 0.000000 5.762233
v 12.388497 -0.000006 -17.588867
v -19.568598 0.000003 9.065093
v -2.485469 -0.000006 -20.636745
v -17.941580 0.000003 12.109033
v -5.920331 0.000003 20.119301
v 9.344559 -0.000006 -19.215887
v 20.371218 -0.000000 -0.092064
v -19.568598 -0.000000 -9.244233
v -15.517996 0.000003 15.038898
v 20.361511 -0.000000 -2.647932
v -2.485465 0.000003 20.457605
v -12.849968 -0.000006 -17.407637
v 15.056531 0.000003 15.220121
v -12.849964 0.000003 17.228498
v 20.003899 -0.000000 -6.206704
v 2.393049 0.000003 20.457605
v -15.517998 -0.000006 -15.218036
v 17.374975 0.000003 12.374363
v -20.897808 -0.000000 -2.346662
v -17.941584 -0.000003 -12.288172
v 19.001989 0.000003 9.330424
vn -0.0000 1.0000 -0.0000
s 1
f 1//1 3//1 2//1
f 4//1 5//1 3//1
f 6//1 7//1 3//1
f 8//1 9//1 3//1
f 1//1 10//1 3//1
f 10//1 11//1 3//1
f 11//1 12//1 3//1
f 12//1 13//1 3//1
f 3//1 14//1 2//1
f 5//1 15//1 3//1
f 15//1 16//1 3//1
f 16//1 14//1 3//1
f 3//1 18//1 17//1
f 17//1 19//1 3//1
f 19//1 20//1 3//1
f 20//1 4//1 3//1
f 7//1 21//1 3//1
f 21//1 22//1 3//1
f 22//1 23//1 3//1
f 23//1 24//1 3//1
f 24//1 25//1 3//1
f 25//1 26//1 3//1
f 26//1 18//1 3//1
f 3//1 28//1 27//1
f 27//1 29//1 3//1
f 29//1 30//1 3//1
f 30//1 31//1 3//1
f 31//1 6//1 3//1
f 9//1 32//1 3//1
f 32//1 33//1 3//1
f 33//1 34//1 3//1
f 34//1 35//1 3//1
f 35//1 36//1 3//1
f 36//1 37//1 3//1
f 37//1 28//1 3//1
f 3//1 13//1 38//1
f 38//1 39//1 3//1
f 39//1 8//1 3//1
f 2//1 40//1 1//1
f 10//1 41//1 11//1
f 24//1 43//1 42//1
f 37//1 45//1 44//1
f 30//1 46//1 31//1
f 18//1 47//1 17//1
f 12//1 41//1 48//1
f 25//1 42//1 49//1
f 28//1 44//1 50//1
f 17//1 51//1 19//1
f 31//1 52//1 6//1
f 5//1 54//1 53//1
f 9//1 55//1 32//1
f 13//1 48//1 56//1
f 25//1 57//1 26//1
f 38//1 56//1 58//1
f 19//1 59//1 20//1
f 39//1 58//1 60//1
f 32//1 61//1 33//1
f 26//1 62//1 18//1
f 6//1 63//1 7//1
f 4//1 59//1 54//1
f 14//1 64//1 2//1
f 39//1 65//1 8//1
f 21//1 63//1 66//1
f 33//1 67//1 34//1
f 15//1 53//1 68//1
f 27//1 50//1 69//1
f 8//1 70//1 9//1
f 22//1 66//1 71//1
f 35//1 67//1 72//1
f 16//1 68//1 73//1
f 27//1 74//1 29//1
f 1//1 75//1 10//1
f 23//1 71//1 43//1
f 36//1 72//1 45//1
f 14//1 73//1 76//1
f 29//1 77//1 30//1
f 2//1 64//1 40//1
f 10//1 75//1 41//1
f 24//1 23//1 43//1
f 37//1 36//1 45//1
f 30//1 77//1 46//1
f 18//1 62//1 47//1
f 12//1 11//1 41//1
f 25//1 24//1 42//1
f 28//1 37//1 44//1
f 17//1 47//1 51//1
f 31//1 46//1 52//1
f 5//1 4//1 54//1
f 9//1 70//1 55//1
f 13//1 12//1 48//1
f 25//1 49//1 57//1
f 38//1 13//1 56//1
f 19//1 51//1 59//1
f 39//1 38//1 58//1
f 32//1 55//1 61//1
f 26//1 57//1 62//1
f 6//1 52//1 63//1
f 4//1 20//1 59//1
f 14//1 76//1 64//1
f 39//1 60//1 65//1
f 21//1 7//1 63//1
f 33//1 61//1 67//1
f 15//1 5//1 53//1
f 27//1 28//1 50//1
f 8//1 65//1 70//1
f 22//1 21//1 66//1
f 35//1 34//1 67//1
f 16//1 15//1 68//1
f 27//1 69//1 74//1
f 1//1 40//1 75//1
f 23//1 22//1 71//1
f 36//1 35//1 72//1
f 14//1 16//1 73//1
f 29//1 74//1 77//1
