# Blender v2.82 (sub 7) OBJ File: ''
# www.blender.org
mtllib bomb_range_2.mtl
o mid1_Circle.008
v 4.329618 -0.000000 1.257076
v 4.120430 -0.000000 1.946674
v 0.035291 -0.000000 0.035290
v 1.270837 -0.000002 4.254660
v 2.021279 -0.000002 4.018136
v -4.216496 0.000000 -0.498864
v -4.218524 -0.000000 0.035811
v 3.274714 0.000002 -3.123352
v 2.717660 0.000002 -3.580514
v 4.397954 -0.000000 0.506544
v 4.348351 -0.000000 0.037435
v 4.398064 0.000000 -0.447551
v 4.329618 0.000000 -1.186495
v 3.780730 -0.000000 2.582212
v 2.717660 -0.000002 3.651095
v 3.274714 -0.000002 3.193933
v -1.182056 -0.000002 4.254660
v -1.916290 -0.000002 4.028636
v -0.464897 -0.000002 4.325294
v 0.553678 -0.000002 4.325294
v -4.216496 -0.000000 0.569445
v -4.141831 -0.000000 1.312474
v -3.932645 -0.000000 2.002073
v -3.592943 -0.000000 2.637611
v -3.108880 -0.000002 3.231771
v -2.551827 -0.000002 3.688934
v -3.108880 0.000002 -3.161189
v -2.551827 0.000002 -3.618352
v -3.592943 0.000000 -2.567029
v -3.932645 0.000000 -1.931491
v -4.145863 0.000000 -1.216022
v 2.021279 0.000002 -3.947554
v 1.270837 0.000002 -4.184079
v 0.553678 0.000002 -4.254713
v -0.464897 0.000002 -4.254713
v -1.204374 0.000002 -4.175660
v -1.893972 0.000002 -3.966472
v 4.120430 0.000000 -1.876093
v 3.780730 0.000000 -2.511631
v 8.015944 -0.000000 2.315241
v 8.050906 -0.000000 0.038907
v -6.770703 -0.000002 4.891868
v -7.404721 -0.000002 3.705702
v -3.599747 0.000002 -7.433975
v -2.312683 0.000002 -7.824404
v -7.802671 0.000000 -2.300544
v -2.271029 -0.000003 7.909924
v 8.143692 0.000000 -0.866270
v -5.867249 -0.000003 6.000806
v -4.827567 0.000002 -6.784245
v -0.932526 -0.000003 8.041755
v -7.934501 0.000000 -0.962040
v 3.707667 -0.000003 7.468475
v 2.307043 -0.000003 7.909925
v 3.707667 0.000002 -7.398666
v 8.015944 0.000000 -2.245434
v -4.827567 -0.000003 6.854053
v 7.625518 0.000002 -3.532497
v 0.968540 -0.000003 8.041755
v 6.991500 0.000002 -4.718663
v 2.307043 0.000002 -7.840116
v -3.641401 -0.000003 7.488073
v -7.938284 -0.000000 0.035875
v 7.625518 -0.000001 3.602306
v 6.047074 0.000002 -5.860378
v -7.934501 -0.000000 1.031849
v 0.968540 0.000002 -7.971947
v 5.007392 -0.000003 6.783432
v -5.867249 0.000002 -5.930998
v 5.007392 0.000002 -6.713624
v -7.795146 -0.000000 2.418636
v -0.932526 0.000002 -7.971947
v 6.047074 -0.000003 5.930185
v -6.770703 0.000002 -4.822059
v 8.143486 -0.000000 0.914451
v 6.991500 -0.000002 4.788472
v -7.404721 0.000002 -3.635893
vn 0.0000 1.0000 0.0000
usemtl Default_OBJ
s 1
f 1//1 3//1 2//1
f 4//1 5//1 3//1
f 6//1 7//1 3//1
f 8//1 9//1 3//1
f 1//1 10//1 3//1
f 10//1 11//1 3//1
f 11//1 12//1 3//1
f 12//1 13//1 3//1
f 3//1 14//1 2//1
f 5//1 15//1 3//1
f 15//1 16//1 3//1
f 16//1 14//1 3//1
f 3//1 18//1 17//1
f 17//1 19//1 3//1
f 19//1 20//1 3//1
f 20//1 4//1 3//1
f 7//1 21//1 3//1
f 21//1 22//1 3//1
f 22//1 23//1 3//1
f 23//1 24//1 3//1
f 24//1 25//1 3//1
f 25//1 26//1 3//1
f 26//1 18//1 3//1
f 3//1 28//1 27//1
f 27//1 29//1 3//1
f 29//1 30//1 3//1
f 30//1 31//1 3//1
f 31//1 6//1 3//1
f 9//1 32//1 3//1
f 32//1 33//1 3//1
f 33//1 34//1 3//1
f 34//1 35//1 3//1
f 35//1 36//1 3//1
f 36//1 37//1 3//1
f 37//1 28//1 3//1
f 3//1 13//1 38//1
f 38//1 39//1 3//1
f 39//1 8//1 3//1
f 2//1 40//1 1//1
f 10//1 41//1 11//1
f 24//1 43//1 42//1
f 37//1 45//1 44//1
f 30//1 46//1 31//1
f 18//1 47//1 17//1
f 12//1 41//1 48//1
f 25//1 42//1 49//1
f 28//1 44//1 50//1
f 17//1 51//1 19//1
f 31//1 52//1 6//1
f 5//1 54//1 53//1
f 9//1 55//1 32//1
f 13//1 48//1 56//1
f 25//1 57//1 26//1
f 38//1 56//1 58//1
f 19//1 59//1 20//1
f 39//1 58//1 60//1
f 32//1 61//1 33//1
f 26//1 62//1 18//1
f 6//1 63//1 7//1
f 4//1 59//1 54//1
f 14//1 64//1 2//1
f 39//1 65//1 8//1
f 21//1 63//1 66//1
f 33//1 67//1 34//1
f 15//1 53//1 68//1
f 27//1 50//1 69//1
f 8//1 70//1 9//1
f 22//1 66//1 71//1
f 35//1 67//1 72//1
f 16//1 68//1 73//1
f 27//1 74//1 29//1
f 1//1 75//1 10//1
f 23//1 71//1 43//1
f 36//1 72//1 45//1
f 14//1 73//1 76//1
f 29//1 77//1 30//1
f 2//1 64//1 40//1
f 10//1 75//1 41//1
f 24//1 23//1 43//1
f 37//1 36//1 45//1
f 30//1 77//1 46//1
f 18//1 62//1 47//1
f 12//1 11//1 41//1
f 25//1 24//1 42//1
f 28//1 37//1 44//1
f 17//1 47//1 51//1
f 31//1 46//1 52//1
f 5//1 4//1 54//1
f 9//1 70//1 55//1
f 13//1 12//1 48//1
f 25//1 49//1 57//1
f 38//1 13//1 56//1
f 19//1 51//1 59//1
f 39//1 38//1 58//1
f 32//1 55//1 61//1
f 26//1 57//1 62//1
f 6//1 52//1 63//1
f 4//1 20//1 59//1
f 14//1 76//1 64//1
f 39//1 60//1 65//1
f 21//1 7//1 63//1
f 33//1 61//1 67//1
f 15//1 5//1 53//1
f 27//1 28//1 50//1
f 8//1 65//1 70//1
f 22//1 21//1 66//1
f 35//1 34//1 67//1
f 16//1 15//1 68//1
f 27//1 69//1 74//1
f 1//1 40//1 75//1
f 23//1 22//1 71//1
f 36//1 35//1 72//1
f 14//1 16//1 73//1
f 29//1 74//1 77//1
