# Blender v2.82 (sub 7) OBJ File: 'smallbase.blend'
# www.blender.org
o hugeback_Circle.088
v 5.162357 0.000000 35.202381
v 7.967623 0.000000 34.786255
v 10.718597 0.000000 34.097179
v 13.388785 0.000000 33.141762
v 15.952463 0.000000 31.929228
v 18.384949 0.000000 30.471262
v 20.662819 0.000000 28.781878
v 22.764133 0.000000 26.877359
v 2.329777 0.000000 -35.341599
v -22.764143 0.000000 26.877321
v -20.662842 0.000000 28.781839
v -18.384979 0.000000 30.471224
v -15.952499 0.000000 31.929205
v -13.388829 0.000000 33.141739
v -10.718646 0.000000 34.097153
v -7.967680 0.000000 34.786240
v -5.162421 0.000000 35.202366
v 2.329790 -0.000000 6.443031
v -2.329790 0.000000 6.443031
v 2.329783 0.000000 35.341599
v -2.329778 0.000000 35.341599
v 23.257019 0.000000 26.333546
v 8.695152 -0.000000 9.845387
v 10.528453 -0.000000 11.921200
v 14.540898 -0.000000 16.464424
v 7.628770 -0.000000 8.637939
v 6.920062 -0.000000 7.835475
v 6.406449 -0.000000 7.253927
v 6.010455 -0.000000 6.805544
v 5.690294 -0.000000 6.443030
v 2.329790 -0.000000 2.637984
v -10.528441 0.000000 11.921182
v -8.695159 0.000000 9.845385
v -14.540827 0.000000 16.464342
v -6.406459 0.000000 7.253929
v -6.010459 0.000000 6.805544
v -6.920062 0.000000 7.835470
v -7.628771 0.000000 8.637934
v -5.690303 0.000000 6.443031
v -2.329790 0.000000 2.637978
v -23.257004 0.000000 26.333532
v 4.595843 0.030000 29.450508
v 6.840056 0.030000 29.117609
v 9.040834 0.030000 28.566345
v 11.176987 0.030000 27.802015
v 13.227928 0.030000 26.831989
v 15.173917 0.030000 25.665613
v 16.996212 0.030000 24.314106
v 18.677263 0.030000 22.790493
v -18.677271 0.030000 22.790464
v -16.996231 0.030000 24.314079
v -15.173941 0.030000 25.665586
v -13.227958 0.030000 26.831970
v -11.177021 0.030000 27.801996
v -9.040875 0.030000 28.566326
v -6.840102 0.030000 29.117598
v -4.595894 0.030000 29.450497
v 2.329790 0.030000 6.443031
v -2.329790 0.030000 6.443031
v -2.329797 0.030000 29.561798
v 2.329802 0.030000 29.561798
v 8.695161 0.030000 9.845390
v 10.528458 0.030000 11.921204
v 19.411976 0.030000 21.979866
v 14.540896 0.030000 16.464424
v 6.920061 0.030000 7.835475
v 7.628779 0.030000 8.637943
v 6.010458 0.030000 6.805545
v 6.406458 0.030000 7.253930
v 5.690299 0.030000 6.443031
v 2.329790 0.030000 2.637985
v -10.528433 0.030000 11.921177
v -8.695149 0.030000 9.845381
v -14.540810 0.030000 16.464333
v -19.411961 0.030000 21.979856
v -6.406457 0.030000 7.253929
v -6.010457 0.030000 6.805544
v -6.920053 0.030000 7.835468
v -7.628765 0.030000 8.637933
v -5.690295 0.030000 6.443031
v -2.329790 0.030000 2.637990
v 2.329800 0.060000 23.782137
v 4.029330 0.060000 23.698639
v 5.712490 0.060000 23.448963
v 7.363074 0.060000 23.035517
v 8.965187 0.060000 22.462269
v 10.503393 0.060000 21.734751
v 11.962885 0.060000 20.859970
v 13.329606 0.060000 19.846340
v 14.590395 0.060000 18.703630
v -2.329781 0.060000 23.782137
v -14.590401 0.060000 18.703608
v -13.329620 0.060000 19.846315
v -11.962903 0.060000 20.859949
v -10.503416 0.060000 21.734735
v -8.965214 0.060000 22.462255
v -7.363104 0.060000 23.035501
v -5.712523 0.060000 23.448956
v -4.029368 0.060000 23.698631
v 2.329790 0.060000 6.443031
v -2.329790 0.060000 6.443031
v 10.528460 0.060000 11.921206
v 14.540896 0.060000 16.464426
v 8.695158 0.060000 9.845390
v 15.566933 0.060000 17.626186
v 7.628779 0.060000 8.637944
v 6.010459 0.060000 6.805545
v 6.406457 0.060000 7.253930
v 6.920062 0.060000 7.835476
v 5.690296 0.060000 6.443031
v 2.329790 0.060000 2.637985
v -10.528429 0.060000 11.921175
v -8.695153 0.060000 9.845383
v -14.540833 0.060000 16.464348
v -15.566923 0.060000 17.626179
v -6.406459 0.060000 7.253929
v -6.010459 0.060000 6.805544
v -6.920060 0.060000 7.835470
v -7.628768 0.060000 8.637934
v -5.690291 0.060000 6.443031
v -2.329790 0.060000 2.637986
v -2.329783 0.090000 18.002434
v -11.265335 0.090000 13.776226
v -10.503531 0.090000 14.616749
v -9.663011 0.090000 15.378555
v -8.751866 0.090000 16.054308
v -7.778874 0.090000 16.637501
v -6.753406 0.090000 17.122515
v -5.685333 0.090000 17.504681
v -4.584946 0.090000 17.780315
v -3.462842 0.090000 17.946766
v 2.329797 0.090000 18.002434
v 3.462817 0.090000 17.946772
v 4.584924 0.090000 17.780319
v 5.685313 0.090000 17.504690
v 6.753389 0.090000 17.122524
v 7.778859 0.090000 16.637512
v 8.751854 0.090000 16.054323
v 9.663002 0.090000 15.378571
v 10.503528 0.090000 14.616764
v 11.265334 0.090000 13.776239
v 2.329790 0.090000 6.443032
v -2.329790 0.090000 6.443032
v 11.676796 0.090000 13.221447
v 10.528463 0.090000 11.921209
v 8.695165 0.090000 9.845393
v 6.406458 0.090000 7.253931
v 6.920063 0.090000 7.835476
v 6.010459 0.090000 6.805546
v 7.628779 0.090000 8.637945
v 5.690296 0.090000 6.443031
v 2.329789 0.090000 2.637986
v -10.528440 0.090000 11.921181
v -8.695153 0.090000 9.845383
v -11.676791 0.090000 13.221439
v -6.406459 0.090000 7.253930
v -6.010462 0.090000 6.805545
v -6.920057 0.090000 7.835470
v -7.628774 0.090000 8.637937
v -5.690298 0.090000 6.443032
v -2.329790 0.090000 2.637985
v -2.329787 0.120000 12.222735
v -7.427032 0.120000 9.167560
v -7.135438 0.120000 9.654056
v -6.797564 0.120000 10.109629
v -6.416661 0.120000 10.529890
v -5.996401 0.120000 10.910794
v -5.540827 0.120000 11.248671
v -5.054332 0.120000 11.540267
v -4.541598 0.120000 11.782774
v -4.007561 0.120000 11.973856
v -3.457368 0.120000 12.111674
v -2.896317 0.120000 12.194899
v 2.329793 0.120000 12.222734
v 2.896303 0.120000 12.194902
v 3.457357 0.120000 12.111677
v 4.007552 0.120000 11.973862
v 4.541590 0.120000 11.782780
v 5.054325 0.120000 11.540273
v 5.540822 0.120000 11.248679
v 5.996396 0.120000 10.910802
v 6.416659 0.120000 10.529899
v 6.797562 0.120000 10.109636
v 7.135439 0.120000 9.654062
v 7.427033 0.120000 9.167564
v 2.329790 0.120000 6.443033
v -2.329790 0.120000 6.443033
v 7.660525 0.120000 8.673890
v 7.628779 0.120000 8.637945
v 6.406458 0.120000 7.253931
v 6.920063 0.120000 7.835477
v 6.010458 0.120000 6.805546
v 5.690295 0.120000 6.443032
v 2.329789 0.120000 2.637986
v -6.406463 0.120000 7.253931
v -6.010461 0.120000 6.805545
v -6.920060 0.120000 7.835471
v -7.628769 0.120000 8.637935
v -7.660522 0.120000 8.673886
v -5.690300 0.120000 6.443033
v -2.329790 0.120000 2.637986
vt 0.510993 0.021083
vt 0.510993 0.021187
vt 0.513124 0.872047
vt 0.513124 0.872048
vt 0.510993 0.021121
vt 0.510993 0.021080
vt 0.510993 0.021040
vt 0.510993 0.021001
vt 0.510993 0.020963
vt 0.510993 0.020927
vt 0.510993 0.020893
vt 0.510993 0.020860
vt 0.510992 0.020831
vt 0.511959 0.406732
vt 0.510992 0.020832
vt 0.510993 0.020862
vt 0.510993 0.020894
vt 0.510993 0.020929
vt 0.510993 0.020965
vt 0.510993 0.021004
vt 0.510993 0.021043
vt 0.512851 0.763092
vt 0.512818 0.749599
vt 0.512876 0.773048
vt 0.512851 0.763093
vt 0.512876 0.773049
vt 0.512818 0.749600
vt 0.513124 0.872047
vt 0.512770 0.730739
vt 0.512397 0.581587
vt 0.512592 0.659433
vt 0.512701 0.703087
vt 0.512770 0.730738
vt 0.512592 0.659432
vt 0.512397 0.581587
vt 0.513124 0.872048
vt 0.512701 0.703086
vt 0.511959 0.406735
vt 0.594758 0.890681
vt 0.594894 0.024500
vt 0.594894 0.024501
vt 0.594894 0.024500
vt 0.594758 0.890619
vt 0.594894 0.024501
vt 0.594894 0.024501
vt 0.594894 0.024501
vt 0.594894 0.024502
vt 0.594894 0.024502
vt 0.594894 0.024502
vt 0.594894 0.024502
vt 0.594894 0.024502
vt 0.594851 0.298831
vt 0.594894 0.024499
vt 0.594894 0.024499
vt 0.594894 0.024499
vt 0.594894 0.024499
vt 0.594894 0.024499
vt 0.594894 0.024500
vt 0.594894 0.024500
vt 0.594786 0.710961
vt 0.594783 0.734950
vt 0.594778 0.764775
vt 0.594760 0.890681
vt 0.594760 0.890619
vt 0.594778 0.764721
vt 0.594792 0.675742
vt 0.594801 0.620219
vt 0.594786 0.710911
vt 0.594851 0.298813
vt 0.594816 0.521209
vt 0.594801 0.620263
vt 0.594792 0.675789
vt 0.594780 0.752112
vt 0.594780 0.752059
vt 0.594783 0.734899
vt 0.594816 0.521245
vt 0.558887 0.878589
vt 0.558888 0.004288
vt 0.558888 0.004284
vt 0.558888 0.004290
vt 0.558887 0.878605
vt 0.558890 0.709156
vt 0.558890 0.692114
vt 0.558892 0.004298
vt 0.558891 0.004297
vt 0.558890 0.004296
vt 0.558890 0.004295
vt 0.558889 0.004294
vt 0.558889 0.004292
vt 0.558888 0.004291
vt 0.558888 0.004283
vt 0.558888 0.004282
vt 0.558889 0.004280
vt 0.558889 0.004279
vt 0.558890 0.004278
vt 0.558890 0.004277
vt 0.558891 0.004275
vt 0.558892 0.004274
vt 0.558893 0.082043
vt 0.558890 0.669017
vt 0.558890 0.636731
vt 0.558890 0.589396
vt 0.558891 0.514665
vt 0.558891 0.381380
vt 0.558901 0.878605
vt 0.558891 0.381404
vt 0.558893 0.082072
vt 0.558891 0.514644
vt 0.558890 0.709136
vt 0.558901 0.878589
vt 0.558890 0.589374
vt 0.558890 0.636711
vt 0.558890 0.668997
vt 0.558890 0.692094
vt 0.518400 0.891089
vt 0.515357 0.016832
vt 0.515357 0.016832
vt 0.515357 0.016832
vt 0.518400 0.891196
vt 0.515357 0.016832
vt 0.515359 0.016832
vt 0.515361 0.016832
vt 0.515364 0.016832
vt 0.515368 0.016832
vt 0.515373 0.016832
vt 0.515378 0.016832
vt 0.515384 0.016832
vt 0.515391 0.016832
vt 0.515839 0.145326
vt 0.517543 0.637004
vt 0.517453 0.611439
vt 0.515391 0.016832
vt 0.515384 0.016832
vt 0.515378 0.016832
vt 0.515373 0.016832
vt 0.515368 0.016832
vt 0.515364 0.016832
vt 0.515361 0.016832
vt 0.515359 0.016832
vt 0.517333 0.576724
vt 0.517453 0.611367
vt 0.517543 0.636929
vt 0.518522 0.891089
vt 0.517165 0.528298
vt 0.516919 0.457298
vt 0.516531 0.345209
vt 0.517165 0.528360
vt 0.516919 0.457352
vt 0.515839 0.145344
vt 0.517333 0.576792
vt 0.516531 0.345250
vt 0.518522 0.891196
vt 0.502277 0.906023
vt 0.505387 0.025640
vt 0.505387 0.025640
vt 0.505387 0.025640
vt 0.502298 0.906023
vt 0.505387 0.025640
vt 0.505387 0.025640
vt 0.505387 0.025640
vt 0.505387 0.025640
vt 0.505387 0.025640
vt 0.505387 0.025640
vt 0.505387 0.025640
vt 0.505387 0.025640
vt 0.505387 0.025640
vt 0.505387 0.025640
vt 0.505387 0.025640
vt 0.505364 0.032360
vt 0.504094 0.394139
vt 0.504275 0.342658
vt 0.505387 0.025640
vt 0.505387 0.025640
vt 0.505387 0.025640
vt 0.505387 0.025640
vt 0.505387 0.025640
vt 0.505387 0.025640
vt 0.505387 0.025640
vt 0.505387 0.025640
vt 0.505387 0.025640
vt 0.505387 0.025640
vt 0.504085 0.394140
vt 0.502277 0.906102
vt 0.504267 0.342659
vt 0.504514 0.272886
vt 0.504858 0.175356
vt 0.504862 0.175355
vt 0.505364 0.032362
vt 0.504520 0.272885
vt 0.502298 0.906102
vt 0.510992 0.020824
vt 0.510992 0.020825
vt 0.594894 0.024502
vt 0.594894 0.024498
vt 0.558893 0.004274
vt 0.558893 0.004299
vt 0.515395 0.016832
vt 0.515395 0.016832
vt 0.505387 0.025640
vt 0.505387 0.025640
vn 0.0000 1.0000 0.0000
s off
f 17/1/1 21/2/1 19/3/1
f 21/2/1 18/4/1 19/3/1
f 20/5/1 1/6/1 18/4/1
f 1/6/1 2/7/1 18/4/1
f 2/7/1 3/8/1 18/4/1
f 3/8/1 4/9/1 18/4/1
f 4/9/1 5/10/1 18/4/1
f 5/10/1 6/11/1 18/4/1
f 6/11/1 7/12/1 18/4/1
f 7/12/1 8/13/1 18/4/1
f 8/13/1 25/14/1 18/4/1
f 10/15/1 11/16/1 19/3/1
f 11/16/1 12/17/1 19/3/1
f 12/17/1 13/18/1 19/3/1
f 13/18/1 14/19/1 19/3/1
f 14/19/1 15/20/1 19/3/1
f 15/20/1 16/21/1 19/3/1
f 16/21/1 17/1/1 19/3/1
f 21/2/1 20/5/1 18/4/1
f 36/22/1 35/23/1 19/3/1
f 39/24/1 36/22/1 19/3/1
f 29/25/1 30/26/1 18/4/1
f 28/27/1 29/25/1 18/4/1
f 40/28/1 39/24/1 19/3/1
f 27/29/1 28/27/1 18/4/1
f 24/30/1 23/31/1 18/4/1
f 26/32/1 27/29/1 18/4/1
f 35/23/1 37/33/1 19/3/1
f 33/34/1 32/35/1 19/3/1
f 30/26/1 31/36/1 18/4/1
f 38/37/1 33/34/1 19/3/1
f 23/31/1 26/32/1 18/4/1
f 25/14/1 24/30/1 18/4/1
f 34/38/1 10/15/1 19/3/1
f 32/35/1 34/38/1 19/3/1
f 37/33/1 38/37/1 19/3/1
f 58/39/1 60/40/1 61/41/1
f 57/42/1 60/40/1 59/43/1
f 61/41/1 42/44/1 58/39/1
f 42/44/1 43/45/1 58/39/1
f 43/45/1 44/46/1 58/39/1
f 44/46/1 45/47/1 58/39/1
f 45/47/1 46/48/1 58/39/1
f 46/48/1 47/49/1 58/39/1
f 47/49/1 48/50/1 58/39/1
f 48/50/1 49/51/1 58/39/1
f 49/51/1 65/52/1 58/39/1
f 58/39/1 59/43/1 60/40/1
f 50/53/1 51/54/1 59/43/1
f 51/54/1 52/55/1 59/43/1
f 52/55/1 53/56/1 59/43/1
f 53/56/1 54/57/1 59/43/1
f 54/57/1 55/58/1 59/43/1
f 55/58/1 56/59/1 59/43/1
f 56/59/1 57/42/1 59/43/1
f 66/60/1 69/61/1 58/39/1
f 70/62/1 71/63/1 58/39/1
f 81/64/1 80/65/1 59/43/1
f 79/66/1 73/67/1 59/43/1
f 78/68/1 79/66/1 59/43/1
f 74/69/1 50/53/1 59/43/1
f 73/67/1 72/70/1 59/43/1
f 62/71/1 67/72/1 58/39/1
f 68/73/1 70/62/1 58/39/1
f 72/70/1 74/69/1 59/43/1
f 69/61/1 68/73/1 58/39/1
f 77/74/1 76/75/1 59/43/1
f 63/76/1 62/71/1 58/39/1
f 67/72/1 66/60/1 58/39/1
f 76/75/1 78/68/1 59/43/1
f 65/52/1 63/76/1 58/39/1
f 80/65/1 77/74/1 59/43/1
f 100/77/1 91/78/1 82/79/1
f 99/80/1 91/78/1 101/81/1
f 100/77/1 101/81/1 91/78/1
f 101/81/1 120/82/1 117/83/1
f 92/84/1 93/85/1 101/81/1
f 93/85/1 94/86/1 101/81/1
f 94/86/1 95/87/1 101/81/1
f 95/87/1 96/88/1 101/81/1
f 96/88/1 97/89/1 101/81/1
f 97/89/1 98/90/1 101/81/1
f 98/90/1 99/80/1 101/81/1
f 100/77/1 82/79/1 83/91/1
f 83/91/1 84/92/1 100/77/1
f 84/92/1 85/93/1 100/77/1
f 85/93/1 86/94/1 100/77/1
f 86/94/1 87/95/1 100/77/1
f 87/95/1 88/96/1 100/77/1
f 88/96/1 89/97/1 100/77/1
f 89/97/1 90/98/1 100/77/1
f 90/98/1 103/99/1 100/77/1
f 116/100/1 118/101/1 101/81/1
f 119/102/1 113/103/1 101/81/1
f 103/99/1 102/104/1 100/77/1
f 121/105/1 120/82/1 101/81/1
f 112/106/1 114/107/1 101/81/1
f 102/104/1 104/108/1 100/77/1
f 118/101/1 119/102/1 101/81/1
f 110/109/1 111/110/1 100/77/1
f 117/83/1 116/100/1 101/81/1
f 104/108/1 106/111/1 100/77/1
f 106/111/1 109/112/1 100/77/1
f 108/113/1 107/114/1 100/77/1
f 107/114/1 110/109/1 100/77/1
f 109/112/1 108/113/1 100/77/1
f 114/107/1 92/84/1 101/81/1
f 113/103/1 112/106/1 101/81/1
f 142/115/1 122/116/1 132/117/1
f 131/118/1 122/116/1 143/119/1
f 132/117/1 133/120/1 142/115/1
f 133/120/1 134/121/1 142/115/1
f 134/121/1 135/122/1 142/115/1
f 135/122/1 136/123/1 142/115/1
f 136/123/1 137/124/1 142/115/1
f 137/124/1 138/125/1 142/115/1
f 138/125/1 139/126/1 142/115/1
f 139/126/1 140/127/1 142/115/1
f 140/127/1 141/128/1 142/115/1
f 141/128/1 145/129/1 142/115/1
f 142/115/1 143/119/1 122/116/1
f 143/119/1 160/130/1 157/131/1
f 123/132/1 124/133/1 143/119/1
f 124/133/1 125/134/1 143/119/1
f 125/134/1 126/135/1 143/119/1
f 126/135/1 127/136/1 143/119/1
f 127/136/1 128/137/1 143/119/1
f 128/137/1 129/138/1 143/119/1
f 129/138/1 130/139/1 143/119/1
f 130/139/1 131/118/1 143/119/1
f 147/140/1 149/141/1 142/115/1
f 149/141/1 151/142/1 142/115/1
f 151/142/1 152/143/1 142/115/1
f 148/144/1 147/140/1 142/115/1
f 150/145/1 148/144/1 142/115/1
f 146/146/1 150/145/1 142/115/1
f 158/147/1 159/148/1 143/119/1
f 153/149/1 123/132/1 143/119/1
f 156/150/1 158/147/1 143/119/1
f 145/129/1 146/146/1 142/115/1
f 154/151/1 153/149/1 143/119/1
f 159/148/1 154/151/1 143/119/1
f 161/152/1 160/130/1 143/119/1
f 157/131/1 156/150/1 143/119/1
f 186/153/1 162/154/1 174/155/1
f 173/156/1 162/154/1 187/157/1
f 186/153/1 174/155/1 175/158/1
f 175/158/1 176/159/1 186/153/1
f 176/159/1 177/160/1 186/153/1
f 177/160/1 178/161/1 186/153/1
f 178/161/1 179/162/1 186/153/1
f 179/162/1 180/163/1 186/153/1
f 180/163/1 181/164/1 186/153/1
f 181/164/1 182/165/1 186/153/1
f 182/165/1 183/166/1 186/153/1
f 183/166/1 184/167/1 186/153/1
f 184/167/1 185/168/1 186/153/1
f 185/168/1 189/169/1 186/153/1
f 186/153/1 187/157/1 162/154/1
f 187/157/1 200/170/1 196/171/1
f 163/172/1 164/173/1 187/157/1
f 164/173/1 165/174/1 187/157/1
f 165/174/1 166/175/1 187/157/1
f 166/175/1 167/176/1 187/157/1
f 167/176/1 168/177/1 187/157/1
f 168/177/1 169/178/1 187/157/1
f 169/178/1 170/179/1 187/157/1
f 170/179/1 171/180/1 187/157/1
f 171/180/1 172/181/1 187/157/1
f 172/181/1 173/156/1 187/157/1
f 193/182/1 194/183/1 186/153/1
f 192/184/1 193/182/1 186/153/1
f 190/185/1 192/184/1 186/153/1
f 191/186/1 190/185/1 186/153/1
f 197/187/1 198/188/1 187/157/1
f 195/189/1 197/187/1 187/157/1
f 198/188/1 163/172/1 187/157/1
f 189/169/1 191/186/1 186/153/1
f 201/190/1 200/170/1 187/157/1
f 196/171/1 195/189/1 187/157/1
f 8/13/1 22/191/1 25/14/1
f 34/38/1 41/192/1 10/15/1
f 49/51/1 64/193/1 65/52/1
f 74/69/1 75/194/1 50/53/1
f 90/98/1 105/195/1 103/99/1
f 114/107/1 115/196/1 92/84/1
f 141/128/1 144/197/1 145/129/1
f 153/149/1 155/198/1 123/132/1
f 185/168/1 188/199/1 189/169/1
f 198/188/1 199/200/1 163/172/1
