# Blender v2.82 (sub 7) OBJ File: 'smallbase.blend'
# www.blender.org
o hugeleftright_Circle.116
v 31.228277 0.000000 -2.637979
v 31.089128 0.000000 -5.470515
v 30.673002 0.000000 -8.275782
v 29.983927 0.000000 -11.026741
v 29.028526 0.000000 -13.696924
v 27.816000 0.000000 -16.260614
v 26.358027 0.000000 -18.693094
v 24.668655 0.000000 -20.970963
v 22.764145 0.000000 -23.072269
v -22.764130 0.000000 -23.072311
v -24.668648 0.000000 -20.971004
v -26.358027 0.000000 -18.693134
v -27.816006 0.000000 -16.260643
v -29.028540 0.000000 -13.696964
v -29.983946 0.000000 -11.026783
v -30.673029 0.000000 -8.275795
v -31.089148 0.000000 -5.470530
v -31.228304 0.000000 -2.637979
v 22.764124 0.000000 23.072273
v 24.668634 0.000000 20.970966
v 26.358013 0.000000 18.693098
v 27.815987 0.000000 16.260618
v 29.028513 0.000000 13.696939
v 29.983919 0.000000 11.026758
v 30.673002 0.000000 8.275799
v 31.089121 0.000000 5.470532
v 31.228277 0.000000 2.637981
v -31.228304 0.000000 2.637981
v -31.089148 0.000000 5.470532
v -30.673029 0.000000 8.275799
v -29.983938 0.000000 11.026772
v -29.028532 0.000000 13.696955
v -27.816000 0.000000 16.260645
v -26.358027 0.000000 18.693125
v -24.668640 0.000000 20.970993
v -22.764124 0.000000 23.072315
v 2.329795 0.000000 -2.637979
v -21.438168 0.000000 -24.274094
v -2.329790 -0.000000 -2.637985
v 21.438158 0.000000 -24.274080
v 2.329789 -0.000000 2.637985
v 21.438152 0.000000 24.274076
v -5.893635 0.000000 6.673266
v -2.329790 0.000000 2.637981
v -21.438166 0.000000 24.274086
v -18.677261 0.030000 -18.985445
v -20.200874 0.030000 -17.304399
v -21.552378 0.030000 -15.482103
v -22.718761 0.030000 -13.536108
v -23.688787 0.030000 -11.485168
v -24.453114 0.030000 -9.349022
v -25.004381 0.030000 -7.148232
v -25.337275 0.030000 -4.904019
v -25.448599 0.030000 -2.637979
v 18.677256 0.030000 18.985415
v 20.200865 0.030000 17.304369
v 21.552368 0.030000 15.482073
v 22.718746 0.030000 13.536089
v 23.688766 0.030000 11.485147
v 24.453093 0.030000 9.349003
v 25.004358 0.030000 7.148234
v 25.337254 0.030000 4.904022
v 25.448578 0.030000 2.637981
v -25.448599 0.030000 2.637981
v -25.337275 0.030000 4.904022
v -25.004381 0.030000 7.148234
v -24.453108 0.030000 9.349014
v -23.688784 0.030000 11.485159
v -22.718758 0.030000 13.536112
v -21.552378 0.030000 15.482096
v -20.200871 0.030000 17.304390
v -18.677256 0.030000 18.985447
v 25.448578 0.030000 -2.637979
v 25.337259 0.030000 -4.904008
v 25.004358 0.030000 -7.148221
v 24.453098 0.030000 -9.348989
v 23.688778 0.030000 -11.485134
v 22.718758 0.030000 -13.536087
v 21.552378 0.030000 -15.482071
v 20.200880 0.030000 -17.304365
v 18.677275 0.030000 -18.985411
v -17.616489 0.030000 -19.946869
v -2.329791 0.030000 -2.637986
v 17.616486 0.030000 -19.946859
v 2.329790 0.030000 -2.637989
v 2.329791 0.030000 2.637984
v 17.616480 0.030000 19.946856
v -17.616489 0.030000 19.946867
v -2.329790 0.030000 2.637986
v 19.668880 0.060000 -2.637979
v 19.585392 0.060000 -4.337501
v 19.335718 0.060000 -6.020660
v 18.922272 0.060000 -7.671237
v 18.349030 0.060000 -9.273346
v 17.621517 0.060000 -10.811560
v 16.746731 0.060000 -12.271048
v 15.733108 0.060000 -13.637770
v 14.590403 0.060000 -14.898554
v -14.590393 0.060000 -14.898579
v -15.733103 0.060000 -13.637794
v -16.746729 0.060000 -12.271072
v -17.621519 0.060000 -10.811577
v -18.349039 0.060000 -9.273371
v -18.922283 0.060000 -7.671262
v -19.335733 0.060000 -6.020669
v -19.585403 0.060000 -4.337509
v -19.668898 0.060000 -2.637979
v 14.590391 0.060000 14.898558
v 15.733096 0.060000 13.637772
v 16.746723 0.060000 12.271049
v 17.621508 0.060000 10.811562
v 18.349024 0.060000 9.273355
v 18.922266 0.060000 7.671247
v 19.335718 0.060000 6.020671
v 19.585388 0.060000 4.337511
v 19.668880 0.060000 2.637981
v -19.668898 0.060000 2.637981
v -19.585403 0.060000 4.337511
v -19.335733 0.060000 6.020671
v -18.922277 0.060000 7.671256
v -18.349035 0.060000 9.273365
v -17.621513 0.060000 10.811579
v -16.746729 0.060000 12.271067
v -15.733099 0.060000 13.637789
v -14.590389 0.060000 14.898582
v -2.329792 0.060000 2.637981
v 2.329792 0.060000 -2.637979
v -13.794815 0.060000 -15.619648
v -2.329790 0.060000 -2.637984
v 13.794809 0.060000 -15.619640
v 2.329789 0.060000 2.637984
v 13.794805 0.060000 15.619640
v -13.794815 0.060000 15.619648
v 13.889184 0.090000 -2.637979
v 13.833524 0.090000 -3.770994
v 13.667075 0.090000 -4.893100
v 13.391445 0.090000 -5.993484
v 13.009284 0.090000 -7.061557
v 12.524274 0.090000 -8.087034
v 11.941084 0.090000 -9.060024
v 11.265336 0.090000 -9.971173
v 10.503532 0.090000 -10.811695
v -10.503526 0.090000 -10.811712
v -11.265332 0.090000 -9.971189
v -11.941084 0.090000 -9.060041
v -12.524275 0.090000 -8.087044
v -13.009289 0.090000 -7.061574
v -13.391452 0.090000 -5.993501
v -13.667086 0.090000 -4.893106
v -13.833532 0.090000 -3.770999
v -13.889194 0.090000 -2.637979
v 10.503523 0.090000 10.811695
v 11.265327 0.090000 9.971172
v 11.941079 0.090000 9.060026
v 12.524268 0.090000 8.087036
v 13.009279 0.090000 7.061565
v 13.391441 0.090000 5.993492
v 13.667075 0.090000 4.893107
v 13.833523 0.090000 3.771000
v 13.889184 0.090000 2.637980
v -13.889194 0.090000 2.637980
v -13.833532 0.090000 3.771000
v -13.667086 0.090000 4.893107
v -13.391450 0.090000 5.993497
v -13.009285 0.090000 7.061569
v -12.524273 0.090000 8.087046
v -11.941084 0.090000 9.060036
v -11.265329 0.090000 9.971184
v -10.503523 0.090000 10.811712
v 2.329791 0.090000 2.637980
v -2.329791 0.090000 2.637980
v -9.973140 0.090000 -11.292425
v -2.329790 0.090000 -2.637984
v 9.973139 0.090000 -11.292418
v 2.329790 0.090000 -2.637983
v 9.973132 0.090000 11.292418
v -9.973138 0.090000 11.292425
v 8.109488 0.120000 -2.637979
v 8.081657 0.120000 -3.204487
v 7.998433 0.120000 -3.765540
v 7.860618 0.120000 -4.315732
v 7.669537 0.120000 -4.849769
v 7.427032 0.120000 -5.362506
v 7.135437 0.120000 -5.849002
v 6.797564 0.120000 -6.304576
v 6.416661 0.120000 -6.724838
v -6.416658 0.120000 -6.724846
v -6.797562 0.120000 -6.304584
v -7.135438 0.120000 -5.849011
v -7.427033 0.120000 -5.362512
v -7.669539 0.120000 -4.849776
v -7.860621 0.120000 -4.315740
v -7.998438 0.120000 -3.765543
v -8.081661 0.120000 -3.204489
v -8.109492 0.120000 -2.637979
v 6.416656 0.120000 6.724838
v 6.797559 0.120000 6.304576
v 7.135435 0.120000 5.849003
v 7.427029 0.120000 5.362506
v 7.669535 0.120000 4.849771
v 7.860616 0.120000 4.315734
v 7.998433 0.120000 3.765543
v 8.081656 0.120000 3.204491
v 8.109488 0.120000 2.637980
v -8.109492 0.120000 2.637980
v -8.081661 0.120000 3.204491
v -7.998438 0.120000 3.765543
v -7.860620 0.120000 4.315738
v -7.669538 0.120000 4.849774
v -7.427032 0.120000 5.362513
v -7.135438 0.120000 5.849009
v -6.797561 0.120000 6.304583
v -6.416657 0.120000 6.724846
v -2.329791 0.120000 2.637980
v -2.329790 0.120000 -2.637984
v -6.151464 0.120000 -6.965204
v 6.151463 0.120000 -6.965199
v 2.329790 0.120000 -2.637983
v 2.329790 0.120000 2.637986
v 6.151462 0.120000 6.965199
v -6.151462 0.120000 6.965205
vt 0.549413 0.862736
vt 0.551111 0.017688
vt 0.551112 0.018312
vt 0.551133 0.022168
vt 0.551129 0.022204
vt 0.551150 0.018001
vt 0.551151 0.017362
vt 0.549446 0.862746
vt 0.551149 0.018195
vt 0.551150 0.017570
vt 0.549447 0.862716
vt 0.549414 0.862718
vt 0.551111 0.017514
vt 0.551112 0.018142
vt 0.551128 0.022163
vt 0.551133 0.022169
vt 0.551114 0.019204
vt 0.551116 0.019993
vt 0.551118 0.020671
vt 0.551120 0.021231
vt 0.551122 0.021668
vt 0.551124 0.021977
vt 0.551126 0.022157
vt 0.551135 0.022083
vt 0.551138 0.021866
vt 0.551140 0.021520
vt 0.551142 0.021047
vt 0.551144 0.020452
vt 0.551146 0.019742
vt 0.551148 0.018922
vt 0.551135 0.022106
vt 0.551137 0.021913
vt 0.551140 0.021591
vt 0.551142 0.021143
vt 0.551144 0.020573
vt 0.551146 0.019887
vt 0.551148 0.019092
vt 0.551114 0.019044
vt 0.551115 0.019844
vt 0.551117 0.020535
vt 0.551119 0.021111
vt 0.551122 0.021565
vt 0.551124 0.021894
vt 0.551126 0.022094
vt 0.541882 0.011468
vt 0.541882 0.011468
vt 0.552189 0.864039
vt 0.541880 0.011467
vt 0.541880 0.011467
vt 0.552146 0.863576
vt 0.541880 0.011467
vt 0.541880 0.011467
vt 0.552147 0.863713
vt 0.541882 0.011468
vt 0.541881 0.011468
vt 0.552188 0.863590
vt 0.541882 0.011468
vt 0.541881 0.011468
vt 0.541883 0.011467
vt 0.541883 0.011467
vt 0.541882 0.011467
vt 0.541883 0.011467
vt 0.541883 0.011467
vt 0.541882 0.011467
vt 0.541882 0.011468
vt 0.541879 0.011467
vt 0.541881 0.011468
vt 0.541881 0.011468
vt 0.541880 0.011468
vt 0.541880 0.011468
vt 0.541880 0.011467
vt 0.541880 0.011467
vt 0.541880 0.011467
vt 0.541881 0.011468
vt 0.541881 0.011468
vt 0.541881 0.011468
vt 0.541881 0.011468
vt 0.541880 0.011468
vt 0.541880 0.011468
vt 0.541880 0.011467
vt 0.541883 0.011467
vt 0.541883 0.011467
vt 0.541883 0.011467
vt 0.541882 0.011467
vt 0.541882 0.011467
vt 0.541882 0.011468
vt 0.541882 0.011468
vt 0.541882 0.011468
vt 0.508928 0.010209
vt 0.508928 0.010083
vt 0.508496 0.768485
vt 0.508924 0.011003
vt 0.508924 0.011016
vt 0.508493 0.768453
vt 0.508928 0.010480
vt 0.508928 0.010303
vt 0.508496 0.767086
vt 0.508925 0.011065
vt 0.508926 0.011057
vt 0.508925 0.011015
vt 0.508926 0.011001
vt 0.508926 0.010961
vt 0.508926 0.010896
vt 0.508927 0.010805
vt 0.508927 0.010689
vt 0.508927 0.010550
vt 0.508928 0.010390
vt 0.508922 0.010090
vt 0.508922 0.010216
vt 0.508922 0.010396
vt 0.508922 0.010556
vt 0.508923 0.010694
vt 0.508923 0.010809
vt 0.508923 0.010899
vt 0.508924 0.010964
vt 0.508928 0.010180
vt 0.508926 0.011024
vt 0.508926 0.010964
vt 0.508927 0.010878
vt 0.508927 0.010769
vt 0.508927 0.010635
vt 0.508924 0.011047
vt 0.508493 0.767572
vt 0.508922 0.010075
vt 0.508922 0.010203
vt 0.508922 0.010696
vt 0.508922 0.010553
vt 0.508922 0.010388
vt 0.508923 0.010816
vt 0.508923 0.010912
vt 0.508923 0.010983
vt 0.508924 0.011028
vt 0.535340 0.011244
vt 0.535349 0.010464
vt 0.532667 0.753672
vt 0.535081 0.016444
vt 0.535183 0.016333
vt 0.535316 0.012623
vt 0.535332 0.011601
vt 0.532666 0.753357
vt 0.535006 0.014928
vt 0.535027 0.015354
vt 0.532641 0.753523
vt 0.535205 0.016229
vt 0.535227 0.015963
vt 0.535248 0.015540
vt 0.535268 0.014962
vt 0.535288 0.014236
vt 0.535307 0.013369
vt 0.535324 0.012368
vt 0.532641 0.753584
vt 0.534912 0.010940
vt 0.534922 0.011700
vt 0.534938 0.012788
vt 0.534956 0.013751
vt 0.534975 0.014577
vt 0.534995 0.015260
vt 0.535016 0.015792
vt 0.535037 0.016169
vt 0.535059 0.016388
vt 0.535342 0.010885
vt 0.535172 0.015964
vt 0.535048 0.015630
vt 0.535070 0.015752
vt 0.535194 0.015932
vt 0.535216 0.015747
vt 0.535238 0.015409
vt 0.535258 0.014922
vt 0.535279 0.014291
vt 0.535298 0.013522
vt 0.534905 0.009978
vt 0.534914 0.010733
vt 0.534930 0.011822
vt 0.534947 0.012795
vt 0.534966 0.013642
vt 0.534985 0.014355
vt 0.554944 0.011199
vt 0.555841 0.623949
vt 0.554924 0.011216
vt 0.554945 0.011123
vt 0.555837 0.623930
vt 0.554919 0.011124
vt 0.555101 0.011331
vt 0.555120 0.011349
vt 0.555837 0.623992
vt 0.555062 0.011146
vt 0.555108 0.011235
vt 0.555131 0.011362
vt 0.555841 0.623989
vt 0.555099 0.011234
vt 0.554897 0.011319
vt 0.554908 0.011307
vt 0.555073 0.011235
vt 0.555047 0.011238
vt 0.554928 0.011290
vt 0.554950 0.011275
vt 0.554972 0.011262
vt 0.554996 0.011252
vt 0.555021 0.011244
vt 0.554934 0.011265
vt 0.554960 0.011267
vt 0.554986 0.011272
vt 0.555011 0.011279
vt 0.555035 0.011289
vt 0.555059 0.011301
vt 0.555081 0.011315
vt 0.554906 0.011235
vt 0.554890 0.011256
vt 0.554881 0.011270
vt 0.555037 0.011152
vt 0.555012 0.011160
vt 0.554988 0.011171
vt 0.554965 0.011184
vt 0.555093 0.011171
vt 0.555106 0.011181
vt 0.555070 0.011157
vt 0.555047 0.011145
vt 0.555022 0.011136
vt 0.554997 0.011129
vt 0.554971 0.011125
vn 0.0000 1.0000 0.0000
s off
f 39/1/1 38/2/1 10/3/1
f 28/4/1 39/1/1 18/5/1
f 36/6/1 45/7/1 44/8/1
f 9/9/1 40/10/1 37/11/1
f 41/12/1 42/13/1 19/14/1
f 37/11/1 27/15/1 1/16/1
f 10/3/1 11/17/1 39/1/1
f 11/17/1 12/18/1 39/1/1
f 12/18/1 13/19/1 39/1/1
f 13/19/1 14/20/1 39/1/1
f 14/20/1 15/21/1 39/1/1
f 15/21/1 16/22/1 39/1/1
f 16/22/1 17/23/1 39/1/1
f 17/23/1 18/5/1 39/1/1
f 28/4/1 44/8/1 39/1/1
f 44/8/1 28/4/1 29/24/1
f 29/24/1 30/25/1 44/8/1
f 30/25/1 31/26/1 44/8/1
f 31/26/1 32/27/1 44/8/1
f 32/27/1 33/28/1 44/8/1
f 33/28/1 34/29/1 44/8/1
f 34/29/1 35/30/1 44/8/1
f 35/30/1 36/6/1 44/8/1
f 1/16/1 2/31/1 37/11/1
f 2/31/1 3/32/1 37/11/1
f 3/32/1 4/33/1 37/11/1
f 4/33/1 5/34/1 37/11/1
f 5/34/1 6/35/1 37/11/1
f 6/35/1 7/36/1 37/11/1
f 7/36/1 8/37/1 37/11/1
f 8/37/1 9/9/1 37/11/1
f 19/14/1 20/38/1 41/12/1
f 20/38/1 21/39/1 41/12/1
f 21/39/1 22/40/1 41/12/1
f 22/40/1 23/41/1 41/12/1
f 23/41/1 24/42/1 41/12/1
f 24/42/1 25/43/1 41/12/1
f 25/43/1 26/44/1 41/12/1
f 26/44/1 27/15/1 41/12/1
f 37/11/1 41/12/1 27/15/1
f 61/45/1 62/46/1 86/47/1
f 71/48/1 72/49/1 89/50/1
f 80/51/1 81/52/1 85/53/1
f 53/54/1 54/55/1 83/56/1
f 62/46/1 63/57/1 86/47/1
f 64/58/1 89/50/1 83/56/1
f 86/47/1 87/59/1 55/60/1
f 58/61/1 86/47/1 57/62/1
f 55/60/1 56/63/1 86/47/1
f 56/63/1 57/62/1 86/47/1
f 58/61/1 59/64/1 86/47/1
f 59/64/1 60/65/1 86/47/1
f 60/65/1 61/45/1 86/47/1
f 72/49/1 88/66/1 89/50/1
f 64/58/1 65/67/1 89/50/1
f 65/67/1 66/68/1 89/50/1
f 66/68/1 67/69/1 89/50/1
f 67/69/1 68/70/1 89/50/1
f 68/70/1 69/71/1 89/50/1
f 69/71/1 70/72/1 89/50/1
f 70/72/1 71/48/1 89/50/1
f 81/52/1 84/73/1 85/53/1
f 73/74/1 86/47/1 63/57/1
f 73/74/1 85/53/1 86/47/1
f 64/58/1 83/56/1 54/55/1
f 73/74/1 74/75/1 85/53/1
f 74/75/1 75/76/1 85/53/1
f 75/76/1 76/77/1 85/53/1
f 76/77/1 77/78/1 85/53/1
f 77/78/1 78/79/1 85/53/1
f 78/79/1 79/80/1 85/53/1
f 79/80/1 80/51/1 85/53/1
f 83/56/1 82/81/1 46/82/1
f 47/83/1 83/56/1 46/82/1
f 47/83/1 48/84/1 83/56/1
f 48/84/1 49/85/1 83/56/1
f 49/85/1 50/86/1 83/56/1
f 50/86/1 51/87/1 83/56/1
f 51/87/1 52/88/1 83/56/1
f 52/88/1 53/54/1 83/56/1
f 98/89/1 130/90/1 127/91/1
f 115/92/1 116/93/1 131/94/1
f 124/95/1 125/96/1 126/97/1
f 117/98/1 118/99/1 126/97/1
f 90/100/1 91/101/1 127/91/1
f 91/101/1 92/102/1 127/91/1
f 92/102/1 93/103/1 127/91/1
f 93/103/1 94/104/1 127/91/1
f 94/104/1 95/105/1 127/91/1
f 95/105/1 96/106/1 127/91/1
f 96/106/1 97/107/1 127/91/1
f 97/107/1 98/89/1 127/91/1
f 90/100/1 127/91/1 131/94/1
f 131/94/1 132/108/1 108/109/1
f 108/109/1 109/110/1 131/94/1
f 109/110/1 110/111/1 131/94/1
f 110/111/1 111/112/1 131/94/1
f 111/112/1 112/113/1 131/94/1
f 112/113/1 113/114/1 131/94/1
f 113/114/1 114/115/1 131/94/1
f 114/115/1 115/92/1 131/94/1
f 125/96/1 133/116/1 126/97/1
f 126/97/1 118/99/1 119/117/1
f 119/117/1 120/118/1 126/97/1
f 120/118/1 121/119/1 126/97/1
f 121/119/1 122/120/1 126/97/1
f 122/120/1 123/121/1 126/97/1
f 123/121/1 124/95/1 126/97/1
f 126/97/1 107/122/1 117/98/1
f 129/123/1 128/124/1 99/125/1
f 102/126/1 129/123/1 101/127/1
f 99/125/1 100/128/1 129/123/1
f 100/128/1 101/127/1 129/123/1
f 102/126/1 103/129/1 129/123/1
f 103/129/1 104/130/1 129/123/1
f 104/130/1 105/131/1 129/123/1
f 105/131/1 106/132/1 129/123/1
f 106/132/1 107/122/1 129/123/1
f 90/100/1 131/94/1 116/93/1
f 126/97/1 129/123/1 107/122/1
f 169/133/1 177/134/1 171/135/1
f 151/136/1 161/137/1 171/135/1
f 141/138/1 142/139/1 175/140/1
f 157/141/1 158/142/1 170/143/1
f 171/135/1 161/137/1 162/144/1
f 162/144/1 163/145/1 171/135/1
f 163/145/1 164/146/1 171/135/1
f 164/146/1 165/147/1 171/135/1
f 165/147/1 166/148/1 171/135/1
f 166/148/1 167/149/1 171/135/1
f 167/149/1 168/150/1 171/135/1
f 168/150/1 169/133/1 171/135/1
f 173/151/1 172/152/1 143/153/1
f 143/153/1 144/154/1 173/151/1
f 144/154/1 145/155/1 173/151/1
f 145/155/1 146/156/1 173/151/1
f 146/156/1 147/157/1 173/151/1
f 147/157/1 148/158/1 173/151/1
f 148/158/1 149/159/1 173/151/1
f 149/159/1 150/160/1 173/151/1
f 150/160/1 151/136/1 173/151/1
f 142/139/1 174/161/1 175/140/1
f 151/136/1 171/135/1 173/151/1
f 134/162/1 175/140/1 170/143/1
f 170/143/1 159/163/1 160/164/1
f 134/162/1 170/143/1 160/164/1
f 134/162/1 135/165/1 175/140/1
f 135/165/1 136/166/1 175/140/1
f 136/166/1 137/167/1 175/140/1
f 137/167/1 138/168/1 175/140/1
f 138/168/1 139/169/1 175/140/1
f 139/169/1 140/170/1 175/140/1
f 140/170/1 141/138/1 175/140/1
f 159/163/1 170/143/1 158/142/1
f 170/143/1 176/171/1 152/172/1
f 153/173/1 170/143/1 152/172/1
f 153/173/1 154/174/1 170/143/1
f 154/174/1 155/175/1 170/143/1
f 155/175/1 156/176/1 170/143/1
f 156/176/1 157/141/1 170/143/1
f 190/177/1 215/178/1 189/179/1
f 207/180/1 214/181/1 206/182/1
f 185/183/1 186/184/1 218/185/1
f 195/186/1 205/187/1 214/181/1
f 186/184/1 217/188/1 218/185/1
f 218/185/1 219/189/1 204/190/1
f 219/189/1 220/191/1 196/192/1
f 203/193/1 219/189/1 202/194/1
f 196/192/1 197/195/1 219/189/1
f 197/195/1 198/196/1 219/189/1
f 198/196/1 199/197/1 219/189/1
f 199/197/1 200/198/1 219/189/1
f 200/198/1 201/199/1 219/189/1
f 201/199/1 202/194/1 219/189/1
f 203/193/1 204/190/1 219/189/1
f 204/190/1 178/200/1 218/185/1
f 178/200/1 179/201/1 218/185/1
f 179/201/1 180/202/1 218/185/1
f 180/202/1 181/203/1 218/185/1
f 181/203/1 182/204/1 218/185/1
f 182/204/1 183/205/1 218/185/1
f 183/205/1 184/206/1 218/185/1
f 184/206/1 185/183/1 218/185/1
f 189/179/1 215/178/1 188/207/1
f 188/207/1 215/178/1 187/208/1
f 187/208/1 215/178/1 216/209/1
f 215/178/1 194/210/1 195/186/1
f 194/210/1 215/178/1 193/211/1
f 193/211/1 215/178/1 192/212/1
f 192/212/1 215/178/1 191/213/1
f 191/213/1 215/178/1 190/177/1
f 206/182/1 214/181/1 205/187/1
f 214/181/1 213/214/1 221/215/1
f 213/214/1 214/181/1 212/216/1
f 212/216/1 214/181/1 211/217/1
f 211/217/1 214/181/1 210/218/1
f 210/218/1 214/181/1 209/219/1
f 209/219/1 214/181/1 208/220/1
f 208/220/1 214/181/1 207/180/1
f 195/186/1 214/181/1 215/178/1
l 43 44
l 43 45
