# Blender v2.82 (sub 7) OBJ File: 'hugebase.blend'
# www.blender.org
o range3_Circle.011
v 2.329804 0.000000 23.916197
v 4.042499 0.000000 23.832056
v 5.738699 0.000000 23.580448
v 7.402070 0.000000 23.163794
v 9.016591 0.000000 22.586107
v 10.566715 0.000000 21.852951
v 12.037514 0.000000 20.971388
v 13.414821 0.000000 19.949905
v 14.685374 0.000000 18.798342
v 15.836932 0.000000 17.527790
v 16.858410 0.000000 16.150484
v 17.739969 0.000000 14.679689
v 18.473122 0.000000 13.129568
v 19.050804 0.000000 11.515049
v 19.467457 0.000000 9.851685
v 19.719063 0.000000 8.155487
v 19.803204 0.000000 6.442799
v 19.803198 0.000000 -6.442806
v 19.719057 0.000000 -8.155500
v 19.467449 0.000000 -9.851702
v 19.050793 0.000000 -11.515072
v 18.473106 0.000000 -13.129593
v 17.739954 0.000000 -14.679716
v 16.858389 0.000000 -16.150517
v 15.836905 0.000000 -17.527824
v 14.685341 0.000000 -18.798376
v 13.414790 0.000000 -19.949934
v 12.037484 0.000000 -20.971413
v 10.566689 0.000000 -21.852972
v 9.016568 0.000000 -22.586123
v 7.402050 0.000000 -23.163809
v 5.738683 0.000000 -23.580458
v 4.042487 0.000000 -23.832066
v 2.329798 0.000000 -23.916206
v -2.329806 0.000000 -23.916199
v -4.042500 0.000000 -23.832060
v -5.738700 0.000000 -23.580450
v -7.402071 0.000000 -23.163795
v -9.016592 0.000000 -22.586107
v -10.566716 0.000000 -21.852951
v -12.037514 0.000000 -20.971388
v -13.414822 0.000000 -19.949905
v -14.685375 0.000000 -18.798344
v -15.836933 0.000000 -17.527790
v -16.858410 0.000000 -16.150484
v -17.739969 0.000000 -14.679689
v -18.473124 0.000000 -13.129568
v -19.050804 0.000000 -11.515051
v -19.467457 0.000000 -9.851683
v -19.719063 0.000000 -8.155489
v -19.803204 0.000000 -6.442798
v -19.803198 0.000000 6.442804
v -19.719057 0.000000 8.155499
v -19.467449 0.000000 9.851700
v -19.050793 0.000000 11.515070
v -18.473106 0.000000 13.129591
v -17.739954 0.000000 14.679716
v -16.858389 0.000000 16.150513
v -15.836905 0.000000 17.527821
v -14.685342 0.000000 18.798374
v -13.414791 0.000000 19.949932
v -12.037484 0.000000 20.971411
v -10.566689 0.000000 21.852970
v -9.016568 0.000000 22.586121
v -7.402050 0.000000 23.163805
v -5.738684 0.000000 23.580456
v -4.042488 0.000000 23.832064
v -2.329798 0.000000 23.916204
v 0.000000 0.000000 0.000000
vt 0.504797 0.009756
vt 0.503872 0.859375
vt 0.504797 0.009753
vt 0.504801 0.009691
vt 0.504802 0.009689
vt 0.504806 0.009686
vt 0.504807 0.009685
vt 0.504797 0.009750
vt 0.504822 0.009746
vt 0.504822 0.009743
vt 0.504822 0.009750
vt 0.504822 0.009753
vt 0.504822 0.009756
vt 0.504821 0.009759
vt 0.504821 0.009762
vt 0.504820 0.009764
vt 0.504819 0.009767
vt 0.504818 0.009769
vt 0.504817 0.009771
vt 0.504816 0.009772
vt 0.504815 0.009774
vt 0.504814 0.009775
vt 0.504813 0.009776
vt 0.504812 0.009776
vt 0.504811 0.009776
vt 0.504808 0.009776
vt 0.504807 0.009776
vt 0.504806 0.009776
vt 0.504804 0.009775
vt 0.504803 0.009774
vt 0.504802 0.009772
vt 0.504801 0.009771
vt 0.504800 0.009769
vt 0.504800 0.009767
vt 0.504799 0.009764
vt 0.504798 0.009762
vt 0.504798 0.009759
vt 0.504803 0.009688
vt 0.504796 0.009746
vt 0.504796 0.009743
vt 0.504796 0.009718
vt 0.504796 0.009715
vt 0.504797 0.009712
vt 0.504797 0.009709
vt 0.504797 0.009706
vt 0.504798 0.009703
vt 0.504798 0.009700
vt 0.504799 0.009697
vt 0.504800 0.009695
vt 0.504800 0.009693
vt 0.504808 0.009685
vt 0.504811 0.009685
vt 0.504812 0.009685
vt 0.504813 0.009686
vt 0.504814 0.009686
vt 0.504815 0.009688
vt 0.504816 0.009689
vt 0.504817 0.009691
vt 0.504818 0.009693
vt 0.504819 0.009695
vt 0.504820 0.009697
vt 0.504821 0.009700
vt 0.504821 0.009703
vt 0.504822 0.009706
vt 0.504822 0.009709
vt 0.504822 0.009712
vt 0.504822 0.009715
vt 0.504822 0.009718
vt 0.504804 0.009686
vn 0.0000 1.0000 0.0000
s off
f 22/1/1 69/2/1 21/3/1
f 7/4/1 69/2/1 6/5/1
f 3/6/1 69/2/1 2/7/1
f 21/3/1 69/2/1 20/8/1
f 69/2/1 50/9/1 51/10/1
f 50/9/1 69/2/1 49/11/1
f 49/11/1 69/2/1 48/12/1
f 48/12/1 69/2/1 47/13/1
f 47/13/1 69/2/1 46/14/1
f 46/14/1 69/2/1 45/15/1
f 45/15/1 69/2/1 44/16/1
f 44/16/1 69/2/1 43/17/1
f 43/17/1 69/2/1 42/18/1
f 42/18/1 69/2/1 41/19/1
f 41/19/1 69/2/1 40/20/1
f 40/20/1 69/2/1 39/21/1
f 39/21/1 69/2/1 38/22/1
f 38/22/1 69/2/1 37/23/1
f 37/23/1 69/2/1 36/24/1
f 36/24/1 69/2/1 35/25/1
f 35/25/1 69/2/1 34/26/1
f 34/26/1 69/2/1 33/27/1
f 33/27/1 69/2/1 32/28/1
f 32/28/1 69/2/1 31/29/1
f 31/29/1 69/2/1 30/30/1
f 30/30/1 69/2/1 29/31/1
f 29/31/1 69/2/1 28/32/1
f 28/32/1 69/2/1 27/33/1
f 27/33/1 69/2/1 26/34/1
f 26/34/1 69/2/1 25/35/1
f 25/35/1 69/2/1 24/36/1
f 24/36/1 69/2/1 23/37/1
f 23/37/1 69/2/1 22/1/1
f 6/5/1 69/2/1 5/38/1
f 69/2/1 19/39/1 20/8/1
f 19/39/1 69/2/1 18/40/1
f 18/40/1 69/2/1 17/41/1
f 17/41/1 69/2/1 16/42/1
f 16/42/1 69/2/1 15/43/1
f 15/43/1 69/2/1 14/44/1
f 14/44/1 69/2/1 13/45/1
f 13/45/1 69/2/1 12/46/1
f 12/46/1 69/2/1 11/47/1
f 11/47/1 69/2/1 10/48/1
f 10/48/1 69/2/1 9/49/1
f 9/49/1 69/2/1 8/50/1
f 8/50/1 69/2/1 7/4/1
f 2/7/1 69/2/1 1/51/1
f 1/51/1 69/2/1 68/52/1
f 68/52/1 69/2/1 67/53/1
f 67/53/1 69/2/1 66/54/1
f 66/54/1 69/2/1 65/55/1
f 65/55/1 69/2/1 64/56/1
f 64/56/1 69/2/1 63/57/1
f 63/57/1 69/2/1 62/58/1
f 62/58/1 69/2/1 61/59/1
f 61/59/1 69/2/1 60/60/1
f 60/60/1 69/2/1 59/61/1
f 59/61/1 69/2/1 58/62/1
f 58/62/1 69/2/1 57/63/1
f 57/63/1 69/2/1 56/64/1
f 56/64/1 69/2/1 55/65/1
f 55/65/1 69/2/1 54/66/1
f 54/66/1 69/2/1 53/67/1
f 53/67/1 69/2/1 52/68/1
f 52/68/1 69/2/1 51/10/1
f 69/2/1 4/69/1 5/38/1
f 4/69/1 69/2/1 3/6/1
