# Blender v2.82 (sub 7) OBJ File: ''
# www.blender.org
mtllib huge_range_1.mtl
o range1_Circle
v 2.329795 0.000000 12.267241
v 2.900691 0.000000 12.239193
v 3.466089 0.000000 12.155324
v 4.020544 0.000000 12.016439
v 4.558716 0.000000 11.823877
v 5.075422 0.000000 11.579494
v 5.565686 0.000000 11.285641
v 6.024787 0.000000 10.945147
v 6.448303 0.000000 10.561294
v 6.832154 0.000000 10.137777
v 7.172646 0.000000 9.678678
v 7.466498 0.000000 9.188414
v 7.710881 0.000000 8.671709
v 7.903441 0.000000 8.133538
v 8.042325 0.000000 7.579084
v 8.126194 0.000000 7.013688
v 8.154240 0.000000 6.442793
v 8.154240 0.000000 -6.442795
v 8.126194 0.000000 -7.013690
v 8.042324 0.000000 -7.579089
v 7.903440 0.000000 -8.133544
v 7.710878 0.000000 -8.671715
v 7.466494 0.000000 -9.188421
v 7.172640 0.000000 -9.678685
v 6.832147 0.000000 -10.137786
v 6.448293 0.000000 -10.561303
v 6.024777 0.000000 -10.945153
v 5.565677 0.000000 -11.285645
v 5.075414 0.000000 -11.579497
v 4.558708 0.000000 -11.823880
v 4.020537 0.000000 -12.016440
v 3.466084 0.000000 -12.155326
v 2.900687 0.000000 -12.239194
v 2.329792 0.000000 -12.267240
v -2.329796 0.000000 -12.267240
v -2.900692 0.000000 -12.239194
v -3.466090 0.000000 -12.155324
v -4.020545 0.000000 -12.016440
v -4.558717 0.000000 -11.823878
v -5.075422 0.000000 -11.579494
v -5.565686 0.000000 -11.285640
v -6.024788 0.000000 -10.945146
v -6.448303 0.000000 -10.561292
v -6.832155 0.000000 -10.137776
v -7.172646 0.000000 -9.678678
v -7.466498 0.000000 -9.188414
v -7.710882 0.000000 -8.671708
v -7.903442 0.000000 -8.133536
v -8.042325 0.000000 -7.579083
v -8.126194 0.000000 -7.013686
v -8.154241 0.000000 -6.442793
v -8.154241 0.000000 6.442795
v -8.126194 0.000000 7.013691
v -8.042324 0.000000 7.579089
v -7.903440 0.000000 8.133544
v -7.710878 0.000000 8.671716
v -7.466495 0.000000 9.188421
v -7.172641 0.000000 9.678686
v -6.832148 0.000000 10.137787
v -6.448294 0.000000 10.561303
v -6.024777 0.000000 10.945154
v -5.565678 0.000000 11.285645
v -5.075414 0.000000 11.579498
v -4.558709 0.000000 11.823881
v -4.020538 0.000000 12.016441
v -3.466084 0.000000 12.155325
v -2.900688 0.000000 12.239194
v -2.329793 0.000000 12.267241
vn 0.0000 1.0000 0.0000
usemtl None
s off
f 1//1 9//1 17//1
f 1//1 2//1 3//1
f 3//1 4//1 1//1
f 4//1 5//1 1//1
f 5//1 6//1 7//1
f 7//1 8//1 5//1
f 8//1 9//1 5//1
f 9//1 10//1 13//1
f 10//1 11//1 13//1
f 11//1 12//1 13//1
f 13//1 14//1 15//1
f 15//1 16//1 17//1
f 17//1 18//1 51//1
f 18//1 19//1 33//1
f 51//1 18//1 35//1
f 19//1 20//1 21//1
f 21//1 22//1 25//1
f 22//1 23//1 25//1
f 23//1 24//1 25//1
f 25//1 26//1 27//1
f 27//1 28//1 29//1
f 29//1 30//1 33//1
f 30//1 31//1 33//1
f 31//1 32//1 33//1
f 33//1 34//1 18//1
f 34//1 35//1 18//1
f 35//1 36//1 37//1
f 37//1 38//1 39//1
f 39//1 40//1 41//1
f 41//1 42//1 43//1
f 43//1 44//1 45//1
f 45//1 46//1 49//1
f 46//1 47//1 49//1
f 47//1 48//1 49//1
f 49//1 50//1 51//1
f 51//1 52//1 17//1
f 52//1 53//1 68//1
f 17//1 52//1 1//1
f 53//1 54//1 55//1
f 55//1 56//1 53//1
f 56//1 57//1 53//1
f 57//1 58//1 61//1
f 58//1 59//1 61//1
f 59//1 60//1 61//1
f 61//1 62//1 63//1
f 63//1 64//1 65//1
f 65//1 66//1 67//1
f 67//1 68//1 53//1
f 68//1 1//1 52//1
f 13//1 15//1 9//1
f 15//1 17//1 9//1
f 19//1 21//1 33//1
f 25//1 27//1 33//1
f 27//1 29//1 33//1
f 35//1 37//1 49//1
f 37//1 39//1 41//1
f 41//1 43//1 49//1
f 43//1 45//1 49//1
f 49//1 51//1 35//1
f 61//1 63//1 65//1
f 65//1 67//1 53//1
f 1//1 5//1 9//1
f 21//1 25//1 33//1
f 37//1 41//1 49//1
f 53//1 57//1 65//1
f 57//1 61//1 65//1
