# Blender v2.82 (sub 7) OBJ File: 'smallbase.blend'
# www.blender.org
o range3full_Circle.044
v -2.329798 0.000000 -23.782137
v -4.029329 0.000000 -23.698639
v -5.712488 0.000000 -23.448963
v -7.363073 0.000000 -23.035519
v -8.965186 0.000000 -22.462269
v -10.503392 0.000000 -21.734751
v -11.962884 0.000000 -20.859970
v -13.329606 0.000000 -19.846338
v -14.590394 0.000000 -18.703629
v -15.733105 0.000000 -17.442844
v -16.746731 0.000000 -16.076122
v -17.621521 0.000000 -14.616627
v -18.349039 0.000000 -13.078421
v -18.922283 0.000000 -11.476311
v -19.335733 0.000000 -9.825719
v -19.585405 0.000000 -8.142559
v -19.668898 0.000000 -6.443029
v 2.329794 0.000000 23.782124
v 4.029325 0.000000 23.698633
v 5.712489 0.000000 23.448957
v 7.363073 0.000000 23.035503
v 8.965182 0.000000 22.462263
v 10.503393 0.000000 21.734735
v 11.962885 0.000000 20.859957
v 13.329606 0.000000 19.846325
v 14.590391 0.000000 18.703606
v 15.733097 0.000000 17.442822
v 16.746723 0.000000 16.076101
v 17.621508 0.000000 14.616613
v 18.349024 0.000000 13.078407
v 18.922268 0.000000 11.476297
v 19.335718 0.000000 9.825722
v 19.585388 0.000000 8.142563
v 19.668882 0.000000 6.443032
v -19.668898 0.000000 6.443032
v -19.585405 0.000000 8.142563
v -19.335733 0.000000 9.825722
v -18.922279 0.000000 11.476305
v -18.349035 0.000000 13.078415
v -17.621515 0.000000 14.616629
v -16.746731 0.000000 16.076117
v -15.733100 0.000000 17.442839
v -14.590390 0.000000 18.703630
v -13.329597 0.000000 19.846342
v -11.962876 0.000000 20.859964
v -10.503385 0.000000 21.734753
v -8.965174 0.000000 22.462273
v -7.363064 0.000000 23.035513
v -5.712476 0.000000 23.448967
v -4.029312 0.000000 23.698633
v -2.329786 0.000000 23.782124
v 2.329782 0.000000 -23.782137
v 19.668882 0.000000 -6.443029
v 19.585392 0.000000 -8.142551
v 19.335718 0.000000 -9.825710
v 18.922272 0.000000 -11.476286
v 18.349031 0.000000 -13.078396
v 17.621515 0.000000 -14.616611
v 16.746733 0.000000 -16.076097
v 15.733109 0.000000 -17.442820
v 14.590403 0.000000 -18.703604
v 13.329622 0.000000 -19.846313
v 11.962905 0.000000 -20.859945
v 10.503418 0.000000 -21.734734
v 8.965216 0.000000 -22.462254
v 7.363106 0.000000 -23.035501
v 5.712526 0.000000 -23.448956
v 4.029370 0.000000 -23.698631
v -2.329789 0.000000 -6.443030
v 2.329791 -0.000000 -6.443030
v 2.329789 0.000000 6.442787
v -2.329790 -0.000000 6.442785
vt 0.558902 0.004302
vt 0.558933 0.878605
vt 0.558913 0.004302
vt 0.558933 0.878589
vt 0.558902 0.004270
vt 0.558913 0.004270
vt 0.558887 0.878589
vt 0.558888 0.004288
vt 0.558888 0.004284
vt 0.558927 0.004284
vt 0.558927 0.004288
vt 0.558888 0.004290
vt 0.558887 0.878605
vt 0.558914 0.004302
vt 0.558927 0.004283
vt 0.558901 0.004270
vt 0.558901 0.004302
vt 0.558899 0.004302
vt 0.558898 0.004302
vt 0.558897 0.004301
vt 0.558895 0.004301
vt 0.558894 0.004300
vt 0.558893 0.004299
vt 0.558892 0.004298
vt 0.558891 0.004297
vt 0.558890 0.004296
vt 0.558890 0.004295
vt 0.558889 0.004294
vt 0.558889 0.004292
vt 0.558888 0.004291
vt 0.558927 0.004290
vt 0.558927 0.004291
vt 0.558926 0.004292
vt 0.558926 0.004294
vt 0.558925 0.004295
vt 0.558924 0.004296
vt 0.558924 0.004297
vt 0.558923 0.004298
vt 0.558922 0.004299
vt 0.558921 0.004300
vt 0.558919 0.004301
vt 0.558918 0.004301
vt 0.558917 0.004302
vt 0.558915 0.004302
vt 0.558914 0.004270
vt 0.558915 0.004271
vt 0.558917 0.004271
vt 0.558918 0.004271
vt 0.558919 0.004272
vt 0.558921 0.004273
vt 0.558922 0.004274
vt 0.558923 0.004274
vt 0.558924 0.004275
vt 0.558924 0.004277
vt 0.558925 0.004278
vt 0.558926 0.004279
vt 0.558926 0.004280
vt 0.558927 0.004282
vt 0.558888 0.004283
vt 0.558888 0.004282
vt 0.558889 0.004280
vt 0.558889 0.004279
vt 0.558890 0.004278
vt 0.558890 0.004277
vt 0.558891 0.004275
vt 0.558892 0.004274
vt 0.558893 0.004274
vt 0.558894 0.004273
vt 0.558895 0.004272
vt 0.558897 0.004271
vt 0.558898 0.004271
vt 0.558899 0.004271
vn 0.0000 1.0000 0.0000
s off
f 53/1/1 71/2/1 34/3/1
f 72/4/1 17/5/1 35/6/1
f 69/7/1 52/8/1 1/9/1
f 71/2/1 51/10/1 18/11/1
f 68/12/1 52/8/1 70/13/1
f 33/14/1 34/3/1 71/2/1
f 50/15/1 51/10/1 72/4/1
f 16/16/1 17/5/1 69/7/1
f 53/1/1 70/13/1 71/2/1
f 72/4/1 69/7/1 17/5/1
f 69/7/1 70/13/1 52/8/1
f 71/2/1 72/4/1 51/10/1
f 70/13/1 53/1/1 54/17/1
f 54/17/1 55/18/1 70/13/1
f 55/18/1 56/19/1 70/13/1
f 56/19/1 57/20/1 70/13/1
f 57/20/1 58/21/1 70/13/1
f 58/21/1 59/22/1 70/13/1
f 59/22/1 60/23/1 70/13/1
f 60/23/1 61/24/1 70/13/1
f 61/24/1 62/25/1 70/13/1
f 62/25/1 63/26/1 70/13/1
f 63/26/1 64/27/1 70/13/1
f 64/27/1 65/28/1 70/13/1
f 65/28/1 66/29/1 70/13/1
f 66/29/1 67/30/1 70/13/1
f 67/30/1 68/12/1 70/13/1
f 71/2/1 18/11/1 19/31/1
f 19/31/1 20/32/1 71/2/1
f 20/32/1 21/33/1 71/2/1
f 21/33/1 22/34/1 71/2/1
f 22/34/1 23/35/1 71/2/1
f 23/35/1 24/36/1 71/2/1
f 24/36/1 25/37/1 71/2/1
f 25/37/1 26/38/1 71/2/1
f 26/38/1 27/39/1 71/2/1
f 27/39/1 28/40/1 71/2/1
f 28/40/1 29/41/1 71/2/1
f 29/41/1 30/42/1 71/2/1
f 30/42/1 31/43/1 71/2/1
f 31/43/1 32/44/1 71/2/1
f 32/44/1 33/14/1 71/2/1
f 72/4/1 35/6/1 36/45/1
f 36/45/1 37/46/1 72/4/1
f 37/46/1 38/47/1 72/4/1
f 38/47/1 39/48/1 72/4/1
f 39/48/1 40/49/1 72/4/1
f 40/49/1 41/50/1 72/4/1
f 41/50/1 42/51/1 72/4/1
f 42/51/1 43/52/1 72/4/1
f 43/52/1 44/53/1 72/4/1
f 44/53/1 45/54/1 72/4/1
f 45/54/1 46/55/1 72/4/1
f 46/55/1 47/56/1 72/4/1
f 47/56/1 48/57/1 72/4/1
f 48/57/1 49/58/1 72/4/1
f 49/58/1 50/15/1 72/4/1
f 69/7/1 1/9/1 2/59/1
f 2/59/1 3/60/1 69/7/1
f 3/60/1 4/61/1 69/7/1
f 4/61/1 5/62/1 69/7/1
f 5/62/1 6/63/1 69/7/1
f 6/63/1 7/64/1 69/7/1
f 7/64/1 8/65/1 69/7/1
f 8/65/1 9/66/1 69/7/1
f 9/66/1 10/67/1 69/7/1
f 10/67/1 11/68/1 69/7/1
f 11/68/1 12/69/1 69/7/1
f 12/69/1 13/70/1 69/7/1
f 13/70/1 14/71/1 69/7/1
f 14/71/1 15/72/1 69/7/1
f 15/72/1 16/16/1 69/7/1
