# Blender v2.82 (sub 7) OBJ File: 'smallbase.blend'
# www.blender.org
o range5full.001_Circle.095
v -5.162354 0.000000 -35.202381
v -7.967621 0.000000 -34.786255
v -10.718595 0.000000 -34.097179
v -13.388783 0.000000 -33.141766
v -15.952461 0.000000 -31.929230
v -18.384947 0.000000 -30.471264
v -20.662817 0.000000 -28.781879
v -22.764132 0.000000 -26.877361
v -24.668648 0.000000 -24.776054
v -26.358027 0.000000 -22.498184
v -27.816008 0.000000 -20.065693
v -29.028540 0.000000 -17.502014
v -29.983948 0.000000 -14.831833
v -30.673031 0.000000 -12.080845
v -31.089148 0.000000 -9.275579
v -31.228304 0.000000 -6.443028
v 2.329797 0.000000 35.341515
v -5.162327 0.000000 35.202366
v -2.329780 0.000000 35.341599
v 31.228277 0.000000 -6.443029
v 31.089128 0.000000 -9.275566
v 30.673002 0.000000 -12.080832
v 29.983927 0.000000 -14.831791
v 29.028526 0.000000 -17.501974
v 27.816000 0.000000 -20.065664
v 26.358027 0.000000 -22.498144
v 24.668655 0.000000 -24.776012
v 22.764145 0.000000 -26.877319
v 20.662844 0.000000 -28.781837
v 18.384981 0.000000 -30.471222
v 15.952501 0.000000 -31.929203
v 13.388831 0.000000 -33.141735
v 10.718649 0.000000 -34.097153
v 7.967683 0.000000 -34.786240
v 5.162423 0.000000 -35.202366
v -2.329790 -0.000000 -6.443031
v 2.329790 0.000000 -6.443030
v -2.329780 0.000000 -35.341599
v -2.329780 0.000000 35.341599
v 2.329780 0.000000 -35.341599
v 2.329789 0.000000 0.000000
v 16.778761 0.000000 0.000000
v 31.228277 0.000000 -0.000001
v -2.329790 -0.000000 -0.000000
v -16.778774 0.000000 -0.000000
v -31.228304 0.000000 -0.000000
v -4.595841 0.030000 -29.450508
v -6.840055 0.030000 -29.117609
v -9.040833 0.030000 -28.566345
v -11.176985 0.030000 -27.802015
v -13.227926 0.030000 -26.831989
v -15.173915 0.030000 -25.665615
v -16.996208 0.030000 -24.314108
v -18.677261 0.030000 -22.790495
v -20.200876 0.030000 -21.109449
v -21.552378 0.030000 -19.287153
v -22.718761 0.030000 -17.341158
v -23.688787 0.030000 -15.290218
v -24.453114 0.030000 -13.154072
v -25.004381 0.030000 -10.953282
v -25.337275 0.030000 -8.709069
v -25.448599 0.030000 -6.443029
v 25.448578 0.030000 -6.443030
v 25.337259 0.030000 -8.709059
v 25.004358 0.030000 -10.953272
v 24.453098 0.030000 -13.154039
v 23.688778 0.030000 -15.290186
v 22.718758 0.030000 -17.341139
v 21.552378 0.030000 -19.287123
v 20.200880 0.030000 -21.109417
v 18.677273 0.030000 -22.790462
v 16.996233 0.030000 -24.314077
v 15.173943 0.030000 -25.665585
v 13.227960 0.030000 -26.831968
v 11.177023 0.030000 -27.801994
v 9.040877 0.030000 -28.566324
v 6.840104 0.030000 -29.117598
v 4.595896 0.030000 -29.450497
v -2.329790 0.030000 -6.443031
v 2.329790 0.030000 -6.443031
v 2.329799 0.030000 -29.561798
v -2.329800 0.030000 -29.561798
v 13.888964 0.030000 -0.000001
v 25.448578 0.030000 0.000000
v 2.329789 0.030000 0.000000
v -2.329790 0.030000 -0.000000
v -13.888976 0.030000 -0.000000
v -25.448599 0.030000 -0.000000
v -2.329799 0.060000 -23.782137
v -4.029329 0.060000 -23.698639
v -5.712489 0.060000 -23.448963
v -7.363072 0.060000 -23.035517
v -8.965186 0.060000 -22.462269
v -10.503392 0.060000 -21.734751
v -11.962884 0.060000 -20.859972
v -13.329605 0.060000 -19.846340
v -14.590394 0.060000 -18.703630
v -15.733104 0.060000 -17.442844
v -16.746731 0.060000 -16.076122
v -17.621521 0.060000 -14.616627
v -18.349039 0.060000 -13.078421
v -18.922283 0.060000 -11.476313
v -19.335733 0.060000 -9.825720
v -19.585403 0.060000 -8.142560
v -19.668898 0.060000 -6.443030
v 2.329782 0.060000 -23.782137
v 19.668880 0.060000 -6.443030
v 19.585392 0.060000 -8.142552
v 19.335718 0.060000 -9.825712
v 18.922272 0.060000 -11.476288
v 18.349030 0.060000 -13.078396
v 17.621515 0.060000 -14.616611
v 16.746731 0.060000 -16.076099
v 15.733109 0.060000 -17.442820
v 14.590403 0.060000 -18.703606
v 13.329621 0.060000 -19.846315
v 11.962904 0.060000 -20.859947
v 10.503417 0.060000 -21.734734
v 8.965215 0.060000 -22.462254
v 7.363106 0.060000 -23.035501
v 5.712525 0.060000 -23.448956
v 4.029370 0.060000 -23.698631
v -2.329790 0.060000 -6.443031
v 2.329790 0.060000 -6.443031
v 10.999171 0.060000 -0.000001
v 19.668880 0.060000 -0.000000
v 2.329789 0.060000 -0.000001
v -2.329790 0.060000 -0.000000
v -10.999179 0.060000 -0.000000
v -19.668898 0.060000 -0.000001
v 2.329784 0.090000 -18.002434
v 13.889185 0.090000 -6.443030
v 13.833523 0.090000 -7.576045
v 13.667075 0.090000 -8.698152
v 13.391444 0.090000 -9.798535
v 13.009284 0.090000 -10.866609
v 12.524273 0.090000 -11.892084
v 11.941084 0.090000 -12.865076
v 11.265336 0.090000 -13.776225
v 10.503531 0.090000 -14.616747
v 9.663012 0.090000 -15.378555
v 8.751867 0.090000 -16.054308
v 7.778875 0.090000 -16.637499
v 6.753407 0.090000 -17.122513
v 5.685334 0.090000 -17.504679
v 4.584947 0.090000 -17.780315
v 3.462843 0.090000 -17.946766
v -2.329796 0.090000 -18.002434
v -3.462816 0.090000 -17.946772
v -4.584923 0.090000 -17.780319
v -5.685312 0.090000 -17.504690
v -6.753388 0.090000 -17.122524
v -7.778858 0.090000 -16.637512
v -8.751852 0.090000 -16.054325
v -9.663000 0.090000 -15.378572
v -10.503527 0.090000 -14.616764
v -11.265333 0.090000 -13.776240
v -11.941084 0.090000 -12.865093
v -12.524276 0.090000 -11.892097
v -13.009289 0.090000 -10.866625
v -13.391452 0.090000 -9.798553
v -13.667086 0.090000 -8.698157
v -13.833533 0.090000 -7.576051
v -13.889194 0.090000 -6.443031
v -2.329790 0.090000 -6.443032
v 2.329790 0.090000 -6.443032
v 2.329789 0.090000 -0.000001
v 8.109379 0.090000 -0.000002
v 13.889185 0.090000 -0.000003
v -8.109385 0.090000 -0.000002
v -2.329790 0.090000 -0.000002
v -13.889194 0.090000 -0.000001
v 2.329787 0.120000 -12.222734
v 8.109487 0.120000 -6.443031
v 8.081657 0.120000 -7.009539
v 7.998432 0.120000 -7.570592
v 7.860618 0.120000 -8.120784
v 7.669538 0.120000 -8.654820
v 7.427032 0.120000 -9.167559
v 7.135438 0.120000 -9.654055
v 6.797564 0.120000 -10.109629
v 6.416661 0.120000 -10.529890
v 5.996401 0.120000 -10.910793
v 5.540828 0.120000 -11.248671
v 5.054333 0.120000 -11.540266
v 4.541598 0.120000 -11.782773
v 4.007562 0.120000 -11.973856
v 3.457369 0.120000 -12.111673
v 2.896317 0.120000 -12.194899
v -2.329793 0.120000 -12.222734
v -2.896303 0.120000 -12.194902
v -3.457357 0.120000 -12.111677
v -4.007551 0.120000 -11.973862
v -4.541589 0.120000 -11.782780
v -5.054324 0.120000 -11.540273
v -5.540822 0.120000 -11.248680
v -5.996395 0.120000 -10.910803
v -6.416658 0.120000 -10.529900
v -6.797562 0.120000 -10.109636
v -7.135438 0.120000 -9.654063
v -7.427033 0.120000 -9.167564
v -7.669539 0.120000 -8.654829
v -7.860622 0.120000 -8.120792
v -7.998438 0.120000 -7.570595
v -8.081662 0.120000 -7.009542
v -8.109492 0.120000 -6.443032
v -2.329790 0.120000 -6.443033
v 2.329790 0.120000 -6.443032
v 2.329789 0.120000 -0.000001
v 5.219584 0.120000 -0.000003
v 8.109487 0.120000 -0.000003
v -2.329790 0.120000 -0.000003
v -5.219587 0.120000 -0.000001
v -8.109492 0.120000 -0.000001
vt 0.510991 0.020715
vt 0.510990 0.020714
vt 0.513124 0.872048
vt 0.510993 0.021083
vt 0.510993 0.021187
vt 0.513124 0.872047
vt 0.510990 0.020715
vt 0.512058 0.446389
vt 0.510990 0.020716
vt 0.510993 0.021121
vt 0.510993 0.021080
vt 0.510993 0.021040
vt 0.510993 0.021001
vt 0.510993 0.020963
vt 0.510993 0.020927
vt 0.510993 0.020893
vt 0.510993 0.020860
vt 0.510992 0.020831
vt 0.510992 0.020804
vt 0.510992 0.020780
vt 0.510992 0.020760
vt 0.510991 0.020743
vt 0.510991 0.020730
vt 0.510991 0.020721
vt 0.510991 0.020716
vt 0.510991 0.020721
vt 0.510991 0.020731
vt 0.510991 0.020744
vt 0.510992 0.020761
vt 0.510992 0.020781
vt 0.510992 0.020805
vt 0.510992 0.020832
vt 0.510993 0.020862
vt 0.510993 0.020894
vt 0.510993 0.020929
vt 0.510993 0.020965
vt 0.510993 0.021004
vt 0.510993 0.021043
vt 0.512058 0.446389
vt 0.510990 0.020715
vt 0.513125 0.872047
vt 0.513125 0.872048
vt 0.594895 0.024503
vt 0.594895 0.024503
vt 0.594758 0.890681
vt 0.594894 0.024500
vt 0.594894 0.024501
vt 0.594894 0.024500
vt 0.594758 0.890619
vt 0.594895 0.024498
vt 0.594830 0.457567
vt 0.594887 0.024494
vt 0.594894 0.024501
vt 0.594894 0.024501
vt 0.594894 0.024501
vt 0.594894 0.024502
vt 0.594894 0.024502
vt 0.594894 0.024502
vt 0.594894 0.024502
vt 0.594894 0.024502
vt 0.594894 0.024502
vt 0.594894 0.024503
vt 0.594895 0.024503
vt 0.594895 0.024503
vt 0.594895 0.024503
vt 0.594895 0.024503
vt 0.594895 0.024498
vt 0.594895 0.024498
vt 0.594895 0.024498
vt 0.594895 0.024498
vt 0.594895 0.024498
vt 0.594894 0.024498
vt 0.594894 0.024498
vt 0.594894 0.024499
vt 0.594894 0.024499
vt 0.594894 0.024499
vt 0.594894 0.024499
vt 0.594894 0.024499
vt 0.594894 0.024500
vt 0.594894 0.024500
vt 0.594830 0.457600
vt 0.594885 0.024473
vt 0.594762 0.890619
vt 0.594762 0.890681
vt 0.558902 0.004302
vt 0.558917 0.441462
vt 0.558907 0.004302
vt 0.558887 0.878589
vt 0.558888 0.004288
vt 0.558888 0.004284
vt 0.558888 0.004290
vt 0.558887 0.878605
vt 0.558901 0.004270
vt 0.558902 0.004270
vt 0.558901 0.004302
vt 0.558899 0.004302
vt 0.558898 0.004302
vt 0.558897 0.004301
vt 0.558895 0.004301
vt 0.558894 0.004300
vt 0.558893 0.004299
vt 0.558892 0.004298
vt 0.558891 0.004297
vt 0.558890 0.004296
vt 0.558890 0.004295
vt 0.558889 0.004294
vt 0.558889 0.004292
vt 0.558888 0.004291
vt 0.558888 0.004283
vt 0.558888 0.004282
vt 0.558889 0.004280
vt 0.558889 0.004279
vt 0.558890 0.004278
vt 0.558890 0.004277
vt 0.558891 0.004275
vt 0.558892 0.004274
vt 0.558893 0.004274
vt 0.558894 0.004273
vt 0.558895 0.004272
vt 0.558897 0.004271
vt 0.558898 0.004271
vt 0.558899 0.004271
vt 0.558907 0.004270
vt 0.558917 0.441438
vt 0.558910 0.878605
vt 0.558910 0.878589
vt 0.517130 0.453969
vt 0.518400 0.891089
vt 0.515450 0.016832
vt 0.515441 0.016832
vt 0.515357 0.016832
vt 0.515357 0.016832
vt 0.515357 0.016832
vt 0.518400 0.891196
vt 0.515450 0.016832
vt 0.517130 0.454022
vt 0.515502 0.016832
vt 0.515502 0.016832
vt 0.515357 0.016832
vt 0.515359 0.016832
vt 0.515361 0.016832
vt 0.515364 0.016832
vt 0.515368 0.016832
vt 0.515373 0.016832
vt 0.515378 0.016832
vt 0.515384 0.016832
vt 0.515391 0.016832
vt 0.515398 0.016832
vt 0.515406 0.016832
vt 0.515414 0.016832
vt 0.515423 0.016832
vt 0.515432 0.016832
vt 0.515441 0.016832
vt 0.515432 0.016832
vt 0.515423 0.016832
vt 0.515414 0.016832
vt 0.515406 0.016832
vt 0.515398 0.016832
vt 0.515391 0.016832
vt 0.515384 0.016832
vt 0.515378 0.016832
vt 0.515373 0.016832
vt 0.515368 0.016832
vt 0.515364 0.016832
vt 0.515361 0.016832
vt 0.515359 0.016832
vt 0.518606 0.891089
vt 0.518606 0.891196
vt 0.505387 0.025640
vt 0.505387 0.025640
vt 0.502277 0.906023
vt 0.505387 0.025640
vt 0.505387 0.025640
vt 0.505387 0.025640
vt 0.502298 0.906023
vt 0.505387 0.025640
vt 0.503842 0.465973
vt 0.505387 0.025640
vt 0.505387 0.025640
vt 0.505387 0.025640
vt 0.505387 0.025640
vt 0.505387 0.025640
vt 0.505387 0.025640
vt 0.505387 0.025640
vt 0.505387 0.025640
vt 0.505387 0.025640
vt 0.505387 0.025640
vt 0.505387 0.025640
vt 0.505387 0.025640
vt 0.505387 0.025640
vt 0.505387 0.025640
vt 0.505387 0.025640
vt 0.505387 0.025640
vt 0.505387 0.025640
vt 0.505387 0.025640
vt 0.505387 0.025640
vt 0.505387 0.025640
vt 0.505387 0.025640
vt 0.505387 0.025640
vt 0.505387 0.025640
vt 0.505387 0.025640
vt 0.505387 0.025640
vt 0.505387 0.025640
vt 0.505387 0.025640
vt 0.505387 0.025640
vt 0.505387 0.025640
vt 0.503832 0.465973
vt 0.505387 0.025640
vt 0.502298 0.906156
vt 0.502277 0.906156
vn 0.0000 1.0000 0.0000
s off
f 15/1/1 16/2/1 36/3/1
f 35/4/1 40/5/1 37/6/1
f 40/5/1 36/3/1 37/6/1
f 20/7/1 42/8/1 43/9/1
f 38/10/1 1/11/1 36/3/1
f 1/11/1 2/12/1 36/3/1
f 2/12/1 3/13/1 36/3/1
f 3/13/1 4/14/1 36/3/1
f 4/14/1 5/15/1 36/3/1
f 5/15/1 6/16/1 36/3/1
f 6/16/1 7/17/1 36/3/1
f 7/17/1 8/18/1 36/3/1
f 8/18/1 9/19/1 36/3/1
f 9/19/1 10/20/1 36/3/1
f 10/20/1 11/21/1 36/3/1
f 11/21/1 12/22/1 36/3/1
f 12/22/1 13/23/1 36/3/1
f 13/23/1 14/24/1 36/3/1
f 14/24/1 15/1/1 36/3/1
f 20/7/1 21/25/1 37/6/1
f 21/25/1 22/26/1 37/6/1
f 22/26/1 23/27/1 37/6/1
f 23/27/1 24/28/1 37/6/1
f 24/28/1 25/29/1 37/6/1
f 25/29/1 26/30/1 37/6/1
f 26/30/1 27/31/1 37/6/1
f 27/31/1 28/32/1 37/6/1
f 28/32/1 29/33/1 37/6/1
f 29/33/1 30/34/1 37/6/1
f 30/34/1 31/35/1 37/6/1
f 31/35/1 32/36/1 37/6/1
f 32/36/1 33/37/1 37/6/1
f 33/37/1 34/38/1 37/6/1
f 34/38/1 35/4/1 37/6/1
f 40/5/1 38/10/1 36/3/1
f 37/6/1 42/8/1 20/7/1
f 45/39/1 36/3/1 16/2/1
f 46/40/1 45/39/1 16/2/1
f 37/6/1 41/41/1 42/8/1
f 45/39/1 44/42/1 36/3/1
f 61/43/1 62/44/1 79/45/1
f 79/45/1 81/46/1 82/47/1
f 78/48/1 81/46/1 80/49/1
f 63/50/1 83/51/1 84/52/1
f 82/47/1 47/53/1 79/45/1
f 47/53/1 48/54/1 79/45/1
f 48/54/1 49/55/1 79/45/1
f 49/55/1 50/56/1 79/45/1
f 50/56/1 51/57/1 79/45/1
f 51/57/1 52/58/1 79/45/1
f 52/58/1 53/59/1 79/45/1
f 53/59/1 54/60/1 79/45/1
f 54/60/1 55/61/1 79/45/1
f 55/61/1 56/62/1 79/45/1
f 56/62/1 57/63/1 79/45/1
f 57/63/1 58/64/1 79/45/1
f 58/64/1 59/65/1 79/45/1
f 59/65/1 60/66/1 79/45/1
f 60/66/1 61/43/1 79/45/1
f 79/45/1 80/49/1 81/46/1
f 63/50/1 64/67/1 80/49/1
f 64/67/1 65/68/1 80/49/1
f 65/68/1 66/69/1 80/49/1
f 66/69/1 67/70/1 80/49/1
f 67/70/1 68/71/1 80/49/1
f 68/71/1 69/72/1 80/49/1
f 69/72/1 70/73/1 80/49/1
f 70/73/1 71/74/1 80/49/1
f 71/74/1 72/75/1 80/49/1
f 72/75/1 73/76/1 80/49/1
f 73/76/1 74/77/1 80/49/1
f 74/77/1 75/78/1 80/49/1
f 75/78/1 76/79/1 80/49/1
f 76/79/1 77/80/1 80/49/1
f 77/80/1 78/48/1 80/49/1
f 80/49/1 83/51/1 63/50/1
f 87/81/1 79/45/1 62/44/1
f 88/82/1 87/81/1 62/44/1
f 80/49/1 85/83/1 83/51/1
f 87/81/1 86/84/1 79/45/1
f 107/85/1 125/86/1 126/87/1
f 123/88/1 106/89/1 89/90/1
f 122/91/1 106/89/1 124/92/1
f 104/93/1 105/94/1 123/88/1
f 124/92/1 125/86/1 107/85/1
f 123/88/1 124/92/1 106/89/1
f 124/92/1 107/85/1 108/95/1
f 108/95/1 109/96/1 124/92/1
f 109/96/1 110/97/1 124/92/1
f 110/97/1 111/98/1 124/92/1
f 111/98/1 112/99/1 124/92/1
f 112/99/1 113/100/1 124/92/1
f 113/100/1 114/101/1 124/92/1
f 114/101/1 115/102/1 124/92/1
f 115/102/1 116/103/1 124/92/1
f 116/103/1 117/104/1 124/92/1
f 117/104/1 118/105/1 124/92/1
f 118/105/1 119/106/1 124/92/1
f 119/106/1 120/107/1 124/92/1
f 120/107/1 121/108/1 124/92/1
f 121/108/1 122/91/1 124/92/1
f 123/88/1 89/90/1 90/109/1
f 90/109/1 91/110/1 123/88/1
f 91/110/1 92/111/1 123/88/1
f 92/111/1 93/112/1 123/88/1
f 93/112/1 94/113/1 123/88/1
f 94/113/1 95/114/1 123/88/1
f 95/114/1 96/115/1 123/88/1
f 96/115/1 97/116/1 123/88/1
f 97/116/1 98/117/1 123/88/1
f 98/117/1 99/118/1 123/88/1
f 99/118/1 100/119/1 123/88/1
f 100/119/1 101/120/1 123/88/1
f 101/120/1 102/121/1 123/88/1
f 102/121/1 103/122/1 123/88/1
f 103/122/1 104/93/1 123/88/1
f 130/123/1 129/124/1 105/94/1
f 129/124/1 123/88/1 105/94/1
f 124/92/1 127/125/1 125/86/1
f 129/124/1 128/126/1 123/88/1
f 170/127/1 165/128/1 164/129/1
f 163/130/1 164/129/1 165/128/1
f 165/128/1 131/131/1 148/132/1
f 147/133/1 131/131/1 166/134/1
f 132/135/1 168/136/1 169/137/1
f 164/129/1 172/138/1 170/127/1
f 148/132/1 149/139/1 165/128/1
f 149/139/1 150/140/1 165/128/1
f 150/140/1 151/141/1 165/128/1
f 151/141/1 152/142/1 165/128/1
f 152/142/1 153/143/1 165/128/1
f 153/143/1 154/144/1 165/128/1
f 154/144/1 155/145/1 165/128/1
f 155/145/1 156/146/1 165/128/1
f 156/146/1 157/147/1 165/128/1
f 157/147/1 158/148/1 165/128/1
f 158/148/1 159/149/1 165/128/1
f 159/149/1 160/150/1 165/128/1
f 160/150/1 161/151/1 165/128/1
f 161/151/1 162/152/1 165/128/1
f 162/152/1 163/130/1 165/128/1
f 165/128/1 166/134/1 131/131/1
f 166/134/1 132/135/1 133/153/1
f 133/153/1 134/154/1 166/134/1
f 134/154/1 135/155/1 166/134/1
f 135/155/1 136/156/1 166/134/1
f 136/156/1 137/157/1 166/134/1
f 137/157/1 138/158/1 166/134/1
f 138/158/1 139/159/1 166/134/1
f 139/159/1 140/160/1 166/134/1
f 140/160/1 141/161/1 166/134/1
f 141/161/1 142/162/1 166/134/1
f 142/162/1 143/163/1 166/134/1
f 143/163/1 144/164/1 166/134/1
f 144/164/1 145/165/1 166/134/1
f 145/165/1 146/166/1 166/134/1
f 146/166/1 147/133/1 166/134/1
f 166/134/1 168/136/1 132/135/1
f 170/127/1 171/167/1 165/128/1
f 166/134/1 167/168/1 168/136/1
f 205/169/1 206/170/1 207/171/1
f 207/171/1 173/172/1 190/173/1
f 189/174/1 173/172/1 208/175/1
f 174/176/1 210/177/1 211/178/1
f 207/171/1 190/173/1 191/179/1
f 191/179/1 192/180/1 207/171/1
f 192/180/1 193/181/1 207/171/1
f 193/181/1 194/182/1 207/171/1
f 194/182/1 195/183/1 207/171/1
f 195/183/1 196/184/1 207/171/1
f 196/184/1 197/185/1 207/171/1
f 197/185/1 198/186/1 207/171/1
f 198/186/1 199/187/1 207/171/1
f 199/187/1 200/188/1 207/171/1
f 200/188/1 201/189/1 207/171/1
f 201/189/1 202/190/1 207/171/1
f 202/190/1 203/191/1 207/171/1
f 203/191/1 204/192/1 207/171/1
f 204/192/1 205/169/1 207/171/1
f 207/171/1 208/175/1 173/172/1
f 208/175/1 174/176/1 175/193/1
f 175/193/1 176/194/1 208/175/1
f 176/194/1 177/195/1 208/175/1
f 177/195/1 178/196/1 208/175/1
f 178/196/1 179/197/1 208/175/1
f 179/197/1 180/198/1 208/175/1
f 180/198/1 181/199/1 208/175/1
f 181/199/1 182/200/1 208/175/1
f 182/200/1 183/201/1 208/175/1
f 183/201/1 184/202/1 208/175/1
f 184/202/1 185/203/1 208/175/1
f 185/203/1 186/204/1 208/175/1
f 186/204/1 187/205/1 208/175/1
f 187/205/1 188/206/1 208/175/1
f 188/206/1 189/174/1 208/175/1
f 208/175/1 210/177/1 174/176/1
f 213/207/1 207/171/1 206/170/1
f 214/208/1 213/207/1 206/170/1
f 208/175/1 209/209/1 210/177/1
f 213/207/1 212/210/1 207/171/1
l 19 18
l 17 19
l 19 39
o huge_bullseye.001_bullseye.003_front_Circle.004
v 0.355644 -0.020000 -6.397629
v -0.355644 -0.019992 -35.327633
v -0.355644 -0.020000 -6.397629
v 0.355644 -0.019992 -35.327633
vt 0.009968 0.982761
vt 0.020519 0.972210
vt 0.020519 0.982761
vt 0.009968 0.972210
vn 0.0000 1.0000 0.0000
s 1
f 215/211/2 216/212/2 217/213/2
f 215/211/2 218/214/2 216/212/2
