# Blender v2.82 (sub 7) OBJ File: 'hugebase.blend'
# www.blender.org
o range1_Circle
v 2.329795 0.000000 12.267241
v 2.900691 0.000000 12.239193
v 3.466089 0.000000 12.155324
v 4.020544 0.000000 12.016439
v 4.558716 0.000000 11.823877
v 5.075422 0.000000 11.579494
v 5.565686 0.000000 11.285641
v 6.024787 0.000000 10.945147
v 6.448303 0.000000 10.561294
v 6.832154 0.000000 10.137777
v 7.172646 0.000000 9.678678
v 7.466498 0.000000 9.188414
v 7.710881 0.000000 8.671709
v 7.903441 0.000000 8.133538
v 8.042325 0.000000 7.579084
v 8.126194 0.000000 7.013688
v 8.154240 0.000000 6.442793
v 8.154240 0.000000 -6.442795
v 8.126194 0.000000 -7.013690
v 8.042324 0.000000 -7.579089
v 7.903440 0.000000 -8.133544
v 7.710878 0.000000 -8.671715
v 7.466494 0.000000 -9.188421
v 7.172640 0.000000 -9.678685
v 6.832147 0.000000 -10.137786
v 6.448293 0.000000 -10.561303
v 6.024777 0.000000 -10.945153
v 5.565677 0.000000 -11.285645
v 5.075414 0.000000 -11.579497
v 4.558708 0.000000 -11.823880
v 4.020537 0.000000 -12.016440
v 3.466084 0.000000 -12.155326
v 2.900687 0.000000 -12.239194
v 2.329792 0.000000 -12.267240
v -2.329796 0.000000 -12.267240
v -2.900692 0.000000 -12.239194
v -3.466090 0.000000 -12.155324
v -4.020545 0.000000 -12.016440
v -4.558717 0.000000 -11.823878
v -5.075422 0.000000 -11.579494
v -5.565686 0.000000 -11.285640
v -6.024788 0.000000 -10.945146
v -6.448303 0.000000 -10.561292
v -6.832155 0.000000 -10.137776
v -7.172646 0.000000 -9.678678
v -7.466498 0.000000 -9.188414
v -7.710882 0.000000 -8.671708
v -7.903442 0.000000 -8.133536
v -8.042325 0.000000 -7.579083
v -8.126194 0.000000 -7.013686
v -8.154241 0.000000 -6.442793
v -8.154241 0.000000 6.442795
v -8.126194 0.000000 7.013691
v -8.042324 0.000000 7.579089
v -7.903440 0.000000 8.133544
v -7.710878 0.000000 8.671716
v -7.466495 0.000000 9.188421
v -7.172641 0.000000 9.678686
v -6.832148 0.000000 10.137787
v -6.448294 0.000000 10.561303
v -6.024777 0.000000 10.945154
v -5.565678 0.000000 11.285645
v -5.075414 0.000000 11.579498
v -4.558709 0.000000 11.823881
v -4.020538 0.000000 12.016441
v -3.466084 0.000000 12.155325
v -2.900688 0.000000 12.239194
v -2.329793 0.000000 12.267241
v -0.000000 0.000000 0.000000
vt 0.504634 0.020165
vt 0.504634 0.020167
vt 0.504641 0.856814
vt 0.504634 0.020164
vt 0.504634 0.020163
vt 0.504634 0.020132
vt 0.504634 0.020168
vt 0.504635 0.020169
vt 0.504635 0.020171
vt 0.504635 0.020172
vt 0.504636 0.020173
vt 0.504636 0.020174
vt 0.504636 0.020174
vt 0.504637 0.020175
vt 0.504637 0.020176
vt 0.504637 0.020176
vt 0.504638 0.020176
vt 0.504638 0.020177
vt 0.504639 0.020177
vt 0.504642 0.020177
vt 0.504643 0.020177
vt 0.504643 0.020176
vt 0.504644 0.020176
vt 0.504644 0.020176
vt 0.504645 0.020175
vt 0.504645 0.020174
vt 0.504645 0.020174
vt 0.504646 0.020173
vt 0.504646 0.020172
vt 0.504646 0.020171
vt 0.504646 0.020169
vt 0.504647 0.020168
vt 0.504647 0.020167
vt 0.504647 0.020165
vt 0.504647 0.020164
vt 0.504647 0.020163
vt 0.504647 0.020132
vt 0.504647 0.020130
vt 0.504647 0.020129
vt 0.504647 0.020128
vt 0.504647 0.020126
vt 0.504646 0.020125
vt 0.504646 0.020124
vt 0.504646 0.020123
vt 0.504646 0.020122
vt 0.504645 0.020121
vt 0.504645 0.020120
vt 0.504645 0.020120
vt 0.504644 0.020119
vt 0.504644 0.020118
vt 0.504643 0.020118
vt 0.504643 0.020118
vt 0.504642 0.020118
vt 0.504639 0.020118
vt 0.504638 0.020118
vt 0.504638 0.020118
vt 0.504637 0.020118
vt 0.504637 0.020119
vt 0.504637 0.020120
vt 0.504636 0.020120
vt 0.504636 0.020121
vt 0.504636 0.020122
vt 0.504635 0.020123
vt 0.504635 0.020124
vt 0.504635 0.020125
vt 0.504634 0.020126
vt 0.504634 0.020128
vt 0.504634 0.020129
vt 0.504634 0.020130
vn 0.0000 1.0000 0.0000
s off
f 54/1/1 55/2/1 69/3/1
f 53/4/1 54/1/1 69/3/1
f 52/5/1 53/4/1 69/3/1
f 52/5/1 69/3/1 51/6/1
f 55/2/1 56/7/1 69/3/1
f 56/7/1 57/8/1 69/3/1
f 57/8/1 58/9/1 69/3/1
f 58/9/1 59/10/1 69/3/1
f 59/10/1 60/11/1 69/3/1
f 60/11/1 61/12/1 69/3/1
f 61/12/1 62/13/1 69/3/1
f 62/13/1 63/14/1 69/3/1
f 63/14/1 64/15/1 69/3/1
f 64/15/1 65/16/1 69/3/1
f 65/16/1 66/17/1 69/3/1
f 66/17/1 67/18/1 69/3/1
f 67/18/1 68/19/1 69/3/1
f 68/19/1 1/20/1 69/3/1
f 1/20/1 2/21/1 69/3/1
f 2/21/1 3/22/1 69/3/1
f 3/22/1 4/23/1 69/3/1
f 4/23/1 5/24/1 69/3/1
f 5/24/1 6/25/1 69/3/1
f 6/25/1 7/26/1 69/3/1
f 7/26/1 8/27/1 69/3/1
f 8/27/1 9/28/1 69/3/1
f 9/28/1 10/29/1 69/3/1
f 10/29/1 11/30/1 69/3/1
f 11/30/1 12/31/1 69/3/1
f 12/31/1 13/32/1 69/3/1
f 13/32/1 14/33/1 69/3/1
f 14/33/1 15/34/1 69/3/1
f 15/34/1 16/35/1 69/3/1
f 16/35/1 17/36/1 69/3/1
f 18/37/1 69/3/1 17/36/1
f 18/37/1 19/38/1 69/3/1
f 19/38/1 20/39/1 69/3/1
f 20/39/1 21/40/1 69/3/1
f 21/40/1 22/41/1 69/3/1
f 22/41/1 23/42/1 69/3/1
f 23/42/1 24/43/1 69/3/1
f 24/43/1 25/44/1 69/3/1
f 25/44/1 26/45/1 69/3/1
f 26/45/1 27/46/1 69/3/1
f 27/46/1 28/47/1 69/3/1
f 28/47/1 29/48/1 69/3/1
f 29/48/1 30/49/1 69/3/1
f 30/49/1 31/50/1 69/3/1
f 31/50/1 32/51/1 69/3/1
f 32/51/1 33/52/1 69/3/1
f 33/52/1 34/53/1 69/3/1
f 35/54/1 69/3/1 34/53/1
f 35/54/1 36/55/1 69/3/1
f 36/55/1 37/56/1 69/3/1
f 37/56/1 38/57/1 69/3/1
f 38/57/1 39/58/1 69/3/1
f 39/58/1 40/59/1 69/3/1
f 40/59/1 41/60/1 69/3/1
f 41/60/1 42/61/1 69/3/1
f 42/61/1 43/62/1 69/3/1
f 43/62/1 44/63/1 69/3/1
f 44/63/1 45/64/1 69/3/1
f 45/64/1 46/65/1 69/3/1
f 46/65/1 47/66/1 69/3/1
f 47/66/1 48/67/1 69/3/1
f 48/67/1 49/68/1 69/3/1
f 49/68/1 50/69/1 69/3/1
f 50/69/1 51/6/1 69/3/1
