# Blender v2.82 (sub 7) OBJ File: ''
# www.blender.org
mtllib huge_frontback.mtl
o frontback_Circle.016
v 2.329804 0.000000 23.916199
v 4.042499 0.000000 23.832058
v 5.738699 0.000000 23.580448
v 7.402070 0.000000 23.163795
v 9.016592 0.000000 22.586105
v 10.566715 0.000000 21.852951
v 12.037514 0.000000 20.971388
v 13.414821 0.000000 19.949905
v 14.685373 0.000000 18.798342
v 14.685340 0.000000 -18.798374
v 13.414789 0.000000 -19.949932
v 12.037484 0.000000 -20.971413
v 10.566689 0.000000 -21.852970
v 9.016568 0.000000 -22.586124
v 7.402050 0.000000 -23.163807
v 5.738683 0.000000 -23.580460
v 4.042487 0.000000 -23.832066
v 2.329798 0.000000 -23.916206
v -2.329806 0.000000 -23.916199
v -4.042500 0.000000 -23.832058
v -5.738701 0.000000 -23.580448
v -7.402071 0.000000 -23.163795
v -9.016593 0.000000 -22.586105
v -10.566716 0.000000 -21.852951
v -12.037514 0.000000 -20.971386
v -13.414823 0.000000 -19.949905
v -14.685375 0.000000 -18.798344
v -14.685343 0.000000 18.798374
v -13.414791 0.000000 19.949932
v -12.037485 0.000000 20.971409
v -10.566689 0.000000 21.852970
v -9.016568 0.000000 22.586124
v -7.402050 0.000000 23.163807
v -5.738684 0.000000 23.580456
v -4.042488 0.000000 23.832066
v -2.329798 0.000000 23.916203
v 2.329795 0.080000 12.267241
v 2.900691 0.080000 12.239194
v 3.466089 0.080000 12.155324
v 4.020544 0.080000 12.016439
v 4.558716 0.080000 11.823877
v 5.075422 0.080000 11.579494
v 5.565686 0.080000 11.285641
v 6.024787 0.080000 10.945147
v 6.448303 0.080000 10.561294
v 6.832154 0.080000 10.137777
v 7.172646 0.080000 9.678678
v 7.466498 0.080000 9.188414
v 7.466494 0.080000 -9.188422
v 7.172640 0.080000 -9.678685
v 6.832147 0.080000 -10.137786
v 6.448293 0.080000 -10.561303
v 6.024778 0.080000 -10.945153
v 5.565678 0.080000 -11.285645
v 5.075414 0.080000 -11.579499
v 4.558709 0.080000 -11.823882
v 4.020538 0.080000 -12.016442
v 3.466084 0.080000 -12.155326
v 2.900687 0.080000 -12.239192
v 2.329792 0.080000 -12.267240
v -2.329796 0.080000 -12.267240
v -2.900692 0.080000 -12.239192
v -3.466090 0.080000 -12.155324
v -4.020545 0.080000 -12.016440
v -4.558717 0.080000 -11.823878
v -5.075423 0.080000 -11.579495
v -5.565687 0.080000 -11.285640
v -6.024789 0.080000 -10.945148
v -6.448304 0.080000 -10.561292
v -6.832155 0.080000 -10.137778
v -7.172647 0.080000 -9.678678
v -7.466498 0.080000 -9.188414
v -7.466495 0.080000 9.188421
v -7.172642 0.080000 9.678686
v -6.832149 0.080000 10.137787
v -6.448295 0.080000 10.561302
v -6.024778 0.080000 10.945154
v -5.565679 0.080000 11.285645
v -5.075415 0.080000 11.579498
v -4.558710 0.080000 11.823881
v -4.020539 0.080000 12.016441
v -3.466085 0.080000 12.155325
v -2.900688 0.080000 12.239194
v -2.329794 0.080000 12.267241
v 2.329799 0.040000 18.091698
v 3.471592 0.040000 18.035603
v 4.602389 0.040000 17.867865
v 5.711300 0.040000 17.590096
v 6.787645 0.040000 17.204971
v 7.821058 0.040000 16.716202
v 8.801587 0.040000 16.128496
v 9.719790 0.040000 15.447509
v 10.566823 0.040000 14.679802
v 11.334526 0.040000 13.832769
v 11.334508 0.040000 -13.832793
v 10.566800 0.040000 -14.679824
v 9.719769 0.040000 -15.447526
v 8.801567 0.040000 -16.128510
v 7.821040 0.040000 -16.716217
v 6.787630 0.040000 -17.204983
v 5.711287 0.040000 -17.590103
v 4.602379 0.040000 -17.867870
v 3.471585 0.040000 -18.035606
v 2.329795 0.040000 -18.091702
v -2.329801 0.040000 -18.091698
v -3.471594 0.040000 -18.035606
v -4.602391 0.040000 -17.867867
v -5.711301 0.040000 -17.590096
v -6.787646 0.040000 -17.204975
v -7.821058 0.040000 -16.716206
v -8.801587 0.040000 -16.128494
v -9.719790 0.040000 -15.447509
v -10.566823 0.040000 -14.679801
v -11.334527 0.040000 -13.832770
v -11.334508 0.040000 13.832789
v -10.566801 0.040000 14.679822
v -9.719769 0.040000 15.447525
v -8.801569 0.040000 16.128510
v -7.821041 0.040000 16.716213
v -6.787630 0.040000 17.204979
v -5.711288 0.040000 17.590099
v -4.602380 0.040000 17.867867
v -3.471585 0.040000 18.035606
v -2.329795 0.040000 18.091700
v 15.656172 0.000000 -17.727230
v 11.737193 0.040000 -13.289836
v 0.000000 0.000000 -0.000000
v 0.000000 0.040000 -0.000000
v 0.000000 0.080000 -0.000000
v 7.692648 0.080000 -8.710261
v -11.737192 0.040000 -13.289838
v -7.692647 0.080000 -8.710264
v -15.656172 0.000000 -17.727230
v 15.656169 0.000000 17.727230
v 11.737192 0.040000 13.289835
v 7.692648 0.080000 8.710262
v -7.692648 0.080000 8.710261
v -11.737192 0.040000 13.289833
v -15.656172 0.000000 17.727230
vt 0.000000 0.000000
vt 0.000000 0.000000
vt 0.000000 0.000000
vt 0.000000 0.000000
vt 0.000000 0.000000
vt 0.000000 0.000000
vt 0.000000 0.000000
vt 0.000000 0.000000
vt 0.000000 0.000000
vt 0.000000 0.000000
vt 0.000000 0.000000
vt 0.000000 0.000000
vt 0.000000 0.000000
vt 0.000000 0.000000
vt 0.000000 0.000000
vt 0.000000 0.000000
vt 0.000000 0.000000
vt 0.000000 0.000000
vt 0.000000 0.000000
vt 0.000000 0.000000
vt 0.000000 0.000000
vt 0.000000 0.000000
vt 0.000000 0.000000
vt 0.000000 0.000000
vt 0.000000 0.000000
vt 0.000000 0.000000
vt 0.000000 0.000000
vt 0.000000 0.000000
vt 0.000000 0.000000
vt 0.000000 0.000000
vt 0.000000 0.000000
vt 0.000000 0.000000
vt 0.000000 0.000000
vt 0.000000 0.000000
vt 0.000000 0.000000
vt 0.000000 0.000000
vt 0.000000 0.000000
vt 0.000000 0.000000
vt 0.000000 0.000000
vt 0.000000 0.000000
vt 0.000000 0.000000
vt 0.000000 0.000000
vt 0.000000 0.000000
vt 0.000000 0.000000
vt 0.000000 0.000000
vt 0.000000 0.000000
vt 0.000000 0.000000
vt 0.000000 0.000000
vt 0.000000 0.000000
vt 0.000000 0.000000
vt 0.000000 0.000000
vt 0.000000 0.000000
vt 0.000000 0.000000
vt 0.000000 0.000000
vt 0.000000 0.000000
vt 0.000000 0.000000
vt 0.000000 0.000000
vt 0.000000 0.000000
vt 0.000000 0.000000
vt 0.000000 0.000000
vt 0.000000 0.000000
vt 0.000000 0.000000
vt 0.000000 0.000000
vt 0.000000 0.000000
vt 0.000000 0.000000
vt 0.000000 0.000000
vt 0.000000 0.000000
vt 0.000000 0.000000
vt 0.000000 0.000000
vt 0.000000 0.000000
vt 0.000000 0.000000
vt 0.000000 0.000000
vt 0.000000 0.000000
vt 0.000000 0.000000
vt 0.000000 0.000000
vt 0.000000 0.000000
vt 0.000000 0.000000
vt 0.000000 0.000000
vt 0.000000 0.000000
vt 0.000000 0.000000
vt 0.000000 0.000000
vt 0.000000 0.000000
vt 0.000000 0.000000
vt 0.000000 0.000000
vt 0.000000 0.000000
vt 0.000000 0.000000
vt 0.000000 0.000000
vt 0.000000 0.000000
vt 0.000000 0.000000
vt 0.000000 0.000000
vt 0.000000 0.000000
vt 0.000000 0.000000
vt 0.000000 0.000000
vt 0.000000 0.000000
vt 0.000000 0.000000
vt 0.000000 0.000000
vt 0.000000 0.000000
vt 0.000000 0.000000
vt 0.000000 0.000000
vt 0.000000 0.000000
vt 0.000000 0.000000
vt 0.000000 0.000000
vt 0.000000 0.000000
vt 0.000000 0.000000
vt 0.000000 0.000000
vt 0.000000 0.000000
vt 0.000000 0.000000
vt 0.000000 0.000000
vt 0.000000 0.000000
vt 0.000000 0.000000
vt 0.000000 0.000000
vt 0.000000 0.000000
vt 0.000000 0.000000
vt 0.000000 0.000000
vt 0.000000 0.000000
vt 0.000000 0.000000
vt 0.000000 0.000000
vt 0.000000 0.000000
vt 0.000000 0.000000
vt 0.000000 0.000000
vt 0.000000 0.000000
vt 0.000000 0.000000
vt 0.000000 0.000000
vt 0.000000 0.000000
vt 0.000000 0.000000
vt 0.000000 0.000000
vt 0.000000 0.000000
vt 0.000000 0.000000
vt 0.000000 0.000000
vt 0.000000 0.000000
vt 0.000000 0.000000
vt 0.000000 0.000000
vt 0.000000 0.000000
vt 0.000000 0.000000
vt 0.000000 0.000000
vt 0.000000 0.000000
vt 0.000000 0.000000
vt 0.000000 0.000000
vt 0.000000 0.000000
vn 0.0000 1.0000 0.0000
usemtl None
s off
f 36/1/1 1/2/1 127/3/1
f 82/4/1 84/5/1 137/6/1
f 124/7/1 85/8/1 128/9/1
f 63/10/1 65/11/1 132/12/1
f 113/13/1 114/14/1 128/9/1
f 26/15/1 27/16/1 127/3/1
f 1/2/1 2/17/1 127/3/1
f 2/17/1 3/18/1 127/3/1
f 3/18/1 4/19/1 127/3/1
f 4/19/1 5/20/1 127/3/1
f 5/20/1 6/21/1 127/3/1
f 6/21/1 7/22/1 127/3/1
f 7/22/1 8/23/1 127/3/1
f 8/23/1 9/24/1 127/3/1
f 9/24/1 134/25/1 127/3/1
f 127/3/1 139/26/1 28/27/1
f 28/27/1 29/28/1 127/3/1
f 29/28/1 30/29/1 127/3/1
f 30/29/1 31/30/1 127/3/1
f 31/30/1 32/31/1 127/3/1
f 32/31/1 33/32/1 127/3/1
f 33/32/1 34/33/1 127/3/1
f 34/33/1 35/34/1 127/3/1
f 35/34/1 36/1/1 127/3/1
f 37/35/1 38/36/1 39/37/1
f 39/37/1 40/38/1 41/39/1
f 41/39/1 42/40/1 136/41/1
f 42/40/1 43/42/1 136/41/1
f 43/42/1 44/43/1 136/41/1
f 44/43/1 45/44/1 136/41/1
f 45/44/1 46/45/1 136/41/1
f 46/45/1 47/46/1 136/41/1
f 47/46/1 48/47/1 136/41/1
f 136/41/1 129/48/1 37/35/1
f 129/48/1 137/6/1 84/5/1
f 136/41/1 39/37/1 41/39/1
f 137/6/1 73/49/1 74/50/1
f 74/50/1 75/51/1 137/6/1
f 75/51/1 76/52/1 137/6/1
f 76/52/1 77/53/1 137/6/1
f 77/53/1 78/54/1 137/6/1
f 78/54/1 79/55/1 137/6/1
f 79/55/1 80/56/1 137/6/1
f 80/56/1 81/57/1 82/4/1
f 82/4/1 83/58/1 84/5/1
f 84/5/1 37/35/1 129/48/1
f 37/35/1 39/37/1 136/41/1
f 80/56/1 82/4/1 137/6/1
f 85/8/1 86/59/1 128/9/1
f 86/59/1 87/60/1 128/9/1
f 87/60/1 88/61/1 128/9/1
f 88/61/1 89/62/1 128/9/1
f 89/62/1 90/63/1 128/9/1
f 90/63/1 91/64/1 128/9/1
f 91/64/1 92/65/1 128/9/1
f 92/65/1 93/66/1 128/9/1
f 93/66/1 94/67/1 128/9/1
f 94/67/1 135/68/1 128/9/1
f 128/9/1 138/69/1 115/70/1
f 116/71/1 128/9/1 115/70/1
f 116/71/1 117/72/1 128/9/1
f 117/72/1 118/73/1 128/9/1
f 118/73/1 119/74/1 128/9/1
f 119/74/1 120/75/1 128/9/1
f 120/75/1 121/76/1 128/9/1
f 121/76/1 122/77/1 128/9/1
f 122/77/1 123/78/1 128/9/1
f 123/78/1 124/7/1 128/9/1
f 72/79/1 132/12/1 71/80/1
f 132/12/1 129/48/1 61/81/1
f 129/48/1 130/82/1 60/83/1
f 130/82/1 49/84/1 50/85/1
f 59/86/1 130/82/1 57/87/1
f 50/85/1 51/88/1 130/82/1
f 51/88/1 52/89/1 130/82/1
f 52/89/1 53/90/1 130/82/1
f 53/90/1 54/91/1 130/82/1
f 54/91/1 55/92/1 130/82/1
f 55/92/1 56/93/1 57/87/1
f 57/87/1 58/94/1 59/86/1
f 59/86/1 60/83/1 130/82/1
f 60/83/1 61/81/1 129/48/1
f 61/81/1 62/95/1 63/10/1
f 63/10/1 64/96/1 65/11/1
f 65/11/1 66/97/1 132/12/1
f 66/97/1 67/98/1 132/12/1
f 67/98/1 68/99/1 132/12/1
f 68/99/1 69/100/1 132/12/1
f 69/100/1 70/101/1 132/12/1
f 70/101/1 71/80/1 132/12/1
f 132/12/1 61/81/1 63/10/1
f 55/92/1 57/87/1 130/82/1
f 114/14/1 131/102/1 128/9/1
f 128/9/1 126/103/1 95/104/1
f 95/104/1 96/105/1 128/9/1
f 96/105/1 97/106/1 128/9/1
f 97/106/1 98/107/1 128/9/1
f 98/107/1 99/108/1 128/9/1
f 99/108/1 100/109/1 128/9/1
f 100/109/1 101/110/1 128/9/1
f 101/110/1 102/111/1 128/9/1
f 102/111/1 103/112/1 128/9/1
f 103/112/1 104/113/1 128/9/1
f 104/113/1 105/114/1 128/9/1
f 105/114/1 106/115/1 128/9/1
f 106/115/1 107/116/1 128/9/1
f 107/116/1 108/117/1 128/9/1
f 108/117/1 109/118/1 128/9/1
f 109/118/1 110/119/1 128/9/1
f 110/119/1 111/120/1 128/9/1
f 111/120/1 112/121/1 128/9/1
f 112/121/1 113/13/1 128/9/1
f 27/16/1 133/122/1 127/3/1
f 127/3/1 125/123/1 10/124/1
f 10/124/1 11/125/1 127/3/1
f 11/125/1 12/126/1 127/3/1
f 12/126/1 13/127/1 127/3/1
f 13/127/1 14/128/1 127/3/1
f 14/128/1 15/129/1 127/3/1
f 15/129/1 16/130/1 127/3/1
f 16/130/1 17/131/1 127/3/1
f 17/131/1 18/132/1 127/3/1
f 18/132/1 19/133/1 127/3/1
f 19/133/1 20/134/1 127/3/1
f 20/134/1 21/135/1 127/3/1
f 21/135/1 22/136/1 127/3/1
f 22/136/1 23/137/1 127/3/1
f 23/137/1 24/138/1 127/3/1
f 24/138/1 25/139/1 127/3/1
f 25/139/1 26/15/1 127/3/1
o bullseye.002_bullseye.002_front_Circle.005
v 0.355644 -0.040000 -1.376587
v -0.355644 -0.039996 -23.906590
v -0.355644 -0.040000 -1.376587
v 0.355644 -0.039996 -23.906590
vt 0.009968 0.982761
vt 0.020519 0.972210
vt 0.020519 0.982761
vt 0.009968 0.972210
vn 0.0000 1.0000 0.0000
usemtl None.005
s 1
f 140/140/2 141/141/2 142/142/2
f 140/140/2 143/143/2 141/141/2
