# Blender v2.82 (sub 7) OBJ File: ''
# www.blender.org
mtllib huge_side_4.mtl
o side_Circle.019
v -15.836933 0.000000 -17.527790
v -16.858410 0.000000 -16.150486
v -17.739971 0.000000 -14.679690
v -18.473124 0.000000 -13.129567
v -19.050804 0.000000 -11.515052
v -19.467457 0.000000 -9.851684
v -19.719063 0.000000 -8.155488
v -19.803204 0.000000 -6.442798
v -19.803198 0.000000 6.442804
v -19.719057 0.000000 8.155499
v -19.467449 0.000000 9.851700
v -19.050795 0.000000 11.515070
v -18.473106 0.000000 13.129592
v -17.739954 0.000000 14.679716
v -16.858389 0.000000 16.150513
v -15.836906 0.000000 17.527821
v -7.710883 0.080000 -8.671708
v -7.903443 0.080000 -8.133536
v -8.042326 0.080000 -7.579083
v -8.126194 0.080000 -7.013686
v -8.154242 0.080000 -6.442792
v -8.154242 0.080000 6.442795
v -8.126194 0.080000 7.013691
v -8.042326 0.080000 7.579089
v -7.903441 0.080000 8.133544
v -7.710878 0.080000 8.671716
v -12.015510 0.040000 -12.914571
v -12.603214 0.040000 -11.934041
v -13.091981 0.040000 -10.900630
v -13.477100 0.040000 -9.824286
v -13.754869 0.040000 -8.715380
v -13.922606 0.040000 -7.584586
v -13.978699 0.040000 -6.442796
v -13.978697 0.040000 6.442799
v -13.922604 0.040000 7.584592
v -13.754866 0.040000 8.715389
v -13.477096 0.040000 9.824299
v -13.091972 0.040000 10.900644
v -12.603203 0.040000 11.934057
v -12.015494 0.040000 12.914587
v 0.000000 0.000000 -0.000000
v 0.000000 0.040000 -0.000000
v 0.000000 0.080000 -0.000000
v -11.737192 0.040000 -13.289838
v -7.692647 0.080000 -8.710264
v -15.656172 0.000000 -17.727230
v -7.692648 0.080000 8.710261
v -11.737192 0.040000 13.289833
v -15.656172 0.000000 17.727230
vt 0.000000 0.000000
vt 0.000000 0.000000
vt 0.000000 0.000000
vt 0.000000 0.000000
vt 0.000000 0.000000
vt 0.000000 0.000000
vt 0.000000 0.000000
vt 0.000000 0.000000
vt 0.000000 0.000000
vt 0.000000 0.000000
vt 0.000000 0.000000
vt 0.000000 0.000000
vt 0.000000 0.000000
vt 0.000000 0.000000
vt 0.000000 0.000000
vt 0.000000 0.000000
vt 0.000000 0.000000
vt 0.000000 0.000000
vt 0.000000 0.000000
vt 0.000000 0.000000
vt 0.000000 0.000000
vt 0.000000 0.000000
vt 0.000000 0.000000
vt 0.000000 0.000000
vt 0.000000 0.000000
vt 0.000000 0.000000
vt 0.000000 0.000000
vt 0.000000 0.000000
vt 0.000000 0.000000
vt 0.000000 0.000000
vt 0.000000 0.000000
vt 0.000000 0.000000
vt 0.000000 0.000000
vt 0.000000 0.000000
vt 0.000000 0.000000
vt 0.000000 0.000000
vt 0.000000 0.000000
vt 0.000000 0.000000
vt 0.000000 0.000000
vt 0.000000 0.000000
vt 0.000000 0.000000
vt 0.000000 0.000000
vt 0.000000 0.000000
vt 0.000000 0.000000
vt 0.000000 0.000000
vt 0.000000 0.000000
vt 0.000000 0.000000
vt 0.000000 0.000000
vt 0.000000 0.000000
vn 0.0000 1.0000 0.0000
usemtl None
s off
f 24/1/1 25/2/1 47/3/1
f 38/4/1 39/5/1 42/6/1
f 14/7/1 15/8/1 41/9/1
f 26/10/1 47/3/1 25/2/1
f 47/3/1 43/11/1 22/12/1
f 43/11/1 45/13/1 21/14/1
f 45/13/1 17/15/1 18/16/1
f 21/14/1 45/13/1 20/17/1
f 18/16/1 19/18/1 45/13/1
f 19/18/1 20/17/1 45/13/1
f 21/14/1 22/12/1 43/11/1
f 22/12/1 23/19/1 47/3/1
f 23/19/1 24/1/1 47/3/1
f 40/20/1 48/21/1 39/5/1
f 48/21/1 42/6/1 39/5/1
f 42/6/1 44/22/1 28/23/1
f 44/22/1 27/24/1 28/23/1
f 28/23/1 29/25/1 42/6/1
f 29/25/1 30/26/1 42/6/1
f 30/26/1 31/27/1 42/6/1
f 31/27/1 32/28/1 42/6/1
f 32/28/1 33/29/1 42/6/1
f 33/29/1 34/30/1 42/6/1
f 34/30/1 35/31/1 42/6/1
f 35/31/1 36/32/1 42/6/1
f 36/32/1 37/33/1 42/6/1
f 37/33/1 38/4/1 42/6/1
f 16/34/1 49/35/1 15/8/1
f 49/35/1 41/9/1 15/8/1
f 41/9/1 46/36/1 2/37/1
f 46/36/1 1/38/1 2/37/1
f 2/37/1 3/39/1 41/9/1
f 3/39/1 4/40/1 41/9/1
f 4/40/1 5/41/1 41/9/1
f 5/41/1 6/42/1 41/9/1
f 6/42/1 7/43/1 41/9/1
f 7/43/1 8/44/1 41/9/1
f 8/44/1 9/45/1 41/9/1
f 9/45/1 10/46/1 41/9/1
f 10/46/1 11/47/1 41/9/1
f 11/47/1 12/48/1 41/9/1
f 12/48/1 13/49/1 41/9/1
f 13/49/1 14/7/1 41/9/1
