# Blender v2.82 (sub 7) OBJ File: ''
# www.blender.org
mtllib huge_range_3.mtl
o range3_Circle.011
v 2.329804 0.000000 23.916199
v 4.042499 0.000000 23.832058
v 5.738699 0.000000 23.580448
v 7.402070 0.000000 23.163795
v 9.016592 0.000000 22.586105
v 10.566715 0.000000 21.852951
v 12.037514 0.000000 20.971388
v 13.414821 0.000000 19.949905
v 14.685373 0.000000 18.798342
v 15.836931 0.000000 17.527790
v 16.858410 0.000000 16.150486
v 17.739969 0.000000 14.679689
v 18.473122 0.000000 13.129568
v 19.050804 0.000000 11.515051
v 19.467457 0.000000 9.851684
v 19.719065 0.000000 8.155488
v 19.803204 0.000000 6.442798
v 19.803198 0.000000 -6.442806
v 19.719057 0.000000 -8.155500
v 19.467449 0.000000 -9.851701
v 19.050795 0.000000 -11.515071
v 18.473106 0.000000 -13.129594
v 17.739952 0.000000 -14.679717
v 16.858389 0.000000 -16.150517
v 15.836905 0.000000 -17.527824
v 14.685340 0.000000 -18.798374
v 13.414789 0.000000 -19.949932
v 12.037484 0.000000 -20.971413
v 10.566689 0.000000 -21.852970
v 9.016568 0.000000 -22.586124
v 7.402050 0.000000 -23.163807
v 5.738683 0.000000 -23.580460
v 4.042487 0.000000 -23.832066
v 2.329798 0.000000 -23.916206
v -2.329806 0.000000 -23.916199
v -4.042500 0.000000 -23.832058
v -5.738701 0.000000 -23.580448
v -7.402071 0.000000 -23.163795
v -9.016593 0.000000 -22.586105
v -10.566716 0.000000 -21.852951
v -12.037514 0.000000 -20.971386
v -13.414823 0.000000 -19.949905
v -14.685375 0.000000 -18.798344
v -15.836933 0.000000 -17.527790
v -16.858410 0.000000 -16.150486
v -17.739971 0.000000 -14.679690
v -18.473124 0.000000 -13.129567
v -19.050804 0.000000 -11.515052
v -19.467457 0.000000 -9.851684
v -19.719063 0.000000 -8.155488
v -19.803204 0.000000 -6.442798
v -19.803198 0.000000 6.442804
v -19.719057 0.000000 8.155499
v -19.467449 0.000000 9.851700
v -19.050795 0.000000 11.515070
v -18.473106 0.000000 13.129592
v -17.739954 0.000000 14.679716
v -16.858389 0.000000 16.150513
v -15.836906 0.000000 17.527821
v -14.685343 0.000000 18.798374
v -13.414791 0.000000 19.949932
v -12.037485 0.000000 20.971409
v -10.566689 0.000000 21.852970
v -9.016568 0.000000 22.586124
v -7.402050 0.000000 23.163807
v -5.738684 0.000000 23.580456
v -4.042488 0.000000 23.832066
v -2.329798 0.000000 23.916203
vn 0.0000 1.0000 0.0000
usemtl None
s off
f 1//1 9//1 17//1
f 1//1 2//1 3//1
f 3//1 4//1 1//1
f 4//1 5//1 1//1
f 5//1 6//1 7//1
f 7//1 8//1 5//1
f 8//1 9//1 5//1
f 9//1 10//1 13//1
f 10//1 11//1 13//1
f 11//1 12//1 13//1
f 13//1 14//1 15//1
f 15//1 16//1 17//1
f 17//1 18//1 51//1
f 18//1 19//1 34//1
f 51//1 35//1 49//1
f 19//1 20//1 21//1
f 21//1 22//1 25//1
f 22//1 23//1 25//1
f 23//1 24//1 25//1
f 25//1 26//1 27//1
f 27//1 28//1 29//1
f 29//1 30//1 33//1
f 30//1 31//1 33//1
f 31//1 32//1 33//1
f 33//1 34//1 19//1
f 34//1 35//1 18//1
f 35//1 36//1 37//1
f 37//1 38//1 39//1
f 39//1 40//1 41//1
f 41//1 42//1 45//1
f 42//1 43//1 45//1
f 43//1 44//1 45//1
f 45//1 46//1 47//1
f 47//1 48//1 45//1
f 48//1 49//1 45//1
f 49//1 50//1 51//1
f 51//1 52//1 17//1
f 52//1 53//1 68//1
f 17//1 52//1 1//1
f 53//1 54//1 55//1
f 55//1 56//1 53//1
f 56//1 57//1 53//1
f 57//1 58//1 59//1
f 59//1 60//1 57//1
f 60//1 61//1 57//1
f 61//1 62//1 63//1
f 63//1 64//1 65//1
f 65//1 66//1 67//1
f 67//1 68//1 57//1
f 68//1 1//1 52//1
f 57//1 68//1 53//1
f 13//1 15//1 9//1
f 15//1 17//1 9//1
f 35//1 51//1 18//1
f 19//1 21//1 33//1
f 25//1 27//1 33//1
f 27//1 29//1 33//1
f 35//1 37//1 49//1
f 37//1 39//1 41//1
f 61//1 63//1 57//1
f 63//1 65//1 57//1
f 65//1 67//1 57//1
f 1//1 5//1 9//1
f 21//1 25//1 33//1
f 37//1 41//1 49//1
f 41//1 45//1 49//1
