# Blender v2.82 (sub 7) OBJ File: 'smallbase.blend'
# www.blender.org
o range2full_Circle.022
v 2.329785 0.000000 -18.002436
v 13.889184 0.000000 -6.443029
v 13.833525 0.000000 -7.576044
v 13.667074 0.000000 -8.698151
v 13.391444 0.000000 -9.798534
v 13.009284 0.000000 -10.866608
v 12.524274 0.000000 -11.892084
v 11.941084 0.000000 -12.865075
v 11.265336 0.000000 -13.776222
v 10.503531 0.000000 -14.616745
v 9.663012 0.000000 -15.378553
v 8.751866 0.000000 -16.054306
v 7.778875 0.000000 -16.637499
v 6.753407 0.000000 -17.122513
v 5.685334 0.000000 -17.504677
v 4.584947 0.000000 -17.780313
v 3.462843 0.000000 -17.946764
v -13.889194 0.000000 6.443030
v -13.833532 0.000000 7.576050
v -13.667086 0.000000 8.698156
v -13.391450 0.000000 9.798548
v -13.009287 0.000000 10.866619
v -12.524274 0.000000 11.892096
v -11.941084 0.000000 12.865088
v -11.265330 0.000000 13.776236
v -10.503524 0.000000 14.616764
v -9.662995 0.000000 15.378571
v -8.751847 0.000000 16.054319
v -7.778852 0.000000 16.637512
v -6.753379 0.000000 17.122524
v -5.685307 0.000000 17.504684
v -4.584914 0.000000 17.780321
v -3.462805 0.000000 17.946766
v -2.329787 0.000000 18.002424
v 2.329793 0.000000 18.002424
v 3.462813 0.000000 17.946766
v 4.584922 0.000000 17.780315
v 5.685312 0.000000 17.504679
v 6.753385 0.000000 17.122519
v 7.778858 0.000000 16.637501
v 8.751852 0.000000 16.054314
v 9.663000 0.000000 15.378559
v 10.503523 0.000000 14.616747
v 11.265327 0.000000 13.776224
v 11.941079 0.000000 12.865076
v 12.524268 0.000000 11.892086
v 13.009278 0.000000 10.866613
v 13.391441 0.000000 9.798542
v 13.667074 0.000000 8.698156
v 13.833522 0.000000 7.576050
v 13.889184 0.000000 6.443030
v -2.329795 0.000000 -18.002436
v -3.462816 0.000000 -17.946770
v -4.584922 0.000000 -17.780319
v -5.685312 0.000000 -17.504690
v -6.753387 0.000000 -17.122524
v -7.778858 0.000000 -16.637510
v -8.751853 0.000000 -16.054323
v -9.663000 0.000000 -15.378571
v -10.503526 0.000000 -14.616762
v -11.265333 0.000000 -13.776239
v -11.941084 0.000000 -12.865092
v -12.524277 0.000000 -11.892096
v -13.009290 0.000000 -10.866625
v -13.391453 0.000000 -9.798552
v -13.667086 0.000000 -8.698156
v -13.833532 0.000000 -7.576050
v -13.889194 0.000000 -6.443030
v -2.329790 0.000000 -6.443031
v 2.329790 0.000000 -6.443030
v 2.329789 0.000000 6.442785
v -2.329790 0.000000 6.442785
vt 0.515450 0.016832
vt 0.518811 0.891089
vt 0.518400 0.891089
vt 0.515441 0.016832
vt 0.515357 0.016832
vt 0.515357 0.016832
vt 0.515357 0.016832
vt 0.518400 0.891196
vt 0.515450 0.016832
vt 0.518811 0.891196
vt 0.515554 0.016832
vt 0.515563 0.016832
vt 0.515647 0.016832
vt 0.515647 0.016832
vt 0.515647 0.016832
vt 0.515554 0.016832
vt 0.515357 0.016832
vt 0.515359 0.016832
vt 0.515361 0.016832
vt 0.515364 0.016832
vt 0.515368 0.016832
vt 0.515373 0.016832
vt 0.515378 0.016832
vt 0.515384 0.016832
vt 0.515391 0.016832
vt 0.515398 0.016832
vt 0.515406 0.016832
vt 0.515414 0.016832
vt 0.515423 0.016832
vt 0.515432 0.016832
vt 0.515441 0.016832
vt 0.515432 0.016832
vt 0.515423 0.016832
vt 0.515414 0.016832
vt 0.515406 0.016832
vt 0.515398 0.016832
vt 0.515391 0.016832
vt 0.515384 0.016832
vt 0.515378 0.016832
vt 0.515373 0.016832
vt 0.515368 0.016832
vt 0.515364 0.016832
vt 0.515361 0.016832
vt 0.515359 0.016832
vt 0.515647 0.016832
vt 0.515645 0.016832
vt 0.515643 0.016832
vt 0.515640 0.016832
vt 0.515636 0.016832
vt 0.515631 0.016832
vt 0.515626 0.016832
vt 0.515620 0.016832
vt 0.515613 0.016832
vt 0.515606 0.016832
vt 0.515598 0.016832
vt 0.515590 0.016832
vt 0.515581 0.016832
vt 0.515572 0.016832
vt 0.515563 0.016832
vt 0.515572 0.016832
vt 0.515581 0.016832
vt 0.515590 0.016832
vt 0.515598 0.016832
vt 0.515606 0.016832
vt 0.515613 0.016832
vt 0.515620 0.016832
vt 0.515626 0.016832
vt 0.515631 0.016832
vt 0.515636 0.016832
vt 0.515640 0.016832
vt 0.515643 0.016832
vt 0.515645 0.016832
vn 0.0000 1.0000 0.0000
s off
f 68/1/1 72/2/1 69/3/1
f 67/4/1 68/1/1 69/3/1
f 69/3/1 1/5/1 52/6/1
f 17/7/1 1/5/1 70/8/1
f 2/9/1 71/10/1 51/11/1
f 50/12/1 51/11/1 71/10/1
f 71/10/1 34/13/1 35/14/1
f 33/15/1 34/13/1 72/2/1
f 68/1/1 18/16/1 72/2/1
f 52/6/1 53/17/1 69/3/1
f 53/17/1 54/18/1 69/3/1
f 54/18/1 55/19/1 69/3/1
f 55/19/1 56/20/1 69/3/1
f 56/20/1 57/21/1 69/3/1
f 57/21/1 58/22/1 69/3/1
f 58/22/1 59/23/1 69/3/1
f 59/23/1 60/24/1 69/3/1
f 60/24/1 61/25/1 69/3/1
f 61/25/1 62/26/1 69/3/1
f 62/26/1 63/27/1 69/3/1
f 63/27/1 64/28/1 69/3/1
f 64/28/1 65/29/1 69/3/1
f 65/29/1 66/30/1 69/3/1
f 66/30/1 67/4/1 69/3/1
f 69/3/1 70/8/1 1/5/1
f 70/8/1 2/9/1 3/31/1
f 3/31/1 4/32/1 70/8/1
f 4/32/1 5/33/1 70/8/1
f 5/33/1 6/34/1 70/8/1
f 6/34/1 7/35/1 70/8/1
f 7/35/1 8/36/1 70/8/1
f 8/36/1 9/37/1 70/8/1
f 9/37/1 10/38/1 70/8/1
f 10/38/1 11/39/1 70/8/1
f 11/39/1 12/40/1 70/8/1
f 12/40/1 13/41/1 70/8/1
f 13/41/1 14/42/1 70/8/1
f 14/42/1 15/43/1 70/8/1
f 15/43/1 16/44/1 70/8/1
f 16/44/1 17/7/1 70/8/1
f 2/9/1 70/8/1 71/10/1
f 71/10/1 35/14/1 36/45/1
f 36/45/1 37/46/1 71/10/1
f 37/46/1 38/47/1 71/10/1
f 38/47/1 39/48/1 71/10/1
f 39/48/1 40/49/1 71/10/1
f 40/49/1 41/50/1 71/10/1
f 41/50/1 42/51/1 71/10/1
f 42/51/1 43/52/1 71/10/1
f 43/52/1 44/53/1 71/10/1
f 44/53/1 45/54/1 71/10/1
f 45/54/1 46/55/1 71/10/1
f 46/55/1 47/56/1 71/10/1
f 47/56/1 48/57/1 71/10/1
f 48/57/1 49/58/1 71/10/1
f 49/58/1 50/12/1 71/10/1
f 71/10/1 72/2/1 34/13/1
f 72/2/1 18/16/1 19/59/1
f 19/59/1 20/60/1 72/2/1
f 20/60/1 21/61/1 72/2/1
f 21/61/1 22/62/1 72/2/1
f 22/62/1 23/63/1 72/2/1
f 23/63/1 24/64/1 72/2/1
f 24/64/1 25/65/1 72/2/1
f 25/65/1 26/66/1 72/2/1
f 26/66/1 27/67/1 72/2/1
f 27/67/1 28/68/1 72/2/1
f 28/68/1 29/69/1 72/2/1
f 29/69/1 30/70/1 72/2/1
f 30/70/1 31/71/1 72/2/1
f 31/71/1 32/72/1 72/2/1
f 32/72/1 33/15/1 72/2/1
