# Blender v2.82 (sub 7) OBJ File: 'hugebase.blend'
# www.blender.org
o fullfront_Circle.020
v 19.719057 0.000000 -8.155500
v 19.467449 0.000000 -9.851702
v 19.050793 0.000000 -11.515072
v 18.473106 0.000000 -13.129593
v 17.739954 0.000000 -14.679716
v 16.858389 0.000000 -16.150517
v 15.836905 0.000000 -17.527824
v 14.685341 0.000000 -18.798376
v 13.414790 0.000000 -19.949934
v 12.037484 0.000000 -20.971413
v 10.566689 0.000000 -21.852972
v 9.016568 0.000000 -22.586123
v 7.402050 0.000000 -23.163809
v 5.738683 0.000000 -23.580458
v 4.042487 0.000000 -23.832066
v -4.042500 0.000000 -23.832060
v -5.738700 0.000000 -23.580450
v -7.402071 0.000000 -23.163795
v -9.016592 0.000000 -22.586107
v -10.566716 0.000000 -21.852951
v -12.037514 0.000000 -20.971388
v -13.414822 0.000000 -19.949905
v -14.685375 0.000000 -18.798344
v -15.836933 0.000000 -17.527790
v -16.858410 0.000000 -16.150484
v -17.739969 0.000000 -14.679689
v -18.473124 0.000000 -13.129568
v -19.050804 0.000000 -11.515051
v -19.467457 0.000000 -9.851683
v -19.719063 0.000000 -8.155489
v 13.922603 0.040000 -7.584593
v 13.754865 0.040000 -8.715391
v 13.477096 0.040000 -9.824301
v 13.091971 0.040000 -10.900648
v 12.603204 0.040000 -11.934059
v 12.015495 0.040000 -12.914591
v 11.334509 0.040000 -13.832792
v 10.566801 0.040000 -14.679825
v 9.719769 0.040000 -15.447527
v 8.801568 0.040000 -16.128511
v 7.821041 0.040000 -16.716217
v 6.787629 0.040000 -17.204983
v 5.711287 0.040000 -17.590103
v 4.602379 0.040000 -17.867872
v 3.471585 0.040000 -18.035608
v -3.471594 0.040000 -18.035604
v -4.602391 0.040000 -17.867867
v -5.711301 0.040000 -17.590096
v -6.787646 0.040000 -17.204975
v -7.821058 0.040000 -16.716204
v -8.801587 0.040000 -16.128496
v -9.719790 0.040000 -15.447510
v -10.566822 0.040000 -14.679802
v -11.334526 0.040000 -13.832769
v -12.015509 0.040000 -12.914570
v -12.603214 0.040000 -11.934040
v -13.091981 0.040000 -10.900631
v -13.477100 0.040000 -9.824286
v -13.754869 0.040000 -8.715380
v -13.922606 0.040000 -7.584585
v 8.126194 0.080000 -7.013690
v 8.042324 0.080000 -7.579089
v 7.903440 0.080000 -8.133543
v 7.710878 0.080000 -8.671715
v 7.466495 0.080000 -9.188421
v 7.172640 0.080000 -9.678684
v 6.832147 0.080000 -10.137787
v 6.448293 0.080000 -10.561302
v 6.024778 0.080000 -10.945152
v 5.565678 0.080000 -11.285645
v 5.075414 0.080000 -11.579498
v 4.558709 0.080000 -11.823881
v 4.020538 0.080000 -12.016441
v 3.466084 0.080000 -12.155325
v 2.900687 0.080000 -12.239193
v -2.900692 0.080000 -12.239193
v -3.466090 0.080000 -12.155323
v -4.020545 0.080000 -12.016439
v -4.558717 0.080000 -11.823877
v -5.075423 0.080000 -11.579494
v -5.565687 0.080000 -11.285641
v -6.024788 0.080000 -10.945147
v -6.448304 0.080000 -10.561293
v -6.832155 0.080000 -10.137775
v -7.172647 0.080000 -9.678677
v -7.466498 0.080000 -9.188414
v -7.710883 0.080000 -8.671707
v -7.903443 0.080000 -8.133535
v -8.042325 0.080000 -7.579083
v -8.126194 0.080000 -7.013686
v 19.719059 0.000000 -0.000000
v 13.922604 0.040000 0.000000
v 8.126194 0.080000 0.000000
v -19.719061 0.000000 -0.000000
v -13.922604 0.040000 -0.000000
v -8.126194 0.080000 0.000000
vt 0.494628 0.027527
vt 0.494629 0.027528
vt 0.494625 0.027526
vt 0.504637 0.020118
vt 0.504636 0.020121
vt 0.504634 0.020130
vt 0.504814 0.009775
vt 0.504818 0.009769
vt 0.504822 0.009746
vt 0.494617 0.027530
vt 0.494617 0.027528
vt 0.494630 0.027528
vt 0.494617 0.027528
vt 0.494622 0.027526
vt 0.494617 0.027528
vt 0.494617 0.027527
vt 0.494618 0.027527
vt 0.494619 0.027526
vt 0.494618 0.027527
vt 0.494618 0.027527
vt 0.494619 0.027526
vt 0.494620 0.027526
vt 0.494619 0.027526
vt 0.494620 0.027526
vt 0.494621 0.027526
vt 0.494621 0.027526
vt 0.494625 0.027526
vt 0.494626 0.027526
vt 0.494626 0.027526
vt 0.494627 0.027526
vt 0.494627 0.027526
vt 0.494628 0.027526
vt 0.494628 0.027526
vt 0.494629 0.027527
vt 0.494629 0.027527
vt 0.494629 0.027527
vt 0.494630 0.027528
vt 0.494630 0.027530
vt 0.504634 0.020147
vt 0.504647 0.020147
vt 0.504647 0.020130
vt 0.504647 0.020129
vt 0.504643 0.020118
vt 0.504643 0.020118
vt 0.504647 0.020128
vt 0.504646 0.020124
vt 0.504647 0.020126
vt 0.504646 0.020125
vt 0.504646 0.020123
vt 0.504646 0.020122
vt 0.504645 0.020121
vt 0.504645 0.020120
vt 0.504645 0.020120
vt 0.504644 0.020119
vt 0.504644 0.020118
vt 0.504638 0.020118
vt 0.504638 0.020118
vt 0.504637 0.020119
vt 0.504637 0.020120
vt 0.504636 0.020120
vt 0.504636 0.020122
vt 0.504635 0.020123
vt 0.504635 0.020124
vt 0.504635 0.020125
vt 0.504634 0.020126
vt 0.504634 0.020128
vt 0.504634 0.020129
vt 0.504822 0.009731
vt 0.504796 0.009731
vt 0.504796 0.009746
vt 0.504797 0.009750
vt 0.504807 0.009776
vt 0.504797 0.009753
vt 0.504797 0.009756
vt 0.504798 0.009759
vt 0.504798 0.009762
vt 0.504799 0.009764
vt 0.504800 0.009767
vt 0.504800 0.009769
vt 0.504801 0.009771
vt 0.504802 0.009772
vt 0.504803 0.009774
vt 0.504804 0.009775
vt 0.504806 0.009776
vt 0.504812 0.009776
vt 0.504813 0.009776
vt 0.504815 0.009774
vt 0.504816 0.009772
vt 0.504817 0.009771
vt 0.504819 0.009767
vt 0.504820 0.009764
vt 0.504821 0.009762
vt 0.504821 0.009759
vt 0.504822 0.009756
vt 0.504822 0.009753
vt 0.504822 0.009750
vn 0.0000 1.0000 0.0000
s off
f 54/1/1 58/2/1 46/3/1
f 78/4/1 82/5/1 90/6/1
f 18/7/1 22/8/1 30/9/1
f 92/10/1 31/11/1 60/12/1
f 31/11/1 32/13/1 45/14/1
f 46/3/1 31/11/1 45/14/1
f 32/13/1 33/15/1 34/16/1
f 34/16/1 35/17/1 38/18/1
f 35/17/1 36/19/1 38/18/1
f 36/19/1 37/20/1 38/18/1
f 38/18/1 39/21/1 42/22/1
f 39/21/1 40/23/1 42/22/1
f 40/23/1 41/24/1 42/22/1
f 42/22/1 43/25/1 44/26/1
f 44/26/1 45/14/1 34/16/1
f 34/16/1 45/14/1 32/13/1
f 46/3/1 47/27/1 48/28/1
f 48/28/1 49/29/1 50/30/1
f 50/30/1 51/31/1 54/1/1
f 51/31/1 52/32/1 54/1/1
f 52/32/1 53/33/1 54/1/1
f 54/1/1 55/34/1 56/35/1
f 56/35/1 57/36/1 58/2/1
f 58/2/1 59/37/1 60/12/1
f 60/12/1 95/38/1 92/10/1
f 31/11/1 46/3/1 60/12/1
f 42/22/1 44/26/1 34/16/1
f 46/3/1 48/28/1 54/1/1
f 48/28/1 50/30/1 54/1/1
f 54/1/1 56/35/1 58/2/1
f 58/2/1 60/12/1 46/3/1
f 34/16/1 38/18/1 42/22/1
f 90/6/1 96/39/1 93/40/1
f 93/40/1 61/41/1 90/6/1
f 61/41/1 62/42/1 74/43/1
f 90/6/1 61/41/1 75/44/1
f 62/42/1 63/45/1 66/46/1
f 63/45/1 64/47/1 66/46/1
f 64/47/1 65/48/1 66/46/1
f 66/46/1 67/49/1 68/50/1
f 68/50/1 69/51/1 66/46/1
f 69/51/1 70/52/1 66/46/1
f 70/52/1 71/53/1 72/54/1
f 72/54/1 73/55/1 70/52/1
f 73/55/1 74/43/1 70/52/1
f 74/43/1 75/44/1 61/41/1
f 75/44/1 76/56/1 90/6/1
f 76/56/1 77/57/1 78/4/1
f 78/4/1 79/58/1 82/5/1
f 79/58/1 80/59/1 82/5/1
f 80/59/1 81/60/1 82/5/1
f 82/5/1 83/61/1 84/62/1
f 84/62/1 85/63/1 86/64/1
f 86/64/1 87/65/1 88/66/1
f 88/66/1 89/67/1 86/64/1
f 89/67/1 90/6/1 86/64/1
f 76/56/1 78/4/1 90/6/1
f 82/5/1 84/62/1 90/6/1
f 84/62/1 86/64/1 90/6/1
f 62/42/1 66/46/1 74/43/1
f 66/46/1 70/52/1 74/43/1
f 30/9/1 94/68/1 91/69/1
f 91/69/1 1/70/1 30/9/1
f 1/70/1 2/71/1 15/72/1
f 30/9/1 1/70/1 15/72/1
f 2/71/1 3/73/1 4/74/1
f 4/74/1 5/75/1 6/76/1
f 6/76/1 7/77/1 8/78/1
f 8/78/1 9/79/1 10/80/1
f 10/80/1 11/81/1 12/82/1
f 12/82/1 13/83/1 14/84/1
f 14/84/1 15/72/1 2/71/1
f 15/72/1 16/85/1 30/9/1
f 16/85/1 17/86/1 18/7/1
f 18/7/1 19/87/1 22/8/1
f 19/87/1 20/88/1 22/8/1
f 20/88/1 21/89/1 22/8/1
f 22/8/1 23/90/1 24/91/1
f 24/91/1 25/92/1 22/8/1
f 25/92/1 26/93/1 22/8/1
f 26/93/1 27/94/1 28/95/1
f 28/95/1 29/96/1 30/9/1
f 2/71/1 4/74/1 6/76/1
f 6/76/1 8/78/1 14/84/1
f 8/78/1 10/80/1 14/84/1
f 10/80/1 12/82/1 14/84/1
f 16/85/1 18/7/1 30/9/1
f 26/93/1 28/95/1 22/8/1
f 28/95/1 30/9/1 22/8/1
f 2/71/1 6/76/1 14/84/1
o bullseye.003_bullseye.002_front_Circle.003
v 0.355644 -0.040000 -1.376587
v -0.355644 -0.039996 -23.906590
v -0.355644 -0.040000 -1.376587
v 0.355644 -0.039996 -23.906590
vt 0.009968 0.982761
vt 0.020519 0.972210
vt 0.020519 0.982761
vt 0.009968 0.972210
vn 0.0000 1.0000 0.0000
s 1
f 97/97/2 98/98/2 99/99/2
f 97/97/2 100/100/2 98/98/2
