# Blender v2.82 (sub 7) OBJ File: ''
# www.blender.org
mtllib huge_front.mtl
o front_Circle.018
v 14.685340 0.000000 -18.798374
v 13.414789 0.000000 -19.949932
v 12.037484 0.000000 -20.971413
v 10.566689 0.000000 -21.852970
v 9.016568 0.000000 -22.586124
v 7.402050 0.000000 -23.163807
v 5.738683 0.000000 -23.580460
v 4.042487 0.000000 -23.832066
v 2.329798 0.000000 -23.916206
v -2.329806 0.000000 -23.916199
v -4.042500 0.000000 -23.832058
v -5.738701 0.000000 -23.580448
v -7.402071 0.000000 -23.163795
v -9.016593 0.000000 -22.586105
v -10.566716 0.000000 -21.852951
v -12.037514 0.000000 -20.971386
v -13.414823 0.000000 -19.949905
v -14.685375 0.000000 -18.798344
v 7.466494 0.080000 -9.188422
v 7.172640 0.080000 -9.678685
v 6.832147 0.080000 -10.137786
v 6.448293 0.080000 -10.561303
v 6.024778 0.080000 -10.945153
v 5.565678 0.080000 -11.285645
v 5.075414 0.080000 -11.579499
v 4.558709 0.080000 -11.823882
v 4.020538 0.080000 -12.016442
v 3.466084 0.080000 -12.155326
v 2.900687 0.080000 -12.239192
v 2.329792 0.080000 -12.267240
v -2.329796 0.080000 -12.267240
v -2.900692 0.080000 -12.239192
v -3.466090 0.080000 -12.155324
v -4.020545 0.080000 -12.016440
v -4.558717 0.080000 -11.823878
v -5.075423 0.080000 -11.579495
v -5.565687 0.080000 -11.285640
v -6.024789 0.080000 -10.945148
v -6.448304 0.080000 -10.561292
v -6.832155 0.080000 -10.137778
v -7.172647 0.080000 -9.678678
v -7.466498 0.080000 -9.188414
v 11.334508 0.040000 -13.832793
v 10.566800 0.040000 -14.679824
v 9.719769 0.040000 -15.447526
v 8.801567 0.040000 -16.128510
v 7.821040 0.040000 -16.716217
v 6.787630 0.040000 -17.204983
v 5.711287 0.040000 -17.590103
v 4.602379 0.040000 -17.867870
v 3.471585 0.040000 -18.035606
v 2.329795 0.040000 -18.091702
v -2.329801 0.040000 -18.091698
v -3.471594 0.040000 -18.035606
v -4.602391 0.040000 -17.867867
v -5.711301 0.040000 -17.590096
v -6.787646 0.040000 -17.204975
v -7.821058 0.040000 -16.716206
v -8.801587 0.040000 -16.128494
v -9.719790 0.040000 -15.447509
v -10.566823 0.040000 -14.679801
v -11.334527 0.040000 -13.832770
v 15.656172 0.000000 -17.727230
v 11.737193 0.040000 -13.289836
v 0.000000 0.000000 -0.000000
v 0.000000 0.040000 -0.000000
v 0.000000 0.080000 -0.000000
v 7.692648 0.080000 -8.710261
v -11.737192 0.040000 -13.289838
v -7.692647 0.080000 -8.710264
v -15.656172 0.000000 -17.727230
vt 0.000000 0.000000
vt 0.000000 0.000000
vt 0.000000 0.000000
vt 0.000000 0.000000
vt 0.000000 0.000000
vt 0.000000 0.000000
vt 0.000000 0.000000
vt 0.000000 0.000000
vt 0.000000 0.000000
vt 0.000000 0.000000
vt 0.000000 0.000000
vt 0.000000 0.000000
vt 0.000000 0.000000
vt 0.000000 0.000000
vt 0.000000 0.000000
vt 0.000000 0.000000
vt 0.000000 0.000000
vt 0.000000 0.000000
vt 0.000000 0.000000
vt 0.000000 0.000000
vt 0.000000 0.000000
vt 0.000000 0.000000
vt 0.000000 0.000000
vt 0.000000 0.000000
vt 0.000000 0.000000
vt 0.000000 0.000000
vt 0.000000 0.000000
vt 0.000000 0.000000
vt 0.000000 0.000000
vt 0.000000 0.000000
vt 0.000000 0.000000
vt 0.000000 0.000000
vt 0.000000 0.000000
vt 0.000000 0.000000
vt 0.000000 0.000000
vt 0.000000 0.000000
vt 0.000000 0.000000
vt 0.000000 0.000000
vt 0.000000 0.000000
vt 0.000000 0.000000
vt 0.000000 0.000000
vt 0.000000 0.000000
vt 0.000000 0.000000
vt 0.000000 0.000000
vt 0.000000 0.000000
vt 0.000000 0.000000
vt 0.000000 0.000000
vt 0.000000 0.000000
vt 0.000000 0.000000
vt 0.000000 0.000000
vt 0.000000 0.000000
vt 0.000000 0.000000
vt 0.000000 0.000000
vt 0.000000 0.000000
vt 0.000000 0.000000
vt 0.000000 0.000000
vt 0.000000 0.000000
vt 0.000000 0.000000
vt 0.000000 0.000000
vt 0.000000 0.000000
vt 0.000000 0.000000
vt 0.000000 0.000000
vt 0.000000 0.000000
vt 0.000000 0.000000
vt 0.000000 0.000000
vt 0.000000 0.000000
vt 0.000000 0.000000
vt 0.000000 0.000000
vt 0.000000 0.000000
vt 0.000000 0.000000
vt 0.000000 0.000000
vn 0.0000 1.0000 0.0000
usemtl None
s off
f 33/1/1 35/2/1 70/3/1
f 61/4/1 62/5/1 66/6/1
f 17/7/1 18/8/1 65/9/1
f 42/10/1 70/3/1 41/11/1
f 70/3/1 67/12/1 31/13/1
f 67/12/1 68/14/1 30/15/1
f 68/14/1 19/16/1 20/17/1
f 29/18/1 68/14/1 27/19/1
f 20/17/1 21/20/1 68/14/1
f 21/20/1 22/21/1 68/14/1
f 22/21/1 23/22/1 68/14/1
f 23/22/1 24/23/1 68/14/1
f 24/23/1 25/24/1 68/14/1
f 25/24/1 26/25/1 27/19/1
f 27/19/1 28/26/1 29/18/1
f 29/18/1 30/15/1 68/14/1
f 30/15/1 31/13/1 67/12/1
f 31/13/1 32/27/1 33/1/1
f 33/1/1 34/28/1 35/2/1
f 35/2/1 36/29/1 70/3/1
f 36/29/1 37/30/1 70/3/1
f 37/30/1 38/31/1 70/3/1
f 38/31/1 39/32/1 70/3/1
f 39/32/1 40/33/1 70/3/1
f 40/33/1 41/11/1 70/3/1
f 70/3/1 31/13/1 33/1/1
f 25/24/1 27/19/1 68/14/1
f 62/5/1 69/34/1 66/6/1
f 66/6/1 64/35/1 43/36/1
f 43/36/1 44/37/1 66/6/1
f 44/37/1 45/38/1 66/6/1
f 45/38/1 46/39/1 66/6/1
f 46/39/1 47/40/1 66/6/1
f 47/40/1 48/41/1 66/6/1
f 48/41/1 49/42/1 66/6/1
f 49/42/1 50/43/1 66/6/1
f 50/43/1 51/44/1 66/6/1
f 51/44/1 52/45/1 66/6/1
f 52/45/1 53/46/1 66/6/1
f 53/46/1 54/47/1 66/6/1
f 54/47/1 55/48/1 66/6/1
f 55/48/1 56/49/1 66/6/1
f 56/49/1 57/50/1 66/6/1
f 57/50/1 58/51/1 66/6/1
f 58/51/1 59/52/1 66/6/1
f 59/52/1 60/53/1 66/6/1
f 60/53/1 61/4/1 66/6/1
f 18/8/1 71/54/1 65/9/1
f 65/9/1 63/55/1 1/56/1
f 1/56/1 2/57/1 65/9/1
f 2/57/1 3/58/1 65/9/1
f 3/58/1 4/59/1 65/9/1
f 4/59/1 5/60/1 65/9/1
f 5/60/1 6/61/1 65/9/1
f 6/61/1 7/62/1 65/9/1
f 7/62/1 8/63/1 65/9/1
f 8/63/1 9/64/1 65/9/1
f 9/64/1 10/65/1 65/9/1
f 10/65/1 11/66/1 65/9/1
f 11/66/1 12/67/1 65/9/1
f 12/67/1 13/68/1 65/9/1
f 13/68/1 14/69/1 65/9/1
f 14/69/1 15/70/1 65/9/1
f 15/70/1 16/71/1 65/9/1
f 16/71/1 17/7/1 65/9/1
o bullseye.002_bullseye.002_front_Circle.005
v 0.355644 -0.040000 -1.376587
v -0.355644 -0.039996 -23.906590
v -0.355644 -0.040000 -1.376587
v 0.355644 -0.039996 -23.906590
vt 0.009968 0.982761
vt 0.020519 0.972210
vt 0.020519 0.982761
vt 0.009968 0.972210
vn 0.0000 1.0000 0.0000
usemtl None.005
s 1
f 72/72/2 73/73/2 74/74/2
f 72/72/2 75/75/2 73/73/2
