# Blender v2.82 (sub 7) OBJ File: 'hugebase.blend'
# www.blender.org
o range2_Circle.007
v 2.329799 0.000000 18.091696
v 3.471592 0.000000 18.035603
v 4.602389 0.000000 17.867863
v 5.711300 0.000000 17.590096
v 6.787645 0.000000 17.204971
v 7.821058 0.000000 16.716202
v 8.801586 0.000000 16.128494
v 9.719790 0.000000 15.447508
v 10.566822 0.000000 14.679801
v 11.334525 0.000000 13.832769
v 12.015509 0.000000 12.914568
v 12.603213 0.000000 11.934040
v 13.091980 0.000000 10.900629
v 13.477100 0.000000 9.824287
v 13.754868 0.000000 8.715380
v 13.922606 0.000000 7.584586
v 13.978699 0.000000 6.442795
v 13.978695 0.000000 -6.442801
v 13.922602 0.000000 -7.584594
v 13.754863 0.000000 -8.715390
v 13.477094 0.000000 -9.824300
v 13.091970 0.000000 -10.900645
v 12.603202 0.000000 -11.934058
v 12.015494 0.000000 -12.914588
v 11.334508 0.000000 -13.832791
v 10.566800 0.000000 -14.679822
v 9.719769 0.000000 -15.447526
v 8.801567 0.000000 -16.128510
v 7.821040 0.000000 -16.716213
v 6.787629 0.000000 -17.204979
v 5.711287 0.000000 -17.590103
v 4.602379 0.000000 -17.867870
v 3.471585 0.000000 -18.035606
v 2.329795 0.000000 -18.091698
v -2.329801 0.000000 -18.091698
v -3.471593 0.000000 -18.035603
v -4.602390 0.000000 -17.867863
v -5.711301 0.000000 -17.590092
v -6.787645 0.000000 -17.204971
v -7.821058 0.000000 -16.716202
v -8.801586 0.000000 -16.128494
v -9.719790 0.000000 -15.447509
v -10.566822 0.000000 -14.679801
v -11.334525 0.000000 -13.832768
v -12.015508 0.000000 -12.914569
v -12.603213 0.000000 -11.934041
v -13.091980 0.000000 -10.900630
v -13.477099 0.000000 -9.824286
v -13.754868 0.000000 -8.715379
v -13.922606 0.000000 -7.584585
v -13.978699 0.000000 -6.442795
v -13.978695 0.000000 6.442799
v -13.922602 0.000000 7.584592
v -13.754864 0.000000 8.715389
v -13.477095 0.000000 9.824299
v -13.091970 0.000000 10.900644
v -12.603202 0.000000 11.934057
v -12.015494 0.000000 12.914586
v -11.334507 0.000000 13.832788
v -10.566800 0.000000 14.679821
v -9.719769 0.000000 15.447524
v -8.801568 0.000000 16.128508
v -7.821040 0.000000 16.716213
v -6.787629 0.000000 17.204979
v -5.711287 0.000000 17.590099
v -4.602379 0.000000 17.867867
v -3.471585 0.000000 18.035606
v -2.329795 0.000000 18.091698
v 0.000000 0.000000 0.000000
vt 0.494619 0.027526
vt 0.492163 0.856813
vt 0.494619 0.027526
vt 0.494619 0.027533
vt 0.494619 0.027533
vt 0.494621 0.027533
vt 0.494622 0.027533
vt 0.494629 0.027532
vt 0.494630 0.027531
vt 0.494618 0.027527
vt 0.494630 0.027528
vt 0.494630 0.027528
vt 0.494630 0.027528
vt 0.494629 0.027528
vt 0.494629 0.027527
vt 0.494629 0.027527
vt 0.494629 0.027527
vt 0.494628 0.027527
vt 0.494628 0.027526
vt 0.494628 0.027526
vt 0.494627 0.027526
vt 0.494627 0.027526
vt 0.494626 0.027526
vt 0.494626 0.027526
vt 0.494625 0.027526
vt 0.494625 0.027526
vt 0.494624 0.027526
vt 0.494622 0.027526
vt 0.494622 0.027526
vt 0.494621 0.027526
vt 0.494621 0.027526
vt 0.494620 0.027526
vt 0.494620 0.027526
vt 0.494619 0.027526
vt 0.494619 0.027533
vt 0.494618 0.027527
vt 0.494618 0.027527
vt 0.494617 0.027527
vt 0.494617 0.027528
vt 0.494617 0.027528
vt 0.494617 0.027528
vt 0.494617 0.027528
vt 0.494617 0.027531
vt 0.494617 0.027531
vt 0.494617 0.027531
vt 0.494617 0.027532
vt 0.494617 0.027532
vt 0.494618 0.027532
vt 0.494618 0.027532
vt 0.494618 0.027533
vt 0.494622 0.027533
vt 0.494624 0.027533
vt 0.494625 0.027533
vt 0.494625 0.027533
vt 0.494626 0.027533
vt 0.494626 0.027533
vt 0.494627 0.027533
vt 0.494627 0.027533
vt 0.494628 0.027533
vt 0.494620 0.027533
vt 0.494620 0.027533
vt 0.494621 0.027533
vt 0.494630 0.027531
vt 0.494630 0.027531
vt 0.494628 0.027533
vt 0.494628 0.027533
vt 0.494629 0.027532
vt 0.494629 0.027532
vt 0.494629 0.027532
vn 0.0000 1.0000 0.0000
s off
f 27/1/1 69/2/1 26/3/1
f 9/4/1 69/2/1 8/5/1
f 3/6/1 69/2/1 2/7/1
f 55/8/1 69/2/1 54/9/1
f 26/3/1 69/2/1 25/10/1
f 69/2/1 50/11/1 51/12/1
f 50/11/1 69/2/1 49/13/1
f 49/13/1 69/2/1 48/14/1
f 48/14/1 69/2/1 47/15/1
f 47/15/1 69/2/1 46/16/1
f 46/16/1 69/2/1 45/17/1
f 45/17/1 69/2/1 44/18/1
f 44/18/1 69/2/1 43/19/1
f 43/19/1 69/2/1 42/20/1
f 42/20/1 69/2/1 41/21/1
f 41/21/1 69/2/1 40/22/1
f 40/22/1 69/2/1 39/23/1
f 39/23/1 69/2/1 38/24/1
f 38/24/1 69/2/1 37/25/1
f 37/25/1 69/2/1 36/26/1
f 36/26/1 69/2/1 35/27/1
f 35/27/1 69/2/1 34/28/1
f 34/28/1 69/2/1 33/29/1
f 33/29/1 69/2/1 32/30/1
f 32/30/1 69/2/1 31/31/1
f 31/31/1 69/2/1 30/32/1
f 30/32/1 69/2/1 29/33/1
f 29/33/1 69/2/1 28/34/1
f 28/34/1 69/2/1 27/1/1
f 8/5/1 69/2/1 7/35/1
f 69/2/1 24/36/1 25/10/1
f 24/36/1 69/2/1 23/37/1
f 23/37/1 69/2/1 22/38/1
f 22/38/1 69/2/1 21/39/1
f 21/39/1 69/2/1 20/40/1
f 20/40/1 69/2/1 19/41/1
f 19/41/1 69/2/1 18/42/1
f 18/42/1 69/2/1 17/43/1
f 17/43/1 69/2/1 16/44/1
f 16/44/1 69/2/1 15/45/1
f 15/45/1 69/2/1 14/46/1
f 14/46/1 69/2/1 13/47/1
f 13/47/1 69/2/1 12/48/1
f 12/48/1 69/2/1 11/49/1
f 11/49/1 69/2/1 10/50/1
f 10/50/1 69/2/1 9/4/1
f 2/7/1 69/2/1 1/51/1
f 1/51/1 69/2/1 68/52/1
f 68/52/1 69/2/1 67/53/1
f 67/53/1 69/2/1 66/54/1
f 66/54/1 69/2/1 65/55/1
f 65/55/1 69/2/1 64/56/1
f 64/56/1 69/2/1 63/57/1
f 63/57/1 69/2/1 62/58/1
f 62/58/1 69/2/1 61/59/1
f 69/2/1 6/60/1 7/35/1
f 6/60/1 69/2/1 5/61/1
f 5/61/1 69/2/1 4/62/1
f 4/62/1 69/2/1 3/6/1
f 53/63/1 69/2/1 52/64/1
f 52/64/1 69/2/1 51/12/1
f 69/2/1 60/65/1 61/59/1
f 53/63/1 54/9/1 69/2/1
f 60/65/1 69/2/1 59/66/1
f 59/66/1 69/2/1 58/67/1
f 58/67/1 69/2/1 57/68/1
f 57/68/1 69/2/1 56/69/1
f 56/69/1 69/2/1 55/8/1
