# Blender v2.82 (sub 7) OBJ File: 'smallbase.blend'
# www.blender.org
o range5full_Circle.063
v -5.162354 0.000000 -35.202381
v -7.967621 0.000000 -34.786255
v -10.718595 0.000000 -34.097179
v -13.388783 0.000000 -33.141766
v -15.952461 0.000000 -31.929230
v -18.384947 0.000000 -30.471264
v -20.662817 0.000000 -28.781879
v -22.764132 0.000000 -26.877361
v -24.668648 0.000000 -24.776054
v -26.358027 0.000000 -22.498184
v -27.816008 0.000000 -20.065693
v -29.028540 0.000000 -17.502014
v -29.983948 0.000000 -14.831833
v -30.673031 0.000000 -12.080845
v -31.089148 0.000000 -9.275579
v -31.228304 0.000000 -6.443028
v 2.329797 0.000000 35.341515
v 5.162347 0.000000 35.202366
v 7.967621 0.000000 34.786243
v 10.718595 0.000000 34.097153
v 13.388777 0.000000 33.141750
v 15.952461 0.000000 31.929205
v 18.384947 0.000000 30.471239
v 20.662817 0.000000 28.781855
v 22.764124 0.000000 26.877325
v 24.668634 0.000000 24.776016
v 26.358013 0.000000 22.498148
v 27.815987 0.000000 20.065668
v 29.028511 0.000000 17.501991
v 29.983919 0.000000 14.831808
v 30.673002 0.000000 12.080849
v 31.089121 0.000000 9.275581
v 31.228277 0.000000 6.443031
v -31.228304 0.000000 6.443031
v -31.089148 0.000000 9.275581
v -30.673031 0.000000 12.080849
v -29.983940 0.000000 14.831821
v -29.028532 0.000000 17.502005
v -27.816000 0.000000 20.065695
v -26.358027 0.000000 22.498175
v -24.668640 0.000000 24.776045
v -22.764124 0.000000 26.877367
v -20.662804 0.000000 28.781881
v -18.384933 0.000000 30.471254
v -15.952448 0.000000 31.929235
v -13.388763 0.000000 33.141766
v -10.718581 0.000000 34.097164
v -7.967600 0.000000 34.786255
v -5.162327 0.000000 35.202366
v -2.329780 0.000000 35.341599
v 31.228277 0.000000 -6.443029
v 31.089128 0.000000 -9.275566
v 30.673002 0.000000 -12.080832
v 29.983927 0.000000 -14.831791
v 29.028526 0.000000 -17.501974
v 27.816000 0.000000 -20.065664
v 26.358027 0.000000 -22.498144
v 24.668655 0.000000 -24.776012
v 22.764145 0.000000 -26.877319
v 20.662844 0.000000 -28.781837
v 18.384981 0.000000 -30.471222
v 15.952501 0.000000 -31.929203
v 13.388831 0.000000 -33.141735
v 10.718649 0.000000 -34.097153
v 7.967683 0.000000 -34.786240
v 5.162423 0.000000 -35.202366
v -2.329790 -0.000000 -6.443031
v 2.329790 0.000000 -6.443030
v 2.329789 0.000000 6.442787
v -2.329790 0.000000 6.442785
v -2.329780 0.000000 -35.341599
v -2.329780 0.000000 35.341599
v 2.329780 0.000000 -35.341599
vt 0.510991 0.020715
vt 0.510990 0.020714
vt 0.513124 0.872048
vt 0.510993 0.021083
vt 0.510993 0.021187
vt 0.513124 0.872047
vt 0.513125 0.872048
vt 0.510989 0.020717
vt 0.510986 0.021095
vt 0.510986 0.021135
vt 0.510990 0.020715
vt 0.513125 0.872047
vt 0.510989 0.020718
vt 0.510989 0.020720
vt 0.510986 0.021202
vt 0.510993 0.021121
vt 0.510993 0.021080
vt 0.510993 0.021040
vt 0.510993 0.021001
vt 0.510993 0.020963
vt 0.510993 0.020927
vt 0.510993 0.020893
vt 0.510993 0.020860
vt 0.510992 0.020831
vt 0.510992 0.020804
vt 0.510992 0.020780
vt 0.510992 0.020760
vt 0.510991 0.020743
vt 0.510991 0.020730
vt 0.510991 0.020721
vt 0.510991 0.020716
vt 0.510991 0.020721
vt 0.510991 0.020731
vt 0.510991 0.020744
vt 0.510992 0.020761
vt 0.510992 0.020781
vt 0.510992 0.020805
vt 0.510992 0.020832
vt 0.510993 0.020862
vt 0.510993 0.020894
vt 0.510993 0.020929
vt 0.510993 0.020965
vt 0.510993 0.021004
vt 0.510993 0.021043
vt 0.510989 0.020719
vt 0.510988 0.020726
vt 0.510988 0.020736
vt 0.510988 0.020750
vt 0.510988 0.020768
vt 0.510987 0.020790
vt 0.510987 0.020814
vt 0.510987 0.020842
vt 0.510987 0.020872
vt 0.510987 0.020905
vt 0.510986 0.020940
vt 0.510986 0.020977
vt 0.510986 0.021015
vt 0.510986 0.021055
vt 0.510986 0.021099
vt 0.510986 0.021059
vt 0.510986 0.021019
vt 0.510986 0.020980
vt 0.510986 0.020943
vt 0.510987 0.020908
vt 0.510987 0.020875
vt 0.510987 0.020844
vt 0.510987 0.020816
vt 0.510987 0.020791
vt 0.510988 0.020770
vt 0.510988 0.020752
vt 0.510988 0.020737
vt 0.510988 0.020727
vn 0.0000 1.0000 0.0000
s off
f 15/1/1 16/2/1 67/3/1
f 66/4/1 73/5/1 68/6/1
f 70/7/1 16/2/1 34/8/1
f 49/9/1 72/10/1 70/7/1
f 73/5/1 67/3/1 68/6/1
f 51/11/1 69/12/1 33/13/1
f 32/14/1 33/13/1 69/12/1
f 70/7/1 17/15/1 69/12/1
f 71/16/1 1/17/1 67/3/1
f 1/17/1 2/18/1 67/3/1
f 2/18/1 3/19/1 67/3/1
f 3/19/1 4/20/1 67/3/1
f 4/20/1 5/21/1 67/3/1
f 5/21/1 6/22/1 67/3/1
f 6/22/1 7/23/1 67/3/1
f 7/23/1 8/24/1 67/3/1
f 8/24/1 9/25/1 67/3/1
f 9/25/1 10/26/1 67/3/1
f 10/26/1 11/27/1 67/3/1
f 11/27/1 12/28/1 67/3/1
f 12/28/1 13/29/1 67/3/1
f 13/29/1 14/30/1 67/3/1
f 14/30/1 15/1/1 67/3/1
f 51/11/1 52/31/1 68/6/1
f 52/31/1 53/32/1 68/6/1
f 53/32/1 54/33/1 68/6/1
f 54/33/1 55/34/1 68/6/1
f 55/34/1 56/35/1 68/6/1
f 56/35/1 57/36/1 68/6/1
f 57/36/1 58/37/1 68/6/1
f 58/37/1 59/38/1 68/6/1
f 59/38/1 60/39/1 68/6/1
f 60/39/1 61/40/1 68/6/1
f 61/40/1 62/41/1 68/6/1
f 62/41/1 63/42/1 68/6/1
f 63/42/1 64/43/1 68/6/1
f 64/43/1 65/44/1 68/6/1
f 65/44/1 66/4/1 68/6/1
f 70/7/1 67/3/1 16/2/1
f 70/7/1 34/8/1 35/45/1
f 35/45/1 36/46/1 70/7/1
f 36/46/1 37/47/1 70/7/1
f 37/47/1 38/48/1 70/7/1
f 38/48/1 39/49/1 70/7/1
f 39/49/1 40/50/1 70/7/1
f 40/50/1 41/51/1 70/7/1
f 41/51/1 42/52/1 70/7/1
f 42/52/1 43/53/1 70/7/1
f 43/53/1 44/54/1 70/7/1
f 44/54/1 45/55/1 70/7/1
f 45/55/1 46/56/1 70/7/1
f 46/56/1 47/57/1 70/7/1
f 47/57/1 48/58/1 70/7/1
f 48/58/1 49/9/1 70/7/1
f 73/5/1 71/16/1 67/3/1
f 51/11/1 68/6/1 69/12/1
f 69/12/1 17/15/1 18/59/1
f 18/59/1 19/60/1 69/12/1
f 19/60/1 20/61/1 69/12/1
f 20/61/1 21/62/1 69/12/1
f 21/62/1 22/63/1 69/12/1
f 22/63/1 23/64/1 69/12/1
f 23/64/1 24/65/1 69/12/1
f 24/65/1 25/66/1 69/12/1
f 25/66/1 26/67/1 69/12/1
f 26/67/1 27/68/1 69/12/1
f 27/68/1 28/69/1 69/12/1
f 28/69/1 29/70/1 69/12/1
f 29/70/1 30/71/1 69/12/1
f 30/71/1 31/72/1 69/12/1
f 31/72/1 32/14/1 69/12/1
f 70/7/1 72/10/1 17/15/1
l 50 49
l 17 50
l 50 72
