# Blender v2.82 (sub 7) OBJ File: 'largebase.blend'
# www.blender.org
o range3_Circle.008
v 19.803183 0.000000 2.329790
v 2.329782 0.000000 19.803190
v 4.042471 0.000000 19.719053
v 5.738666 0.000000 19.467445
v 7.402031 0.000000 19.050798
v 9.016547 0.000000 18.473116
v 10.566669 0.000000 17.739965
v 12.037462 0.000000 16.858408
v 13.414767 0.000000 15.836931
v 14.685319 0.000000 14.685375
v 15.836880 0.000000 13.414827
v 16.858360 0.000000 12.037526
v 17.739925 0.000000 10.566734
v 18.473080 0.000000 9.016617
v 19.050768 0.000000 7.402102
v 19.467424 0.000000 5.738737
v 19.719038 0.000000 4.042542
v 2.329790 0.000000 -19.803181
v 19.803188 0.000000 -2.329782
v 19.719049 0.000000 -4.042470
v 19.467445 0.000000 -5.738665
v 19.050795 0.000000 -7.402030
v 18.473116 0.000000 -9.016547
v 17.739964 0.000000 -10.566668
v 16.858406 0.000000 -12.037464
v 15.836930 0.000000 -13.414767
v 14.685374 0.000000 -14.685319
v 13.414826 0.000000 -15.836880
v 12.037525 0.000000 -16.858360
v 10.566733 0.000000 -17.739923
v 9.016616 0.000000 -18.473080
v 7.402101 0.000000 -19.050766
v 5.738737 0.000000 -19.467422
v 4.042543 0.000000 -19.719036
v -19.803183 0.000000 -2.329789
v -2.329782 0.000000 -19.803188
v -4.042471 0.000000 -19.719051
v -5.738666 0.000000 -19.467443
v -7.402030 0.000000 -19.050795
v -9.016548 0.000000 -18.473114
v -10.566669 0.000000 -17.739964
v -12.037461 0.000000 -16.858406
v -13.414766 0.000000 -15.836930
v -14.685318 0.000000 -14.685375
v -15.836879 0.000000 -13.414827
v -16.858360 0.000000 -12.037526
v -17.739923 0.000000 -10.566734
v -18.473080 0.000000 -9.016616
v -19.050768 0.000000 -7.402100
v -19.467424 0.000000 -5.738735
v -19.719036 0.000000 -4.042542
v -2.329788 0.000000 19.803183
v -19.803188 0.000000 2.329784
v -19.719049 0.000000 4.042472
v -19.467445 0.000000 5.738667
v -19.050795 0.000000 7.402031
v -18.473116 0.000000 9.016548
v -17.739964 0.000000 10.566669
v -16.858406 0.000000 12.037464
v -15.836930 0.000000 13.414768
v -14.685374 0.000000 14.685319
v -13.414826 0.000000 15.836880
v -12.037524 0.000000 16.858360
v -10.566732 0.000000 17.739925
v -9.016615 0.000000 18.473080
v -7.402099 0.000000 19.050768
v -5.738735 0.000000 19.467424
v -4.042541 0.000000 19.719036
v 0.000000 0.000000 0.000000
vt 0.517225 0.015214
vt 0.514765 0.842049
vt 0.517225 0.015214
vt 0.517225 0.015222
vt 0.517225 0.015223
vt 0.517225 0.015229
vt 0.517225 0.015228
vt 0.517225 0.015215
vt 0.517225 0.015224
vt 0.517225 0.015227
vt 0.517225 0.015223
vt 0.517225 0.015222
vt 0.517225 0.015222
vt 0.517225 0.015221
vt 0.517225 0.015220
vt 0.517225 0.015219
vt 0.517225 0.015218
vt 0.517225 0.015217
vt 0.517225 0.015217
vt 0.517225 0.015216
vt 0.517225 0.015216
vt 0.517225 0.015215
vt 0.517225 0.015215
vt 0.517225 0.015215
vt 0.517225 0.015214
vt 0.517225 0.015214
vt 0.517225 0.015224
vt 0.517225 0.015227
vt 0.517225 0.015228
vt 0.517225 0.015229
vt 0.517225 0.015230
vt 0.517225 0.015231
vt 0.517225 0.015232
vt 0.517225 0.015233
vt 0.517225 0.015234
vt 0.517225 0.015234
vt 0.517225 0.015235
vt 0.517225 0.015236
vt 0.517225 0.015215
vt 0.517225 0.015215
vt 0.517225 0.015216
vt 0.517225 0.015216
vt 0.517225 0.015217
vt 0.517225 0.015217
vt 0.517225 0.015218
vt 0.517225 0.015219
vt 0.517225 0.015220
vt 0.517225 0.015221
vt 0.517225 0.015222
vt 0.517225 0.015236
vt 0.517225 0.015236
vt 0.517225 0.015237
vt 0.517225 0.015237
vt 0.517225 0.015237
vt 0.517225 0.015237
vt 0.517225 0.015237
vt 0.517225 0.015237
vt 0.517225 0.015237
vt 0.517225 0.015237
vt 0.517225 0.015236
vt 0.517225 0.015236
vt 0.517225 0.015236
vt 0.517225 0.015235
vt 0.517225 0.015234
vt 0.517225 0.015234
vt 0.517225 0.015233
vt 0.517225 0.015232
vt 0.517225 0.015231
vt 0.517225 0.015230
vn 0.0000 1.0000 0.0000
s off
f 1/1/1 69/2/1 17/3/1
f 4/4/1 69/2/1 3/5/1
f 38/6/1 69/2/1 37/7/1
f 17/3/1 69/2/1 16/8/1
f 69/2/1 18/9/1 36/10/1
f 18/9/1 69/2/1 34/11/1
f 34/11/1 69/2/1 33/12/1
f 33/12/1 69/2/1 32/13/1
f 32/13/1 69/2/1 31/14/1
f 31/14/1 69/2/1 30/15/1
f 30/15/1 69/2/1 29/16/1
f 29/16/1 69/2/1 28/17/1
f 28/17/1 69/2/1 27/18/1
f 27/18/1 69/2/1 26/19/1
f 26/19/1 69/2/1 25/20/1
f 25/20/1 69/2/1 24/21/1
f 24/21/1 69/2/1 23/22/1
f 23/22/1 69/2/1 22/23/1
f 22/23/1 69/2/1 21/24/1
f 21/24/1 69/2/1 20/25/1
f 20/25/1 69/2/1 19/26/1
f 19/26/1 69/2/1 1/1/1
f 3/5/1 69/2/1 2/27/1
f 2/27/1 69/2/1 52/28/1
f 52/28/1 69/2/1 68/29/1
f 68/29/1 69/2/1 67/30/1
f 67/30/1 69/2/1 66/31/1
f 66/31/1 69/2/1 65/32/1
f 65/32/1 69/2/1 64/33/1
f 64/33/1 69/2/1 63/34/1
f 63/34/1 69/2/1 62/35/1
f 62/35/1 69/2/1 61/36/1
f 61/36/1 69/2/1 60/37/1
f 60/37/1 69/2/1 59/38/1
f 69/2/1 15/39/1 16/8/1
f 15/39/1 69/2/1 14/40/1
f 14/40/1 69/2/1 13/41/1
f 13/41/1 69/2/1 12/42/1
f 12/42/1 69/2/1 11/43/1
f 11/43/1 69/2/1 10/44/1
f 10/44/1 69/2/1 9/45/1
f 9/45/1 69/2/1 8/46/1
f 8/46/1 69/2/1 7/47/1
f 7/47/1 69/2/1 6/48/1
f 6/48/1 69/2/1 5/49/1
f 5/49/1 69/2/1 4/4/1
f 37/7/1 69/2/1 36/10/1
f 69/2/1 58/50/1 59/38/1
f 58/50/1 69/2/1 57/51/1
f 57/51/1 69/2/1 56/52/1
f 56/52/1 69/2/1 55/53/1
f 55/53/1 69/2/1 54/54/1
f 54/54/1 69/2/1 53/55/1
f 53/55/1 69/2/1 35/56/1
f 35/56/1 69/2/1 51/57/1
f 51/57/1 69/2/1 50/58/1
f 50/58/1 69/2/1 49/59/1
f 49/59/1 69/2/1 48/60/1
f 48/60/1 69/2/1 47/61/1
f 47/61/1 69/2/1 46/62/1
f 46/62/1 69/2/1 45/63/1
f 45/63/1 69/2/1 44/64/1
f 44/64/1 69/2/1 43/65/1
f 43/65/1 69/2/1 42/66/1
f 42/66/1 69/2/1 41/67/1
f 41/67/1 69/2/1 40/68/1
f 40/68/1 69/2/1 39/69/1
f 39/69/1 69/2/1 38/6/1
