# Blender v2.82 (sub 7) OBJ File: ''
# www.blender.org
mtllib large_back.mtl
o back_Circle.018
v 2.329782 0.000000 19.803190
v 4.042471 0.000000 19.719051
v 5.738666 0.000000 19.467447
v 7.402030 0.000000 19.050797
v 9.016548 0.000000 18.473116
v 10.566669 0.000000 17.739965
v 12.037463 0.000000 16.858408
v 13.414768 0.000000 15.836931
v -2.329788 0.000000 19.803183
v -13.414826 0.000000 15.836881
v -12.037523 0.000000 16.858360
v -10.566732 0.000000 17.739925
v -9.016614 0.000000 18.473080
v -7.402099 0.000000 19.050768
v -5.738735 0.000000 19.467424
v -4.042541 0.000000 19.719036
v 2.329787 0.080000 8.154240
v 2.900682 0.080000 8.126194
v 3.466079 0.080000 8.042326
v 4.020533 0.080000 7.903443
v 4.558703 0.080000 7.710883
v 5.075409 0.080000 7.466500
v 5.565673 0.080000 7.172649
v 6.024774 0.080000 6.832157
v -2.329790 0.080000 8.154240
v -6.024792 0.080000 6.832143
v -5.565693 0.080000 7.172635
v -5.075430 0.080000 7.466490
v -4.558726 0.080000 7.710874
v -4.020555 0.080000 7.903436
v -3.466102 0.080000 8.042321
v -2.900706 0.080000 8.126190
v -2.329789 0.040000 13.978683
v -9.719792 0.040000 11.334490
v -8.801595 0.040000 12.015476
v -7.821070 0.040000 12.603184
v -6.787661 0.040000 13.091951
v -5.711320 0.040000 13.477076
v -4.602413 0.040000 13.754848
v -3.471620 0.040000 13.922586
v 2.329785 0.040000 13.978689
v 3.471574 0.040000 13.922597
v 4.602366 0.040000 13.754862
v 5.711273 0.040000 13.477097
v 6.787615 0.040000 13.091974
v 7.821026 0.040000 12.603211
v 8.801554 0.040000 12.015508
v 9.719753 0.040000 11.334525
v 13.815602 0.000000 15.473638
v 9.940981 0.040000 11.134018
v -13.815601 0.000000 15.473638
v 0.000000 0.000000 0.000000
v 0.000000 0.080000 0.000000
v 0.000000 0.040000 0.000000
v -9.940979 0.040000 11.134018
v -6.066395 0.080000 6.794436
v 6.066395 0.080000 6.794434
vt 0.000000 0.000000
vt 0.000000 0.000000
vt 0.000000 0.000000
vt 0.000000 0.000000
vt 0.000000 0.000000
vt 0.000000 0.000000
vt 0.000000 0.000000
vt 0.000000 0.000000
vt 0.000000 0.000000
vt 0.000000 0.000000
vt 0.000000 0.000000
vt 0.000000 0.000000
vt 0.000000 0.000000
vt 0.000000 0.000000
vt 0.000000 0.000000
vt 0.000000 0.000000
vt 0.000000 0.000000
vt 0.000000 0.000000
vt 0.000000 0.000000
vt 0.000000 0.000000
vt 0.000000 0.000000
vt 0.000000 0.000000
vt 0.000000 0.000000
vt 0.000000 0.000000
vt 0.000000 0.000000
vt 0.000000 0.000000
vt 0.000000 0.000000
vt 0.000000 0.000000
vt 0.000000 0.000000
vt 0.000000 0.000000
vt 0.000000 0.000000
vt 0.000000 0.000000
vt 0.000000 0.000000
vt 0.000000 0.000000
vt 0.000000 0.000000
vt 0.000000 0.000000
vt 0.000000 0.000000
vt 0.000000 0.000000
vt 0.000000 0.000000
vt 0.000000 0.000000
vt 0.000000 0.000000
vt 0.000000 0.000000
vt 0.000000 0.000000
vt 0.000000 0.000000
vt 0.000000 0.000000
vt 0.000000 0.000000
vt 0.000000 0.000000
vt 0.000000 0.000000
vt 0.000000 0.000000
vt 0.000000 0.000000
vt 0.000000 0.000000
vt 0.000000 0.000000
vt 0.000000 0.000000
vt 0.000000 0.000000
vt 0.000000 0.000000
vt 0.000000 0.000000
vt 0.000000 0.000000
vn 0.0000 1.0000 0.0000
usemtl None
s off
f 9/1/1 1/2/1 52/3/1
f 25/4/1 17/5/1 53/6/1
f 46/7/1 47/8/1 54/9/1
f 1/2/1 2/10/1 52/3/1
f 2/10/1 3/11/1 52/3/1
f 3/11/1 4/12/1 52/3/1
f 4/12/1 5/13/1 52/3/1
f 5/13/1 6/14/1 52/3/1
f 6/14/1 7/15/1 52/3/1
f 7/15/1 8/16/1 52/3/1
f 8/16/1 49/17/1 52/3/1
f 52/3/1 51/18/1 10/19/1
f 10/19/1 11/20/1 52/3/1
f 11/20/1 12/21/1 52/3/1
f 12/21/1 13/22/1 52/3/1
f 13/22/1 14/23/1 52/3/1
f 14/23/1 15/24/1 52/3/1
f 15/24/1 16/25/1 52/3/1
f 16/25/1 9/1/1 52/3/1
f 17/5/1 18/26/1 53/6/1
f 18/26/1 19/27/1 53/6/1
f 19/27/1 20/28/1 53/6/1
f 20/28/1 21/29/1 53/6/1
f 21/29/1 22/30/1 53/6/1
f 22/30/1 23/31/1 53/6/1
f 23/31/1 24/32/1 57/33/1
f 57/33/1 53/6/1 23/31/1
f 53/6/1 56/34/1 27/35/1
f 56/34/1 26/36/1 27/35/1
f 27/35/1 28/37/1 53/6/1
f 28/37/1 29/38/1 53/6/1
f 29/38/1 30/39/1 53/6/1
f 30/39/1 31/40/1 53/6/1
f 31/40/1 32/41/1 53/6/1
f 32/41/1 25/4/1 53/6/1
f 48/42/1 50/43/1 47/8/1
f 50/43/1 54/9/1 47/8/1
f 54/9/1 55/44/1 35/45/1
f 55/44/1 34/46/1 35/45/1
f 35/45/1 36/47/1 54/9/1
f 36/47/1 37/48/1 54/9/1
f 37/48/1 38/49/1 54/9/1
f 38/49/1 39/50/1 54/9/1
f 39/50/1 40/51/1 54/9/1
f 40/51/1 33/52/1 54/9/1
f 33/52/1 41/53/1 54/9/1
f 41/53/1 42/54/1 54/9/1
f 42/54/1 43/55/1 54/9/1
f 43/55/1 44/56/1 54/9/1
f 44/56/1 45/57/1 54/9/1
f 45/57/1 46/7/1 54/9/1
