# Blender v2.82 (sub 7) OBJ File: 'largebase.blend'
# www.blender.org
o range4_Circle.004
v 2.329790 0.040000 -13.978684
v 13.978690 0.040000 -2.329785
v 13.922598 0.040000 -3.471574
v 13.754861 0.040000 -4.602366
v 13.477097 0.040000 -5.711274
v 13.091976 0.040000 -6.787615
v 12.603210 0.040000 -7.821026
v 12.015507 0.040000 -8.801553
v 11.334525 0.040000 -9.719753
v 10.566824 0.040000 -10.566785
v 9.719794 0.040000 -11.334490
v 8.801596 0.040000 -12.015476
v 7.821071 0.040000 -12.603183
v 6.787662 0.040000 -13.091952
v 5.711321 0.040000 -13.477077
v 4.602415 0.040000 -13.754848
v 3.471622 0.040000 -13.922587
v -13.978684 0.040000 -2.329789
v -2.329785 0.040000 -13.978690
v -3.471574 0.040000 -13.922599
v -4.602367 0.040000 -13.754861
v -5.711274 0.040000 -13.477097
v -6.787616 0.040000 -13.091976
v -7.821026 0.040000 -12.603211
v -8.801555 0.040000 -12.015508
v -9.719754 0.040000 -11.334525
v -10.566786 0.040000 -10.566823
v -11.334490 0.040000 -9.719793
v -12.015475 0.040000 -8.801595
v -12.603184 0.040000 -7.821071
v -13.091952 0.040000 -6.787661
v -13.477077 0.040000 -5.711321
v -13.754848 0.040000 -4.602414
v -13.922587 0.040000 -3.471621
v -2.329789 0.040000 13.978683
v -13.978690 0.040000 2.329786
v -13.922598 0.040000 3.471574
v -13.754861 0.040000 4.602368
v -13.477097 0.040000 5.711275
v -13.091976 0.040000 6.787616
v -12.603210 0.040000 7.821027
v -12.015507 0.040000 8.801554
v -11.334525 0.040000 9.719754
v -10.566822 0.040000 10.566786
v -9.719793 0.040000 11.334491
v -8.801595 0.040000 12.015474
v -7.821070 0.040000 12.603183
v -6.787660 0.040000 13.091951
v -5.711320 0.040000 13.477076
v -4.602414 0.040000 13.754846
v -3.471621 0.040000 13.922585
v 13.978684 0.040000 2.329790
v 2.329785 0.040000 13.978689
v 3.471574 0.040000 13.922597
v 4.602367 0.040000 13.754861
v 5.711274 0.040000 13.477096
v 6.787616 0.040000 13.091975
v 7.821026 0.040000 12.603209
v 8.801554 0.040000 12.015507
v 9.719754 0.040000 11.334525
v 10.566786 0.040000 10.566823
v 11.334491 0.040000 9.719794
v 12.015475 0.040000 8.801596
v 12.603184 0.040000 7.821071
v 13.091952 0.040000 6.787662
v 13.477077 0.040000 5.711321
v 13.754848 0.040000 4.602415
v 13.922587 0.040000 3.471622
v 0.000000 0.040000 0.000000
v 19.803183 0.000000 2.329790
v 2.329782 0.000000 19.803190
v 4.042471 0.000000 19.719051
v 5.738666 0.000000 19.467445
v 7.402030 0.000000 19.050797
v 9.016547 0.000000 18.473114
v 10.566669 0.000000 17.739965
v 12.037463 0.000000 16.858406
v 13.414768 0.000000 15.836930
v 14.685320 0.000000 14.685375
v 15.836880 0.000000 13.414826
v 16.858360 0.000000 12.037526
v 17.739927 0.000000 10.566733
v 18.473080 0.000000 9.016616
v 19.050768 0.000000 7.402101
v 19.467426 0.000000 5.738737
v 19.719038 0.000000 4.042542
v 2.329790 0.000000 -19.803181
v 19.803188 0.000000 -2.329782
v 19.719049 0.000000 -4.042470
v 19.467447 0.000000 -5.738665
v 19.050797 0.000000 -7.402030
v 18.473116 0.000000 -9.016547
v 17.739964 0.000000 -10.566668
v 16.858406 0.000000 -12.037464
v 15.836931 0.000000 -13.414766
v 14.685375 0.000000 -14.685319
v 13.414827 0.000000 -15.836880
v 12.037525 0.000000 -16.858360
v 10.566734 0.000000 -17.739923
v 9.016616 0.000000 -18.473080
v 7.402101 0.000000 -19.050766
v 5.738737 0.000000 -19.467422
v 4.042543 0.000000 -19.719034
v -19.803183 0.000000 -2.329789
v -2.329782 0.000000 -19.803188
v -4.042471 0.000000 -19.719049
v -5.738666 0.000000 -19.467443
v -7.402030 0.000000 -19.050795
v -9.016548 0.000000 -18.473112
v -10.566669 0.000000 -17.739962
v -12.037461 0.000000 -16.858406
v -13.414766 0.000000 -15.836929
v -14.685318 0.000000 -14.685375
v -15.836879 0.000000 -13.414826
v -16.858360 0.000000 -12.037526
v -17.739923 0.000000 -10.566733
v -18.473080 0.000000 -9.016616
v -19.050768 0.000000 -7.402101
v -19.467426 0.000000 -5.738735
v -19.719036 0.000000 -4.042541
v -2.329788 0.000000 19.803183
v -19.803188 0.000000 2.329783
v -19.719049 0.000000 4.042472
v -19.467447 0.000000 5.738667
v -19.050797 0.000000 7.402030
v -18.473116 0.000000 9.016547
v -17.739964 0.000000 10.566669
v -16.858406 0.000000 12.037464
v -15.836931 0.000000 13.414768
v -14.685375 0.000000 14.685319
v -13.414827 0.000000 15.836880
v -12.037524 0.000000 16.858360
v -10.566732 0.000000 17.739925
v -9.016615 0.000000 18.473080
v -7.402099 0.000000 19.050768
v -5.738735 0.000000 19.467424
v -4.042541 0.000000 19.719034
v 0.000000 0.000000 0.000000
v 8.154241 0.080000 2.329790
v 2.329787 0.080000 8.154241
v 2.900682 0.080000 8.126194
v 3.466079 0.080000 8.042326
v 4.020533 0.080000 7.903443
v 4.558703 0.080000 7.710884
v 5.075409 0.080000 7.466501
v 5.565673 0.080000 7.172648
v 6.024774 0.080000 6.832158
v 6.448290 0.080000 6.448307
v 6.832143 0.080000 6.024792
v 7.172636 0.080000 5.565693
v 7.466490 0.080000 5.075430
v 7.710874 0.080000 4.558725
v 7.903436 0.080000 4.020556
v 8.042321 0.080000 3.466102
v 8.126192 0.080000 2.900706
v 2.329790 0.080000 -8.154241
v 8.154241 0.080000 -2.329788
v 8.126194 0.080000 -2.900682
v 8.042326 0.080000 -3.466079
v 7.903443 0.080000 -4.020534
v 7.710883 0.080000 -4.558704
v 7.466500 0.080000 -5.075410
v 7.172648 0.080000 -5.565674
v 6.832158 0.080000 -6.024773
v 6.448307 0.080000 -6.448290
v 6.024792 0.080000 -6.832143
v 5.565693 0.080000 -7.172636
v 5.075430 0.080000 -7.466490
v 4.558725 0.080000 -7.710874
v 4.020555 0.080000 -7.903436
v 3.466102 0.080000 -8.042322
v 2.900706 0.080000 -8.126192
v -8.154241 0.080000 -2.329790
v -2.329788 0.080000 -8.154241
v -2.900683 0.080000 -8.126194
v -3.466080 0.080000 -8.042326
v -4.020534 0.080000 -7.903443
v -4.558705 0.080000 -7.710884
v -5.075410 0.080000 -7.466501
v -5.565674 0.080000 -7.172648
v -6.024774 0.080000 -6.832158
v -6.448290 0.080000 -6.448307
v -6.832143 0.080000 -6.024792
v -7.172636 0.080000 -5.565693
v -7.466490 0.080000 -5.075431
v -7.710874 0.080000 -4.558726
v -7.903436 0.080000 -4.020556
v -8.042321 0.080000 -3.466103
v -8.126192 0.080000 -2.900706
v -2.329790 0.080000 8.154241
v -8.154241 0.080000 2.329788
v -8.126194 0.080000 2.900683
v -8.042326 0.080000 3.466079
v -7.903443 0.080000 4.020533
v -7.710884 0.080000 4.558704
v -7.466500 0.080000 5.075409
v -7.172648 0.080000 5.565673
v -6.832158 0.080000 6.024774
v -6.448307 0.080000 6.448290
v -6.024792 0.080000 6.832143
v -5.565693 0.080000 7.172636
v -5.075431 0.080000 7.466490
v -4.558726 0.080000 7.710874
v -4.020555 0.080000 7.903436
v -3.466102 0.080000 8.042322
v -2.900706 0.080000 8.126192
v -0.000000 0.080000 -0.000000
vt 0.514765 0.017686
vt 0.514765 0.837127
vt 0.514765 0.017686
vt 0.514765 0.017686
vt 0.514765 0.017686
vt 0.514764 0.017687
vt 0.514764 0.017687
vt 0.514765 0.017686
vt 0.514765 0.017687
vt 0.514765 0.017687
vt 0.514765 0.017687
vt 0.514765 0.017687
vt 0.514765 0.017687
vt 0.514765 0.017687
vt 0.514765 0.017687
vt 0.514765 0.017687
vt 0.514765 0.017687
vt 0.514765 0.017687
vt 0.514765 0.017687
vt 0.514765 0.017687
vt 0.514765 0.017686
vt 0.514765 0.017686
vt 0.514765 0.017686
vt 0.514765 0.017686
vt 0.514765 0.017686
vt 0.514765 0.017686
vt 0.514765 0.017686
vt 0.514765 0.017686
vt 0.514765 0.017686
vt 0.514765 0.017686
vt 0.514765 0.017686
vt 0.514765 0.017686
vt 0.514765 0.017686
vt 0.514765 0.017686
vt 0.514765 0.017686
vt 0.514764 0.017687
vt 0.514764 0.017687
vt 0.514764 0.017687
vt 0.514764 0.017687
vt 0.514764 0.017687
vt 0.514764 0.017687
vt 0.514764 0.017687
vt 0.514764 0.017687
vt 0.514764 0.017686
vt 0.514764 0.017686
vt 0.514764 0.017686
vt 0.514764 0.017686
vt 0.514764 0.017686
vt 0.514764 0.017686
vt 0.514764 0.017686
vt 0.514764 0.017686
vt 0.514764 0.017686
vt 0.514764 0.017686
vt 0.514764 0.017686
vt 0.514764 0.017686
vt 0.514764 0.017686
vt 0.514764 0.017686
vt 0.514765 0.017687
vt 0.514765 0.017687
vt 0.514765 0.017687
vt 0.514765 0.017687
vt 0.514765 0.017687
vt 0.514765 0.017687
vt 0.514765 0.017687
vt 0.514765 0.017687
vt 0.514764 0.017687
vt 0.514764 0.017687
vt 0.514764 0.017687
vt 0.514764 0.017687
vt 0.517225 0.015214
vt 0.514765 0.842049
vt 0.517225 0.015214
vt 0.517225 0.015222
vt 0.517225 0.015223
vt 0.517225 0.015229
vt 0.517225 0.015228
vt 0.517225 0.015215
vt 0.517225 0.015224
vt 0.517225 0.015227
vt 0.517225 0.015223
vt 0.517225 0.015222
vt 0.517225 0.015222
vt 0.517225 0.015221
vt 0.517225 0.015220
vt 0.517225 0.015219
vt 0.517225 0.015218
vt 0.517225 0.015217
vt 0.517225 0.015217
vt 0.517225 0.015216
vt 0.517225 0.015216
vt 0.517225 0.015215
vt 0.517225 0.015215
vt 0.517225 0.015215
vt 0.517225 0.015214
vt 0.517225 0.015214
vt 0.517225 0.015224
vt 0.517225 0.015227
vt 0.517225 0.015228
vt 0.517225 0.015229
vt 0.517225 0.015230
vt 0.517225 0.015231
vt 0.517225 0.015232
vt 0.517225 0.015233
vt 0.517225 0.015234
vt 0.517225 0.015234
vt 0.517225 0.015235
vt 0.517225 0.015236
vt 0.517225 0.015215
vt 0.517225 0.015215
vt 0.517225 0.015216
vt 0.517225 0.015216
vt 0.517225 0.015217
vt 0.517225 0.015217
vt 0.517225 0.015218
vt 0.517225 0.015219
vt 0.517225 0.015220
vt 0.517225 0.015221
vt 0.517225 0.015222
vt 0.517225 0.015236
vt 0.517225 0.015236
vt 0.517225 0.015237
vt 0.517225 0.015237
vt 0.517225 0.015237
vt 0.517225 0.015237
vt 0.517225 0.015237
vt 0.517225 0.015237
vt 0.517225 0.015237
vt 0.517225 0.015237
vt 0.517225 0.015236
vt 0.517225 0.015236
vt 0.517225 0.015236
vt 0.517225 0.015235
vt 0.517225 0.015234
vt 0.517225 0.015234
vt 0.517225 0.015233
vt 0.517225 0.015232
vt 0.517225 0.015231
vt 0.517225 0.015230
vt 0.498555 0.017928
vt 0.497109 0.839026
vt 0.498555 0.017930
vt 0.498553 0.017797
vt 0.498553 0.017781
vt 0.498556 0.017599
vt 0.498556 0.017615
vt 0.498555 0.017931
vt 0.498556 0.017765
vt 0.498556 0.017632
vt 0.498556 0.017781
vt 0.498556 0.017797
vt 0.498556 0.017813
vt 0.498556 0.017828
vt 0.498556 0.017843
vt 0.498556 0.017857
vt 0.498556 0.017870
vt 0.498556 0.017882
vt 0.498556 0.017893
vt 0.498556 0.017903
vt 0.498555 0.017912
vt 0.498555 0.017918
vt 0.498555 0.017924
vt 0.498553 0.017765
vt 0.498553 0.017632
vt 0.498553 0.017615
vt 0.498553 0.017599
vt 0.498553 0.017583
vt 0.498553 0.017568
vt 0.498553 0.017553
vt 0.498553 0.017539
vt 0.498553 0.017526
vt 0.498553 0.017514
vt 0.498554 0.017931
vt 0.498554 0.017930
vt 0.498554 0.017928
vt 0.498554 0.017924
vt 0.498554 0.017918
vt 0.498554 0.017912
vt 0.498554 0.017903
vt 0.498553 0.017893
vt 0.498553 0.017882
vt 0.498553 0.017870
vt 0.498553 0.017857
vt 0.498553 0.017843
vt 0.498553 0.017828
vt 0.498553 0.017813
vt 0.498553 0.017503
vt 0.498554 0.017493
vt 0.498554 0.017485
vt 0.498554 0.017478
vt 0.498554 0.017473
vt 0.498554 0.017469
vt 0.498554 0.017466
vt 0.498554 0.017465
vt 0.498555 0.017465
vt 0.498555 0.017466
vt 0.498555 0.017469
vt 0.498555 0.017473
vt 0.498555 0.017478
vt 0.498555 0.017485
vt 0.498556 0.017493
vt 0.498556 0.017503
vt 0.498556 0.017514
vt 0.498556 0.017526
vt 0.498556 0.017539
vt 0.498556 0.017553
vt 0.498556 0.017568
vt 0.498556 0.017583
vn 0.0000 1.0000 0.0000
s off
f 4/1/1 69/2/1 3/3/1
f 21/4/1 69/2/1 20/5/1
f 45/6/1 69/2/1 44/7/1
f 3/3/1 69/2/1 2/8/1
f 2/8/1 69/2/1 52/9/1
f 52/9/1 69/2/1 68/10/1
f 68/10/1 69/2/1 67/11/1
f 67/11/1 69/2/1 66/12/1
f 66/12/1 69/2/1 65/13/1
f 65/13/1 69/2/1 64/14/1
f 64/14/1 69/2/1 63/15/1
f 63/15/1 69/2/1 62/16/1
f 62/16/1 69/2/1 61/17/1
f 61/17/1 69/2/1 60/18/1
f 60/18/1 69/2/1 59/19/1
f 59/19/1 69/2/1 58/20/1
f 69/2/1 1/21/1 19/22/1
f 1/21/1 69/2/1 17/23/1
f 17/23/1 69/2/1 16/24/1
f 16/24/1 69/2/1 15/25/1
f 15/25/1 69/2/1 14/26/1
f 14/26/1 69/2/1 13/27/1
f 13/27/1 69/2/1 12/28/1
f 12/28/1 69/2/1 11/29/1
f 11/29/1 69/2/1 10/30/1
f 10/30/1 69/2/1 9/31/1
f 9/31/1 69/2/1 8/32/1
f 8/32/1 69/2/1 7/33/1
f 7/33/1 69/2/1 6/34/1
f 6/34/1 69/2/1 5/35/1
f 5/35/1 69/2/1 4/1/1
f 20/5/1 69/2/1 19/22/1
f 69/2/1 42/36/1 43/37/1
f 42/36/1 69/2/1 41/38/1
f 41/38/1 69/2/1 40/39/1
f 40/39/1 69/2/1 39/40/1
f 39/40/1 69/2/1 38/41/1
f 38/41/1 69/2/1 37/42/1
f 37/42/1 69/2/1 36/43/1
f 36/43/1 69/2/1 18/44/1
f 18/44/1 69/2/1 34/45/1
f 34/45/1 69/2/1 33/46/1
f 33/46/1 69/2/1 32/47/1
f 32/47/1 69/2/1 31/48/1
f 31/48/1 69/2/1 30/49/1
f 30/49/1 69/2/1 29/50/1
f 29/50/1 69/2/1 28/51/1
f 28/51/1 69/2/1 27/52/1
f 27/52/1 69/2/1 26/53/1
f 26/53/1 69/2/1 25/54/1
f 25/54/1 69/2/1 24/55/1
f 24/55/1 69/2/1 23/56/1
f 23/56/1 69/2/1 22/57/1
f 22/57/1 69/2/1 21/4/1
f 44/7/1 69/2/1 43/37/1
f 69/2/1 57/58/1 58/20/1
f 57/58/1 69/2/1 56/59/1
f 56/59/1 69/2/1 55/60/1
f 55/60/1 69/2/1 54/61/1
f 54/61/1 69/2/1 53/62/1
f 53/62/1 69/2/1 35/63/1
f 35/63/1 69/2/1 51/64/1
f 51/64/1 69/2/1 50/65/1
f 50/65/1 69/2/1 49/66/1
f 49/66/1 69/2/1 48/67/1
f 48/67/1 69/2/1 47/68/1
f 47/68/1 69/2/1 46/69/1
f 46/69/1 69/2/1 45/6/1
f 70/70/1 138/71/1 86/72/1
f 73/73/1 138/71/1 72/74/1
f 107/75/1 138/71/1 106/76/1
f 86/72/1 138/71/1 85/77/1
f 138/71/1 87/78/1 105/79/1
f 87/78/1 138/71/1 103/80/1
f 103/80/1 138/71/1 102/81/1
f 102/81/1 138/71/1 101/82/1
f 101/82/1 138/71/1 100/83/1
f 100/83/1 138/71/1 99/84/1
f 99/84/1 138/71/1 98/85/1
f 98/85/1 138/71/1 97/86/1
f 97/86/1 138/71/1 96/87/1
f 96/87/1 138/71/1 95/88/1
f 95/88/1 138/71/1 94/89/1
f 94/89/1 138/71/1 93/90/1
f 93/90/1 138/71/1 92/91/1
f 92/91/1 138/71/1 91/92/1
f 91/92/1 138/71/1 90/93/1
f 90/93/1 138/71/1 89/94/1
f 89/94/1 138/71/1 88/95/1
f 88/95/1 138/71/1 70/70/1
f 72/74/1 138/71/1 71/96/1
f 71/96/1 138/71/1 121/97/1
f 121/97/1 138/71/1 137/98/1
f 137/98/1 138/71/1 136/99/1
f 136/99/1 138/71/1 135/100/1
f 135/100/1 138/71/1 134/101/1
f 134/101/1 138/71/1 133/102/1
f 133/102/1 138/71/1 132/103/1
f 132/103/1 138/71/1 131/104/1
f 131/104/1 138/71/1 130/105/1
f 130/105/1 138/71/1 129/106/1
f 129/106/1 138/71/1 128/107/1
f 138/71/1 84/108/1 85/77/1
f 84/108/1 138/71/1 83/109/1
f 83/109/1 138/71/1 82/110/1
f 82/110/1 138/71/1 81/111/1
f 81/111/1 138/71/1 80/112/1
f 80/112/1 138/71/1 79/113/1
f 79/113/1 138/71/1 78/114/1
f 78/114/1 138/71/1 77/115/1
f 77/115/1 138/71/1 76/116/1
f 76/116/1 138/71/1 75/117/1
f 75/117/1 138/71/1 74/118/1
f 74/118/1 138/71/1 73/73/1
f 106/76/1 138/71/1 105/79/1
f 138/71/1 127/119/1 128/107/1
f 127/119/1 138/71/1 126/120/1
f 126/120/1 138/71/1 125/121/1
f 125/121/1 138/71/1 124/122/1
f 124/122/1 138/71/1 123/123/1
f 123/123/1 138/71/1 122/124/1
f 122/124/1 138/71/1 104/125/1
f 104/125/1 138/71/1 120/126/1
f 120/126/1 138/71/1 119/127/1
f 119/127/1 138/71/1 118/128/1
f 118/128/1 138/71/1 117/129/1
f 117/129/1 138/71/1 116/130/1
f 116/130/1 138/71/1 115/131/1
f 115/131/1 138/71/1 114/132/1
f 114/132/1 138/71/1 113/133/1
f 113/133/1 138/71/1 112/134/1
f 112/134/1 138/71/1 111/135/1
f 111/135/1 138/71/1 110/136/1
f 110/136/1 138/71/1 109/137/1
f 109/137/1 138/71/1 108/138/1
f 108/138/1 138/71/1 107/75/1
f 159/139/1 207/140/1 158/141/1
f 142/142/1 207/140/1 141/143/1
f 176/144/1 207/140/1 175/145/1
f 158/141/1 207/140/1 157/146/1
f 207/140/1 156/147/1 174/148/1
f 156/147/1 207/140/1 172/149/1
f 172/149/1 207/140/1 171/150/1
f 171/150/1 207/140/1 170/151/1
f 170/151/1 207/140/1 169/152/1
f 169/152/1 207/140/1 168/153/1
f 168/153/1 207/140/1 167/154/1
f 167/154/1 207/140/1 166/155/1
f 166/155/1 207/140/1 165/156/1
f 165/156/1 207/140/1 164/157/1
f 164/157/1 207/140/1 163/158/1
f 163/158/1 207/140/1 162/159/1
f 162/159/1 207/140/1 161/160/1
f 161/160/1 207/140/1 160/161/1
f 160/161/1 207/140/1 159/139/1
f 141/143/1 207/140/1 140/162/1
f 140/162/1 207/140/1 190/163/1
f 190/163/1 207/140/1 206/164/1
f 206/164/1 207/140/1 205/165/1
f 205/165/1 207/140/1 204/166/1
f 204/166/1 207/140/1 203/167/1
f 203/167/1 207/140/1 202/168/1
f 202/168/1 207/140/1 201/169/1
f 201/169/1 207/140/1 200/170/1
f 200/170/1 207/140/1 199/171/1
f 207/140/1 139/172/1 157/146/1
f 139/172/1 207/140/1 155/173/1
f 155/173/1 207/140/1 154/174/1
f 154/174/1 207/140/1 153/175/1
f 153/175/1 207/140/1 152/176/1
f 152/176/1 207/140/1 151/177/1
f 151/177/1 207/140/1 150/178/1
f 150/178/1 207/140/1 149/179/1
f 149/179/1 207/140/1 148/180/1
f 148/180/1 207/140/1 147/181/1
f 147/181/1 207/140/1 146/182/1
f 146/182/1 207/140/1 145/183/1
f 145/183/1 207/140/1 144/184/1
f 144/184/1 207/140/1 143/185/1
f 143/185/1 207/140/1 142/142/1
f 175/145/1 207/140/1 174/148/1
f 207/140/1 198/186/1 199/171/1
f 198/186/1 207/140/1 197/187/1
f 197/187/1 207/140/1 196/188/1
f 196/188/1 207/140/1 195/189/1
f 195/189/1 207/140/1 194/190/1
f 194/190/1 207/140/1 193/191/1
f 193/191/1 207/140/1 192/192/1
f 192/192/1 207/140/1 191/193/1
f 191/193/1 207/140/1 173/194/1
f 173/194/1 207/140/1 189/195/1
f 189/195/1 207/140/1 188/196/1
f 188/196/1 207/140/1 187/197/1
f 187/197/1 207/140/1 186/198/1
f 186/198/1 207/140/1 185/199/1
f 185/199/1 207/140/1 184/200/1
f 184/200/1 207/140/1 183/201/1
f 183/201/1 207/140/1 182/202/1
f 182/202/1 207/140/1 181/203/1
f 181/203/1 207/140/1 180/204/1
f 180/204/1 207/140/1 179/205/1
f 179/205/1 207/140/1 178/206/1
f 178/206/1 207/140/1 177/207/1
f 177/207/1 207/140/1 176/144/1
