# Blender v2.82 (sub 7) OBJ File: ''
# www.blender.org
o large_frontback_Circle.009
v 2.080148 0.000003 -19.668890
v -2.080150 0.000003 -19.668890
v -0.000030 0.000000 -0.000026
v -5.462841 0.000003 -19.335724
v -8.715536 0.000003 -18.349030
v -11.713238 0.000003 -16.746723
v -13.582602 0.000002 -15.212577
v 13.582603 0.000002 -15.212577
v 11.713217 0.000003 -16.746738
v 8.715511 0.000003 -18.349039
v 5.462812 0.000003 -19.335730
v 2.080148 0.040002 -13.889191
v -2.080150 0.040002 -13.889191
v 0.000033 0.040000 -0.000032
v -4.335277 0.040002 -13.667080
v -6.503741 0.040002 -13.009283
v -8.502209 0.040002 -11.941080
v -9.748468 0.040002 -10.918301
v 9.748466 0.040002 -10.918301
v 8.502193 0.040002 -11.941089
v 6.503723 0.040002 -13.009290
v 4.335258 0.040002 -13.667083
v 0.000315 0.080000 -0.000253
v 2.080148 0.080001 -8.109490
v -2.080150 0.080001 -8.109490
v -3.207713 0.080001 -7.998435
v -0.000159 0.080000 -0.000128
v -4.291945 0.080001 -7.669537
v -5.291179 0.080001 -7.135435
v -5.914334 0.080001 -6.624025
v 5.914333 0.080001 -6.624025
v 5.291170 0.080001 -7.135439
v 4.291935 0.080001 -7.669540
v 3.207702 0.080001 -7.998436
v -2.080146 -0.000003 19.668890
v 2.080152 -0.000003 19.668890
v 0.000030 -0.000000 0.000027
v 5.462842 -0.000003 19.335724
v 8.715539 -0.000003 18.349028
v 11.713240 -0.000003 16.746723
v 13.582603 -0.000002 15.212576
v -13.582602 -0.000002 15.212576
v -11.713215 -0.000003 16.746740
v -8.715509 -0.000003 18.349039
v -5.462811 -0.000003 19.335730
v -2.080147 0.039998 13.889191
v 2.080151 0.039998 13.889191
v -0.000033 0.040000 0.000033
v 4.335279 0.039998 13.667080
v 6.503742 0.039998 13.009284
v 8.502210 0.039998 11.941079
v 9.748469 0.039998 10.918301
v -9.748466 0.039998 10.918303
v -8.502192 0.039998 11.941091
v -6.503722 0.039998 13.009291
v -4.335256 0.039998 13.667084
v -0.000315 0.080000 0.000254
v -2.080147 0.079999 8.109491
v 2.080150 0.079999 8.109491
v 3.207714 0.079999 7.998435
v 0.000159 0.080000 0.000129
v 4.291946 0.079999 7.669537
v 5.291180 0.079999 7.135434
v 5.914335 0.079999 6.624024
v -5.914332 0.079999 6.624025
v -5.291169 0.079999 7.135440
v -4.291934 0.079999 7.669540
v -3.207702 0.079999 7.998437
vt 0.529810 0.024026
vt 0.529777 0.024026
vt 0.527406 0.879772
vt 0.529751 0.024021
vt 0.529725 0.024005
vt 0.529702 0.023979
vt 0.529687 0.023954
vt 0.529900 0.023952
vt 0.529885 0.023977
vt 0.529862 0.024004
vt 0.529836 0.024020
vt 0.517341 0.013854
vt 0.517343 0.013854
vt 0.517342 0.874279
vt 0.517344 0.013843
vt 0.517345 0.013811
vt 0.517346 0.013761
vt 0.517347 0.013713
vt 0.517338 0.013717
vt 0.517339 0.013765
vt 0.517339 0.013814
vt 0.517340 0.013845
vt 0.534126 0.885521
vt 0.531774 0.091482
vt 0.531692 0.091482
vt 0.531669 0.091473
vt 0.536399 0.887581
vt 0.531648 0.091444
vt 0.531628 0.091395
vt 0.531616 0.091348
vt 0.531849 0.091344
vt 0.531837 0.091392
vt 0.531817 0.091441
vt 0.531796 0.091472
vt 0.529810 0.024026
vt 0.529777 0.024026
vt 0.527406 0.879772
vt 0.529751 0.024021
vt 0.529725 0.024005
vt 0.529702 0.023979
vt 0.529687 0.023954
vt 0.529900 0.023952
vt 0.529885 0.023977
vt 0.529862 0.024004
vt 0.529836 0.024020
vt 0.517341 0.013854
vt 0.517343 0.013854
vt 0.517342 0.874279
vt 0.517344 0.013843
vt 0.517345 0.013811
vt 0.517346 0.013761
vt 0.517347 0.013713
vt 0.517338 0.013717
vt 0.517339 0.013765
vt 0.517339 0.013814
vt 0.517340 0.013845
vt 0.534126 0.885521
vt 0.531774 0.091482
vt 0.531692 0.091482
vt 0.531669 0.091473
vt 0.536399 0.887581
vt 0.531648 0.091444
vt 0.531628 0.091395
vt 0.531616 0.091348
vt 0.531849 0.091344
vt 0.531837 0.091392
vt 0.531817 0.091441
vt 0.531796 0.091472
vn 0.0000 1.0000 0.0000
s off
f 1/1/1 2/2/1 3/3/1
f 2/2/1 4/4/1 3/3/1
f 4/4/1 5/5/1 3/3/1
f 5/5/1 6/6/1 3/3/1
f 6/6/1 7/7/1 3/3/1
f 8/8/1 9/9/1 3/3/1
f 9/9/1 10/10/1 3/3/1
f 10/10/1 11/11/1 3/3/1
f 11/11/1 1/1/1 3/3/1
f 12/12/1 13/13/1 14/14/1
f 13/13/1 15/15/1 14/14/1
f 15/15/1 16/16/1 14/14/1
f 16/16/1 17/17/1 14/14/1
f 17/17/1 18/18/1 14/14/1
f 14/14/1 19/19/1 20/20/1
f 20/20/1 21/21/1 14/14/1
f 21/21/1 22/22/1 14/14/1
f 22/22/1 12/12/1 14/14/1
f 23/23/1 24/24/1 25/25/1
f 25/25/1 26/26/1 27/27/1
f 26/26/1 28/28/1 27/27/1
f 25/25/1 27/27/1 23/23/1
f 28/28/1 29/29/1 27/27/1
f 29/29/1 30/30/1 27/27/1
f 23/23/1 31/31/1 32/32/1
f 32/32/1 33/33/1 23/23/1
f 23/23/1 33/33/1 34/34/1
f 34/34/1 24/24/1 23/23/1
f 35/35/1 36/36/1 37/37/1
f 36/36/1 38/38/1 37/37/1
f 38/38/1 39/39/1 37/37/1
f 39/39/1 40/40/1 37/37/1
f 40/40/1 41/41/1 37/37/1
f 42/42/1 43/43/1 37/37/1
f 43/43/1 44/44/1 37/37/1
f 44/44/1 45/45/1 37/37/1
f 45/45/1 35/35/1 37/37/1
f 46/46/1 47/47/1 48/48/1
f 47/47/1 49/49/1 48/48/1
f 49/49/1 50/50/1 48/48/1
f 50/50/1 51/51/1 48/48/1
f 51/51/1 52/52/1 48/48/1
f 48/48/1 53/53/1 54/54/1
f 54/54/1 55/55/1 48/48/1
f 55/55/1 56/56/1 48/48/1
f 56/56/1 46/46/1 48/48/1
f 57/57/1 58/58/1 59/59/1
f 59/59/1 60/60/1 61/61/1
f 60/60/1 62/62/1 61/61/1
f 59/59/1 61/61/1 57/57/1
f 62/62/1 63/63/1 61/61/1
f 63/63/1 64/64/1 61/61/1
f 57/57/1 65/65/1 66/66/1
f 66/66/1 67/67/1 57/57/1
f 57/57/1 67/67/1 68/68/1
f 68/68/1 58/58/1 57/57/1
o large_bullseye_bullseye.003_front_Circle.006
v 0.417953 -0.020000 -1.132186
v -0.417953 -0.019985 -19.662188
v -0.417953 -0.020000 -1.132186
v 0.417953 -0.019985 -19.662188
vt 0.009968 0.982761
vt 0.020519 0.972210
vt 0.020519 0.982761
vt 0.009968 0.972210
vn 0.0000 1.0000 0.0000
s 1
f 69/69/2 70/70/2 71/71/2
f 69/69/2 72/72/2 70/70/2
