# Blender v2.82 (sub 7) OBJ File: ''
# www.blender.org
mtllib large_side_4.mtl
o side_Circle.019
v -19.803183 0.000000 -2.329789
v -14.685318 0.000000 -14.685375
v -15.836878 0.000000 -13.414827
v -16.858360 0.000000 -12.037526
v -17.739923 0.000000 -10.566733
v -18.473080 0.000000 -9.016615
v -19.050768 0.000000 -7.402100
v -19.467424 0.000000 -5.738736
v -19.719036 0.000000 -4.042541
v -19.803188 0.000000 2.329784
v -19.719049 0.000000 4.042472
v -19.467445 0.000000 5.738667
v -19.050795 0.000000 7.402031
v -18.473116 0.000000 9.016548
v -17.739964 0.000000 10.566669
v -16.858406 0.000000 12.037464
v -15.836929 0.000000 13.414768
v -14.685373 0.000000 14.685319
v -8.154240 0.080000 -2.329790
v -6.448290 0.080000 -6.448306
v -6.832143 0.080000 -6.024792
v -7.172635 0.080000 -5.565693
v -7.466489 0.080000 -5.075430
v -7.710874 0.080000 -4.558726
v -7.903436 0.080000 -4.020555
v -8.042321 0.080000 -3.466102
v -8.126192 0.080000 -2.900706
v -8.154240 0.080000 2.329788
v -8.126194 0.080000 2.900682
v -8.042326 0.080000 3.466079
v -7.903443 0.080000 4.020533
v -7.710883 0.080000 4.558704
v -7.466499 0.080000 5.075409
v -7.172647 0.080000 5.565673
v -6.832157 0.080000 6.024774
v -6.448307 0.080000 6.448290
v -13.978685 0.040000 -2.329789
v -10.566786 0.040000 -10.566822
v -11.334489 0.040000 -9.719793
v -12.015474 0.040000 -8.801594
v -12.603184 0.040000 -7.821070
v -13.091951 0.040000 -6.787661
v -13.477077 0.040000 -5.711321
v -13.754847 0.040000 -4.602414
v -13.922586 0.040000 -3.471621
v -13.978689 0.040000 2.329786
v -13.922598 0.040000 3.471575
v -13.754860 0.040000 4.602368
v -13.477096 0.040000 5.711275
v -13.091975 0.040000 6.787616
v -12.603209 0.040000 7.821027
v -12.015507 0.040000 8.801554
v -11.334525 0.040000 9.719754
v -10.566822 0.040000 10.566786
v -13.815601 0.000000 15.473638
v 0.000000 0.000000 0.000000
v 0.000000 0.080000 0.000000
v 0.000000 0.040000 0.000000
v -9.940979 0.040000 11.134018
v -6.066395 0.080000 6.794436
v -13.815599 0.000000 -15.473637
v -6.066395 0.080000 -6.794435
v -9.940981 0.040000 -11.134017
vt 0.000000 0.000000
vt 0.000000 0.000000
vt 0.000000 0.000000
vt 0.000000 0.000000
vt 0.000000 0.000000
vt 0.000000 0.000000
vt 0.000000 0.000000
vt 0.000000 0.000000
vt 0.000000 0.000000
vt 0.000000 0.000000
vt 0.000000 0.000000
vt 0.000000 0.000000
vt 0.000000 0.000000
vt 0.000000 0.000000
vt 0.000000 0.000000
vt 0.000000 0.000000
vt 0.000000 0.000000
vt 0.000000 0.000000
vt 0.000000 0.000000
vt 0.000000 0.000000
vt 0.000000 0.000000
vt 0.000000 0.000000
vt 0.000000 0.000000
vt 0.000000 0.000000
vt 0.000000 0.000000
vt 0.000000 0.000000
vt 0.000000 0.000000
vt 0.000000 0.000000
vt 0.000000 0.000000
vt 0.000000 0.000000
vt 0.000000 0.000000
vt 0.000000 0.000000
vt 0.000000 0.000000
vt 0.000000 0.000000
vt 0.000000 0.000000
vt 0.000000 0.000000
vt 0.000000 0.000000
vt 0.000000 0.000000
vt 0.000000 0.000000
vt 0.000000 0.000000
vt 0.000000 0.000000
vt 0.000000 0.000000
vt 0.000000 0.000000
vt 0.000000 0.000000
vt 0.000000 0.000000
vt 0.000000 0.000000
vt 0.000000 0.000000
vt 0.000000 0.000000
vt 0.000000 0.000000
vt 0.000000 0.000000
vt 0.000000 0.000000
vt 0.000000 0.000000
vt 0.000000 0.000000
vt 0.000000 0.000000
vt 0.000000 0.000000
vt 0.000000 0.000000
vt 0.000000 0.000000
vt 0.000000 0.000000
vt 0.000000 0.000000
vt 0.000000 0.000000
vt 0.000000 0.000000
vt 0.000000 0.000000
vt 0.000000 0.000000
vn -0.0000 1.0000 0.0000
usemtl None
s off
f 53/1/1 54/2/1 58/3/1
f 17/4/1 18/5/1 56/6/1
f 35/7/1 36/8/1 57/9/1
f 54/2/1 59/10/1 58/3/1
f 58/3/1 63/11/1 38/12/1
f 38/12/1 39/13/1 58/3/1
f 39/13/1 40/14/1 58/3/1
f 40/14/1 41/15/1 58/3/1
f 41/15/1 42/16/1 58/3/1
f 42/16/1 43/17/1 58/3/1
f 43/17/1 44/18/1 58/3/1
f 44/18/1 45/19/1 58/3/1
f 45/19/1 37/20/1 58/3/1
f 37/20/1 46/21/1 58/3/1
f 46/21/1 47/22/1 58/3/1
f 47/22/1 48/23/1 58/3/1
f 48/23/1 49/24/1 58/3/1
f 49/24/1 50/25/1 58/3/1
f 50/25/1 51/26/1 58/3/1
f 51/26/1 52/27/1 58/3/1
f 52/27/1 53/1/1 58/3/1
f 18/5/1 55/28/1 56/6/1
f 56/6/1 61/29/1 2/30/1
f 2/30/1 3/31/1 56/6/1
f 3/31/1 4/32/1 56/6/1
f 4/32/1 5/33/1 56/6/1
f 5/33/1 6/34/1 56/6/1
f 6/34/1 7/35/1 56/6/1
f 7/35/1 8/36/1 56/6/1
f 8/36/1 9/37/1 56/6/1
f 9/37/1 1/38/1 56/6/1
f 1/38/1 10/39/1 56/6/1
f 10/39/1 11/40/1 56/6/1
f 11/40/1 12/41/1 56/6/1
f 12/41/1 13/42/1 56/6/1
f 13/42/1 14/43/1 56/6/1
f 14/43/1 15/44/1 56/6/1
f 15/44/1 16/45/1 56/6/1
f 16/45/1 17/4/1 56/6/1
f 36/8/1 60/46/1 57/9/1
f 57/9/1 62/47/1 20/48/1
f 20/48/1 21/49/1 57/9/1
f 21/49/1 22/50/1 57/9/1
f 22/50/1 23/51/1 57/9/1
f 23/51/1 24/52/1 57/9/1
f 24/52/1 25/53/1 57/9/1
f 25/53/1 26/54/1 57/9/1
f 26/54/1 27/55/1 57/9/1
f 27/55/1 19/56/1 57/9/1
f 19/56/1 28/57/1 57/9/1
f 28/57/1 29/58/1 57/9/1
f 29/58/1 30/59/1 57/9/1
f 30/59/1 31/60/1 57/9/1
f 31/60/1 32/61/1 57/9/1
f 32/61/1 33/62/1 57/9/1
f 33/62/1 34/63/1 57/9/1
f 34/63/1 35/7/1 57/9/1
