# Blender v2.82 (sub 7) OBJ File: 'largebase.blend'
# www.blender.org
o side_Circle.019
v -19.803183 0.000000 -2.329789
v -14.685318 0.000000 -14.685375
v -15.836879 0.000000 -13.414827
v -16.858360 0.000000 -12.037526
v -17.739923 0.000000 -10.566734
v -18.473080 0.000000 -9.016616
v -19.050768 0.000000 -7.402100
v -19.467424 0.000000 -5.738735
v -19.719036 0.000000 -4.042542
v -19.803188 0.000000 2.329784
v -19.719049 0.000000 4.042472
v -19.467445 0.000000 5.738667
v -19.050795 0.000000 7.402031
v -18.473116 0.000000 9.016548
v -17.739964 0.000000 10.566669
v -16.858406 0.000000 12.037464
v -15.836930 0.000000 13.414768
v -14.685374 0.000000 14.685319
v -13.815601 0.000000 15.473638
v 0.000000 0.000000 0.000000
v -13.815600 0.000000 -15.473638
v -13.978684 0.040000 -2.329789
v -10.566785 0.040000 -10.566822
v -11.334489 0.040000 -9.719793
v -12.015473 0.040000 -8.801594
v -12.603183 0.040000 -7.821070
v -13.091950 0.040000 -6.787661
v -13.477076 0.040000 -5.711321
v -13.754846 0.040000 -4.602414
v -13.922585 0.040000 -3.471621
v -13.978689 0.040000 2.329786
v -13.922597 0.040000 3.471575
v -13.754859 0.040000 4.602367
v -13.477095 0.040000 5.711274
v -13.091974 0.040000 6.787616
v -12.603209 0.040000 7.821027
v -12.015506 0.040000 8.801553
v -11.334524 0.040000 9.719753
v -10.566821 0.040000 10.566785
v 0.000000 0.040000 0.000000
v -9.940978 0.040000 11.134016
v -9.940981 0.040000 -11.134016
v -8.154240 0.080000 -2.329789
v -6.448290 0.080000 -6.448306
v -6.832142 0.080000 -6.024791
v -7.172635 0.080000 -5.565693
v -7.466489 0.080000 -5.075430
v -7.710874 0.080000 -4.558725
v -7.903436 0.080000 -4.020555
v -8.042321 0.080000 -3.466102
v -8.126192 0.080000 -2.900706
v -8.154240 0.080000 2.329787
v -8.126194 0.080000 2.900682
v -8.042326 0.080000 3.466079
v -7.903443 0.080000 4.020533
v -7.710883 0.080000 4.558703
v -7.466499 0.080000 5.075409
v -7.172647 0.080000 5.565673
v -6.832157 0.080000 6.024774
v -6.448306 0.080000 6.448290
v 0.000000 0.080000 0.000000
v -6.066394 0.080000 6.794436
v -6.066394 0.080000 -6.794435
vt 0.481499 0.013775
vt 0.481506 0.013793
vt 0.483383 0.825242
vt 0.481510 0.013806
vt 0.481349 0.013809
vt 0.481353 0.013796
vt 0.481360 0.013778
vt 0.481367 0.013762
vt 0.481375 0.013749
vt 0.481383 0.013737
vt 0.481391 0.013728
vt 0.481400 0.013721
vt 0.481408 0.013717
vt 0.481417 0.013716
vt 0.481441 0.013715
vt 0.481450 0.013717
vt 0.481459 0.013720
vt 0.481468 0.013727
vt 0.481476 0.013735
vt 0.481484 0.013746
vt 0.481492 0.013760
vt 0.481499 0.013778
vt 0.481505 0.013794
vt 0.483381 0.811849
vt 0.481509 0.013808
vt 0.481350 0.013798
vt 0.481354 0.013785
vt 0.481360 0.013769
vt 0.481367 0.013755
vt 0.481374 0.013743
vt 0.481381 0.013733
vt 0.481389 0.013726
vt 0.481397 0.013720
vt 0.481405 0.013717
vt 0.481413 0.013716
vt 0.481446 0.013718
vt 0.481455 0.013720
vt 0.481463 0.013724
vt 0.481470 0.013731
vt 0.481478 0.013739
vt 0.481485 0.013750
vt 0.481492 0.013763
vt 0.481502 0.013767
vt 0.481507 0.013781
vt 0.483381 0.812247
vt 0.481511 0.013795
vt 0.481345 0.013793
vt 0.481350 0.013779
vt 0.481355 0.013765
vt 0.481360 0.013753
vt 0.481366 0.013743
vt 0.481373 0.013734
vt 0.481379 0.013727
vt 0.481386 0.013722
vt 0.481393 0.013719
vt 0.481400 0.013718
vt 0.481457 0.013719
vt 0.481464 0.013720
vt 0.481471 0.013723
vt 0.481477 0.013728
vt 0.481484 0.013735
vt 0.481490 0.013744
vt 0.481496 0.013754
vn 0.0000 1.0000 0.0000
s off
f 17/1/1 18/2/1 20/3/1
f 18/2/1 19/4/1 20/3/1
f 20/3/1 21/5/1 2/6/1
f 2/6/1 3/7/1 20/3/1
f 3/7/1 4/8/1 20/3/1
f 4/8/1 5/9/1 20/3/1
f 5/9/1 6/10/1 20/3/1
f 6/10/1 7/11/1 20/3/1
f 7/11/1 8/12/1 20/3/1
f 8/12/1 9/13/1 20/3/1
f 9/13/1 1/14/1 20/3/1
f 1/14/1 10/15/1 20/3/1
f 10/15/1 11/16/1 20/3/1
f 11/16/1 12/17/1 20/3/1
f 12/17/1 13/18/1 20/3/1
f 13/18/1 14/19/1 20/3/1
f 14/19/1 15/20/1 20/3/1
f 15/20/1 16/21/1 20/3/1
f 16/21/1 17/1/1 20/3/1
f 38/22/1 39/23/1 40/24/1
f 39/23/1 41/25/1 40/24/1
f 40/24/1 42/26/1 23/27/1
f 23/27/1 24/28/1 40/24/1
f 24/28/1 25/29/1 40/24/1
f 25/29/1 26/30/1 40/24/1
f 26/30/1 27/31/1 40/24/1
f 27/31/1 28/32/1 40/24/1
f 28/32/1 29/33/1 40/24/1
f 29/33/1 30/34/1 40/24/1
f 30/34/1 22/35/1 40/24/1
f 22/35/1 31/36/1 40/24/1
f 31/36/1 32/37/1 40/24/1
f 32/37/1 33/38/1 40/24/1
f 33/38/1 34/39/1 40/24/1
f 34/39/1 35/40/1 40/24/1
f 35/40/1 36/41/1 40/24/1
f 36/41/1 37/42/1 40/24/1
f 37/42/1 38/22/1 40/24/1
f 59/43/1 60/44/1 61/45/1
f 60/44/1 62/46/1 61/45/1
f 61/45/1 63/47/1 44/48/1
f 44/48/1 45/49/1 61/45/1
f 45/49/1 46/50/1 61/45/1
f 46/50/1 47/51/1 61/45/1
f 47/51/1 48/52/1 61/45/1
f 48/52/1 49/53/1 61/45/1
f 49/53/1 50/54/1 61/45/1
f 50/54/1 51/55/1 61/45/1
f 51/55/1 43/56/1 61/45/1
f 43/56/1 52/57/1 61/45/1
f 52/57/1 53/58/1 61/45/1
f 53/58/1 54/59/1 61/45/1
f 54/59/1 55/60/1 61/45/1
f 55/60/1 56/61/1 61/45/1
f 56/61/1 57/62/1 61/45/1
f 57/62/1 58/63/1 61/45/1
f 58/63/1 59/43/1 61/45/1
