# Blender v2.82 (sub 7) OBJ File: 'largebase.blend'
# www.blender.org
o range2_Circle.007
v 2.329790 0.000000 -13.978684
v 13.978690 0.000000 -2.329785
v 13.922598 0.000000 -3.471574
v 13.754861 0.000000 -4.602366
v 13.477097 0.000000 -5.711274
v 13.091976 0.000000 -6.787615
v 12.603210 0.000000 -7.821026
v 12.015507 0.000000 -8.801553
v 11.334525 0.000000 -9.719753
v 10.566824 0.000000 -10.566785
v 9.719794 0.000000 -11.334490
v 8.801596 0.000000 -12.015476
v 7.821071 0.000000 -12.603183
v 6.787662 0.000000 -13.091952
v 5.711321 0.000000 -13.477077
v 4.602415 0.000000 -13.754848
v 3.471622 0.000000 -13.922587
v -13.978684 0.000000 -2.329789
v -2.329785 0.000000 -13.978690
v -3.471574 0.000000 -13.922599
v -4.602367 0.000000 -13.754861
v -5.711274 0.000000 -13.477097
v -6.787616 0.000000 -13.091976
v -7.821026 0.000000 -12.603211
v -8.801555 0.000000 -12.015508
v -9.719754 0.000000 -11.334525
v -10.566786 0.000000 -10.566823
v -11.334490 0.000000 -9.719793
v -12.015475 0.000000 -8.801595
v -12.603184 0.000000 -7.821071
v -13.091952 0.000000 -6.787661
v -13.477077 0.000000 -5.711321
v -13.754848 0.000000 -4.602414
v -13.922587 0.000000 -3.471621
v -2.329789 0.000000 13.978683
v -13.978690 0.000000 2.329786
v -13.922598 0.000000 3.471574
v -13.754861 0.000000 4.602368
v -13.477097 0.000000 5.711275
v -13.091976 0.000000 6.787616
v -12.603210 0.000000 7.821027
v -12.015507 0.000000 8.801554
v -11.334525 0.000000 9.719754
v -10.566822 0.000000 10.566786
v -9.719793 0.000000 11.334491
v -8.801595 0.000000 12.015474
v -7.821070 0.000000 12.603183
v -6.787660 0.000000 13.091951
v -5.711320 0.000000 13.477076
v -4.602414 0.000000 13.754846
v -3.471621 0.000000 13.922585
v 13.978684 0.000000 2.329790
v 2.329785 0.000000 13.978689
v 3.471574 0.000000 13.922597
v 4.602367 0.000000 13.754861
v 5.711274 0.000000 13.477096
v 6.787616 0.000000 13.091975
v 7.821026 0.000000 12.603209
v 8.801554 0.000000 12.015507
v 9.719754 0.000000 11.334525
v 10.566786 0.000000 10.566823
v 11.334491 0.000000 9.719794
v 12.015475 0.000000 8.801596
v 12.603184 0.000000 7.821071
v 13.091952 0.000000 6.787662
v 13.477077 0.000000 5.711321
v 13.754848 0.000000 4.602415
v 13.922587 0.000000 3.471622
v 0.000000 0.000000 0.000000
vt 0.514765 0.017686
vt 0.514765 0.837127
vt 0.514765 0.017686
vt 0.514765 0.017686
vt 0.514765 0.017686
vt 0.514764 0.017687
vt 0.514764 0.017687
vt 0.514765 0.017686
vt 0.514765 0.017687
vt 0.514765 0.017687
vt 0.514765 0.017687
vt 0.514765 0.017687
vt 0.514765 0.017687
vt 0.514765 0.017687
vt 0.514765 0.017687
vt 0.514765 0.017687
vt 0.514765 0.017687
vt 0.514765 0.017687
vt 0.514765 0.017687
vt 0.514765 0.017687
vt 0.514765 0.017686
vt 0.514765 0.017686
vt 0.514765 0.017686
vt 0.514765 0.017686
vt 0.514765 0.017686
vt 0.514765 0.017686
vt 0.514765 0.017686
vt 0.514765 0.017686
vt 0.514765 0.017686
vt 0.514765 0.017686
vt 0.514765 0.017686
vt 0.514765 0.017686
vt 0.514765 0.017686
vt 0.514765 0.017686
vt 0.514765 0.017686
vt 0.514764 0.017687
vt 0.514764 0.017687
vt 0.514764 0.017687
vt 0.514764 0.017687
vt 0.514764 0.017687
vt 0.514764 0.017687
vt 0.514764 0.017687
vt 0.514764 0.017687
vt 0.514764 0.017686
vt 0.514764 0.017686
vt 0.514764 0.017686
vt 0.514764 0.017686
vt 0.514764 0.017686
vt 0.514764 0.017686
vt 0.514764 0.017686
vt 0.514764 0.017686
vt 0.514764 0.017686
vt 0.514764 0.017686
vt 0.514764 0.017686
vt 0.514764 0.017686
vt 0.514764 0.017686
vt 0.514764 0.017686
vt 0.514765 0.017687
vt 0.514765 0.017687
vt 0.514765 0.017687
vt 0.514765 0.017687
vt 0.514765 0.017687
vt 0.514765 0.017687
vt 0.514765 0.017687
vt 0.514765 0.017687
vt 0.514764 0.017687
vt 0.514764 0.017687
vt 0.514764 0.017687
vt 0.514764 0.017687
vn 0.0000 1.0000 0.0000
s off
f 4/1/1 69/2/1 3/3/1
f 21/4/1 69/2/1 20/5/1
f 45/6/1 69/2/1 44/7/1
f 3/3/1 69/2/1 2/8/1
f 2/8/1 69/2/1 52/9/1
f 52/9/1 69/2/1 68/10/1
f 68/10/1 69/2/1 67/11/1
f 67/11/1 69/2/1 66/12/1
f 66/12/1 69/2/1 65/13/1
f 65/13/1 69/2/1 64/14/1
f 64/14/1 69/2/1 63/15/1
f 63/15/1 69/2/1 62/16/1
f 62/16/1 69/2/1 61/17/1
f 61/17/1 69/2/1 60/18/1
f 60/18/1 69/2/1 59/19/1
f 59/19/1 69/2/1 58/20/1
f 69/2/1 1/21/1 19/22/1
f 1/21/1 69/2/1 17/23/1
f 17/23/1 69/2/1 16/24/1
f 16/24/1 69/2/1 15/25/1
f 15/25/1 69/2/1 14/26/1
f 14/26/1 69/2/1 13/27/1
f 13/27/1 69/2/1 12/28/1
f 12/28/1 69/2/1 11/29/1
f 11/29/1 69/2/1 10/30/1
f 10/30/1 69/2/1 9/31/1
f 9/31/1 69/2/1 8/32/1
f 8/32/1 69/2/1 7/33/1
f 7/33/1 69/2/1 6/34/1
f 6/34/1 69/2/1 5/35/1
f 5/35/1 69/2/1 4/1/1
f 20/5/1 69/2/1 19/22/1
f 69/2/1 42/36/1 43/37/1
f 42/36/1 69/2/1 41/38/1
f 41/38/1 69/2/1 40/39/1
f 40/39/1 69/2/1 39/40/1
f 39/40/1 69/2/1 38/41/1
f 38/41/1 69/2/1 37/42/1
f 37/42/1 69/2/1 36/43/1
f 36/43/1 69/2/1 18/44/1
f 18/44/1 69/2/1 34/45/1
f 34/45/1 69/2/1 33/46/1
f 33/46/1 69/2/1 32/47/1
f 32/47/1 69/2/1 31/48/1
f 31/48/1 69/2/1 30/49/1
f 30/49/1 69/2/1 29/50/1
f 29/50/1 69/2/1 28/51/1
f 28/51/1 69/2/1 27/52/1
f 27/52/1 69/2/1 26/53/1
f 26/53/1 69/2/1 25/54/1
f 25/54/1 69/2/1 24/55/1
f 24/55/1 69/2/1 23/56/1
f 23/56/1 69/2/1 22/57/1
f 22/57/1 69/2/1 21/4/1
f 44/7/1 69/2/1 43/37/1
f 69/2/1 57/58/1 58/20/1
f 57/58/1 69/2/1 56/59/1
f 56/59/1 69/2/1 55/60/1
f 55/60/1 69/2/1 54/61/1
f 54/61/1 69/2/1 53/62/1
f 53/62/1 69/2/1 35/63/1
f 35/63/1 69/2/1 51/64/1
f 51/64/1 69/2/1 50/65/1
f 50/65/1 69/2/1 49/66/1
f 49/66/1 69/2/1 48/67/1
f 48/67/1 69/2/1 47/68/1
f 47/68/1 69/2/1 46/69/1
f 46/69/1 69/2/1 45/6/1
