# Blender v2.82 (sub 7) OBJ File: 'largebase.blend'
# www.blender.org
o front_Circle.017
v 2.329790 0.000000 -19.803181
v 13.414826 0.000000 -15.836880
v 12.037525 0.000000 -16.858360
v 10.566733 0.000000 -17.739923
v 9.016616 0.000000 -18.473080
v 7.402101 0.000000 -19.050766
v 5.738737 0.000000 -19.467422
v 4.042543 0.000000 -19.719036
v -2.329782 0.000000 -19.803188
v -4.042471 0.000000 -19.719051
v -5.738666 0.000000 -19.467443
v -7.402030 0.000000 -19.050795
v -9.016548 0.000000 -18.473114
v -10.566669 0.000000 -17.739964
v -12.037461 0.000000 -16.858406
v -13.414766 0.000000 -15.836930
v 9.719794 0.040000 -11.334490
v 8.801596 0.040000 -12.015475
v -8.801555 0.040000 -12.015507
v -9.719754 0.040000 -11.334525
v 0.000000 0.000000 0.000000
v 9.940981 0.040000 -11.134016
v 13.815599 0.000000 -15.473639
v -13.815600 0.000000 -15.473638
v -9.940982 0.040000 -11.134017
v 6.024792 0.080000 -6.832142
v 5.565693 0.080000 -7.172635
v -5.565673 0.080000 -7.172647
v -6.024773 0.080000 -6.832157
v 2.329790 0.040000 -13.978683
v 8.801595 0.040000 -12.015474
v 7.821071 0.040000 -12.603183
v 6.787662 0.040000 -13.091952
v 5.711321 0.040000 -13.477077
v 4.602414 0.040000 -13.754846
v 3.471622 0.040000 -13.922586
v -2.329785 0.040000 -13.978688
v -3.471574 0.040000 -13.922597
v -4.602366 0.040000 -13.754860
v -5.711273 0.040000 -13.477096
v -6.787615 0.040000 -13.091975
v -7.821026 0.040000 -12.603209
v -8.801554 0.040000 -12.015506
v 0.000000 0.040000 0.000000
v 9.940979 0.040000 -11.134015
v 6.066396 0.080000 -6.794434
v -6.066394 0.080000 -6.794435
v -9.940981 0.040000 -11.134016
v 2.329790 0.080000 -8.154240
v 5.565693 0.080000 -7.172635
v 5.075430 0.080000 -7.466489
v 4.558724 0.080000 -7.710874
v 4.020555 0.080000 -7.903436
v 3.466102 0.080000 -8.042321
v 2.900706 0.080000 -8.126191
v -2.329787 0.080000 -8.154240
v -2.900682 0.080000 -8.126193
v -3.466079 0.080000 -8.042325
v -4.020533 0.080000 -7.903442
v -4.558703 0.080000 -7.710883
v -5.075409 0.080000 -7.466500
v -5.565673 0.080000 -7.172647
v 0.000000 0.080000 0.000000
v 6.066396 0.080000 -6.794434
v -6.066394 0.080000 -6.794435
vt 0.547425 0.011761
vt 0.547427 0.011527
vt 0.547413 0.870486
vt 0.547427 0.011444
vt 0.547400 0.011530
vt 0.547400 0.011610
vt 0.547402 0.011836
vt 0.547403 0.012030
vt 0.547405 0.012191
vt 0.547406 0.012316
vt 0.547408 0.012405
vt 0.547409 0.012456
vt 0.547411 0.012470
vt 0.547416 0.012455
vt 0.547417 0.012431
vt 0.547419 0.012369
vt 0.547421 0.012270
vt 0.547422 0.012135
vt 0.547424 0.011965
vt 0.547423 0.011538
vt 0.547423 0.011475
vt 0.547422 0.011753
vt 0.547403 0.011536
vt 0.547404 0.011597
vt 0.547405 0.011807
vt 0.547421 0.011939
vt 0.547422 0.011753
vt 0.547413 0.870228
vt 0.547423 0.011475
vt 0.547403 0.011536
vt 0.547405 0.011807
vt 0.547406 0.011987
vt 0.547407 0.012136
vt 0.547408 0.012253
vt 0.547409 0.012336
vt 0.547410 0.012385
vt 0.547411 0.012399
vt 0.547416 0.012384
vt 0.547417 0.012363
vt 0.547418 0.012308
vt 0.547419 0.012218
vt 0.547420 0.012094
vt 0.547419 0.011700
vt 0.547419 0.011660
vt 0.547419 0.011866
vt 0.547407 0.011742
vt 0.547407 0.011764
vt 0.547408 0.011942
vt 0.547418 0.012027
vt 0.547419 0.011866
vt 0.547412 0.870133
vt 0.547419 0.011660
vt 0.547407 0.011742
vt 0.547408 0.011942
vt 0.547408 0.012096
vt 0.547409 0.012224
vt 0.547409 0.012324
vt 0.547410 0.012395
vt 0.547410 0.012436
vt 0.547411 0.012447
vt 0.547415 0.012416
vt 0.547416 0.012397
vt 0.547417 0.012348
vt 0.547417 0.012269
vt 0.547418 0.012162
vn 0.0000 1.0000 0.0000
s off
f 15/1/1 16/2/1 21/3/1
f 16/2/1 24/4/1 21/3/1
f 21/3/1 23/5/1 2/6/1
f 2/6/1 3/7/1 21/3/1
f 3/7/1 4/8/1 21/3/1
f 4/8/1 5/9/1 21/3/1
f 5/9/1 6/10/1 21/3/1
f 6/10/1 7/11/1 21/3/1
f 7/11/1 8/12/1 21/3/1
f 8/12/1 1/13/1 21/3/1
f 1/13/1 9/14/1 21/3/1
f 9/14/1 10/15/1 21/3/1
f 10/15/1 11/16/1 21/3/1
f 11/16/1 12/17/1 21/3/1
f 12/17/1 13/18/1 21/3/1
f 13/18/1 14/19/1 21/3/1
f 14/19/1 15/1/1 21/3/1
f 20/20/1 25/21/1 19/22/1
f 22/23/1 17/24/1 18/25/1
f 42/26/1 43/27/1 44/28/1
f 48/29/1 44/28/1 43/27/1
f 44/28/1 45/30/1 31/31/1
f 31/31/1 32/32/1 44/28/1
f 32/32/1 33/33/1 44/28/1
f 33/33/1 34/34/1 44/28/1
f 34/34/1 35/35/1 44/28/1
f 35/35/1 36/36/1 44/28/1
f 36/36/1 30/37/1 44/28/1
f 30/37/1 37/38/1 44/28/1
f 37/38/1 38/39/1 44/28/1
f 38/39/1 39/40/1 44/28/1
f 39/40/1 40/41/1 44/28/1
f 40/41/1 41/42/1 44/28/1
f 41/42/1 42/26/1 44/28/1
f 29/43/1 47/44/1 28/45/1
f 46/46/1 26/47/1 27/48/1
f 61/49/1 62/50/1 63/51/1
f 65/52/1 63/51/1 62/50/1
f 63/51/1 64/53/1 50/54/1
f 50/54/1 51/55/1 63/51/1
f 51/55/1 52/56/1 63/51/1
f 52/56/1 53/57/1 63/51/1
f 53/57/1 54/58/1 63/51/1
f 54/58/1 55/59/1 63/51/1
f 55/59/1 49/60/1 63/51/1
f 49/60/1 56/61/1 63/51/1
f 56/61/1 57/62/1 63/51/1
f 57/62/1 58/63/1 63/51/1
f 58/63/1 59/64/1 63/51/1
f 59/64/1 60/65/1 63/51/1
f 60/65/1 61/49/1 63/51/1
o bullseye.002_front_Circle.002
v 0.355644 -0.020000 -1.141351
v -0.355644 -0.019997 -19.821350
v -0.355644 -0.020000 -1.141351
v 0.355644 -0.019997 -19.821350
vt 0.009968 0.982761
vt 0.020519 0.972210
vt 0.020519 0.982761
vt 0.009968 0.972210
vn 0.0000 1.0000 0.0000
s 1
f 66/66/2 67/67/2 68/68/2
f 66/66/2 69/69/2 67/67/2
