# Blender v2.82 (sub 7) OBJ File: ''
# www.blender.org
mtllib large_front.mtl
o front_Circle.017
v 2.329790 0.000000 -19.803181
v 13.414827 0.000000 -15.836880
v 12.037525 0.000000 -16.858360
v 10.566734 0.000000 -17.739923
v 9.016616 0.000000 -18.473080
v 7.402100 0.000000 -19.050766
v 5.738737 0.000000 -19.467424
v 4.042542 0.000000 -19.719036
v -2.329782 0.000000 -19.803190
v -4.042471 0.000000 -19.719051
v -5.738665 0.000000 -19.467443
v -7.402030 0.000000 -19.050797
v -9.016548 0.000000 -18.473114
v -10.566668 0.000000 -17.739964
v -12.037461 0.000000 -16.858406
v -13.414766 0.000000 -15.836929
v 2.329790 0.080000 -8.154240
v 6.024792 0.080000 -6.832142
v 5.565693 0.080000 -7.172635
v 5.075430 0.080000 -7.466489
v 4.558725 0.080000 -7.710875
v 4.020555 0.080000 -7.903437
v 3.466102 0.080000 -8.042321
v 2.900706 0.080000 -8.126191
v -2.329788 0.080000 -8.154240
v -2.900682 0.080000 -8.126193
v -3.466079 0.080000 -8.042325
v -4.020533 0.080000 -7.903442
v -4.558704 0.080000 -7.710883
v -5.075409 0.080000 -7.466500
v -5.565674 0.080000 -7.172647
v -6.024774 0.080000 -6.832158
v 2.329790 0.040000 -13.978685
v 9.719793 0.040000 -11.334489
v 8.801596 0.040000 -12.015475
v 7.821071 0.040000 -12.603183
v 6.787662 0.040000 -13.091953
v 5.711321 0.040000 -13.477077
v 4.602415 0.040000 -13.754847
v 3.471622 0.040000 -13.922588
v -2.329785 0.040000 -13.978689
v -3.471574 0.040000 -13.922598
v -4.602367 0.040000 -13.754860
v -5.711274 0.040000 -13.477096
v -6.787616 0.040000 -13.091976
v -7.821027 0.040000 -12.603210
v -8.801554 0.040000 -12.015507
v -9.719754 0.040000 -11.334524
v 0.000000 0.000000 0.000000
v 0.000000 0.080000 0.000000
v 0.000000 0.040000 0.000000
v 9.940981 0.040000 -11.134016
v 6.066396 0.080000 -6.794434
v 13.815599 0.000000 -15.473639
v -13.815599 0.000000 -15.473637
v -6.066395 0.080000 -6.794435
v -9.940981 0.040000 -11.134017
vt 0.000000 0.000000
vt 0.000000 0.000000
vt 0.000000 0.000000
vt 0.000000 0.000000
vt 0.000000 0.000000
vt 0.000000 0.000000
vt 0.000000 0.000000
vt 0.000000 0.000000
vt 0.000000 0.000000
vt 0.000000 0.000000
vt 0.000000 0.000000
vt 0.000000 0.000000
vt 0.000000 0.000000
vt 0.000000 0.000000
vt 0.000000 0.000000
vt 0.000000 0.000000
vt 0.000000 0.000000
vt 0.000000 0.000000
vt 0.000000 0.000000
vt 0.000000 0.000000
vt 0.000000 0.000000
vt 0.000000 0.000000
vt 0.000000 0.000000
vt 0.000000 0.000000
vt 0.000000 0.000000
vt 0.000000 0.000000
vt 0.000000 0.000000
vt 0.000000 0.000000
vt 0.000000 0.000000
vt 0.000000 0.000000
vt 0.000000 0.000000
vt 0.000000 0.000000
vt 0.000000 0.000000
vt 0.000000 0.000000
vt 0.000000 0.000000
vt 0.000000 0.000000
vt 0.000000 0.000000
vt 0.000000 0.000000
vt 0.000000 0.000000
vt 0.000000 0.000000
vt 0.000000 0.000000
vt 0.000000 0.000000
vt 0.000000 0.000000
vt 0.000000 0.000000
vt 0.000000 0.000000
vt 0.000000 0.000000
vt 0.000000 0.000000
vt 0.000000 0.000000
vt 0.000000 0.000000
vt 0.000000 0.000000
vt 0.000000 0.000000
vt 0.000000 0.000000
vt 0.000000 0.000000
vt 0.000000 0.000000
vt 0.000000 0.000000
vt 0.000000 0.000000
vt 0.000000 0.000000
vn -0.0000 1.0000 0.0000
usemtl None
s off
f 46/1/1 47/2/1 51/3/1
f 15/4/1 16/5/1 49/6/1
f 30/7/1 31/8/1 50/9/1
f 48/10/1 57/11/1 47/2/1
f 57/11/1 51/3/1 47/2/1
f 51/3/1 52/12/1 35/13/1
f 52/12/1 34/14/1 35/13/1
f 35/13/1 36/15/1 51/3/1
f 36/15/1 37/16/1 51/3/1
f 37/16/1 38/17/1 51/3/1
f 38/17/1 39/18/1 51/3/1
f 39/18/1 40/19/1 51/3/1
f 40/19/1 33/20/1 51/3/1
f 33/20/1 41/21/1 51/3/1
f 41/21/1 42/22/1 51/3/1
f 42/22/1 43/23/1 51/3/1
f 43/23/1 44/24/1 51/3/1
f 44/24/1 45/25/1 51/3/1
f 45/25/1 46/1/1 51/3/1
f 16/5/1 55/26/1 49/6/1
f 49/6/1 54/27/1 2/28/1
f 2/28/1 3/29/1 49/6/1
f 3/29/1 4/30/1 49/6/1
f 4/30/1 5/31/1 49/6/1
f 5/31/1 6/32/1 49/6/1
f 6/32/1 7/33/1 49/6/1
f 7/33/1 8/34/1 49/6/1
f 8/34/1 1/35/1 49/6/1
f 1/35/1 9/36/1 49/6/1
f 9/36/1 10/37/1 49/6/1
f 10/37/1 11/38/1 49/6/1
f 11/38/1 12/39/1 49/6/1
f 12/39/1 13/40/1 49/6/1
f 13/40/1 14/41/1 49/6/1
f 14/41/1 15/4/1 49/6/1
f 32/42/1 56/43/1 31/8/1
f 56/43/1 50/9/1 31/8/1
f 50/9/1 53/44/1 19/45/1
f 53/44/1 18/46/1 19/45/1
f 19/45/1 20/47/1 50/9/1
f 20/47/1 21/48/1 50/9/1
f 21/48/1 22/49/1 50/9/1
f 22/49/1 23/50/1 50/9/1
f 23/50/1 24/51/1 50/9/1
f 24/51/1 17/52/1 50/9/1
f 17/52/1 25/53/1 50/9/1
f 25/53/1 26/54/1 50/9/1
f 26/54/1 27/55/1 50/9/1
f 27/55/1 28/56/1 50/9/1
f 28/56/1 29/57/1 50/9/1
f 29/57/1 30/7/1 50/9/1
o bullseye.002_front_Circle.002
v 0.355644 -0.020000 -1.141351
v -0.355644 -0.019997 -19.821350
v -0.355644 -0.020000 -1.141351
v 0.355644 -0.019997 -19.821350
vt 0.009968 0.982761
vt 0.020519 0.972210
vt 0.020519 0.982761
vt 0.009968 0.972210
vn 0.0000 1.0000 0.0000
usemtl None.003
s 1
f 58/58/2 59/59/2 60/60/2
f 58/58/2 61/61/2 59/59/2
