# Blender v2.82 (sub 7) OBJ File: ''
# www.blender.org
mtllib large_range_3.mtl
o range3_Circle.008
v 19.803183 0.000000 2.329790
v 2.329782 0.000000 19.803190
v 4.042471 0.000000 19.719051
v 5.738666 0.000000 19.467447
v 7.402030 0.000000 19.050797
v 9.016548 0.000000 18.473116
v 10.566669 0.000000 17.739965
v 12.037463 0.000000 16.858408
v 13.414768 0.000000 15.836931
v 14.685319 0.000000 14.685375
v 15.836880 0.000000 13.414828
v 16.858360 0.000000 12.037527
v 17.739925 0.000000 10.566734
v 18.473080 0.000000 9.016617
v 19.050770 0.000000 7.402101
v 19.467424 0.000000 5.738737
v 19.719038 0.000000 4.042542
v 2.329790 0.000000 -19.803181
v 19.803188 0.000000 -2.329782
v 19.719051 0.000000 -4.042470
v 19.467445 0.000000 -5.738665
v 19.050797 0.000000 -7.402030
v 18.473114 0.000000 -9.016546
v 17.739964 0.000000 -10.566668
v 16.858406 0.000000 -12.037463
v 15.836931 0.000000 -13.414766
v 14.685374 0.000000 -14.685318
v 13.414827 0.000000 -15.836880
v 12.037525 0.000000 -16.858360
v 10.566734 0.000000 -17.739923
v 9.016616 0.000000 -18.473080
v 7.402100 0.000000 -19.050766
v 5.738737 0.000000 -19.467424
v 4.042542 0.000000 -19.719036
v -19.803183 0.000000 -2.329789
v -2.329782 0.000000 -19.803190
v -4.042471 0.000000 -19.719051
v -5.738665 0.000000 -19.467443
v -7.402030 0.000000 -19.050797
v -9.016548 0.000000 -18.473114
v -10.566668 0.000000 -17.739964
v -12.037461 0.000000 -16.858406
v -13.414766 0.000000 -15.836929
v -14.685318 0.000000 -14.685375
v -15.836878 0.000000 -13.414827
v -16.858360 0.000000 -12.037526
v -17.739923 0.000000 -10.566733
v -18.473080 0.000000 -9.016615
v -19.050768 0.000000 -7.402100
v -19.467424 0.000000 -5.738736
v -19.719036 0.000000 -4.042541
v -2.329788 0.000000 19.803183
v -19.803188 0.000000 2.329784
v -19.719049 0.000000 4.042472
v -19.467445 0.000000 5.738667
v -19.050795 0.000000 7.402031
v -18.473116 0.000000 9.016548
v -17.739964 0.000000 10.566669
v -16.858406 0.000000 12.037464
v -15.836929 0.000000 13.414768
v -14.685373 0.000000 14.685319
v -13.414826 0.000000 15.836881
v -12.037523 0.000000 16.858360
v -10.566732 0.000000 17.739925
v -9.016614 0.000000 18.473080
v -7.402099 0.000000 19.050768
v -5.738735 0.000000 19.467424
v -4.042541 0.000000 19.719036
vn 0.0000 1.0000 0.0000
usemtl None
s off
f 2//1 10//1 1//1
f 2//1 3//1 4//1
f 4//1 5//1 6//1
f 6//1 7//1 8//1
f 8//1 9//1 6//1
f 9//1 10//1 6//1
f 10//1 11//1 14//1
f 11//1 12//1 14//1
f 12//1 13//1 14//1
f 14//1 15//1 16//1
f 16//1 17//1 14//1
f 17//1 1//1 14//1
f 1//1 19//1 18//1
f 19//1 20//1 34//1
f 20//1 21//1 22//1
f 22//1 23//1 24//1
f 24//1 25//1 26//1
f 26//1 27//1 28//1
f 28//1 29//1 26//1
f 29//1 30//1 26//1
f 30//1 31//1 32//1
f 32//1 33//1 34//1
f 34//1 18//1 19//1
f 18//1 36//1 35//1
f 35//1 36//1 50//1
f 36//1 37//1 38//1
f 38//1 39//1 40//1
f 40//1 41//1 38//1
f 41//1 42//1 38//1
f 42//1 43//1 46//1
f 43//1 44//1 46//1
f 44//1 45//1 46//1
f 46//1 47//1 50//1
f 47//1 48//1 50//1
f 48//1 49//1 50//1
f 50//1 51//1 35//1
f 35//1 53//1 1//1
f 53//1 54//1 52//1
f 1//1 53//1 2//1
f 54//1 55//1 56//1
f 56//1 57//1 58//1
f 58//1 59//1 60//1
f 60//1 61//1 58//1
f 61//1 62//1 58//1
f 62//1 63//1 66//1
f 63//1 64//1 66//1
f 64//1 65//1 66//1
f 66//1 67//1 68//1
f 68//1 52//1 58//1
f 52//1 2//1 53//1
f 58//1 52//1 54//1
f 2//1 4//1 10//1
f 4//1 6//1 10//1
f 20//1 22//1 34//1
f 22//1 24//1 26//1
f 30//1 32//1 26//1
f 32//1 34//1 26//1
f 36//1 38//1 50//1
f 54//1 56//1 58//1
f 66//1 68//1 58//1
f 10//1 14//1 1//1
f 22//1 26//1 34//1
f 38//1 42//1 50//1
f 42//1 46//1 50//1
f 35//1 1//1 18//1
f 58//1 62//1 66//1
