# Blender v2.82 (sub 7) OBJ File: ''
# www.blender.org
o large_fullfront_Circle.054
v -8.965177 0.000003 -18.349030
v -0.000001 0.000000 0.000000
v -5.712481 0.000003 -19.335724
v 18.349022 0.000001 -8.965195
v 16.746712 0.000002 -11.962896
v 19.335720 0.000001 -5.712499
v 19.668890 0.000000 -2.329807
v 19.668890 0.000000 0.000000
v -2.329791 0.000003 -19.668890
v 2.329790 0.000003 -19.668890
v 5.712455 0.000003 -19.335730
v 8.965153 0.000003 -18.349039
v 11.962858 0.000003 -16.746738
v 14.590369 0.000002 -14.590401
v -19.335724 0.000001 -5.712481
v -19.668890 0.000000 -2.329792
v -18.349030 0.000001 -8.965176
v -16.746725 0.000002 -11.962877
v -14.590385 0.000002 -14.590385
v -11.962878 0.000003 -16.746723
v -6.753382 0.040002 -13.009284
v 0.000000 0.040000 0.000000
v -4.584918 0.040002 -13.667080
v 11.941072 0.040001 -8.751862
v 13.009277 0.040001 -6.753394
v -2.329791 0.040002 -13.889191
v -13.667080 0.040001 -4.584918
v -13.889191 0.040000 -2.329792
v -13.009284 0.040001 -6.753382
v -11.941081 0.040001 -8.751849
v -10.503521 0.040002 -10.503521
v -8.751849 0.040002 -11.941080
v 13.667077 0.040001 -4.584929
v 13.889191 0.040000 -2.329802
v 13.889191 0.040000 0.000000
v 2.329790 0.040002 -13.889191
v 4.584900 0.040002 -13.667083
v 6.753366 0.040002 -13.009290
v 8.751835 0.040002 -11.941090
v 10.503510 0.040002 -10.503531
v 7.998434 0.080001 -3.457359
v 0.000000 0.080000 0.000000
v 8.109491 0.080000 -2.329795
v -4.541586 0.080001 -7.669536
v -3.457354 0.080001 -7.998434
v -2.329791 0.080001 -8.109491
v 2.329790 0.080001 -8.109491
v 3.457345 0.080001 -7.998436
v 4.541578 0.080001 -7.669540
v 5.540812 0.080001 -7.135439
v 6.416650 0.080001 -6.416659
v 7.135431 0.080001 -5.540825
v 7.669534 0.080001 -4.541592
v -8.109491 0.080000 -2.329791
v -8.109491 0.080000 0.000000
v -7.998435 0.080001 -3.457354
v -7.669537 0.080001 -4.541586
v -7.135436 0.080001 -5.540819
v -6.416656 0.080001 -6.416656
v -5.540820 0.080001 -7.135435
v 8.109491 0.080000 0.000000
v -19.668890 0.000000 0.000000
v -13.889191 0.040000 0.000000
vt 0.521706 0.015966
vt 0.521703 0.881348
vt 0.521705 0.015946
vt 0.521696 0.016157
vt 0.521697 0.016096
vt 0.521696 0.016223
vt 0.521696 0.016292
vt 0.521696 0.016339
vt 0.521704 0.015940
vt 0.521702 0.015940
vt 0.521701 0.015946
vt 0.521700 0.015966
vt 0.521699 0.015999
vt 0.521698 0.016043
vt 0.521710 0.016223
vt 0.521710 0.016292
vt 0.521709 0.016157
vt 0.521709 0.016096
vt 0.521708 0.016043
vt 0.521707 0.015999
vt 0.499930 0.013242
vt 0.500000 0.872047
vt 0.499926 0.013241
vt 0.499953 0.013233
vt 0.499963 0.013232
vt 0.499925 0.013239
vt 0.499975 0.013245
vt 0.499987 0.013245
vt 0.499963 0.013244
vt 0.499953 0.013244
vt 0.499943 0.013243
vt 0.499935 0.013242
vt 0.499975 0.013232
vt 0.499987 0.013232
vt 0.500000 0.013232
vt 0.499925 0.013237
vt 0.499926 0.013236
vt 0.499930 0.013235
vt 0.499935 0.013234
vt 0.499943 0.013233
vt 0.515568 0.006966
vt 0.515502 0.868946
vt 0.515546 0.006965
vt 0.515649 0.007079
vt 0.515655 0.007069
vt 0.515657 0.007059
vt 0.515657 0.007017
vt 0.515655 0.007006
vt 0.515649 0.006997
vt 0.515639 0.006988
vt 0.515625 0.006980
vt 0.515608 0.006973
vt 0.515589 0.006968
vt 0.515546 0.007111
vt 0.515502 0.007111
vt 0.515568 0.007110
vt 0.515589 0.007107
vt 0.515608 0.007102
vt 0.515625 0.007095
vt 0.515639 0.007088
vt 0.515502 0.006965
vt 0.521710 0.016339
vt 0.500000 0.013245
vn 0.0000 1.0000 0.0000
s off
f 1/1/1 2/2/1 3/3/1
f 2/2/1 4/4/1 5/5/1
f 6/6/1 4/4/1 2/2/1
f 6/6/1 2/2/1 7/7/1
f 7/7/1 2/2/1 8/8/1
f 3/3/1 2/2/1 9/9/1
f 9/9/1 2/2/1 10/10/1
f 10/10/1 2/2/1 11/11/1
f 11/11/1 2/2/1 12/12/1
f 12/12/1 2/2/1 13/13/1
f 13/13/1 2/2/1 14/14/1
f 14/14/1 2/2/1 5/5/1
f 2/2/1 15/15/1 16/16/1
f 15/15/1 2/2/1 17/17/1
f 17/17/1 2/2/1 18/18/1
f 18/18/1 2/2/1 19/19/1
f 19/19/1 2/2/1 20/20/1
f 20/20/1 2/2/1 1/1/1
f 21/21/1 22/22/1 23/23/1
f 24/24/1 22/22/1 25/25/1
f 23/23/1 22/22/1 26/26/1
f 22/22/1 27/27/1 28/28/1
f 27/27/1 22/22/1 29/29/1
f 29/29/1 22/22/1 30/30/1
f 30/30/1 22/22/1 31/31/1
f 31/31/1 22/22/1 32/32/1
f 32/32/1 22/22/1 21/21/1
f 33/33/1 22/22/1 34/34/1
f 34/34/1 22/22/1 35/35/1
f 22/22/1 36/36/1 26/26/1
f 33/33/1 25/25/1 22/22/1
f 36/36/1 22/22/1 37/37/1
f 37/37/1 22/22/1 38/38/1
f 38/38/1 22/22/1 39/39/1
f 39/39/1 22/22/1 40/40/1
f 40/40/1 22/22/1 24/24/1
f 41/41/1 42/42/1 43/43/1
f 44/44/1 42/42/1 45/45/1
f 46/46/1 42/42/1 47/47/1
f 47/47/1 42/42/1 48/48/1
f 48/48/1 42/42/1 49/49/1
f 49/49/1 42/42/1 50/50/1
f 50/50/1 42/42/1 51/51/1
f 51/51/1 42/42/1 52/52/1
f 52/52/1 42/42/1 53/53/1
f 53/53/1 42/42/1 41/41/1
f 45/45/1 42/42/1 46/46/1
f 42/42/1 54/54/1 55/55/1
f 54/54/1 42/42/1 56/56/1
f 56/56/1 42/42/1 57/57/1
f 57/57/1 42/42/1 58/58/1
f 58/58/1 42/42/1 59/59/1
f 59/59/1 42/42/1 60/60/1
f 60/60/1 42/42/1 44/44/1
f 42/42/1 61/61/1 43/43/1
f 62/62/1 2/2/1 16/16/1
f 63/63/1 22/22/1 28/28/1
o large_bullseye_bullseye.003_front_Circle.004
v 0.417953 -0.020000 -1.132186
v -0.417953 -0.019985 -19.662188
v -0.417953 -0.020000 -1.132186
v 0.417953 -0.019985 -19.662188
vt 0.009968 0.982761
vt 0.020519 0.972210
vt 0.020519 0.982761
vt 0.009968 0.972210
vn 0.0000 1.0000 0.0000
s 1
f 64/64/2 65/65/2 66/66/2
f 64/64/2 67/67/2 65/65/2
