# Blender v2.82 (sub 7) OBJ File: 'mediumbase.blend'
# www.blender.org
o fullfront_Circle.003
v -1.747299 0.000000 19.220291
v -19.220301 0.000000 1.747294
v -19.136164 0.000000 3.459943
v -18.884563 0.000000 5.156099
v -18.467924 0.000000 6.819426
v -17.890255 0.000000 8.433907
v -17.157122 0.000000 9.983992
v -16.275583 0.000000 11.454752
v -15.254131 0.000000 12.832026
v -14.102602 0.000000 14.102548
v -12.832083 0.000000 15.254082
v -11.454813 0.000000 16.275539
v -9.984055 0.000000 17.157082
v -8.433971 0.000000 17.890221
v -6.819493 0.000000 18.467896
v -5.156168 0.000000 18.884542
v -3.460012 0.000000 19.136148
v 19.220293 0.000000 1.747298
v 1.747294 0.000000 19.220301
v 3.459943 0.000000 19.136164
v 5.156099 0.000000 18.884565
v 6.819427 0.000000 18.467924
v 8.433907 0.000000 17.890255
v 9.983992 0.000000 17.157122
v 11.454753 0.000000 16.275583
v 12.832026 0.000000 15.254132
v 14.102550 0.000000 14.102602
v 15.254082 0.000000 12.832082
v 16.275539 0.000000 11.454813
v 17.157084 0.000000 9.984054
v 17.890221 0.000000 8.433971
v 18.467897 0.000000 6.819493
v 18.884544 0.000000 5.156167
v 19.136148 0.000000 3.460011
v -19.220299 0.000000 0.000002
v 19.220299 0.000000 -0.000001
v -0.000000 0.000000 0.000000
v -1.747299 0.040000 13.395993
v -13.396003 0.040000 1.747296
v -13.339912 0.040000 2.889065
v -13.172177 0.040000 4.019839
v -12.894416 0.040000 5.128726
v -12.509302 0.040000 6.205050
v -12.020545 0.040000 7.238443
v -11.432852 0.040000 8.218953
v -10.751882 0.040000 9.137137
v -9.984193 0.040000 9.984155
v -9.137177 0.040000 10.751846
v -8.218994 0.040000 11.432820
v -7.238486 0.040000 12.020516
v -6.205094 0.040000 12.509277
v -5.128773 0.040000 12.894396
v -4.019886 0.040000 13.172160
v -2.889112 0.040000 13.339898
v 13.395996 0.040000 1.747298
v 1.747296 0.040000 13.396000
v 2.889066 0.040000 13.339909
v 4.019840 0.040000 13.172175
v 5.128727 0.040000 12.894415
v 6.205050 0.040000 12.509300
v 7.238443 0.040000 12.020542
v 8.218955 0.040000 11.432850
v 9.137139 0.040000 10.751880
v 9.984156 0.040000 9.984190
v 10.751848 0.040000 9.137176
v 11.432821 0.040000 8.218992
v 12.020519 0.040000 7.238485
v 12.509279 0.040000 6.205093
v 12.894395 0.040000 5.128772
v 13.172162 0.040000 4.019884
v 13.339901 0.040000 2.889111
v -13.395999 0.040000 0.000001
v 13.395999 0.040000 -0.000001
v -0.000000 0.040000 0.000000
v -1.747300 0.080000 7.571650
v -7.571651 0.080000 1.747298
v -7.543606 0.080000 2.318183
v -7.459738 0.080000 2.883570
v -7.320858 0.080000 3.438015
v -7.128301 0.080000 3.976176
v -6.883923 0.080000 4.492873
v -6.590077 0.080000 4.983128
v -6.249591 0.080000 5.442221
v -5.865746 0.080000 5.865729
v -5.442239 0.080000 6.249576
v -4.983148 0.080000 6.590063
v -4.492893 0.080000 6.883912
v -3.976198 0.080000 7.128292
v -3.438036 0.080000 7.320851
v -2.883593 0.080000 7.459733
v -2.318206 0.080000 7.543602
v 7.571651 0.080000 1.747299
v 1.747298 0.080000 7.571650
v 2.318183 0.080000 7.543604
v 2.883570 0.080000 7.459737
v 3.438015 0.080000 7.320857
v 3.976177 0.080000 7.128301
v 4.492873 0.080000 6.883922
v 4.983129 0.080000 6.590075
v 5.442222 0.080000 6.249590
v 5.865730 0.080000 5.865745
v 6.249576 0.080000 5.442238
v 6.590064 0.080000 4.983146
v 6.883912 0.080000 4.492892
v 7.128293 0.080000 3.976197
v 7.320851 0.080000 3.438036
v 7.459734 0.080000 2.883592
v 7.543603 0.080000 2.318205
v -7.571651 0.080000 0.000001
v 7.571651 0.080000 -0.000000
v -0.000000 0.080000 0.000000
vt 0.459968 0.870527
vt 0.459958 0.011326
vt 0.459958 0.011277
vt 0.459958 0.011229
vt 0.459958 0.011181
vt 0.459959 0.011134
vt 0.459959 0.011088
vt 0.459959 0.011045
vt 0.459960 0.011003
vt 0.459960 0.010964
vt 0.459961 0.010928
vt 0.459962 0.010896
vt 0.459962 0.010867
vt 0.459963 0.010842
vt 0.459964 0.010821
vt 0.459965 0.010805
vt 0.459966 0.010793
vt 0.459966 0.010785
vt 0.459967 0.010783
vt 0.459969 0.010782
vt 0.459970 0.010785
vt 0.459971 0.010792
vt 0.459972 0.010803
vt 0.459973 0.010819
vt 0.459973 0.010840
vt 0.459974 0.010865
vt 0.459975 0.010893
vt 0.459976 0.010926
vt 0.459976 0.010961
vt 0.459977 0.011000
vt 0.459977 0.011041
vt 0.459978 0.011085
vt 0.459978 0.011131
vt 0.459978 0.011177
vt 0.459978 0.011225
vt 0.459978 0.011274
vt 0.459978 0.011323
vt 0.519782 0.027804
vt 0.519782 0.028335
vt 0.519081 0.870439
vt 0.519761 0.025316
vt 0.519766 0.025569
vt 0.519624 0.028479
vt 0.519624 0.027948
vt 0.519770 0.025845
vt 0.519774 0.026140
vt 0.519777 0.026452
vt 0.519779 0.026778
vt 0.519781 0.027113
vt 0.519782 0.027457
vt 0.519643 0.025423
vt 0.519648 0.025185
vt 0.519654 0.024973
vt 0.519659 0.024789
vt 0.519665 0.024635
vt 0.519672 0.024512
vt 0.519678 0.024421
vt 0.519685 0.024364
vt 0.519692 0.024341
vt 0.519712 0.024322
vt 0.519719 0.024333
vt 0.519726 0.024378
vt 0.519732 0.024457
vt 0.519739 0.024568
vt 0.519745 0.024711
vt 0.519751 0.024885
vt 0.519756 0.025087
vt 0.519624 0.027600
vt 0.519625 0.027255
vt 0.519627 0.026916
vt 0.519629 0.026587
vt 0.519632 0.026270
vt 0.519635 0.025968
vt 0.519639 0.025685
vt 0.519743 0.026542
vt 0.519744 0.027074
vt 0.519403 0.874500
vt 0.519720 0.024964
vt 0.519723 0.025030
vt 0.519654 0.027312
vt 0.519654 0.026781
vt 0.519654 0.026607
vt 0.519654 0.026434
vt 0.519655 0.026263
vt 0.519656 0.026097
vt 0.519657 0.025936
vt 0.519659 0.025782
vt 0.519661 0.025637
vt 0.519663 0.025503
vt 0.519665 0.025379
vt 0.519668 0.025268
vt 0.519726 0.025112
vt 0.519729 0.025208
vt 0.519732 0.025318
vt 0.519734 0.025440
vt 0.519736 0.025575
vt 0.519738 0.025719
vt 0.519740 0.025872
vt 0.519741 0.026033
vt 0.519742 0.026199
vt 0.519743 0.026369
vt 0.519670 0.025171
vt 0.519673 0.025089
vt 0.519677 0.025022
vt 0.519680 0.024971
vt 0.519683 0.024937
vt 0.519686 0.024919
vt 0.519707 0.024864
vt 0.519710 0.024864
vt 0.519714 0.024880
vt 0.519717 0.024914
vn 0.0000 1.0000 0.0000
s off
f 37/1/1 35/2/1 2/3/1
f 2/3/1 3/4/1 37/1/1
f 3/4/1 4/5/1 37/1/1
f 4/5/1 5/6/1 37/1/1
f 5/6/1 6/7/1 37/1/1
f 6/7/1 7/8/1 37/1/1
f 7/8/1 8/9/1 37/1/1
f 8/9/1 9/10/1 37/1/1
f 9/10/1 10/11/1 37/1/1
f 10/11/1 11/12/1 37/1/1
f 11/12/1 12/13/1 37/1/1
f 12/13/1 13/14/1 37/1/1
f 13/14/1 14/15/1 37/1/1
f 14/15/1 15/16/1 37/1/1
f 15/16/1 16/17/1 37/1/1
f 16/17/1 17/18/1 37/1/1
f 17/18/1 1/19/1 37/1/1
f 1/19/1 19/20/1 37/1/1
f 19/20/1 20/21/1 37/1/1
f 20/21/1 21/22/1 37/1/1
f 21/22/1 22/23/1 37/1/1
f 22/23/1 23/24/1 37/1/1
f 23/24/1 24/25/1 37/1/1
f 24/25/1 25/26/1 37/1/1
f 25/26/1 26/27/1 37/1/1
f 26/27/1 27/28/1 37/1/1
f 27/28/1 28/29/1 37/1/1
f 28/29/1 29/30/1 37/1/1
f 29/30/1 30/31/1 37/1/1
f 30/31/1 31/32/1 37/1/1
f 31/32/1 32/33/1 37/1/1
f 32/33/1 33/34/1 37/1/1
f 33/34/1 34/35/1 37/1/1
f 34/35/1 18/36/1 37/1/1
f 18/36/1 36/37/1 37/1/1
f 55/38/1 73/39/1 74/40/1
f 64/41/1 65/42/1 74/40/1
f 74/40/1 72/43/1 39/44/1
f 74/40/1 65/42/1 66/45/1
f 66/45/1 67/46/1 74/40/1
f 67/46/1 68/47/1 74/40/1
f 68/47/1 69/48/1 74/40/1
f 69/48/1 70/49/1 74/40/1
f 70/49/1 71/50/1 74/40/1
f 71/50/1 55/38/1 74/40/1
f 74/40/1 47/51/1 48/52/1
f 48/52/1 49/53/1 74/40/1
f 49/53/1 50/54/1 74/40/1
f 50/54/1 51/55/1 74/40/1
f 51/55/1 52/56/1 74/40/1
f 52/56/1 53/57/1 74/40/1
f 53/57/1 54/58/1 74/40/1
f 54/58/1 38/59/1 74/40/1
f 38/59/1 56/60/1 74/40/1
f 56/60/1 57/61/1 74/40/1
f 57/61/1 58/62/1 74/40/1
f 58/62/1 59/63/1 74/40/1
f 59/63/1 60/64/1 74/40/1
f 60/64/1 61/65/1 74/40/1
f 61/65/1 62/66/1 74/40/1
f 62/66/1 63/67/1 74/40/1
f 63/67/1 64/41/1 74/40/1
f 39/44/1 40/68/1 74/40/1
f 40/68/1 41/69/1 74/40/1
f 41/69/1 42/70/1 74/40/1
f 42/70/1 43/71/1 74/40/1
f 43/71/1 44/72/1 74/40/1
f 44/72/1 45/73/1 74/40/1
f 45/73/1 46/74/1 74/40/1
f 46/74/1 47/51/1 74/40/1
f 92/75/1 110/76/1 111/77/1
f 97/78/1 98/79/1 111/77/1
f 111/77/1 109/80/1 76/81/1
f 76/81/1 77/82/1 111/77/1
f 77/82/1 78/83/1 111/77/1
f 78/83/1 79/84/1 111/77/1
f 79/84/1 80/85/1 111/77/1
f 80/85/1 81/86/1 111/77/1
f 81/86/1 82/87/1 111/77/1
f 82/87/1 83/88/1 111/77/1
f 83/88/1 84/89/1 111/77/1
f 84/89/1 85/90/1 111/77/1
f 85/90/1 86/91/1 111/77/1
f 98/79/1 99/92/1 111/77/1
f 99/92/1 100/93/1 111/77/1
f 100/93/1 101/94/1 111/77/1
f 101/94/1 102/95/1 111/77/1
f 102/95/1 103/96/1 111/77/1
f 103/96/1 104/97/1 111/77/1
f 104/97/1 105/98/1 111/77/1
f 105/98/1 106/99/1 111/77/1
f 106/99/1 107/100/1 111/77/1
f 107/100/1 108/101/1 111/77/1
f 108/101/1 92/75/1 111/77/1
f 111/77/1 86/91/1 87/102/1
f 87/102/1 88/103/1 111/77/1
f 88/103/1 89/104/1 111/77/1
f 89/104/1 90/105/1 111/77/1
f 90/105/1 91/106/1 111/77/1
f 91/106/1 75/107/1 111/77/1
f 75/107/1 93/108/1 111/77/1
f 93/108/1 94/109/1 111/77/1
f 94/109/1 95/110/1 111/77/1
f 95/110/1 96/111/1 111/77/1
f 96/111/1 97/78/1 111/77/1
