# Blender v2.82 (sub 7) OBJ File: 'mediumbase.blend'
# www.blender.org
mtllib medium_side_4.mtl
o side_Circle.018
v 19.220299 0.000000 -1.747292
v 19.136162 0.000000 -3.459941
v 18.884563 0.000000 -5.156097
v 18.467922 0.000000 -6.819424
v 17.890255 0.000000 -8.433904
v 17.157122 0.000000 -9.983990
v 16.275583 0.000000 -11.454751
v 15.254132 0.000000 -12.832024
v 14.102602 0.000000 -14.102546
v 19.220293 0.000000 1.747300
v 14.102548 0.000000 14.102603
v 15.254081 0.000000 12.832084
v 16.275537 0.000000 11.454814
v 17.157084 0.000000 9.984056
v 17.890221 0.000000 8.433973
v 18.467896 0.000000 6.819495
v 18.884542 0.000000 5.156168
v 19.136148 0.000000 3.460013
v 7.571650 0.080000 -1.747297
v 7.543605 0.080000 -2.318182
v 7.459738 0.080000 -2.883569
v 7.320858 0.080000 -3.438014
v 7.128301 0.080000 -3.976175
v 6.883923 0.080000 -4.492872
v 6.590076 0.080000 -4.983128
v 6.249590 0.080000 -5.442220
v 5.865746 0.080000 -5.865729
v 7.571650 0.080000 1.747300
v 5.865729 0.080000 5.865746
v 6.249575 0.080000 5.442239
v 6.590062 0.080000 4.983147
v 6.883911 0.080000 4.492893
v 7.128292 0.080000 3.976198
v 7.320851 0.080000 3.438036
v 7.459733 0.080000 2.883592
v 7.543602 0.080000 2.318206
v 13.396000 0.040000 -1.747294
v 13.339910 0.040000 -2.889064
v 13.172175 0.040000 -4.019838
v 12.894415 0.040000 -5.128725
v 12.509301 0.040000 -6.205049
v 12.020545 0.040000 -7.238442
v 11.432852 0.040000 -8.218951
v 10.751881 0.040000 -9.137136
v 9.984192 0.040000 -9.984154
v 13.395995 0.040000 1.747300
v 9.984154 0.040000 9.984193
v 10.751845 0.040000 9.137177
v 11.432819 0.040000 8.218993
v 12.020517 0.040000 7.238486
v 12.509278 0.040000 6.205094
v 12.894395 0.040000 5.128773
v 13.172161 0.040000 4.019885
v 13.339899 0.040000 2.889112
v -0.000000 0.000000 0.000000
v -0.000000 0.040000 0.000000
v -0.000000 0.080000 0.000000
v 5.479761 0.080000 -6.215567
v 13.174597 0.000000 -14.943644
v 9.327194 0.040000 -10.579624
v 5.479760 0.080000 6.215566
v 13.174597 0.000000 14.943645
v 9.327194 0.040000 10.579624
vt 0.545445 0.999900
vt 0.454554 0.999900
vt 0.500002 0.499999
vt 0.615361 0.999900
vt 0.384639 0.999900
vt 0.500000 0.500000
vt 0.434796 0.000100
vt 0.565204 0.000100
vt 0.500000 0.499999
vt 0.410011 0.997712
vt 0.365895 0.991167
vt 0.322631 0.980330
vt 0.280643 0.965307
vt 0.240327 0.946239
vt 0.202073 0.923310
vt 0.166252 0.896743
vt 0.133207 0.866793
vt 0.111331 0.842657
vt 0.888669 0.842658
vt 0.866794 0.866793
vt 0.833749 0.896743
vt 0.797929 0.923309
vt 0.759676 0.946238
vt 0.719358 0.965306
vt 0.677368 0.980331
vt 0.634106 0.991167
vt 0.589991 0.997711
vt 0.346949 0.998048
vt 0.309619 0.992511
vt 0.273011 0.983341
vt 0.237483 0.970629
vt 0.203370 0.954495
vt 0.171001 0.935094
vt 0.140690 0.912614
vt 0.112729 0.887272
vt 0.089632 0.861788
vt 0.910368 0.861789
vt 0.887272 0.887271
vt 0.859311 0.912613
vt 0.829001 0.935093
vt 0.796633 0.954494
vt 0.762519 0.970628
vt 0.726988 0.983342
vt 0.690381 0.992511
vt 0.653054 0.998048
vt 0.607811 0.002193
vt 0.650009 0.008452
vt 0.691392 0.018819
vt 0.731555 0.033189
vt 0.770117 0.051428
vt 0.806708 0.073359
vt 0.840972 0.098771
vt 0.872580 0.127419
vt 0.894802 0.151936
vt 0.105199 0.151936
vt 0.127420 0.127419
vt 0.159027 0.098772
vt 0.193291 0.073360
vt 0.229880 0.051429
vt 0.268444 0.033190
vt 0.308609 0.018818
vt 0.349990 0.008453
vt 0.392187 0.002193
vn 0.0000 1.0000 0.0000
usemtl None
s off
f 10/1/1 1/2/1 55/3/1
f 28/4/1 19/5/1 57/6/1
f 46/7/1 37/8/1 56/9/1
f 1/2/1 2/10/1 55/3/1
f 2/10/1 3/11/1 55/3/1
f 3/11/1 4/12/1 55/3/1
f 4/12/1 5/13/1 55/3/1
f 5/13/1 6/14/1 55/3/1
f 6/14/1 7/15/1 55/3/1
f 7/15/1 8/16/1 55/3/1
f 8/16/1 9/17/1 55/3/1
f 9/17/1 59/18/1 55/3/1
f 55/3/1 62/19/1 11/20/1
f 11/20/1 12/21/1 55/3/1
f 12/21/1 13/22/1 55/3/1
f 13/22/1 14/23/1 55/3/1
f 14/23/1 15/24/1 55/3/1
f 15/24/1 16/25/1 55/3/1
f 16/25/1 17/26/1 55/3/1
f 17/26/1 18/27/1 55/3/1
f 18/27/1 10/1/1 55/3/1
f 19/5/1 20/28/1 57/6/1
f 20/28/1 21/29/1 57/6/1
f 21/29/1 22/30/1 57/6/1
f 22/30/1 23/31/1 57/6/1
f 23/31/1 24/32/1 57/6/1
f 24/32/1 25/33/1 57/6/1
f 25/33/1 26/34/1 57/6/1
f 26/34/1 27/35/1 57/6/1
f 27/35/1 58/36/1 57/6/1
f 57/6/1 61/37/1 29/38/1
f 29/38/1 30/39/1 57/6/1
f 30/39/1 31/40/1 57/6/1
f 31/40/1 32/41/1 57/6/1
f 32/41/1 33/42/1 57/6/1
f 33/42/1 34/43/1 57/6/1
f 34/43/1 35/44/1 57/6/1
f 35/44/1 36/45/1 57/6/1
f 36/45/1 28/4/1 57/6/1
f 37/8/1 38/46/1 56/9/1
f 38/46/1 39/47/1 56/9/1
f 39/47/1 40/48/1 56/9/1
f 40/48/1 41/49/1 56/9/1
f 41/49/1 42/50/1 56/9/1
f 42/50/1 43/51/1 56/9/1
f 43/51/1 44/52/1 56/9/1
f 44/52/1 45/53/1 56/9/1
f 45/53/1 60/54/1 56/9/1
f 56/9/1 63/55/1 47/56/1
f 47/56/1 48/57/1 56/9/1
f 48/57/1 49/58/1 56/9/1
f 49/58/1 50/59/1 56/9/1
f 50/59/1 51/60/1 56/9/1
f 51/60/1 52/61/1 56/9/1
f 52/61/1 53/62/1 56/9/1
f 53/62/1 54/63/1 56/9/1
f 54/63/1 46/7/1 56/9/1
