# Blender v2.82 (sub 7) OBJ File: 'smallbase.blend'
# www.blender.org
o med_range1_Circle.006
v -1.747300 0.000000 -7.527000
v -2.874864 0.000000 -7.415945
v -3.959095 0.000000 -7.087046
v -4.958329 0.000000 -6.552944
v -5.834165 0.000000 -5.834165
v -6.552945 0.000000 -4.958329
v -7.087046 0.000000 -3.959095
v -7.415945 0.000000 -2.874864
v -7.527000 0.000000 -1.747301
v 1.747300 0.000000 -7.527000
v 7.526999 0.000000 -1.747306
v 7.415943 0.000000 -2.874869
v 7.087043 0.000000 -3.959101
v 6.552941 0.000000 -4.958335
v 5.834159 0.000000 -5.834170
v 4.958322 0.000000 -6.552949
v 3.959087 0.000000 -7.087050
v 2.874855 0.000000 -7.415946
v 1.747302 0.000000 7.526999
v 2.874866 0.000000 7.415944
v 3.959097 0.000000 7.087045
v 4.958332 0.000000 6.552943
v 5.834167 0.000000 5.834162
v 6.552947 0.000000 4.958325
v 7.087048 0.000000 3.959091
v 7.415946 0.000000 2.874858
v 7.526999 0.000000 1.747294
v -7.527000 0.000000 1.747300
v -7.415945 0.000000 2.874863
v -7.087047 0.000000 3.959095
v -6.552945 0.000000 4.958329
v -5.834165 0.000000 5.834164
v -4.958329 0.000000 6.552945
v -3.959095 0.000000 7.087047
v -2.874862 0.000000 7.415944
v -1.747298 0.000000 7.526999
v 0.000000 0.000000 0.000000
vt 0.512304 0.027530
vt 0.512304 0.027530
vt 0.512304 0.888804
vt 0.512304 0.027530
vt 0.512304 0.027530
vt 0.512304 0.027530
vt 0.512304 0.027530
vt 0.512304 0.027530
vt 0.512304 0.027530
vt 0.512304 0.027530
vt 0.512304 0.027530
vt 0.512304 0.027530
vt 0.512304 0.027530
vt 0.512304 0.027530
vt 0.512304 0.027530
vt 0.512304 0.027530
vt 0.512304 0.027530
vt 0.512304 0.027530
vt 0.512304 0.027530
vt 0.512304 0.027530
vt 0.512304 0.027530
vt 0.512304 0.027530
vt 0.512304 0.027530
vt 0.512304 0.027530
vt 0.512304 0.027530
vt 0.512304 0.027530
vt 0.512304 0.027530
vt 0.512304 0.027530
vt 0.512304 0.027530
vt 0.512304 0.027530
vt 0.512304 0.027530
vt 0.512304 0.027530
vt 0.512304 0.027530
vt 0.512304 0.027530
vt 0.512304 0.027530
vt 0.512304 0.027530
vt 0.512304 0.027530
vn 0.0000 1.0000 0.0000
s off
f 10/1/1 1/2/1 37/3/1
f 27/4/1 11/5/1 37/3/1
f 36/6/1 19/7/1 37/3/1
f 30/8/1 31/9/1 37/3/1
f 37/3/1 11/5/1 12/10/1
f 12/10/1 13/11/1 37/3/1
f 13/11/1 14/12/1 37/3/1
f 14/12/1 15/13/1 37/3/1
f 15/13/1 16/14/1 37/3/1
f 16/14/1 17/15/1 37/3/1
f 17/15/1 18/16/1 37/3/1
f 18/16/1 10/1/1 37/3/1
f 37/3/1 19/7/1 20/17/1
f 20/17/1 21/18/1 37/3/1
f 21/18/1 22/19/1 37/3/1
f 22/19/1 23/20/1 37/3/1
f 23/20/1 24/21/1 37/3/1
f 24/21/1 25/22/1 37/3/1
f 25/22/1 26/23/1 37/3/1
f 26/23/1 27/4/1 37/3/1
f 37/3/1 31/9/1 32/24/1
f 32/24/1 33/25/1 37/3/1
f 33/25/1 34/26/1 37/3/1
f 34/26/1 35/27/1 37/3/1
f 35/27/1 36/6/1 37/3/1
f 37/3/1 1/2/1 2/28/1
f 2/28/1 3/29/1 37/3/1
f 3/29/1 4/30/1 37/3/1
f 4/30/1 5/31/1 37/3/1
f 5/31/1 6/32/1 37/3/1
f 6/32/1 7/33/1 37/3/1
f 7/33/1 8/34/1 37/3/1
f 8/34/1 9/35/1 37/3/1
f 9/35/1 28/36/1 37/3/1
f 28/36/1 29/37/1 37/3/1
f 29/37/1 30/8/1 37/3/1
