# Blender v2.82 (sub 7) OBJ File: 'mediumbase.blend'
# www.blender.org
mtllib medium_leftright_4.mtl
o leftright_Circle.016
v 19.220299 0.000000 -1.747292
v 19.136162 0.000000 -3.459941
v 18.884563 0.000000 -5.156097
v 18.467922 0.000000 -6.819424
v 17.890255 0.000000 -8.433904
v 17.157122 0.000000 -9.983990
v 16.275583 0.000000 -11.454751
v 15.254132 0.000000 -12.832024
v 14.102602 0.000000 -14.102546
v -19.220295 0.000000 -1.747299
v -14.102549 0.000000 -14.102602
v -15.254081 0.000000 -12.832083
v -16.275539 0.000000 -11.454813
v -17.157085 0.000000 -9.984056
v -17.890223 0.000000 -8.433972
v -18.467897 0.000000 -6.819495
v -18.884544 0.000000 -5.156168
v -19.136150 0.000000 -3.460012
v -19.220303 0.000000 1.747294
v -19.136168 0.000000 3.459943
v -18.884565 0.000000 5.156099
v -18.467928 0.000000 6.819426
v -17.890259 0.000000 8.433907
v -17.157124 0.000000 9.983991
v -16.275587 0.000000 11.454752
v -15.254134 0.000000 12.832025
v -14.102603 0.000000 14.102547
v 19.220293 0.000000 1.747300
v 14.102548 0.000000 14.102603
v 15.254081 0.000000 12.832084
v 16.275537 0.000000 11.454814
v 17.157084 0.000000 9.984056
v 17.890221 0.000000 8.433973
v 18.467896 0.000000 6.819495
v 18.884542 0.000000 5.156168
v 19.136148 0.000000 3.460013
v 7.571650 0.080000 -1.747297
v 7.543605 0.080000 -2.318182
v 7.459738 0.080000 -2.883569
v 7.320858 0.080000 -3.438014
v 7.128301 0.080000 -3.976175
v 6.883923 0.080000 -4.492872
v 6.590076 0.080000 -4.983128
v 6.249590 0.080000 -5.442220
v 5.865746 0.080000 -5.865729
v -7.571651 0.080000 -1.747300
v -5.865729 0.080000 -5.865746
v -6.249575 0.080000 -5.442238
v -6.590062 0.080000 -4.983147
v -6.883911 0.080000 -4.492893
v -7.128291 0.080000 -3.976197
v -7.320850 0.080000 -3.438036
v -7.459732 0.080000 -2.883592
v -7.543602 0.080000 -2.318206
v -7.571651 0.080000 1.747298
v -7.543604 0.080000 2.318182
v -7.459738 0.080000 2.883570
v -7.320857 0.080000 3.438014
v -7.128301 0.080000 3.976176
v -6.883922 0.080000 4.492873
v -6.590075 0.080000 4.983128
v -6.249590 0.080000 5.442221
v -5.865746 0.080000 5.865729
v 7.571650 0.080000 1.747300
v 5.865729 0.080000 5.865746
v 6.249575 0.080000 5.442239
v 6.590062 0.080000 4.983147
v 6.883911 0.080000 4.492893
v 7.128292 0.080000 3.976198
v 7.320851 0.080000 3.438036
v 7.459733 0.080000 2.883592
v 7.543602 0.080000 2.318206
v 13.396000 0.040000 -1.747294
v 13.339910 0.040000 -2.889064
v 13.172175 0.040000 -4.019838
v 12.894415 0.040000 -5.128725
v 12.509301 0.040000 -6.205049
v 12.020545 0.040000 -7.238442
v 11.432852 0.040000 -8.218951
v 10.751881 0.040000 -9.137136
v 9.984192 0.040000 -9.984154
v -13.395994 0.040000 -1.747299
v -9.984155 0.040000 -9.984191
v -10.751846 0.040000 -9.137176
v -11.432819 0.040000 -8.218993
v -12.020517 0.040000 -7.238486
v -12.509278 0.040000 -6.205094
v -12.894395 0.040000 -5.128773
v -13.172160 0.040000 -4.019885
v -13.339899 0.040000 -2.889112
v -13.396000 0.040000 1.747295
v -13.339909 0.040000 2.889065
v -13.172175 0.040000 4.019838
v -12.894414 0.040000 5.128726
v -12.509301 0.040000 6.205049
v -12.020543 0.040000 7.238442
v -11.432850 0.040000 8.218952
v -10.751880 0.040000 9.137136
v -9.984192 0.040000 9.984153
v 13.395995 0.040000 1.747300
v 9.984154 0.040000 9.984193
v 10.751845 0.040000 9.137177
v 11.432819 0.040000 8.218993
v 12.020517 0.040000 7.238486
v 12.509278 0.040000 6.205094
v 12.894395 0.040000 5.128773
v 13.172161 0.040000 4.019885
v 13.339899 0.040000 2.889112
v -13.174597 0.000000 -14.943644
v -9.327193 0.040000 -10.579623
v -0.000000 0.000000 0.000000
v -0.000000 0.040000 0.000000
v -0.000000 0.080000 0.000000
v -5.479760 0.080000 -6.215567
v 5.479761 0.080000 -6.215567
v 13.174597 0.000000 -14.943644
v 9.327194 0.040000 -10.579624
v 5.479760 0.080000 6.215566
v 13.174597 0.000000 14.943645
v 9.327194 0.040000 10.579624
v -9.327195 0.040000 10.579622
v -13.174599 0.000000 14.943645
v -5.479761 0.080000 6.215567
vt 0.545445 0.999900
vt 0.454554 0.999900
vt 0.500002 0.499999
vt 0.615361 0.999900
vt 0.384639 0.999900
vt 0.500000 0.500000
vt 0.434796 0.000100
vt 0.565204 0.000100
vt 0.500000 0.499999
vt 0.859308 0.087385
vt 0.887271 0.112728
vt 0.159027 0.901228
vt 0.127419 0.872580
vt 0.833748 0.103256
vt 0.866794 0.133207
vt 0.410011 0.997712
vt 0.365895 0.991167
vt 0.322631 0.980330
vt 0.280643 0.965307
vt 0.240327 0.946239
vt 0.202073 0.923310
vt 0.166252 0.896743
vt 0.133207 0.866793
vt 0.111331 0.842657
vt 0.888669 0.842658
vt 0.866794 0.866793
vt 0.833749 0.896743
vt 0.797929 0.923309
vt 0.759676 0.946238
vt 0.719358 0.965306
vt 0.677368 0.980331
vt 0.634106 0.991167
vt 0.589991 0.997711
vt 0.346949 0.998048
vt 0.309619 0.992511
vt 0.273011 0.983341
vt 0.237483 0.970629
vt 0.203370 0.954495
vt 0.171001 0.935094
vt 0.140690 0.912614
vt 0.112729 0.887272
vt 0.089632 0.861788
vt 0.910368 0.861789
vt 0.887272 0.887271
vt 0.859311 0.912613
vt 0.829001 0.935093
vt 0.796633 0.954494
vt 0.762519 0.970628
vt 0.726988 0.983342
vt 0.690381 0.992511
vt 0.653054 0.998048
vt 0.607811 0.002193
vt 0.650009 0.008452
vt 0.691392 0.018819
vt 0.731555 0.033189
vt 0.770117 0.051428
vt 0.806708 0.073359
vt 0.840972 0.098771
vt 0.872580 0.127419
vt 0.894802 0.151936
vt 0.105199 0.151936
vt 0.127420 0.127419
vt 0.159027 0.098772
vt 0.193291 0.073360
vt 0.229880 0.051429
vt 0.268444 0.033190
vt 0.308609 0.018818
vt 0.349990 0.008453
vt 0.392187 0.002193
vt 0.910368 0.138212
vt 0.089632 0.138212
vt 0.112729 0.112729
vt 0.140689 0.087387
vt 0.171000 0.064907
vt 0.203367 0.045507
vt 0.237482 0.029372
vt 0.273012 0.016658
vt 0.309618 0.007489
vt 0.346946 0.001952
vt 0.384639 0.000100
vt 0.615361 0.000100
vt 0.653053 0.001952
vt 0.690381 0.007489
vt 0.726987 0.016658
vt 0.762518 0.029371
vt 0.796631 0.045505
vt 0.828999 0.064906
vt 0.105199 0.848064
vt 0.894801 0.848065
vt 0.872580 0.872581
vt 0.840972 0.901229
vt 0.806709 0.926640
vt 0.770119 0.948571
vt 0.731556 0.966810
vt 0.691391 0.981182
vt 0.650011 0.991547
vt 0.607813 0.997806
vt 0.565204 0.999900
vt 0.434795 0.999900
vt 0.392189 0.997807
vt 0.349991 0.991547
vt 0.308609 0.981182
vt 0.268445 0.966811
vt 0.229881 0.948571
vt 0.193292 0.926640
vt 0.888669 0.157343
vt 0.111332 0.157342
vt 0.133206 0.133207
vt 0.166252 0.103257
vt 0.202072 0.076690
vt 0.240326 0.053762
vt 0.280642 0.034694
vt 0.322632 0.019669
vt 0.365895 0.008832
vt 0.410010 0.002289
vt 0.454556 0.000100
vt 0.545446 0.000100
vt 0.589991 0.002288
vt 0.634106 0.008832
vt 0.677368 0.019669
vt 0.719359 0.034694
vt 0.759674 0.053761
vt 0.797927 0.076689
vn 0.0000 1.0000 0.0000
usemtl None
s off
f 28/1/1 1/2/1 111/3/1
f 64/4/1 37/5/1 113/6/1
f 100/7/1 73/8/1 112/9/1
f 62/10/1 63/11/1 113/6/1
f 98/12/1 99/13/1 112/9/1
f 26/14/1 27/15/1 111/3/1
f 1/2/1 2/16/1 111/3/1
f 2/16/1 3/17/1 111/3/1
f 3/17/1 4/18/1 111/3/1
f 4/18/1 5/19/1 111/3/1
f 5/19/1 6/20/1 111/3/1
f 6/20/1 7/21/1 111/3/1
f 7/21/1 8/22/1 111/3/1
f 8/22/1 9/23/1 111/3/1
f 9/23/1 116/24/1 111/3/1
f 111/3/1 119/25/1 29/26/1
f 29/26/1 30/27/1 111/3/1
f 30/27/1 31/28/1 111/3/1
f 31/28/1 32/29/1 111/3/1
f 32/29/1 33/30/1 111/3/1
f 33/30/1 34/31/1 111/3/1
f 34/31/1 35/32/1 111/3/1
f 35/32/1 36/33/1 111/3/1
f 36/33/1 28/1/1 111/3/1
f 37/5/1 38/34/1 113/6/1
f 38/34/1 39/35/1 113/6/1
f 39/35/1 40/36/1 113/6/1
f 40/36/1 41/37/1 113/6/1
f 41/37/1 42/38/1 113/6/1
f 42/38/1 43/39/1 113/6/1
f 43/39/1 44/40/1 113/6/1
f 44/40/1 45/41/1 113/6/1
f 45/41/1 115/42/1 113/6/1
f 113/6/1 118/43/1 65/44/1
f 65/44/1 66/45/1 113/6/1
f 66/45/1 67/46/1 113/6/1
f 67/46/1 68/47/1 113/6/1
f 68/47/1 69/48/1 113/6/1
f 69/48/1 70/49/1 113/6/1
f 70/49/1 71/50/1 113/6/1
f 71/50/1 72/51/1 113/6/1
f 72/51/1 64/4/1 113/6/1
f 73/8/1 74/52/1 112/9/1
f 74/52/1 75/53/1 112/9/1
f 75/53/1 76/54/1 112/9/1
f 76/54/1 77/55/1 112/9/1
f 77/55/1 78/56/1 112/9/1
f 78/56/1 79/57/1 112/9/1
f 79/57/1 80/58/1 112/9/1
f 80/58/1 81/59/1 112/9/1
f 81/59/1 117/60/1 112/9/1
f 112/9/1 120/61/1 101/62/1
f 101/62/1 102/63/1 112/9/1
f 102/63/1 103/64/1 112/9/1
f 103/64/1 104/65/1 112/9/1
f 104/65/1 105/66/1 112/9/1
f 105/66/1 106/67/1 112/9/1
f 106/67/1 107/68/1 112/9/1
f 107/68/1 108/69/1 112/9/1
f 108/69/1 100/7/1 112/9/1
f 63/11/1 123/70/1 113/6/1
f 113/6/1 114/71/1 47/72/1
f 47/72/1 48/73/1 113/6/1
f 48/73/1 49/74/1 113/6/1
f 49/74/1 50/75/1 113/6/1
f 50/75/1 51/76/1 113/6/1
f 51/76/1 52/77/1 113/6/1
f 52/77/1 53/78/1 113/6/1
f 53/78/1 54/79/1 113/6/1
f 54/79/1 46/80/1 113/6/1
f 46/80/1 55/81/1 113/6/1
f 55/81/1 56/82/1 113/6/1
f 56/82/1 57/83/1 113/6/1
f 57/83/1 58/84/1 113/6/1
f 58/84/1 59/85/1 113/6/1
f 59/85/1 60/86/1 113/6/1
f 60/86/1 61/87/1 113/6/1
f 61/87/1 62/10/1 113/6/1
f 99/13/1 121/88/1 112/9/1
f 112/9/1 110/89/1 83/90/1
f 83/90/1 84/91/1 112/9/1
f 84/91/1 85/92/1 112/9/1
f 85/92/1 86/93/1 112/9/1
f 86/93/1 87/94/1 112/9/1
f 87/94/1 88/95/1 112/9/1
f 88/95/1 89/96/1 112/9/1
f 89/96/1 90/97/1 112/9/1
f 90/97/1 82/98/1 112/9/1
f 82/98/1 91/99/1 112/9/1
f 91/99/1 92/100/1 112/9/1
f 92/100/1 93/101/1 112/9/1
f 93/101/1 94/102/1 112/9/1
f 94/102/1 95/103/1 112/9/1
f 95/103/1 96/104/1 112/9/1
f 96/104/1 97/105/1 112/9/1
f 97/105/1 98/12/1 112/9/1
f 27/15/1 122/106/1 111/3/1
f 111/3/1 109/107/1 11/108/1
f 11/108/1 12/109/1 111/3/1
f 12/109/1 13/110/1 111/3/1
f 13/110/1 14/111/1 111/3/1
f 14/111/1 15/112/1 111/3/1
f 15/112/1 16/113/1 111/3/1
f 16/113/1 17/114/1 111/3/1
f 17/114/1 18/115/1 111/3/1
f 18/115/1 10/116/1 111/3/1
f 10/116/1 19/117/1 111/3/1
f 19/117/1 20/118/1 111/3/1
f 20/118/1 21/119/1 111/3/1
f 21/119/1 22/120/1 111/3/1
f 22/120/1 23/121/1 111/3/1
f 23/121/1 24/122/1 111/3/1
f 24/122/1 25/123/1 111/3/1
f 25/123/1 26/14/1 111/3/1
