# Blender v2.82 (sub 7) OBJ File: 'mediumbase.blend'
# www.blender.org
o r2_Circle.008
v 1.747300 0.000000 -13.395993
v 13.396000 0.000000 -1.747295
v 13.339910 0.000000 -2.889064
v 13.172174 0.000000 -4.019838
v 12.894415 0.000000 -5.128726
v 12.509301 0.000000 -6.205049
v 12.020544 0.000000 -7.238441
v 11.432851 0.000000 -8.218952
v 10.751880 0.000000 -9.137136
v 9.984192 0.000000 -9.984154
v 9.137177 0.000000 -10.751845
v 8.218994 0.000000 -11.432818
v 7.238486 0.000000 -12.020517
v 6.205095 0.000000 -12.509276
v 5.128773 0.000000 -12.894395
v 4.019886 0.000000 -13.172160
v 2.889112 0.000000 -13.339898
v -13.395993 0.000000 -1.747299
v -1.747295 0.000000 -13.395999
v -2.889065 0.000000 -13.339909
v -4.019838 0.000000 -13.172175
v -5.128726 0.000000 -12.894414
v -6.205049 0.000000 -12.509300
v -7.238441 0.000000 -12.020543
v -8.218953 0.000000 -11.432851
v -9.137137 0.000000 -10.751881
v -9.984154 0.000000 -9.984192
v -10.751846 0.000000 -9.137176
v -11.432819 0.000000 -8.218994
v -12.020516 0.000000 -7.238486
v -12.509277 0.000000 -6.205095
v -12.894394 0.000000 -5.128773
v -13.172159 0.000000 -4.019885
v -13.339898 0.000000 -2.889112
v -1.747299 0.000000 13.395993
v -13.395999 0.000000 1.747295
v -13.339908 0.000000 2.889065
v -13.172174 0.000000 4.019838
v -12.894413 0.000000 5.128726
v -12.509299 0.000000 6.205049
v -12.020542 0.000000 7.238443
v -11.432850 0.000000 8.218952
v -10.751880 0.000000 9.137136
v -9.984192 0.000000 9.984154
v -9.137177 0.000000 10.751845
v -8.218994 0.000000 11.432820
v -7.238485 0.000000 12.020517
v -6.205094 0.000000 12.509276
v -5.128772 0.000000 12.894395
v -4.019885 0.000000 13.172160
v -2.889111 0.000000 13.339898
v 13.395995 0.000000 1.747300
v 1.747295 0.000000 13.395999
v 2.889064 0.000000 13.339910
v 4.019838 0.000000 13.172175
v 5.128725 0.000000 12.894414
v 6.205049 0.000000 12.509302
v 7.238441 0.000000 12.020545
v 8.218952 0.000000 11.432851
v 9.137136 0.000000 10.751881
v 9.984154 0.000000 9.984193
v 10.751845 0.000000 9.137177
v 11.432818 0.000000 8.218994
v 12.020517 0.000000 7.238486
v 12.509277 0.000000 6.205095
v 12.894396 0.000000 5.128773
v 13.172161 0.000000 4.019886
v 13.339898 0.000000 2.889112
v 0.000000 0.000000 0.000000
vt 0.531984 0.027530
vt 0.529529 0.881421
vt 0.531980 0.027530
vt 0.531943 0.027530
vt 0.531942 0.027530
vt 0.532037 0.027530
vt 0.532038 0.027530
vt 0.531976 0.027530
vt 0.532038 0.027530
vt 0.532038 0.027530
vt 0.532038 0.027530
vt 0.532037 0.027530
vt 0.532036 0.027530
vt 0.532035 0.027530
vt 0.532033 0.027530
vt 0.532031 0.027530
vt 0.532029 0.027530
vt 0.532026 0.027530
vt 0.532023 0.027530
vt 0.532020 0.027530
vt 0.532016 0.027530
vt 0.532012 0.027530
vt 0.532008 0.027530
vt 0.532004 0.027530
vt 0.532000 0.027530
vt 0.531996 0.027530
vt 0.531942 0.027530
vt 0.531942 0.027530
vt 0.531942 0.027530
vt 0.531943 0.027530
vt 0.531944 0.027530
vt 0.531945 0.027530
vt 0.531947 0.027530
vt 0.531972 0.027530
vt 0.531968 0.027530
vt 0.531964 0.027530
vt 0.531960 0.027530
vt 0.531957 0.027530
vt 0.531954 0.027530
vt 0.531951 0.027530
vt 0.531949 0.027530
vt 0.531947 0.027530
vt 0.531945 0.027530
vt 0.531944 0.027530
vt 0.531949 0.027530
vt 0.531951 0.027530
vt 0.531954 0.027530
vt 0.531957 0.027530
vt 0.531960 0.027530
vt 0.531964 0.027530
vt 0.531968 0.027530
vt 0.531972 0.027530
vt 0.531976 0.027530
vt 0.531980 0.027530
vt 0.531984 0.027530
vt 0.531996 0.027530
vt 0.532000 0.027530
vt 0.532004 0.027530
vt 0.532008 0.027530
vt 0.532012 0.027530
vt 0.532016 0.027530
vt 0.532020 0.027530
vt 0.532023 0.027530
vt 0.532026 0.027530
vt 0.532029 0.027530
vt 0.532031 0.027530
vt 0.532033 0.027530
vt 0.532035 0.027530
vt 0.532036 0.027530
vn 0.0000 1.0000 0.0000
s off
f 1/1/1 69/2/1 17/3/1
f 4/4/1 69/2/1 3/5/1
f 38/6/1 69/2/1 37/7/1
f 17/3/1 69/2/1 16/8/1
f 69/2/1 18/9/1 36/10/1
f 18/9/1 69/2/1 34/11/1
f 34/11/1 69/2/1 33/12/1
f 33/12/1 69/2/1 32/13/1
f 32/13/1 69/2/1 31/14/1
f 31/14/1 69/2/1 30/15/1
f 30/15/1 69/2/1 29/16/1
f 29/16/1 69/2/1 28/17/1
f 28/17/1 69/2/1 27/18/1
f 27/18/1 69/2/1 26/19/1
f 26/19/1 69/2/1 25/20/1
f 25/20/1 69/2/1 24/21/1
f 24/21/1 69/2/1 23/22/1
f 23/22/1 69/2/1 22/23/1
f 22/23/1 69/2/1 21/24/1
f 21/24/1 69/2/1 20/25/1
f 20/25/1 69/2/1 19/26/1
f 19/26/1 69/2/1 1/1/1
f 3/5/1 69/2/1 2/27/1
f 2/27/1 69/2/1 52/28/1
f 52/28/1 69/2/1 68/29/1
f 68/29/1 69/2/1 67/30/1
f 67/30/1 69/2/1 66/31/1
f 66/31/1 69/2/1 65/32/1
f 65/32/1 69/2/1 64/33/1
f 69/2/1 15/34/1 16/8/1
f 15/34/1 69/2/1 14/35/1
f 14/35/1 69/2/1 13/36/1
f 13/36/1 69/2/1 12/37/1
f 12/37/1 69/2/1 11/38/1
f 11/38/1 69/2/1 10/39/1
f 10/39/1 69/2/1 9/40/1
f 9/40/1 69/2/1 8/41/1
f 8/41/1 69/2/1 7/42/1
f 7/42/1 69/2/1 6/43/1
f 6/43/1 69/2/1 5/44/1
f 5/44/1 69/2/1 4/4/1
f 37/7/1 69/2/1 36/10/1
f 69/2/1 63/45/1 64/33/1
f 63/45/1 69/2/1 62/46/1
f 62/46/1 69/2/1 61/47/1
f 61/47/1 69/2/1 60/48/1
f 60/48/1 69/2/1 59/49/1
f 59/49/1 69/2/1 58/50/1
f 58/50/1 69/2/1 57/51/1
f 57/51/1 69/2/1 56/52/1
f 56/52/1 69/2/1 55/53/1
f 55/53/1 69/2/1 54/54/1
f 54/54/1 69/2/1 53/55/1
f 53/55/1 69/2/1 35/56/1
f 35/56/1 69/2/1 51/57/1
f 51/57/1 69/2/1 50/58/1
f 50/58/1 69/2/1 49/59/1
f 49/59/1 69/2/1 48/60/1
f 48/60/1 69/2/1 47/61/1
f 47/61/1 69/2/1 46/62/1
f 46/62/1 69/2/1 45/63/1
f 45/63/1 69/2/1 44/64/1
f 44/64/1 69/2/1 43/65/1
f 43/65/1 69/2/1 42/66/1
f 42/66/1 69/2/1 41/67/1
f 41/67/1 69/2/1 40/68/1
f 40/68/1 69/2/1 39/69/1
f 39/69/1 69/2/1 38/6/1
