# Blender v2.82 (sub 7) OBJ File: 'smallbase.blend'
# www.blender.org
o medium_fullfback_Circle.046
v -1.747300 0.000000 19.086397
v -19.086401 0.000000 1.747315
v -18.753231 0.000000 5.130006
v -17.766531 0.000000 8.382702
v -16.164223 0.000000 11.380404
v -14.007880 0.000000 14.007908
v -11.380368 0.000000 16.164246
v -8.382661 0.000000 17.766546
v -5.129964 0.000000 18.753235
v 1.747301 0.000000 19.086397
v 5.129991 0.000000 18.753229
v 8.382687 0.000000 17.766535
v 11.380388 0.000000 16.164228
v 14.007893 0.000000 14.007891
v 16.164236 0.000000 11.380383
v 17.766537 0.000000 8.382681
v 18.753231 0.000000 5.129986
v 19.086397 0.000000 1.747296
v -0.000001 0.000000 -0.000004
v -19.086401 0.000000 -0.000002
v 19.086399 -0.000000 -0.000005
v 1.747300 0.040000 13.306696
v 4.002427 0.040000 13.084585
v 6.170891 0.040000 12.426787
v 8.169358 0.040000 11.358584
v 9.921029 0.040000 9.921025
v 11.358589 0.040000 8.169353
v 12.426792 0.040000 6.170887
v 13.084587 0.040000 4.002423
v 13.306698 0.040000 1.747296
v -1.747300 0.040000 13.306696
v -13.306700 0.040000 1.747309
v -13.084588 0.040000 4.002436
v -12.426787 0.040000 6.170901
v -11.358582 0.040000 8.169368
v -9.921019 0.040000 9.921038
v -8.169346 0.040000 11.358596
v -6.170875 0.040000 12.426797
v -4.002409 0.040000 13.084588
v -0.000001 0.040000 -0.000004
v -13.306700 0.040000 -0.000002
v 13.306698 0.040000 -0.000004
v 1.747300 0.080000 7.526996
v 2.874863 0.080000 7.415940
v 3.959095 0.080000 7.087042
v 4.958329 0.080000 6.552940
v 5.834164 0.080000 5.834161
v 6.552945 0.080000 4.958325
v 7.087046 0.080000 3.959091
v 7.415944 0.080000 2.874859
v 7.526999 0.080000 1.747296
v -1.747300 0.080000 7.526996
v -7.527000 0.080000 1.747303
v -7.415943 0.080000 2.874866
v -7.087044 0.080000 3.959098
v -6.552941 0.080000 4.958332
v -5.834160 0.080000 5.834167
v -4.958323 0.080000 6.552946
v -3.959088 0.080000 7.087047
v -2.874855 0.080000 7.415943
v -0.000001 0.080000 -0.000004
v -7.527000 0.080000 -0.000003
v 7.526999 0.080000 -0.000004
vt 0.500002 0.034912
vt 0.500001 0.034912
vt 0.500000 0.886343
vt 0.500006 0.034912
vt 0.500005 0.034912
vt 0.500001 0.034912
vt 0.500002 0.034912
vt 0.500003 0.034912
vt 0.500004 0.034912
vt 0.500005 0.034912
vt 0.500005 0.034912
vt 0.500006 0.034912
vt 0.500000 0.034912
vt 0.500005 0.034912
vt 0.500004 0.034912
vt 0.500003 0.034912
vt 0.500006 0.034912
vt 0.500006 0.034912
vt 0.500006 0.034912
vt 0.500006 0.034912
vt 0.500000 0.034912
vt 0.517226 0.869117
vt 0.517388 0.010287
vt 0.517390 0.010297
vt 0.517247 0.010247
vt 0.517275 0.010248
vt 0.517302 0.010251
vt 0.517327 0.010256
vt 0.517348 0.010262
vt 0.517366 0.010269
vt 0.517379 0.010278
vt 0.517390 0.010312
vt 0.517388 0.010321
vt 0.517379 0.010331
vt 0.517366 0.010339
vt 0.517348 0.010347
vt 0.517327 0.010353
vt 0.517302 0.010357
vt 0.517275 0.010360
vt 0.517247 0.010361
vt 0.517226 0.010361
vt 0.517226 0.010247
vt 0.512304 0.027530
vt 0.512304 0.027530
vt 0.512304 0.888804
vt 0.512304 0.027530
vt 0.512304 0.027530
vt 0.512304 0.027530
vt 0.512304 0.027530
vt 0.512304 0.027530
vt 0.512304 0.027530
vt 0.512304 0.027530
vt 0.512304 0.027530
vt 0.512304 0.027530
vt 0.512304 0.027530
vt 0.512304 0.027530
vt 0.512304 0.027530
vt 0.512304 0.027530
vt 0.512304 0.027530
vt 0.512304 0.027530
vt 0.512304 0.027530
vt 0.512304 0.027530
vt 0.512304 0.027530
vn 0.0000 1.0000 0.0000
s off
f 17/1/1 18/2/1 19/3/1
f 12/4/1 13/5/1 19/3/1
f 2/6/1 3/7/1 19/3/1
f 3/7/1 4/8/1 19/3/1
f 4/8/1 5/9/1 19/3/1
f 5/9/1 6/10/1 19/3/1
f 6/10/1 7/11/1 19/3/1
f 7/11/1 8/12/1 19/3/1
f 18/2/1 21/13/1 19/3/1
f 19/3/1 13/5/1 14/14/1
f 14/14/1 15/15/1 19/3/1
f 15/15/1 16/16/1 19/3/1
f 16/16/1 17/1/1 19/3/1
f 19/3/1 8/12/1 9/17/1
f 9/17/1 1/18/1 19/3/1
f 1/18/1 10/19/1 19/3/1
f 10/19/1 11/20/1 19/3/1
f 11/20/1 12/4/1 19/3/1
f 19/3/1 20/21/1 2/6/1
f 40/22/1 39/23/1 31/24/1
f 32/25/1 33/26/1 40/22/1
f 33/26/1 34/27/1 40/22/1
f 34/27/1 35/28/1 40/22/1
f 35/28/1 36/29/1 40/22/1
f 36/29/1 37/30/1 40/22/1
f 37/30/1 38/31/1 40/22/1
f 38/31/1 39/23/1 40/22/1
f 31/24/1 22/32/1 40/22/1
f 22/32/1 23/33/1 40/22/1
f 23/33/1 24/34/1 40/22/1
f 24/34/1 25/35/1 40/22/1
f 25/35/1 26/36/1 40/22/1
f 26/36/1 27/37/1 40/22/1
f 27/37/1 28/38/1 40/22/1
f 28/38/1 29/39/1 40/22/1
f 40/22/1 29/39/1 30/40/1
f 30/40/1 42/41/1 40/22/1
f 40/22/1 41/42/1 32/25/1
f 52/43/1 43/44/1 61/45/1
f 61/45/1 53/46/1 54/47/1
f 54/47/1 55/48/1 61/45/1
f 55/48/1 56/49/1 61/45/1
f 56/49/1 57/50/1 61/45/1
f 57/50/1 58/51/1 61/45/1
f 58/51/1 59/52/1 61/45/1
f 59/52/1 60/53/1 61/45/1
f 60/53/1 52/43/1 61/45/1
f 61/45/1 43/44/1 44/54/1
f 44/54/1 45/55/1 61/45/1
f 45/55/1 46/56/1 61/45/1
f 46/56/1 47/57/1 61/45/1
f 47/57/1 48/58/1 61/45/1
f 48/58/1 49/59/1 61/45/1
f 49/59/1 50/60/1 61/45/1
f 50/60/1 51/61/1 61/45/1
f 51/61/1 63/62/1 61/45/1
f 61/45/1 62/63/1 53/46/1
