# Blender v2.82 (sub 7) OBJ File: 'mediumbase.blend'
# www.blender.org
mtllib medium_back.mtl
o back_Circle.022
v -1.747299 0.000000 19.220291
v -12.832085 0.000000 15.254081
v -11.454815 0.000000 16.275539
v -9.984056 0.000000 17.157084
v -8.433973 0.000000 17.890223
v -6.819494 0.000000 18.467896
v -5.156168 0.000000 18.884542
v -3.460012 0.000000 19.136150
v 1.747292 0.000000 19.220301
v 3.459941 0.000000 19.136166
v 5.156097 0.000000 18.884565
v 6.819425 0.000000 18.467924
v 8.433905 0.000000 17.890259
v 9.983990 0.000000 17.157124
v 11.454752 0.000000 16.275585
v 12.832025 0.000000 15.254132
v -1.747300 0.080000 7.571651
v -5.442238 0.080000 6.249575
v -4.983147 0.080000 6.590062
v -4.492893 0.080000 6.883911
v -3.976197 0.080000 7.128292
v -3.438036 0.080000 7.320850
v -2.883592 0.080000 7.459733
v -2.318205 0.080000 7.543602
v 1.747297 0.080000 7.571651
v 2.318182 0.080000 7.543605
v 2.883569 0.080000 7.459738
v 3.438014 0.080000 7.320857
v 3.976175 0.080000 7.128301
v 4.492872 0.080000 6.883923
v 4.983128 0.080000 6.590075
v 5.442220 0.080000 6.249590
v -1.747299 0.040000 13.395993
v -9.137177 0.040000 10.751844
v -8.218995 0.040000 11.432819
v -7.238485 0.040000 12.020516
v -6.205094 0.040000 12.509275
v -5.128771 0.040000 12.894394
v -4.019885 0.040000 13.172159
v -2.889111 0.040000 13.339898
v 1.747295 0.040000 13.395998
v 2.889064 0.040000 13.339909
v 4.019838 0.040000 13.172174
v 5.128726 0.040000 12.894413
v 6.205049 0.040000 12.509301
v 7.238441 0.040000 12.020545
v 8.218952 0.040000 11.432850
v 9.137136 0.040000 10.751881
v -0.000000 0.000000 0.000000
v -0.000000 0.040000 0.000000
v -0.000000 0.080000 0.000000
v 5.479760 0.080000 6.215566
v 13.174597 0.000000 14.943645
v 9.327194 0.040000 10.579624
v -9.327195 0.040000 10.579622
v -13.174599 0.000000 14.943645
v -5.479761 0.080000 6.215567
vt 0.954494 0.796632
vt 0.935094 0.829000
vt 0.500000 0.500000
vt 0.073358 0.193293
vt 0.098771 0.159028
vt 0.500000 0.499999
vt 0.923312 0.797925
vt 0.896744 0.833748
vt 0.500002 0.499999
vt 0.912614 0.859310
vt 0.910368 0.861789
vt 0.910368 0.138212
vt 0.935093 0.171000
vt 0.912613 0.140689
vt 0.954493 0.203367
vt 0.970629 0.237482
vt 0.983342 0.273012
vt 0.992511 0.309618
vt 0.998048 0.346948
vt 0.999900 0.384639
vt 0.999900 0.615361
vt 0.998048 0.653053
vt 0.992511 0.690383
vt 0.983342 0.726988
vt 0.970629 0.762518
vt 0.105199 0.151936
vt 0.105199 0.848064
vt 0.098773 0.840974
vt 0.073360 0.806708
vt 0.051429 0.770118
vt 0.033189 0.731555
vt 0.018818 0.691390
vt 0.008453 0.650010
vt 0.002193 0.607814
vt 0.000100 0.565203
vt 0.000100 0.434795
vt 0.002193 0.392188
vt 0.008452 0.349990
vt 0.018818 0.308610
vt 0.033188 0.268447
vt 0.051428 0.229882
vt 0.888669 0.842658
vt 0.888669 0.157343
vt 0.896744 0.166251
vt 0.923311 0.202073
vt 0.946239 0.240326
vt 0.965307 0.280643
vt 0.980331 0.322633
vt 0.991168 0.365894
vt 0.997712 0.410008
vt 0.999900 0.454555
vt 0.999900 0.545446
vt 0.997712 0.589990
vt 0.991168 0.634105
vt 0.980331 0.677368
vt 0.965307 0.719357
vt 0.946239 0.759673
vn -0.0000 1.0000 -0.0000
g back_Circle.022_None
usemtl None
s off
f 30/1/1 31/2/1 51/3/1
f 47/4/1 48/5/1 50/6/1
f 15/7/1 16/8/1 49/9/1
f 32/10/1 52/11/1 31/2/1
f 52/11/1 51/3/1 31/2/1
f 51/3/1 57/12/1 19/13/1
f 57/12/1 18/14/1 19/13/1
f 19/13/1 20/15/1 51/3/1
f 20/15/1 21/16/1 51/3/1
f 21/16/1 22/17/1 51/3/1
f 22/17/1 23/18/1 51/3/1
f 23/18/1 24/19/1 51/3/1
f 24/19/1 17/20/1 51/3/1
f 17/20/1 25/21/1 51/3/1
f 25/21/1 26/22/1 51/3/1
f 26/22/1 27/23/1 51/3/1
f 27/23/1 28/24/1 51/3/1
f 28/24/1 29/25/1 51/3/1
f 29/25/1 30/1/1 51/3/1
f 48/5/1 54/26/1 50/6/1
f 50/6/1 55/27/1 34/28/1
f 34/28/1 35/29/1 50/6/1
f 35/29/1 36/30/1 50/6/1
f 36/30/1 37/31/1 50/6/1
f 37/31/1 38/32/1 50/6/1
f 38/32/1 39/33/1 50/6/1
f 39/33/1 40/34/1 50/6/1
f 40/34/1 33/35/1 50/6/1
f 33/35/1 41/36/1 50/6/1
f 41/36/1 42/37/1 50/6/1
f 42/37/1 43/38/1 50/6/1
f 43/38/1 44/39/1 50/6/1
f 44/39/1 45/40/1 50/6/1
f 45/40/1 46/41/1 50/6/1
f 46/41/1 47/4/1 50/6/1
f 16/8/1 53/42/1 49/9/1
f 49/9/1 56/43/1 2/44/1
f 2/44/1 3/45/1 49/9/1
f 3/45/1 4/46/1 49/9/1
f 4/46/1 5/47/1 49/9/1
f 5/47/1 6/48/1 49/9/1
f 6/48/1 7/49/1 49/9/1
f 7/49/1 8/50/1 49/9/1
f 8/50/1 1/51/1 49/9/1
f 1/51/1 9/52/1 49/9/1
f 9/52/1 10/53/1 49/9/1
f 10/53/1 11/54/1 49/9/1
f 11/54/1 12/55/1 49/9/1
f 12/55/1 13/56/1 49/9/1
f 13/56/1 14/57/1 49/9/1
f 14/57/1 15/7/1 49/9/1

