# Blender v2.82 (sub 7) OBJ File: 'mediumbase.blend'
# www.blender.org
o front_Circle.005
v 1.747297 0.000000 -19.220291
v 12.832083 0.000000 -15.254082
v 11.454813 0.000000 -16.275541
v 9.984054 0.000000 -17.157082
v 8.433971 0.000000 -17.890223
v 6.819492 0.000000 -18.467896
v 5.156166 0.000000 -18.884542
v 3.460011 0.000000 -19.136148
v -1.747294 0.000000 -19.220301
v -3.459943 0.000000 -19.136166
v -5.156099 0.000000 -18.884565
v -6.819427 0.000000 -18.467924
v -8.433907 0.000000 -17.890257
v -9.983992 0.000000 -17.157124
v -11.454753 0.000000 -16.275583
v -12.832026 0.000000 -15.254132
v -0.000000 0.000000 0.000000
v -13.174598 0.000000 -14.943645
v 13.174597 0.000000 -14.943646
v 5.442239 0.080000 -6.249576
v 4.983148 0.080000 -6.590063
v -4.983128 0.080000 -6.590075
v -5.442222 0.080000 -6.249590
v 1.747298 0.040000 -13.395993
v 9.137177 0.040000 -10.751846
v 8.218994 0.040000 -11.432820
v 7.238485 0.040000 -12.020516
v 6.205094 0.040000 -12.509277
v 5.128771 0.040000 -12.894394
v 4.019884 0.040000 -13.172158
v 2.889110 0.040000 -13.339898
v -1.747296 0.040000 -13.395998
v -2.889066 0.040000 -13.339909
v -4.019839 0.040000 -13.172175
v -5.128727 0.040000 -12.894413
v -6.205050 0.040000 -12.509300
v -7.238443 0.040000 -12.020544
v -8.218954 0.040000 -11.432848
v -9.137139 0.040000 -10.751880
v 0.000000 0.040000 -0.000000
v -5.479761 0.080000 -6.215565
v -9.327196 0.040000 -10.579622
v 9.327194 0.040000 -10.579622
v 5.479762 0.080000 -6.215567
v 1.747299 0.080000 -7.571650
v 4.983148 0.080000 -6.590063
v 4.492893 0.080000 -6.883911
v 3.976197 0.080000 -7.128292
v 3.438036 0.080000 -7.320851
v 2.883592 0.080000 -7.459733
v 2.318205 0.080000 -7.543602
v -1.747298 0.080000 -7.571650
v -2.318183 0.080000 -7.543604
v -2.883571 0.080000 -7.459737
v -3.438015 0.080000 -7.320856
v -3.976177 0.080000 -7.128301
v -4.492873 0.080000 -6.883922
v -4.983128 0.080000 -6.590075
v 0.000000 0.080000 -0.000000
v -5.479761 0.080000 -6.215565
v 5.479762 0.080000 -6.215567
vt 0.478114 0.021671
vt 0.478114 0.021673
vt 0.479019 0.850011
vt 0.478114 0.021673
vt 0.478114 0.021673
vt 0.478114 0.021672
vt 0.478114 0.021671
vt 0.478114 0.021669
vt 0.478114 0.021668
vt 0.478114 0.021667
vt 0.478114 0.021667
vt 0.478114 0.021666
vt 0.478114 0.021666
vt 0.478114 0.021666
vt 0.478114 0.021667
vt 0.478114 0.021667
vt 0.478114 0.021668
vt 0.478114 0.021669
vt 0.478114 0.021670
vt 0.478069 0.021214
vt 0.478069 0.021214
vt 0.478316 0.861912
vt 0.478074 0.021105
vt 0.478074 0.021105
vt 0.478074 0.021104
vt 0.478074 0.021104
vt 0.478074 0.021104
vt 0.478074 0.021102
vt 0.478069 0.021214
vt 0.478076 0.021213
vt 0.478076 0.021214
vt 0.478076 0.021214
vt 0.478075 0.021215
vt 0.478075 0.021215
vt 0.478074 0.021215
vt 0.478074 0.021216
vt 0.478074 0.021216
vt 0.478073 0.021216
vt 0.478072 0.021216
vt 0.478071 0.021216
vt 0.478071 0.021216
vt 0.478070 0.021216
vt 0.478070 0.021215
vt 0.478070 0.021215
vt 0.478074 0.021102
vt 0.478074 0.021104
vt 0.478343 0.862896
vt 0.478074 0.021105
vt 0.478074 0.021104
vt 0.478074 0.021102
vt 0.478074 0.021101
vt 0.478074 0.021100
vt 0.478074 0.021099
vt 0.478074 0.021099
vt 0.478074 0.021098
vt 0.478074 0.021098
vt 0.478074 0.021099
vt 0.478074 0.021099
vt 0.478074 0.021100
vt 0.478074 0.021100
vt 0.478074 0.021101
vn 0.0000 1.0000 0.0000
s off
f 15/1/1 16/2/1 17/3/1
f 16/2/1 18/4/1 17/3/1
f 17/3/1 19/5/1 2/6/1
f 2/6/1 3/7/1 17/3/1
f 3/7/1 4/8/1 17/3/1
f 4/8/1 5/9/1 17/3/1
f 5/9/1 6/10/1 17/3/1
f 6/10/1 7/11/1 17/3/1
f 7/11/1 8/12/1 17/3/1
f 8/12/1 1/13/1 17/3/1
f 1/13/1 9/14/1 17/3/1
f 9/14/1 10/15/1 17/3/1
f 10/15/1 11/16/1 17/3/1
f 11/16/1 12/17/1 17/3/1
f 12/17/1 13/18/1 17/3/1
f 13/18/1 14/19/1 17/3/1
f 14/19/1 15/1/1 17/3/1
f 38/20/1 39/21/1 40/22/1
f 23/23/1 41/24/1 22/25/1
f 44/26/1 20/27/1 21/28/1
f 39/21/1 42/29/1 40/22/1
f 40/22/1 43/30/1 25/31/1
f 25/31/1 26/32/1 40/22/1
f 26/32/1 27/33/1 40/22/1
f 27/33/1 28/34/1 40/22/1
f 28/34/1 29/35/1 40/22/1
f 29/35/1 30/36/1 40/22/1
f 30/36/1 31/37/1 40/22/1
f 31/37/1 24/38/1 40/22/1
f 24/38/1 32/39/1 40/22/1
f 32/39/1 33/40/1 40/22/1
f 33/40/1 34/41/1 40/22/1
f 34/41/1 35/42/1 40/22/1
f 35/42/1 36/43/1 40/22/1
f 36/43/1 37/44/1 40/22/1
f 37/44/1 38/20/1 40/22/1
f 57/45/1 58/46/1 59/47/1
f 60/48/1 59/47/1 58/46/1
f 59/47/1 61/49/1 46/50/1
f 46/50/1 47/51/1 59/47/1
f 47/51/1 48/52/1 59/47/1
f 48/52/1 49/53/1 59/47/1
f 49/53/1 50/54/1 59/47/1
f 50/54/1 51/55/1 59/47/1
f 51/55/1 45/56/1 59/47/1
f 45/56/1 52/57/1 59/47/1
f 52/57/1 53/58/1 59/47/1
f 53/58/1 54/59/1 59/47/1
f 54/59/1 55/60/1 59/47/1
f 55/60/1 56/61/1 59/47/1
f 56/61/1 57/45/1 59/47/1
o bullseye.002_Plane.007
v 0.355644 -0.040000 -1.104272
v -0.355644 -0.039991 -19.177410
v -0.355644 -0.040000 -1.104272
v 0.355644 -0.039991 -19.177410
vt 0.009968 0.982761
vt 0.020519 0.972210
vt 0.020519 0.982761
vt 0.009968 0.972210
vn 0.0000 1.0000 0.0000
s 1
f 62/62/2 63/63/2 64/64/2
f 62/62/2 65/65/2 63/63/2
