# Blender v2.82 (sub 7) OBJ File: 'mediumbase.blend'
# www.blender.org
mtllib medium_frontback_4.mtl
o frontback_Circle.017
v 1.747300 0.000000 -19.220291
v 12.832084 0.000000 -15.254080
v 11.454814 0.000000 -16.275537
v 9.984056 0.000000 -17.157082
v 8.433973 0.000000 -17.890219
v 6.819495 0.000000 -18.467896
v 5.156168 0.000000 -18.884542
v 3.460013 0.000000 -19.136148
v -1.747293 0.000000 -19.220299
v -3.459942 0.000000 -19.136164
v -5.156097 0.000000 -18.884563
v -6.819426 0.000000 -18.467924
v -8.433905 0.000000 -17.890255
v -9.983990 0.000000 -17.157122
v -11.454752 0.000000 -16.275585
v -12.832026 0.000000 -15.254132
v -1.747299 0.000000 19.220291
v -12.832085 0.000000 15.254081
v -11.454815 0.000000 16.275539
v -9.984056 0.000000 17.157084
v -8.433973 0.000000 17.890223
v -6.819494 0.000000 18.467896
v -5.156168 0.000000 18.884542
v -3.460012 0.000000 19.136150
v 1.747292 0.000000 19.220301
v 3.459941 0.000000 19.136166
v 5.156097 0.000000 18.884565
v 6.819425 0.000000 18.467924
v 8.433905 0.000000 17.890259
v 9.983990 0.000000 17.157124
v 11.454752 0.000000 16.275585
v 12.832025 0.000000 15.254132
v 1.747300 0.080000 -7.571650
v 5.442239 0.080000 -6.249575
v 4.983147 0.080000 -6.590062
v 4.492893 0.080000 -6.883912
v 3.976198 0.080000 -7.128292
v 3.438036 0.080000 -7.320850
v 2.883593 0.080000 -7.459733
v 2.318206 0.080000 -7.543602
v -1.747298 0.080000 -7.571650
v -2.318182 0.080000 -7.543604
v -2.883569 0.080000 -7.459738
v -3.438014 0.080000 -7.320858
v -3.976175 0.080000 -7.128301
v -4.492872 0.080000 -6.883923
v -4.983127 0.080000 -6.590076
v -5.442221 0.080000 -6.249591
v -1.747300 0.080000 7.571651
v -5.442238 0.080000 6.249575
v -4.983147 0.080000 6.590062
v -4.492893 0.080000 6.883911
v -3.976197 0.080000 7.128292
v -3.438036 0.080000 7.320850
v -2.883592 0.080000 7.459733
v -2.318205 0.080000 7.543602
v 1.747297 0.080000 7.571651
v 2.318182 0.080000 7.543605
v 2.883569 0.080000 7.459738
v 3.438014 0.080000 7.320857
v 3.976175 0.080000 7.128301
v 4.492872 0.080000 6.883923
v 4.983128 0.080000 6.590075
v 5.442220 0.080000 6.249590
v 1.747300 0.040000 -13.395994
v 9.137177 0.040000 -10.751846
v 8.218994 0.040000 -11.432819
v 7.238486 0.040000 -12.020516
v 6.205095 0.040000 -12.509277
v 5.128773 0.040000 -12.894396
v 4.019886 0.040000 -13.172160
v 2.889112 0.040000 -13.339898
v -1.747295 0.040000 -13.395999
v -2.889064 0.040000 -13.339909
v -4.019838 0.040000 -13.172174
v -5.128726 0.040000 -12.894414
v -6.205049 0.040000 -12.509301
v -7.238441 0.040000 -12.020543
v -8.218953 0.040000 -11.432851
v -9.137137 0.040000 -10.751881
v -1.747299 0.040000 13.395993
v -9.137177 0.040000 10.751844
v -8.218995 0.040000 11.432819
v -7.238485 0.040000 12.020516
v -6.205094 0.040000 12.509275
v -5.128771 0.040000 12.894394
v -4.019885 0.040000 13.172159
v -2.889111 0.040000 13.339898
v 1.747295 0.040000 13.395998
v 2.889064 0.040000 13.339909
v 4.019838 0.040000 13.172174
v 5.128726 0.040000 12.894413
v 6.205049 0.040000 12.509301
v 7.238441 0.040000 12.020545
v 8.218952 0.040000 11.432850
v 9.137136 0.040000 10.751881
v -13.174597 0.000000 -14.943644
v -9.327193 0.040000 -10.579623
v -0.000000 0.000000 0.000000
v -0.000000 0.040000 0.000000
v -0.000000 0.080000 0.000000
v -5.479760 0.080000 -6.215567
v 5.479761 0.080000 -6.215567
v 13.174597 0.000000 -14.943644
v 9.327194 0.040000 -10.579624
v 5.479760 0.080000 6.215566
v 13.174597 0.000000 14.943645
v 9.327194 0.040000 10.579624
v -9.327195 0.040000 10.579622
v -13.174599 0.000000 14.943645
v -5.479761 0.080000 6.215567
vt 0.954494 0.796632
vt 0.935094 0.829000
vt 0.500000 0.500000
vt 0.045505 0.203369
vt 0.064905 0.171003
vt 0.073358 0.193293
vt 0.098771 0.159028
vt 0.500000 0.499999
vt 0.926641 0.806708
vt 0.901229 0.840972
vt 0.923312 0.797925
vt 0.896744 0.833748
vt 0.500002 0.499999
vt 0.076689 0.202073
vt 0.103257 0.166251
vt 0.912614 0.859310
vt 0.910368 0.861789
vt 0.910368 0.138212
vt 0.935093 0.171000
vt 0.912613 0.140689
vt 0.954493 0.203367
vt 0.970629 0.237482
vt 0.983342 0.273012
vt 0.992511 0.309618
vt 0.998048 0.346948
vt 0.999900 0.384639
vt 0.999900 0.615361
vt 0.998048 0.653053
vt 0.992511 0.690383
vt 0.983342 0.726988
vt 0.970629 0.762518
vt 0.087386 0.140691
vt 0.089632 0.138212
vt 0.089632 0.861788
vt 0.064907 0.829001
vt 0.087387 0.859311
vt 0.045506 0.796633
vt 0.029372 0.762519
vt 0.016658 0.726988
vt 0.007489 0.690382
vt 0.001952 0.653054
vt 0.000100 0.615361
vt 0.000100 0.384639
vt 0.001952 0.346948
vt 0.007489 0.309618
vt 0.016658 0.273014
vt 0.029371 0.237482
vt 0.105199 0.151936
vt 0.105199 0.848064
vt 0.098773 0.840974
vt 0.073360 0.806708
vt 0.051429 0.770118
vt 0.033189 0.731555
vt 0.018818 0.691390
vt 0.008453 0.650010
vt 0.002193 0.607814
vt 0.000100 0.565203
vt 0.000100 0.434795
vt 0.002193 0.392188
vt 0.008452 0.349990
vt 0.018818 0.308610
vt 0.033188 0.268447
vt 0.051428 0.229882
vt 0.894801 0.848065
vt 0.894802 0.151936
vt 0.901228 0.159027
vt 0.926640 0.193290
vt 0.948571 0.229881
vt 0.966811 0.268444
vt 0.981182 0.308610
vt 0.991547 0.349990
vt 0.997807 0.392187
vt 0.999900 0.434796
vt 0.999900 0.565205
vt 0.997807 0.607812
vt 0.991548 0.650009
vt 0.981182 0.691390
vt 0.966811 0.731555
vt 0.948572 0.770119
vt 0.888669 0.842658
vt 0.888669 0.157343
vt 0.896744 0.166251
vt 0.923311 0.202073
vt 0.946239 0.240326
vt 0.965307 0.280643
vt 0.980331 0.322633
vt 0.991168 0.365894
vt 0.997712 0.410008
vt 0.999900 0.454555
vt 0.999900 0.545446
vt 0.997712 0.589990
vt 0.991168 0.634105
vt 0.980331 0.677368
vt 0.965307 0.719357
vt 0.946239 0.759673
vt 0.111332 0.157342
vt 0.111331 0.842657
vt 0.103257 0.833748
vt 0.076690 0.797928
vt 0.053762 0.759674
vt 0.034694 0.719358
vt 0.019669 0.677367
vt 0.008832 0.634105
vt 0.002289 0.589991
vt 0.000100 0.545444
vt 0.000100 0.454554
vt 0.002288 0.410010
vt 0.008832 0.365895
vt 0.019669 0.322633
vt 0.034694 0.280641
vt 0.053761 0.240326
vn -0.0000 1.0000 -0.0000
usemtl None
s off
f 62/1/1 63/2/1 101/3/1
f 46/4/1 47/5/1 101/3/1
f 95/6/1 96/7/1 100/8/1
f 79/9/1 80/10/1 100/8/1
f 31/11/1 32/12/1 99/13/1
f 15/14/1 16/15/1 99/13/1
f 64/16/1 106/17/1 63/2/1
f 106/17/1 101/3/1 63/2/1
f 101/3/1 111/18/1 51/19/1
f 111/18/1 50/20/1 51/19/1
f 51/19/1 52/21/1 101/3/1
f 52/21/1 53/22/1 101/3/1
f 53/22/1 54/23/1 101/3/1
f 54/23/1 55/24/1 101/3/1
f 55/24/1 56/25/1 101/3/1
f 56/25/1 49/26/1 101/3/1
f 49/26/1 57/27/1 101/3/1
f 57/27/1 58/28/1 101/3/1
f 58/28/1 59/29/1 101/3/1
f 59/29/1 60/30/1 101/3/1
f 60/30/1 61/31/1 101/3/1
f 61/31/1 62/1/1 101/3/1
f 48/32/1 102/33/1 47/5/1
f 102/33/1 101/3/1 47/5/1
f 101/3/1 103/34/1 35/35/1
f 103/34/1 34/36/1 35/35/1
f 35/35/1 36/37/1 101/3/1
f 36/37/1 37/38/1 101/3/1
f 37/38/1 38/39/1 101/3/1
f 38/39/1 39/40/1 101/3/1
f 39/40/1 40/41/1 101/3/1
f 40/41/1 33/42/1 101/3/1
f 33/42/1 41/43/1 101/3/1
f 41/43/1 42/44/1 101/3/1
f 42/44/1 43/45/1 101/3/1
f 43/45/1 44/46/1 101/3/1
f 44/46/1 45/47/1 101/3/1
f 45/47/1 46/4/1 101/3/1
f 96/7/1 108/48/1 100/8/1
f 100/8/1 109/49/1 82/50/1
f 82/50/1 83/51/1 100/8/1
f 83/51/1 84/52/1 100/8/1
f 84/52/1 85/53/1 100/8/1
f 85/53/1 86/54/1 100/8/1
f 86/54/1 87/55/1 100/8/1
f 87/55/1 88/56/1 100/8/1
f 88/56/1 81/57/1 100/8/1
f 81/57/1 89/58/1 100/8/1
f 89/58/1 90/59/1 100/8/1
f 90/59/1 91/60/1 100/8/1
f 91/60/1 92/61/1 100/8/1
f 92/61/1 93/62/1 100/8/1
f 93/62/1 94/63/1 100/8/1
f 94/63/1 95/6/1 100/8/1
f 80/10/1 98/64/1 100/8/1
f 100/8/1 105/65/1 66/66/1
f 66/66/1 67/67/1 100/8/1
f 67/67/1 68/68/1 100/8/1
f 68/68/1 69/69/1 100/8/1
f 69/69/1 70/70/1 100/8/1
f 70/70/1 71/71/1 100/8/1
f 71/71/1 72/72/1 100/8/1
f 72/72/1 65/73/1 100/8/1
f 65/73/1 73/74/1 100/8/1
f 73/74/1 74/75/1 100/8/1
f 74/75/1 75/76/1 100/8/1
f 75/76/1 76/77/1 100/8/1
f 76/77/1 77/78/1 100/8/1
f 77/78/1 78/79/1 100/8/1
f 78/79/1 79/9/1 100/8/1
f 32/12/1 107/80/1 99/13/1
f 99/13/1 110/81/1 18/82/1
f 18/82/1 19/83/1 99/13/1
f 19/83/1 20/84/1 99/13/1
f 20/84/1 21/85/1 99/13/1
f 21/85/1 22/86/1 99/13/1
f 22/86/1 23/87/1 99/13/1
f 23/87/1 24/88/1 99/13/1
f 24/88/1 17/89/1 99/13/1
f 17/89/1 25/90/1 99/13/1
f 25/90/1 26/91/1 99/13/1
f 26/91/1 27/92/1 99/13/1
f 27/92/1 28/93/1 99/13/1
f 28/93/1 29/94/1 99/13/1
f 29/94/1 30/95/1 99/13/1
f 30/95/1 31/11/1 99/13/1
f 16/15/1 97/96/1 99/13/1
f 99/13/1 104/97/1 2/98/1
f 2/98/1 3/99/1 99/13/1
f 3/99/1 4/100/1 99/13/1
f 4/100/1 5/101/1 99/13/1
f 5/101/1 6/102/1 99/13/1
f 6/102/1 7/103/1 99/13/1
f 7/103/1 8/104/1 99/13/1
f 8/104/1 1/105/1 99/13/1
f 1/105/1 9/106/1 99/13/1
f 9/106/1 10/107/1 99/13/1
f 10/107/1 11/108/1 99/13/1
f 11/108/1 12/109/1 99/13/1
f 12/109/1 13/110/1 99/13/1
f 13/110/1 14/111/1 99/13/1
f 14/111/1 15/14/1 99/13/1
