# Blender v2.82 (sub 7) OBJ File: 'mediumbase.blend'
# www.blender.org
mtllib medium_side_4.mtl
o side_Circle.002
v -19.220295 0.000000 -1.747299
v -14.102549 0.000000 -14.102602
v -15.254081 0.000000 -12.832083
v -16.275539 0.000000 -11.454813
v -17.157085 0.000000 -9.984056
v -17.890223 0.000000 -8.433972
v -18.467897 0.000000 -6.819495
v -18.884544 0.000000 -5.156168
v -19.136150 0.000000 -3.460012
v -19.220303 0.000000 1.747294
v -19.136168 0.000000 3.459943
v -18.884565 0.000000 5.156099
v -18.467928 0.000000 6.819426
v -17.890259 0.000000 8.433907
v -17.157124 0.000000 9.983991
v -16.275587 0.000000 11.454752
v -15.254134 0.000000 12.832025
v -14.102603 0.000000 14.102547
v -7.571651 0.080000 -1.747300
v -5.865729 0.080000 -5.865746
v -6.249575 0.080000 -5.442238
v -6.590062 0.080000 -4.983147
v -6.883911 0.080000 -4.492893
v -7.128291 0.080000 -3.976197
v -7.320850 0.080000 -3.438036
v -7.459732 0.080000 -2.883592
v -7.543602 0.080000 -2.318206
v -7.571651 0.080000 1.747298
v -7.543604 0.080000 2.318182
v -7.459738 0.080000 2.883570
v -7.320857 0.080000 3.438014
v -7.128301 0.080000 3.976176
v -6.883922 0.080000 4.492873
v -6.590075 0.080000 4.983128
v -6.249590 0.080000 5.442221
v -5.865746 0.080000 5.865729
v -13.395994 0.040000 -1.747299
v -9.984155 0.040000 -9.984191
v -10.751846 0.040000 -9.137176
v -11.432819 0.040000 -8.218993
v -12.020517 0.040000 -7.238486
v -12.509278 0.040000 -6.205094
v -12.894395 0.040000 -5.128773
v -13.172160 0.040000 -4.019885
v -13.339899 0.040000 -2.889112
v -13.396000 0.040000 1.747295
v -13.339909 0.040000 2.889065
v -13.172175 0.040000 4.019838
v -12.894414 0.040000 5.128726
v -12.509301 0.040000 6.205049
v -12.020543 0.040000 7.238442
v -11.432850 0.040000 8.218952
v -10.751880 0.040000 9.137136
v -9.984192 0.040000 9.984153
v -13.174597 0.000000 -14.943644
v -9.327193 0.040000 -10.579623
v -0.000000 0.000000 0.000000
v -0.000000 0.040000 0.000000
v -0.000000 0.080000 0.000000
v -5.479760 0.080000 -6.215567
v -9.327195 0.040000 10.579622
v -13.174599 0.000000 14.943645
v -5.479761 0.080000 6.215567
vt 0.859308 0.087385
vt 0.887271 0.112728
vt 0.500000 0.500000
vt 0.159027 0.901228
vt 0.127419 0.872580
vt 0.500000 0.499999
vt 0.833748 0.103256
vt 0.866794 0.133207
vt 0.500002 0.499999
vt 0.910368 0.138212
vt 0.089632 0.138212
vt 0.112729 0.112729
vt 0.140689 0.087387
vt 0.171000 0.064907
vt 0.203367 0.045507
vt 0.237482 0.029372
vt 0.273012 0.016658
vt 0.309618 0.007489
vt 0.346946 0.001952
vt 0.384639 0.000100
vt 0.615361 0.000100
vt 0.653053 0.001952
vt 0.690381 0.007489
vt 0.726987 0.016658
vt 0.762518 0.029371
vt 0.796631 0.045505
vt 0.828999 0.064906
vt 0.105199 0.848064
vt 0.894801 0.848065
vt 0.872580 0.872581
vt 0.840972 0.901229
vt 0.806709 0.926640
vt 0.770119 0.948571
vt 0.731556 0.966810
vt 0.691391 0.981182
vt 0.650011 0.991547
vt 0.607813 0.997806
vt 0.565204 0.999900
vt 0.434795 0.999900
vt 0.392189 0.997807
vt 0.349991 0.991547
vt 0.308609 0.981182
vt 0.268445 0.966811
vt 0.229881 0.948571
vt 0.193292 0.926640
vt 0.888669 0.157343
vt 0.111332 0.157342
vt 0.133206 0.133207
vt 0.166252 0.103257
vt 0.202072 0.076690
vt 0.240326 0.053762
vt 0.280642 0.034694
vt 0.322632 0.019669
vt 0.365895 0.008832
vt 0.410010 0.002289
vt 0.454556 0.000100
vt 0.545446 0.000100
vt 0.589991 0.002288
vt 0.634106 0.008832
vt 0.677368 0.019669
vt 0.719359 0.034694
vt 0.759674 0.053761
vt 0.797927 0.076689
vn 0.0000 1.0000 0.0000
usemtl None
s off
f 35/1/1 36/2/1 59/3/1
f 53/4/1 54/5/1 58/6/1
f 17/7/1 18/8/1 57/9/1
f 36/2/1 63/10/1 59/3/1
f 59/3/1 60/11/1 20/12/1
f 20/12/1 21/13/1 59/3/1
f 21/13/1 22/14/1 59/3/1
f 22/14/1 23/15/1 59/3/1
f 23/15/1 24/16/1 59/3/1
f 24/16/1 25/17/1 59/3/1
f 25/17/1 26/18/1 59/3/1
f 26/18/1 27/19/1 59/3/1
f 27/19/1 19/20/1 59/3/1
f 19/20/1 28/21/1 59/3/1
f 28/21/1 29/22/1 59/3/1
f 29/22/1 30/23/1 59/3/1
f 30/23/1 31/24/1 59/3/1
f 31/24/1 32/25/1 59/3/1
f 32/25/1 33/26/1 59/3/1
f 33/26/1 34/27/1 59/3/1
f 34/27/1 35/1/1 59/3/1
f 54/5/1 61/28/1 58/6/1
f 58/6/1 56/29/1 38/30/1
f 38/30/1 39/31/1 58/6/1
f 39/31/1 40/32/1 58/6/1
f 40/32/1 41/33/1 58/6/1
f 41/33/1 42/34/1 58/6/1
f 42/34/1 43/35/1 58/6/1
f 43/35/1 44/36/1 58/6/1
f 44/36/1 45/37/1 58/6/1
f 45/37/1 37/38/1 58/6/1
f 37/38/1 46/39/1 58/6/1
f 46/39/1 47/40/1 58/6/1
f 47/40/1 48/41/1 58/6/1
f 48/41/1 49/42/1 58/6/1
f 49/42/1 50/43/1 58/6/1
f 50/43/1 51/44/1 58/6/1
f 51/44/1 52/45/1 58/6/1
f 52/45/1 53/4/1 58/6/1
f 18/8/1 62/46/1 57/9/1
f 57/9/1 55/47/1 2/48/1
f 2/48/1 3/49/1 57/9/1
f 3/49/1 4/50/1 57/9/1
f 4/50/1 5/51/1 57/9/1
f 5/51/1 6/52/1 57/9/1
f 6/52/1 7/53/1 57/9/1
f 7/53/1 8/54/1 57/9/1
f 8/54/1 9/55/1 57/9/1
f 9/55/1 1/56/1 57/9/1
f 1/56/1 10/57/1 57/9/1
f 10/57/1 11/58/1 57/9/1
f 11/58/1 12/59/1 57/9/1
f 12/59/1 13/60/1 57/9/1
f 13/60/1 14/61/1 57/9/1
f 14/61/1 15/62/1 57/9/1
f 15/62/1 16/63/1 57/9/1
f 16/63/1 17/7/1 57/9/1
