# Blender v2.82 (sub 7) OBJ File: 'mediumbase.blend'
# www.blender.org
mtllib medium_range_4.mtl
o r4_Circle.013
v 1.747300 0.000000 -19.220291
v 19.220299 0.000000 -1.747292
v 19.136162 0.000000 -3.459941
v 18.884563 0.000000 -5.156097
v 18.467922 0.000000 -6.819424
v 17.890255 0.000000 -8.433904
v 17.157122 0.000000 -9.983990
v 16.275583 0.000000 -11.454751
v 15.254132 0.000000 -12.832024
v 14.102602 0.000000 -14.102546
v 12.832084 0.000000 -15.254080
v 11.454814 0.000000 -16.275537
v 9.984056 0.000000 -17.157082
v 8.433973 0.000000 -17.890219
v 6.819495 0.000000 -18.467896
v 5.156168 0.000000 -18.884542
v 3.460013 0.000000 -19.136148
v -19.220295 0.000000 -1.747299
v -1.747293 0.000000 -19.220299
v -3.459942 0.000000 -19.136164
v -5.156097 0.000000 -18.884563
v -6.819426 0.000000 -18.467924
v -8.433905 0.000000 -17.890255
v -9.983990 0.000000 -17.157122
v -11.454752 0.000000 -16.275585
v -12.832026 0.000000 -15.254132
v -14.102549 0.000000 -14.102602
v -15.254081 0.000000 -12.832083
v -16.275539 0.000000 -11.454813
v -17.157085 0.000000 -9.984056
v -17.890223 0.000000 -8.433972
v -18.467897 0.000000 -6.819495
v -18.884544 0.000000 -5.156168
v -19.136150 0.000000 -3.460012
v -1.747299 0.000000 19.220291
v -19.220303 0.000000 1.747294
v -19.136168 0.000000 3.459943
v -18.884565 0.000000 5.156099
v -18.467928 0.000000 6.819426
v -17.890259 0.000000 8.433907
v -17.157124 0.000000 9.983991
v -16.275587 0.000000 11.454752
v -15.254134 0.000000 12.832025
v -14.102603 0.000000 14.102547
v -12.832085 0.000000 15.254081
v -11.454815 0.000000 16.275539
v -9.984056 0.000000 17.157084
v -8.433973 0.000000 17.890223
v -6.819494 0.000000 18.467896
v -5.156168 0.000000 18.884542
v -3.460012 0.000000 19.136150
v 19.220293 0.000000 1.747300
v 1.747292 0.000000 19.220301
v 3.459941 0.000000 19.136166
v 5.156097 0.000000 18.884565
v 6.819425 0.000000 18.467924
v 8.433905 0.000000 17.890259
v 9.983990 0.000000 17.157124
v 11.454752 0.000000 16.275585
v 12.832025 0.000000 15.254132
v 14.102548 0.000000 14.102603
v 15.254081 0.000000 12.832084
v 16.275537 0.000000 11.454814
v 17.157084 0.000000 9.984056
v 17.890221 0.000000 8.433973
v 18.467896 0.000000 6.819495
v 18.884542 0.000000 5.156168
v 19.136148 0.000000 3.460013
v 1.747300 0.080000 -7.571650
v 7.571650 0.080000 -1.747297
v 7.543605 0.080000 -2.318182
v 7.459738 0.080000 -2.883569
v 7.320858 0.080000 -3.438014
v 7.128301 0.080000 -3.976175
v 6.883923 0.080000 -4.492872
v 6.590076 0.080000 -4.983128
v 6.249590 0.080000 -5.442220
v 5.865746 0.080000 -5.865729
v 5.442239 0.080000 -6.249575
v 4.983147 0.080000 -6.590062
v 4.492893 0.080000 -6.883912
v 3.976198 0.080000 -7.128292
v 3.438036 0.080000 -7.320850
v 2.883593 0.080000 -7.459733
v 2.318206 0.080000 -7.543602
v -7.571651 0.080000 -1.747300
v -1.747298 0.080000 -7.571650
v -2.318182 0.080000 -7.543604
v -2.883569 0.080000 -7.459738
v -3.438014 0.080000 -7.320858
v -3.976175 0.080000 -7.128301
v -4.492872 0.080000 -6.883923
v -4.983127 0.080000 -6.590076
v -5.442221 0.080000 -6.249591
v -5.865729 0.080000 -5.865746
v -6.249575 0.080000 -5.442238
v -6.590062 0.080000 -4.983147
v -6.883911 0.080000 -4.492893
v -7.128291 0.080000 -3.976197
v -7.320850 0.080000 -3.438036
v -7.459732 0.080000 -2.883592
v -7.543602 0.080000 -2.318206
v -1.747300 0.080000 7.571651
v -7.571651 0.080000 1.747298
v -7.543604 0.080000 2.318182
v -7.459738 0.080000 2.883570
v -7.320857 0.080000 3.438014
v -7.128301 0.080000 3.976176
v -6.883922 0.080000 4.492873
v -6.590075 0.080000 4.983128
v -6.249590 0.080000 5.442221
v -5.865746 0.080000 5.865729
v -5.442238 0.080000 6.249575
v -4.983147 0.080000 6.590062
v -4.492893 0.080000 6.883911
v -3.976197 0.080000 7.128292
v -3.438036 0.080000 7.320850
v -2.883592 0.080000 7.459733
v -2.318205 0.080000 7.543602
v 7.571650 0.080000 1.747300
v 1.747297 0.080000 7.571651
v 2.318182 0.080000 7.543605
v 2.883569 0.080000 7.459738
v 3.438014 0.080000 7.320857
v 3.976175 0.080000 7.128301
v 4.492872 0.080000 6.883923
v 4.983128 0.080000 6.590075
v 5.442220 0.080000 6.249590
v 5.865729 0.080000 5.865746
v 6.249575 0.080000 5.442239
v 6.590062 0.080000 4.983147
v 6.883911 0.080000 4.492893
v 7.128292 0.080000 3.976198
v 7.320851 0.080000 3.438036
v 7.459733 0.080000 2.883592
v 7.543602 0.080000 2.318206
v 1.747300 0.040000 -13.395994
v 13.396000 0.040000 -1.747294
v 13.339910 0.040000 -2.889064
v 13.172175 0.040000 -4.019838
v 12.894415 0.040000 -5.128725
v 12.509301 0.040000 -6.205049
v 12.020545 0.040000 -7.238442
v 11.432852 0.040000 -8.218951
v 10.751881 0.040000 -9.137136
v 9.984192 0.040000 -9.984154
v 9.137177 0.040000 -10.751846
v 8.218994 0.040000 -11.432819
v 7.238486 0.040000 -12.020516
v 6.205095 0.040000 -12.509277
v 5.128773 0.040000 -12.894396
v 4.019886 0.040000 -13.172160
v 2.889112 0.040000 -13.339898
v -13.395994 0.040000 -1.747299
v -1.747295 0.040000 -13.395999
v -2.889064 0.040000 -13.339909
v -4.019838 0.040000 -13.172174
v -5.128726 0.040000 -12.894414
v -6.205049 0.040000 -12.509301
v -7.238441 0.040000 -12.020543
v -8.218953 0.040000 -11.432851
v -9.137137 0.040000 -10.751881
v -9.984155 0.040000 -9.984191
v -10.751846 0.040000 -9.137176
v -11.432819 0.040000 -8.218993
v -12.020517 0.040000 -7.238486
v -12.509278 0.040000 -6.205094
v -12.894395 0.040000 -5.128773
v -13.172160 0.040000 -4.019885
v -13.339899 0.040000 -2.889112
v -1.747299 0.040000 13.395993
v -13.396000 0.040000 1.747295
v -13.339909 0.040000 2.889065
v -13.172175 0.040000 4.019838
v -12.894414 0.040000 5.128726
v -12.509301 0.040000 6.205049
v -12.020543 0.040000 7.238442
v -11.432850 0.040000 8.218952
v -10.751880 0.040000 9.137136
v -9.984192 0.040000 9.984153
v -9.137177 0.040000 10.751844
v -8.218995 0.040000 11.432819
v -7.238485 0.040000 12.020516
v -6.205094 0.040000 12.509275
v -5.128771 0.040000 12.894394
v -4.019885 0.040000 13.172159
v -2.889111 0.040000 13.339898
v 13.395995 0.040000 1.747300
v 1.747295 0.040000 13.395998
v 2.889064 0.040000 13.339909
v 4.019838 0.040000 13.172174
v 5.128726 0.040000 12.894413
v 6.205049 0.040000 12.509301
v 7.238441 0.040000 12.020545
v 8.218952 0.040000 11.432850
v 9.137136 0.040000 10.751881
v 9.984154 0.040000 9.984193
v 10.751845 0.040000 9.137177
v 11.432819 0.040000 8.218993
v 12.020517 0.040000 7.238486
v 12.509278 0.040000 6.205094
v 12.894395 0.040000 5.128773
v 13.172161 0.040000 4.019885
v 13.339899 0.040000 2.889112
vt 0.454554 0.999900
vt 0.133207 0.866793
vt 0.000100 0.545444
vt 0.384639 0.999900
vt 0.112729 0.887272
vt 0.000100 0.615361
vt 0.565204 0.000100
vt 0.872580 0.127419
vt 0.999900 0.434796
vt 0.410011 0.997712
vt 0.365895 0.991167
vt 0.322631 0.980330
vt 0.280643 0.965307
vt 0.240327 0.946239
vt 0.202073 0.923310
vt 0.166252 0.896743
vt 0.103257 0.833748
vt 0.034694 0.719358
vt 0.076690 0.797928
vt 0.053762 0.759674
vt 0.019669 0.677367
vt 0.008832 0.634105
vt 0.002289 0.589991
vt 0.000100 0.454554
vt 0.454556 0.000100
vt 0.002288 0.410010
vt 0.410010 0.002289
vt 0.008832 0.365895
vt 0.019669 0.322633
vt 0.034694 0.280641
vt 0.103257 0.166251
vt 0.053761 0.240326
vt 0.076689 0.202073
vt 0.133206 0.133207
vt 0.166252 0.103257
vt 0.202072 0.076690
vt 0.240326 0.053762
vt 0.280642 0.034694
vt 0.322632 0.019669
vt 0.365895 0.008832
vt 0.545446 0.000100
vt 0.999900 0.454555
vt 0.991168 0.365894
vt 0.589991 0.002288
vt 0.634106 0.008832
vt 0.677368 0.019669
vt 0.719359 0.034694
vt 0.759674 0.053761
vt 0.797927 0.076689
vt 0.833748 0.103256
vt 0.866794 0.133207
vt 0.896744 0.166251
vt 0.923311 0.202073
vt 0.946239 0.240326
vt 0.965307 0.280643
vt 0.980331 0.322633
vt 0.997712 0.410008
vt 0.999900 0.545446
vt 0.997712 0.589990
vt 0.545445 0.999900
vt 0.991168 0.634105
vt 0.946239 0.759673
vt 0.980331 0.677368
vt 0.965307 0.719357
vt 0.923312 0.797925
vt 0.896744 0.833748
vt 0.866794 0.866793
vt 0.833749 0.896743
vt 0.797929 0.923309
vt 0.759676 0.946238
vt 0.719358 0.965306
vt 0.677368 0.980331
vt 0.634106 0.991167
vt 0.589991 0.997711
vt 0.346949 0.998048
vt 0.309619 0.992511
vt 0.273011 0.983341
vt 0.237483 0.970629
vt 0.203370 0.954495
vt 0.171001 0.935094
vt 0.140690 0.912614
vt 0.087387 0.859311
vt 0.029372 0.762519
vt 0.064907 0.829001
vt 0.045506 0.796633
vt 0.016658 0.726988
vt 0.007489 0.690382
vt 0.001952 0.653054
vt 0.000100 0.384639
vt 0.384639 0.000100
vt 0.001952 0.346948
vt 0.346946 0.001952
vt 0.007489 0.309618
vt 0.016658 0.273014
vt 0.029371 0.237482
vt 0.045505 0.203369
vt 0.064905 0.171003
vt 0.087386 0.140691
vt 0.112729 0.112729
vt 0.140689 0.087387
vt 0.171000 0.064907
vt 0.203367 0.045507
vt 0.237482 0.029372
vt 0.273012 0.016658
vt 0.309618 0.007489
vt 0.615361 0.000100
vt 0.999900 0.384639
vt 0.653053 0.001952
vt 0.690381 0.007489
vt 0.726987 0.016658
vt 0.828999 0.064906
vt 0.762518 0.029371
vt 0.796631 0.045505
vt 0.859308 0.087385
vt 0.887271 0.112728
vt 0.912613 0.140689
vt 0.935093 0.171000
vt 0.954493 0.203367
vt 0.992511 0.309618
vt 0.970629 0.237482
vt 0.983342 0.273012
vt 0.998048 0.346948
vt 0.999900 0.615361
vt 0.998048 0.653053
vt 0.615361 0.999900
vt 0.992511 0.690383
vt 0.983342 0.726988
vt 0.970629 0.762518
vt 0.954494 0.796632
vt 0.935094 0.829000
vt 0.912614 0.859310
vt 0.887272 0.887271
vt 0.859311 0.912613
vt 0.829001 0.935093
vt 0.796633 0.954494
vt 0.762519 0.970628
vt 0.726988 0.983342
vt 0.690381 0.992511
vt 0.653054 0.998048
vt 0.607811 0.002193
vt 0.650009 0.008452
vt 0.691392 0.018819
vt 0.731555 0.033189
vt 0.770117 0.051428
vt 0.806708 0.073359
vt 0.840972 0.098771
vt 0.901228 0.159027
vt 0.966811 0.268444
vt 0.926640 0.193290
vt 0.948571 0.229881
vt 0.981182 0.308610
vt 0.991547 0.349990
vt 0.997807 0.392187
vt 0.999900 0.565205
vt 0.565204 0.999900
vt 0.997807 0.607812
vt 0.607813 0.997806
vt 0.991548 0.650009
vt 0.981182 0.691390
vt 0.966811 0.731555
vt 0.948572 0.770119
vt 0.926641 0.806708
vt 0.901229 0.840972
vt 0.872580 0.872581
vt 0.840972 0.901229
vt 0.806709 0.926640
vt 0.770119 0.948571
vt 0.731556 0.966810
vt 0.691391 0.981182
vt 0.650011 0.991547
vt 0.434795 0.999900
vt 0.000100 0.565203
vt 0.008453 0.650010
vt 0.392189 0.997807
vt 0.349991 0.991547
vt 0.308609 0.981182
vt 0.193292 0.926640
vt 0.268445 0.966811
vt 0.229881 0.948571
vt 0.159027 0.901228
vt 0.073360 0.806708
vt 0.127419 0.872580
vt 0.098773 0.840974
vt 0.051429 0.770118
vt 0.033189 0.731555
vt 0.018818 0.691390
vt 0.002193 0.607814
vt 0.000100 0.434795
vt 0.002193 0.392188
vt 0.434796 0.000100
vt 0.008452 0.349990
vt 0.018818 0.308610
vt 0.033188 0.268447
vt 0.051428 0.229882
vt 0.073358 0.193293
vt 0.159027 0.098772
vt 0.098771 0.159028
vt 0.127420 0.127419
vt 0.193291 0.073360
vt 0.308609 0.018818
vt 0.229880 0.051429
vt 0.268444 0.033190
vt 0.349990 0.008453
vt 0.392187 0.002193
vn 0.0000 1.0000 0.0000
usemtl None
s off
f 2/1/1 10/2/1 1/3/1
f 70/4/1 78/5/1 69/6/1
f 138/7/1 146/8/1 137/9/1
f 2/1/1 3/10/1 4/11/1
f 4/11/1 5/12/1 6/13/1
f 6/13/1 7/14/1 8/15/1
f 8/15/1 9/16/1 6/13/1
f 9/16/1 10/2/1 6/13/1
f 10/2/1 11/17/1 14/18/1
f 11/17/1 12/19/1 14/18/1
f 12/19/1 13/20/1 14/18/1
f 14/18/1 15/21/1 16/22/1
f 16/22/1 17/23/1 14/18/1
f 17/23/1 1/3/1 14/18/1
f 1/3/1 19/24/1 18/25/1
f 19/24/1 20/26/1 34/27/1
f 20/26/1 21/28/1 22/29/1
f 22/29/1 23/30/1 26/31/1
f 23/30/1 24/32/1 26/31/1
f 24/32/1 25/33/1 26/31/1
f 26/31/1 27/34/1 28/35/1
f 28/35/1 29/36/1 30/37/1
f 30/37/1 31/38/1 34/27/1
f 31/38/1 32/39/1 34/27/1
f 32/39/1 33/40/1 34/27/1
f 34/27/1 18/25/1 19/24/1
f 18/25/1 36/41/1 35/42/1
f 35/42/1 36/41/1 50/43/1
f 36/41/1 37/44/1 38/45/1
f 38/45/1 39/46/1 40/47/1
f 40/47/1 41/48/1 38/45/1
f 41/48/1 42/49/1 38/45/1
f 42/49/1 43/50/1 44/51/1
f 44/51/1 45/52/1 42/49/1
f 45/52/1 46/53/1 42/49/1
f 46/53/1 47/54/1 48/55/1
f 48/55/1 49/56/1 46/53/1
f 49/56/1 50/43/1 46/53/1
f 50/43/1 51/57/1 35/42/1
f 35/42/1 53/58/1 1/3/1
f 53/58/1 54/59/1 52/60/1
f 1/3/1 53/58/1 2/1/1
f 54/59/1 55/61/1 58/62/1
f 55/61/1 56/63/1 58/62/1
f 56/63/1 57/64/1 58/62/1
f 58/62/1 59/65/1 60/66/1
f 60/66/1 61/67/1 62/68/1
f 62/68/1 63/69/1 64/70/1
f 64/70/1 65/71/1 62/68/1
f 65/71/1 66/72/1 62/68/1
f 66/72/1 67/73/1 68/74/1
f 68/74/1 52/60/1 58/62/1
f 52/60/1 2/1/1 53/58/1
f 58/62/1 52/60/1 54/59/1
f 2/1/1 4/11/1 10/2/1
f 4/11/1 6/13/1 10/2/1
f 20/26/1 22/29/1 34/27/1
f 26/31/1 28/35/1 34/27/1
f 28/35/1 30/37/1 34/27/1
f 36/41/1 38/45/1 50/43/1
f 58/62/1 60/66/1 66/72/1
f 60/66/1 62/68/1 66/72/1
f 66/72/1 68/74/1 58/62/1
f 10/2/1 14/18/1 1/3/1
f 22/29/1 26/31/1 34/27/1
f 38/45/1 42/49/1 50/43/1
f 42/49/1 46/53/1 50/43/1
f 35/42/1 1/3/1 18/25/1
f 70/4/1 71/75/1 72/76/1
f 72/76/1 73/77/1 74/78/1
f 74/78/1 75/79/1 78/5/1
f 75/79/1 76/80/1 78/5/1
f 76/80/1 77/81/1 78/5/1
f 78/5/1 79/82/1 82/83/1
f 79/82/1 80/84/1 82/83/1
f 80/84/1 81/85/1 82/83/1
f 82/83/1 83/86/1 84/87/1
f 84/87/1 85/88/1 69/6/1
f 69/6/1 87/89/1 86/90/1
f 87/89/1 88/91/1 102/92/1
f 88/91/1 89/93/1 90/94/1
f 90/94/1 91/95/1 92/96/1
f 92/96/1 93/97/1 90/94/1
f 93/97/1 94/98/1 90/94/1
f 94/98/1 95/99/1 96/100/1
f 96/100/1 97/101/1 98/102/1
f 98/102/1 99/103/1 100/104/1
f 100/104/1 101/105/1 98/102/1
f 101/105/1 102/92/1 98/102/1
f 102/92/1 86/90/1 87/89/1
f 86/90/1 104/106/1 103/107/1
f 104/106/1 105/108/1 106/109/1
f 106/109/1 107/110/1 110/111/1
f 107/110/1 108/112/1 110/111/1
f 108/112/1 109/113/1 110/111/1
f 110/111/1 111/114/1 112/115/1
f 112/115/1 113/116/1 114/117/1
f 114/117/1 115/118/1 118/119/1
f 115/118/1 116/120/1 118/119/1
f 116/120/1 117/121/1 118/119/1
f 118/119/1 119/122/1 103/107/1
f 103/107/1 121/123/1 69/6/1
f 121/123/1 122/124/1 120/125/1
f 69/6/1 121/123/1 70/4/1
f 122/124/1 123/126/1 124/127/1
f 124/127/1 125/128/1 126/129/1
f 126/129/1 127/130/1 128/131/1
f 128/131/1 129/132/1 126/129/1
f 129/132/1 130/133/1 126/129/1
f 130/133/1 131/134/1 132/135/1
f 132/135/1 133/136/1 134/137/1
f 134/137/1 135/138/1 136/139/1
f 136/139/1 120/125/1 122/124/1
f 120/125/1 70/4/1 121/123/1
f 70/4/1 72/76/1 78/5/1
f 72/76/1 74/78/1 78/5/1
f 82/83/1 84/87/1 78/5/1
f 84/87/1 69/6/1 78/5/1
f 88/91/1 90/94/1 102/92/1
f 94/98/1 96/100/1 102/92/1
f 96/100/1 98/102/1 102/92/1
f 86/90/1 103/107/1 69/6/1
f 104/106/1 106/109/1 118/119/1
f 110/111/1 112/115/1 118/119/1
f 112/115/1 114/117/1 118/119/1
f 118/119/1 103/107/1 104/106/1
f 122/124/1 124/127/1 126/129/1
f 130/133/1 132/135/1 126/129/1
f 132/135/1 134/137/1 126/129/1
f 134/137/1 136/139/1 126/129/1
f 126/129/1 136/139/1 122/124/1
f 90/94/1 94/98/1 102/92/1
f 106/109/1 110/111/1 118/119/1
f 138/7/1 139/140/1 140/141/1
f 140/141/1 141/142/1 142/143/1
f 142/143/1 143/144/1 144/145/1
f 144/145/1 145/146/1 142/143/1
f 145/146/1 146/8/1 142/143/1
f 146/8/1 147/147/1 150/148/1
f 147/147/1 148/149/1 150/148/1
f 148/149/1 149/150/1 150/148/1
f 150/148/1 151/151/1 152/152/1
f 152/152/1 153/153/1 137/9/1
f 137/9/1 155/154/1 154/155/1
f 155/154/1 156/156/1 170/157/1
f 156/156/1 157/158/1 158/159/1
f 158/159/1 159/160/1 160/161/1
f 160/161/1 161/162/1 162/163/1
f 162/163/1 163/164/1 164/165/1
f 164/165/1 165/166/1 166/167/1
f 166/167/1 167/168/1 168/169/1
f 168/169/1 169/170/1 170/157/1
f 170/157/1 154/155/1 155/154/1
f 154/155/1 172/171/1 171/172/1
f 171/172/1 172/171/1 186/173/1
f 172/171/1 173/174/1 174/175/1
f 174/175/1 175/176/1 178/177/1
f 175/176/1 176/178/1 178/177/1
f 176/178/1 177/179/1 178/177/1
f 178/177/1 179/180/1 182/181/1
f 179/180/1 180/182/1 182/181/1
f 180/182/1 181/183/1 182/181/1
f 182/181/1 183/184/1 184/185/1
f 184/185/1 185/186/1 186/173/1
f 186/173/1 187/187/1 171/172/1
f 171/172/1 189/188/1 137/9/1
f 189/188/1 190/189/1 188/190/1
f 137/9/1 189/188/1 138/7/1
f 190/189/1 191/191/1 192/192/1
f 192/192/1 193/193/1 194/194/1
f 194/194/1 195/195/1 198/196/1
f 195/195/1 196/197/1 198/196/1
f 196/197/1 197/198/1 198/196/1
f 198/196/1 199/199/1 202/200/1
f 199/199/1 200/201/1 202/200/1
f 200/201/1 201/202/1 202/200/1
f 202/200/1 203/203/1 204/204/1
f 204/204/1 188/190/1 194/194/1
f 188/190/1 138/7/1 189/188/1
f 194/194/1 188/190/1 190/189/1
f 138/7/1 140/141/1 146/8/1
f 140/141/1 142/143/1 146/8/1
f 150/148/1 152/152/1 137/9/1
f 156/156/1 158/159/1 170/157/1
f 158/159/1 160/161/1 162/163/1
f 162/163/1 164/165/1 170/157/1
f 164/165/1 166/167/1 170/157/1
f 166/167/1 168/169/1 170/157/1
f 172/171/1 174/175/1 186/173/1
f 182/181/1 184/185/1 178/177/1
f 184/185/1 186/173/1 178/177/1
f 190/189/1 192/192/1 194/194/1
f 202/200/1 204/204/1 194/194/1
f 146/8/1 150/148/1 137/9/1
f 158/159/1 162/163/1 170/157/1
f 174/175/1 178/177/1 186/173/1
f 171/172/1 137/9/1 154/155/1
f 194/194/1 198/196/1 202/200/1
