# Blender v2.82 (sub 7) OBJ File: ''
# www.blender.org
mtllib medium_range_1.mtl
o r1_Circle.001
v 1.747300 0.000000 -7.571650
v 7.571650 0.000000 -1.747297
v 7.543604 0.000000 -2.318182
v 7.459738 0.000000 -2.883569
v 7.320858 0.000000 -3.438014
v 7.128301 0.000000 -3.976175
v 6.883922 0.000000 -4.492872
v 6.590075 0.000000 -4.983128
v 6.249590 0.000000 -5.442220
v 5.865746 0.000000 -5.865729
v 5.442238 0.000000 -6.249575
v 4.983147 0.000000 -6.590062
v 4.492893 0.000000 -6.883911
v 3.976197 0.000000 -7.128292
v 3.438036 0.000000 -7.320850
v 2.883593 0.000000 -7.459733
v 2.318206 0.000000 -7.543602
v -7.571650 0.000000 -1.747300
v -1.747298 0.000000 -7.571650
v -2.318182 0.000000 -7.543604
v -2.883569 0.000000 -7.459738
v -3.438014 0.000000 -7.320858
v -3.976175 0.000000 -7.128301
v -4.492872 0.000000 -6.883922
v -4.983127 0.000000 -6.590075
v -5.442221 0.000000 -6.249590
v -5.865729 0.000000 -5.865746
v -6.249575 0.000000 -5.442238
v -6.590062 0.000000 -4.983147
v -6.883911 0.000000 -4.492893
v -7.128291 0.000000 -3.976197
v -7.320849 0.000000 -3.438036
v -7.459732 0.000000 -2.883593
v -7.543602 0.000000 -2.318206
v -1.747300 0.000000 7.571650
v -7.571650 0.000000 1.747298
v -7.543605 0.000000 2.318182
v -7.459738 0.000000 2.883570
v -7.320857 0.000000 3.438014
v -7.128301 0.000000 3.976176
v -6.883922 0.000000 4.492873
v -6.590075 0.000000 4.983127
v -6.249590 0.000000 5.442221
v -5.865746 0.000000 5.865729
v -5.442238 0.000000 6.249575
v -4.983147 0.000000 6.590062
v -4.492893 0.000000 6.883911
v -3.976197 0.000000 7.128291
v -3.438036 0.000000 7.320849
v -2.883592 0.000000 7.459732
v -2.318205 0.000000 7.543602
v 7.571650 0.000000 1.747300
v 1.747297 0.000000 7.571650
v 2.318182 0.000000 7.543605
v 2.883569 0.000000 7.459738
v 3.438014 0.000000 7.320857
v 3.976175 0.000000 7.128301
v 4.492872 0.000000 6.883922
v 4.983128 0.000000 6.590075
v 5.442220 0.000000 6.249590
v 5.865729 0.000000 5.865746
v 6.249575 0.000000 5.442239
v 6.590062 0.000000 4.983147
v 6.883911 0.000000 4.492893
v 7.128292 0.000000 3.976197
v 7.320850 0.000000 3.438036
v 7.459733 0.000000 2.883593
v 7.543602 0.000000 2.318206
vt 0.384639 0.999900
vt 0.112729 0.887272
vt 0.000100 0.615361
vt 0.346949 0.998048
vt 0.309619 0.992511
vt 0.273011 0.983341
vt 0.237483 0.970629
vt 0.203370 0.954495
vt 0.171001 0.935094
vt 0.140690 0.912614
vt 0.087387 0.859311
vt 0.029372 0.762519
vt 0.064907 0.829001
vt 0.045506 0.796633
vt 0.016658 0.726988
vt 0.007489 0.690382
vt 0.001952 0.653054
vt 0.000100 0.384639
vt 0.384639 0.000100
vt 0.001952 0.346948
vt 0.346946 0.001952
vt 0.007489 0.309618
vt 0.016658 0.273014
vt 0.029371 0.237482
vt 0.045505 0.203369
vt 0.064905 0.171003
vt 0.087386 0.140691
vt 0.112729 0.112729
vt 0.140689 0.087387
vt 0.171000 0.064907
vt 0.203367 0.045507
vt 0.237482 0.029372
vt 0.273012 0.016658
vt 0.309618 0.007489
vt 0.615361 0.000100
vt 0.999900 0.384639
vt 0.653053 0.001952
vt 0.690381 0.007489
vt 0.726987 0.016658
vt 0.828999 0.064906
vt 0.762518 0.029371
vt 0.796631 0.045505
vt 0.859308 0.087385
vt 0.887271 0.112728
vt 0.912613 0.140689
vt 0.935093 0.171000
vt 0.954493 0.203367
vt 0.970629 0.237482
vt 0.983342 0.273012
vt 0.992511 0.309618
vt 0.998048 0.346948
vt 0.999900 0.615361
vt 0.998048 0.653053
vt 0.615361 0.999900
vt 0.992511 0.690383
vt 0.983342 0.726988
vt 0.970629 0.762518
vt 0.954494 0.796632
vt 0.935094 0.829000
vt 0.912614 0.859310
vt 0.887272 0.887271
vt 0.859311 0.912613
vt 0.829001 0.935093
vt 0.726988 0.983342
vt 0.796633 0.954494
vt 0.762519 0.970628
vt 0.690381 0.992511
vt 0.653054 0.998048
vn 0.0000 1.0000 0.0000
usemtl None
s off
f 2/1/1 10/2/1 1/3/1
f 2/1/1 3/4/1 4/5/1
f 4/5/1 5/6/1 6/7/1
f 6/7/1 7/8/1 8/9/1
f 8/9/1 9/10/1 6/7/1
f 9/10/1 10/2/1 6/7/1
f 10/2/1 11/11/1 14/12/1
f 11/11/1 12/13/1 14/12/1
f 12/13/1 13/14/1 14/12/1
f 14/12/1 15/15/1 16/16/1
f 16/16/1 17/17/1 14/12/1
f 17/17/1 1/3/1 14/12/1
f 1/3/1 19/18/1 18/19/1
f 19/18/1 20/20/1 34/21/1
f 20/20/1 21/22/1 22/23/1
f 22/23/1 23/24/1 24/25/1
f 24/25/1 25/26/1 26/27/1
f 26/27/1 27/28/1 28/29/1
f 28/29/1 29/30/1 30/31/1
f 30/31/1 31/32/1 34/21/1
f 31/32/1 32/33/1 34/21/1
f 32/33/1 33/34/1 34/21/1
f 34/21/1 18/19/1 19/18/1
f 18/19/1 36/35/1 35/36/1
f 36/35/1 37/37/1 38/38/1
f 38/38/1 39/39/1 42/40/1
f 39/39/1 40/41/1 42/40/1
f 40/41/1 41/42/1 42/40/1
f 42/40/1 43/43/1 44/44/1
f 44/44/1 45/45/1 42/40/1
f 45/45/1 46/46/1 42/40/1
f 46/46/1 47/47/1 48/48/1
f 48/48/1 49/49/1 46/46/1
f 49/49/1 50/50/1 46/46/1
f 50/50/1 51/51/1 35/36/1
f 35/36/1 53/52/1 1/3/1
f 53/52/1 54/53/1 52/54/1
f 1/3/1 53/52/1 2/1/1
f 54/53/1 55/55/1 56/56/1
f 56/56/1 57/57/1 58/58/1
f 58/58/1 59/59/1 60/60/1
f 60/60/1 61/61/1 58/58/1
f 61/61/1 62/62/1 58/58/1
f 62/62/1 63/63/1 66/64/1
f 63/63/1 64/65/1 66/64/1
f 64/65/1 65/66/1 66/64/1
f 66/64/1 67/67/1 68/68/1
f 68/68/1 52/54/1 54/53/1
f 52/54/1 2/1/1 53/52/1
f 2/1/1 4/5/1 10/2/1
f 4/5/1 6/7/1 10/2/1
f 20/20/1 22/23/1 34/21/1
f 22/23/1 24/25/1 26/27/1
f 26/27/1 28/29/1 34/21/1
f 28/29/1 30/31/1 34/21/1
f 18/19/1 35/36/1 1/3/1
f 36/35/1 38/38/1 50/50/1
f 50/50/1 35/36/1 36/35/1
f 54/53/1 56/56/1 58/58/1
f 66/64/1 68/68/1 58/58/1
f 58/58/1 68/68/1 54/53/1
f 10/2/1 14/12/1 1/3/1
f 22/23/1 26/27/1 34/21/1
f 38/38/1 42/40/1 50/50/1
f 42/40/1 46/46/1 50/50/1
f 58/58/1 62/62/1 66/64/1
