# Blender v2.82 (sub 7) OBJ File: 'mediumbase.blend'
# www.blender.org
o x_bullseye.002_Plane.007
v 0.355644 -0.040000 -1.104272
v -0.355644 -0.039991 -19.177410
v -0.355644 -0.040000 -1.104272
v 0.355644 -0.039991 -19.177410
v -1.747299 -0.000000 19.220291
v -12.832084 -0.000000 15.254082
v -11.454814 0.000000 16.275539
v -9.984056 -0.000000 17.157084
v -8.433973 -0.000000 17.890224
v -6.819494 0.000000 18.467896
v -5.156167 0.000000 18.884542
v -3.460012 -0.000000 19.136150
v 1.747292 0.000000 19.220301
v 3.459941 0.000000 19.136166
v 5.156097 -0.000000 18.884567
v 6.819425 0.000000 18.467926
v 8.433905 0.000000 17.890257
v 9.983990 -0.000000 17.157125
v 11.454752 0.000000 16.275585
v 12.832025 0.000000 15.254134
v -0.000000 0.000000 0.000000
v 13.174597 -0.000000 14.943646
v -13.174598 -0.000000 14.943646
v -5.442240 0.080000 6.249575
v -4.983149 0.080000 6.590063
v 4.983128 0.080000 6.590075
v 5.442221 0.080000 6.249590
v -1.747299 0.040000 13.395994
v -9.137178 0.040000 10.751846
v -8.218995 0.040000 11.432819
v -7.238486 0.040000 12.020515
v -6.205095 0.040000 12.509276
v -5.128772 0.040000 12.894394
v -4.019885 0.040000 13.172159
v -2.889112 0.040000 13.339898
v 1.747295 0.040000 13.395998
v 2.889064 0.040000 13.339909
v 4.019838 0.040000 13.172175
v 5.128726 0.040000 12.894413
v 6.205049 0.040000 12.509302
v 7.238442 0.040000 12.020546
v 8.218953 0.040000 11.432850
v 9.137138 0.040000 10.751881
v -0.000000 0.040000 0.000000
v 5.479761 0.080000 6.215566
v 9.327195 0.040000 10.579624
v -9.327195 0.040000 10.579622
v -5.479762 0.080000 6.215567
v -1.747300 0.080000 7.571650
v -4.983149 0.080000 6.590063
v -4.492893 0.080000 6.883911
v -3.976198 0.080000 7.128292
v -3.438037 0.080000 7.320851
v -2.883593 0.080000 7.459733
v -2.318206 0.080000 7.543602
v 1.747297 0.080000 7.571650
v 2.318182 0.080000 7.543605
v 2.883570 0.080000 7.459738
v 3.438014 0.080000 7.320857
v 3.976176 0.080000 7.128301
v 4.492872 0.080000 6.883923
v 4.983128 0.080000 6.590075
v -0.000000 0.080000 0.000000
v 5.479761 0.080000 6.215566
v -5.479762 0.080000 6.215567
v 1.747297 0.000000 -19.220291
v 12.832084 0.000000 -15.254083
v 11.454814 0.000000 -16.275541
v 9.984056 0.000000 -17.157084
v 8.433972 0.000000 -17.890224
v 6.819493 0.000000 -18.467896
v 5.156166 0.000000 -18.884542
v 3.460011 0.000000 -19.136150
v -1.747294 0.000000 -19.220301
v -3.459944 0.000000 -19.136166
v -5.156099 0.000000 -18.884567
v -6.819427 0.000000 -18.467926
v -8.433907 0.000000 -17.890257
v -9.983992 -0.000000 -17.157124
v -11.454754 0.000000 -16.275585
v -12.832026 0.000000 -15.254132
v -0.000000 0.000000 0.000000
v -13.174601 0.000000 -14.943645
v 13.174599 0.000000 -14.943647
v 5.442240 0.080000 -6.249576
v 4.983149 0.080000 -6.590063
v -4.983129 0.080000 -6.590075
v -5.442222 0.080000 -6.249590
v 1.747298 0.040000 -13.395994
v 9.137178 0.040000 -10.751847
v 8.218995 0.040000 -11.432821
v 7.238486 0.040000 -12.020517
v 6.205094 0.040000 -12.509277
v 5.128772 0.040000 -12.894394
v 4.019885 0.040000 -13.172159
v 2.889111 0.040000 -13.339898
v -1.747296 0.040000 -13.395998
v -2.889066 0.040000 -13.339909
v -4.019840 0.040000 -13.172175
v -5.128728 0.040000 -12.894413
v -6.205051 0.040000 -12.509300
v -7.238444 0.040000 -12.020545
v -8.218955 0.040000 -11.432848
v -9.137140 0.040000 -10.751880
v 0.000000 0.040000 -0.000000
v -5.479762 0.080000 -6.215565
v -9.327198 0.040000 -10.579623
v 9.327195 0.040000 -10.579623
v 5.479762 0.080000 -6.215568
v 1.747300 0.080000 -7.571650
v 4.983149 0.080000 -6.590063
v 4.492893 0.080000 -6.883912
v 3.976197 0.080000 -7.128293
v 3.438036 0.080000 -7.320851
v 2.883592 0.080000 -7.459733
v 2.318205 0.080000 -7.543602
v -1.747299 0.080000 -7.571650
v -2.318184 0.080000 -7.543605
v -2.883571 0.080000 -7.459738
v -3.438015 0.080000 -7.320856
v -3.976177 0.080000 -7.128301
v -4.492874 0.080000 -6.883922
v -4.983129 0.080000 -6.590075
v 0.000000 0.080000 -0.000000
v -5.479762 0.080000 -6.215565
v 5.479762 0.080000 -6.215568
vt 0.478114 0.021671
vt 0.478114 0.021673
vt 0.479019 0.850011
vt 0.478114 0.021673
vt 0.478114 0.021673
vt 0.478114 0.021672
vt 0.478114 0.021671
vt 0.478114 0.021669
vt 0.478114 0.021668
vt 0.478114 0.021667
vt 0.478114 0.021667
vt 0.478114 0.021666
vt 0.478114 0.021666
vt 0.478114 0.021666
vt 0.478114 0.021667
vt 0.478114 0.021667
vt 0.478114 0.021668
vt 0.478114 0.021669
vt 0.478114 0.021670
vt 0.478069 0.021214
vt 0.478069 0.021214
vt 0.478316 0.861912
vt 0.478074 0.021105
vt 0.478074 0.021105
vt 0.478074 0.021104
vt 0.478074 0.021104
vt 0.478074 0.021104
vt 0.478074 0.021102
vt 0.478069 0.021214
vt 0.478076 0.021213
vt 0.478076 0.021214
vt 0.478076 0.021214
vt 0.478075 0.021215
vt 0.478075 0.021215
vt 0.478074 0.021215
vt 0.478074 0.021216
vt 0.478074 0.021216
vt 0.478073 0.021216
vt 0.478072 0.021216
vt 0.478071 0.021216
vt 0.478071 0.021216
vt 0.478070 0.021216
vt 0.478070 0.021215
vt 0.478070 0.021215
vt 0.478074 0.021102
vt 0.478074 0.021104
vt 0.478343 0.862896
vt 0.478074 0.021105
vt 0.478074 0.021104
vt 0.478074 0.021102
vt 0.478074 0.021101
vt 0.478074 0.021100
vt 0.478074 0.021099
vt 0.478074 0.021099
vt 0.478074 0.021098
vt 0.478074 0.021098
vt 0.478074 0.021099
vt 0.478074 0.021099
vt 0.478074 0.021100
vt 0.478074 0.021100
vt 0.478074 0.021101
vt 0.478114 0.021671
vt 0.478114 0.021673
vt 0.479019 0.850011
vt 0.478114 0.021673
vt 0.478114 0.021673
vt 0.478114 0.021672
vt 0.478114 0.021671
vt 0.478114 0.021669
vt 0.478114 0.021668
vt 0.478114 0.021667
vt 0.478114 0.021667
vt 0.478114 0.021666
vt 0.478114 0.021666
vt 0.478114 0.021666
vt 0.478114 0.021667
vt 0.478114 0.021667
vt 0.478114 0.021668
vt 0.478114 0.021669
vt 0.478114 0.021670
vt 0.478069 0.021214
vt 0.478069 0.021214
vt 0.478316 0.861912
vt 0.478074 0.021105
vt 0.478074 0.021105
vt 0.478074 0.021104
vt 0.478074 0.021104
vt 0.478074 0.021104
vt 0.478074 0.021102
vt 0.478069 0.021214
vt 0.478076 0.021213
vt 0.478076 0.021214
vt 0.478076 0.021214
vt 0.478075 0.021215
vt 0.478075 0.021215
vt 0.478074 0.021215
vt 0.478074 0.021216
vt 0.478074 0.021216
vt 0.478073 0.021216
vt 0.478072 0.021216
vt 0.478071 0.021216
vt 0.478071 0.021216
vt 0.478070 0.021216
vt 0.478070 0.021215
vt 0.478070 0.021215
vt 0.478074 0.021102
vt 0.478074 0.021104
vt 0.478343 0.862896
vt 0.478074 0.021105
vt 0.478074 0.021104
vt 0.478074 0.021102
vt 0.478074 0.021101
vt 0.478074 0.021100
vt 0.478074 0.021099
vt 0.478074 0.021099
vt 0.478074 0.021098
vt 0.478074 0.021098
vt 0.478074 0.021099
vt 0.478074 0.021099
vt 0.478074 0.021100
vt 0.478074 0.021100
vt 0.478074 0.021101
vt 0.009968 0.982761
vt 0.020519 0.972210
vt 0.020519 0.982761
vt 0.009968 0.972210
vn 0.0000 1.0000 0.0000
g arc
g x_bullseye.002_Plane.007
s off
f 19/1/1 20/2/1 21/3/1
f 20/2/1 22/4/1 21/3/1
f 21/3/1 23/5/1 6/6/1
f 6/6/1 7/7/1 21/3/1
f 7/7/1 8/8/1 21/3/1
f 8/8/1 9/9/1 21/3/1
f 9/9/1 10/10/1 21/3/1
f 10/10/1 11/11/1 21/3/1
f 11/11/1 12/12/1 21/3/1
f 12/12/1 5/13/1 21/3/1
f 5/13/1 13/14/1 21/3/1
f 13/14/1 14/15/1 21/3/1
f 14/15/1 15/16/1 21/3/1
f 15/16/1 16/17/1 21/3/1
f 16/17/1 17/18/1 21/3/1
f 17/18/1 18/19/1 21/3/1
f 18/19/1 19/1/1 21/3/1
f 42/20/1 43/21/1 44/22/1
f 27/23/1 45/24/1 26/25/1
f 48/26/1 24/27/1 25/28/1
f 43/21/1 46/29/1 44/22/1
f 44/22/1 47/30/1 29/31/1
f 29/31/1 30/32/1 44/22/1
f 30/32/1 31/33/1 44/22/1
f 31/33/1 32/34/1 44/22/1
f 32/34/1 33/35/1 44/22/1
f 33/35/1 34/36/1 44/22/1
f 34/36/1 35/37/1 44/22/1
f 35/37/1 28/38/1 44/22/1
f 28/38/1 36/39/1 44/22/1
f 36/39/1 37/40/1 44/22/1
f 37/40/1 38/41/1 44/22/1
f 38/41/1 39/42/1 44/22/1
f 39/42/1 40/43/1 44/22/1
f 40/43/1 41/44/1 44/22/1
f 41/44/1 42/20/1 44/22/1
f 61/45/1 62/46/1 63/47/1
f 64/48/1 63/47/1 62/46/1
f 63/47/1 65/49/1 50/50/1
f 50/50/1 51/51/1 63/47/1
f 51/51/1 52/52/1 63/47/1
f 52/52/1 53/53/1 63/47/1
f 53/53/1 54/54/1 63/47/1
f 54/54/1 55/55/1 63/47/1
f 55/55/1 49/56/1 63/47/1
f 49/56/1 56/57/1 63/47/1
f 56/57/1 57/58/1 63/47/1
f 57/58/1 58/59/1 63/47/1
f 58/59/1 59/60/1 63/47/1
f 59/60/1 60/61/1 63/47/1
f 60/61/1 61/45/1 63/47/1
f 80/62/1 81/63/1 82/64/1
f 81/63/1 83/65/1 82/64/1
f 82/64/1 84/66/1 67/67/1
f 67/67/1 68/68/1 82/64/1
f 68/68/1 69/69/1 82/64/1
f 69/69/1 70/70/1 82/64/1
f 70/70/1 71/71/1 82/64/1
f 71/71/1 72/72/1 82/64/1
f 72/72/1 73/73/1 82/64/1
f 73/73/1 66/74/1 82/64/1
f 66/74/1 74/75/1 82/64/1
f 74/75/1 75/76/1 82/64/1
f 75/76/1 76/77/1 82/64/1
f 76/77/1 77/78/1 82/64/1
f 77/78/1 78/79/1 82/64/1
f 78/79/1 79/80/1 82/64/1
f 79/80/1 80/62/1 82/64/1
f 103/81/1 104/82/1 105/83/1
f 88/84/1 106/85/1 87/86/1
f 109/87/1 85/88/1 86/89/1
f 104/82/1 107/90/1 105/83/1
f 105/83/1 108/91/1 90/92/1
f 90/92/1 91/93/1 105/83/1
f 91/93/1 92/94/1 105/83/1
f 92/94/1 93/95/1 105/83/1
f 93/95/1 94/96/1 105/83/1
f 94/96/1 95/97/1 105/83/1
f 95/97/1 96/98/1 105/83/1
f 96/98/1 89/99/1 105/83/1
f 89/99/1 97/100/1 105/83/1
f 97/100/1 98/101/1 105/83/1
f 98/101/1 99/102/1 105/83/1
f 99/102/1 100/103/1 105/83/1
f 100/103/1 101/104/1 105/83/1
f 101/104/1 102/105/1 105/83/1
f 102/105/1 103/81/1 105/83/1
f 122/106/1 123/107/1 124/108/1
f 125/109/1 124/108/1 123/107/1
f 124/108/1 126/110/1 111/111/1
f 111/111/1 112/112/1 124/108/1
f 112/112/1 113/113/1 124/108/1
f 113/113/1 114/114/1 124/108/1
f 114/114/1 115/115/1 124/108/1
f 115/115/1 116/116/1 124/108/1
f 116/116/1 110/117/1 124/108/1
f 110/117/1 117/118/1 124/108/1
f 117/118/1 118/119/1 124/108/1
f 118/119/1 119/120/1 124/108/1
f 119/120/1 120/121/1 124/108/1
f 120/121/1 121/122/1 124/108/1
f 121/122/1 122/106/1 124/108/1
g bullseye
s 1
f 1/123/1 2/124/1 3/125/1
f 1/123/1 4/126/1 2/124/1
