# Blender v2.82 (sub 7) OBJ File: 'mediumbase.blend'
# www.blender.org
mtllib medium_front.mtl
o Plane.002
v 0.355644 -0.040000 -1.106696
v -0.355644 -0.039997 -19.219517
v -0.355644 -0.040000 -1.106696
v 0.355644 -0.039997 -19.219517
vt 0.009968 0.982761
vt 0.020519 0.972210
vt 0.020519 0.982761
vt 0.009968 0.972210
vn 0.0000 1.0000 0.0000
usemtl None
s 1
f 1/1/1 2/2/1 3/3/1
f 1/1/1 4/4/1 2/2/1
o front_Circle.020
v 1.747300 0.000000 -19.220291
v 12.832084 0.000000 -15.254080
v 11.454814 0.000000 -16.275537
v 9.984056 0.000000 -17.157082
v 8.433973 0.000000 -17.890219
v 6.819495 0.000000 -18.467896
v 5.156168 0.000000 -18.884542
v 3.460013 0.000000 -19.136148
v -1.747293 0.000000 -19.220299
v -3.459942 0.000000 -19.136164
v -5.156097 0.000000 -18.884563
v -6.819426 0.000000 -18.467924
v -8.433905 0.000000 -17.890255
v -9.983990 0.000000 -17.157122
v -11.454752 0.000000 -16.275585
v -12.832026 0.000000 -15.254132
v 1.747300 0.080000 -7.571650
v 5.442239 0.080000 -6.249575
v 4.983147 0.080000 -6.590062
v 4.492893 0.080000 -6.883912
v 3.976198 0.080000 -7.128292
v 3.438036 0.080000 -7.320850
v 2.883593 0.080000 -7.459733
v 2.318206 0.080000 -7.543602
v -1.747298 0.080000 -7.571650
v -2.318182 0.080000 -7.543604
v -2.883569 0.080000 -7.459738
v -3.438014 0.080000 -7.320858
v -3.976175 0.080000 -7.128301
v -4.492872 0.080000 -6.883923
v -4.983127 0.080000 -6.590076
v -5.442221 0.080000 -6.249591
v 1.747300 0.040000 -13.395994
v 9.137177 0.040000 -10.751846
v 8.218994 0.040000 -11.432819
v 7.238486 0.040000 -12.020516
v 6.205095 0.040000 -12.509277
v 5.128773 0.040000 -12.894396
v 4.019886 0.040000 -13.172160
v 2.889112 0.040000 -13.339898
v -1.747295 0.040000 -13.395999
v -2.889064 0.040000 -13.339909
v -4.019838 0.040000 -13.172174
v -5.128726 0.040000 -12.894414
v -6.205049 0.040000 -12.509301
v -7.238441 0.040000 -12.020543
v -8.218953 0.040000 -11.432851
v -9.137137 0.040000 -10.751881
v -13.174597 0.000000 -14.943644
v -9.327193 0.040000 -10.579623
v -0.000000 0.000000 0.000000
v -0.000000 0.040000 0.000000
v -0.000000 0.080000 0.000000
v -5.479760 0.080000 -6.215567
v 5.479761 0.080000 -6.215567
v 13.174597 0.000000 -14.943644
v 9.327194 0.040000 -10.579624
vt 0.045505 0.203369
vt 0.064905 0.171003
vt 0.500000 0.500000
vt 0.926641 0.806708
vt 0.901229 0.840972
vt 0.500000 0.499999
vt 0.076689 0.202073
vt 0.103257 0.166251
vt 0.500002 0.499999
vt 0.087386 0.140691
vt 0.089632 0.138212
vt 0.089632 0.861788
vt 0.064907 0.829001
vt 0.087387 0.859311
vt 0.045506 0.796633
vt 0.029372 0.762519
vt 0.016658 0.726988
vt 0.007489 0.690382
vt 0.001952 0.653054
vt 0.000100 0.615361
vt 0.000100 0.384639
vt 0.001952 0.346948
vt 0.007489 0.309618
vt 0.016658 0.273014
vt 0.029371 0.237482
vt 0.894801 0.848065
vt 0.894802 0.151936
vt 0.901228 0.159027
vt 0.926640 0.193290
vt 0.948571 0.229881
vt 0.966811 0.268444
vt 0.981182 0.308610
vt 0.991547 0.349990
vt 0.997807 0.392187
vt 0.999900 0.434796
vt 0.999900 0.565205
vt 0.997807 0.607812
vt 0.991548 0.650009
vt 0.981182 0.691390
vt 0.966811 0.731555
vt 0.948572 0.770119
vt 0.111332 0.157342
vt 0.111331 0.842657
vt 0.103257 0.833748
vt 0.076690 0.797928
vt 0.053762 0.759674
vt 0.034694 0.719358
vt 0.019669 0.677367
vt 0.008832 0.634105
vt 0.002289 0.589991
vt 0.000100 0.545444
vt 0.000100 0.454554
vt 0.002288 0.410010
vt 0.008832 0.365895
vt 0.019669 0.322633
vt 0.034694 0.280641
vt 0.053761 0.240326
vn 0.0000 1.0000 0.0000
usemtl None
s off
f 34/5/2 35/6/2 57/7/2
f 51/8/2 52/9/2 56/10/2
f 19/11/2 20/12/2 55/13/2
f 36/14/2 58/15/2 35/6/2
f 58/15/2 57/7/2 35/6/2
f 57/7/2 59/16/2 23/17/2
f 59/16/2 22/18/2 23/17/2
f 23/17/2 24/19/2 57/7/2
f 24/19/2 25/20/2 57/7/2
f 25/20/2 26/21/2 57/7/2
f 26/21/2 27/22/2 57/7/2
f 27/22/2 28/23/2 57/7/2
f 28/23/2 21/24/2 57/7/2
f 21/24/2 29/25/2 57/7/2
f 29/25/2 30/26/2 57/7/2
f 30/26/2 31/27/2 57/7/2
f 31/27/2 32/28/2 57/7/2
f 32/28/2 33/29/2 57/7/2
f 33/29/2 34/5/2 57/7/2
f 52/9/2 54/30/2 56/10/2
f 56/10/2 61/31/2 38/32/2
f 38/32/2 39/33/2 56/10/2
f 39/33/2 40/34/2 56/10/2
f 40/34/2 41/35/2 56/10/2
f 41/35/2 42/36/2 56/10/2
f 42/36/2 43/37/2 56/10/2
f 43/37/2 44/38/2 56/10/2
f 44/38/2 37/39/2 56/10/2
f 37/39/2 45/40/2 56/10/2
f 45/40/2 46/41/2 56/10/2
f 46/41/2 47/42/2 56/10/2
f 47/42/2 48/43/2 56/10/2
f 48/43/2 49/44/2 56/10/2
f 49/44/2 50/45/2 56/10/2
f 50/45/2 51/8/2 56/10/2
f 20/12/2 53/46/2 55/13/2
f 55/13/2 60/47/2 6/48/2
f 6/48/2 7/49/2 55/13/2
f 7/49/2 8/50/2 55/13/2
f 8/50/2 9/51/2 55/13/2
f 9/51/2 10/52/2 55/13/2
f 10/52/2 11/53/2 55/13/2
f 11/53/2 12/54/2 55/13/2
f 12/54/2 5/55/2 55/13/2
f 5/55/2 13/56/2 55/13/2
f 13/56/2 14/57/2 55/13/2
f 14/57/2 15/58/2 55/13/2
f 15/58/2 16/59/2 55/13/2
f 16/59/2 17/60/2 55/13/2
f 17/60/2 18/61/2 55/13/2
f 18/61/2 19/11/2 55/13/2
