# Blender v2.82 (sub 7) OBJ File: 'mediumbase.blend'
# www.blender.org
o r4_Circle.003
v 1.747300 0.000000 -19.220291
v 19.220301 0.000000 -1.747292
v 19.136164 0.000000 -3.459941
v 18.884563 0.000000 -5.156097
v 18.467924 0.000000 -6.819424
v 17.890255 0.000000 -8.433905
v 17.157122 0.000000 -9.983990
v 16.275585 0.000000 -11.454751
v 15.254132 0.000000 -12.832025
v 14.102603 0.000000 -14.102547
v 12.832084 0.000000 -15.254081
v 11.454814 0.000000 -16.275537
v 9.984056 0.000000 -17.157082
v 8.433973 0.000000 -17.890221
v 6.819495 0.000000 -18.467896
v 5.156169 0.000000 -18.884542
v 3.460013 0.000000 -19.136148
v -19.220293 0.000000 -1.747299
v -1.747293 0.000000 -19.220301
v -3.459942 0.000000 -19.136164
v -5.156097 0.000000 -18.884565
v -6.819425 0.000000 -18.467924
v -8.433905 0.000000 -17.890255
v -9.983990 0.000000 -17.157122
v -11.454752 0.000000 -16.275585
v -12.832026 0.000000 -15.254133
v -14.102549 0.000000 -14.102603
v -15.254081 0.000000 -12.832083
v -16.275537 0.000000 -11.454814
v -17.157084 0.000000 -9.984056
v -17.890221 0.000000 -8.433973
v -18.467897 0.000000 -6.819495
v -18.884544 0.000000 -5.156168
v -19.136148 0.000000 -3.460012
v -1.747299 0.000000 19.220291
v -19.220303 0.000000 1.747294
v -19.136166 0.000000 3.459943
v -18.884565 0.000000 5.156099
v -18.467926 0.000000 6.819426
v -17.890257 0.000000 8.433907
v -17.157124 0.000000 9.983992
v -16.275585 0.000000 11.454751
v -15.254133 0.000000 12.832025
v -14.102603 0.000000 14.102547
v -12.832084 0.000000 15.254081
v -11.454814 0.000000 16.275539
v -9.984056 0.000000 17.157082
v -8.433973 0.000000 17.890223
v -6.819494 0.000000 18.467896
v -5.156167 0.000000 18.884542
v -3.460012 0.000000 19.136148
v 19.220293 0.000000 1.747300
v 1.747292 0.000000 19.220301
v 3.459941 0.000000 19.136166
v 5.156097 0.000000 18.884565
v 6.819425 0.000000 18.467924
v 8.433905 0.000000 17.890257
v 9.983990 0.000000 17.157124
v 11.454752 0.000000 16.275585
v 12.832025 0.000000 15.254133
v 14.102548 0.000000 14.102603
v 15.254081 0.000000 12.832085
v 16.275539 0.000000 11.454814
v 17.157084 0.000000 9.984056
v 17.890221 0.000000 8.433973
v 18.467897 0.000000 6.819495
v 18.884544 0.000000 5.156168
v 19.136148 0.000000 3.460014
v 0.000000 0.000000 0.000000
v 1.747300 0.040000 -13.395993
v 13.396001 0.040000 -1.747295
v 13.339910 0.040000 -2.889064
v 13.172175 0.040000 -4.019838
v 12.894415 0.040000 -5.128725
v 12.509301 0.040000 -6.205049
v 12.020544 0.040000 -7.238441
v 11.432851 0.040000 -8.218952
v 10.751881 0.040000 -9.137136
v 9.984192 0.040000 -9.984154
v 9.137177 0.040000 -10.751845
v 8.218994 0.040000 -11.432818
v 7.238486 0.040000 -12.020517
v 6.205095 0.040000 -12.509276
v 5.128773 0.040000 -12.894395
v 4.019886 0.040000 -13.172159
v 2.889112 0.040000 -13.339899
v -13.395994 0.040000 -1.747299
v -1.747295 0.040000 -13.395999
v -2.889065 0.040000 -13.339909
v -4.019838 0.040000 -13.172175
v -5.128726 0.040000 -12.894414
v -6.205049 0.040000 -12.509300
v -7.238442 0.040000 -12.020543
v -8.218953 0.040000 -11.432850
v -9.137138 0.040000 -10.751881
v -9.984154 0.040000 -9.984191
v -10.751847 0.040000 -9.137177
v -11.432819 0.040000 -8.218994
v -12.020516 0.040000 -7.238486
v -12.509277 0.040000 -6.205095
v -12.894394 0.040000 -5.128773
v -13.172160 0.040000 -4.019885
v -13.339898 0.040000 -2.889112
v -1.747299 0.040000 13.395993
v -13.395999 0.040000 1.747295
v -13.339908 0.040000 2.889065
v -13.172175 0.040000 4.019838
v -12.894414 0.040000 5.128726
v -12.509299 0.040000 6.205049
v -12.020543 0.040000 7.238443
v -11.432850 0.040000 8.218952
v -10.751881 0.040000 9.137136
v -9.984192 0.040000 9.984154
v -9.137177 0.040000 10.751845
v -8.218994 0.040000 11.432819
v -7.238486 0.040000 12.020517
v -6.205094 0.040000 12.509276
v -5.128772 0.040000 12.894395
v -4.019885 0.040000 13.172159
v -2.889111 0.040000 13.339899
v 13.395995 0.040000 1.747300
v 1.747295 0.040000 13.395999
v 2.889064 0.040000 13.339910
v 4.019838 0.040000 13.172175
v 5.128726 0.040000 12.894414
v 6.205049 0.040000 12.509301
v 7.238442 0.040000 12.020545
v 8.218952 0.040000 11.432850
v 9.137136 0.040000 10.751881
v 9.984154 0.040000 9.984194
v 10.751846 0.040000 9.137177
v 11.432818 0.040000 8.218994
v 12.020518 0.040000 7.238486
v 12.509277 0.040000 6.205095
v 12.894395 0.040000 5.128773
v 13.172161 0.040000 4.019886
v 13.339898 0.040000 2.889112
v 0.000000 0.040000 0.000000
v 1.747300 0.080000 -7.571650
v 7.571650 0.080000 -1.747297
v 7.543604 0.080000 -2.318182
v 7.459738 0.080000 -2.883569
v 7.320857 0.080000 -3.438014
v 7.128301 0.080000 -3.976175
v 6.883922 0.080000 -4.492872
v 6.590075 0.080000 -4.983128
v 6.249590 0.080000 -5.442221
v 5.865746 0.080000 -5.865729
v 5.442239 0.080000 -6.249575
v 4.983148 0.080000 -6.590062
v 4.492893 0.080000 -6.883912
v 3.976197 0.080000 -7.128291
v 3.438036 0.080000 -7.320850
v 2.883593 0.080000 -7.459733
v 2.318206 0.080000 -7.543602
v -7.571650 0.080000 -1.747300
v -1.747298 0.080000 -7.571650
v -2.318182 0.080000 -7.543604
v -2.883570 0.080000 -7.459738
v -3.438014 0.080000 -7.320857
v -3.976176 0.080000 -7.128301
v -4.492872 0.080000 -6.883923
v -4.983128 0.080000 -6.590076
v -5.442221 0.080000 -6.249591
v -5.865729 0.080000 -5.865746
v -6.249575 0.080000 -5.442238
v -6.590063 0.080000 -4.983147
v -6.883911 0.080000 -4.492893
v -7.128291 0.080000 -3.976197
v -7.320850 0.080000 -3.438036
v -7.459733 0.080000 -2.883593
v -7.543602 0.080000 -2.318206
v -1.747300 0.080000 7.571650
v -7.571650 0.080000 1.747298
v -7.543605 0.080000 2.318183
v -7.459738 0.080000 2.883570
v -7.320857 0.080000 3.438015
v -7.128301 0.080000 3.976177
v -6.883922 0.080000 4.492873
v -6.590075 0.080000 4.983128
v -6.249590 0.080000 5.442221
v -5.865746 0.080000 5.865729
v -5.442239 0.080000 6.249575
v -4.983148 0.080000 6.590063
v -4.492893 0.080000 6.883912
v -3.976197 0.080000 7.128292
v -3.438036 0.080000 7.320850
v -2.883593 0.080000 7.459733
v -2.318206 0.080000 7.543602
v 7.571650 0.080000 1.747300
v 1.747297 0.080000 7.571650
v 2.318182 0.080000 7.543605
v 2.883569 0.080000 7.459738
v 3.438014 0.080000 7.320857
v 3.976175 0.080000 7.128301
v 4.492872 0.080000 6.883923
v 4.983128 0.080000 6.590076
v 5.442220 0.080000 6.249591
v 5.865729 0.080000 5.865746
v 6.249575 0.080000 5.442239
v 6.590062 0.080000 4.983147
v 6.883911 0.080000 4.492893
v 7.128291 0.080000 3.976198
v 7.320850 0.080000 3.438037
v 7.459733 0.080000 2.883593
v 7.543602 0.080000 2.318206
v 0.000000 0.080000 0.000000
vt 0.509844 0.032449
vt 0.512304 0.871578
vt 0.509844 0.032448
vt 0.509844 0.032447
vt 0.509843 0.032447
vt 0.509843 0.032455
vt 0.509843 0.032455
vt 0.509844 0.032448
vt 0.509843 0.032455
vt 0.509843 0.032455
vt 0.509843 0.032455
vt 0.509844 0.032455
vt 0.509844 0.032455
vt 0.509844 0.032455
vt 0.509844 0.032455
vt 0.509844 0.032455
vt 0.509844 0.032454
vt 0.509844 0.032454
vt 0.509844 0.032454
vt 0.509844 0.032453
vt 0.509844 0.032453
vt 0.509844 0.032453
vt 0.509844 0.032452
vt 0.509844 0.032452
vt 0.509844 0.032452
vt 0.509844 0.032451
vt 0.509844 0.032451
vt 0.509844 0.032450
vt 0.509844 0.032450
vt 0.509844 0.032449
vt 0.509844 0.032449
vt 0.509843 0.032447
vt 0.509843 0.032447
vt 0.509843 0.032447
vt 0.509843 0.032447
vt 0.509843 0.032447
vt 0.509843 0.032447
vt 0.509843 0.032447
vt 0.509843 0.032447
vt 0.509843 0.032448
vt 0.509843 0.032448
vt 0.509844 0.032448
vt 0.509844 0.032448
vt 0.509844 0.032447
vt 0.509844 0.032447
vt 0.509844 0.032447
vt 0.509844 0.032447
vt 0.509843 0.032448
vt 0.509843 0.032448
vt 0.509843 0.032449
vt 0.509843 0.032449
vt 0.509843 0.032449
vt 0.509843 0.032450
vt 0.509843 0.032450
vt 0.509843 0.032451
vt 0.509843 0.032451
vt 0.509843 0.032452
vt 0.509843 0.032452
vt 0.509843 0.032452
vt 0.509843 0.032453
vt 0.509843 0.032453
vt 0.509843 0.032453
vt 0.509843 0.032454
vt 0.509843 0.032454
vt 0.509843 0.032454
vt 0.509843 0.032455
vt 0.509843 0.032455
vt 0.509843 0.032455
vt 0.509843 0.032455
vt 0.531984 0.027530
vt 0.529529 0.881421
vt 0.531980 0.027530
vt 0.531943 0.027530
vt 0.531942 0.027530
vt 0.532037 0.027530
vt 0.532038 0.027530
vt 0.531976 0.027530
vt 0.532038 0.027530
vt 0.532038 0.027530
vt 0.532038 0.027530
vt 0.532037 0.027530
vt 0.532036 0.027530
vt 0.532035 0.027530
vt 0.532033 0.027530
vt 0.532031 0.027530
vt 0.532029 0.027530
vt 0.532026 0.027530
vt 0.532023 0.027530
vt 0.532020 0.027530
vt 0.532016 0.027530
vt 0.532012 0.027530
vt 0.532008 0.027530
vt 0.532004 0.027530
vt 0.532000 0.027530
vt 0.531996 0.027530
vt 0.531942 0.027530
vt 0.531942 0.027530
vt 0.531942 0.027530
vt 0.531943 0.027530
vt 0.531944 0.027530
vt 0.531945 0.027530
vt 0.531947 0.027530
vt 0.531972 0.027530
vt 0.531968 0.027530
vt 0.531964 0.027530
vt 0.531960 0.027530
vt 0.531957 0.027530
vt 0.531954 0.027530
vt 0.531951 0.027530
vt 0.531949 0.027530
vt 0.531947 0.027530
vt 0.531945 0.027530
vt 0.531944 0.027530
vt 0.531949 0.027530
vt 0.531951 0.027530
vt 0.531954 0.027530
vt 0.531957 0.027530
vt 0.531960 0.027530
vt 0.531964 0.027530
vt 0.531968 0.027530
vt 0.531972 0.027530
vt 0.531976 0.027530
vt 0.531980 0.027530
vt 0.531984 0.027530
vt 0.531996 0.027530
vt 0.532000 0.027530
vt 0.532004 0.027530
vt 0.532008 0.027530
vt 0.532012 0.027530
vt 0.532016 0.027530
vt 0.532020 0.027530
vt 0.532023 0.027530
vt 0.532026 0.027530
vt 0.532029 0.027530
vt 0.532031 0.027530
vt 0.532033 0.027530
vt 0.532035 0.027530
vt 0.532036 0.027530
vt 0.524606 0.012638
vt 0.524608 0.861735
vt 0.524607 0.012636
vt 0.524604 0.012814
vt 0.524604 0.012804
vt 0.524610 0.012882
vt 0.524610 0.012887
vt 0.524607 0.012636
vt 0.524609 0.012636
vt 0.524604 0.012725
vt 0.524604 0.012735
vt 0.524604 0.012716
vt 0.524604 0.012706
vt 0.524604 0.012697
vt 0.524604 0.012688
vt 0.524604 0.012680
vt 0.524604 0.012672
vt 0.524605 0.012665
vt 0.524605 0.012658
vt 0.524605 0.012652
vt 0.524605 0.012647
vt 0.524606 0.012643
vt 0.524606 0.012640
vt 0.524604 0.012795
vt 0.524609 0.012892
vt 0.524610 0.012890
vt 0.524609 0.012894
vt 0.524609 0.012894
vt 0.524607 0.012894
vt 0.524607 0.012894
vt 0.524606 0.012892
vt 0.524606 0.012890
vt 0.524606 0.012887
vt 0.524605 0.012882
vt 0.524605 0.012877
vt 0.524605 0.012872
vt 0.524605 0.012865
vt 0.524604 0.012858
vt 0.524604 0.012850
vt 0.524604 0.012842
vt 0.524604 0.012833
vt 0.524604 0.012824
vt 0.524609 0.012636
vt 0.524609 0.012638
vt 0.524610 0.012640
vt 0.524610 0.012643
vt 0.524610 0.012647
vt 0.524611 0.012652
vt 0.524611 0.012658
vt 0.524611 0.012665
vt 0.524611 0.012672
vt 0.524611 0.012680
vt 0.524612 0.012688
vt 0.524612 0.012697
vt 0.524612 0.012706
vt 0.524612 0.012716
vt 0.524612 0.012725
vt 0.524612 0.012735
vt 0.524612 0.012795
vt 0.524612 0.012804
vt 0.524612 0.012814
vt 0.524612 0.012824
vt 0.524612 0.012833
vt 0.524612 0.012842
vt 0.524611 0.012850
vt 0.524611 0.012858
vt 0.524611 0.012865
vt 0.524611 0.012872
vt 0.524611 0.012877
vn 0.0000 1.0000 0.0000
s off
f 13/1/1 69/2/1 12/3/1
f 4/4/1 69/2/1 3/5/1
f 38/6/1 69/2/1 37/7/1
f 12/3/1 69/2/1 11/8/1
f 69/2/1 18/9/1 36/10/1
f 18/9/1 69/2/1 34/11/1
f 34/11/1 69/2/1 33/12/1
f 33/12/1 69/2/1 32/13/1
f 32/13/1 69/2/1 31/14/1
f 31/14/1 69/2/1 30/15/1
f 30/15/1 69/2/1 29/16/1
f 29/16/1 69/2/1 28/17/1
f 28/17/1 69/2/1 27/18/1
f 27/18/1 69/2/1 26/19/1
f 26/19/1 69/2/1 25/20/1
f 25/20/1 69/2/1 24/21/1
f 24/21/1 69/2/1 23/22/1
f 23/22/1 69/2/1 22/23/1
f 22/23/1 69/2/1 21/24/1
f 21/24/1 69/2/1 20/25/1
f 20/25/1 69/2/1 19/26/1
f 19/26/1 69/2/1 1/27/1
f 1/27/1 69/2/1 17/28/1
f 17/28/1 69/2/1 16/29/1
f 16/29/1 69/2/1 15/30/1
f 15/30/1 69/2/1 14/31/1
f 14/31/1 69/2/1 13/1/1
f 3/5/1 69/2/1 2/32/1
f 2/32/1 69/2/1 52/33/1
f 52/33/1 69/2/1 68/34/1
f 68/34/1 69/2/1 67/35/1
f 67/35/1 69/2/1 66/36/1
f 66/36/1 69/2/1 65/37/1
f 65/37/1 69/2/1 64/38/1
f 64/38/1 69/2/1 63/39/1
f 63/39/1 69/2/1 62/40/1
f 62/40/1 69/2/1 61/41/1
f 69/2/1 10/42/1 11/8/1
f 10/42/1 69/2/1 9/43/1
f 9/43/1 69/2/1 8/44/1
f 8/44/1 69/2/1 7/45/1
f 7/45/1 69/2/1 6/46/1
f 6/46/1 69/2/1 5/47/1
f 5/47/1 69/2/1 4/4/1
f 37/7/1 69/2/1 36/10/1
f 69/2/1 60/48/1 61/41/1
f 60/48/1 69/2/1 59/49/1
f 59/49/1 69/2/1 58/50/1
f 58/50/1 69/2/1 57/51/1
f 57/51/1 69/2/1 56/52/1
f 56/52/1 69/2/1 55/53/1
f 55/53/1 69/2/1 54/54/1
f 54/54/1 69/2/1 53/55/1
f 53/55/1 69/2/1 35/56/1
f 35/56/1 69/2/1 51/57/1
f 51/57/1 69/2/1 50/58/1
f 50/58/1 69/2/1 49/59/1
f 49/59/1 69/2/1 48/60/1
f 48/60/1 69/2/1 47/61/1
f 47/61/1 69/2/1 46/62/1
f 46/62/1 69/2/1 45/63/1
f 45/63/1 69/2/1 44/64/1
f 44/64/1 69/2/1 43/65/1
f 43/65/1 69/2/1 42/66/1
f 42/66/1 69/2/1 41/67/1
f 41/67/1 69/2/1 40/68/1
f 40/68/1 69/2/1 39/69/1
f 39/69/1 69/2/1 38/6/1
f 70/70/1 138/71/1 86/72/1
f 73/73/1 138/71/1 72/74/1
f 107/75/1 138/71/1 106/76/1
f 86/72/1 138/71/1 85/77/1
f 138/71/1 87/78/1 105/79/1
f 87/78/1 138/71/1 103/80/1
f 103/80/1 138/71/1 102/81/1
f 102/81/1 138/71/1 101/82/1
f 101/82/1 138/71/1 100/83/1
f 100/83/1 138/71/1 99/84/1
f 99/84/1 138/71/1 98/85/1
f 98/85/1 138/71/1 97/86/1
f 97/86/1 138/71/1 96/87/1
f 96/87/1 138/71/1 95/88/1
f 95/88/1 138/71/1 94/89/1
f 94/89/1 138/71/1 93/90/1
f 93/90/1 138/71/1 92/91/1
f 92/91/1 138/71/1 91/92/1
f 91/92/1 138/71/1 90/93/1
f 90/93/1 138/71/1 89/94/1
f 89/94/1 138/71/1 88/95/1
f 88/95/1 138/71/1 70/70/1
f 72/74/1 138/71/1 71/96/1
f 71/96/1 138/71/1 121/97/1
f 121/97/1 138/71/1 137/98/1
f 137/98/1 138/71/1 136/99/1
f 136/99/1 138/71/1 135/100/1
f 135/100/1 138/71/1 134/101/1
f 134/101/1 138/71/1 133/102/1
f 138/71/1 84/103/1 85/77/1
f 84/103/1 138/71/1 83/104/1
f 83/104/1 138/71/1 82/105/1
f 82/105/1 138/71/1 81/106/1
f 81/106/1 138/71/1 80/107/1
f 80/107/1 138/71/1 79/108/1
f 79/108/1 138/71/1 78/109/1
f 78/109/1 138/71/1 77/110/1
f 77/110/1 138/71/1 76/111/1
f 76/111/1 138/71/1 75/112/1
f 75/112/1 138/71/1 74/113/1
f 74/113/1 138/71/1 73/73/1
f 106/76/1 138/71/1 105/79/1
f 138/71/1 132/114/1 133/102/1
f 132/114/1 138/71/1 131/115/1
f 131/115/1 138/71/1 130/116/1
f 130/116/1 138/71/1 129/117/1
f 129/117/1 138/71/1 128/118/1
f 128/118/1 138/71/1 127/119/1
f 127/119/1 138/71/1 126/120/1
f 126/120/1 138/71/1 125/121/1
f 125/121/1 138/71/1 124/122/1
f 124/122/1 138/71/1 123/123/1
f 123/123/1 138/71/1 122/124/1
f 122/124/1 138/71/1 104/125/1
f 104/125/1 138/71/1 120/126/1
f 120/126/1 138/71/1 119/127/1
f 119/127/1 138/71/1 118/128/1
f 118/128/1 138/71/1 117/129/1
f 117/129/1 138/71/1 116/130/1
f 116/130/1 138/71/1 115/131/1
f 115/131/1 138/71/1 114/132/1
f 114/132/1 138/71/1 113/133/1
f 113/133/1 138/71/1 112/134/1
f 112/134/1 138/71/1 111/135/1
f 111/135/1 138/71/1 110/136/1
f 110/136/1 138/71/1 109/137/1
f 109/137/1 138/71/1 108/138/1
f 108/138/1 138/71/1 107/75/1
f 142/139/1 207/140/1 141/141/1
f 159/142/1 207/140/1 158/143/1
f 179/144/1 207/140/1 178/145/1
f 141/141/1 207/140/1 140/146/1
f 140/146/1 207/140/1 190/147/1
f 207/140/1 155/148/1 139/149/1
f 154/150/1 155/148/1 207/140/1
f 154/150/1 207/140/1 153/151/1
f 153/151/1 207/140/1 152/152/1
f 152/152/1 207/140/1 151/153/1
f 151/153/1 207/140/1 150/154/1
f 150/154/1 207/140/1 149/155/1
f 149/155/1 207/140/1 148/156/1
f 148/156/1 207/140/1 147/157/1
f 147/157/1 207/140/1 146/158/1
f 146/158/1 207/140/1 145/159/1
f 145/159/1 207/140/1 144/160/1
f 144/160/1 207/140/1 143/161/1
f 143/161/1 207/140/1 142/139/1
f 158/143/1 207/140/1 157/162/1
f 157/162/1 207/140/1 139/149/1
f 207/140/1 176/163/1 177/164/1
f 175/165/1 176/163/1 207/140/1
f 175/165/1 207/140/1 174/166/1
f 174/166/1 207/140/1 156/167/1
f 156/167/1 207/140/1 172/168/1
f 172/168/1 207/140/1 171/169/1
f 171/169/1 207/140/1 170/170/1
f 170/170/1 207/140/1 169/171/1
f 169/171/1 207/140/1 168/172/1
f 168/172/1 207/140/1 167/173/1
f 167/173/1 207/140/1 166/174/1
f 166/174/1 207/140/1 165/175/1
f 165/175/1 207/140/1 164/176/1
f 164/176/1 207/140/1 163/177/1
f 163/177/1 207/140/1 162/178/1
f 162/178/1 207/140/1 161/179/1
f 161/179/1 207/140/1 160/180/1
f 160/180/1 207/140/1 159/142/1
f 178/145/1 207/140/1 177/164/1
f 207/140/1 206/181/1 190/147/1
f 206/181/1 207/140/1 205/182/1
f 205/182/1 207/140/1 204/183/1
f 204/183/1 207/140/1 203/184/1
f 203/184/1 207/140/1 202/185/1
f 202/185/1 207/140/1 201/186/1
f 201/186/1 207/140/1 200/187/1
f 200/187/1 207/140/1 199/188/1
f 199/188/1 207/140/1 198/189/1
f 198/189/1 207/140/1 197/190/1
f 197/190/1 207/140/1 196/191/1
f 196/191/1 207/140/1 195/192/1
f 195/192/1 207/140/1 194/193/1
f 194/193/1 207/140/1 193/194/1
f 193/194/1 207/140/1 192/195/1
f 192/195/1 207/140/1 191/196/1
f 191/196/1 207/140/1 173/197/1
f 173/197/1 207/140/1 189/198/1
f 189/198/1 207/140/1 188/199/1
f 188/199/1 207/140/1 187/200/1
f 187/200/1 207/140/1 186/201/1
f 186/201/1 207/140/1 185/202/1
f 185/202/1 207/140/1 184/203/1
f 184/203/1 207/140/1 183/204/1
f 183/204/1 207/140/1 182/205/1
f 182/205/1 207/140/1 181/206/1
f 181/206/1 207/140/1 180/207/1
f 180/207/1 207/140/1 179/144/1
