# Blender v2.82 (sub 7) OBJ File: ''
# www.blender.org
mtllib medium_range_2.mtl
o r2_Circle.008
v 1.747300 0.000000 -13.395994
v 13.396000 0.000000 -1.747295
v 13.339909 0.000000 -2.889064
v 13.172175 0.000000 -4.019838
v 12.894415 0.000000 -5.128726
v 12.509301 0.000000 -6.205049
v 12.020544 0.000000 -7.238441
v 11.432851 0.000000 -8.218952
v 10.751881 0.000000 -9.137136
v 9.984192 0.000000 -9.984154
v 9.137177 0.000000 -10.751845
v 8.218994 0.000000 -11.432819
v 7.238486 0.000000 -12.020516
v 6.205095 0.000000 -12.509277
v 5.128773 0.000000 -12.894395
v 4.019886 0.000000 -13.172160
v 2.889112 0.000000 -13.339898
v -13.395994 0.000000 -1.747300
v -1.747295 0.000000 -13.396000
v -2.889064 0.000000 -13.339909
v -4.019838 0.000000 -13.172175
v -5.128726 0.000000 -12.894415
v -6.205049 0.000000 -12.509301
v -7.238441 0.000000 -12.020544
v -8.218952 0.000000 -11.432851
v -9.137137 0.000000 -10.751881
v -9.984154 0.000000 -9.984191
v -10.751845 0.000000 -9.137176
v -11.432819 0.000000 -8.218993
v -12.020516 0.000000 -7.238486
v -12.509277 0.000000 -6.205095
v -12.894394 0.000000 -5.128773
v -13.172160 0.000000 -4.019885
v -13.339898 0.000000 -2.889112
v -1.747299 0.000000 13.395993
v -13.395999 0.000000 1.747295
v -13.339909 0.000000 2.889065
v -13.172175 0.000000 4.019838
v -12.894414 0.000000 5.128726
v -12.509300 0.000000 6.205049
v -12.020543 0.000000 7.238442
v -11.432850 0.000000 8.218951
v -10.751879 0.000000 9.137136
v -9.984191 0.000000 9.984154
v -9.137177 0.000000 10.751845
v -8.218994 0.000000 11.432819
v -7.238485 0.000000 12.020516
v -6.205094 0.000000 12.509276
v -5.128771 0.000000 12.894394
v -4.019885 0.000000 13.172159
v -2.889111 0.000000 13.339898
v 13.395994 0.000000 1.747300
v 1.747295 0.000000 13.395999
v 2.889064 0.000000 13.339910
v 4.019838 0.000000 13.172174
v 5.128726 0.000000 12.894414
v 6.205049 0.000000 12.509301
v 7.238441 0.000000 12.020544
v 8.218952 0.000000 11.432850
v 9.137136 0.000000 10.751880
v 9.984154 0.000000 9.984193
v 10.751845 0.000000 9.137177
v 11.432819 0.000000 8.218994
v 12.020517 0.000000 7.238486
v 12.509277 0.000000 6.205094
v 12.894395 0.000000 5.128773
v 13.172160 0.000000 4.019885
v 13.339898 0.000000 2.889112
vt 0.565204 0.000100
vt 0.872580 0.127419
vt 0.999900 0.434796
vt 0.607811 0.002193
vt 0.650009 0.008452
vt 0.691392 0.018819
vt 0.731555 0.033189
vt 0.770117 0.051428
vt 0.806708 0.073359
vt 0.840972 0.098771
vt 0.901228 0.159027
vt 0.966811 0.268444
vt 0.926640 0.193290
vt 0.948571 0.229881
vt 0.981182 0.308610
vt 0.991547 0.349990
vt 0.997807 0.392187
vt 0.999900 0.565205
vt 0.565204 0.999900
vt 0.997807 0.607812
vt 0.607813 0.997806
vt 0.991548 0.650009
vt 0.981182 0.691390
vt 0.966811 0.731555
vt 0.948572 0.770119
vt 0.926641 0.806708
vt 0.901229 0.840972
vt 0.872580 0.872581
vt 0.840972 0.901229
vt 0.806709 0.926640
vt 0.770119 0.948571
vt 0.731556 0.966810
vt 0.691391 0.981182
vt 0.650011 0.991547
vt 0.434795 0.999900
vt 0.000100 0.565203
vt 0.008453 0.650010
vt 0.392189 0.997807
vt 0.349991 0.991547
vt 0.308609 0.981182
vt 0.268445 0.966811
vt 0.229881 0.948571
vt 0.193292 0.926640
vt 0.159027 0.901228
vt 0.073360 0.806708
vt 0.127419 0.872580
vt 0.098773 0.840974
vt 0.051429 0.770118
vt 0.033189 0.731555
vt 0.018818 0.691390
vt 0.002193 0.607814
vt 0.000100 0.434795
vt 0.002193 0.392188
vt 0.434796 0.000100
vt 0.008452 0.349990
vt 0.018818 0.308610
vt 0.033188 0.268447
vt 0.051428 0.229882
vt 0.073358 0.193293
vt 0.098771 0.159028
vt 0.127420 0.127419
vt 0.159027 0.098772
vt 0.193291 0.073360
vt 0.308609 0.018818
vt 0.229880 0.051429
vt 0.268444 0.033190
vt 0.349990 0.008453
vt 0.392187 0.002193
vn 0.0000 1.0000 0.0000
usemtl None
s off
f 2/1/1 10/2/1 1/3/1
f 2/1/1 3/4/1 4/5/1
f 4/5/1 5/6/1 6/7/1
f 6/7/1 7/8/1 8/9/1
f 8/9/1 9/10/1 6/7/1
f 9/10/1 10/2/1 6/7/1
f 10/2/1 11/11/1 14/12/1
f 11/11/1 12/13/1 14/12/1
f 12/13/1 13/14/1 14/12/1
f 14/12/1 15/15/1 16/16/1
f 16/16/1 17/17/1 14/12/1
f 17/17/1 1/3/1 14/12/1
f 1/3/1 19/18/1 18/19/1
f 19/18/1 20/20/1 34/21/1
f 20/20/1 21/22/1 22/23/1
f 22/23/1 23/24/1 24/25/1
f 24/25/1 25/26/1 26/27/1
f 26/27/1 27/28/1 28/29/1
f 28/29/1 29/30/1 26/27/1
f 29/30/1 30/31/1 26/27/1
f 30/31/1 31/32/1 32/33/1
f 32/33/1 33/34/1 34/21/1
f 34/21/1 18/19/1 19/18/1
f 18/19/1 36/35/1 35/36/1
f 35/36/1 36/35/1 50/37/1
f 36/35/1 37/38/1 38/39/1
f 38/39/1 39/40/1 40/41/1
f 40/41/1 41/42/1 42/43/1
f 42/43/1 43/44/1 46/45/1
f 43/44/1 44/46/1 46/45/1
f 44/46/1 45/47/1 46/45/1
f 46/45/1 47/48/1 48/49/1
f 48/49/1 49/50/1 50/37/1
f 50/37/1 51/51/1 35/36/1
f 35/36/1 53/52/1 1/3/1
f 53/52/1 54/53/1 52/54/1
f 1/3/1 53/52/1 2/1/1
f 54/53/1 55/55/1 56/56/1
f 56/56/1 57/57/1 58/58/1
f 58/58/1 59/59/1 60/60/1
f 60/60/1 61/61/1 62/62/1
f 62/62/1 63/63/1 66/64/1
f 63/63/1 64/65/1 66/64/1
f 64/65/1 65/66/1 66/64/1
f 66/64/1 67/67/1 68/68/1
f 68/68/1 52/54/1 58/58/1
f 52/54/1 2/1/1 53/52/1
f 58/58/1 52/54/1 54/53/1
f 2/1/1 4/5/1 10/2/1
f 4/5/1 6/7/1 10/2/1
f 20/20/1 22/23/1 34/21/1
f 22/23/1 24/25/1 26/27/1
f 30/31/1 32/33/1 26/27/1
f 32/33/1 34/21/1 26/27/1
f 36/35/1 38/39/1 50/37/1
f 38/39/1 40/41/1 42/43/1
f 46/45/1 48/49/1 42/43/1
f 48/49/1 50/37/1 42/43/1
f 54/53/1 56/56/1 58/58/1
f 58/58/1 60/60/1 66/64/1
f 60/60/1 62/62/1 66/64/1
f 66/64/1 68/68/1 58/58/1
f 10/2/1 14/12/1 1/3/1
f 22/23/1 26/27/1 34/21/1
f 38/39/1 42/43/1 50/37/1
f 35/36/1 1/3/1 18/19/1
