# Blender v2.82 (sub 7) OBJ File: 'smallbase.blend'
# www.blender.org
o front_r3_Circle.030
v -1.540450 0.000000 -19.086399
v -4.923141 0.000000 -18.753233
v -8.175837 0.000000 -17.766539
v -11.173538 0.000000 -16.164234
v 1.540452 0.000000 -19.086399
v 0.000000 0.000000 0.000000
v 11.173521 0.000000 -16.164248
v 8.175816 0.000000 -17.766548
v 4.923117 0.000000 -18.753239
v -12.958925 0.000000 -14.699004
v -0.000019 0.000000 -0.000009
v 12.958927 0.000000 -14.699006
v 0.000011 0.000000 -0.000003
v -1.540450 0.040000 -13.306701
v -3.795577 0.040000 -13.084590
v -5.964041 0.040000 -12.426793
v -7.962509 0.040000 -11.358590
v 1.540452 0.040000 -13.306701
v 7.962498 0.040000 -11.358599
v 5.964028 0.040000 -12.426800
v 3.795562 0.040000 -13.084593
v 0.000000 0.040000 -0.000000
v 0.000012 0.040000 -0.000004
v -9.152769 0.040000 -10.381768
v 9.152770 0.040000 -10.381769
v -0.000013 0.040000 -0.000004
v -1.540450 0.080000 -7.527000
v -2.668014 0.080000 -7.415945
v -3.752245 0.080000 -7.087047
v -4.751479 0.080000 -6.552945
v 1.540452 0.080000 -7.527000
v 4.751475 0.080000 -6.552949
v 3.752240 0.080000 -7.087050
v 2.668007 0.080000 -7.415947
v 0.000000 0.080000 -0.000000
v 0.000017 0.080000 -0.000010
v 5.346613 0.080000 -6.064533
v -5.346613 0.080000 -6.064531
v -0.000019 0.080000 -0.000011
vt 0.545307 0.009438
vt 0.545307 0.009439
vt 0.544472 0.854481
vt 0.545307 0.009438
vt 0.545307 0.009437
vt 0.545307 0.009434
vt 0.545307 0.009432
vt 0.544462 0.854454
vt 0.544481 0.854453
vt 0.545306 0.009432
vt 0.545306 0.009434
vt 0.545306 0.009436
vt 0.545307 0.009438
vt 0.545307 0.009438
vt 0.545307 0.009438
vt 0.544511 0.854526
vt 0.545307 0.009438
vt 0.545307 0.009436
vt 0.545307 0.009434
vt 0.545307 0.009432
vt 0.544505 0.854499
vt 0.544518 0.854499
vt 0.545306 0.009433
vt 0.545306 0.009435
vt 0.545307 0.009437
vt 0.545307 0.009438
vt 0.545307 0.009438
vt 0.545307 0.009438
vt 0.544470 0.854541
vt 0.545307 0.009438
vt 0.545307 0.009437
vt 0.545307 0.009435
vt 0.545307 0.009433
vt 0.000000 0.000000
vt 0.000000 0.000000
vt 0.000000 0.000000
vt 0.544474 0.854513
vt 0.545307 0.009433
vt 0.545307 0.009435
vt 0.545307 0.009437
vt 0.545307 0.009438
vn 0.0000 1.0000 0.0000
vn 0.0000 1.0000 -0.0003
vn 0.0000 1.0000 0.0007
vn 0.0000 1.0000 -0.0009
s off
f 5/1/1 1/2/1 6/3/1
f 1/2/1 2/4/1 6/3/1
f 2/4/1 3/5/1 6/3/1
f 3/5/1 4/6/1 6/3/1
f 4/6/1 10/7/1 6/3/1
f 10/7/1 11/8/1 6/3/1
f 6/3/1 13/9/1 12/10/1
f 12/10/1 7/11/1 6/3/1
f 7/11/1 8/12/1 6/3/1
f 8/12/1 9/13/1 6/3/1
f 9/13/1 5/1/1 6/3/1
f 18/14/1 14/15/1 22/16/1
f 14/15/1 15/17/1 22/16/1
f 15/17/1 16/18/1 22/16/1
f 16/18/1 17/19/1 22/16/1
f 17/19/1 24/20/1 22/16/1
f 24/20/2 26/21/2 22/16/2
f 22/16/3 23/22/3 25/23/3
f 25/23/1 19/24/1 22/16/1
f 19/24/1 20/25/1 22/16/1
f 20/25/1 21/26/1 22/16/1
f 21/26/1 18/14/1 22/16/1
f 31/27/1 27/28/1 35/29/1
f 27/28/1 28/30/1 35/29/1
f 28/30/1 29/31/1 35/29/1
f 29/31/1 30/32/1 35/29/1
f 30/32/1 38/33/1 35/29/1
f 38/34/4 39/35/4 35/36/4
f 35/29/1 36/37/1 37/38/1
f 37/38/1 32/39/1 35/29/1
f 32/39/1 33/40/1 35/29/1
f 33/40/1 34/41/1 35/29/1
f 34/41/1 31/27/1 35/29/1
o medium_bullseye_Plane.002
v -0.355644 -0.040000 -0.463925
v 0.355644 -0.040000 -0.463925
v -0.355644 -0.040000 -19.076748
v 0.355644 -0.040000 -19.076748
vt 0.020519 0.982761
vt 0.009968 0.982761
vt 0.009968 0.972210
vt 0.020519 0.972210
vn 0.0000 1.0000 0.0000
s off
f 40/42/5 41/43/5 43/44/5 42/45/5
