# Blender v2.82 (sub 7) OBJ File: 'smallbase.blend'
# www.blender.org
o frontback_Circle.017
v 1.540453 0.000000 -19.091000
v 4.923143 0.000000 -18.757833
v 8.175838 0.000000 -17.771137
v 11.173540 0.000000 -16.168833
v -1.540450 0.000000 -19.091000
v -0.000001 0.000000 -0.004600
v -11.173519 0.000000 -16.168850
v -8.175813 0.000000 -17.771151
v -4.923114 0.000000 -18.757839
v 12.958927 0.000000 -14.703603
v 0.000019 0.000000 -0.004609
v -12.958925 0.000000 -14.703609
v -0.000011 0.000000 -0.004603
v 1.540452 0.040000 -13.311300
v 3.795579 0.040000 -13.089190
v 5.964043 0.040000 -12.431394
v 7.962510 0.040000 -11.363190
v -1.540451 0.040000 -13.311300
v -7.962496 0.040000 -11.363201
v -5.964026 0.040000 -12.431402
v -3.795560 0.040000 -13.089194
v -0.000000 0.040000 -0.004601
v 9.152771 0.040000 -10.386367
v -9.152769 0.040000 -10.386372
v 1.540451 0.080000 -7.531600
v 2.668015 0.080000 -7.420545
v 3.752246 0.080000 -7.091646
v 4.751480 0.080000 -6.557545
v -1.540451 0.080000 -7.531601
v -4.751474 0.080000 -6.557550
v -3.752239 0.080000 -7.091651
v -2.668006 0.080000 -7.420547
v -0.000000 0.080000 -0.004601
v -5.346613 0.080000 -6.069134
v 5.346613 0.080000 -6.069131
v -1.540450 0.000000 19.091002
v -4.923140 0.000000 18.757833
v -8.175837 0.000000 17.771141
v -11.173538 0.000000 16.168835
v 1.540452 0.000000 19.091002
v 0.000000 0.000000 0.004600
v 11.173521 0.000000 16.168850
v 8.175815 0.000000 17.771154
v 4.923117 0.000000 18.757837
v -12.958925 0.000000 14.703605
v -0.000020 0.000000 0.004609
v 12.958927 0.000000 14.703607
v 0.000011 0.000000 0.004603
v -1.540450 0.040000 13.311301
v -3.795578 0.040000 13.089190
v -5.964041 0.040000 12.431395
v -7.962509 0.040000 11.363191
v 1.540452 0.040000 13.311301
v 7.962498 0.040000 11.363199
v 5.964028 0.040000 12.431401
v 3.795562 0.040000 13.089192
v -0.000000 0.040000 0.004600
v -9.152769 0.040000 10.386367
v 9.152770 0.040000 10.386370
v -1.540450 0.080000 7.531600
v -2.668014 0.080000 7.420545
v -3.752246 0.080000 7.091646
v -4.751480 0.080000 6.557545
v 1.540452 0.080000 7.531600
v 4.751475 0.080000 6.557549
v 3.752240 0.080000 7.091649
v 2.668007 0.080000 7.420547
v -0.000000 0.080000 0.004600
v 5.346613 0.080000 6.069133
v -5.346612 0.080000 6.069131
vt 0.542599 0.026282
vt 0.543060 0.880653
vt 0.542598 0.026284
vt 0.542597 0.026304
vt 0.542595 0.026357
vt 0.542594 0.026442
vt 0.542593 0.026518
vt 0.545307 0.009432
vt 0.544462 0.854454
vt 0.544472 0.854481
vt 0.543060 0.880653
vt 0.542604 0.026492
vt 0.542603 0.026424
vt 0.542602 0.026344
vt 0.542600 0.026296
vt 0.542598 0.026283
vt 0.543060 0.880803
vt 0.542599 0.026285
vt 0.542600 0.026303
vt 0.542601 0.026352
vt 0.542602 0.026431
vt 0.542602 0.026503
vt 0.542595 0.026492
vt 0.542596 0.026421
vt 0.542596 0.026345
vt 0.542597 0.026298
vt 0.542598 0.026297
vt 0.543060 0.880942
vt 0.542599 0.026280
vt 0.542599 0.026288
vt 0.542599 0.026324
vt 0.542599 0.026387
vt 0.542599 0.026446
vt 0.542598 0.026504
vt 0.542598 0.026439
vt 0.542598 0.026365
vt 0.542598 0.026317
vt 0.542599 0.026282
vt 0.543060 0.880653
vt 0.542598 0.026284
vt 0.542597 0.026304
vt 0.542595 0.026357
vt 0.542594 0.026442
vt 0.542593 0.026518
vt 0.545307 0.009432
vt 0.544462 0.854454
vt 0.544472 0.854481
vt 0.543060 0.880653
vt 0.542604 0.026492
vt 0.542603 0.026424
vt 0.542602 0.026344
vt 0.542600 0.026296
vt 0.542598 0.026283
vt 0.543060 0.880803
vt 0.542599 0.026285
vt 0.542600 0.026303
vt 0.542601 0.026352
vt 0.542602 0.026431
vt 0.542602 0.026503
vt 0.542595 0.026492
vt 0.542596 0.026421
vt 0.542596 0.026345
vt 0.542597 0.026298
vt 0.542598 0.026297
vt 0.543060 0.880942
vt 0.542599 0.026280
vt 0.542599 0.026288
vt 0.542599 0.026324
vt 0.542599 0.026387
vt 0.542599 0.026446
vt 0.542598 0.026504
vt 0.542598 0.026439
vt 0.542598 0.026365
vt 0.542598 0.026317
vn 0.0000 1.0000 0.0000
vn 0.0000 -1.0000 0.0000
s off
f 5/1/1 6/2/1 1/3/1
f 1/3/1 6/2/1 2/4/1
f 2/4/1 6/2/1 3/5/1
f 3/5/1 6/2/1 4/6/1
f 4/6/1 6/2/1 10/7/1
f 10/8/2 11/9/2 6/10/2
f 6/2/2 13/11/2 12/12/2
f 12/12/1 6/2/1 7/13/1
f 7/13/1 6/2/1 8/14/1
f 8/14/1 6/2/1 9/15/1
f 9/15/1 6/2/1 5/1/1
f 18/16/1 22/17/1 14/18/1
f 14/18/1 22/17/1 15/19/1
f 15/19/1 22/17/1 16/20/1
f 16/20/1 22/17/1 17/21/1
f 17/21/1 22/17/1 23/22/1
f 24/23/1 22/17/1 19/24/1
f 19/24/1 22/17/1 20/25/1
f 20/25/1 22/17/1 21/26/1
f 21/26/1 22/17/1 18/16/1
f 29/27/1 33/28/1 25/29/1
f 25/29/1 33/28/1 26/30/1
f 26/30/1 33/28/1 27/31/1
f 27/31/1 33/28/1 28/32/1
f 28/32/1 33/28/1 35/33/1
f 34/34/1 33/28/1 30/35/1
f 30/35/1 33/28/1 31/36/1
f 31/36/1 33/28/1 32/37/1
f 32/37/1 33/28/1 29/27/1
f 40/38/1 41/39/1 36/40/1
f 36/40/1 41/39/1 37/41/1
f 37/41/1 41/39/1 38/42/1
f 38/42/1 41/39/1 39/43/1
f 39/43/1 41/39/1 45/44/1
f 45/45/2 46/46/2 41/47/2
f 41/39/2 48/48/2 47/49/2
f 47/49/1 41/39/1 42/50/1
f 42/50/1 41/39/1 43/51/1
f 43/51/1 41/39/1 44/52/1
f 44/52/1 41/39/1 40/38/1
f 53/53/1 57/54/1 49/55/1
f 49/55/1 57/54/1 50/56/1
f 50/56/1 57/54/1 51/57/1
f 51/57/1 57/54/1 52/58/1
f 52/58/1 57/54/1 58/59/1
f 59/60/1 57/54/1 54/61/1
f 54/61/1 57/54/1 55/62/1
f 55/62/1 57/54/1 56/63/1
f 56/63/1 57/54/1 53/53/1
f 64/64/1 68/65/1 60/66/1
f 60/66/1 68/65/1 61/67/1
f 61/67/1 68/65/1 62/68/1
f 62/68/1 68/65/1 63/69/1
f 63/69/1 68/65/1 70/70/1
f 69/71/1 68/65/1 65/72/1
f 65/72/1 68/65/1 66/73/1
f 66/73/1 68/65/1 67/74/1
f 67/74/1 68/65/1 64/64/1
o medium_bullseye.001_Plane.010
v -0.355644 -0.020000 -0.770469
v 0.355644 -0.020000 -0.770469
v -0.355644 -0.020000 -19.083290
v 0.355644 -0.020000 -19.083290
vt 0.020519 0.982761
vt 0.009968 0.982761
vt 0.009968 0.972210
vt 0.020519 0.972210
vn 0.0000 1.0000 0.0000
s off
f 71/75/3 72/76/3 74/77/3 73/78/3
