# Blender v2.82 (sub 7) OBJ File: 'smallbase.blend'
# www.blender.org
o med_range2_Circle.013
v -1.747300 0.000000 -13.306701
v -4.002427 0.000000 -13.084589
v -6.170891 0.000000 -12.426793
v -8.169358 0.000000 -11.358589
v -9.921029 0.000000 -9.921030
v -11.358590 0.000000 -8.169357
v -12.426793 0.000000 -6.170891
v -13.084589 0.000000 -4.002427
v -13.306700 0.000000 -1.747301
v 1.747300 0.000000 -13.306701
v 13.306698 0.000000 -1.747311
v 13.084586 0.000000 -4.002439
v 12.426786 0.000000 -6.170903
v 11.358582 0.000000 -8.169370
v 9.921019 0.000000 -9.921041
v 8.169345 0.000000 -11.358599
v 6.170875 0.000000 -12.426800
v 4.002409 0.000000 -13.084592
v 1.747304 0.000000 13.306698
v 4.002431 0.000000 13.084587
v 6.170896 0.000000 12.426789
v 8.169364 0.000000 11.358584
v 9.921035 0.000000 9.921023
v 11.358593 0.000000 8.169352
v 12.426795 0.000000 6.170882
v 13.084590 0.000000 4.002417
v 13.306698 0.000000 1.747289
v -13.306700 0.000000 1.747299
v -13.084589 0.000000 4.002425
v -12.426793 0.000000 6.170889
v -11.358590 0.000000 8.169357
v -9.921029 0.000000 9.921029
v -8.169357 0.000000 11.358590
v -6.170889 0.000000 12.426792
v -4.002424 0.000000 13.084589
v -1.747296 0.000000 13.306698
v 0.000000 0.000000 0.000000
vt 0.517226 0.869117
vt 0.517176 0.010248
vt 0.517204 0.010247
vt 0.517388 0.010287
vt 0.517390 0.010297
vt 0.517103 0.010347
vt 0.517085 0.010339
vt 0.517063 0.010321
vt 0.517061 0.010312
vt 0.517247 0.010247
vt 0.517275 0.010248
vt 0.517302 0.010251
vt 0.517327 0.010256
vt 0.517348 0.010262
vt 0.517366 0.010269
vt 0.517379 0.010278
vt 0.517390 0.010312
vt 0.517388 0.010321
vt 0.517379 0.010331
vt 0.517366 0.010339
vt 0.517348 0.010347
vt 0.517327 0.010353
vt 0.517302 0.010357
vt 0.517275 0.010360
vt 0.517247 0.010361
vt 0.517204 0.010361
vt 0.517176 0.010360
vt 0.517149 0.010357
vt 0.517124 0.010353
vt 0.517061 0.010297
vt 0.517063 0.010287
vt 0.517072 0.010278
vt 0.517085 0.010269
vt 0.517103 0.010262
vt 0.517124 0.010256
vt 0.517149 0.010251
vt 0.517072 0.010331
vn 0.0000 1.0000 0.0000
s off
f 37/1/1 26/2/1 27/3/1
f 37/1/1 18/4/1 10/5/1
f 32/6/1 33/7/1 37/1/1
f 35/8/1 36/9/1 37/1/1
f 27/3/1 11/10/1 37/1/1
f 11/10/1 12/11/1 37/1/1
f 12/11/1 13/12/1 37/1/1
f 13/12/1 14/13/1 37/1/1
f 14/13/1 15/14/1 37/1/1
f 15/14/1 16/15/1 37/1/1
f 16/15/1 17/16/1 37/1/1
f 17/16/1 18/4/1 37/1/1
f 10/5/1 1/17/1 37/1/1
f 1/17/1 2/18/1 37/1/1
f 2/18/1 3/19/1 37/1/1
f 3/19/1 4/20/1 37/1/1
f 4/20/1 5/21/1 37/1/1
f 5/21/1 6/22/1 37/1/1
f 6/22/1 7/23/1 37/1/1
f 7/23/1 8/24/1 37/1/1
f 37/1/1 8/24/1 9/25/1
f 9/25/1 28/26/1 37/1/1
f 28/26/1 29/27/1 37/1/1
f 29/27/1 30/28/1 37/1/1
f 30/28/1 31/29/1 37/1/1
f 31/29/1 32/6/1 37/1/1
f 36/9/1 19/30/1 37/1/1
f 19/30/1 20/31/1 37/1/1
f 20/31/1 21/32/1 37/1/1
f 21/32/1 22/33/1 37/1/1
f 22/33/1 23/34/1 37/1/1
f 23/34/1 24/35/1 37/1/1
f 24/35/1 25/36/1 37/1/1
f 25/36/1 26/2/1 37/1/1
f 37/1/1 33/7/1 34/37/1
f 34/37/1 35/8/1 37/1/1
