# Blender v2.82 (sub 7) OBJ File: 'mediumbase.blend'
# www.blender.org
o s3_Circle.002
v -19.220293 0.000000 -1.747299
v -14.102549 0.000000 -14.102603
v -15.254081 0.000000 -12.832083
v -16.275537 0.000000 -11.454814
v -17.157084 0.000000 -9.984056
v -17.890221 0.000000 -8.433973
v -18.467897 0.000000 -6.819495
v -18.884544 0.000000 -5.156168
v -19.136148 0.000000 -3.460012
v -19.220303 0.000000 1.747294
v -19.136166 0.000000 3.459943
v -18.884565 0.000000 5.156099
v -18.467926 0.000000 6.819426
v -17.890257 0.000000 8.433907
v -17.157124 0.000000 9.983992
v -16.275585 0.000000 11.454751
v -15.254133 0.000000 12.832025
v -14.102603 0.000000 14.102547
v -13.174597 0.000000 -14.943643
v -0.000000 0.000000 0.000000
v -13.174598 0.000000 14.943645
v -13.395996 0.040000 -1.747299
v -9.984155 0.040000 -9.984191
v -10.751847 0.040000 -9.137177
v -11.432821 0.040000 -8.218993
v -12.020519 0.040000 -7.238486
v -12.509280 0.040000 -6.205094
v -12.894396 0.040000 -5.128773
v -13.172162 0.040000 -4.019885
v -13.339901 0.040000 -2.889112
v -13.396002 0.040000 1.747296
v -13.339911 0.040000 2.889065
v -13.172177 0.040000 4.019838
v -12.894416 0.040000 5.128726
v -12.509303 0.040000 6.205049
v -12.020545 0.040000 7.238443
v -11.432852 0.040000 8.218952
v -10.751881 0.040000 9.137136
v -9.984193 0.040000 9.984154
v -9.327194 0.040000 -10.579623
v -0.000000 0.040000 0.000000
v -9.327195 0.040000 10.579621
v -7.571651 0.080000 -1.747299
v -5.865730 0.080000 -5.865746
v -6.249576 0.080000 -5.442238
v -6.590064 0.080000 -4.983147
v -6.883912 0.080000 -4.492893
v -7.128292 0.080000 -3.976197
v -7.320851 0.080000 -3.438036
v -7.459733 0.080000 -2.883592
v -7.543603 0.080000 -2.318205
v -7.571651 0.080000 1.747298
v -7.543605 0.080000 2.318183
v -7.459739 0.080000 2.883570
v -7.320858 0.080000 3.438014
v -7.128302 0.080000 3.976176
v -6.883923 0.080000 4.492873
v -6.590076 0.080000 4.983128
v -6.249591 0.080000 5.442221
v -5.865747 0.080000 5.865729
v -0.000000 0.080000 0.000000
v -5.479761 0.080000 -6.215567
v -5.479762 0.080000 6.215567
v 19.220295 0.000000 1.747298
v 14.102551 0.000000 14.102602
v 15.254085 0.000000 12.832082
v 16.275541 0.000000 11.454813
v 17.157087 0.000000 9.984055
v 17.890224 0.000000 8.433971
v 18.467899 0.000000 6.819493
v 18.884546 0.000000 5.156167
v 19.136150 0.000000 3.460011
v 19.220304 0.000000 -1.747295
v 19.136168 0.000000 -3.459944
v 18.884567 0.000000 -5.156100
v 18.467928 0.000000 -6.819427
v 17.890259 0.000000 -8.433908
v 17.157124 0.000000 -9.983993
v 16.275587 0.000000 -11.454752
v 15.254134 0.000000 -12.832026
v 14.102604 0.000000 -14.102548
v 13.174601 0.000000 14.943642
v -0.000000 0.000000 0.000000
v 13.174599 0.000000 -14.943646
v 13.395998 0.040000 1.747298
v 9.984158 0.040000 9.984190
v 10.751849 0.040000 9.137175
v 11.432824 0.040000 8.218992
v 12.020521 0.040000 7.238485
v 12.509282 0.040000 6.205093
v 12.894398 0.040000 5.128772
v 13.172164 0.040000 4.019884
v 13.339903 0.040000 2.889111
v 13.396004 0.040000 -1.747296
v 13.339913 0.040000 -2.889066
v 13.172180 0.040000 -4.019839
v 12.894417 0.040000 -5.128727
v 12.509303 0.040000 -6.205050
v 12.020545 0.040000 -7.238444
v 11.432852 0.040000 -8.218953
v 10.751881 0.040000 -9.137136
v 9.984193 0.040000 -9.984155
v 9.327197 0.040000 10.579622
v 0.000000 0.040000 -0.000000
v 9.327195 0.040000 -10.579622
v 7.571652 0.080000 1.747299
v 5.865731 0.080000 5.865745
v 6.249578 0.080000 5.442238
v 6.590065 0.080000 4.983146
v 6.883914 0.080000 4.492892
v 7.128294 0.080000 3.976197
v 7.320852 0.080000 3.438036
v 7.459734 0.080000 2.883592
v 7.543604 0.080000 2.318205
v 7.571652 0.080000 -1.747299
v 7.543606 0.080000 -2.318183
v 7.459740 0.080000 -2.883571
v 7.320859 0.080000 -3.438015
v 7.128302 0.080000 -3.976177
v 6.883924 0.080000 -4.492873
v 6.590076 0.080000 -4.983128
v 6.249591 0.080000 -5.442221
v 5.865747 0.080000 -5.865729
v 0.000000 0.080000 -0.000000
v 5.479762 0.080000 6.215566
v 5.479762 0.080000 -6.215568
vt 0.502521 0.034035
vt 0.502527 0.034354
vt 0.502461 0.858422
vt 0.502524 0.034135
vt 0.502530 0.034446
vt 0.502461 0.871261
vt 0.502526 0.033866
vt 0.502531 0.034136
vt 0.502461 0.858424
vt 0.502531 0.034611
vt 0.502391 0.034611
vt 0.502395 0.034354
vt 0.502401 0.034035
vt 0.502407 0.033752
vt 0.502414 0.033508
vt 0.502421 0.033305
vt 0.502429 0.033145
vt 0.502437 0.033029
vt 0.502445 0.032960
vt 0.502453 0.032936
vt 0.502469 0.032936
vt 0.502477 0.032960
vt 0.502485 0.033029
vt 0.502493 0.033145
vt 0.502500 0.033305
vt 0.502508 0.033508
vt 0.502515 0.033752
vt 0.502534 0.034711
vt 0.502391 0.034560
vt 0.502395 0.034303
vt 0.502401 0.034004
vt 0.502407 0.033740
vt 0.502414 0.033514
vt 0.502421 0.033327
vt 0.502428 0.033182
vt 0.502436 0.033079
vt 0.502444 0.033021
vt 0.502451 0.033007
vt 0.502475 0.033032
vt 0.502482 0.033062
vt 0.502490 0.033137
vt 0.502497 0.033255
vt 0.502505 0.033416
vt 0.502512 0.033617
vt 0.502518 0.033858
vt 0.502535 0.034407
vt 0.502387 0.034407
vt 0.502391 0.034136
vt 0.502396 0.033866
vt 0.502402 0.033626
vt 0.502407 0.033420
vt 0.502414 0.033248
vt 0.502420 0.033113
vt 0.502427 0.033015
vt 0.502433 0.032956
vt 0.502440 0.032936
vt 0.502482 0.032936
vt 0.502488 0.032956
vt 0.502495 0.033015
vt 0.502502 0.033113
vt 0.502508 0.033248
vt 0.502514 0.033420
vt 0.502520 0.033626
vt 0.502521 0.034035
vt 0.502527 0.034354
vt 0.502461 0.858422
vt 0.502524 0.034135
vt 0.502530 0.034446
vt 0.502461 0.871261
vt 0.502526 0.033866
vt 0.502531 0.034136
vt 0.502461 0.858424
vt 0.502531 0.034611
vt 0.502391 0.034611
vt 0.502395 0.034354
vt 0.502401 0.034035
vt 0.502407 0.033752
vt 0.502414 0.033508
vt 0.502421 0.033305
vt 0.502429 0.033145
vt 0.502437 0.033029
vt 0.502445 0.032960
vt 0.502453 0.032936
vt 0.502469 0.032936
vt 0.502477 0.032960
vt 0.502485 0.033029
vt 0.502493 0.033145
vt 0.502500 0.033305
vt 0.502508 0.033508
vt 0.502515 0.033752
vt 0.502534 0.034711
vt 0.502391 0.034560
vt 0.502395 0.034303
vt 0.502401 0.034004
vt 0.502407 0.033740
vt 0.502414 0.033514
vt 0.502421 0.033327
vt 0.502428 0.033182
vt 0.502436 0.033079
vt 0.502444 0.033021
vt 0.502451 0.033007
vt 0.502475 0.033032
vt 0.502482 0.033062
vt 0.502490 0.033137
vt 0.502497 0.033255
vt 0.502505 0.033416
vt 0.502512 0.033617
vt 0.502518 0.033858
vt 0.502535 0.034407
vt 0.502387 0.034407
vt 0.502391 0.034136
vt 0.502396 0.033866
vt 0.502402 0.033626
vt 0.502407 0.033420
vt 0.502414 0.033248
vt 0.502420 0.033113
vt 0.502427 0.033015
vt 0.502433 0.032956
vt 0.502440 0.032936
vt 0.502482 0.032936
vt 0.502488 0.032956
vt 0.502495 0.033015
vt 0.502502 0.033113
vt 0.502508 0.033248
vt 0.502514 0.033420
vt 0.502520 0.033626
vn 0.0000 1.0000 0.0000
g s3_Circle.002_None
s off
f 17/1/1 18/2/1 20/3/1
f 38/4/1 39/5/1 41/6/1
f 59/7/1 60/8/1 61/9/1
f 18/2/1 21/10/1 20/3/1
f 20/3/1 19/11/1 2/12/1
f 2/12/1 3/13/1 20/3/1
f 3/13/1 4/14/1 20/3/1
f 4/14/1 5/15/1 20/3/1
f 5/15/1 6/16/1 20/3/1
f 6/16/1 7/17/1 20/3/1
f 7/17/1 8/18/1 20/3/1
f 8/18/1 9/19/1 20/3/1
f 9/19/1 1/20/1 20/3/1
f 1/20/1 10/21/1 20/3/1
f 10/21/1 11/22/1 20/3/1
f 11/22/1 12/23/1 20/3/1
f 12/23/1 13/24/1 20/3/1
f 13/24/1 14/25/1 20/3/1
f 14/25/1 15/26/1 20/3/1
f 15/26/1 16/27/1 20/3/1
f 16/27/1 17/1/1 20/3/1
f 39/5/1 42/28/1 41/6/1
f 41/6/1 40/29/1 23/30/1
f 23/30/1 24/31/1 41/6/1
f 24/31/1 25/32/1 41/6/1
f 25/32/1 26/33/1 41/6/1
f 26/33/1 27/34/1 41/6/1
f 27/34/1 28/35/1 41/6/1
f 28/35/1 29/36/1 41/6/1
f 29/36/1 30/37/1 41/6/1
f 30/37/1 22/38/1 41/6/1
f 22/38/1 31/39/1 41/6/1
f 31/39/1 32/40/1 41/6/1
f 32/40/1 33/41/1 41/6/1
f 33/41/1 34/42/1 41/6/1
f 34/42/1 35/43/1 41/6/1
f 35/43/1 36/44/1 41/6/1
f 36/44/1 37/45/1 41/6/1
f 37/45/1 38/4/1 41/6/1
f 60/8/1 63/46/1 61/9/1
f 61/9/1 62/47/1 44/48/1
f 44/48/1 45/49/1 61/9/1
f 45/49/1 46/50/1 61/9/1
f 46/50/1 47/51/1 61/9/1
f 47/51/1 48/52/1 61/9/1
f 48/52/1 49/53/1 61/9/1
f 49/53/1 50/54/1 61/9/1
f 50/54/1 51/55/1 61/9/1
f 51/55/1 43/56/1 61/9/1
f 43/56/1 52/57/1 61/9/1
f 52/57/1 53/58/1 61/9/1
f 53/58/1 54/59/1 61/9/1
f 54/59/1 55/60/1 61/9/1
f 55/60/1 56/61/1 61/9/1
f 56/61/1 57/62/1 61/9/1
f 57/62/1 58/63/1 61/9/1
f 58/63/1 59/7/1 61/9/1
f 80/64/1 81/65/1 83/66/1
f 101/67/1 102/68/1 104/69/1
f 122/70/1 123/71/1 124/72/1
f 81/65/1 84/73/1 83/66/1
f 83/66/1 82/74/1 65/75/1
f 65/75/1 66/76/1 83/66/1
f 66/76/1 67/77/1 83/66/1
f 67/77/1 68/78/1 83/66/1
f 68/78/1 69/79/1 83/66/1
f 69/79/1 70/80/1 83/66/1
f 70/80/1 71/81/1 83/66/1
f 71/81/1 72/82/1 83/66/1
f 72/82/1 64/83/1 83/66/1
f 64/83/1 73/84/1 83/66/1
f 73/84/1 74/85/1 83/66/1
f 74/85/1 75/86/1 83/66/1
f 75/86/1 76/87/1 83/66/1
f 76/87/1 77/88/1 83/66/1
f 77/88/1 78/89/1 83/66/1
f 78/89/1 79/90/1 83/66/1
f 79/90/1 80/64/1 83/66/1
f 102/68/1 105/91/1 104/69/1
f 104/69/1 103/92/1 86/93/1
f 86/93/1 87/94/1 104/69/1
f 87/94/1 88/95/1 104/69/1
f 88/95/1 89/96/1 104/69/1
f 89/96/1 90/97/1 104/69/1
f 90/97/1 91/98/1 104/69/1
f 91/98/1 92/99/1 104/69/1
f 92/99/1 93/100/1 104/69/1
f 93/100/1 85/101/1 104/69/1
f 85/101/1 94/102/1 104/69/1
f 94/102/1 95/103/1 104/69/1
f 95/103/1 96/104/1 104/69/1
f 96/104/1 97/105/1 104/69/1
f 97/105/1 98/106/1 104/69/1
f 98/106/1 99/107/1 104/69/1
f 99/107/1 100/108/1 104/69/1
f 100/108/1 101/67/1 104/69/1
f 123/71/1 126/109/1 124/72/1
f 124/72/1 125/110/1 107/111/1
f 107/111/1 108/112/1 124/72/1
f 108/112/1 109/113/1 124/72/1
f 109/113/1 110/114/1 124/72/1
f 110/114/1 111/115/1 124/72/1
f 111/115/1 112/116/1 124/72/1
f 112/116/1 113/117/1 124/72/1
f 113/117/1 114/118/1 124/72/1
f 114/118/1 106/119/1 124/72/1
f 106/119/1 115/120/1 124/72/1
f 115/120/1 116/121/1 124/72/1
f 116/121/1 117/122/1 124/72/1
f 117/122/1 118/123/1 124/72/1
f 118/123/1 119/124/1 124/72/1
f 119/124/1 120/125/1 124/72/1
f 120/125/1 121/126/1 124/72/1
f 121/126/1 122/70/1 124/72/1
