# Blender v2.82 (sub 7) OBJ File: 'smallbase.blend'
# www.blender.org
o med_range3_Circle.025
v 1.747300 0.000000 -19.086399
v 19.086401 0.000000 -1.747317
v 18.753229 0.000000 -5.130009
v 17.766531 0.000000 -8.382704
v 16.164223 0.000000 -11.380405
v 14.007879 0.000000 -14.007912
v 11.380368 0.000000 -16.164248
v 8.382663 0.000000 -17.766550
v 5.129965 0.000000 -18.753237
v 1.747306 0.000000 19.086401
v 5.129997 0.000000 18.753231
v 8.382693 0.000000 17.766535
v 11.380396 0.000000 16.164230
v 14.007902 0.000000 14.007887
v 16.164242 0.000000 11.380379
v 17.766546 0.000000 8.382673
v 18.753237 0.000000 5.129976
v 19.086401 0.000000 1.747283
v -19.086401 0.000000 1.747299
v -18.753233 0.000000 5.129989
v -17.766539 0.000000 8.382685
v -16.164236 0.000000 11.380386
v -14.007895 0.000000 14.007895
v -11.380387 0.000000 16.164236
v -8.382685 0.000000 17.766542
v -5.129987 0.000000 18.753235
v -1.747294 0.000000 19.086401
v -1.747300 0.000000 -19.086399
v -5.129991 0.000000 -18.753233
v -8.382687 0.000000 -17.766539
v -11.380389 0.000000 -16.164234
v -14.007895 0.000000 -14.007895
v -16.164236 0.000000 -11.380388
v -17.766539 0.000000 -8.382687
v -18.753233 0.000000 -5.129991
v -19.086401 0.000000 -1.747301
v 0.000000 0.000000 0.000000
vt 0.499998 0.034912
vt 0.499999 0.034912
vt 0.500000 0.886343
vt 0.499994 0.034912
vt 0.499994 0.034912
vt 0.500002 0.034912
vt 0.500001 0.034912
vt 0.500006 0.034912
vt 0.500005 0.034912
vt 0.500001 0.034912
vt 0.500002 0.034912
vt 0.500003 0.034912
vt 0.500004 0.034912
vt 0.500005 0.034912
vt 0.500005 0.034912
vt 0.500006 0.034912
vt 0.499997 0.034912
vt 0.499994 0.034912
vt 0.499994 0.034912
vt 0.499994 0.034912
vt 0.499995 0.034912
vt 0.499995 0.034912
vt 0.499996 0.034912
vt 0.499996 0.034912
vt 0.499995 0.034912
vt 0.499995 0.034912
vt 0.499994 0.034912
vt 0.499999 0.034912
vt 0.499998 0.034912
vt 0.499997 0.034912
vt 0.500005 0.034912
vt 0.500004 0.034912
vt 0.500003 0.034912
vt 0.500006 0.034912
vt 0.500006 0.034912
vt 0.500006 0.034912
vt 0.500006 0.034912
vn 0.0000 1.0000 0.0000
s off
f 17/1/1 18/2/1 37/3/1
f 26/4/1 27/5/1 37/3/1
f 35/6/1 36/7/1 37/3/1
f 30/8/1 31/9/1 37/3/1
f 18/2/1 2/10/1 37/3/1
f 2/10/1 3/11/1 37/3/1
f 3/11/1 4/12/1 37/3/1
f 4/12/1 5/13/1 37/3/1
f 5/13/1 6/14/1 37/3/1
f 6/14/1 7/15/1 37/3/1
f 7/15/1 8/16/1 37/3/1
f 37/3/1 16/17/1 17/1/1
f 27/5/1 10/18/1 37/3/1
f 10/18/1 11/19/1 37/3/1
f 11/19/1 12/20/1 37/3/1
f 12/20/1 13/21/1 37/3/1
f 13/21/1 14/22/1 37/3/1
f 14/22/1 15/23/1 37/3/1
f 15/23/1 16/17/1 37/3/1
f 37/3/1 22/24/1 23/25/1
f 23/25/1 24/26/1 37/3/1
f 24/26/1 25/27/1 37/3/1
f 25/27/1 26/4/1 37/3/1
f 36/7/1 19/28/1 37/3/1
f 19/28/1 20/29/1 37/3/1
f 20/29/1 21/30/1 37/3/1
f 21/30/1 22/24/1 37/3/1
f 37/3/1 31/9/1 32/31/1
f 32/31/1 33/32/1 37/3/1
f 33/32/1 34/33/1 37/3/1
f 34/33/1 35/6/1 37/3/1
f 37/3/1 8/16/1 9/34/1
f 9/34/1 1/35/1 37/3/1
f 1/35/1 28/36/1 37/3/1
f 28/36/1 29/37/1 37/3/1
f 29/37/1 30/8/1 37/3/1
