# Blender v2.82 (sub 7) OBJ File: 'smallbase.blend'
# www.blender.org
mtllib small_front_123.mtl
v 1.155940 0.080000 -6.935640
v 4.553144 0.080000 -5.831828
v 4.218696 0.080000 -6.057415
v 3.869325 0.080000 -6.259122
v 3.506735 0.080000 -6.435968
v 3.132692 0.080000 -6.587089
v 2.749018 0.080000 -6.711751
v 2.357583 0.080000 -6.809345
v 1.960294 0.080000 -6.879395
v 1.559086 0.080000 -6.921563
v -1.357664 0.080000 -6.932123
v -1.760099 0.080000 -6.903976
v -2.159591 0.080000 -6.847830
v -2.554193 0.080000 -6.763954
v -2.941982 0.080000 -6.652756
v -3.321070 0.080000 -6.514778
v -3.689610 0.080000 -6.350692
v -4.045806 0.080000 -6.161297
v -4.387923 0.080000 -5.947517
v -4.714294 0.080000 -5.710393
v -1.155940 0.080000 -6.935640
v 0.000000 0.080000 0.000000
v -4.821034 0.080000 -5.620827
v 4.821910 0.080000 -5.621847
v -8.586145 0.040000 10.010982
v -1.559389 0.040000 -12.708306
v -2.364259 0.040000 -12.652013
v -3.163242 0.040000 -12.539721
v -3.952445 0.040000 -12.371967
v -4.728024 0.040000 -12.149571
v -5.486201 0.040000 -11.873615
v -6.223280 0.040000 -11.545444
v -6.935673 0.040000 -11.166656
v -7.619905 0.040000 -10.739096
v -8.272649 0.040000 -10.264847
v -1.155941 0.040000 -12.715340
v 1.155940 0.040000 -12.715338
v 8.586146 0.040000 -10.010982
v 7.950348 0.040000 -10.507716
v 7.281452 0.040000 -10.958891
v 6.582710 0.040000 -11.362305
v 5.857529 0.040000 -11.715995
v 5.109443 0.040000 -12.018238
v 4.342096 0.040000 -12.267561
v 3.559226 0.040000 -12.462749
v 2.764648 0.040000 -12.602850
v 1.962232 0.040000 -12.687185
v 0.000000 0.040000 0.000000
v -8.581776 0.040000 -10.005455
v 8.586352 0.040000 -10.010798
v 1.155940 0.000000 -18.495041
v 12.301250 0.000000 -14.438501
v 11.347555 0.000000 -15.183606
v 10.344208 0.000000 -15.860365
v 9.296095 0.000000 -16.465488
v 8.208325 0.000000 -16.996023
v 7.086195 0.000000 -17.449387
v 5.935174 0.000000 -17.823372
v 4.760870 0.000000 -18.116154
v 3.569002 0.000000 -18.326305
v 2.365379 0.000000 -18.452808
v -1.761113 0.000000 -18.484489
v -2.968418 0.000000 -18.400051
v -4.166893 0.000000 -18.231613
v -5.350697 0.000000 -17.979980
v -6.514067 0.000000 -17.646389
v -7.651332 0.000000 -17.232452
v -8.756950 0.000000 -16.740196
v -9.825539 0.000000 -16.172012
v -10.851890 0.000000 -15.530672
v -11.831004 0.000000 -14.819299
v -1.155941 0.000000 -18.495041
v 0.000000 0.000000 0.000000
v -12.342514 0.000000 -14.390088
v 12.347962 0.000000 -14.396442
vt 0.000000 0.000000
vt 0.000000 0.000000
vt 0.000000 0.000000
vt 0.000000 0.000000
vt 0.000000 0.000000
vt 0.000000 0.000000
vt 0.000000 0.000000
vt 0.000000 0.000000
vt 0.000000 0.000000
vt 0.000000 0.000000
vt 0.000000 0.000000
vt 0.000000 0.000000
vt 0.000000 0.000000
vt 0.000000 0.000000
vt 0.000000 0.000000
vt 0.000000 0.000000
vt 0.000000 0.000000
vt 0.000000 0.000000
vt 0.000000 0.000000
vt 0.000000 0.000000
vt 0.000000 0.000000
vt 0.000000 0.000000
vt 0.000000 0.000000
vt 0.000000 0.000000
vt 0.000000 0.000000
vt 0.000000 0.000000
vt 0.000000 0.000000
vt 0.000000 0.000000
vt 0.000000 0.000000
vt 0.000000 0.000000
vt 0.000000 0.000000
vt 0.000000 0.000000
vt 0.000000 0.000000
vt 0.000000 0.000000
vt 0.000000 0.000000
vt 0.000000 0.000000
vt 0.000000 0.000000
vt 0.000000 0.000000
vt 0.000000 0.000000
vt 0.000000 0.000000
vt 0.000000 0.000000
vt 0.000000 0.000000
vt 0.000000 0.000000
vt 0.000000 0.000000
vt 0.000000 0.000000
vt 0.000000 0.000000
vt 0.000000 0.000000
vt 0.000000 0.000000
vt 0.000000 0.000000
vt 0.000000 0.000000
vt 0.000000 0.000000
vt 0.000000 0.000000
vt 0.000000 0.000000
vt 0.000000 0.000000
vt 0.000000 0.000000
vt 0.000000 0.000000
vt 0.000000 0.000000
vt 0.000000 0.000000
vt 0.000000 0.000000
vt 0.000000 0.000000
vt 0.000000 0.000000
vt 0.000000 0.000000
vt 0.000000 0.000000
vt 0.000000 0.000000
vt 0.000000 0.000000
vt 0.000000 0.000000
vt 0.000000 0.000000
vt 0.000000 0.000000
vt 0.000000 0.000000
vt 0.000000 0.000000
vt 0.000000 0.000000
vt 0.000000 0.000000
vt 0.000000 0.000000
vt 0.000000 0.000000
vn 0.0000 1.0000 0.0000
usemtl None
s off
f 19/1/1 20/2/1 22/3/1
f 34/4/1 35/5/1 48/6/1
f 71/7/1 74/8/1 73/9/1
f 20/2/1 23/10/1 22/3/1
f 22/3/1 24/11/1 2/12/1
f 2/12/1 3/13/1 22/3/1
f 3/13/1 4/14/1 22/3/1
f 4/14/1 5/15/1 22/3/1
f 5/15/1 6/16/1 22/3/1
f 6/16/1 7/17/1 22/3/1
f 7/17/1 8/18/1 22/3/1
f 8/18/1 9/19/1 22/3/1
f 9/19/1 10/20/1 22/3/1
f 10/20/1 1/21/1 22/3/1
f 1/21/1 21/22/1 22/3/1
f 21/22/1 11/23/1 22/3/1
f 11/23/1 12/24/1 22/3/1
f 12/24/1 13/25/1 22/3/1
f 13/25/1 14/26/1 22/3/1
f 14/26/1 15/27/1 22/3/1
f 15/27/1 16/28/1 22/3/1
f 16/28/1 17/29/1 22/3/1
f 17/29/1 18/30/1 22/3/1
f 18/30/1 19/1/1 22/3/1
f 35/5/1 49/31/1 48/6/1
f 48/6/1 50/32/1 38/33/1
f 38/33/1 39/34/1 48/6/1
f 39/34/1 40/35/1 48/6/1
f 40/35/1 41/36/1 48/6/1
f 41/36/1 42/37/1 48/6/1
f 42/37/1 43/38/1 48/6/1
f 43/38/1 44/39/1 48/6/1
f 44/39/1 45/40/1 48/6/1
f 45/40/1 46/41/1 48/6/1
f 46/41/1 47/42/1 48/6/1
f 47/42/1 37/43/1 48/6/1
f 37/43/1 36/44/1 48/6/1
f 36/44/1 26/45/1 48/6/1
f 26/45/1 27/46/1 48/6/1
f 27/46/1 28/47/1 48/6/1
f 28/47/1 29/48/1 48/6/1
f 29/48/1 30/49/1 48/6/1
f 30/49/1 31/50/1 48/6/1
f 31/50/1 32/51/1 48/6/1
f 32/51/1 33/52/1 48/6/1
f 33/52/1 34/4/1 48/6/1
f 73/9/1 75/53/1 52/54/1
f 52/54/1 53/55/1 73/9/1
f 53/55/1 54/56/1 73/9/1
f 54/56/1 55/57/1 73/9/1
f 55/57/1 56/58/1 73/9/1
f 56/58/1 57/59/1 73/9/1
f 57/59/1 58/60/1 73/9/1
f 58/60/1 59/61/1 73/9/1
f 59/61/1 60/62/1 73/9/1
f 60/62/1 61/63/1 73/9/1
f 61/63/1 51/64/1 73/9/1
f 51/64/1 72/65/1 73/9/1
f 72/65/1 62/66/1 73/9/1
f 62/66/1 63/67/1 73/9/1
f 63/67/1 64/68/1 73/9/1
f 64/68/1 65/69/1 73/9/1
f 65/69/1 66/70/1 73/9/1
f 66/70/1 67/71/1 73/9/1
f 67/71/1 68/72/1 73/9/1
f 68/72/1 69/73/1 73/9/1
f 69/73/1 70/74/1 73/9/1
f 70/74/1 71/7/1 73/9/1
