# Blender v2.82 (sub 7) OBJ File: 'smallbase.blend'
# www.blender.org
mtllib small_back.mtl
o back_Circle.002
v -18.484489 0.000000 1.761114
v -18.400051 0.000000 2.968419
v -18.231613 0.000000 4.166893
v -17.979980 0.000000 5.350698
v -17.646389 0.000000 6.514067
v -17.232452 0.000000 7.651332
v -16.740196 0.000000 8.756952
v -16.172012 0.000000 9.825540
v -15.530672 0.000000 10.851890
v -14.819300 0.000000 11.831004
v -14.041361 0.000000 12.758108
v -13.200645 0.000000 13.628689
v -18.495041 0.000000 1.155942
v -18.495041 0.000000 -1.155939
v -12.758107 0.000000 -14.041362
v -13.628688 0.000000 -13.200646
v -14.438501 0.000000 -12.301250
v -15.183606 0.000000 -11.347554
v -15.860367 0.000000 -10.344208
v -16.465488 0.000000 -9.296095
v -16.996025 0.000000 -8.208324
v -17.449387 0.000000 -7.086195
v -17.823372 0.000000 -5.935174
v -18.116154 0.000000 -4.760870
v -18.326305 0.000000 -3.569002
v -18.452808 0.000000 -2.365378
v -6.935639 0.080000 -1.155940
v -5.023329 0.080000 -5.451080
v -5.313523 0.080000 -5.170842
v -5.583460 0.080000 -4.871043
v -5.831828 0.080000 -4.553144
v -6.057415 0.080000 -4.218695
v -6.259123 0.080000 -3.869324
v -6.435968 0.080000 -3.506734
v -6.587089 0.080000 -3.132692
v -6.711751 0.080000 -2.749018
v -6.809345 0.080000 -2.357583
v -6.879395 0.080000 -1.960294
v -6.921562 0.080000 -1.559086
v -6.932123 0.080000 1.357665
v -6.903976 0.080000 1.760100
v -6.847830 0.080000 2.159591
v -6.763953 0.080000 2.554193
v -6.652756 0.080000 2.941983
v -6.514777 0.080000 3.321070
v -6.350692 0.080000 3.689611
v -6.161297 0.080000 4.045807
v -5.947517 0.080000 4.387923
v -5.710392 0.080000 4.714294
v -5.451080 0.080000 5.023330
v -5.170842 0.080000 5.313523
v -4.871042 0.080000 5.583460
v -6.935639 0.080000 1.155941
v -12.708306 0.040000 1.559389
v -12.652013 0.040000 2.364259
v -12.539721 0.040000 3.163242
v -12.371967 0.040000 3.952446
v -12.149571 0.040000 4.728024
v -11.873615 0.040000 5.486201
v -11.545444 0.040000 6.223281
v -11.166654 0.040000 6.935673
v -10.739094 0.040000 7.619906
v -10.264846 0.040000 8.272650
v -9.746220 0.040000 8.890718
v -9.185742 0.040000 9.471106
v -12.715340 0.040000 1.155941
v -12.715340 0.040000 -1.155940
v -8.890718 0.040000 -9.746221
v -9.471105 0.040000 -9.185743
v -10.010981 0.040000 -8.586146
v -10.507717 0.040000 -7.950349
v -10.958891 0.040000 -7.281451
v -11.362306 0.040000 -6.582709
v -11.715997 0.040000 -5.857529
v -12.018239 0.040000 -5.109443
v -12.267562 0.040000 -4.342096
v -12.462749 0.040000 -3.559226
v -12.602850 0.040000 -2.764648
v -12.687185 0.040000 -1.962232
v 0.000000 0.000000 0.000000
v 0.000000 0.040000 0.000000
v 0.000000 0.080000 0.000000
v -9.072909 0.000000 10.578071
v -11.623727 0.000000 13.552060
v -12.239525 0.000000 14.270018
v -12.346532 0.000000 14.394774
v -12.347962 0.000000 14.396442
v -8.586350 0.040000 10.010797
v -4.821910 0.080000 5.621847
v -8.613802 0.000000 -10.042796
v -9.072910 0.000000 -10.578069
v -11.453051 0.000000 -13.353070
v -11.530542 0.000000 -13.443414
v -11.680738 0.000000 -13.618528
v -11.967985 0.000000 -13.953428
v -12.247726 0.000000 -14.279578
v -12.287547 0.000000 -14.326004
v -12.327337 0.000000 -14.372395
v -12.342513 0.000000 -14.390089
v -4.821035 0.080000 -5.620825
v -8.581775 0.040000 -10.005457
vt 0.000000 0.000000
vt 0.000000 0.000000
vt 0.000000 0.000000
vt 0.000000 0.000000
vt 0.000000 0.000000
vt 0.000000 0.000000
vt 0.000000 0.000000
vt 0.000000 0.000000
vt 0.000000 0.000000
vt 0.000000 0.000000
vt 0.000000 0.000000
vt 0.000000 0.000000
vt 0.000000 0.000000
vt 0.000000 0.000000
vt 0.000000 0.000000
vt 0.000000 0.000000
vt 0.000000 0.000000
vt 0.000000 0.000000
vt 0.000000 0.000000
vt 0.000000 0.000000
vt 0.000000 0.000000
vt 0.000000 0.000000
vt 0.000000 0.000000
vt 0.000000 0.000000
vt 0.000000 0.000000
vt 0.000000 0.000000
vt 0.000000 0.000000
vt 0.000000 0.000000
vt 0.000000 0.000000
vt 0.000000 0.000000
vt 0.000000 0.000000
vt 0.000000 0.000000
vt 0.000000 0.000000
vt 0.000000 0.000000
vt 0.000000 0.000000
vt 0.000000 0.000000
vt 0.000000 0.000000
vt 0.000000 0.000000
vt 0.000000 0.000000
vt 0.000000 0.000000
vt 0.000000 0.000000
vt 0.000000 0.000000
vt 0.000000 0.000000
vt 0.000000 0.000000
vt 0.000000 0.000000
vt 0.000000 0.000000
vt 0.000000 0.000000
vt 0.000000 0.000000
vt 0.000000 0.000000
vt 0.000000 0.000000
vt 0.000000 0.000000
vt 0.000000 0.000000
vt 0.000000 0.000000
vt 0.000000 0.000000
vt 0.000000 0.000000
vt 0.000000 0.000000
vt 0.000000 0.000000
vt 0.000000 0.000000
vt 0.000000 0.000000
vt 0.000000 0.000000
vt 0.000000 0.000000
vt 0.000000 0.000000
vt 0.000000 0.000000
vt 0.000000 0.000000
vt 0.000000 0.000000
vt 0.000000 0.000000
vt 0.000000 0.000000
vt 0.000000 0.000000
vt 0.000000 0.000000
vt 0.000000 0.000000
vt 0.000000 0.000000
vt 0.000000 0.000000
vt 0.000000 0.000000
vt 0.000000 0.000000
vt 0.000000 0.000000
vt 0.000000 0.000000
vt 0.000000 0.000000
vt 0.000000 0.000000
vt 0.000000 0.000000
vt 0.000000 0.000000
vt 0.000000 0.000000
vt 0.000000 0.000000
vt 0.000000 0.000000
vt 0.000000 0.000000
vt 0.000000 0.000000
vt 0.000000 0.000000
vt 0.000000 0.000000
vt 0.000000 0.000000
vt 0.000000 0.000000
vt 0.000000 0.000000
vt 0.000000 0.000000
vt 0.000000 0.000000
vt 0.000000 0.000000
vt 0.000000 0.000000
vt 0.000000 0.000000
vt 0.000000 0.000000
vt 0.000000 0.000000
vt 0.000000 0.000000
vt 0.000000 0.000000
vt 0.000000 0.000000
vt 0.000000 0.000000
vn 0.0000 1.0000 0.0000
usemtl None
s off
f 13/1/1 80/2/1 90/3/1
f 1/4/1 2/5/1 13/1/1
f 2/5/1 3/6/1 13/1/1
f 3/6/1 4/7/1 7/8/1
f 4/7/1 5/9/1 7/8/1
f 5/9/1 6/10/1 7/8/1
f 7/8/1 8/11/1 9/12/1
f 9/12/1 10/13/1 11/14/1
f 12/15/1 86/16/1 11/14/1
f 16/17/1 17/18/1 20/19/1
f 17/18/1 18/20/1 20/19/1
f 18/20/1 19/21/1 20/19/1
f 20/19/1 21/22/1 22/23/1
f 22/23/1 23/24/1 24/25/1
f 24/25/1 25/26/1 26/27/1
f 26/27/1 92/28/1 93/29/1
f 14/30/1 90/3/1 91/31/1
f 7/8/1 9/12/1 11/14/1
f 11/14/1 86/16/1 85/32/1
f 20/19/1 22/23/1 24/25/1
f 24/25/1 93/29/1 94/33/1
f 13/1/1 3/6/1 7/8/1
f 7/8/1 11/14/1 13/1/1
f 11/14/1 84/34/1 13/1/1
f 20/19/1 94/33/1 95/35/1
f 13/1/1 83/36/1 80/2/1
f 66/37/1 54/38/1 81/39/1
f 84/34/1 83/36/1 13/1/1
f 97/40/1 98/41/1 16/17/1
f 95/35/1 16/17/1 20/19/1
f 96/42/1 97/40/1 16/17/1
f 50/43/1 51/44/1 82/45/1
f 91/31/1 92/28/1 14/30/1
f 98/41/1 15/46/1 16/17/1
f 12/15/1 87/47/1 86/16/1
f 26/27/1 14/30/1 92/28/1
f 14/30/1 13/1/1 90/3/1
f 24/25/1 26/27/1 93/29/1
f 11/14/1 85/32/1 84/34/1
f 20/19/1 24/25/1 94/33/1
f 54/38/1 55/48/1 81/39/1
f 55/48/1 56/49/1 81/39/1
f 56/49/1 57/50/1 81/39/1
f 57/50/1 58/51/1 81/39/1
f 58/51/1 59/52/1 81/39/1
f 59/52/1 60/53/1 81/39/1
f 60/53/1 61/54/1 81/39/1
f 61/54/1 62/55/1 81/39/1
f 62/55/1 63/56/1 81/39/1
f 63/56/1 64/57/1 81/39/1
f 64/57/1 65/58/1 81/39/1
f 65/58/1 88/59/1 81/39/1
f 81/39/1 101/60/1 68/61/1
f 68/61/1 69/62/1 81/39/1
f 69/62/1 70/63/1 81/39/1
f 70/63/1 71/64/1 81/39/1
f 71/64/1 72/65/1 81/39/1
f 72/65/1 73/66/1 81/39/1
f 73/66/1 74/67/1 81/39/1
f 74/67/1 75/68/1 81/39/1
f 75/68/1 76/69/1 81/39/1
f 76/69/1 77/70/1 81/39/1
f 77/70/1 78/71/1 81/39/1
f 78/71/1 79/72/1 81/39/1
f 79/72/1 67/73/1 81/39/1
f 67/73/1 66/37/1 81/39/1
f 95/35/1 96/42/1 16/17/1
f 52/74/1 89/75/1 51/44/1
f 89/75/1 82/45/1 51/44/1
f 82/45/1 100/76/1 28/77/1
f 28/77/1 29/78/1 82/45/1
f 29/78/1 30/79/1 82/45/1
f 30/79/1 31/80/1 82/45/1
f 31/80/1 32/81/1 82/45/1
f 32/81/1 33/82/1 82/45/1
f 33/82/1 34/83/1 82/45/1
f 34/83/1 35/84/1 82/45/1
f 35/84/1 36/85/1 82/45/1
f 36/85/1 37/86/1 82/45/1
f 37/86/1 38/87/1 82/45/1
f 38/87/1 39/88/1 82/45/1
f 39/88/1 27/89/1 82/45/1
f 27/89/1 53/90/1 82/45/1
f 53/90/1 40/91/1 82/45/1
f 40/91/1 41/92/1 82/45/1
f 41/92/1 42/93/1 82/45/1
f 42/93/1 43/94/1 82/45/1
f 43/94/1 44/95/1 82/45/1
f 44/95/1 45/96/1 82/45/1
f 45/96/1 46/97/1 82/45/1
f 46/97/1 47/98/1 82/45/1
f 47/98/1 48/99/1 82/45/1
f 48/99/1 49/100/1 82/45/1
f 49/100/1 50/43/1 82/45/1
f 98/41/1 99/101/1 15/46/1
