# Blender v2.82 (sub 7) OBJ File: 'smallbase.blend'
# www.blender.org
o fullback_Circle.015
v -1.155943 0.000000 18.495043
v -18.484491 0.000000 1.761113
v -18.400051 0.000000 2.968418
v -18.231613 0.000000 4.166893
v -17.979982 0.000000 5.350698
v -17.646389 0.000000 6.514067
v -17.232454 0.000000 7.651332
v -16.740198 0.000000 8.756950
v -16.172016 0.000000 9.825540
v -15.530676 0.000000 10.851890
v -14.819302 0.000000 11.831004
v -14.041363 0.000000 12.758108
v -13.200647 0.000000 13.628689
v -12.301252 0.000000 14.438502
v -11.347555 0.000000 15.183606
v -10.344210 0.000000 15.860366
v -9.296097 0.000000 16.465490
v -8.208326 0.000000 16.996025
v -7.086198 0.000000 17.449390
v -5.935177 0.000000 17.823376
v -4.760873 0.000000 18.116158
v -3.569005 0.000000 18.326309
v -2.365381 0.000000 18.452812
v -18.495041 0.000000 1.155941
v 18.495039 0.000000 1.155943
v 1.761110 0.000000 18.484493
v 2.968415 0.000000 18.400053
v 4.166890 0.000000 18.231615
v 5.350695 0.000000 17.979984
v 6.514064 0.000000 17.646391
v 7.651329 0.000000 17.232456
v 8.756948 0.000000 16.740200
v 9.825537 0.000000 16.172016
v 10.851887 0.000000 15.530675
v 11.831001 0.000000 14.819303
v 12.758106 0.000000 14.041365
v 13.628687 0.000000 13.200649
v 14.438499 0.000000 12.301253
v 15.183605 0.000000 11.347557
v 15.860365 0.000000 10.344211
v 16.465488 0.000000 9.296098
v 16.996023 0.000000 8.208327
v 17.449387 0.000000 7.086199
v 17.823372 0.000000 5.935178
v 18.116154 0.000000 4.760874
v 18.326305 0.000000 3.569006
v 18.452808 0.000000 2.365382
v 1.155938 0.000000 18.495043
v -0.000008 0.000000 0.000002
v -18.495041 0.000000 0.000000
v 18.495039 0.000000 0.000004
v 12.715338 0.040000 1.155941
v 1.559387 0.040000 12.708307
v 2.364257 0.040000 12.652014
v 3.163240 0.040000 12.539721
v 3.952443 0.040000 12.371968
v 4.728022 0.040000 12.149572
v 5.486199 0.040000 11.873616
v 6.223279 0.040000 11.545444
v 6.935670 0.040000 11.166656
v 7.619904 0.040000 10.739096
v 8.272646 0.040000 10.264848
v 8.890717 0.040000 9.746222
v 9.471104 0.040000 9.185744
v 10.010979 0.040000 8.586147
v 10.507715 0.040000 7.950350
v 10.958889 0.040000 7.281452
v 11.362305 0.040000 6.582711
v 11.715994 0.040000 5.857531
v 12.018236 0.040000 5.109445
v 12.267561 0.040000 4.342097
v 12.462748 0.040000 3.559228
v 12.602850 0.040000 2.764649
v 12.687185 0.040000 1.962233
v 1.155939 0.040000 12.715341
v -1.155942 0.040000 12.715339
v -12.708307 0.040000 1.559388
v -12.652014 0.040000 2.364257
v -12.539722 0.040000 3.163240
v -12.371969 0.040000 3.952444
v -12.149572 0.040000 4.728024
v -11.873617 0.040000 5.486199
v -11.545446 0.040000 6.223279
v -11.166656 0.040000 6.935672
v -10.739096 0.040000 7.619905
v -10.264849 0.040000 8.272648
v -9.746222 0.040000 8.890718
v -9.185745 0.040000 9.471105
v -8.586149 0.040000 10.010981
v -7.950350 0.040000 10.507715
v -7.281454 0.040000 10.958890
v -6.582712 0.040000 11.362304
v -5.857532 0.040000 11.715995
v -5.109445 0.040000 12.018239
v -4.342098 0.040000 12.267562
v -3.559228 0.040000 12.462750
v -2.764650 0.040000 12.602851
v -1.962234 0.040000 12.687186
v -12.715342 0.040000 1.155940
v -12.715340 0.040000 -0.000001
v 12.715338 0.040000 0.000001
v -0.000000 0.040000 0.000000
v 12.715338 0.040000 0.000001
v -1.155942 0.080000 6.935640
v -6.932137 0.080000 1.357665
v -6.903990 0.080000 1.760100
v -6.847844 0.080000 2.159591
v -6.763968 0.080000 2.554193
v -6.652769 0.080000 2.941983
v -6.514791 0.080000 3.321071
v -6.350704 0.080000 3.689611
v -6.161310 0.080000 4.045807
v -5.947529 0.080000 4.387923
v -5.710404 0.080000 4.714294
v -5.451091 0.080000 5.023330
v -5.170852 0.080000 5.313523
v -4.871053 0.080000 5.583461
v -4.553154 0.080000 5.831829
v -4.218704 0.080000 6.057416
v -3.869332 0.080000 6.259123
v -3.506741 0.080000 6.435968
v -3.132698 0.080000 6.587090
v -2.749023 0.080000 6.711752
v -2.357587 0.080000 6.809345
v -1.960297 0.080000 6.879395
v -1.559089 0.080000 6.921563
v -6.935654 0.080000 1.155941
v 6.935654 0.080000 1.155939
v 1.357668 0.080000 6.932123
v 1.760104 0.080000 6.903976
v 2.159596 0.080000 6.847831
v 2.554199 0.080000 6.763954
v 2.941989 0.080000 6.652756
v 3.321078 0.080000 6.514777
v 3.689619 0.080000 6.350692
v 4.045815 0.080000 6.161298
v 4.387932 0.080000 5.947517
v 4.714304 0.080000 5.710393
v 5.023340 0.080000 5.451079
v 5.313534 0.080000 5.170841
v 5.583472 0.080000 4.871043
v 5.831841 0.080000 4.553144
v 6.057427 0.080000 4.218696
v 6.259137 0.080000 3.869324
v 6.435981 0.080000 3.506734
v 6.587103 0.080000 3.132691
v 6.711765 0.080000 2.749017
v 6.809359 0.080000 2.357583
v 6.879409 0.080000 1.960294
v 6.921577 0.080000 1.559086
v 1.155944 0.080000 6.935640
v -6.935654 0.080000 0.000001
v 6.935654 0.080000 -0.000001
v -6.935654 0.080000 0.000001
v 6.935654 0.080000 -0.000001
v -6.935654 0.080000 0.000001
v 6.935654 0.080000 -0.000001
v 0.000000 0.080000 0.000000
vt 0.497483 0.015610
vt 0.497483 0.015610
vt 0.500417 0.814401
vt 0.497483 0.015612
vt 0.497483 0.015611
vt 0.497483 0.015602
vt 0.497483 0.015602
vt 0.497483 0.015610
vt 0.497483 0.015601
vt 0.497483 0.015602
vt 0.497483 0.015602
vt 0.497483 0.015603
vt 0.497483 0.015603
vt 0.497483 0.015604
vt 0.497483 0.015605
vt 0.497483 0.015605
vt 0.497483 0.015606
vt 0.497483 0.015607
vt 0.497483 0.015607
vt 0.497483 0.015608
vt 0.497483 0.015609
vt 0.497483 0.015609
vt 0.497483 0.015611
vt 0.497483 0.015611
vt 0.497483 0.015611
vt 0.497483 0.015611
vt 0.497483 0.015611
vt 0.497483 0.015612
vt 0.497483 0.015612
vt 0.497483 0.015612
vt 0.497483 0.015612
vt 0.497483 0.015612
vt 0.497483 0.015612
vt 0.497483 0.015612
vt 0.497483 0.015612
vt 0.497483 0.015612
vt 0.497483 0.015612
vt 0.497483 0.015601
vt 0.497483 0.015610
vt 0.497483 0.015610
vt 0.497483 0.015610
vt 0.497483 0.015609
vt 0.497483 0.015608
vt 0.497483 0.015608
vt 0.497483 0.015607
vt 0.497483 0.015607
vt 0.497483 0.015606
vt 0.497483 0.015605
vt 0.497483 0.015605
vt 0.497483 0.015604
vt 0.497483 0.015603
vt 0.497539 0.018910
vt 0.497539 0.018911
vt 0.500425 0.800747
vt 0.000000 0.000000
vt 0.000000 0.000000
vt 0.000000 0.000000
vt 0.000000 0.000000
vt 0.497541 0.019742
vt 0.497541 0.019818
vt 0.497539 0.019105
vt 0.497539 0.019064
vt 0.497539 0.018917
vt 0.497539 0.018928
vt 0.497539 0.018945
vt 0.497539 0.018967
vt 0.497539 0.018994
vt 0.497539 0.019027
vt 0.497540 0.019000
vt 0.497540 0.018972
vt 0.497540 0.018948
vt 0.497540 0.018930
vt 0.497540 0.018917
vt 0.497540 0.018910
vt 0.497540 0.018908
vt 0.497541 0.019895
vt 0.497541 0.019972
vt 0.497541 0.020011
vt 0.497515 0.020123
vt 0.497540 0.019034
vt 0.497540 0.019072
vt 0.497540 0.019115
vt 0.497540 0.019162
vt 0.497540 0.019214
vt 0.497541 0.019269
vt 0.497541 0.019328
vt 0.497541 0.019391
vt 0.497541 0.019456
vt 0.497541 0.019524
vt 0.497541 0.019595
vt 0.497541 0.019668
vt 0.497538 0.020032
vt 0.497538 0.020144
vt 0.497538 0.019955
vt 0.497538 0.019877
vt 0.497538 0.019801
vt 0.497538 0.019725
vt 0.497538 0.019651
vt 0.497539 0.019579
vt 0.497539 0.019509
vt 0.497539 0.019441
vt 0.497539 0.019376
vt 0.497539 0.019315
vt 0.497539 0.019257
vt 0.497539 0.019202
vt 0.497539 0.019152
vt 0.497506 0.012366
vt 0.500444 0.804437
vt 0.497506 0.012128
vt 0.000000 0.000000
vt 0.000000 0.000000
vt 0.000000 0.000000
vt 0.000000 0.000000
vt 0.516951 0.001062
vt 0.516951 0.001062
vt 0.516951 0.001062
vt 0.497506 0.012045
vt 0.497506 0.011800
vt 0.497506 0.011880
vt 0.497506 0.011962
vt 0.497506 0.010929
vt 0.497506 0.010921
vt 0.497506 0.010919
vt 0.497506 0.010924
vt 0.497506 0.010926
vt 0.497506 0.010932
vt 0.497506 0.010945
vt 0.497506 0.010963
vt 0.497506 0.010987
vt 0.497506 0.011016
vt 0.497506 0.011051
vt 0.497506 0.011091
vt 0.497506 0.011136
vt 0.497506 0.011185
vt 0.497506 0.011239
vt 0.497506 0.011298
vt 0.497506 0.011360
vt 0.497506 0.011426
vt 0.497506 0.011495
vt 0.497506 0.011568
vt 0.497506 0.011643
vt 0.497506 0.011720
vt 0.497506 0.012053
vt 0.497506 0.012095
vt 0.497506 0.011971
vt 0.497506 0.011889
vt 0.497506 0.011807
vt 0.497506 0.011728
vt 0.497506 0.011650
vt 0.497506 0.011575
vt 0.497506 0.011502
vt 0.497506 0.011432
vt 0.497506 0.011365
vt 0.497506 0.011302
vt 0.497506 0.011243
vt 0.497506 0.011188
vt 0.497506 0.011138
vt 0.497506 0.011092
vt 0.497506 0.011052
vt 0.497506 0.011016
vt 0.497506 0.010986
vt 0.497506 0.010961
vt 0.497506 0.010942
vt 0.497506 0.012333
vn -0.0000 1.0000 0.0000
vn 0.0000 0.9992 0.0393
vn 0.0000 0.0000 1.0000
vn 0.0000 -1.0000 0.0000
s off
f 14/1/1 15/2/1 49/3/1
f 30/4/1 31/5/1 49/3/1
f 47/6/1 25/7/1 49/3/1
f 15/2/1 16/8/1 49/3/1
f 49/3/1 50/9/1 24/10/1
f 24/10/1 2/11/1 49/3/1
f 2/11/1 3/12/1 49/3/1
f 3/12/1 4/13/1 49/3/1
f 4/13/1 5/14/1 49/3/1
f 5/14/1 6/15/1 49/3/1
f 6/15/1 7/16/1 49/3/1
f 7/16/1 8/17/1 49/3/1
f 8/17/1 9/18/1 49/3/1
f 9/18/1 10/19/1 49/3/1
f 10/19/1 11/20/1 49/3/1
f 11/20/1 12/21/1 49/3/1
f 12/21/1 13/22/1 49/3/1
f 13/22/1 14/1/1 49/3/1
f 33/23/1 49/3/1 32/24/1
f 49/3/1 16/8/1 17/25/1
f 32/24/1 49/3/1 31/5/1
f 17/25/1 18/26/1 49/3/1
f 18/26/1 19/27/1 49/3/1
f 19/27/1 20/28/1 49/3/1
f 20/28/1 21/29/1 49/3/1
f 21/29/1 22/30/1 49/3/1
f 22/30/1 23/31/1 49/3/1
f 23/31/1 1/32/1 49/3/1
f 1/32/1 48/33/1 49/3/1
f 48/33/1 26/34/1 49/3/1
f 26/34/1 27/35/1 49/3/1
f 27/35/1 28/36/1 49/3/1
f 28/36/1 29/37/1 49/3/1
f 29/37/1 30/4/1 49/3/1
f 51/38/1 49/3/1 25/7/1
f 49/3/1 33/23/1 34/39/1
f 35/40/1 49/3/1 34/39/1
f 35/40/1 36/41/1 49/3/1
f 36/41/1 37/42/1 49/3/1
f 37/42/1 38/43/1 49/3/1
f 38/43/1 39/44/1 49/3/1
f 39/44/1 40/45/1 49/3/1
f 40/45/1 41/46/1 49/3/1
f 41/46/1 42/47/1 49/3/1
f 42/47/1 43/48/1 49/3/1
f 43/48/1 44/49/1 49/3/1
f 44/49/1 45/50/1 49/3/1
f 45/50/1 46/51/1 49/3/1
f 46/51/1 47/6/1 49/3/1
f 75/52/1 53/53/1 102/54/1
f 100/55/2 101/56/2 103/57/2 102/58/2
f 80/59/1 102/54/1 79/60/1
f 61/61/1 102/54/1 60/62/1
f 53/53/1 54/63/1 102/54/1
f 54/63/1 55/64/1 102/54/1
f 55/64/1 56/65/1 102/54/1
f 56/65/1 57/66/1 102/54/1
f 57/66/1 58/67/1 102/54/1
f 58/67/1 59/68/1 102/54/1
f 102/54/1 93/69/1 94/70/1
f 94/70/1 95/71/1 102/54/1
f 95/71/1 96/72/1 102/54/1
f 96/72/1 97/73/1 102/54/1
f 97/73/1 98/74/1 102/54/1
f 98/74/1 76/75/1 102/54/1
f 76/75/1 75/52/1 102/54/1
f 79/60/1 102/54/1 78/76/1
f 78/76/1 102/54/1 77/77/1
f 77/77/1 102/54/1 99/78/1
f 99/78/1 102/54/1 100/79/1
f 102/54/1 92/80/1 93/69/1
f 91/81/1 92/80/1 102/54/1
f 91/81/1 102/54/1 90/82/1
f 90/82/1 102/54/1 89/83/1
f 89/83/1 102/54/1 88/84/1
f 88/84/1 102/54/1 87/85/1
f 87/85/1 102/54/1 86/86/1
f 86/86/1 102/54/1 85/87/1
f 85/87/1 102/54/1 84/88/1
f 84/88/1 102/54/1 83/89/1
f 83/89/1 102/54/1 82/90/1
f 82/90/1 102/54/1 81/91/1
f 81/91/1 102/54/1 80/59/1
f 60/62/1 102/54/1 59/68/1
f 102/54/1 52/92/1 103/93/1
f 52/92/1 102/54/1 74/94/1
f 74/94/1 102/54/1 73/95/1
f 73/95/1 102/54/1 72/96/1
f 72/96/1 102/54/1 71/97/1
f 71/97/1 102/54/1 70/98/1
f 70/98/1 102/54/1 69/99/1
f 69/99/1 102/54/1 68/100/1
f 68/100/1 102/54/1 67/101/1
f 67/101/1 102/54/1 66/102/1
f 66/102/1 102/54/1 65/103/1
f 65/103/1 102/54/1 64/104/1
f 64/104/1 102/54/1 63/105/1
f 63/105/1 102/54/1 62/106/1
f 62/106/1 102/54/1 61/61/1
f 157/107/1 158/108/1 128/109/1
f 152/110/3 153/111/3 155/112/3 154/113/3
f 154/114/4 155/115/4 158/116/4
f 128/109/1 158/108/1 150/117/1
f 147/118/1 148/119/1 158/108/1
f 149/120/1 158/108/1 148/119/1
f 149/120/1 150/117/1 158/108/1
f 125/121/1 126/122/1 158/108/1
f 126/122/1 104/123/1 158/108/1
f 104/123/1 151/124/1 158/108/1
f 151/124/1 129/125/1 158/108/1
f 129/125/1 130/126/1 158/108/1
f 130/126/1 131/127/1 158/108/1
f 131/127/1 132/128/1 158/108/1
f 132/128/1 133/129/1 158/108/1
f 133/129/1 134/130/1 158/108/1
f 134/130/1 135/131/1 158/108/1
f 135/131/1 136/132/1 158/108/1
f 136/132/1 137/133/1 158/108/1
f 137/133/1 138/134/1 158/108/1
f 138/134/1 139/135/1 158/108/1
f 139/135/1 140/136/1 158/108/1
f 140/136/1 141/137/1 158/108/1
f 141/137/1 142/138/1 158/108/1
f 142/138/1 143/139/1 158/108/1
f 143/139/1 144/140/1 158/108/1
f 144/140/1 145/141/1 158/108/1
f 145/141/1 146/142/1 158/108/1
f 146/142/1 147/118/1 158/108/1
f 105/143/1 158/108/1 127/144/1
f 105/143/1 106/145/1 158/108/1
f 106/145/1 107/146/1 158/108/1
f 107/146/1 108/147/1 158/108/1
f 108/147/1 109/148/1 158/108/1
f 109/148/1 110/149/1 158/108/1
f 110/149/1 111/150/1 158/108/1
f 111/150/1 112/151/1 158/108/1
f 112/151/1 113/152/1 158/108/1
f 113/152/1 114/153/1 158/108/1
f 114/153/1 115/154/1 158/108/1
f 115/154/1 116/155/1 158/108/1
f 116/155/1 117/156/1 158/108/1
f 117/156/1 118/157/1 158/108/1
f 118/157/1 119/158/1 158/108/1
f 119/158/1 120/159/1 158/108/1
f 120/159/1 121/160/1 158/108/1
f 121/160/1 122/161/1 158/108/1
f 122/161/1 123/162/1 158/108/1
f 123/162/1 124/163/1 158/108/1
f 124/163/1 125/121/1 158/108/1
f 158/108/1 156/164/1 127/144/1
l 101 52
l 127 152
l 128 153
l 157 156
