# Blender v2.82 (sub 7) OBJ File: ''
# www.blender.org
mtllib small_back.mtl
o back_Circle.006
v 1.155940 -0.000003 18.495041
v -1.155939 -0.000003 18.495041
v 1.761112 -0.000003 18.484489
v -12.301250 -0.000002 14.438502
v -11.347553 -0.000002 15.183606
v -10.344207 -0.000003 15.860367
v -9.296094 -0.000003 16.465488
v -8.208323 -0.000003 16.996025
v -7.086194 -0.000003 17.449387
v -5.935173 -0.000003 17.823372
v -4.760869 -0.000003 18.116154
v -3.569001 -0.000003 18.326305
v -2.365377 -0.000003 18.452808
v 2.968417 -0.000003 18.400051
v 4.166892 -0.000003 18.231613
v 5.350697 -0.000003 17.979980
v 6.514066 -0.000003 17.646389
v 7.651330 -0.000003 17.232452
v 8.756950 -0.000003 16.740196
v 9.825539 -0.000003 16.172012
v 10.851889 -0.000003 15.530673
v 11.831003 -0.000002 14.819301
v 12.342513 -0.000002 14.390089
v 7.619905 0.039998 10.739095
v 8.272649 0.039998 10.264846
v 0.000000 0.040000 0.000000
v 4.387923 0.079999 5.947518
v 4.714294 0.079999 5.710393
v 0.000000 0.080000 0.000000
v -12.347962 -0.000002 14.396442
v 0.000000 0.000000 0.000000
v 8.581774 0.039998 10.005457
v -8.586350 0.039998 10.010797
v -8.586145 0.039998 10.010982
v -7.950348 0.039998 10.507717
v -7.281451 0.039998 10.958891
v -6.582709 0.039998 11.362305
v -5.857528 0.039998 11.715996
v -5.109443 0.039998 12.018238
v -4.342095 0.039998 12.267561
v -3.559226 0.039998 12.462749
v -2.764647 0.039998 12.602850
v -1.962231 0.039998 12.687185
v -1.155939 0.039998 12.715340
v 1.155940 0.039998 12.715340
v 1.559388 0.039998 12.708306
v 2.364258 0.039998 12.652013
v 3.163241 0.039998 12.539721
v 3.952445 0.039998 12.371967
v 4.728024 0.039998 12.149570
v 5.486200 0.039998 11.873614
v 6.223280 0.039998 11.545444
v 6.935672 0.039998 11.166655
v 4.821035 0.079999 5.620826
v -4.821910 0.079999 5.621847
v -4.553144 0.079999 5.831829
v -4.218695 0.079999 6.057415
v -3.869324 0.079999 6.259123
v -3.506734 0.079999 6.435968
v -3.132691 0.079999 6.587089
v -2.749018 0.079999 6.711750
v -2.357583 0.079999 6.809344
v -1.960294 0.079999 6.879395
v -1.559086 0.079999 6.921562
v -1.155940 0.079999 6.935639
v 1.155940 0.079999 6.935639
v 1.357664 0.079999 6.932123
v 1.760099 0.079999 6.903976
v 2.159591 0.079999 6.847829
v 2.554192 0.079999 6.763953
v 2.941982 0.079999 6.652755
v 3.321070 0.079999 6.514777
v 3.689610 0.079999 6.350691
v 4.045806 0.079999 6.161297
vt 0.493115 0.104683
vt 0.493136 0.104385
vt 0.493361 0.722620
vt 0.492270 0.103052
vt 0.492267 0.102443
vt 0.491680 0.732125
vt 0.492249 0.101766
vt 0.492249 0.101560
vt 0.491573 0.721660
vt 0.493156 0.104018
vt 0.493176 0.103582
vt 0.493196 0.103080
vt 0.493214 0.102516
vt 0.493232 0.101890
vt 0.493240 0.101548
vt 0.492769 0.101518
vt 0.492791 0.102361
vt 0.492774 0.101718
vt 0.492809 0.102944
vt 0.492828 0.103464
vt 0.492848 0.103919
vt 0.492869 0.104307
vt 0.492889 0.104625
vt 0.492911 0.104873
vt 0.492932 0.105048
vt 0.492954 0.105151
vt 0.492976 0.105180
vt 0.493039 0.105158
vt 0.493050 0.105145
vt 0.493072 0.105064
vt 0.493093 0.104910
vt 0.492263 0.101366
vt 0.492264 0.101770
vt 0.492326 0.101815
vt 0.492324 0.102522
vt 0.492326 0.101853
vt 0.492321 0.103127
vt 0.492318 0.103666
vt 0.492316 0.104135
vt 0.492313 0.104532
vt 0.492310 0.104856
vt 0.492307 0.105105
vt 0.492304 0.105277
vt 0.492301 0.105372
vt 0.492298 0.105389
vt 0.492290 0.105374
vt 0.492290 0.105327
vt 0.492287 0.105227
vt 0.492284 0.105051
vt 0.492281 0.104798
vt 0.492278 0.104469
vt 0.492275 0.104068
vt 0.492272 0.103594
vt 0.492251 0.101527
vt 0.492251 0.102012
vt 0.492251 0.102533
vt 0.492251 0.102999
vt 0.492251 0.103408
vt 0.492251 0.103758
vt 0.492251 0.104047
vt 0.492251 0.104273
vt 0.492251 0.104436
vt 0.492251 0.104535
vt 0.492251 0.104569
vt 0.492250 0.104577
vt 0.492250 0.104570
vt 0.492250 0.104507
vt 0.492250 0.104379
vt 0.492250 0.104187
vt 0.492250 0.103932
vt 0.492250 0.103615
vt 0.492250 0.103238
vt 0.492250 0.102803
vt 0.492250 0.102311
vn 0.0000 1.0000 0.0000
usemtl None.006
s 1
f 49/1/1 50/2/1 26/3/1
f 20/4/1 21/5/1 31/6/1
f 28/7/1 54/8/1 29/9/1
f 50/2/1 51/10/1 26/3/1
f 51/10/1 52/11/1 26/3/1
f 52/11/1 53/12/1 26/3/1
f 53/12/1 24/13/1 26/3/1
f 24/13/1 25/14/1 26/3/1
f 25/14/1 32/15/1 26/3/1
f 26/3/1 33/16/1 35/17/1
f 33/16/1 34/18/1 35/17/1
f 35/17/1 36/19/1 26/3/1
f 36/19/1 37/20/1 26/3/1
f 37/20/1 38/21/1 26/3/1
f 38/21/1 39/22/1 26/3/1
f 39/22/1 40/23/1 26/3/1
f 40/23/1 41/24/1 26/3/1
f 41/24/1 42/25/1 26/3/1
f 42/25/1 43/26/1 26/3/1
f 43/26/1 44/27/1 26/3/1
f 44/27/1 45/28/1 26/3/1
f 45/28/1 46/29/1 26/3/1
f 46/29/1 47/30/1 26/3/1
f 47/30/1 48/31/1 26/3/1
f 48/31/1 49/1/1 26/3/1
f 23/32/1 31/6/1 22/33/1
f 31/6/1 30/34/1 5/35/1
f 22/33/1 31/6/1 21/5/1
f 30/34/1 4/36/1 5/35/1
f 5/35/1 6/37/1 31/6/1
f 6/37/1 7/38/1 31/6/1
f 7/38/1 8/39/1 31/6/1
f 8/39/1 9/40/1 31/6/1
f 9/40/1 10/41/1 31/6/1
f 10/41/1 11/42/1 31/6/1
f 11/42/1 12/43/1 31/6/1
f 12/43/1 13/44/1 31/6/1
f 13/44/1 2/45/1 31/6/1
f 2/45/1 1/46/1 31/6/1
f 1/46/1 3/47/1 31/6/1
f 3/47/1 14/48/1 31/6/1
f 14/48/1 15/49/1 31/6/1
f 15/49/1 16/50/1 31/6/1
f 16/50/1 17/51/1 31/6/1
f 17/51/1 18/52/1 31/6/1
f 18/52/1 19/53/1 31/6/1
f 19/53/1 20/4/1 31/6/1
f 55/54/1 56/55/1 29/9/1
f 56/55/1 57/56/1 29/9/1
f 57/56/1 58/57/1 29/9/1
f 58/57/1 59/58/1 29/9/1
f 59/58/1 60/59/1 29/9/1
f 60/59/1 61/60/1 29/9/1
f 61/60/1 62/61/1 29/9/1
f 62/61/1 63/62/1 29/9/1
f 63/62/1 64/63/1 29/9/1
f 64/63/1 65/64/1 29/9/1
f 65/64/1 66/65/1 29/9/1
f 66/65/1 67/66/1 29/9/1
f 67/66/1 68/67/1 29/9/1
f 68/67/1 69/68/1 29/9/1
f 69/68/1 70/69/1 29/9/1
f 70/69/1 71/70/1 29/9/1
f 71/70/1 72/71/1 29/9/1
f 72/71/1 73/72/1 29/9/1
f 73/72/1 74/73/1 29/9/1
f 74/73/1 27/74/1 29/9/1
f 27/74/1 28/7/1 29/9/1
