# Blender v2.82 (sub 7) OBJ File: ''
# www.blender.org
mtllib small_front4.mtl
o r3.001_front4_Circle.020
v -12.342514 0.000004 -14.390088
v 0.000000 0.000000 0.000000
v 12.347962 0.000004 -14.396442
v 11.347555 0.000004 -15.183606
v 9.296095 0.000006 -16.465488
v 8.208325 0.000006 -16.996023
v 5.935174 0.000006 -17.823372
v 4.760870 0.000006 -18.116154
v 2.365379 0.000006 -18.452808
v -1.761113 0.000006 -18.484489
v -4.166893 0.000006 -18.231613
v -6.514067 0.000006 -17.646389
v -8.756950 0.000006 -16.740196
v -10.851890 0.000006 -15.530672
v -8.272649 0.040004 -10.264847
v 0.000000 0.040000 0.000000
v -8.581776 0.040004 -10.005455
v 8.586352 0.040004 -10.010798
v 7.281452 0.040004 -10.958891
v 5.857529 0.040004 -11.715995
v 4.342096 0.040004 -12.267561
v 3.559226 0.040004 -12.462749
v 1.962232 0.040004 -12.687185
v -1.559389 0.040004 -12.708306
v -3.163242 0.040004 -12.539721
v -4.728024 0.040004 -12.149571
v -5.486201 0.040004 -11.873615
v -6.935673 0.040004 -11.166656
v -3.689610 0.080002 -6.350692
v -3.321070 0.080002 -6.514778
v -2.554193 0.080002 -6.763954
v -2.159591 0.080002 -6.847830
v -1.357664 0.080002 -6.932123
v 1.559086 0.080002 -6.921563
v 2.357583 0.080002 -6.809345
v 2.749018 0.080002 -6.711751
v 3.506735 0.080002 -6.435968
v 4.218696 0.080002 -6.057415
v 4.821910 0.080002 -5.621847
v -4.821034 0.080002 -5.620827
v 0.000000 0.080000 0.000000
v -4.387923 0.080002 -5.947517
vt 0.263298 0.009480
vt 0.263304 0.009369
vt 0.264367 0.898793
vt 0.263209 0.009368
vt 0.263214 0.009461
vt 0.263222 0.009583
vt 0.263226 0.009634
vt 0.263235 0.009712
vt 0.263239 0.009740
vt 0.263248 0.009771
vt 0.263264 0.009771
vt 0.263273 0.009745
vt 0.263282 0.009687
vt 0.263290 0.009598
vt 0.264276 0.007135
vt 0.264283 0.007212
vt 0.263496 0.891498
vt 0.263132 0.009625
vt 0.263916 0.006952
vt 0.263949 0.006723
vt 0.263984 0.006555
vt 0.264002 0.006496
vt 0.264039 0.006426
vt 0.264120 0.006414
vt 0.264158 0.006462
vt 0.264194 0.006576
vt 0.264211 0.006658
vt 0.264245 0.006867
vt 0.264316 0.899029
vt 0.263586 0.010409
vt 0.263572 0.010269
vt 0.263371 0.010296
vt 0.263361 0.010401
vt 0.263387 0.010167
vt 0.263396 0.010115
vt 0.263414 0.010035
vt 0.263423 0.010009
vt 0.263442 0.009982
vt 0.263510 0.009988
vt 0.263529 0.010025
vt 0.263538 0.010057
vt 0.263556 0.010146
vn -0.0000 1.0000 0.0000
usemtl (null)
s 1
f 14/1/1 1/2/1 2/3/1
f 2/3/1 3/4/1 4/5/1
f 4/5/1 5/6/1 2/3/1
f 5/6/1 6/7/1 2/3/1
f 6/7/1 7/8/1 2/3/1
f 7/8/1 8/9/1 2/3/1
f 8/9/1 9/10/1 2/3/1
f 9/10/1 10/11/1 2/3/1
f 10/11/1 11/12/1 2/3/1
f 11/12/1 12/13/1 2/3/1
f 12/13/1 13/14/1 2/3/1
f 13/14/1 14/1/1 2/3/1
f 15/15/1 17/16/1 16/17/1
f 16/17/1 18/18/1 19/19/1
f 19/19/1 20/20/1 16/17/1
f 20/20/1 21/21/1 16/17/1
f 21/21/1 22/22/1 16/17/1
f 22/22/1 23/23/1 16/17/1
f 23/23/1 24/24/1 16/17/1
f 24/24/1 25/25/1 16/17/1
f 25/25/1 26/26/1 16/17/1
f 26/26/1 27/27/1 16/17/1
f 27/27/1 28/28/1 16/17/1
f 28/28/1 15/15/1 16/17/1
f 41/29/1 39/30/1 38/31/1
f 42/32/1 40/33/1 41/29/1
f 29/34/1 42/32/1 41/29/1
f 30/35/1 29/34/1 41/29/1
f 31/36/1 30/35/1 41/29/1
f 32/37/1 31/36/1 41/29/1
f 33/38/1 32/37/1 41/29/1
f 34/39/1 33/38/1 41/29/1
f 35/40/1 34/39/1 41/29/1
f 36/41/1 35/40/1 41/29/1
f 37/42/1 36/41/1 41/29/1
f 38/31/1 37/42/1 41/29/1
o bullseye.002_Plane.007
v 0.355644 -0.040000 -1.063926
v -0.355644 -0.039994 -18.476746
v -0.355644 -0.040000 -1.063926
v 0.355644 -0.039994 -18.476746
vt 0.009968 0.982761
vt 0.020519 0.972210
vt 0.020519 0.982761
vt 0.009968 0.972210
vn 0.0000 1.0000 0.0000
usemtl None.013
s 1
f 43/43/2 44/44/2 45/45/2
f 43/43/2 46/46/2 44/44/2
