# Blender v2.82 (sub 7) OBJ File: ''
# www.blender.org
mtllib small_front.mtl
o front4_Circle.025
v -4.387923 0.080001 -5.947517
v -4.714294 0.080001 -5.710393
v 0.000000 0.080000 0.000000
v -7.619905 0.040002 -10.739096
v -8.272649 0.040002 -10.264847
v 0.000000 0.040000 0.000000
v -11.831004 0.000002 -14.819299
v -12.342514 0.000002 -14.390088
v 0.000000 0.000000 0.000000
v -4.821034 0.080001 -5.620827
v 4.821910 0.080001 -5.621847
v 4.553144 0.080001 -5.831828
v 4.218696 0.080001 -6.057415
v 3.869325 0.080001 -6.259122
v 3.506735 0.080001 -6.435968
v 3.132692 0.080001 -6.587089
v 2.749018 0.080001 -6.711751
v 2.357583 0.080001 -6.809345
v 1.960294 0.080001 -6.879395
v 1.559086 0.080001 -6.921563
v 1.155940 0.080001 -6.935640
v -1.155940 0.080001 -6.935640
v -1.357664 0.080001 -6.932123
v -1.760099 0.080001 -6.903976
v -2.159591 0.080001 -6.847830
v -2.554193 0.080001 -6.763954
v -2.941982 0.080001 -6.652756
v -3.321070 0.080001 -6.514778
v -3.689610 0.080001 -6.350692
v -4.045806 0.080001 -6.161297
v -8.581776 0.040002 -10.005455
v 8.586352 0.040002 -10.010798
v 8.586146 0.040002 -10.010982
v 7.950348 0.040002 -10.507716
v 7.281452 0.040002 -10.958891
v 6.582710 0.040002 -11.362305
v 5.857529 0.040002 -11.715995
v 5.109443 0.040002 -12.018238
v 4.342096 0.040002 -12.267561
v 3.559226 0.040002 -12.462749
v 2.764648 0.040002 -12.602850
v 1.962232 0.040002 -12.687185
v 1.155940 0.040002 -12.715338
v -1.155941 0.040002 -12.715340
v -1.559389 0.040002 -12.708306
v -2.364259 0.040002 -12.652013
v -3.163242 0.040002 -12.539721
v -3.952445 0.040002 -12.371967
v -4.728024 0.040002 -12.149571
v -5.486201 0.040002 -11.873615
v -6.223280 0.040002 -11.545444
v -6.935673 0.040002 -11.166656
v 12.347962 0.000002 -14.396442
v 12.301250 0.000002 -14.438501
v 11.347555 0.000002 -15.183606
v 10.344208 0.000003 -15.860365
v 9.296095 0.000003 -16.465488
v 8.208325 0.000003 -16.996023
v 7.086195 0.000003 -17.449387
v 5.935174 0.000003 -17.823372
v 4.760870 0.000003 -18.116154
v 3.569002 0.000003 -18.326305
v 2.365379 0.000003 -18.452808
v 1.155940 0.000003 -18.495041
v -1.155941 0.000003 -18.495041
v -1.761113 0.000003 -18.484489
v -2.968418 0.000003 -18.400051
v -4.166893 0.000003 -18.231613
v -5.350697 0.000003 -17.979980
v -6.514067 0.000003 -17.646389
v -7.651332 0.000003 -17.232452
v -8.756950 0.000003 -16.740196
v -9.825539 0.000003 -16.172012
v -10.851890 0.000003 -15.530672
vt 0.370598 0.029134
vt 0.370602 0.029134
vt 0.369237 0.833793
vt 0.370574 0.029133
vt 0.370574 0.029133
vt 0.369605 0.831935
vt 0.329458 0.043998
vt 0.329432 0.044088
vt 0.331412 0.838663
vt 0.370603 0.029134
vt 0.370555 0.029156
vt 0.370556 0.029154
vt 0.370557 0.029152
vt 0.370558 0.029150
vt 0.370559 0.029148
vt 0.370561 0.029146
vt 0.370563 0.029145
vt 0.370565 0.029143
vt 0.370567 0.029141
vt 0.370570 0.029140
vt 0.370572 0.029138
vt 0.370572 0.029139
vt 0.370573 0.029139
vt 0.370576 0.029137
vt 0.370578 0.029138
vt 0.370581 0.029137
vt 0.370584 0.029136
vt 0.370588 0.029135
vt 0.370591 0.029135
vt 0.370595 0.029134
vt 0.370574 0.029133
vt 0.368965 0.834857
vt 0.370554 0.029156
vt 0.370554 0.029156
vt 0.370574 0.029133
vt 0.370574 0.029133
vt 0.370574 0.029133
vt 0.370574 0.029133
vt 0.370574 0.029133
vt 0.370574 0.029133
vt 0.370574 0.029133
vt 0.370574 0.029133
vt 0.370574 0.029133
vt 0.370574 0.029133
vt 0.370574 0.029133
vt 0.370574 0.029133
vt 0.370574 0.029133
vt 0.370574 0.029133
vt 0.370574 0.029133
vt 0.370574 0.029133
vt 0.370574 0.029133
vt 0.370574 0.029133
vt 0.370574 0.029133
vt 0.370574 0.029133
vt 0.368940 0.832237
vt 0.370574 0.029133
vt 0.370574 0.029133
vt 0.370574 0.029133
vt 0.370574 0.029133
vt 0.329432 0.044045
vt 0.329458 0.044081
vt 0.329432 0.044044
vt 0.329458 0.044164
vt 0.329458 0.044029
vt 0.329432 0.044021
vt 0.329432 0.044166
vt 0.329458 0.044078
vt 0.329458 0.044116
vt 0.329458 0.044138
vt 0.329458 0.044137
vt 0.329458 0.044094
vt 0.329458 0.043998
vt 0.329432 0.044028
vt 0.329458 0.044032
vt 0.329458 0.044163
vt 0.329432 0.044039
vt 0.329458 0.044072
vt 0.329458 0.044057
vn -0.0000 1.0000 0.0000
usemtl None.004
s 1
f 1/1/1 2/2/1 3/3/1
f 4/4/1 5/5/1 6/6/1
f 7/7/1 8/8/1 9/9/1
f 2/2/1 10/10/1 3/3/1
f 3/3/1 11/11/1 12/12/1
f 12/12/1 13/13/1 3/3/1
f 13/13/1 14/14/1 3/3/1
f 14/14/1 15/15/1 3/3/1
f 15/15/1 16/16/1 3/3/1
f 16/16/1 17/17/1 3/3/1
f 17/17/1 18/18/1 3/3/1
f 18/18/1 19/19/1 3/3/1
f 19/19/1 20/20/1 3/3/1
f 20/20/1 21/21/1 3/3/1
f 21/21/1 22/22/1 3/3/1
f 22/22/1 23/23/1 3/3/1
f 23/23/1 24/24/1 3/3/1
f 24/24/1 25/25/1 3/3/1
f 25/25/1 26/26/1 3/3/1
f 26/26/1 27/27/1 3/3/1
f 27/27/1 28/28/1 3/3/1
f 28/28/1 29/29/1 3/3/1
f 29/29/1 30/30/1 3/3/1
f 30/30/1 1/1/1 3/3/1
f 5/5/1 31/31/1 6/6/1
f 6/32/1 32/33/1 33/34/1
f 33/35/1 34/36/1 6/6/1
f 34/36/1 35/37/1 6/6/1
f 35/37/1 36/38/1 6/6/1
f 36/38/1 37/39/1 6/6/1
f 37/39/1 38/40/1 6/6/1
f 38/40/1 39/41/1 6/6/1
f 39/41/1 40/42/1 6/6/1
f 40/42/1 41/43/1 6/6/1
f 41/43/1 42/44/1 6/6/1
f 42/44/1 43/45/1 6/6/1
f 43/45/1 44/46/1 6/6/1
f 44/46/1 45/47/1 6/6/1
f 45/47/1 46/48/1 6/6/1
f 46/48/1 47/49/1 6/6/1
f 47/49/1 48/50/1 6/6/1
f 48/50/1 49/51/1 6/6/1
f 49/51/1 50/52/1 6/6/1
f 50/52/1 51/53/1 6/6/1
f 51/53/1 52/54/1 6/6/1
f 52/54/1 4/4/1 6/6/1
f 9/55/1 53/56/1 54/57/1
f 54/57/1 55/58/1 9/55/1
f 55/58/1 56/59/1 9/55/1
f 56/60/1 57/61/1 9/9/1
f 57/61/1 58/62/1 9/9/1
f 58/62/1 59/63/1 9/9/1
f 59/63/1 60/64/1 9/9/1
f 60/64/1 61/65/1 9/9/1
f 61/65/1 62/66/1 9/9/1
f 62/66/1 63/67/1 9/9/1
f 63/67/1 64/68/1 9/9/1
f 64/68/1 65/69/1 9/9/1
f 65/69/1 66/70/1 9/9/1
f 66/70/1 67/71/1 9/9/1
f 67/71/1 68/72/1 9/9/1
f 68/72/1 69/73/1 9/9/1
f 69/73/1 70/74/1 9/9/1
f 70/74/1 71/75/1 9/9/1
f 71/75/1 72/76/1 9/9/1
f 72/76/1 73/77/1 9/9/1
f 73/77/1 74/78/1 9/9/1
f 74/78/1 7/7/1 9/9/1
o Plane
v 0.355644 -0.040000 -1.063926
v -0.355644 -0.039997 -18.476746
v -0.355644 -0.040000 -1.063926
v 0.355644 -0.039997 -18.476746
vt 0.009968 0.982761
vt 0.020519 0.972210
vt 0.020519 0.982761
vt 0.009968 0.972210
vn 0.0000 1.0000 0.0000
usemtl None.004
s 1
f 75/79/2 76/80/2 77/81/2
f 75/79/2 78/82/2 76/80/2
