# Blender v2.82 (sub 7) OBJ File: 'smallbase.blend'
# www.blender.org
mtllib small_front_2.mtl
o front2_Circle.022
v -8.586145 0.090000 10.010982
v -1.559389 0.090000 -12.708306
v -2.364259 0.090000 -12.652013
v -3.163242 0.090000 -12.539721
v -3.952445 0.090000 -12.371967
v -4.728024 0.090000 -12.149572
v -5.486201 0.090000 -11.873615
v -6.223280 0.090000 -11.545444
v -6.935672 0.090000 -11.166655
v -7.619906 0.090000 -10.739095
v -8.272649 0.090000 -10.264846
v -1.155941 0.090000 -12.715340
v 1.155940 0.090000 -12.715339
v 8.586146 0.090000 -10.010982
v 7.950349 0.090000 -10.507716
v 7.281451 0.090000 -10.958890
v 6.582710 0.090000 -11.362305
v 5.857530 0.090000 -11.715996
v 5.109443 0.090000 -12.018239
v 4.342097 0.090000 -12.267563
v 3.559227 0.090000 -12.462749
v 2.764648 0.090000 -12.602851
v 1.962233 0.090000 -12.687186
v 0.000000 0.090000 0.000000
v -8.581776 0.090000 -10.005456
v 8.586352 0.090000 -10.010797
vt 0.000000 0.000000
vt 0.000000 0.000000
vt 0.000000 0.000000
vt 0.000000 0.000000
vt 0.000000 0.000000
vt 0.000000 0.000000
vt 0.000000 0.000000
vt 0.000000 0.000000
vt 0.000000 0.000000
vt 0.000000 0.000000
vt 0.000000 0.000000
vt 0.000000 0.000000
vt 0.000000 0.000000
vt 0.000000 0.000000
vt 0.000000 0.000000
vt 0.000000 0.000000
vt 0.000000 0.000000
vt 0.000000 0.000000
vt 0.000000 0.000000
vt 0.000000 0.000000
vt 0.000000 0.000000
vt 0.000000 0.000000
vt 0.000000 0.000000
vt 0.000000 0.000000
vt 0.000000 0.000000
vn 0.0000 1.0000 0.0000
usemtl None
s off
f 10/1/1 11/2/1 24/3/1
f 11/2/1 25/4/1 24/3/1
f 24/3/1 26/5/1 14/6/1
f 14/6/1 15/7/1 24/3/1
f 15/7/1 16/8/1 24/3/1
f 16/8/1 17/9/1 24/3/1
f 17/9/1 18/10/1 24/3/1
f 18/10/1 19/11/1 24/3/1
f 19/11/1 20/12/1 24/3/1
f 20/12/1 21/13/1 24/3/1
f 21/13/1 22/14/1 24/3/1
f 22/14/1 23/15/1 24/3/1
f 23/15/1 13/16/1 24/3/1
f 13/16/1 12/17/1 24/3/1
f 12/17/1 2/18/1 24/3/1
f 2/18/1 3/19/1 24/3/1
f 3/19/1 4/20/1 24/3/1
f 4/20/1 5/21/1 24/3/1
f 5/21/1 6/22/1 24/3/1
f 6/22/1 7/23/1 24/3/1
f 7/23/1 8/24/1 24/3/1
f 8/24/1 9/25/1 24/3/1
f 9/25/1 10/1/1 24/3/1
