# Blender v2.82 (sub 7) OBJ File: 'smallbase.blend'
# www.blender.org
mtllib small_front.mtl
o front4_Circle.025
v 1.155940 0.080000 -6.935640
v 4.553144 0.080000 -5.831828
v 4.218696 0.080000 -6.057415
v 3.869325 0.080000 -6.259122
v 3.506735 0.080000 -6.435968
v 3.132692 0.080000 -6.587089
v 2.749018 0.080000 -6.711751
v 2.357583 0.080000 -6.809345
v 1.960294 0.080000 -6.879395
v 1.559086 0.080000 -6.921563
v -1.357664 0.080000 -6.932123
v -1.760099 0.080000 -6.903976
v -2.159591 0.080000 -6.847830
v -2.554193 0.080000 -6.763954
v -2.941982 0.080000 -6.652756
v -3.321070 0.080000 -6.514778
v -3.689610 0.080000 -6.350692
v -4.045806 0.080000 -6.161297
v -4.387923 0.080000 -5.947517
v -4.714294 0.080000 -5.710393
v -1.155940 0.080000 -6.935640
v 0.000000 0.080000 0.000000
v -4.821034 0.080000 -5.620827
v 4.821910 0.080000 -5.621847
v -1.559389 0.040000 -12.708306
v -2.364259 0.040000 -12.652013
v -3.163242 0.040000 -12.539721
v -3.952445 0.040000 -12.371967
v -4.728024 0.040000 -12.149571
v -5.486201 0.040000 -11.873615
v -6.223280 0.040000 -11.545444
v -6.935673 0.040000 -11.166656
v -7.619905 0.040000 -10.739096
v -8.272649 0.040000 -10.264847
v -1.155941 0.040000 -12.715340
v 1.155940 0.040000 -12.715338
v 8.586146 0.040000 -10.010982
v 7.950348 0.040000 -10.507716
v 7.281452 0.040000 -10.958891
v 6.582710 0.040000 -11.362305
v 5.857529 0.040000 -11.715995
v 5.109443 0.040000 -12.018238
v 4.342096 0.040000 -12.267561
v 3.559226 0.040000 -12.462749
v 2.764648 0.040000 -12.602850
v 1.962232 0.040000 -12.687185
v 0.000000 0.040000 0.000000
v -8.581776 0.040000 -10.005455
v 8.586352 0.040000 -10.010798
v 1.155940 0.000000 -18.495041
v 12.301250 0.000000 -14.438501
v 11.347555 0.000000 -15.183606
v 10.344208 0.000000 -15.860365
v 9.296095 0.000000 -16.465488
v 8.208325 0.000000 -16.996023
v 7.086195 0.000000 -17.449387
v 5.935174 0.000000 -17.823372
v 4.760870 0.000000 -18.116154
v 3.569002 0.000000 -18.326305
v 2.365379 0.000000 -18.452808
v -1.761113 0.000000 -18.484489
v -2.968418 0.000000 -18.400051
v -4.166893 0.000000 -18.231613
v -5.350697 0.000000 -17.979980
v -6.514067 0.000000 -17.646389
v -7.651332 0.000000 -17.232452
v -8.756950 0.000000 -16.740196
v -9.825539 0.000000 -16.172012
v -10.851890 0.000000 -15.530672
v -11.831004 0.000000 -14.819299
v -1.155941 0.000000 -18.495041
v 0.000000 0.000000 0.000000
v -12.342514 0.000000 -14.390088
v 12.347962 0.000000 -14.396442
vt 0.804055 0.414875
vt 0.816747 0.413850
vt 0.821144 0.647523
vt 0.961996 0.002300
vt 0.987219 0.000262
vt 0.999875 0.413553
vt 0.568891 0.000352
vt 0.589858 0.000125
vt 0.589858 0.595460
vt 0.821144 0.413802
vt 0.590107 0.611922
vt 0.592231 0.601369
vt 0.595608 0.589093
vt 0.599834 0.577081
vt 0.604886 0.565394
vt 0.610742 0.554088
vt 0.617372 0.543217
vt 0.624744 0.532836
vt 0.632823 0.522994
vt 0.641568 0.513740
vt 0.650937 0.505119
vt 0.706323 0.457614
vt 0.711228 0.453553
vt 0.721447 0.445958
vt 0.732171 0.439095
vt 0.743348 0.432996
vt 0.754924 0.427691
vt 0.766841 0.423207
vt 0.779041 0.419566
vt 0.791466 0.416784
vt 0.999875 0.000125
vt 0.590107 0.357707
vt 0.591053 0.350548
vt 0.596046 0.325740
vt 0.602758 0.301341
vt 0.611155 0.277469
vt 0.621197 0.254241
vt 0.632835 0.231771
vt 0.646012 0.210166
vt 0.660663 0.189534
vt 0.676719 0.169974
vt 0.694100 0.151582
vt 0.712720 0.134448
vt 0.767758 0.087241
vt 0.777506 0.079170
vt 0.797817 0.064076
vt 0.819131 0.050434
vt 0.841344 0.038313
vt 0.864349 0.027771
vt 0.888034 0.018859
vt 0.912282 0.011621
vt 0.936976 0.006092
vt 0.000125 0.513109
vt 0.001461 0.502797
vt 0.008959 0.465539
vt 0.019039 0.428895
vt 0.031651 0.393043
vt 0.046732 0.358159
vt 0.064210 0.324411
vt 0.084000 0.291965
vt 0.106005 0.260978
vt 0.130118 0.231602
vt 0.156221 0.203979
vt 0.184186 0.178246
vt 0.239292 0.130982
vt 0.253932 0.118861
vt 0.284436 0.096191
vt 0.316446 0.075704
vt 0.349808 0.057499
vt 0.384358 0.041666
vt 0.419929 0.028282
vt 0.456346 0.017412
vt 0.493433 0.009109
vt 0.531009 0.003413
vn 0.0000 1.0000 0.0000
usemtl None
s off
f 19/1/1 20/2/1 22/3/1
f 33/4/1 34/5/1 47/6/1
f 70/7/1 73/8/1 72/9/1
f 20/2/1 23/10/1 22/3/1
f 22/3/1 24/11/1 2/12/1
f 2/12/1 3/13/1 22/3/1
f 3/13/1 4/14/1 22/3/1
f 4/14/1 5/15/1 22/3/1
f 5/15/1 6/16/1 22/3/1
f 6/16/1 7/17/1 22/3/1
f 7/17/1 8/18/1 22/3/1
f 8/18/1 9/19/1 22/3/1
f 9/19/1 10/20/1 22/3/1
f 10/20/1 1/21/1 22/3/1
f 1/21/1 21/22/1 22/3/1
f 21/22/1 11/23/1 22/3/1
f 11/23/1 12/24/1 22/3/1
f 12/24/1 13/25/1 22/3/1
f 13/25/1 14/26/1 22/3/1
f 14/26/1 15/27/1 22/3/1
f 15/27/1 16/28/1 22/3/1
f 16/28/1 17/29/1 22/3/1
f 17/29/1 18/30/1 22/3/1
f 18/30/1 19/1/1 22/3/1
f 34/5/1 48/31/1 47/6/1
f 47/6/1 49/32/1 37/33/1
f 37/33/1 38/34/1 47/6/1
f 38/34/1 39/35/1 47/6/1
f 39/35/1 40/36/1 47/6/1
f 40/36/1 41/37/1 47/6/1
f 41/37/1 42/38/1 47/6/1
f 42/38/1 43/39/1 47/6/1
f 43/39/1 44/40/1 47/6/1
f 44/40/1 45/41/1 47/6/1
f 45/41/1 46/42/1 47/6/1
f 46/42/1 36/43/1 47/6/1
f 36/43/1 35/44/1 47/6/1
f 35/44/1 25/45/1 47/6/1
f 25/45/1 26/46/1 47/6/1
f 26/46/1 27/47/1 47/6/1
f 27/47/1 28/48/1 47/6/1
f 28/48/1 29/49/1 47/6/1
f 29/49/1 30/50/1 47/6/1
f 30/50/1 31/51/1 47/6/1
f 31/51/1 32/52/1 47/6/1
f 32/52/1 33/4/1 47/6/1
f 72/9/1 74/53/1 51/54/1
f 51/54/1 52/55/1 72/9/1
f 52/55/1 53/56/1 72/9/1
f 53/56/1 54/57/1 72/9/1
f 54/57/1 55/58/1 72/9/1
f 55/58/1 56/59/1 72/9/1
f 56/59/1 57/60/1 72/9/1
f 57/60/1 58/61/1 72/9/1
f 58/61/1 59/62/1 72/9/1
f 59/62/1 60/63/1 72/9/1
f 60/63/1 50/64/1 72/9/1
f 50/64/1 71/65/1 72/9/1
f 71/65/1 61/66/1 72/9/1
f 61/66/1 62/67/1 72/9/1
f 62/67/1 63/68/1 72/9/1
f 63/68/1 64/69/1 72/9/1
f 64/69/1 65/70/1 72/9/1
f 65/70/1 66/71/1 72/9/1
f 66/71/1 67/72/1 72/9/1
f 67/72/1 68/73/1 72/9/1
f 68/73/1 69/74/1 72/9/1
f 69/74/1 70/7/1 72/9/1
o Plane
v -0.345644 -0.040000 -1.063926
v 0.345644 -0.040000 -1.063926
v -0.345644 -0.040000 -18.476746
v 0.345644 -0.040000 -18.476746
vt 0.009968 0.982761
vt 0.020519 0.972210
vt 0.020519 0.982761
vt 0.009968 0.972210
vn 0.0000 1.0000 0.0000
usemtl None
s off
f 76/75/2 77/76/2 75/77/2
f 76/75/2 78/78/2 77/76/2
