# Blender v2.82 (sub 7) OBJ File: 'smallbase.blend'
# www.blender.org
o forward_Circle.016
v -0.991461 0.000000 -18.495041
v -4.374152 0.000000 -18.161873
v -7.626847 0.000000 -17.175179
v -10.624549 0.000000 -15.572874
v 0.991461 0.000000 -18.495037
v 10.624529 0.000000 -15.572885
v 7.626823 0.000000 -17.175186
v 4.374125 0.000000 -18.161877
v -0.000000 0.000000 -0.000010
v 12.228185 0.000000 -14.256804
v -12.228186 0.000000 -14.256804
v -0.991461 0.040000 -12.715341
v -3.246588 0.040000 -12.493230
v -5.415052 0.040000 -11.835433
v -7.413519 0.040000 -10.767230
v 0.991461 0.040000 -12.715340
v 7.413507 0.040000 -10.767238
v 5.415037 0.040000 -11.835439
v 3.246570 0.040000 -12.493231
v -0.000000 0.040000 -0.000010
v 8.482608 0.040000 -9.889851
v -8.482610 0.040000 -9.889851
v 0.991460 0.080000 -6.935640
v 4.202483 0.080000 -5.961589
v 3.203248 0.080000 -6.495690
v 2.119015 0.080000 -6.824586
v -0.991461 0.080000 -6.935640
v -2.119025 0.080000 -6.824584
v -3.203257 0.080000 -6.495686
v -4.202490 0.080000 -5.961585
v 4.737031 0.080000 -5.522899
v -0.000000 0.080000 -0.000010
v -4.737033 0.080000 -5.522897
v -0.991461 0.000000 18.495041
v -4.374152 0.000000 18.161873
v -7.626847 0.000000 17.175179
v -10.624549 0.000000 15.572875
v 0.991461 0.000000 18.495037
v 10.624529 0.000000 15.572885
v 7.626823 0.000000 17.175186
v 4.374125 0.000000 18.161877
v -0.000000 0.000000 0.000010
v 12.228185 0.000000 14.256804
v -12.228186 0.000000 14.256804
v -0.991461 0.040000 12.715340
v -3.246588 0.040000 12.493230
v -5.415052 0.040000 11.835433
v -7.413519 0.040000 10.767229
v 0.991461 0.040000 12.715339
v 7.413507 0.040000 10.767238
v 5.415037 0.040000 11.835439
v 3.246570 0.040000 12.493231
v -0.000000 0.040000 0.000010
v 8.482608 0.040000 9.889851
v -8.482610 0.040000 9.889851
v 0.991460 0.080000 6.935640
v 4.202483 0.080000 5.961590
v 3.203248 0.080000 6.495689
v 2.119015 0.080000 6.824587
v -0.991461 0.080000 6.935640
v -2.119025 0.080000 6.824584
v -3.203257 0.080000 6.495687
v -4.202490 0.080000 5.961585
v 4.737031 0.080000 5.522899
v -0.000000 0.080000 0.000010
v -4.737033 0.080000 5.522898
vt 0.469722 0.010435
vt 0.469731 0.010435
vt 0.470377 0.861033
vt 0.469748 0.010430
vt 0.469764 0.010418
vt 0.469779 0.010399
vt 0.469787 0.010384
vt 0.469665 0.010393
vt 0.469673 0.010407
vt 0.469688 0.010424
vt 0.469705 0.010433
vt 0.469697 0.010434
vt 0.469749 0.010434
vt 0.470372 0.860636
vt 0.469807 0.010430
vt 0.469864 0.010420
vt 0.469915 0.010403
vt 0.469943 0.010390
vt 0.469501 0.010392
vt 0.469529 0.010405
vt 0.469581 0.010421
vt 0.469638 0.010431
vt 0.469799 0.010420
vt 0.469826 0.010405
vt 0.470369 0.860751
vt 0.469840 0.010393
vt 0.469593 0.010390
vt 0.469607 0.010402
vt 0.469633 0.010418
vt 0.469661 0.010427
vt 0.469690 0.010431
vt 0.469742 0.010431
vt 0.469771 0.010429
vt 0.469722 0.010435
vt 0.470377 0.861033
vt 0.469731 0.010435
vt 0.469748 0.010430
vt 0.469764 0.010418
vt 0.469779 0.010399
vt 0.469787 0.010384
vt 0.469673 0.010407
vt 0.469665 0.010393
vt 0.469688 0.010424
vt 0.469705 0.010433
vt 0.469697 0.010434
vt 0.470372 0.860636
vt 0.469749 0.010434
vt 0.469807 0.010430
vt 0.469864 0.010420
vt 0.469915 0.010403
vt 0.469943 0.010390
vt 0.469529 0.010405
vt 0.469501 0.010392
vt 0.469581 0.010421
vt 0.469638 0.010431
vt 0.469799 0.010420
vt 0.470369 0.860751
vt 0.469826 0.010405
vt 0.469840 0.010393
vt 0.469607 0.010402
vt 0.469593 0.010390
vt 0.469633 0.010418
vt 0.469661 0.010427
vt 0.469690 0.010431
vt 0.469742 0.010431
vt 0.469771 0.010429
vn 0.0000 1.0000 0.0000
s off
f 5/1/1 1/2/1 9/3/1
f 1/2/1 2/4/1 9/3/1
f 2/4/1 3/5/1 9/3/1
f 3/5/1 4/6/1 9/3/1
f 4/6/1 11/7/1 9/3/1
f 9/3/1 10/8/1 6/9/1
f 6/9/1 7/10/1 9/3/1
f 7/10/1 8/11/1 9/3/1
f 8/11/1 5/1/1 9/3/1
f 16/12/1 12/13/1 20/14/1
f 12/13/1 13/15/1 20/14/1
f 13/15/1 14/16/1 20/14/1
f 14/16/1 15/17/1 20/14/1
f 15/17/1 22/18/1 20/14/1
f 20/14/1 21/19/1 17/20/1
f 17/20/1 18/21/1 20/14/1
f 18/21/1 19/22/1 20/14/1
f 19/22/1 16/12/1 20/14/1
f 29/23/1 30/24/1 32/25/1
f 30/24/1 33/26/1 32/25/1
f 32/25/1 31/27/1 24/28/1
f 24/28/1 25/29/1 32/25/1
f 25/29/1 26/30/1 32/25/1
f 26/30/1 23/31/1 32/25/1
f 23/31/1 27/32/1 32/25/1
f 27/32/1 28/33/1 32/25/1
f 28/33/1 29/23/1 32/25/1
f 38/34/1 42/35/1 34/36/1
f 34/36/1 42/35/1 35/37/1
f 35/37/1 42/35/1 36/38/1
f 36/38/1 42/35/1 37/39/1
f 37/39/1 42/35/1 44/40/1
f 42/35/1 39/41/1 43/42/1
f 39/41/1 42/35/1 40/43/1
f 40/43/1 42/35/1 41/44/1
f 41/44/1 42/35/1 38/34/1
f 49/45/1 53/46/1 45/47/1
f 45/47/1 53/46/1 46/48/1
f 46/48/1 53/46/1 47/49/1
f 47/49/1 53/46/1 48/50/1
f 48/50/1 53/46/1 55/51/1
f 53/46/1 50/52/1 54/53/1
f 50/52/1 53/46/1 51/54/1
f 51/54/1 53/46/1 52/55/1
f 52/55/1 53/46/1 49/45/1
f 62/56/1 65/57/1 63/58/1
f 63/58/1 65/57/1 66/59/1
f 65/57/1 57/60/1 64/61/1
f 57/60/1 65/57/1 58/62/1
f 58/62/1 65/57/1 59/63/1
f 59/63/1 65/57/1 56/64/1
f 56/64/1 65/57/1 60/65/1
f 60/65/1 65/57/1 61/66/1
f 61/66/1 65/57/1 62/56/1
