# Blender v2.82 (sub 7) OBJ File: 'smallbase.blend'
# www.blender.org
mtllib small_front_1.mtl
o front1_Circle.024
v 1.155940 0.080000 -6.935640
v 4.553144 0.080000 -5.831828
v 4.218696 0.080000 -6.057415
v 3.869325 0.080000 -6.259122
v 3.506735 0.080000 -6.435968
v 3.132692 0.080000 -6.587089
v 2.749018 0.080000 -6.711751
v 2.357583 0.080000 -6.809345
v 1.960294 0.080000 -6.879395
v 1.559086 0.080000 -6.921563
v -1.357664 0.080000 -6.932123
v -1.760099 0.080000 -6.903976
v -2.159591 0.080000 -6.847830
v -2.554193 0.080000 -6.763954
v -2.941982 0.080000 -6.652756
v -3.321070 0.080000 -6.514778
v -3.689610 0.080000 -6.350692
v -4.045806 0.080000 -6.161297
v -4.387923 0.080000 -5.947517
v -4.714294 0.080000 -5.710393
v -1.155940 0.080000 -6.935640
v 0.000000 0.080000 0.000000
v -4.821034 0.080000 -5.620827
v 4.821910 0.080000 -5.621847
vt 0.000000 0.000000
vt 0.000000 0.000000
vt 0.000000 0.000000
vt 0.000000 0.000000
vt 0.000000 0.000000
vt 0.000000 0.000000
vt 0.000000 0.000000
vt 0.000000 0.000000
vt 0.000000 0.000000
vt 0.000000 0.000000
vt 0.000000 0.000000
vt 0.000000 0.000000
vt 0.000000 0.000000
vt 0.000000 0.000000
vt 0.000000 0.000000
vt 0.000000 0.000000
vt 0.000000 0.000000
vt 0.000000 0.000000
vt 0.000000 0.000000
vt 0.000000 0.000000
vt 0.000000 0.000000
vt 0.000000 0.000000
vt 0.000000 0.000000
vt 0.000000 0.000000
vn 0.0000 1.0000 0.0000
usemtl None
s off
f 19/1/1 20/2/1 22/3/1
f 20/2/1 23/4/1 22/3/1
f 22/3/1 24/5/1 2/6/1
f 2/6/1 3/7/1 22/3/1
f 3/7/1 4/8/1 22/3/1
f 4/8/1 5/9/1 22/3/1
f 5/9/1 6/10/1 22/3/1
f 6/10/1 7/11/1 22/3/1
f 7/11/1 8/12/1 22/3/1
f 8/12/1 9/13/1 22/3/1
f 9/13/1 10/14/1 22/3/1
f 10/14/1 1/15/1 22/3/1
f 1/15/1 21/16/1 22/3/1
f 21/16/1 11/17/1 22/3/1
f 11/17/1 12/18/1 22/3/1
f 12/18/1 13/19/1 22/3/1
f 13/19/1 14/20/1 22/3/1
f 14/20/1 15/21/1 22/3/1
f 15/21/1 16/22/1 22/3/1
f 16/22/1 17/23/1 22/3/1
f 17/23/1 18/24/1 22/3/1
f 18/24/1 19/1/1 22/3/1
