# Blender v2.78 (sub 0) OBJ File: 'temps.blend'
# www.blender.org
mtllib b2.mtl
o b2_Mesh.004
v -0.134483 0.000000 0.494906
v -0.071613 -0.025000 0.081056
v -0.090826 -0.025000 0.115043
v -0.111127 -0.025000 0.148388
v -0.132508 -0.025000 0.181047
v -0.154959 -0.025000 0.212976
v -0.178473 -0.025000 0.244130
v -0.203041 -0.025000 0.274467
v -0.228655 -0.025000 0.303942
v -0.275526 -0.025000 0.353893
v -0.275526 -0.025000 0.353893
v -0.134483 -0.025000 0.494906
v -0.275526 0.000000 0.353893
v -0.275526 0.000000 0.353893
v 0.184114 -0.025000 0.003315
v 0.201524 -0.025000 -0.044991
v 0.233843 -0.025000 -0.154799
v 0.213316 -0.025000 -0.081272
v 0.242577 -0.025000 -0.191977
v 0.250288 -0.025000 -0.229386
v 0.224089 -0.025000 -0.117886
v 0.256975 -0.025000 -0.266994
v 0.262638 -0.025000 -0.304766
v -0.134483 -0.025000 0.494906
v -0.108572 -0.025000 0.468911
v -0.074173 -0.025000 0.430800
v -0.041353 -0.025000 0.391972
v -0.010105 -0.025000 0.352384
v 0.019577 -0.025000 0.311995
v 0.047702 -0.025000 0.270762
v 0.074275 -0.025000 0.228644
v 0.099304 -0.025000 0.185599
v 0.122795 -0.025000 0.141586
v 0.144756 -0.025000 0.096562
v 0.165193 -0.025000 0.050485
v -0.228655 0.000000 0.303942
v -0.203041 0.000000 0.274467
v -0.178473 0.000000 0.244130
v -0.154959 0.000000 0.212976
v -0.132508 0.000000 0.181047
v -0.111127 0.000000 0.148388
v -0.090826 0.000000 0.115043
v -0.071613 0.000000 0.081056
v -0.053496 0.000000 0.046470
v -0.036485 0.000000 0.011329
v -0.020588 0.000000 -0.024322
v -0.005813 0.000000 -0.060440
v 0.007830 0.000000 -0.096982
v 0.018664 0.000000 -0.128935
v 0.028550 0.000000 -0.161233
v 0.037489 0.000000 -0.193839
v 0.045482 0.000000 -0.226713
v 0.052532 0.000000 -0.259820
v 0.058637 0.000000 -0.293120
v 0.063801 0.000000 -0.326578
v 0.068023 0.000000 -0.360155
v 0.071305 0.000000 -0.393814
v 0.073648 0.000000 -0.427517
v 0.075053 0.000000 -0.461227
v 0.075522 0.000000 -0.494906
v 0.058637 -0.025000 -0.293120
v 0.052532 -0.025000 -0.259820
v 0.045482 -0.025000 -0.226713
v 0.037489 -0.025000 -0.193839
v 0.028550 -0.025000 -0.161233
v 0.018664 -0.025000 -0.128935
v 0.007830 -0.025000 -0.096982
v -0.005813 -0.025000 -0.060440
v -0.020588 -0.025000 -0.024322
v -0.036485 -0.025000 0.011329
v -0.053496 -0.025000 0.046470
v 0.275526 0.000000 -0.494906
v 0.275009 0.000000 -0.456819
v 0.273461 0.000000 -0.418729
v 0.270882 0.000000 -0.380667
v 0.267274 0.000000 -0.342668
v 0.262638 0.000000 -0.304766
v 0.256975 0.000000 -0.266994
v 0.250288 0.000000 -0.229386
v 0.242577 0.000000 -0.191977
v 0.233843 0.000000 -0.154799
v 0.224089 0.000000 -0.117886
v 0.213316 0.000000 -0.081272
v 0.201524 0.000000 -0.044991
v 0.184114 0.000000 0.003315
v 0.165193 0.000000 0.050485
v 0.144756 0.000000 0.096562
v 0.122795 0.000000 0.141586
v 0.099304 0.000000 0.185599
v 0.074275 0.000000 0.228644
v 0.047702 0.000000 0.270762
v 0.019577 0.000000 0.311995
v -0.010105 0.000000 0.352384
v -0.041353 0.000000 0.391972
v -0.074173 0.000000 0.430800
v -0.108572 0.000000 0.468911
v 0.267274 -0.025000 -0.342668
v 0.270882 -0.025000 -0.380667
v 0.273461 -0.025000 -0.418729
v 0.275009 -0.025000 -0.456819
v 0.275526 -0.025000 -0.494906
v 0.075522 -0.025000 -0.494906
v 0.075053 -0.025000 -0.461227
v 0.073648 -0.025000 -0.427517
v 0.071305 -0.025000 -0.393814
v 0.068023 -0.025000 -0.360155
v 0.063801 -0.025000 -0.326578
v -0.134483 0.000000 0.494906
vt 0.5038 0.6323
vt 0.4832 0.5892
vt 0.6593 0.5456
vt 0.4756 0.5716
vt 0.6342 0.4900
vt 0.6493 0.5245
vt 0.5615 0.4506
vt 0.5620 0.4502
vt 0.5626 0.4512
vt 0.5774 0.4744
vt 0.5779 0.4741
vt 0.5783 0.4747
vt 0.5883 0.4907
vt 0.5887 0.4904
vt 0.5912 0.4941
vt 0.5874 0.4894
vt 0.5879 0.4891
vt 0.5736 0.4687
vt 0.5741 0.4684
vt 0.5745 0.4691
vt 0.5803 0.4788
vt 0.5808 0.4785
vt 0.5812 0.4791
vt 0.5659 0.4571
vt 0.5663 0.4568
vt 0.5669 0.4577
vt 0.5835 0.4836
vt 0.5840 0.4833
vt 0.5845 0.4840
vt 0.5698 0.4630
vt 0.5703 0.4627
vt 0.5707 0.4634
vt 0.5609 0.4496
vt 0.5613 0.4493
vt 0.5770 0.4737
vt 0.5774 0.4734
vt 0.5869 0.4887
vt 0.5874 0.4884
vt 0.5731 0.4680
vt 0.5736 0.4677
vt 0.5799 0.4782
vt 0.5804 0.4778
vt 0.5652 0.4562
vt 0.5657 0.4559
vt 0.5830 0.4829
vt 0.5835 0.4825
vt 0.5693 0.4623
vt 0.5698 0.4620
vt 0.5765 0.4731
vt 0.5770 0.4728
vt 0.5864 0.4879
vt 0.5869 0.4876
vt 0.5726 0.4673
vt 0.5731 0.4670
vt 0.5795 0.4775
vt 0.5800 0.4772
vt 0.5646 0.4552
vt 0.5651 0.4549
vt 0.5826 0.4821
vt 0.5830 0.4818
vt 0.5688 0.4616
vt 0.5693 0.4613
vt 0.5860 0.4872
vt 0.5864 0.4869
vt 0.5722 0.4666
vt 0.5726 0.4662
vt 0.5791 0.4769
vt 0.5795 0.4766
vt 0.5640 0.4543
vt 0.5645 0.4540
vt 0.5821 0.4814
vt 0.5825 0.4811
vt 0.5684 0.4609
vt 0.5688 0.4606
vt 0.5855 0.4865
vt 0.5859 0.4862
vt 0.5717 0.4658
vt 0.5722 0.4655
vt 0.5786 0.4763
vt 0.5791 0.4760
vt 0.5634 0.4534
vt 0.5638 0.4531
vt 0.5677 0.4599
vt 0.5682 0.4596
vt 0.5816 0.4807
vt 0.5821 0.4804
vt 0.5712 0.4651
vt 0.5717 0.4648
vt 0.5850 0.4858
vt 0.5854 0.4854
vt 0.5782 0.4756
vt 0.5787 0.4753
vt 0.5628 0.4524
vt 0.5632 0.4521
vt 0.5604 0.4489
vt 0.5609 0.4486
vt 0.5812 0.4800
vt 0.5816 0.4797
vt 0.5671 0.4590
vt 0.5676 0.4587
vt 0.5845 0.4850
vt 0.5850 0.4847
vt 0.5707 0.4644
vt 0.5712 0.4641
vt 0.5778 0.4750
vt 0.5621 0.4515
vt 0.5741 0.4694
vt 0.5807 0.4794
vt 0.5665 0.4580
vt 0.5840 0.4843
vt 0.5703 0.4637
vt 0.5907 0.4944
vt 0.5932 0.4981
vt 0.5907 0.4944
vt 0.6579 0.8717
vt 0.8006 0.7674
vt 0.6887 0.9088
vt 0.7338 0.6764
vt 0.7550 0.7075
vt 0.6007 0.7952
vt 0.6944 0.6122
vt 0.7136 0.6446
vt 0.5493 0.7155
vt 0.6763 0.5792
vt 0.4299 0.4538
vt 0.4188 0.4191
vt 0.5919 0.3755
vt 0.8250 0.7962
vt 0.7209 0.9453
vt 0.5746 0.3127
vt 0.5828 0.3442
vt 0.4087 0.3841
vt 0.5610 0.2489
vt 0.5673 0.2809
vt 0.3913 0.3132
vt 0.5509 0.1843
vt 0.5555 0.2167
vt 0.3778 0.2414
vt 0.5446 0.1194
vt 0.5473 0.1519
vt 0.3681 0.1690
vt 0.3622 0.0963
vt 0.5427 0.0868
vt 0.3647 0.1327
vt 0.7452 0.9706
vt 0.7203 0.9445
vt 0.8700 0.8452
vt 0.5418 0.0543
vt 0.3608 0.0598
vt 0.5418 0.0218
vt 0.3724 0.2053
vt 0.4462 0.5000
vt 0.6020 0.4065
vt 0.4640 0.5451
vt 0.6285 0.4769
vt 0.5743 0.7558
vt 0.7453 0.9701
vt 0.8695 0.8449
vt 0.3841 0.2774
vt 0.6285 0.8339
vt 0.6147 0.4419
vt 0.6433 0.5115
vt 0.3603 0.0234
vt 0.7773 0.7378
vt 0.3995 0.3488
vt 0.5258 0.6743
vt 0.5604 0.4479
vt 0.5609 0.4486
vt 0.4400 0.4819
vt 0.6072 0.4197
vt 0.6201 0.4551
vt 0.8049 0.7724
vt 0.6726 0.8902
vt 0.6498 0.8620
vt 0.7460 0.6943
vt 0.7649 0.7209
vt 0.6064 0.8038
vt 0.7105 0.6395
vt 0.7278 0.6671
vt 0.5663 0.7433
vt 0.6782 0.5828
vt 0.6939 0.6114
vt 0.5294 0.6807
vt 0.6633 0.5538
vt 0.4961 0.6161
vt 0.4569 0.5269
vt 0.5846 0.3479
vt 0.5953 0.3840
vt 0.4247 0.4366
vt 0.5667 0.2748
vt 0.5750 0.3115
vt 0.3992 0.3448
vt 0.5536 0.2006
vt 0.5595 0.2378
vt 0.3802 0.2514
vt 0.5455 0.1258
vt 0.5489 0.1633
vt 0.3677 0.1561
vt 0.4111 0.3909
vt 0.5434 0.0882
vt 0.3613 0.0586
vt 0.5422 0.0221
vt 0.7846 0.7470
vt 0.6277 0.8332
vt 0.3732 0.2040
vt 0.3637 0.1076
vt 0.3889 0.2984
vt 0.5474 0.7123
vt 0.8477 0.8216
vt 0.3612 0.0235
vt 0.5860 0.7739
vt 0.8260 0.7973
vt 0.6961 0.9177
vt 0.5123 0.6486
vn 0.0000 1.0000 0.0000
vn 0.0000 -1.0000 -0.0000
vn 0.7637 0.0000 0.6455
vn -0.9976 0.0000 -0.0694
vn -0.7070 0.0000 0.7072
vn -0.7292 0.0000 -0.6843
vn 0.9999 0.0000 0.0136
vn -0.9644 0.0000 -0.2644
vn 0.8988 0.0000 0.4384
vn -0.8858 0.0000 -0.4640
vn 0.9735 0.0000 0.2287
vn 0.7423 0.0000 0.6700
vn -0.9991 0.0000 -0.0416
vn -0.7548 0.0000 -0.6559
vn 0.9992 0.0000 0.0406
vn -0.9717 0.0000 -0.2363
vn 0.8822 0.0000 0.4709
vn -0.9001 0.0000 -0.4357
vn 0.9668 0.0000 0.2555
vn -0.9999 0.0000 -0.0139
vn -0.7771 0.0000 -0.6293
vn 0.9977 0.0000 0.0676
vn -0.9781 0.0000 -0.2083
vn 0.8645 0.0000 0.5027
vn -0.9133 0.0000 -0.4073
vn 0.9593 0.0000 0.2823
vn -0.7982 0.0000 -0.6024
vn 0.9955 0.0000 0.0945
vn -0.9836 0.0000 -0.1803
vn 0.8457 0.0000 0.5336
vn -0.9256 0.0000 -0.3786
vn 0.9510 0.0000 0.3091
vn -0.8180 0.0000 -0.5752
vn 0.9926 0.0000 0.1214
vn -0.9883 0.0000 -0.1525
vn 0.8261 0.0000 0.5635
vn 0.9408 0.0000 0.3391
vn -0.9368 0.0000 -0.3498
vn 0.9889 0.0000 0.1483
vn -0.8367 0.0000 -0.5477
vn -0.9922 0.0000 -0.1248
vn 0.8058 0.0000 0.5922
vn 0.7083 0.0000 0.7060
vn -0.9470 0.0000 -0.3211
vn 0.9281 0.0000 0.3723
vn -0.8542 0.0000 -0.5200
vn 0.9846 0.0000 0.1751
vn -0.9953 0.0000 -0.0971
vn 0.7849 0.0000 0.6196
vn 0.0000 0.0000 -1.0000
vn -0.9562 0.0000 -0.2927
vn 0.9141 0.0000 0.4055
vn -0.8705 0.0000 -0.4921
vn 0.9794 0.0000 0.2019
vn 0.0000 0.0000 1.0000
usemtl None
s off
f 88/1/1 87/2/1 44/3/1
f 15/4/2 68/5/2 67/6/2
f 95/7/3 26/8/3 27/9/3
f 58/10/4 104/11/4 105/12/4
f 14/13/5 10/14/5 12/15/5
f 36/16/6 9/17/6 10/14/6
f 73/18/7 100/19/7 101/20/7
f 51/21/8 64/22/8 65/23/8
f 88/24/9 33/25/9 34/26/9
f 44/27/10 71/28/10 2/29/10
f 81/30/11 17/31/11 19/32/11
f 96/33/12 25/34/12 26/8/12
f 59/35/13 103/36/13 104/11/13
f 37/37/14 8/38/14 9/17/14
f 74/39/15 99/40/15 100/19/15
f 52/41/16 63/42/16 64/22/16
f 89/43/17 32/44/17 33/25/17
f 44/27/18 45/45/18 70/46/18
f 82/47/19 21/48/19 17/31/19
f 60/49/20 102/50/20 103/36/20
f 37/37/21 38/51/21 7/52/21
f 75/53/22 98/54/22 99/40/22
f 53/55/23 62/56/23 63/42/23
f 90/57/24 31/58/24 32/44/24
f 45/45/25 46/59/25 69/60/25
f 83/61/26 18/62/26 21/48/26
f 38/51/27 39/63/27 6/64/27
f 76/65/28 97/66/28 98/54/28
f 54/67/29 61/68/29 62/56/29
f 91/69/30 30/70/30 31/58/30
f 47/71/31 68/72/31 69/60/31
f 84/73/32 16/74/32 18/62/32
f 40/75/33 5/76/33 6/64/33
f 76/65/34 77/77/34 23/78/34
f 55/79/35 107/80/35 61/68/35
f 92/81/36 29/82/36 30/70/36
f 85/83/37 15/84/37 16/74/37
f 48/85/38 67/86/38 68/72/38
f 78/87/39 22/88/39 23/78/39
f 41/89/40 4/90/40 5/76/40
f 56/91/41 106/92/41 107/80/41
f 93/93/42 28/94/42 29/82/42
f 96/33/43 108/95/43 24/96/43
f 49/97/44 66/98/44 67/86/44
f 86/99/45 35/100/45 15/84/45
f 42/101/46 3/102/46 4/90/46
f 79/103/47 20/104/47 22/88/47
f 57/105/48 105/12/48 106/92/48
f 93/93/49 94/106/49 27/9/49
f 60/49/50 72/107/50 101/20/50
f 50/108/51 65/23/51 66/98/51
f 87/109/52 34/26/52 35/100/52
f 43/110/53 2/29/53 3/102/53
f 80/111/54 19/32/54 20/104/54
f 1/112/55 13/113/55 108/114/55
f 94/115/1 37/116/1 95/117/1
f 40/118/1 39/119/1 92/120/1
f 42/121/1 41/122/1 90/123/1
f 44/3/1 43/124/1 88/1/1
f 84/125/1 83/126/1 49/127/1
f 36/128/1 96/129/1 95/117/1
f 51/130/1 50/131/1 82/132/1
f 53/133/1 52/134/1 80/135/1
f 55/136/1 54/137/1 78/138/1
f 57/139/1 56/140/1 76/141/1
f 74/142/1 58/143/1 75/144/1
f 101/145/2 100/146/2 102/147/2
f 59/148/1 73/149/1 60/150/1
f 14/13/55 1/112/55 108/114/55
f 77/151/1 56/140/1 55/136/1
f 85/152/1 84/125/1 48/153/1
f 87/2/1 86/154/1 46/155/1
f 41/122/1 91/156/1 90/123/1
f 78/138/1 77/151/1 55/136/1
f 83/126/1 50/131/1 49/127/1
f 56/140/1 77/151/1 76/141/1
f 108/157/1 96/129/1 14/158/1
f 59/148/1 74/142/1 73/149/1
f 76/141/1 75/144/1 57/139/1
f 79/159/1 54/137/1 53/133/1
f 74/142/1 59/148/1 58/143/1
f 39/119/1 93/160/1 92/120/1
f 54/137/1 79/159/1 78/138/1
f 85/152/1 48/153/1 47/161/1
f 37/116/1 36/128/1 95/117/1
f 91/156/1 41/122/1 40/118/1
f 87/2/1 45/162/1 44/3/1
f 73/149/1 72/163/1 60/150/1
f 94/115/1 38/164/1 37/116/1
f 81/165/1 52/134/1 51/130/1
f 94/115/1 93/160/1 38/164/1
f 89/166/1 43/124/1 42/121/1
f 84/125/1 49/127/1 48/153/1
f 86/154/1 47/161/1 46/155/1
f 75/144/1 58/143/1 57/139/1
f 50/131/1 83/126/1 82/132/1
f 90/123/1 89/166/1 42/121/1
f 82/132/1 81/165/1 51/130/1
f 96/129/1 36/128/1 14/158/1
f 80/135/1 79/159/1 53/133/1
f 52/134/1 81/165/1 80/135/1
f 24/96/55 11/167/55 12/168/55
f 93/160/1 39/119/1 38/164/1
f 92/120/1 91/156/1 40/118/1
f 43/124/1 89/166/1 88/1/1
f 87/2/1 46/155/1 45/162/1
f 86/154/1 85/152/1 47/161/1
f 34/169/2 70/170/2 69/171/2
f 105/172/2 98/173/2 97/174/2
f 61/175/2 107/176/2 22/177/2
f 63/178/2 62/179/2 19/180/2
f 65/181/2 64/182/2 21/183/2
f 67/6/2 66/184/2 16/185/2
f 69/171/2 68/5/2 35/186/2
f 2/187/2 71/188/2 33/189/2
f 4/190/2 3/191/2 31/192/2
f 6/193/2 5/194/2 29/195/2
f 8/196/2 7/197/2 27/198/2
f 32/199/2 3/191/2 2/187/2
f 25/34/55 24/96/55 12/168/55
f 9/200/2 25/201/2 10/202/2
f 57/105/4 58/10/4 105/12/4
f 107/176/2 106/203/2 23/204/2
f 68/5/2 15/4/2 35/186/2
f 16/185/2 15/4/2 67/6/2
f 33/189/2 32/199/2 2/187/2
f 29/195/2 28/205/2 6/193/2
f 26/206/2 25/201/2 9/200/2
f 28/205/2 7/197/2 6/193/2
f 5/194/2 30/207/2 29/195/2
f 17/208/2 64/182/2 63/178/2
f 7/197/2 28/205/2 27/198/2
f 31/192/2 30/207/2 4/190/2
f 8/196/2 26/206/2 9/200/2
f 100/146/2 103/209/2 102/147/2
f 94/106/3 95/7/3 27/9/3
f 25/201/2 12/210/2 10/202/2
f 106/203/2 97/174/2 23/204/2
f 8/196/2 27/198/2 26/206/2
f 20/211/2 62/179/2 61/175/2
f 105/172/2 104/212/2 98/173/2
f 62/179/2 20/211/2 19/180/2
f 35/186/2 34/169/2 69/171/2
f 104/212/2 103/209/2 99/213/2
f 22/177/2 20/211/2 61/175/2
f 34/169/2 71/188/2 70/170/2
f 18/214/2 66/184/2 65/181/2
f 106/203/2 105/172/2 97/174/2
f 71/188/2 34/169/2 33/189/2
f 19/180/2 17/208/2 63/178/2
f 66/184/2 18/214/2 16/185/2
f 3/191/2 32/199/2 31/192/2
f 21/183/2 18/214/2 65/181/2
f 107/176/2 23/204/2 22/177/2
f 103/209/2 100/146/2 99/213/2
f 30/207/2 5/194/2 4/190/2
f 64/182/2 17/208/2 21/183/2
f 104/212/2 99/213/2 98/173/2
f 1/112/5 14/13/5 12/15/5
f 14/13/6 36/16/6 10/14/6
f 72/107/7 73/18/7 101/20/7
f 50/108/8 51/21/8 65/23/8
f 87/109/9 88/24/9 34/26/9
f 43/110/10 44/27/10 2/29/10
f 80/111/11 81/30/11 19/32/11
f 95/7/12 96/33/12 26/8/12
f 58/10/13 59/35/13 104/11/13
f 36/16/14 37/37/14 9/17/14
f 73/18/15 74/39/15 100/19/15
f 51/21/16 52/41/16 64/22/16
f 88/24/17 89/43/17 33/25/17
f 71/28/18 44/27/18 70/46/18
f 81/30/19 82/47/19 17/31/19
f 59/35/20 60/49/20 103/36/20
f 8/38/21 37/37/21 7/52/21
f 74/39/22 75/53/22 99/40/22
f 52/41/23 53/55/23 63/42/23
f 89/43/24 90/57/24 32/44/24
f 70/46/25 45/45/25 69/60/25
f 82/47/26 83/61/26 21/48/26
f 7/52/27 38/51/27 6/64/27
f 75/53/28 76/65/28 98/54/28
f 53/55/29 54/67/29 62/56/29
f 90/57/30 91/69/30 31/58/30
f 46/59/31 47/71/31 69/60/31
f 83/61/32 84/73/32 18/62/32
f 39/63/33 40/75/33 6/64/33
f 97/66/34 76/65/34 23/78/34
f 54/67/35 55/79/35 61/68/35
f 91/69/36 92/81/36 30/70/36
f 84/73/37 85/83/37 16/74/37
f 47/71/38 48/85/38 68/72/38
f 77/77/39 78/87/39 23/78/39
f 40/75/40 41/89/40 5/76/40
f 55/79/41 56/91/41 107/80/41
f 92/81/42 93/93/42 29/82/42
f 25/34/43 96/33/43 24/96/43
f 48/85/44 49/97/44 67/86/44
f 85/83/45 86/99/45 15/84/45
f 41/89/46 42/101/46 4/90/46
f 78/87/47 79/103/47 22/88/47
f 56/91/48 57/105/48 106/92/48
f 28/94/49 93/93/49 27/9/49
f 102/50/50 60/49/50 101/20/50
f 49/97/51 50/108/51 66/98/51
f 86/99/52 87/109/52 35/100/52
f 42/101/53 43/110/53 3/102/53
f 79/103/54 80/111/54 20/104/54
