# Blender v2.78 (sub 0) OBJ File: 'temps.blend'
# www.blender.org
mtllib s1.mtl
o s1_Mesh.010
v 0.100002 0.000000 -0.199962
v 0.100002 0.000000 0.199962
v -0.100002 0.000000 0.199962
v -0.100002 0.000000 -0.199962
v -0.100002 0.025000 -0.199962
v -0.100002 0.025000 0.199962
v 0.100002 0.025000 0.199962
v 0.100002 0.025000 -0.199962
vt 0.4532 0.9325
vt 0.0178 0.9325
vt 0.0178 0.0620
vt 0.4532 0.0620
vt 0.4532 0.9325
vt 0.0178 0.9325
vt 0.6309 0.4508
vt 0.6337 0.4123
vt 0.6417 0.4060
vt 0.5651 0.4108
vt 0.5603 0.4060
vt 0.5622 0.4494
vt 0.5543 0.4557
vt 0.6356 0.4557
vt 0.4532 0.0620
vt 0.0178 0.0620
vn 0.0000 -1.0000 0.0000
vn 0.0000 1.0000 0.0000
vn 0.0000 0.0000 -1.0000
vn -1.0000 0.0000 0.0000
vn 0.0000 0.0000 1.0000
vn 1.0000 0.0000 0.0000
usemtl None
s off
f 2/1/1 3/2/1 4/3/1
f 5/4/2 6/5/2 7/6/2
f 1/7/3 4/8/3 5/9/3
f 3/10/4 6/11/4 5/9/4
f 3/10/5 2/12/5 7/13/5
f 1/7/6 8/14/6 7/13/6
f 1/15/1 2/1/1 4/3/1
f 8/16/2 5/4/2 7/6/2
f 8/14/3 1/7/3 5/9/3
f 4/8/4 3/10/4 5/9/4
f 6/11/5 3/10/5 7/13/5
f 2/12/6 1/7/6 7/13/6
