# Blender v2.78 (sub 0) OBJ File: 'temps.blend'
# www.blender.org
mtllib s2.mtl
o s2_Mesh.009
v 0.100002 0.000000 -0.399924
v 0.100002 0.000000 0.399924
v -0.100002 0.000000 0.399924
v -0.100002 0.000000 -0.399924
v -0.100002 0.025000 -0.399924
v -0.100002 0.025000 0.399924
v 0.100002 0.025000 0.399924
v 0.100002 0.025000 -0.399924
vt 0.2575 0.9850
vt 0.0206 0.9850
vt 0.0206 0.0192
vt 0.2577 0.0192
vt 0.2577 0.9850
vt 0.0208 0.9850
vt 0.2347 0.5206
vt 0.2404 0.5143
vt 0.2449 0.5702
vt 0.0861 0.5195
vt 0.0780 0.5143
vt 0.0882 0.5639
vt 0.0824 0.5702
vt 0.2368 0.5650
vt 0.2575 0.0192
vt 0.0208 0.0192
vn 0.0000 -1.0000 0.0000
vn 0.0000 1.0000 0.0000
vn 0.0000 0.0000 -1.0000
vn -1.0000 0.0000 0.0000
vn 0.0000 0.0000 1.0000
vn 1.0000 0.0000 0.0000
usemtl None
s off
f 2/1/1 3/2/1 4/3/1
f 5/4/2 6/5/2 7/6/2
f 4/7/3 5/8/3 8/9/3
f 3/10/4 6/11/4 5/8/4
f 2/12/5 7/13/5 6/11/5
f 1/14/6 8/9/6 7/13/6
f 1/15/1 2/1/1 4/3/1
f 8/16/2 5/4/2 7/6/2
f 1/14/3 4/7/3 8/9/3
f 4/7/4 3/10/4 5/8/4
f 3/10/5 2/12/5 6/11/5
f 2/12/6 1/14/6 7/13/6
