# Blender v2.82 (sub 7) OBJ File: ''
# www.blender.org
mtllib s2.mtl
v 0.100002 -0.000000 0.399924
v -0.100002 -0.000000 0.399924
v -0.100002 0.000000 -0.399924
v -0.100002 0.025000 -0.399924
v -0.100002 0.025000 0.399924
v 0.100002 0.025000 0.399924
v 0.100002 0.025000 -0.399924
v 0.100002 0.000000 -0.399924
vt 0.257500 0.985000
vt 0.020600 0.985000
vt 0.020600 0.019200
vt 0.257700 0.019200
vt 0.257700 0.985000
vt 0.020800 0.985000
vt 0.957356 0.915132
vt 0.963056 0.908831
vt 0.967556 0.964732
vt 0.808756 0.914032
vt 0.800656 0.908831
vt 0.810856 0.958431
vt 0.805056 0.964732
vt 0.959456 0.959531
vt 0.257500 0.019200
vt 0.020800 0.019200
vn 0.0000 -1.0000 -0.0000
vn 0.0000 1.0000 0.0000
vn 0.0000 0.0000 -1.0000
vn -1.0000 0.0000 0.0000
vn 0.0000 0.0000 1.0000
vn 1.0000 0.0000 0.0000
usemtl None.002
s 1
f 1/1/1 2/2/1 3/3/1
f 4/4/2 5/5/2 6/6/2
f 3/7/3 4/8/3 7/9/3
f 2/10/4 5/11/4 4/8/4
f 1/12/5 6/13/5 5/11/5
f 8/14/6 7/9/6 6/13/6
f 8/15/1 1/1/1 3/3/1
f 7/16/2 4/4/2 6/6/2
f 8/14/3 3/7/3 7/9/3
f 3/7/4 2/10/4 4/8/4
f 2/10/5 1/12/5 5/11/5
f 1/12/6 8/14/6 6/13/6
