# Blender v2.78 (sub 0) OBJ File: 'temps.blend'
# www.blender.org
mtllib s3.mtl
o s3_Mesh.008
v 0.100002 0.000000 -0.599886
v 0.100002 0.000000 0.599885
v -0.100002 0.000000 0.599885
v -0.100002 0.000000 -0.599886
v -0.100002 0.025000 -0.599886
v -0.100002 0.025000 0.599885
v 0.100002 0.025000 0.599885
v 0.100002 0.025000 -0.599886
vt 0.2096 0.9915
vt 0.0509 0.9915
vt 0.0509 0.0220
vt 0.2104 0.0220
vt 0.2104 0.9915
vt 0.0517 0.9915
vt 0.3569 0.3525
vt 0.3561 0.3372
vt 0.3589 0.3350
vt 0.2799 0.3366
vt 0.2779 0.3349
vt 0.2807 0.3519
vt 0.2779 0.3542
vt 0.3589 0.3542
vt 0.2096 0.0220
vt 0.0517 0.0220
vn 0.0000 -1.0000 0.0000
vn 0.0000 1.0000 0.0000
vn 0.0000 0.0000 -1.0000
vn -1.0000 0.0000 0.0000
vn 0.0000 0.0000 1.0000
vn 1.0000 0.0000 0.0000
usemtl None
s off
f 2/1/1 3/2/1 4/3/1
f 5/4/2 6/5/2 7/6/2
f 1/7/3 4/8/3 5/9/3
f 3/10/4 6/11/4 5/9/4
f 3/10/5 2/12/5 7/13/5
f 1/7/6 8/14/6 7/13/6
f 1/15/1 2/1/1 4/3/1
f 8/16/2 5/4/2 7/6/2
f 8/14/3 1/7/3 5/9/3
f 4/8/4 3/10/4 5/9/4
f 6/11/5 3/10/5 7/13/5
f 2/12/6 1/7/6 7/13/6
