# Blender v2.82 (sub 7) OBJ File: ''
# www.blender.org
mtllib s3.mtl
o s3_Mesh.008
v 0.100002 -0.000000 0.599885
v -0.100002 -0.000000 0.599885
v -0.100002 0.000000 -0.599886
v -0.100002 0.025000 -0.599886
v -0.100002 0.025000 0.599885
v 0.100002 0.025000 0.599885
v 0.100002 0.000000 -0.599886
v 0.100002 0.025000 -0.599886
vt 0.209600 0.991500
vt 0.050900 0.991500
vt 0.050900 0.022000
vt 0.210400 0.022000
vt 0.210400 0.991500
vt 0.051700 0.991500
vt 0.966275 0.969687
vt 0.965475 0.954387
vt 0.968275 0.952188
vt 0.889275 0.953788
vt 0.887275 0.952088
vt 0.890075 0.969087
vt 0.887275 0.971388
vt 0.968275 0.971388
vt 0.209600 0.022000
vt 0.051700 0.022000
vn 0.0000 -1.0000 -0.0000
vn 0.0000 1.0000 0.0000
vn 0.0000 0.0000 -1.0000
vn -1.0000 0.0000 0.0000
vn 0.0000 0.0000 1.0000
vn 1.0000 0.0000 0.0000
usemtl None.001
s 1
f 1/1/1 2/2/1 3/3/1
f 4/4/2 5/5/2 6/6/2
f 7/7/3 3/8/3 4/9/3
f 2/10/4 5/11/4 4/9/4
f 2/10/5 1/12/5 6/13/5
f 7/7/6 8/14/6 6/13/6
f 7/15/1 1/1/1 3/3/1
f 8/16/2 4/4/2 6/6/2
f 8/14/3 7/7/3 4/9/3
f 3/8/4 2/10/4 4/9/4
f 5/11/5 2/10/5 6/13/5
f 1/12/6 7/7/6 6/13/6
