# Blender v2.78 (sub 0) OBJ File: 'temps.blend'
# www.blender.org
mtllib s4.mtl
o s4_Mesh.007
v 0.100002 0.000000 -0.799847
v 0.100002 0.000000 0.799848
v -0.100002 0.000000 0.799848
v -0.100002 0.000000 -0.799847
v -0.100002 0.025000 -0.799847
v -0.100002 0.025000 0.799848
v 0.100002 0.025000 0.799848
v 0.100002 0.025000 -0.799847
vt 0.1420 0.9647
vt 0.0245 0.9647
vt 0.0245 0.0198
vt 0.1422 0.0198
vt 0.1422 0.9647
vt 0.0246 0.9647
vt 0.3287 0.2982
vt 0.3015 0.2981
vt 0.2973 0.2929
vt 0.3005 0.4724
vt 0.2973 0.4759
vt 0.3277 0.4725
vt 0.3319 0.4777
vt 0.3319 0.2947
vt 0.1420 0.0198
vt 0.0246 0.0198
vn 0.0000 -1.0000 0.0000
vn 0.0000 1.0000 0.0000
vn 0.0000 0.0000 -1.0000
vn -1.0000 0.0000 0.0000
vn 0.0000 0.0000 1.0000
vn 1.0000 0.0000 0.0000
usemtl None
s off
f 2/1/1 3/2/1 4/3/1
f 5/4/2 6/5/2 7/6/2
f 1/7/3 4/8/3 5/9/3
f 3/10/4 6/11/4 5/9/4
f 3/10/5 2/12/5 7/13/5
f 1/7/6 8/14/6 7/13/6
f 1/15/1 2/1/1 4/3/1
f 8/16/2 5/4/2 7/6/2
f 8/14/3 1/7/3 5/9/3
f 4/8/4 3/10/4 5/9/4
f 6/11/5 3/10/5 7/13/5
f 2/12/6 1/7/6 7/13/6
