# Blender v2.78 (sub 0) OBJ File: 'temps.blend'
# www.blender.org
mtllib s5.mtl
o s5_Mesh.006
v 0.100002 0.000000 -0.999809
v 0.100002 0.000000 0.999809
v -0.100002 0.000000 0.999809
v -0.100002 0.000000 -0.999809
v -0.100002 0.025000 -0.999809
v -0.100002 0.025000 0.999809
v 0.100002 0.025000 0.999809
v 0.100002 0.025000 -0.999809
vt 0.1419 0.9855
vt 0.0469 0.9855
vt 0.0469 0.0156
vt 0.1414 0.0156
vt 0.1414 0.9855
vt 0.0464 0.9855
vt 0.0934 0.2801
vt 0.0767 0.2807
vt 0.0736 0.2775
vt 0.0758 0.4088
vt 0.0736 0.4111
vt 0.0926 0.4082
vt 0.0956 0.4114
vt 0.0957 0.2777
vt 0.1419 0.0156
vt 0.0464 0.0156
vn 0.0000 -1.0000 0.0000
vn 0.0000 1.0000 0.0000
vn 0.0000 0.0000 -1.0000
vn -1.0000 0.0000 0.0000
vn 0.0000 0.0000 1.0000
vn 1.0000 0.0000 0.0000
usemtl None
s off
f 2/1/1 3/2/1 4/3/1
f 5/4/2 6/5/2 7/6/2
f 1/7/3 4/8/3 5/9/3
f 3/10/4 6/11/4 5/9/4
f 3/10/5 2/12/5 7/13/5
f 1/7/6 8/14/6 7/13/6
f 1/15/1 2/1/1 4/3/1
f 8/16/2 5/4/2 7/6/2
f 8/14/3 1/7/3 5/9/3
f 4/8/4 3/10/4 5/9/4
f 6/11/5 3/10/5 7/13/5
f 2/12/6 1/7/6 7/13/6
