# Blender v2.78 (sub 0) OBJ File: 'temps.blend'
# www.blender.org
mtllib t2.mtl
o t2_Mesh.001
v -0.362507 0.000000 0.162469
v -0.326862 0.000000 0.161261
v -0.291556 0.000000 0.157666
v -0.256704 0.000000 0.151730
v -0.222421 0.000000 0.143499
v -0.188823 0.000000 0.133019
v -0.156027 0.000000 0.120335
v -0.124147 0.000000 0.105492
v -0.093299 0.000000 0.088536
v -0.063599 0.000000 0.069514
v -0.035162 0.000000 0.048470
v -0.008103 0.000000 0.025450
v 0.017460 0.000000 0.000500
v 0.030244 0.000000 -0.013372
v 0.348277 0.025000 -0.218911
v 0.054228 0.000000 -0.042484
v 0.355238 0.025000 -0.259615
v 0.076039 0.000000 -0.073266
v 0.359887 0.025000 -0.300632
v 0.095600 0.000000 -0.105531
v 0.362216 0.025000 -0.341819
v 0.112836 0.000000 -0.139093
v 0.362507 0.025000 -0.362431
v 0.127670 0.000000 -0.173767
v 0.162503 0.025000 -0.362431
v 0.138703 0.000000 -0.205203
v 0.162308 0.025000 -0.347988
v 0.146590 0.000000 -0.233113
v 0.160741 0.025000 -0.319055
v 0.152888 0.000000 -0.261482
v 0.157603 0.025000 -0.290174
v 0.157603 0.000000 -0.290174
v 0.152888 0.025000 -0.261482
v 0.160741 0.000000 -0.319055
v 0.146590 0.025000 -0.233113
v 0.162308 0.000000 -0.347988
v 0.162503 0.000000 -0.362431
v 0.134974 0.025000 0.165104
v 0.157992 0.025000 0.142927
v 0.158463 0.025000 0.142473
v 0.176053 0.025000 0.123444
v 0.209182 0.025000 0.083677
v 0.239454 0.025000 0.041766
v 0.266725 0.025000 -0.002127
v 0.290849 0.025000 -0.047842
v 0.311681 0.025000 -0.095218
v 0.327454 0.025000 -0.139026
v 0.339013 0.025000 -0.178666
v 0.362507 0.000000 -0.362431
v 0.362216 0.000000 -0.341819
v 0.138703 0.025000 -0.205203
v 0.359887 0.000000 -0.300632
v 0.127670 0.025000 -0.173767
v 0.355238 0.000000 -0.259615
v 0.112836 0.025000 -0.139093
v 0.348277 0.000000 -0.218911
v 0.095600 0.025000 -0.105531
v 0.339013 0.000000 -0.178666
v 0.076039 0.025000 -0.073266
v 0.327454 0.000000 -0.139026
v 0.054228 0.025000 -0.042484
v 0.311681 0.000000 -0.095218
v 0.030244 0.025000 -0.013372
v 0.290849 0.000000 -0.047842
v 0.017460 0.025000 0.000500
v 0.266725 0.000000 -0.002127
v -0.008103 0.025000 0.025450
v 0.239454 0.000000 0.041766
v -0.035162 0.025000 0.048470
v 0.209182 0.000000 0.083677
v -0.063599 0.025000 0.069514
v 0.176053 0.000000 0.123444
v 0.158463 0.000000 0.142473
v 0.157992 0.000000 0.142927
v -0.093299 0.025000 0.088536
v -0.124147 0.025000 0.105492
v -0.156027 0.025000 0.120335
v -0.188823 0.025000 0.133019
v -0.222421 0.025000 0.143499
v -0.256704 0.025000 0.151730
v -0.291556 0.025000 0.157666
v -0.326862 0.025000 0.161261
v -0.362507 0.025000 0.162469
v 0.134974 0.000000 0.165104
v 0.134503 0.000000 0.165558
v 0.099639 0.000000 0.196110
v 0.063284 0.000000 0.224237
v 0.025529 0.000000 0.249896
v -0.013539 0.000000 0.273042
v -0.053828 0.000000 0.293631
v -0.095248 0.000000 0.311618
v -0.137711 0.000000 0.326960
v -0.181125 0.000000 0.339611
v -0.225402 0.000000 0.349528
v -0.270451 0.000000 0.356667
v -0.316183 0.000000 0.360982
v -0.362507 0.000000 0.362431
v -0.270451 0.025000 0.356667
v -0.225402 0.025000 0.349528
v -0.181125 0.025000 0.339611
v -0.137711 0.025000 0.326960
v -0.095248 0.025000 0.311618
v -0.053828 0.025000 0.293631
v -0.013539 0.025000 0.273042
v 0.025529 0.025000 0.249896
v 0.063284 0.025000 0.224237
v 0.099639 0.025000 0.196110
v 0.134503 0.025000 0.165558
v -0.316183 0.025000 0.360982
v -0.362507 0.025000 0.362431
vt 0.4051 0.5771
vt 0.3456 0.5241
vt 0.2736 0.7015
vt 0.4808 0.4903
vt 0.5795 0.3385
vt 0.5912 0.3517
vt 0.4748 0.3425
vt 0.4747 0.3399
vt 0.4777 0.3397
vt 0.4181 0.3333
vt 0.4178 0.3314
vt 0.4206 0.3310
vt 0.4002 0.3226
vt 0.4018 0.3240
vt 0.4000 0.3261
vt 0.4794 0.3161
vt 0.4785 0.3182
vt 0.4750 0.3168
vt 0.4458 0.3371
vt 0.4471 0.3338
vt 0.4517 0.3357
vt 0.4245 0.3115
vt 0.4250 0.3136
vt 0.4213 0.3146
vt 0.4575 0.3101
vt 0.4623 0.3109
vt 0.4619 0.3132
vt 0.4208 0.3330
vt 0.4237 0.3307
vt 0.4639 0.3418
vt 0.4643 0.3391
vt 0.4683 0.3396
vt 0.4022 0.3358
vt 0.4029 0.3343
vt 0.4051 0.3343
vt 0.4895 0.3214
vt 0.4882 0.3233
vt 0.4851 0.3214
vt 0.4207 0.3125
vt 0.4178 0.3157
vt 0.4778 0.3423
vt 0.4806 0.3394
vt 0.4449 0.3087
vt 0.4448 0.3114
vt 0.4416 0.3114
vt 0.4237 0.3330
vt 0.4272 0.3306
vt 0.4758 0.3146
vt 0.4710 0.3155
vt 0.4052 0.3361
vt 0.4076 0.3338
vt 0.4552 0.3401
vt 0.4507 0.3387
vt 0.4171 0.3137
vt 0.4144 0.3169
vt 0.4572 0.3124
vt 0.4524 0.3118
vt 0.4270 0.3333
vt 0.4319 0.3307
vt 0.4415 0.3087
vt 0.4415 0.3114
vt 0.4680 0.3423
vt 0.4717 0.3398
vt 0.4079 0.3357
vt 0.4100 0.3332
vt 0.4862 0.3194
vt 0.4818 0.3197
vt 0.4136 0.3150
vt 0.4110 0.3184
vt 0.4809 0.3420
vt 0.4834 0.3390
vt 0.4315 0.3342
vt 0.4397 0.3311
vt 0.4940 0.3258
vt 0.4885 0.3397
vt 0.4872 0.3380
vt 0.4414 0.3087
vt 0.4369 0.3116
vt 0.4717 0.3132
vt 0.4665 0.3142
vt 0.4130 0.3343
vt 0.4105 0.3350
vt 0.4102 0.3165
vt 0.4078 0.3200
vt 0.4561 0.3372
vt 0.4602 0.3383
vt 0.3982 0.3259
vt 0.4476 0.3089
vt 0.4526 0.3095
vt 0.4917 0.3265
vt 0.4908 0.3254
vt 0.4366 0.3092
vt 0.4327 0.3121
vt 0.4432 0.3361
vt 0.4386 0.3350
vt 0.4716 0.3425
vt 0.4155 0.3338
vt 0.4125 0.3325
vt 0.4828 0.3177
vt 0.4034 0.3201
vt 0.4068 0.3182
vt 0.4840 0.3415
vt 0.4860 0.3384
vt 0.4474 0.3115
vt 0.4449 0.3114
vt 0.4443 0.3325
vt 0.4324 0.3099
vt 0.4288 0.3128
vt 0.4670 0.3120
vt 0.4151 0.3319
vt 0.4046 0.3219
vt 0.4596 0.3411
vt 0.4871 0.3406
vt 0.4450 0.3087
vt 0.4927 0.3239
vt 0.4283 0.3107
vt 0.7050 0.6977
vt 0.6944 0.8842
vt 0.7382 0.6981
vt 0.2182 0.1960
vt 0.2184 0.1825
vt 0.0299 0.1819
vt 0.2213 0.2500
vt 0.2190 0.2230
vt 0.0323 0.2396
vt 0.2304 0.3034
vt 0.2251 0.2768
vt 0.0431 0.3158
vt 0.2467 0.3592
vt 0.2371 0.3296
vt 0.0626 0.3903
vt 0.1507 0.5456
vt 0.2926 0.4540
vt 0.2751 0.4235
vt 0.2044 0.6256
vt 0.3340 0.5109
vt 0.3123 0.4832
vt 0.2353 0.6627
vt 0.4450 0.3046
vt 0.3065 0.7305
vt 0.2740 0.7020
vt 0.4858 0.6343
vt 0.4577 0.6171
vt 0.3757 0.7806
vt 0.5449 0.6628
vt 0.5149 0.6495
vt 0.4497 0.8214
vt 0.6072 0.6831
vt 0.5757 0.6740
vt 0.5279 0.8525
vt 0.6720 0.6950
vt 0.6394 0.6901
vt 0.6097 0.8735
vt 0.4413 0.3045
vt 0.2517 0.6804
vt 0.0301 0.2012
vt 0.0518 0.3533
vt 0.0366 0.2778
vt 0.5684 0.8643
vt 0.2521 0.6809
vt 0.4883 0.8382
vt 0.4308 0.5980
vt 0.3405 0.7567
vt 0.6517 0.8802
vt 0.1761 0.5865
vt 0.0967 0.4754
vt 0.2598 0.3918
vt 0.0773 0.4312
vt 0.4121 0.8022
vt 0.9175 0.5226
vt 0.9505 0.5253
vt 0.8973 0.7078
vt 0.7376 0.8856
vt 0.9831 0.7132
vt 0.9399 0.7119
vt 0.9838 0.5257
vt 0.8528 0.5107
vt 0.8849 0.5177
vt 0.8140 0.6919
vt 0.7904 0.4904
vt 0.8213 0.5016
vt 0.7339 0.6658
vt 0.7313 0.4619
vt 0.7604 0.4771
vt 0.6577 0.6298
vt 0.6764 0.4257
vt 0.7033 0.4447
vt 0.5860 0.5843
vt 0.5196 0.5296
vt 0.6507 0.4047
vt 0.5521 0.5581
vt 0.4443 0.3324
vt 0.5578 0.3108
vt 0.4499 0.4532
vt 0.5206 0.2511
vt 0.5382 0.2817
vt 0.3963 0.3732
vt 0.3228 0.2588
vt 0.3081 0.2179
vt 0.4922 0.1868
vt 0.2973 0.1810
vt 0.2887 0.1434
vt 0.4759 0.1310
vt 0.2822 0.1055
vt 0.2779 0.0672
vt 0.4669 0.0776
vt 0.4638 0.0236
vt 0.4646 0.0506
vt 0.2757 0.0288
vt 0.4639 0.0101
vt 0.2754 0.0096
vt 0.7735 0.6801
vt 0.6212 0.6082
vt 0.6952 0.6490
vt 0.3423 0.3030
vt 0.5053 0.2195
vt 0.4217 0.4141
vt 0.4707 0.1045
vt 0.4826 0.1572
vt 0.5191 0.5292
vt 0.8553 0.7012
vt 0.4977 0.5085
vt 0.4397 0.3310
vt 0.4972 0.5080
vn 0.0000 -1.0000 0.0000
vn 0.0000 1.0000 -0.0000
vn -0.9762 0.0000 -0.2167
vn -0.4221 0.0000 -0.9066
vn 0.0313 0.0000 0.9995
vn 0.9600 0.0000 0.2799
vn -0.7718 0.0000 -0.6359
vn 0.4551 0.0000 0.8905
vn 0.8494 0.0000 0.5277
vn -0.4817 0.0000 -0.8763
vn -0.9194 0.0000 -0.3933
vn -0.0339 0.0000 -0.9994
vn 0.9936 0.0000 0.1126
vn 0.3983 0.0000 0.9172
vn -0.9868 0.0000 -0.1622
vn 0.6938 0.0000 0.7201
vn -0.5393 0.0000 -0.8421
vn 0.9409 0.0000 0.3388
vn -0.1013 0.0000 -0.9949
vn -0.8159 0.0000 -0.5781
vn 0.3398 0.0000 0.9405
vn 0.8106 0.0000 0.5855
vn -0.5949 0.0000 -0.8038
vn -0.9436 0.0000 -0.3312
vn -0.1679 0.0000 -0.9858
vn 0.9857 0.0000 0.1686
vn 0.2798 0.0000 0.9601
vn -0.9941 0.0000 -0.1080
vn -0.6480 0.0000 -0.7617
vn 0.0000 0.0000 -1.0000
vn 0.6591 0.0000 0.7521
vn 0.9154 0.0000 0.4025
vn -0.2335 0.0000 -0.9724
vn 0.2186 0.0000 0.9758
vn -0.8551 0.0000 -0.5184
vn -1.0000 0.0000 0.0000
vn 0.7683 0.0000 0.6401
vn 0.9999 0.0000 0.0141
vn 0.6119 0.0000 0.7909
vn -0.6985 0.0000 -0.7156
vn -0.9623 0.0000 -0.2719
vn -0.2978 0.0000 -0.9546
vn 0.9745 0.0000 0.2243
vn 0.1565 0.0000 0.9877
vn -0.9985 0.0000 -0.0541
vn 0.7343 0.0000 0.6788
vn -0.7354 0.0000 -0.6777
vn 0.5621 0.0000 0.8271
vn 0.8844 0.0000 0.4667
vn -0.3607 0.0000 -0.9327
vn 0.0939 0.0000 0.9956
vn -0.8896 0.0000 -0.4568
vn -0.9999 0.0000 -0.0135
vn 0.6939 0.0000 0.7201
vn 0.9984 0.0000 0.0565
vn 0.5097 0.0000 0.8603
vn 0.0940 0.0000 0.9956
usemtl None
s off
f 12/1/1 13/2/1 84/3/1
f 41/4/2 63/5/2 65/6/2
f 28/7/3 35/8/3 33/9/3
f 7/10/4 77/11/4 76/12/4
f 96/13/5 109/14/5 110/15/5
f 58/16/6 48/17/6 47/18/6
f 14/19/7 63/20/7 61/21/7
f 89/22/8 104/23/8 103/24/8
f 68/25/9 66/26/9 44/27/9
f 8/28/10 76/12/10 75/29/10
f 22/30/11 55/31/11 53/32/11
f 1/33/12 83/34/12 82/35/12
f 52/36/13 19/37/13 17/38/13
f 90/39/14 103/24/14 102/40/14
f 30/41/15 33/9/15 31/42/15
f 74/43/16 39/44/16 38/45/16
f 9/46/17 75/29/17 71/47/17
f 60/48/18 47/18/18 46/49/18
f 2/50/19 82/35/19 81/51/19
f 18/52/20 16/53/20 61/21/20
f 91/54/21 102/40/21 101/55/21
f 68/25/22 43/56/22 42/57/22
f 10/58/23 71/47/23 69/59/23
f 84/60/16 38/45/16 108/61/16
f 24/62/24 53/32/24 51/63/24
f 3/64/25 81/51/25 80/65/25
f 54/66/26 17/38/26 15/67/26
f 92/68/27 101/55/27 100/69/27
f 32/70/28 31/42/28 29/71/28
f 11/72/29 69/59/29 67/73/29
f 49/74/30 37/75/30 25/76/30
f 85/77/31 108/61/31 107/78/31
f 62/79/32 46/49/32 45/80/32
f 5/81/33 4/82/33 80/65/33
f 93/83/34 100/69/34 99/84/34
f 18/52/35 59/85/35 57/86/35
f 97/87/36 110/15/36 83/34/36
f 72/88/37 70/89/37 42/57/37
f 49/74/38 23/90/38 21/91/38
f 86/92/39 107/78/39 106/93/39
f 13/94/40 12/95/40 67/73/40
f 26/96/41 51/63/41 35/8/41
f 6/97/42 5/81/42 79/98/42
f 58/16/43 56/99/43 15/67/43
f 95/100/44 94/101/44 99/84/44
f 34/102/45 29/71/45 27/103/45
f 72/88/46 41/104/46 40/105/46
f 13/94/47 65/106/47 63/20/47
f 87/107/48 106/93/48 105/108/48
f 64/109/49 45/80/49 44/27/49
f 6/97/50 78/110/50 77/11/50
f 95/100/51 98/111/51 109/14/51
f 20/112/52 57/86/52 55/31/52
f 36/113/53 27/103/53 25/76/53
f 73/114/54 40/105/54 39/44/54
f 50/115/55 21/91/55 19/37/55
f 89/22/56 88/116/56 105/108/56
f 2/117/1 96/118/1 1/119/1
f 36/120/1 37/121/1 49/122/1
f 32/123/1 34/124/1 52/125/1
f 28/126/1 30/127/1 56/128/1
f 24/129/1 26/130/1 60/131/1
f 66/132/1 18/133/1 20/134/1
f 70/135/1 14/136/1 16/137/1
f 13/2/1 14/136/1 72/138/1
f 74/43/1 13/139/1 73/114/1
f 86/140/1 12/1/1 85/141/1
f 9/142/1 10/143/1 88/144/1
f 7/145/1 8/146/1 90/147/1
f 5/148/1 6/149/1 92/150/1
f 3/151/1 4/152/1 94/153/1
f 12/154/1 84/60/1 85/77/1
f 13/2/1 72/138/1 73/155/1
f 49/122/1 50/156/1 36/120/1
f 56/128/1 58/157/1 28/126/1
f 54/158/1 30/127/1 32/123/1
f 92/150/1 93/159/1 5/148/1
f 84/3/1 13/2/1 74/160/1
f 6/149/1 91/161/1 92/150/1
f 26/130/1 58/157/1 60/131/1
f 11/162/1 86/140/1 87/163/1
f 3/151/1 95/164/1 2/117/1
f 95/164/1 96/118/1 2/117/1
f 90/147/1 91/161/1 7/145/1
f 34/124/1 50/156/1 52/125/1
f 68/165/1 16/137/1 18/133/1
f 64/166/1 20/134/1 22/167/1
f 30/127/1 54/158/1 56/128/1
f 10/143/1 87/163/1 88/144/1
f 86/140/1 11/162/1 12/1/1
f 93/159/1 4/152/1 5/148/1
f 3/151/1 94/153/1 95/164/1
f 52/125/1 54/158/1 32/123/1
f 62/168/1 64/166/1 22/167/1
f 91/161/1 6/149/1 7/145/1
f 14/136/1 70/135/1 72/138/1
f 66/132/1 68/165/1 18/133/1
f 88/144/1 89/169/1 9/142/1
f 8/146/1 89/169/1 90/147/1
f 62/168/1 22/167/1 24/129/1
f 89/169/1 8/146/1 9/142/1
f 64/166/1 66/132/1 20/134/1
f 10/143/1 11/162/1 87/163/1
f 81/170/2 82/171/2 98/172/2
f 60/131/1 62/168/1 24/129/1
f 50/156/1 34/124/1 36/120/1
f 4/152/1 93/159/1 94/153/1
f 96/118/1 97/173/1 1/119/1
f 68/165/1 70/135/1 16/137/1
f 110/174/2 109/175/2 83/176/2
f 58/157/1 26/130/1 28/126/1
f 79/177/2 80/178/2 100/179/2
f 77/180/2 78/181/2 102/182/2
f 75/183/2 76/184/2 104/185/2
f 69/186/2 71/187/2 106/188/2
f 108/189/2 67/190/2 107/191/2
f 40/105/2 65/192/2 39/44/2
f 61/193/2 63/5/2 42/194/2
f 57/195/2 59/196/2 44/197/2
f 46/198/2 47/199/2 53/200/2
f 48/201/2 15/202/2 35/203/2
f 17/204/2 19/205/2 31/206/2
f 27/207/2 29/208/2 21/209/2
f 25/210/2 27/207/2 23/211/2
f 29/208/2 19/205/2 21/209/2
f 100/179/2 101/212/2 79/177/2
f 71/187/2 105/213/2 106/188/2
f 102/182/2 103/214/2 77/180/2
f 109/175/2 82/171/2 83/176/2
f 44/197/2 45/215/2 57/195/2
f 45/215/2 46/198/2 55/216/2
f 42/194/2 43/217/2 61/193/2
f 8/28/4 7/10/4 76/12/4
f 107/191/2 67/190/2 69/186/2
f 76/184/2 103/214/2 104/185/2
f 17/204/2 31/206/2 33/218/2
f 78/181/2 101/212/2 102/182/2
f 105/213/2 71/187/2 75/183/2
f 47/199/2 48/201/2 51/219/2
f 106/188/2 107/191/2 69/186/2
f 15/202/2 17/204/2 33/218/2
f 38/220/2 65/6/2 67/190/2
f 48/201/2 35/203/2 51/219/2
f 15/202/2 33/218/2 35/203/2
f 104/185/2 105/213/2 75/183/2
f 63/5/2 41/4/2 42/194/2
f 19/205/2 29/208/2 31/206/2
f 80/178/2 99/221/2 100/179/2
f 43/217/2 59/196/2 61/193/2
f 98/172/2 99/221/2 81/170/2
f 59/196/2 43/217/2 44/197/2
f 65/6/2 38/220/2 39/222/2
f 46/198/2 53/200/2 55/216/2
f 99/221/2 80/178/2 81/170/2
f 103/214/2 76/184/2 77/180/2
f 82/171/2 109/175/2 98/172/2
f 101/212/2 78/181/2 79/177/2
f 108/61/2 38/45/2 67/223/2
f 45/215/2 55/216/2 57/195/2
f 40/224/2 41/4/2 65/6/2
f 47/199/2 51/219/2 53/200/2
f 27/207/2 21/209/2 23/211/2
f 30/41/3 28/7/3 33/9/3
f 97/87/5 96/13/5 110/15/5
f 60/48/6 58/16/6 47/18/6
f 16/53/7 14/19/7 61/21/7
f 90/39/8 89/22/8 103/24/8
f 43/56/9 68/25/9 44/27/9
f 9/46/10 8/28/10 75/29/10
f 24/62/11 22/30/11 53/32/11
f 2/50/12 1/33/12 82/35/12
f 54/66/13 52/36/13 17/38/13
f 91/54/14 90/39/14 102/40/14
f 32/70/15 30/41/15 31/42/15
f 84/60/16 74/43/16 38/45/16
f 10/58/17 9/46/17 71/47/17
f 62/79/18 60/48/18 46/49/18
f 3/64/19 2/50/19 81/51/19
f 59/85/20 18/52/20 61/21/20
f 92/68/21 91/54/21 101/55/21
f 70/89/22 68/25/22 42/57/22
f 11/72/23 10/58/23 69/59/23
f 85/77/16 84/60/16 108/61/16
f 26/96/24 24/62/24 51/63/24
f 4/82/25 3/64/25 80/65/25
f 56/99/26 54/66/26 15/67/26
f 93/83/27 92/68/27 100/69/27
f 34/102/28 32/70/28 29/71/28
f 12/95/29 11/72/29 67/73/29
f 23/90/30 49/74/30 25/76/30
f 86/92/31 85/77/31 107/78/31
f 64/109/32 62/79/32 45/80/32
f 79/98/33 5/81/33 80/65/33
f 94/101/34 93/83/34 99/84/34
f 20/112/35 18/52/35 57/86/35
f 1/33/36 97/87/36 83/34/36
f 41/104/37 72/88/37 42/57/37
f 50/115/38 49/74/38 21/91/38
f 87/107/39 86/92/39 106/93/39
f 65/106/40 13/94/40 67/73/40
f 28/7/41 26/96/41 35/8/41
f 78/110/42 6/97/42 79/98/42
f 48/17/43 58/16/43 15/67/43
f 98/111/44 95/100/44 99/84/44
f 36/113/45 34/102/45 27/103/45
f 73/114/46 72/88/46 40/105/46
f 14/19/47 13/94/47 63/20/47
f 88/116/48 87/107/48 105/108/48
f 66/26/49 64/109/49 44/27/49
f 7/10/50 6/97/50 77/11/50
f 96/13/57 95/100/57 109/14/57
f 22/30/52 20/112/52 55/31/52
f 37/75/53 36/113/53 25/76/53
f 74/43/16 73/114/16 39/44/16
f 52/36/55 50/115/55 19/37/55
f 104/23/56 89/22/56 105/108/56
