# Blender v2.82 (sub 7) OBJ File: ''
# www.blender.org
mtllib t3.mtl
o t3_Mesh.001
v 0.056001 -0.000000 0.075946
v 0.056534 -0.000000 0.075396
v 0.191456 -0.000000 0.222564
v 0.223045 0.025000 0.190964
v 0.247458 0.025000 0.164499
v 0.083092 0.025000 0.047991
v 0.493973 0.000000 -0.389585
v 0.493973 0.025000 -0.389585
v 0.486426 0.025000 -0.334724
v -0.309700 -0.000000 0.481666
v -0.309700 0.025000 0.481666
v -0.372438 0.025000 0.491753
v -0.200415 -0.000000 0.241870
v -0.200415 0.025000 0.241870
v -0.153931 0.025000 0.221370
v 0.288222 0.000000 -0.362981
v 0.288222 0.025000 -0.362981
v 0.294752 0.025000 -0.408360
v 0.445669 0.000000 -0.173967
v 0.445669 0.025000 -0.173967
v 0.419686 0.025000 -0.106891
v 0.093054 -0.000000 0.305306
v 0.093054 0.025000 0.305306
v 0.040683 0.025000 0.341348
v 0.152386 0.000000 -0.036803
v 0.152386 0.025000 -0.036803
v 0.182499 0.025000 -0.082239
v -0.372438 -0.000000 0.491753
v -0.435935 0.025000 0.497855
v -0.153931 -0.000000 0.221370
v -0.108775 0.025000 0.197931
v 0.314552 -0.000000 0.080308
v 0.314552 0.025000 0.080308
v 0.270857 0.025000 0.137214
v 0.500010 0.000000 -0.499905
v 0.300006 0.000000 -0.499905
v 0.300006 0.025000 -0.499905
v -0.500010 -0.000000 0.299943
v -0.500010 0.025000 0.299943
v -0.448257 0.025000 0.298282
v 0.267479 0.000000 -0.273651
v 0.253315 0.000000 -0.229956
v 0.253315 0.025000 -0.229956
v 0.040683 -0.000000 0.341348
v -0.013711 0.025000 0.373889
v 0.486426 0.000000 -0.334724
v 0.475860 0.025000 -0.280354
v -0.435935 -0.000000 0.497855
v -0.500010 0.025000 0.499905
v 0.270857 -0.000000 0.137214
v -0.108775 -0.000000 0.197931
v -0.065075 0.025000 0.171612
v 0.294752 0.000000 -0.408360
v 0.298689 0.025000 -0.454044
v 0.056534 0.025000 0.075396
v 0.419686 0.000000 -0.106891
v 0.389090 0.025000 -0.041989
v -0.013711 -0.000000 0.373889
v -0.069946 0.025000 0.402860
v -0.448257 -0.000000 0.298282
v -0.397061 0.025000 0.293337
v 0.182499 0.000000 -0.082239
v 0.209434 0.025000 -0.129619
v -0.065075 -0.000000 0.171612
v -0.022960 0.025000 0.142469
v 0.247458 -0.000000 0.164499
v 0.500010 0.025000 -0.499905
v 0.498501 0.025000 -0.444718
v -0.397061 -0.000000 0.293337
v -0.346550 0.025000 0.285165
v 0.267479 0.025000 -0.273651
v 0.279123 0.025000 -0.318035
v -0.069946 -0.000000 0.402860
v -0.127844 0.025000 0.428192
v 0.475860 0.000000 -0.280354
v 0.462275 0.025000 -0.226695
v 0.222867 -0.000000 0.191160
v 0.222867 0.025000 0.191160
v 0.191456 0.025000 0.222564
v -0.022960 -0.000000 0.142469
v 0.017442 0.025000 0.110561
v 0.298689 0.000000 -0.454044
v 0.223045 -0.000000 0.190964
v 0.119212 -0.000000 0.006628
v 0.083092 -0.000000 0.047991
v -0.346550 -0.000000 0.285165
v -0.296854 0.025000 0.273826
v 0.389090 0.000000 -0.041989
v 0.354004 0.025000 0.020492
v -0.127844 -0.000000 0.428192
v -0.187222 0.025000 0.449817
v 0.209434 0.000000 -0.129619
v 0.233078 0.025000 -0.178879
v 0.191004 0.025000 0.222997
v 0.017442 -0.000000 0.110561
v 0.056001 0.025000 0.075946
v 0.498501 0.000000 -0.444718
v 0.279123 0.000000 -0.318035
v -0.187222 -0.000000 0.449817
v -0.247901 0.025000 0.467664
v -0.248099 -0.000000 0.259375
v -0.296854 -0.000000 0.273826
v 0.462275 0.000000 -0.226695
v 0.191004 -0.000000 0.222997
v 0.143221 0.025000 0.265833
v 0.119212 0.025000 0.006628
v -0.247901 -0.000000 0.467664
v -0.248099 0.025000 0.259375
v 0.354004 -0.000000 0.020492
v -0.500010 -0.000000 0.499905
v 0.143221 -0.000000 0.265833
v 0.233078 0.000000 -0.178879
vt 0.941995 0.077969
vt 0.941995 0.077869
vt 0.954195 0.078369
vt 0.385200 0.568700
vt 0.367000 0.549000
vt 0.487388 0.467701
vt 0.943295 0.037969
vt 0.944595 0.036869
vt 0.946595 0.039969
vt 0.946195 0.112669
vt 0.947595 0.113369
vt 0.945595 0.117069
vt 0.938595 0.097669
vt 0.936995 0.097169
vt 0.937995 0.094069
vt 0.934595 0.046869
vt 0.933095 0.047569
vt 0.931795 0.044969
vt 0.949495 0.049969
vt 0.950895 0.049469
vt 0.952295 0.053669
vt 0.953795 0.086369
vt 0.955395 0.086469
vt 0.954895 0.090469
vt 0.941295 0.068369
vt 0.939795 0.068569
vt 0.939195 0.065169
vt 0.944195 0.116069
vt 0.942795 0.120469
vt 0.939495 0.094469
vt 0.938795 0.090869
vt 0.953595 0.066769
vt 0.955095 0.066569
vt 0.955595 0.070969
vt 0.938295 0.033669
vt 0.931795 0.039369
vt 0.929995 0.038769
vt 0.931595 0.115769
vt 0.929995 0.116469
vt 0.930395 0.112669
vt 0.936995 0.052169
vt 0.937995 0.054869
vt 0.936595 0.055469
vt 0.953295 0.090269
vt 0.954195 0.094369
vt 0.945195 0.040769
vt 0.948195 0.043069
vt 0.941695 0.119169
vt 0.938495 0.123169
vt 0.954095 0.071169
vt 0.955795 0.073269
vt 0.940295 0.091269
vt 0.939395 0.087769
vt 0.933295 0.044269
vt 0.930595 0.042169
vt 0.940195 0.077869
vt 0.940295 0.075369
vt 0.950895 0.054169
vt 0.953495 0.057969
vt 0.952595 0.094069
vt 0.953295 0.098269
vt 0.932095 0.113169
vt 0.931795 0.109269
vt 0.940795 0.064969
vt 0.938495 0.061869
vt 0.940995 0.088069
vt 0.939895 0.084569
vt 0.954195 0.073369
vt 0.955895 0.075469
vt 0.938195 0.032169
vt 0.941995 0.033869
vt 0.933395 0.109969
vt 0.933295 0.106269
vt 0.935495 0.052769
vt 0.934395 0.050169
vt 0.951795 0.097869
vt 0.952195 0.102169
vt 0.946795 0.043769
vt 0.949695 0.046269
vt 0.954295 0.075669
vt 0.955795 0.075769
vt 0.955795 0.078369
vt 0.941395 0.084769
vt 0.940095 0.081369
vt 0.932195 0.041769
vt 0.954295 0.075569
vt 0.941695 0.071869
vt 0.941895 0.075369
vt 0.934795 0.106969
vt 0.934695 0.103269
vt 0.951995 0.058269
vt 0.954395 0.062269
vt 0.950695 0.101669
vt 0.950895 0.105969
vt 0.940095 0.061569
vt 0.937695 0.058669
vt 0.955795 0.078369
vt 0.941795 0.081469
vt 0.940195 0.077869
vt 0.940895 0.035469
vt 0.935795 0.049469
vt 0.949395 0.105369
vt 0.949395 0.109669
vt 0.937495 0.100769
vt 0.936195 0.103869
vt 0.948195 0.046869
vt 0.954095 0.078369
vt 0.955695 0.082469
vt 0.940095 0.071969
vt 0.947895 0.109069
vt 0.935895 0.100169
vt 0.952895 0.062569
vt 0.938295 0.121369
vt 0.954095 0.082469
vt 0.939095 0.058169
vt 0.775500 0.828900
vt 0.767200 0.978800
vt 0.813900 0.828200
vt 0.020700 0.221600
vt 0.021800 0.262600
vt 0.169200 0.222900
vt 0.173100 0.290900
vt 0.170200 0.257000
vt 0.026330 0.303600
vt 0.184800 0.358000
vt 0.178000 0.324600
vt 0.044800 0.386000
vt 0.203900 0.423400
vt 0.193400 0.391000
vt 0.067200 0.465000
vt 0.240200 0.500400
vt 0.219000 0.461400
vt 0.109300 0.563100
vt 0.282600 0.569400
vt 0.260300 0.535600
vt 0.164600 0.653900
vt 0.086500 0.514800
vt 0.295591 0.795391
vt 0.399423 0.693766
vt 0.256400 0.759900
vt 0.386556 0.857643
vt 0.486400 0.749500
vt 0.337813 0.826022
vt 0.494500 0.911600
vt 0.554200 0.783000
vt 0.440490 0.886765
vt 0.582000 0.945400
vt 0.625500 0.807700
vt 0.537700 0.929900
vt 0.673300 0.968000
vt 0.699500 0.823100
vt 0.627300 0.958100
vt 0.135300 0.609500
vt 0.889800 0.659800
vt 0.928000 0.661500
vt 0.872500 0.807500
vt 0.720000 0.974900
vt 0.054900 0.425800
vt 0.438005 0.722118
vt 0.034539 0.345600
vt 0.662200 0.816500
vt 0.334888 0.635101
vt 0.214500 0.716500
vt 0.232600 0.736100
vt 0.737300 0.827200
vt 0.814800 0.979800
vt 0.256100 0.759600
vt 0.365431 0.665474
vt 0.589500 0.796500
vt 0.197100 0.696200
vt 0.307300 0.601700
vt 0.365831 0.665874
vt 0.519800 0.767400
vt 0.967400 0.812300
vt 0.919800 0.811400
vt 0.966500 0.660800
vt 0.814800 0.649100
vt 0.852100 0.655600
vt 0.779800 0.790700
vt 0.742000 0.629100
vt 0.778000 0.640200
vt 0.690300 0.762500
vt 0.672300 0.600000
vt 0.706700 0.615600
vt 0.592990 0.719365
vt 0.590605 0.554718
vt 0.638900 0.582100
vt 0.490313 0.658522
vt 0.409000 0.592500
vt 0.552023 0.526366
vt 0.448191 0.627991
vt 0.349600 0.528800
vt 0.459800 0.434200
vt 0.287900 0.442100
vt 0.412800 0.368200
vt 0.317200 0.486500
vt 0.239100 0.347400
vt 0.371500 0.293900
vt 0.261800 0.395600
vt 0.207400 0.258400
vt 0.345900 0.223500
vt 0.219800 0.297600
vt 0.187039 0.179430
vt 0.330500 0.157200
vt 0.197300 0.218600
vt 0.174300 0.095200
vt 0.322800 0.089500
vt 0.178930 0.136200
vt 0.173200 0.054200
vt 0.321800 0.055500
vt 0.936995 0.077969
vt 0.734600 0.778000
vt 0.647000 0.744200
vt 0.337300 0.190600
vt 0.517931 0.498075
vt 0.392800 0.333000
vt 0.539056 0.690243
vt 0.325700 0.123500
vt 0.356500 0.256000
vt 0.825800 0.800500
vt 0.435200 0.402000
vt 0.518431 0.498475
vn -0.0000 -1.0000 -0.0000
vn -0.0000 1.0000 -0.0000
vn 0.9907 0.0000 0.1363
vn 0.1587 0.0000 0.9873
vn -0.4035 0.0000 -0.9150
vn -0.9898 0.0000 -0.1424
vn 0.9325 0.0000 0.3612
vn 0.5669 0.0000 0.8238
vn -0.8336 0.0000 -0.5524
vn 0.0957 0.0000 0.9954
vn -0.4607 0.0000 -0.8876
vn 0.7932 0.0000 0.6090
vn 0.0000 0.0000 -1.0000
vn -0.0321 0.0000 -0.9995
vn -0.9513 0.0000 -0.3084
vn 0.5134 0.0000 0.8582
vn 0.9816 0.0000 0.1908
vn 0.0320 0.0000 0.9995
vn 0.7591 0.0000 0.6510
vn -0.5159 0.0000 -0.8566
vn -0.9963 0.0000 -0.0859
vn -0.7181 0.0000 -0.6959
vn 0.9045 0.0000 0.4264
vn 0.4580 0.0000 0.8890
vn -0.0961 0.0000 -0.9954
vn -0.8693 0.0000 -0.4942
vn -0.5690 0.0000 -0.8223
vn 0.7350 0.0000 0.6780
vn 0.7346 0.0000 0.6785
vn 0.9996 0.0000 0.0273
vn -0.1597 0.0000 -0.9872
vn -0.9673 0.0000 -0.2538
vn 0.4008 0.0000 0.9161
vn 0.9694 0.0000 0.2454
vn 0.7070 0.0000 0.7072
vn -0.6198 0.0000 -0.7848
vn -0.9996 0.0000 -0.0287
vn 0.7410 0.0000 0.6715
vn 0.7413 0.0000 0.6712
vn -0.7532 0.0000 -0.6578
vn -0.2225 0.0000 -0.9749
vn 0.8719 -0.0000 0.4896
vn 0.3422 0.0000 0.9396
vn -0.9015 0.0000 -0.4327
vn 0.6918 0.0000 0.7221
vn 0.6917 0.0000 0.7221
vn -0.6680 0.0000 -0.7441
vn 0.9966 0.0000 0.0819
vn -0.9801 0.0000 -0.1984
vn 0.2822 0.0000 0.9594
vn -0.2842 0.0000 -0.9588
vn 0.9538 0.0000 0.3004
vn 0.6675 0.0000 0.7446
vn -0.7947 0.0000 -0.6070
vn 0.2210 0.0000 0.9753
vn -0.3446 0.0000 -0.9387
vn 0.8348 -0.0000 0.5506
vn -1.0000 0.0000 0.0000
vn 0.6184 0.0000 0.7859
vn -0.9297 0.0000 -0.3683
vn -0.0001 1.0000 -0.0002
vn -0.0000 1.0000 -0.0001
vn 0.7414 0.0000 0.6711
usemtl None.003
s 1
f 1/1/1 2/2/1 3/3/1
f 4/4/2 5/5/2 6/6/2
f 7/7/3 8/8/3 9/9/3
f 10/10/4 11/11/4 12/12/4
f 13/13/5 14/14/5 15/15/5
f 16/16/6 17/17/6 18/18/6
f 19/19/7 20/20/7 21/21/7
f 22/22/8 23/23/8 24/24/8
f 25/25/9 26/26/9 27/27/9
f 28/28/10 12/12/10 29/29/10
f 30/30/11 15/15/11 31/31/11
f 32/32/12 33/33/12 34/34/12
f 35/35/13 36/36/13 37/37/13
f 38/38/14 39/39/14 40/40/14
f 41/41/15 42/42/15 43/43/15
f 44/44/16 24/24/16 45/45/16
f 46/46/17 9/9/17 47/47/17
f 48/48/18 29/29/18 49/49/18
f 50/50/19 34/34/19 5/51/19
f 51/52/20 31/31/20 52/53/20
f 53/54/21 18/18/21 54/55/21
f 2/2/22 55/56/22 6/57/22
f 56/58/23 21/21/23 57/59/23
f 58/60/24 45/45/24 59/61/24
f 60/62/25 40/40/25 61/63/25
f 62/64/26 27/27/26 63/65/26
f 64/66/27 52/53/27 65/67/27
f 66/68/28 5/51/28 4/69/29
f 35/35/30 67/70/30 68/71/30
f 69/72/31 61/63/31 70/73/31
f 41/41/32 71/74/32 72/75/32
f 73/76/33 59/61/33 74/77/33
f 75/78/34 47/47/34 76/79/34
f 77/80/35 78/81/35 79/82/35
f 80/83/36 65/67/36 81/84/36
f 82/85/37 54/55/37 37/37/37
f 83/86/38 4/69/29 78/81/39
f 84/87/40 85/88/40 6/57/40
f 86/89/41 70/73/41 87/90/41
f 88/91/42 57/59/42 89/92/42
f 90/93/43 74/77/43 91/94/43
f 92/95/44 63/65/44 93/96/44
f 3/3/45 79/82/46 94/97/46
f 95/98/47 81/84/47 96/99/47
f 97/100/48 68/71/48 8/8/48
f 98/101/49 72/75/49 17/17/49
f 99/102/50 91/94/50 100/103/50
f 101/104/51 102/105/51 87/90/51
f 103/106/52 76/79/52 20/20/52
f 104/107/53 94/97/53 105/108/53
f 1/1/22 96/99/22 55/56/22
f 84/87/54 106/109/54 26/26/54
f 107/110/55 100/103/55 11/11/55
f 101/104/56 108/111/56 14/14/56
f 109/112/57 89/92/57 33/33/57
f 110/113/58 49/49/58 39/39/58
f 111/114/59 105/108/59 23/23/59
f 42/42/60 112/115/60 93/96/60
f 60/116/1 48/117/1 38/118/1
f 35/119/1 97/120/1 36/121/1
f 53/122/1 82/123/1 7/124/1
f 98/125/1 16/126/1 75/127/1
f 42/128/1 41/129/1 19/130/1
f 92/131/1 112/132/1 88/133/1
f 25/134/1 62/135/1 32/136/1
f 56/137/1 112/132/1 42/128/1
f 83/86/1 77/80/1 3/3/1
f 111/138/1 95/139/1 104/140/1
f 44/141/1 64/142/1 22/143/1
f 73/144/1 30/145/1 58/146/1
f 99/147/1 101/148/1 90/149/1
f 10/150/1 86/151/1 107/152/1
f 62/135/1 109/153/1 32/136/1
f 61/154/2 40/155/2 12/156/2
f 28/157/1 48/117/1 60/116/1
f 75/127/1 103/158/1 98/125/1
f 111/138/1 80/159/1 95/139/1
f 46/160/1 16/126/1 53/122/1
f 109/153/1 62/135/1 92/131/1
f 112/132/1 56/137/1 88/133/1
f 99/147/1 107/152/1 102/161/1
f 85/162/1 66/163/1 83/164/1
f 69/165/1 28/157/1 60/116/1
f 48/117/1 110/166/1 38/118/1
f 88/133/1 109/153/1 92/131/1
f 83/164/1 3/167/1 2/168/1
f 41/129/1 103/158/1 19/130/1
f 73/144/1 13/169/1 30/145/1
f 50/170/1 66/163/1 84/171/1
f 7/124/1 46/160/1 53/122/1
f 69/165/1 10/150/1 28/157/1
f 19/130/1 56/137/1 42/128/1
f 84/171/1 25/134/1 32/136/1
f 104/140/1 95/139/1 1/172/1
f 64/142/1 80/159/1 22/143/1
f 102/161/1 101/148/1 99/147/1
f 80/159/1 111/138/1 22/143/1
f 16/126/1 46/160/1 75/127/1
f 44/141/1 58/146/1 51/173/1
f 90/149/1 101/148/1 13/169/1
f 44/141/1 51/173/1 64/142/1
f 58/146/1 30/145/1 51/173/1
f 103/158/1 41/129/1 98/125/1
f 50/170/1 84/171/1 32/136/1
f 73/144/1 90/149/1 13/169/1
f 82/123/1 97/120/1 7/124/1
f 107/152/1 86/151/1 102/161/1
f 84/171/1 66/163/1 85/162/1
f 97/120/1 82/123/1 36/121/1
f 85/162/1 83/164/1 2/168/1
f 3/3/1 104/107/1 1/1/1
f 49/174/2 29/175/2 39/176/2
f 69/165/1 86/151/1 10/150/1
f 87/177/2 70/178/2 100/179/2
f 14/180/2 108/181/2 74/182/2
f 31/183/2 15/184/2 45/185/2
f 65/186/2 52/187/2 23/188/2
f 94/189/2 81/190/2 105/191/2
f 94/97/2 79/82/61 78/81/62
f 34/192/2 106/193/2 5/5/2
f 89/194/2 27/195/2 33/196/2
f 21/197/2 93/198/2 57/199/2
f 76/200/2 71/201/2 20/202/2
f 9/203/2 17/204/2 47/205/2
f 68/206/2 54/207/2 8/208/2
f 68/206/2 67/209/2 37/210/2
f 28/28/4 10/10/4 12/12/4
f 55/56/2 96/99/2 94/211/2
f 100/179/2 91/212/2 87/177/2
f 15/184/2 59/213/2 45/185/2
f 59/213/2 15/184/2 14/180/2
f 94/97/2 78/81/62 4/69/2
f 47/205/2 17/204/2 72/214/2
f 4/4/2 55/215/2 94/189/2
f 34/192/2 33/196/2 106/193/2
f 68/206/2 37/210/2 54/207/2
f 91/212/2 108/181/2 87/177/2
f 57/199/2 93/198/2 63/216/2
f 24/217/2 52/187/2 31/183/2
f 45/185/2 24/217/2 31/183/2
f 29/175/2 40/155/2 39/176/2
f 76/200/2 47/205/2 72/214/2
f 81/190/2 65/186/2 105/191/2
f 18/218/2 17/204/2 9/203/2
f 108/181/2 91/212/2 74/182/2
f 65/186/2 23/188/2 105/191/2
f 74/182/2 59/213/2 14/180/2
f 21/197/2 43/219/2 93/198/2
f 40/155/2 29/175/2 12/156/2
f 5/5/2 106/193/2 6/6/2
f 70/178/2 11/220/2 100/179/2
f 33/196/2 26/221/2 106/193/2
f 4/4/2 6/6/2 55/215/2
f 89/194/2 57/199/2 63/216/2
f 9/203/2 8/208/2 18/218/2
f 89/194/2 63/216/2 27/195/2
f 12/156/2 11/220/2 61/154/2
f 76/200/2 72/214/2 71/201/2
f 20/202/2 71/201/2 43/219/2
f 27/195/2 26/221/2 33/196/2
f 81/190/2 94/189/2 96/222/2
f 52/187/2 24/217/2 23/188/2
f 11/220/2 70/178/2 61/154/2
f 8/208/2 54/207/2 18/218/2
f 46/46/3 7/7/3 9/9/3
f 21/197/2 20/202/2 43/219/2
f 30/30/5 13/13/5 15/15/5
f 53/54/6 16/16/6 18/18/6
f 56/58/7 19/19/7 21/21/7
f 44/44/8 22/22/8 24/24/8
f 62/64/9 25/25/9 27/27/9
f 48/48/10 28/28/10 29/29/10
f 51/52/11 30/30/11 31/31/11
f 50/50/12 32/32/12 34/34/12
f 67/70/13 35/35/13 37/37/13
f 60/62/14 38/38/14 40/40/14
f 71/74/15 41/41/15 43/43/15
f 58/60/16 44/44/16 45/45/16
f 75/78/17 46/46/17 47/47/17
f 110/113/18 48/48/18 49/49/18
f 66/68/19 50/50/19 5/51/19
f 64/66/20 51/52/20 52/53/20
f 82/85/21 53/54/21 54/55/21
f 85/88/22 2/2/22 6/57/22
f 88/91/23 56/58/23 57/59/23
f 73/76/24 58/60/24 59/61/24
f 69/72/25 60/62/25 61/63/25
f 92/95/26 62/64/26 63/65/26
f 80/83/27 64/66/27 65/67/27
f 83/86/38 66/68/28 4/69/29
f 97/100/30 35/35/30 68/71/30
f 86/89/31 69/72/31 70/73/31
f 98/101/32 41/41/32 72/75/32
f 90/93/33 73/76/33 74/77/33
f 103/106/34 75/78/34 76/79/34
f 3/3/35 77/80/35 79/82/35
f 95/98/36 80/83/36 81/84/36
f 36/36/37 82/85/37 37/37/37
f 77/80/63 83/86/38 78/81/39
f 106/109/40 84/87/40 6/57/40
f 102/105/41 86/89/41 87/90/41
f 109/112/42 88/91/42 89/92/42
f 99/102/43 90/93/43 91/94/43
f 112/115/44 92/95/44 93/96/44
f 104/107/45 3/3/45 94/97/46
f 1/1/47 95/98/47 96/99/47
f 7/7/48 97/100/48 8/8/48
f 16/16/49 98/101/49 17/17/49
f 107/110/50 99/102/50 100/103/50
f 108/111/51 101/104/51 87/90/51
f 19/19/52 103/106/52 20/20/52
f 111/114/53 104/107/53 105/108/53
f 2/2/22 1/1/22 55/56/22
f 25/25/54 84/87/54 26/26/54
f 10/10/55 107/110/55 11/11/55
f 13/13/56 101/104/56 14/14/56
f 32/32/57 109/112/57 33/33/57
f 38/38/58 110/113/58 39/39/58
f 22/22/59 111/114/59 23/23/59
f 43/43/60 42/42/60 93/96/60
