# Blender v2.79 (sub 0) OBJ File: ''
# www.blender.org
mtllib LargeBullseye.mtl
o group_0_ID26.001_group_0_ID26.000_ID103.001
v -0.405663 0.399472 -19.546227
v -0.405663 0.399460 -2.338427
v -0.405663 -0.100530 -2.338427
v -0.405663 -0.100518 -19.546230
v 0.400337 0.399472 -19.546227
v 0.400337 0.399460 -2.338427
v 0.400337 -0.100530 -2.338427
v 0.400337 -0.100518 -19.546230
v 2.326143 0.399762 -2.325580
v 2.326143 -0.100238 2.325626
v 2.326143 0.399762 2.325626
v 2.326143 -0.100238 -2.325580
v 2.326143 0.399762 2.325626
v 2.255786 -0.100238 2.325626
v 2.326143 -0.100238 2.325626
v 2.224062 -0.100238 2.325626
v 2.054765 -0.100238 2.325626
v 2.054765 0.399762 2.325626
v 2.255786 0.399762 2.325626
v 2.224062 0.399762 2.325626
v -2.054669 0.399762 2.325626
v 2.054765 -0.100238 2.325626
v -2.054669 -0.100238 2.325626
v 2.054765 0.399762 2.325626
v 2.054765 -0.100238 -2.325580
v 2.054765 0.399762 2.325626
v 2.054765 -0.100238 2.325626
v 2.054765 0.399762 -2.325580
v -2.054669 0.399762 2.325626
v -2.326046 -0.100238 2.325626
v -2.054669 -0.100238 2.325626
v -2.326046 0.399762 2.325626
v -2.054669 0.399762 -2.325580
v -2.054669 -0.100238 2.325626
v -2.054669 0.399762 2.325626
v -2.054669 -0.100238 -2.325580
v 2.054765 0.399762 -2.325580
v 2.054213 -0.100238 -2.325580
v 2.054765 -0.100238 -2.325580
v 2.054213 0.399762 -2.325580
v -2.326046 -0.100238 -2.325580
v -2.326046 0.399762 2.325626
v -2.326046 -0.100238 2.325626
v -2.326046 0.399762 -2.325580
v -2.326046 0.399762 -2.325580
v -2.255689 -0.100238 -2.325580
v -2.326046 -0.100238 -2.325580
v -2.223966 -0.100238 -2.325580
v -2.054669 -0.100238 -2.325580
v -2.054669 0.399762 -2.325580
v -2.255689 0.399762 -2.325580
v -2.223966 0.399762 -2.325580
v 2.054213 0.399762 -2.325580
v -2.054116 -0.100238 -2.325580
v 2.054213 -0.100238 -2.325580
v -2.054669 0.399762 -2.325580
v -2.054116 0.399762 -2.325580
v -2.054669 -0.100238 -2.325580
v 2.054213 -0.100238 -2.325580
v 2.031048 0.399762 -2.299357
v 2.031048 -0.100238 -2.299357
v 2.054213 0.399762 -2.325580
vn -1.0000 0.0000 0.0000
vn -0.7071 -0.0000 0.7071
vn 0.0000 -0.0000 1.0000
vn 1.0000 0.0000 0.0000
vn 0.0000 0.0000 -1.0000
vn -0.7495 0.0000 -0.6621
usemtl material1.001
s 1
f 1//1 3//1 2//1
f 4//1 3//1 1//1
f 5//2 7//1 6//1
f 8//2 7//1 5//2
f 4//3 5//2 1//3
usemtl material
f 9//4 11//4 10//4
f 10//4 12//4 9//4
f 13//5 15//5 14//5
f 14//5 16//5 13//5
f 16//5 17//5 13//5
f 17//5 18//5 13//5
f 18//5 19//5 13//5
f 18//5 20//5 19//5
f 21//3 23//3 22//3
f 22//3 24//3 21//3
f 25//1 27//1 26//1
f 26//1 28//1 25//1
f 29//5 31//5 30//5
f 30//5 32//5 29//5
f 33//4 35//4 34//4
f 34//4 36//4 33//4
f 37//5 39//5 38//5
f 38//5 40//5 37//5
f 41//1 43//1 42//1
f 42//1 44//1 41//1
f 45//3 47//3 46//3
f 46//3 48//3 45//3
f 48//3 49//3 45//3
f 49//3 50//3 45//3
f 50//3 51//3 45//3
f 50//5 52//5 51//5
f 53//5 55//5 54//5
f 54//5 56//5 53//5
f 56//5 57//5 53//5
f 56//5 54//5 58//5
f 59//6 61//6 60//6
f 60//6 62//6 59//6
f 8//2 5//2 4//3
o group_0_ID26.001_group_0_ID26.000_ID103.000
v -0.405663 0.399472 -19.546227
v -0.405663 0.399460 -2.338427
v -0.405663 -0.100530 -2.338427
v -0.405663 -0.100518 -19.546230
v 0.400337 0.399472 -19.546227
v 0.400337 0.399460 -2.338427
v 0.400337 -0.100530 -2.338427
v 0.400337 -0.100518 -19.546230
v 2.326143 0.399762 -2.325580
v 2.326143 -0.100238 2.325626
v 2.326143 0.399762 2.325626
v 2.326143 -0.100238 -2.325580
v 2.326143 0.399762 2.325626
v 2.255786 -0.100238 2.325626
v 2.326143 -0.100238 2.325626
v 2.224062 -0.100238 2.325626
v 2.054765 -0.100238 2.325626
v 2.054765 0.399762 2.325626
v 2.255786 0.399762 2.325626
v 2.224062 0.399762 2.325626
v -2.054669 0.399762 2.325626
v 2.054765 -0.100238 2.325626
v -2.054669 -0.100238 2.325626
v 2.054765 0.399762 2.325626
v 2.054765 -0.100238 -2.325580
v 2.054765 0.399762 2.325626
v 2.054765 -0.100238 2.325626
v 2.054765 0.399762 -2.325580
v -2.054669 0.399762 2.325626
v -2.326046 -0.100238 2.325626
v -2.054669 -0.100238 2.325626
v -2.326046 0.399762 2.325626
v -2.054669 0.399762 -2.325580
v -2.054669 -0.100238 2.325626
v -2.054669 0.399762 2.325626
v -2.054669 -0.100238 -2.325580
v 2.054765 0.399762 -2.325580
v 2.054213 -0.100238 -2.325580
v 2.054765 -0.100238 -2.325580
v 2.054213 0.399762 -2.325580
v -2.326046 -0.100238 -2.325580
v -2.326046 0.399762 2.325626
v -2.326046 -0.100238 2.325626
v -2.326046 0.399762 -2.325580
v -2.326046 0.399762 -2.325580
v -2.255689 -0.100238 -2.325580
v -2.326046 -0.100238 -2.325580
v -2.223966 -0.100238 -2.325580
v -2.054669 -0.100238 -2.325580
v -2.054669 0.399762 -2.325580
v -2.255689 0.399762 -2.325580
v -2.223966 0.399762 -2.325580
v 2.054213 0.399762 -2.325580
v -2.054116 -0.100238 -2.325580
v 2.054213 -0.100238 -2.325580
v -2.054669 0.399762 -2.325580
v -2.054116 0.399762 -2.325580
v -2.054669 -0.100238 -2.325580
v 2.054213 -0.100238 -2.325580
v 2.031048 0.399762 -2.299357
v 2.031048 -0.100238 -2.299357
v 2.054213 0.399762 -2.325580
vn 1.0000 0.0000 0.0000
vn 0.7071 0.0000 -0.7071
vn 0.0000 0.0000 -1.0000
vn -1.0000 0.0000 0.0000
vn 0.0000 0.0000 1.0000
vn 0.7495 0.0000 0.6621
usemtl material1.001
s 1
f 63//7 64//7 65//7
f 66//7 63//7 65//7
f 67//8 68//7 69//7
f 70//8 67//8 69//7
f 66//9 63//9 67//8
usemtl material
f 71//10 72//10 73//10
f 72//10 71//10 74//10
f 75//11 76//11 77//11
f 76//11 75//11 78//11
f 78//11 75//11 79//11
f 79//11 75//11 80//11
f 80//11 75//11 81//9
f 80//9 81//9 82//9
f 83//9 84//9 85//9
f 84//9 83//9 86//9
f 87//7 88//7 89//7
f 88//7 87//7 90//7
f 91//11 92//11 93//11
f 92//11 91//11 94//11
f 95//10 96//10 97//10
f 96//10 95//10 98//10
f 99//11 100//11 101//11
f 100//11 99//11 102//11
f 103//7 104//7 105//7
f 104//7 103//7 106//7
f 107//9 108//9 109//9
f 108//9 107//9 110//9
f 110//9 107//9 111//9
f 111//9 107//9 112//9
f 112//9 107//9 113//9
f 112//11 113//11 114//11
f 115//11 116//11 117//11
f 116//11 115//11 118//11
f 118//11 115//11 119//11
f 118//11 120//11 116//11
f 121//12 122//12 123//12
f 122//12 121//12 124//12
f 70//8 66//9 67//8
