# Blender v2.82 (sub 7) OBJ File: 'range1.version2.blend'
# www.blender.org
o Extention_Cube.002
v 0.000000 0.010000 0.020000
v 0.000000 0.030000 0.013643
v 0.000000 0.010000 -0.020000
v 0.000000 0.030000 -0.011456
v 10.000000 0.010000 0.020000
v 10.000000 0.030000 0.010358
v 10.000000 0.010000 -0.020000
v 10.000000 0.030000 -0.008774
vt 0.375000 0.000000
vt 0.625000 0.250000
vt 0.375000 0.250000
vt 0.375000 0.500000
vt 0.625000 0.500000
vt 0.375000 0.750000
vt 0.625000 1.000000
vt 0.375000 1.000000
vt 0.125000 0.750000
vt 0.125000 0.500000
vt 0.875000 0.500000
vt 0.625000 0.750000
vt 0.625000 0.000000
vt 0.875000 0.750000
vn -1.0000 0.0000 0.0000
vn 0.0000 0.3929 -0.9196
vn 1.0000 0.0000 0.0000
vn 0.0000 0.3029 0.9530
vn 0.0000 -1.0000 0.0000
vn 0.0000 1.0000 0.0000
vn 0.0002 0.4895 -0.8720
vn 0.0003 0.4343 0.9008
s off
f 1/1/1 4/2/1 3/3/1
f 4/2/2 7/4/2 3/3/2
f 8/5/3 5/6/3 7/4/3
f 5/6/4 2/7/4 1/8/4
f 7/4/5 1/9/5 3/10/5
f 4/11/6 6/12/6 8/5/6
f 1/1/1 2/13/1 4/2/1
f 4/2/7 8/5/7 7/4/7
f 8/5/3 6/12/3 5/6/3
f 5/6/8 6/12/8 2/7/8
f 7/4/5 5/6/5 1/9/5
f 4/11/6 2/14/6 6/12/6
