# Blender v2.82 (sub 7) OBJ File: ''
# www.blender.org
mtllib Base_ID_HUGE.mtl
o Millenium_Falcon.001
v 2.045669 0.288999 -6.429486
v 2.329790 0.243434 -6.429486
v 2.045669 0.243434 -6.429486
v -2.045669 0.288999 -6.429489
v -2.045669 0.243432 0.000000
v -2.045669 0.243434 -6.429489
v -2.329790 0.288996 6.429486
v -2.329789 0.243432 0.000000
v -2.329790 0.243431 6.429486
v 2.045669 0.288997 0.000000
v 2.045669 0.243432 0.000000
v 2.329789 0.288997 0.000000
v 2.329789 0.243431 6.429489
v 2.329789 0.243432 0.000000
v 2.329790 0.288999 -6.429486
v -2.045669 0.288996 6.429486
v -2.045669 0.243431 6.429486
v -2.329789 0.288999 -6.429489
v -2.329789 0.243434 -6.429489
v 2.329789 0.288996 6.429489
v 2.045669 0.243431 6.429489
v -2.329789 0.288997 0.000000
v 2.045669 0.288996 6.429489
v -2.045669 0.288997 0.000000
vt 0.072883 0.572169
vt 0.074360 0.572169
vt 0.072883 0.572169
vt 0.051619 0.572169
vt 0.051619 0.551184
vt 0.051619 0.572169
vt 0.050143 0.530198
vt 0.050143 0.551184
vt 0.050143 0.530198
vt 0.072883 0.551184
vt 0.072883 0.551184
vt 0.074360 0.551184
vt 0.074360 0.530198
vt 0.074360 0.551184
vt 0.074360 0.572169
vt 0.051619 0.530198
vt 0.051619 0.530198
vt 0.050143 0.572169
vt 0.050143 0.572169
vt 0.074360 0.530198
vt 0.072883 0.530198
vt 0.050143 0.551184
vt 0.072883 0.530198
vt 0.051619 0.551184
vn -0.7071 0.0000 -0.7071
vn 0.7071 0.0000 -0.7071
vn 1.0000 -0.0000 0.0000
vn -0.7071 -0.0000 0.7071
vn -1.0000 -0.0000 -0.0000
vn 0.7071 0.0000 0.7071
vn 0.0000 -1.0000 -0.0000
vn 0.0000 1.0000 0.0000
usemtl mainMaterial
s 1
f 1/1/1 2/2/2 3/3/1
f 4/4/2 5/5/3 6/6/2
f 7/7/4 8/8/5 9/9/4
f 10/10/5 3/3/1 11/11/5
f 12/12/3 13/13/6 14/14/3
f 15/15/2 14/14/3 2/2/2
f 16/16/6 9/9/4 17/17/6
f 18/18/1 6/6/2 19/19/1
f 20/20/6 21/21/4 13/13/6
f 22/22/5 19/19/1 8/8/5
f 23/23/4 11/11/5 21/21/4
f 24/24/3 17/17/6 5/5/3
f 24/24/3 16/16/6 17/17/6
f 23/23/4 10/10/5 11/11/5
f 22/22/5 18/18/1 19/19/1
f 20/20/6 23/23/4 21/21/4
f 18/18/1 4/4/2 6/6/2
f 16/16/6 7/7/4 9/9/4
f 15/15/2 12/12/3 14/14/3
f 12/12/3 20/20/6 13/13/6
f 10/10/5 1/1/1 3/3/1
f 7/7/4 22/22/5 8/8/5
f 4/4/2 24/24/3 5/5/3
f 1/1/1 15/15/2 2/2/2
f 2/2/7 11/11/7 3/3/7
f 5/5/7 9/9/7 8/8/7
f 21/21/7 14/14/7 13/13/7
f 19/19/7 5/5/7 8/8/7
f 18/18/8 24/24/8 4/4/8
f 23/23/8 12/12/8 10/10/8
f 24/24/8 7/7/8 16/16/8
f 15/15/8 10/10/8 12/12/8
f 18/18/8 22/22/8 24/24/8
f 23/23/8 20/20/8 12/12/8
f 24/24/8 22/22/8 7/7/8
f 15/15/8 1/1/8 10/10/8
f 2/2/7 14/14/7 11/11/7
f 5/5/7 17/17/7 9/9/7
f 21/21/7 11/11/7 14/14/7
f 19/19/7 6/6/7 5/5/7
