# Blender v2.82 (sub 7) OBJ File: ''
# www.blender.org
o mat_Cube.001
v 9.992389 0.010000 9.938269
v 9.992389 -0.010000 9.938269
v 9.970712 0.010000 9.970712
v 9.970712 -0.010000 9.970712
v 9.900001 0.010000 10.000001
v 9.900001 -0.010000 10.000001
v 9.900001 0.010000 -10.000001
v 9.900001 -0.010000 -10.000001
v 9.992389 0.010000 -9.938269
v 9.992389 -0.010000 -9.938269
v -9.970712 0.010000 9.970712
v -9.970712 -0.010000 9.970712
v 10.000001 0.010000 -9.900001
v 10.000001 -0.010000 -9.900001
v -9.900001 0.010000 10.000001
v -9.900001 -0.010000 10.000001
v -9.992389 0.010000 9.938269
v -9.992389 -0.010000 9.938269
v -9.938269 0.010000 9.992389
v -9.938269 -0.010000 9.992389
v -10.000001 0.010000 9.900001
v -10.000001 -0.010000 9.900001
v -9.900001 0.010000 -10.000001
v -9.900001 -0.010000 -10.000001
v -10.000001 0.010000 -9.900001
v -10.000001 -0.010000 -9.900001
v 9.938269 0.010000 9.992389
v 9.938269 -0.010000 9.992389
v 10.000001 0.010000 9.900001
v 10.000001 -0.010000 9.900001
v -9.992389 0.010000 -9.938269
v -9.992389 -0.010000 -9.938269
v -9.938269 0.010000 -9.992389
v -9.938269 -0.010000 -9.992389
v -9.970712 0.010000 -9.970712
v -9.970712 -0.010000 -9.970712
v 9.938269 0.010000 -9.992389
v 9.938269 -0.010000 -9.992389
v 9.970712 0.010000 -9.970712
v 9.970712 -0.010000 -9.970712
vt 0.500470 0.749228
vt 0.499530 0.748750
vt 0.500470 0.748750
vt 0.500470 0.751250
vt 0.499530 0.750772
vt 0.500470 0.750772
vt 0.499530 0.001250
vt 0.500470 0.248750
vt 0.499530 0.248750
vt 0.500470 0.250000
vt 0.499530 0.250772
vt 0.499530 0.250000
vt 0.499530 0.999228
vt 0.500470 1.000000
vt 0.499530 1.000000
vt 0.500470 0.500000
vt 0.499530 0.499228
vt 0.500470 0.499228
vt 0.500470 0.249228
vt 0.499530 0.000772
vt 0.500470 0.000000
vt 0.500470 0.000772
vt 0.499530 0.249228
vt 0.500470 0.750000
vt 0.499530 0.749228
vt 0.500470 0.251250
vt 0.500470 0.250772
vt 0.499530 0.750000
vt 0.500470 0.501250
vt 0.499530 0.500772
vt 0.500470 0.500772
vt 0.499530 0.751250
vt 0.500470 0.998750
vt 0.499530 0.998750
vt 0.500470 0.999228
vt 0.999501 0.994506
vt 0.005494 0.000499
vt 0.000499 0.005494
vt 0.499530 0.498750
vt 0.500470 0.498750
vt 0.981684 0.998453
vt 0.012089 0.028858
vt 0.029219 0.012149
vt 0.499530 0.500000
vt 0.499530 0.501250
vt 0.499530 0.251250
vt 0.500470 0.001250
vt 0.499530 0.000000
vt 0.000499 0.994506
vt 0.005494 0.999501
vt 0.000880 0.996417
vt 0.003583 0.999120
vt 0.001962 0.998038
vt 0.994505 0.999500
vt 0.996417 0.999120
vt 0.998038 0.998038
vt 0.999120 0.996417
vt 0.999500 0.005494
vt 0.999120 0.003583
vt 0.994505 0.000499
vt 0.998038 0.001962
vt 0.996417 0.000880
vt 0.003583 0.000880
vt 0.001962 0.001962
vt 0.000880 0.003583
vt 0.981892 0.000100
vt 0.998814 0.017022
vt 0.988368 0.001388
vt 0.997526 0.010546
vt 0.993858 0.005056
vt 0.998814 0.981744
vt 0.997446 0.988203
vt 0.993710 0.993647
vt 0.988175 0.997246
vt 0.016962 0.998453
vt 0.012333 0.999900
vt 0.000100 0.993493
vt 0.007504 0.999466
vt 0.003208 0.997216
vt 0.013458 0.022400
vt 0.017193 0.016956
vt 0.022728 0.013356
vn 0.9808 0.0000 0.1951
vn 0.1951 0.0000 0.9808
vn -1.0000 0.0000 0.0000
vn -0.5556 0.0000 -0.8315
vn -0.5556 0.0000 0.8315
vn 0.5556 0.0000 -0.8315
vn -0.9808 0.0000 -0.1951
vn -0.8315 0.0000 0.5555
vn -0.8315 0.0000 -0.5555
vn 0.8315 0.0000 0.5555
vn -0.1951 0.0000 -0.9808
vn 0.5556 0.0000 0.8315
vn 0.9808 0.0000 -0.1951
vn 0.0000 0.0000 1.0000
vn -0.1951 0.0000 0.9808
vn 0.0000 -1.0000 -0.0000
vn 0.1951 0.0000 -0.9808
vn 0.0000 1.0000 -0.0000
vn 0.8315 0.0000 -0.5556
vn 1.0000 0.0000 0.0000
vn 0.0000 0.0000 -1.0000
vn -0.9808 0.0000 0.1951
vn -0.5555 0.0000 -0.8315
vn -0.8315 0.0000 0.5556
vn -0.8315 0.0000 -0.5556
vn 0.8315 0.0000 0.5556
vn 0.5555 0.0000 0.8315
vn 0.8315 0.0000 -0.5555
s off
f 1/1/1 30/2/1 29/3/1
f 5/4/2 28/5/2 27/6/2
f 22/7/3 25/8/3 26/9/3
f 35/10/4 34/11/4 36/12/4
f 20/13/5 11/14/5 12/15/5
f 39/16/6 38/17/6 37/18/6
f 31/19/7 26/9/7 25/8/7
f 18/20/8 11/21/8 17/22/8
f 35/10/9 32/23/9 31/19/9
f 3/24/10 2/25/10 1/1/10
f 23/26/11 34/11/11 33/27/11
f 3/24/12 28/5/12 4/28/12
f 13/29/13 10/30/13 9/31/13
f 6/32/14 15/33/14 16/34/14
f 16/34/15 19/35/15 20/13/15
f 14/36/16 16/37/16 22/38/16
f 37/18/17 8/39/17 7/40/17
f 25/41/18 5/42/18 29/43/18
f 39/16/19 10/30/19 40/44/19
f 14/45/20 29/3/20 30/2/20
f 24/46/21 7/40/21 8/39/21
f 18/20/22 21/47/22 22/7/22
f 1/1/1 2/25/1 30/2/1
f 5/4/2 6/32/2 28/5/2
f 22/7/3 21/47/3 25/8/3
f 35/10/23 33/27/23 34/11/23
f 20/13/5 19/35/5 11/14/5
f 39/16/6 40/44/6 38/17/6
f 31/19/7 32/23/7 26/9/7
f 18/20/24 12/48/24 11/21/24
f 35/10/25 36/12/25 32/23/25
f 3/24/26 4/28/26 2/25/26
f 23/26/11 24/46/11 34/11/11
f 3/24/27 27/6/27 28/5/27
f 13/29/13 14/45/13 10/30/13
f 6/32/14 5/4/14 15/33/14
f 16/34/15 15/33/15 19/35/15
f 22/38/16 26/49/16 24/50/16
f 26/49/16 32/51/16 34/52/16
f 32/51/16 36/53/16 34/52/16
f 34/52/16 24/50/16 26/49/16
f 24/50/16 8/54/16 22/38/16
f 8/54/16 38/55/16 40/56/16
f 40/56/16 10/57/16 14/36/16
f 14/36/16 30/58/16 16/37/16
f 30/58/16 2/59/16 6/60/16
f 16/37/16 30/58/16 6/60/16
f 2/59/16 4/61/16 28/62/16
f 28/62/16 6/60/16 2/59/16
f 16/37/16 20/63/16 22/38/16
f 20/63/16 12/64/16 22/38/16
f 12/64/16 18/65/16 22/38/16
f 8/54/16 40/56/16 14/36/16
f 22/38/16 8/54/16 14/36/16
f 37/18/17 38/17/17 8/39/17
f 29/43/18 13/66/18 7/67/18
f 13/66/18 9/68/18 37/69/18
f 9/68/18 39/70/18 37/69/18
f 37/69/18 7/67/18 13/66/18
f 7/67/18 23/71/18 29/43/18
f 23/71/18 33/72/18 35/73/18
f 35/73/18 31/74/18 25/41/18
f 25/41/18 21/75/18 5/42/18
f 21/75/18 17/76/18 15/77/18
f 5/42/18 21/75/18 15/77/18
f 17/76/18 11/78/18 19/79/18
f 19/79/18 15/77/18 17/76/18
f 5/42/18 27/80/18 29/43/18
f 27/80/18 3/81/18 29/43/18
f 3/81/18 1/82/18 29/43/18
f 23/71/18 35/73/18 25/41/18
f 29/43/18 23/71/18 25/41/18
f 39/16/28 9/31/28 10/30/28
f 14/45/20 13/29/20 29/3/20
f 24/46/21 23/26/21 7/40/21
f 18/20/22 17/22/22 21/47/22
