# Blender v2.82 (sub 7) OBJ File: ''
# www.blender.org
o mat_Cube.001
v 9.992389 0.010000 9.938269
v 9.992389 -0.010000 9.938269
v 9.970712 0.010000 9.970712
v 9.970712 -0.010000 9.970712
v 9.900001 0.010000 10.000001
v 9.900001 -0.010000 10.000001
v 9.900001 0.010000 -10.000001
v 9.900001 -0.010000 -10.000001
v 9.992389 0.010000 -9.938269
v 9.992389 -0.010000 -9.938269
v -9.970712 0.010000 9.970712
v -9.970712 -0.010000 9.970712
v 10.000001 0.010000 -9.900001
v 10.000001 -0.010000 -9.900001
v -9.900001 0.010000 10.000001
v -9.900001 -0.010000 10.000001
v -9.992389 0.010000 9.938269
v -9.992389 -0.010000 9.938269
v -9.938269 0.010000 9.992389
v -9.938269 -0.010000 9.992389
v -10.000001 0.010000 9.900001
v -10.000001 -0.010000 9.900001
v -9.900001 0.010000 -10.000001
v -9.900001 -0.010000 -10.000001
v -10.000001 0.010000 -9.900001
v -10.000001 -0.010000 -9.900001
v 9.938269 0.010000 9.992389
v 9.938269 -0.010000 9.992389
v 10.000001 0.010000 9.900001
v 10.000001 -0.010000 9.900001
v -9.992389 0.010000 -9.938269
v -9.992389 -0.010000 -9.938269
v -9.938269 0.010000 -9.992389
v -9.938269 -0.010000 -9.992389
v -9.970712 0.010000 -9.970712
v -9.970712 -0.010000 -9.970712
v 9.938269 0.010000 -9.992389
v 9.938269 -0.010000 -9.992389
v 9.970712 0.010000 -9.970712
v 9.970712 -0.010000 -9.970712
vt 0.500470 0.748750
vt 0.500470 0.749228
vt 0.499530 0.749228
vt 0.499530 0.748750
vt 0.500470 0.750772
vt 0.500470 0.751250
vt 0.499530 0.751250
vt 0.499530 0.750772
vt 0.499530 0.248750
vt 0.499530 0.001250
vt 0.500470 0.001250
vt 0.500470 0.248750
vt 0.500470 0.250000
vt 0.500470 0.250772
vt 0.499530 0.250772
vt 0.499530 0.250000
vt 0.499530 1.000000
vt 0.499530 0.999228
vt 0.500470 0.999228
vt 0.500470 1.000000
vt 0.500470 0.499228
vt 0.500470 0.500000
vt 0.499530 0.500000
vt 0.499530 0.499228
vt 0.500470 0.249228
vt 0.499530 0.249228
vt 0.499530 0.000772
vt 0.499530 0.000000
vt 0.500470 0.000000
vt 0.500470 0.000772
vt 0.500470 0.750000
vt 0.499530 0.750000
vt 0.500470 0.251250
vt 0.499530 0.251250
vt 0.500470 0.500772
vt 0.500470 0.501250
vt 0.499530 0.501250
vt 0.499530 0.500772
vt 0.499530 0.998750
vt 0.500470 0.998750
vt 0.000499 0.994506
vt 0.000880 0.996417
vt 0.001962 0.998038
vt 0.003583 0.999120
vt 0.005494 0.999501
vt 0.994505 0.999500
vt 0.996417 0.999120
vt 0.998038 0.998038
vt 0.999120 0.996417
vt 0.999501 0.994506
vt 0.999500 0.005494
vt 0.999120 0.003583
vt 0.998038 0.001962
vt 0.996417 0.000880
vt 0.994505 0.000499
vt 0.005494 0.000499
vt 0.003583 0.000880
vt 0.001962 0.001962
vt 0.000880 0.003583
vt 0.000499 0.005494
vt 0.500470 0.498750
vt 0.499530 0.498750
vt 0.999501 0.994506
vt 0.999120 0.996417
vt 0.998038 0.998038
vt 0.996417 0.999120
vt 0.994506 0.999501
vt 0.005494 0.999500
vt 0.003583 0.999120
vt 0.001962 0.998038
vt 0.000880 0.996417
vt 0.000499 0.994506
vt 0.000499 0.005494
vt 0.000880 0.003583
vt 0.001962 0.001962
vt 0.003583 0.000880
vt 0.005494 0.000499
vt 0.994506 0.000499
vt 0.996417 0.000880
vt 0.998038 0.001962
vt 0.999120 0.003583
vt 0.999501 0.005494
vn 0.9808 0.0000 0.1951
vn 0.1951 0.0000 0.9808
vn -1.0000 0.0000 0.0000
vn -0.5555 0.0000 -0.8315
vn -0.5556 0.0000 0.8315
vn 0.5556 0.0000 -0.8315
vn -0.9808 0.0000 -0.1951
vn -0.8315 0.0000 0.5556
vn -0.8315 0.0000 -0.5556
vn 0.8315 0.0000 0.5556
vn -0.1951 0.0000 -0.9808
vn 0.5555 0.0000 0.8315
vn 0.9808 0.0000 -0.1951
vn 0.0000 0.0000 1.0000
vn -0.1951 0.0000 0.9808
vn 0.0000 -1.0000 -0.0000
vn 0.1951 0.0000 -0.9808
vn 0.0000 1.0000 0.0000
vn 0.8315 0.0000 -0.5556
vn 1.0000 0.0000 0.0000
vn 0.0000 0.0000 -1.0000
vn -0.9808 0.0000 0.1951
s off
f 29/1/1 1/2/1 2/3/1 30/4/1
f 27/5/2 5/6/2 6/7/2 28/8/2
f 26/9/3 22/10/3 21/11/3 25/12/3
f 35/13/4 33/14/4 34/15/4 36/16/4
f 12/17/5 20/18/5 19/19/5 11/20/5
f 37/21/6 39/22/6 40/23/6 38/24/6
f 25/12/7 31/25/7 32/26/7 26/9/7
f 18/27/8 12/28/8 11/29/8 17/30/8
f 31/25/9 35/13/9 36/16/9 32/26/9
f 1/2/10 3/31/10 4/32/10 2/3/10
f 33/14/11 23/33/11 24/34/11 34/15/11
f 3/31/12 27/5/12 28/8/12 4/32/12
f 9/35/13 13/36/13 14/37/13 10/38/13
f 16/39/14 6/7/14 5/6/14 15/40/14
f 20/18/15 16/39/15 15/40/15 19/19/15
f 26/41/16 32/42/16 36/43/16 34/44/16 24/45/16 8/46/16 38/47/16 40/48/16 10/49/16 14/50/16 30/51/16 2/52/16 4/53/16 28/54/16 6/55/16 16/56/16 20/57/16 12/58/16 18/59/16 22/60/16
f 7/61/17 37/21/17 38/24/17 8/62/17
f 13/63/18 9/64/18 39/65/18 37/66/18 7/67/18 23/68/18 33/69/18 35/70/18 31/71/18 25/72/18 21/73/18 17/74/18 11/75/18 19/76/18 15/77/18 5/78/18 27/79/18 3/80/18 1/81/18 29/82/18
f 39/22/19 9/35/19 10/38/19 40/23/19
f 30/4/20 14/37/20 13/36/20 29/1/20
f 8/62/21 24/34/21 23/33/21 7/61/21
f 22/10/22 18/27/22 17/30/22 21/11/22
