# Blender v2.82 (sub 7) OBJ File: 'cardid.blend'
# www.blender.org
mtllib cardid.mtl
o Cube.002_Cube.004
v -1.702140 -0.020749 2.375489
v -1.702140 -0.019288 2.543755
v -1.817549 -0.019288 2.375489
v -1.702140 -0.020640 2.467271
v -1.765091 -0.020640 2.375489
v -1.764850 -0.020516 2.466920
v -1.765091 -0.019288 2.531183
v -1.702140 -0.020085 2.531183
v -1.764850 -0.020082 2.516885
v -1.808926 -0.020085 2.375489
v -1.808926 -0.019288 2.467271
v -1.799119 -0.020082 2.466920
v -1.702140 0.019288 2.543755
v -1.702140 0.020749 2.375489
v -1.817549 0.019288 2.375489
v -1.702140 0.020085 2.531183
v -1.765091 0.019288 2.531183
v -1.764850 0.020082 2.516885
v -1.765091 0.020640 2.375489
v -1.702140 0.020640 2.467271
v -1.764850 0.020516 2.466920
v -1.808926 0.019288 2.467271
v -1.808926 0.020085 2.375489
v -1.799119 0.020082 2.466920
v -1.702140 -0.020749 -2.375489
v -1.817549 -0.019288 -2.375489
v -1.702140 -0.019288 -2.543755
v -1.765091 -0.020640 -2.375489
v -1.702140 -0.020640 -2.467271
v -1.764850 -0.020516 -2.466920
v -1.808926 -0.019288 -2.467271
v -1.808926 -0.020085 -2.375489
v -1.799119 -0.020082 -2.466920
v -1.702140 -0.020085 -2.531183
v -1.765091 -0.019288 -2.531183
v -1.764850 -0.020082 -2.516885
v -1.702140 0.020749 -2.375489
v -1.702140 0.019288 -2.543755
v -1.817549 0.019288 -2.375489
v -1.702140 0.020640 -2.467271
v -1.765091 0.020640 -2.375489
v -1.764850 0.020516 -2.466920
v -1.765091 0.019288 -2.531183
v -1.702140 0.020085 -2.531183
v -1.764850 0.020082 -2.516885
v -1.808926 0.020085 -2.375489
v -1.808926 0.019288 -2.467271
v -1.799119 0.020082 -2.466920
v 1.702140 -0.020749 2.375489
v 1.817549 -0.019288 2.375489
v 1.702140 -0.019288 2.543755
v 1.765091 -0.020640 2.375489
v 1.702140 -0.020640 2.467271
v 1.764850 -0.020516 2.466920
v 1.808926 -0.019288 2.467271
v 1.808926 -0.020085 2.375489
v 1.799119 -0.020082 2.466920
v 1.702140 -0.020085 2.531183
v 1.765091 -0.019288 2.531183
v 1.764850 -0.020082 2.516885
v 1.702140 0.020749 2.375489
v 1.702140 0.019288 2.543755
v 1.817549 0.019288 2.375489
v 1.702140 0.020640 2.467271
v 1.765091 0.020640 2.375489
v 1.764850 0.020516 2.466920
v 1.765091 0.019288 2.531183
v 1.702140 0.020085 2.531183
v 1.764850 0.020082 2.516885
v 1.808926 0.020085 2.375489
v 1.808926 0.019288 2.467271
v 1.799119 0.020082 2.466920
v 1.702140 -0.020749 -2.375489
v 1.702140 -0.019288 -2.543755
v 1.817549 -0.019288 -2.375489
v 1.702140 -0.020640 -2.467271
v 1.765091 -0.020640 -2.375489
v 1.764850 -0.020516 -2.466920
v 1.765091 -0.019288 -2.531183
v 1.702140 -0.020085 -2.531183
v 1.764850 -0.020082 -2.516885
v 1.808926 -0.020085 -2.375489
v 1.808926 -0.019288 -2.467271
v 1.799119 -0.020082 -2.466920
v 1.702140 0.020749 -2.375489
v 1.817549 0.019288 -2.375489
v 1.702140 0.019288 -2.543755
v 1.765091 0.020640 -2.375489
v 1.702140 0.020640 -2.467271
v 1.764850 0.020516 -2.466920
v 1.808926 0.019288 -2.467271
v 1.808926 0.020085 -2.375489
v 1.799119 0.020082 -2.466920
v 1.702140 0.020085 -2.531183
v 1.765091 0.019288 -2.531183
v 1.764850 0.020082 -2.516885
v -1.630808 0.020749 -2.322838
v -1.630808 -0.020749 -2.322838
v 1.630808 0.020749 -2.322838
v 1.630808 -0.020749 -2.322838
v 1.630808 -0.020749 2.322838
v 1.630808 0.020749 2.322838
v -1.630808 -0.020749 2.322838
v -1.630808 0.020749 2.322838
vt 0.616203 0.757937
vt 0.383797 0.992063
vt 0.383797 0.757937
vt 0.616203 0.508269
vt 0.383797 0.741731
vt 0.383797 0.508269
vt 0.637843 0.739144
vt 0.867063 0.741731
vt 0.632937 0.741731
vt 0.616203 0.008269
vt 0.383797 0.241731
vt 0.383797 0.008269
vt 0.616203 0.257937
vt 0.383797 0.492063
vt 0.383797 0.257937
vt 0.132937 0.746242
vt 0.128608 0.741731
vt 0.132937 0.741731
vt 0.128624 0.750000
vt 0.128624 0.746224
vt 0.383797 0.996392
vt 0.378999 0.992063
vt 0.379017 1.000000
vt 0.379017 0.996376
vt 0.378999 0.008269
vt 0.383797 0.003758
vt 0.375000 0.003776
vt 0.379017 0.003776
vt 0.125000 0.746224
vt 0.621001 0.992063
vt 0.616203 0.996392
vt 0.616203 0.992063
vt 0.625000 0.992063
vt 0.620983 0.996376
vt 0.871392 0.741731
vt 0.867063 0.746242
vt 0.875000 0.741731
vt 0.871376 0.746224
vt 0.616203 0.003758
vt 0.621001 0.008269
vt 0.616203 0.000000
vt 0.620983 0.003776
vt 0.625000 0.996376
vt 0.620983 1.000000
vt 0.128608 0.508269
vt 0.132937 0.503758
vt 0.132937 0.508269
vt 0.125000 0.508269
vt 0.128624 0.503776
vt 0.383797 0.246242
vt 0.378999 0.241731
vt 0.383797 0.253608
vt 0.379017 0.246224
vt 0.378999 0.257937
vt 0.375000 0.257937
vt 0.379017 0.253624
vt 0.125000 0.503776
vt 0.128624 0.500000
vt 0.867063 0.503758
vt 0.871392 0.508269
vt 0.867063 0.508269
vt 0.871376 0.500000
vt 0.871376 0.503776
vt 0.616203 0.253608
vt 0.621001 0.257937
vt 0.620983 0.246224
vt 0.620983 0.253624
vt 0.621001 0.241731
vt 0.616203 0.246242
vt 0.616203 0.241731
vt 0.625000 0.246224
vt 0.875000 0.503776
vt 0.371392 0.741731
vt 0.367063 0.746242
vt 0.367063 0.741731
vt 0.378999 0.741731
vt 0.371376 0.746224
vt 0.383797 0.746242
vt 0.383797 0.753608
vt 0.379017 0.746224
vt 0.378999 0.757937
vt 0.375000 0.757937
vt 0.379017 0.753624
vt 0.375000 0.746224
vt 0.371376 0.750000
vt 0.632937 0.746242
vt 0.628608 0.741731
vt 0.628624 0.750000
vt 0.628624 0.746224
vt 0.616203 0.753608
vt 0.621001 0.757937
vt 0.620983 0.746224
vt 0.620983 0.753624
vt 0.621001 0.741731
vt 0.616203 0.746242
vt 0.616203 0.741731
vt 0.625000 0.746224
vt 0.367063 0.503758
vt 0.371392 0.508269
vt 0.367063 0.508269
vt 0.371376 0.500000
vt 0.371376 0.503776
vt 0.383797 0.496392
vt 0.378999 0.492063
vt 0.379017 0.503776
vt 0.379017 0.496376
vt 0.378999 0.508269
vt 0.383797 0.503758
vt 0.375000 0.503776
vt 0.628608 0.508269
vt 0.632937 0.503758
vt 0.632937 0.508269
vt 0.621001 0.508269
vt 0.628624 0.503776
vt 0.616203 0.503758
vt 0.616203 0.496392
vt 0.620983 0.503776
vt 0.621001 0.492063
vt 0.616203 0.492063
vt 0.625000 0.492063
vt 0.620983 0.496376
vt 0.625000 0.503776
vt 0.628624 0.500000
vt 0.383797 1.000000
vt 0.367063 0.500000
vt 0.867063 0.500000
vt 0.132937 0.750000
vt 0.632937 0.750000
vt 0.362157 0.739144
vt 0.362157 0.510856
vt 0.471602 0.750000
vt 0.528398 0.500000
vt 0.471602 0.500000
vt 0.137843 0.739144
vt 0.137843 0.510856
vt 0.471602 0.250000
vt 0.528398 0.250000
vt 0.471602 0.000000
vt 0.862157 0.510856
vt 0.528398 1.000000
vt 0.471602 1.000000
vt 0.637843 0.510856
vt 0.862157 0.739144
vt 0.375000 0.008269
vt 0.875000 0.746224
vt 0.620983 0.000000
vt 0.375000 0.253624
vt 0.625000 0.241731
vt 0.375000 0.753624
vt 0.625000 0.496376
vt 0.125000 0.741731
vt 0.616203 1.000000
vt 0.875000 0.508269
vt 0.132937 0.500000
vt 0.632937 0.500000
vt 0.367063 0.750000
vt 0.867063 0.750000
vt 0.528398 0.750000
vt 0.528398 0.000000
vn 0.0000 0.0000 1.0000
vn 1.0000 0.0000 0.0000
vn 0.0000 1.0000 0.0000
vn -1.0000 0.0000 0.0000
vn 0.0000 0.0000 -1.0000
vn -0.0017 -1.0000 0.0012
vn -0.0020 -1.0000 0.0087
vn -0.0126 -0.9979 0.0632
vn -0.0786 -0.9954 0.0539
vn -0.0920 -0.9957 0.0086
vn -0.0127 -0.9999 0.0014
vn -0.0127 -0.9999 0.0087
vn -0.0126 0.9979 0.0632
vn -0.0020 1.0000 0.0087
vn -0.0017 1.0000 0.0012
vn -0.0127 0.9999 0.0014
vn -0.0920 0.9957 0.0086
vn -0.0786 0.9954 0.0539
vn -0.0127 0.9999 0.0087
vn -0.0017 -1.0000 -0.0012
vn -0.0127 -0.9999 -0.0014
vn -0.0920 -0.9957 -0.0086
vn -0.0786 -0.9954 -0.0539
vn -0.0126 -0.9979 -0.0632
vn -0.0020 -1.0000 -0.0087
vn -0.0127 -0.9999 -0.0087
vn -0.0017 1.0000 -0.0012
vn -0.0020 1.0000 -0.0087
vn -0.0126 0.9979 -0.0632
vn -0.0786 0.9954 -0.0539
vn -0.0920 0.9957 -0.0086
vn -0.0127 0.9999 -0.0014
vn -0.0127 0.9999 -0.0087
vn 0.0017 -1.0000 0.0012
vn 0.0127 -0.9999 0.0014
vn 0.0920 -0.9957 0.0086
vn 0.0786 -0.9954 0.0539
vn 0.0126 -0.9979 0.0632
vn 0.0020 -1.0000 0.0087
vn 0.0127 -0.9999 0.0087
vn 0.0017 1.0000 0.0012
vn 0.0020 1.0000 0.0087
vn 0.0126 0.9979 0.0632
vn 0.0786 0.9954 0.0539
vn 0.0920 0.9957 0.0086
vn 0.0127 0.9999 0.0014
vn 0.0127 0.9999 0.0087
vn 0.0017 -1.0000 -0.0012
vn 0.0020 -1.0000 -0.0087
vn 0.0126 -0.9979 -0.0632
vn 0.0786 -0.9954 -0.0539
vn 0.0920 -0.9957 -0.0086
vn 0.0127 -0.9999 -0.0014
vn 0.0127 -0.9999 -0.0087
vn 0.0017 1.0000 -0.0012
vn 0.0127 0.9999 -0.0014
vn 0.0920 0.9957 -0.0086
vn 0.0786 0.9954 -0.0539
vn 0.0126 0.9979 -0.0632
vn 0.0020 1.0000 -0.0087
vn 0.0127 0.9999 -0.0087
vn -0.0017 -1.0000 0.0000
vn -0.0127 -0.9999 0.0000
vn -0.0920 -0.9958 0.0000
vn -0.1958 0.0000 0.9806
vn -0.8247 0.0000 0.5656
vn -0.9956 0.0000 0.0935
vn -0.0017 1.0000 0.0000
vn -0.0127 0.9999 0.0000
vn -0.0920 0.9958 0.0000
vn -0.1958 0.0000 -0.9806
vn -0.8247 0.0000 -0.5656
vn -0.9956 0.0000 -0.0935
vn 0.0000 -1.0000 -0.0012
vn 0.0000 -1.0000 -0.0087
vn 0.0000 -0.9980 -0.0632
vn 0.0000 1.0000 -0.0012
vn 0.0000 1.0000 -0.0087
vn 0.0000 0.9980 -0.0632
vn 0.9956 0.0000 -0.0935
vn 0.8247 0.0000 -0.5656
vn 0.1958 0.0000 -0.9806
vn 0.0017 -1.0000 0.0000
vn 0.0127 -0.9999 0.0000
vn 0.0920 -0.9958 0.0000
vn 0.0017 1.0000 0.0000
vn 0.0127 0.9999 0.0000
vn 0.0920 0.9958 0.0000
vn 0.1958 0.0000 0.9806
vn 0.8247 0.0000 0.5656
vn 0.9956 0.0000 0.0935
vn 0.0000 -1.0000 0.0012
vn 0.0000 -1.0000 0.0087
vn 0.0000 -0.9980 0.0632
vn 0.0000 1.0000 0.0012
vn 0.0000 1.0000 0.0087
vn 0.0000 0.9980 0.0632
vn 0.0000 -1.0000 0.0000
vn -0.0020 -1.0000 0.0014
vn -0.0126 -0.9984 0.0552
vn -0.0803 -0.9967 0.0086
vn -0.0126 0.9984 0.0552
vn -0.0020 1.0000 0.0014
vn -0.0803 0.9967 0.0086
vn -0.0020 -1.0000 -0.0014
vn -0.0803 -0.9967 -0.0086
vn -0.0126 -0.9984 -0.0552
vn -0.0020 1.0000 -0.0014
vn -0.0126 0.9984 -0.0552
vn -0.0803 0.9967 -0.0086
vn 0.0020 -1.0000 0.0014
vn 0.0803 -0.9967 0.0086
vn 0.0126 -0.9984 0.0552
vn 0.0020 1.0000 0.0014
vn 0.0126 0.9984 0.0552
vn 0.0803 0.9967 0.0086
vn 0.0020 -1.0000 -0.0014
vn 0.0126 -0.9984 -0.0552
vn 0.0803 -0.9967 -0.0086
vn 0.0020 1.0000 -0.0014
vn 0.0803 0.9967 -0.0086
vn 0.0126 0.9984 -0.0552
usemtl None
s off
f 62/1/1 2/2/1 51/3/1
f 86/4/2 50/5/2 75/6/2
f 102/7/3 14/8/3 61/9/3
f 15/10/4 26/11/4 3/12/4
f 38/13/5 74/14/5 27/15/5
f 4/16/6 5/17/6 1/18/6
f 4/16/7 9/19/7 6/20/7
f 7/21/8 8/22/8 2/2/8
f 7/21/9 12/23/9 9/24/9
f 10/25/10 11/26/10 3/12/10
f 10/25/11 6/27/11 12/28/11
f 6/20/12 9/19/12 12/29/12
f 16/30/13 17/31/13 13/32/13
f 20/33/14 18/34/14 16/30/14
f 19/35/15 20/36/15 14/8/15
f 23/37/16 21/38/16 19/35/16
f 22/39/17 23/40/17 15/10/17
f 17/41/18 24/42/18 22/39/18
f 18/34/19 21/43/19 24/44/19
f 28/45/20 29/46/20 25/47/20
f 32/48/21 30/49/21 28/45/21
f 31/50/22 32/51/22 26/11/22
f 35/52/23 33/53/23 31/50/23
f 34/54/24 35/52/24 27/15/24
f 29/55/25 36/56/25 34/54/25
f 30/49/26 33/57/26 36/58/26
f 40/59/27 41/60/27 37/61/27
f 40/59/28 45/62/28 42/63/28
f 43/64/29 44/65/29 38/13/29
f 43/64/30 48/66/30 45/67/30
f 46/68/31 47/69/31 39/70/31
f 46/68/32 42/71/32 48/66/32
f 42/63/33 45/62/33 48/72/33
f 52/73/34 53/74/34 49/75/34
f 56/76/35 54/77/35 52/73/35
f 55/78/36 56/76/36 50/5/36
f 59/79/37 57/80/37 55/78/37
f 58/81/38 59/79/38 51/3/38
f 53/82/39 60/83/39 58/81/39
f 54/77/40 57/84/40 60/85/40
f 64/86/41 65/87/41 61/9/41
f 64/86/42 69/88/42 66/89/42
f 67/90/43 68/91/43 62/1/43
f 67/90/44 72/92/44 69/93/44
f 70/94/45 71/95/45 63/96/45
f 70/94/46 66/89/46 72/92/46
f 66/89/47 69/88/47 72/97/47
f 76/98/48 77/99/48 73/100/48
f 76/98/49 81/101/49 78/102/49
f 79/103/50 80/104/50 74/14/50
f 79/103/51 84/105/51 81/106/51
f 82/107/52 83/108/52 75/6/52
f 82/107/53 78/102/53 84/105/53
f 78/102/54 81/101/54 84/109/54
f 88/110/55 89/111/55 85/112/55
f 92/113/56 90/114/56 88/110/56
f 91/115/57 92/113/57 86/4/57
f 95/116/58 93/117/58 91/115/58
f 94/118/59 95/116/59 87/119/59
f 89/120/60 96/121/60 94/118/60
f 90/114/61 93/122/61 96/123/61
f 1/18/62 28/45/62 25/47/62
f 5/17/63 32/48/63 28/45/63
f 10/25/64 26/11/64 32/51/64
f 13/32/65 7/21/65 2/2/65
f 17/31/66 11/124/66 7/21/66
f 22/39/67 3/12/67 11/26/67
f 37/61/68 19/35/68 14/8/68
f 41/60/69 23/37/69 19/35/69
f 46/68/70 15/10/70 23/40/70
f 27/15/71 43/64/71 38/13/71
f 35/52/72 47/69/72 43/64/72
f 31/50/73 39/70/73 47/69/73
f 25/47/74 76/98/74 73/100/74
f 29/46/75 80/125/75 76/98/75
f 34/54/76 74/14/76 80/104/76
f 85/112/77 40/59/77 37/61/77
f 89/111/78 44/126/78 40/59/78
f 94/118/79 38/13/79 44/65/79
f 75/6/80 91/115/80 86/4/80
f 83/108/81 95/116/81 91/115/81
f 79/103/82 87/119/82 95/116/82
f 73/100/83 52/73/83 49/75/83
f 77/99/84 56/76/84 52/73/84
f 82/107/85 50/5/85 56/76/85
f 61/9/86 88/110/86 85/112/86
f 65/87/87 92/113/87 88/110/87
f 70/94/88 86/4/88 92/113/88
f 51/3/89 67/90/89 62/1/89
f 59/79/90 71/95/90 67/90/90
f 55/78/91 63/96/91 71/95/91
f 49/75/92 4/16/92 1/18/92
f 53/74/93 8/127/93 4/16/93
f 58/81/94 2/2/94 8/22/94
f 14/8/95 64/86/95 61/9/95
f 20/36/96 68/128/96 64/86/96
f 16/30/97 62/1/97 68/91/97
f 73/100/98 101/129/98 100/130/98
f 101/131/4 99/132/4 100/133/4
f 103/134/98 1/18/98 98/135/98
f 99/132/1 98/136/1 100/133/1
f 97/137/2 103/138/2 98/136/2
f 97/139/3 85/112/3 37/61/3
f 104/140/5 101/131/5 103/141/5
f 62/1/1 13/32/1 2/2/1
f 86/4/2 63/96/2 50/5/2
f 61/9/3 85/112/3 99/142/3
f 102/7/3 104/143/3 14/8/3
f 61/9/3 99/142/3 102/7/3
f 15/10/4 39/70/4 26/11/4
f 38/13/5 87/119/5 74/14/5
f 4/16/99 6/20/99 5/17/99
f 4/16/7 8/127/7 9/19/7
f 7/21/100 9/24/100 8/22/100
f 7/21/9 11/124/9 12/23/9
f 10/25/101 12/28/101 11/26/101
f 10/25/11 5/144/11 6/27/11
f 16/30/102 18/34/102 17/31/102
f 20/33/14 21/43/14 18/34/14
f 19/35/103 21/38/103 20/36/103
f 23/37/16 24/145/16 21/38/16
f 22/39/104 24/42/104 23/40/104
f 17/41/18 18/146/18 24/42/18
f 28/45/105 30/49/105 29/46/105
f 32/48/21 33/57/21 30/49/21
f 31/50/106 33/53/106 32/51/106
f 35/52/23 36/56/23 33/53/23
f 34/54/107 36/56/107 35/52/107
f 29/55/25 30/147/25 36/56/25
f 40/59/108 42/63/108 41/60/108
f 40/59/28 44/126/28 45/62/28
f 43/64/109 45/67/109 44/65/109
f 43/64/30 47/69/30 48/66/30
f 46/68/110 48/66/110 47/69/110
f 46/68/32 41/148/32 42/71/32
f 52/73/111 54/77/111 53/74/111
f 56/76/35 57/80/35 54/77/35
f 55/78/112 57/80/112 56/76/112
f 59/79/37 60/83/37 57/80/37
f 58/81/113 60/83/113 59/79/113
f 53/82/39 54/149/39 60/83/39
f 64/86/114 66/89/114 65/87/114
f 64/86/42 68/128/42 69/88/42
f 67/90/115 69/93/115 68/91/115
f 67/90/44 71/95/44 72/92/44
f 70/94/116 72/92/116 71/95/116
f 70/94/46 65/87/46 66/89/46
f 76/98/117 78/102/117 77/99/117
f 76/98/49 80/125/49 81/101/49
f 79/103/118 81/106/118 80/104/118
f 79/103/51 83/108/51 84/105/51
f 82/107/119 84/105/119 83/108/119
f 82/107/53 77/99/53 78/102/53
f 88/110/120 90/114/120 89/111/120
f 92/113/56 93/117/56 90/114/56
f 91/115/121 93/117/121 92/113/121
f 95/116/58 96/121/58 93/117/58
f 94/118/122 96/121/122 95/116/122
f 89/120/60 90/150/60 96/121/60
f 1/18/62 5/17/62 28/45/62
f 5/17/63 10/151/63 32/48/63
f 10/25/64 3/12/64 26/11/64
f 13/32/65 17/31/65 7/21/65
f 17/31/66 22/152/66 11/124/66
f 22/39/67 15/10/67 3/12/67
f 37/61/68 41/60/68 19/35/68
f 41/60/69 46/153/69 23/37/69
f 46/68/70 39/70/70 15/10/70
f 27/15/71 35/52/71 43/64/71
f 35/52/72 31/50/72 47/69/72
f 31/50/73 26/11/73 39/70/73
f 25/47/74 29/46/74 76/98/74
f 29/46/75 34/154/75 80/125/75
f 34/54/76 27/15/76 74/14/76
f 85/112/77 89/111/77 40/59/77
f 89/111/78 94/155/78 44/126/78
f 94/118/79 87/119/79 38/13/79
f 75/6/80 83/108/80 91/115/80
f 83/108/81 79/103/81 95/116/81
f 79/103/82 74/14/82 87/119/82
f 73/100/83 77/99/83 52/73/83
f 77/99/84 82/107/84 56/76/84
f 82/107/85 75/6/85 50/5/85
f 61/9/86 65/87/86 88/110/86
f 65/87/87 70/94/87 92/113/87
f 70/94/88 63/96/88 86/4/88
f 51/3/89 59/79/89 67/90/89
f 59/79/90 55/78/90 71/95/90
f 55/78/91 50/5/91 63/96/91
f 49/75/92 53/74/92 4/16/92
f 53/74/93 58/156/93 8/127/93
f 58/81/94 51/3/94 2/2/94
f 14/8/95 20/36/95 64/86/95
f 20/36/96 16/157/96 68/128/96
f 16/30/97 13/32/97 62/1/97
f 98/135/98 25/47/98 73/100/98
f 73/100/98 49/75/98 101/129/98
f 100/130/98 98/135/98 73/100/98
f 101/131/4 102/158/4 99/132/4
f 103/134/98 101/129/98 49/75/98
f 1/18/98 25/47/98 98/135/98
f 103/134/98 49/75/98 1/18/98
f 99/132/1 97/137/1 98/136/1
f 97/137/2 104/159/2 103/138/2
f 37/61/3 14/8/3 104/143/3
f 97/139/3 99/142/3 85/112/3
f 37/61/3 104/143/3 97/139/3
f 104/140/5 102/158/5 101/131/5
