# Blender v2.91.0 OBJ File: ''
# www.blender.org
o Cube.001
v -0.639484 0.048711 -0.625710
v 0.639484 0.048710 0.625710
v 0.639484 0.048711 -0.625710
v -0.639484 0.048710 0.625710
v -0.639484 -0.048711 0.625710
v -0.639484 -0.048710 -0.625710
v 0.639484 -0.048711 0.625710
v 0.639484 -0.048710 -0.625710
v -0.639484 0.048711 -0.625710
v -0.639484 0.046162 -0.660252
v -0.674787 0.046162 -0.625710
v -0.674787 -0.046162 -0.625710
v -0.639484 0.046162 -0.660252
v -0.639484 -0.046162 -0.660252
v -0.674787 0.046162 -0.625710
v -0.674787 -0.046162 -0.625710
v -0.639484 -0.046162 -0.660252
v -0.639484 -0.048710 -0.625710
v -0.639484 -0.046162 0.660253
v -0.674787 -0.046162 0.625710
v -0.639484 -0.048711 0.625710
v -0.639484 -0.046162 0.660253
v -0.674787 0.046162 0.625710
v -0.674787 -0.046162 0.625710
v -0.639484 0.046162 0.660253
v -0.674787 0.046162 0.625710
v -0.639484 0.046162 0.660253
v -0.639484 0.048710 0.625710
v 0.639484 -0.046162 0.660253
v 0.674787 -0.046162 0.625710
v 0.639484 -0.048711 0.625710
v 0.639484 0.046162 0.660253
v 0.639484 0.048710 0.625710
v 0.674787 0.046162 0.625710
v 0.639484 0.046162 0.660253
v 0.639484 -0.046162 0.660253
v 0.674787 -0.046162 0.625710
v 0.674787 0.046162 0.625710
v 0.674787 -0.046162 -0.625710
v 0.639484 -0.046162 -0.660252
v 0.639484 -0.048710 -0.625710
v 0.674787 0.046162 -0.625710
v 0.674787 -0.046162 -0.625710
v 0.639484 -0.046162 -0.660252
v 0.639484 0.046162 -0.660252
v 0.674787 0.046162 -0.625710
v 0.639484 0.048711 -0.625710
v 0.639484 0.046162 -0.660252
v -0.639484 0.046162 -0.660252
v 0.639484 -0.046162 -0.660252
v -0.639484 -0.046162 -0.660252
v 0.639484 0.046162 -0.660252
v 0.674787 0.046162 -0.625710
v 0.674787 -0.046162 0.625710
v 0.674787 -0.046162 -0.625710
v 0.674787 0.046162 0.625710
v 0.639484 0.046162 0.660253
v -0.639484 -0.046162 0.660253
v 0.639484 -0.046162 0.660253
v -0.639484 0.046162 0.660253
v -0.674787 0.046162 0.625710
v -0.674787 -0.046162 -0.625710
v -0.674787 -0.046162 0.625710
v -0.674787 0.046162 -0.625710
v -0.639484 0.048711 -0.625710
v -0.674787 0.046162 0.625710
v -0.639484 0.048710 0.625710
v -0.674787 0.046162 -0.625710
v -0.639484 0.048711 -0.625710
v 0.639484 0.048711 -0.625710
v -0.639484 0.046162 -0.660252
v 0.639484 0.046162 -0.660252
v 0.674787 0.046162 -0.625710
v 0.639484 0.048710 0.625710
v 0.639484 0.048711 -0.625710
v 0.674787 0.046162 0.625710
v 0.639484 0.046162 0.660253
v 0.639484 0.048710 0.625710
v -0.639484 0.046162 0.660253
v -0.639484 0.048710 0.625710
v -0.674787 -0.046162 -0.625710
v -0.674787 -0.046162 0.625710
v -0.639484 -0.048711 0.625710
v -0.639484 -0.048710 -0.625710
v -0.639484 -0.046162 0.660253
v 0.639484 -0.046162 0.660253
v -0.639484 -0.048711 0.625710
v 0.639484 -0.048711 0.625710
v 0.674787 -0.046162 0.625710
v 0.674787 -0.046162 -0.625710
v 0.639484 -0.048711 0.625710
v 0.639484 -0.048710 -0.625710
v 0.639484 -0.046162 -0.660252
v -0.639484 -0.046162 -0.660252
v -0.639484 -0.048710 -0.625710
v 0.639484 -0.048710 -0.625710
vt 0.868460 0.506540
vt 0.631540 0.743460
vt 0.631540 0.506540
vt 0.868460 0.743460
vt 0.368460 0.506540
vt 0.131540 0.743460
vt 0.131540 0.506540
vt 0.368460 0.743460
vt 0.625000 0.256540
vt 0.625000 0.256540
vt 0.618460 0.250000
vt 0.381540 0.256540
vt 0.618460 0.243460
vt 0.618460 0.256540
vt 0.381540 0.243460
vt 0.375000 0.243460
vt 0.375000 0.243460
vt 0.381540 0.250000
vt 0.375000 0.993460
vt 0.375000 0.993460
vt 0.381540 1.000000
vt 0.618460 0.000000
vt 0.381540 0.006540
vt 0.381540 0.000000
vt 0.618460 0.006540
vt 0.618460 0.993460
vt 0.625000 0.993460
vt 0.618460 1.000000
vt 0.375000 0.743460
vt 0.375000 0.743460
vt 0.381540 0.750000
vt 0.625000 0.756540
vt 0.625000 0.756540
vt 0.618460 0.750000
vt 0.381540 0.756540
vt 0.618460 0.743460
vt 0.618460 0.756540
vt 0.381540 0.743460
vt 0.375000 0.493460
vt 0.375000 0.493460
vt 0.381540 0.500000
vt 0.381540 0.506540
vt 0.618460 0.493460
vt 0.618460 0.506540
vt 0.381540 0.493460
vt 0.625000 0.506540
vt 0.625000 0.506540
vt 0.618460 0.500000
vt 0.618460 0.256540
vt 0.381540 0.493460
vt 0.381540 0.256540
vt 0.618460 0.493460
vt 0.618460 0.506540
vt 0.381540 0.743460
vt 0.381540 0.506540
vt 0.618460 0.743460
vt 0.618460 0.756540
vt 0.381540 0.993460
vt 0.381540 0.756540
vt 0.618460 0.993460
vt 0.618460 0.006540
vt 0.381540 0.243460
vt 0.381540 0.006540
vt 0.618460 0.243460
vt 0.625000 0.243460
vt 0.618460 0.006540
vt 0.625000 0.006540
vt 0.618460 0.243460
vt 0.625000 0.493460
vt 0.618460 0.256540
vt 0.625000 0.256540
vt 0.618460 0.493460
vt 0.631540 0.743460
vt 0.618460 0.506540
vt 0.631540 0.506540
vt 0.618460 0.743460
vt 0.625000 0.993460
vt 0.618460 0.756540
vt 0.625000 0.756540
vt 0.618460 0.993460
vt 0.375000 0.006540
vt 0.381540 0.243460
vt 0.375000 0.243460
vt 0.381540 0.006540
vt 0.375000 0.756540
vt 0.381540 0.993460
vt 0.375000 0.993460
vt 0.381540 0.756540
vt 0.368460 0.506540
vt 0.381540 0.743460
vt 0.368460 0.743460
vt 0.381540 0.506540
vt 0.375000 0.256540
vt 0.381540 0.493460
vt 0.375000 0.493460
vt 0.381540 0.256540
vn 0.0000 1.0000 0.0000
vn 0.0000 -1.0000 -0.0000
vn -0.0718 0.9947 -0.0734
vn -0.6994 0.0000 -0.7148
vn -0.0718 -0.9947 -0.0734
vn -0.0718 -0.9947 0.0734
vn -0.6994 0.0000 0.7148
vn -0.0718 0.9947 0.0734
vn 0.0718 -0.9947 0.0734
vn 0.0718 0.9947 0.0734
vn 0.6994 0.0000 0.7148
vn 0.0718 -0.9947 -0.0734
vn 0.6994 0.0000 -0.7148
vn 0.0718 0.9947 -0.0734
vn 0.0000 0.0000 -1.0000
vn 1.0000 0.0000 0.0000
vn 0.0000 0.0000 1.0000
vn -1.0000 0.0000 0.0000
vn -0.0720 0.9974 0.0000
vn 0.0000 0.9973 -0.0736
vn 0.0720 0.9974 0.0000
vn 0.0000 0.9973 0.0736
vn -0.0720 -0.9974 -0.0000
vn 0.0000 -0.9973 0.0736
vn 0.0720 -0.9974 -0.0000
vn 0.0000 -0.9973 -0.0736
s 1
f 1/1/1 2/2/1 3/3/1
f 1/1/1 4/4/1 2/2/1
f 8/5/2 5/6/2 6/7/2
f 8/5/2 7/8/2 5/6/2
f 9/9/3 10/10/3 11/11/3
f 14/12/4 15/13/4 13/14/4
f 14/12/4 12/15/4 15/13/4
f 18/16/5 16/17/5 17/18/5
f 21/19/6 19/20/6 20/21/6
f 25/22/7 24/23/7 22/24/7
f 25/22/7 23/25/7 24/23/7
f 27/26/8 28/27/8 26/28/8
f 31/29/9 30/30/9 29/31/9
f 33/32/10 32/33/10 34/34/10
f 36/35/11 38/36/11 35/37/11
f 36/35/11 37/38/11 38/36/11
f 41/39/12 40/40/12 39/41/12
f 43/42/13 45/43/13 42/44/13
f 43/42/13 44/45/13 45/43/13
f 47/46/14 46/47/14 48/48/14
f 49/49/15 50/50/15 51/51/15
f 49/49/15 52/52/15 50/50/15
f 53/53/16 54/54/16 55/55/16
f 53/53/16 56/56/16 54/54/16
f 57/57/17 58/58/17 59/59/17
f 57/57/17 60/60/17 58/58/17
f 61/61/18 62/62/18 63/63/18
f 61/61/18 64/64/18 62/62/18
f 65/65/19 66/66/19 67/67/19
f 65/65/19 68/68/19 66/66/19
f 70/69/20 71/70/20 69/71/20
f 70/69/20 72/72/20 71/70/20
f 74/73/21 73/74/21 75/75/21
f 74/73/21 76/76/21 73/74/21
f 80/77/22 77/78/22 78/79/22
f 80/77/22 79/80/22 77/78/22
f 83/81/23 81/82/23 84/83/23
f 83/81/23 82/84/23 81/82/23
f 88/85/24 85/86/24 87/87/24
f 88/85/24 86/88/24 85/86/24
f 92/89/25 89/90/25 91/91/25
f 92/89/25 90/92/25 89/90/25
f 95/93/26 93/94/26 96/95/26
f 95/93/26 94/96/26 93/94/26
