# Blender v2.82 (sub 7) OBJ File: ''
# www.blender.org
o A1_httpsrawgithubusercontentcomJohnnyCheeseTTSXWing20masterass.
v -2.831313 -0.001600 -3.820122
v 4.622336 -0.001600 -1.220035
v 2.947322 -0.001599 -3.981322
v 4.622336 -0.001600 -1.220035
v -3.358694 -0.001602 3.304494
v -4.224395 -0.001601 -2.138475
v 4.289654 -0.001600 2.632167
v 3.485316 -0.001601 3.834529
v 3.949676 -0.001601 3.278955
v 2.946326 -0.001601 4.274013
v 2.316123 -0.001601 4.613991
v 1.304480 -0.001601 4.912508
v -0.113478 -0.001601 4.912509
v 0.591355 -0.001601 4.978846
v 4.683366 -0.001600 1.135599
v -1.698937 -0.001601 4.498564
v -3.358694 -0.001602 3.304494
v -2.331795 -0.001601 4.176165
v -4.702023 -0.001601 -0.616035
v -4.503011 -0.001601 1.483537
v -4.702023 -0.001601 0.796947
v -4.781628 -0.001601 0.080505
v -4.224395 -0.001601 -2.138475
v -3.378595 -0.001600 -3.362396
v -3.876124 -0.001601 -2.775312
v -1.191126 -0.001599 -4.770403
v 0.194327 -0.001599 -5.026133
v -0.527754 -0.001599 -4.961123
v 1.612285 -0.001599 -4.735908
v 0.899160 -0.001599 -4.959796
v 3.511188 -0.001599 -3.483793
v 3.967256 -0.001600 -2.928219
v 4.323818 -0.001600 -2.306307
v 4.755010 -0.001600 0.454979
v 0.591355 -0.001601 4.978846
v -0.113478 -0.001601 4.912509
v 1.304480 -0.001601 4.912508
v 4.289654 -0.001600 2.632167
v 2.316123 -0.001601 4.613991
v 2.946326 -0.001601 4.274013
v 3.485316 -0.001601 3.834529
v 3.949676 -0.001601 3.278955
v 4.683366 -0.001600 1.135599
v -1.698937 -0.001601 4.498564
v 4.755010 -0.001600 0.454979
v 3.967256 -0.001600 -2.928219
v 4.323818 -0.001600 -2.306307
v -1.191126 -0.001599 -4.770403
v 1.612285 -0.001599 -4.735908
v 2.947322 -0.001599 -3.981322
v 3.511188 -0.001599 -3.483793
v -2.831313 -0.001600 -3.820122
v 0.194327 -0.001599 -5.026133
v 0.899160 -0.001599 -4.959796
v -0.527754 -0.001599 -4.961123
v -3.378595 -0.001600 -3.362396
v -3.876124 -0.001601 -2.775312
v -4.702023 -0.001601 -0.616035
v -4.702023 -0.001601 0.796947
v -4.781628 -0.001601 0.080505
v -4.503011 -0.001601 1.483537
v -2.331795 -0.001601 4.176165
vn -0.0000 1.0000 0.0000
vn 0.0000 -1.0000 -0.0000
s 1
f 1//1 2//1 3//1
f 4//2 5//2 6//2
f 7//1 8//1 9//1
f 8//1 7//1 10//1
f 10//1 7//1 11//1
f 11//1 7//1 12//1
f 12//1 13//1 14//1
f 7//1 13//1 12//1
f 13//1 15//1 16//1
f 16//1 17//1 18//1
f 17//1 19//1 20//1
f 20//1 19//1 21//1
f 21//1 19//1 22//1
f 19//1 17//1 23//1
f 23//1 24//1 25//1
f 1//1 24//1 23//1
f 1//1 3//1 26//1
f 26//1 27//1 28//1
f 26//1 29//1 27//1
f 27//1 29//1 30//1
f 29//1 26//1 3//1
f 3//1 2//1 31//1
f 31//1 2//1 32//1
f 32//1 2//1 33//1
f 2//1 17//1 34//1
f 34//1 16//1 15//1
f 2//1 23//1 17//1
f 15//1 13//1 7//1
f 16//1 34//1 17//1
f 23//1 2//1 1//1
f 35//2 36//2 37//2
f 37//2 38//2 39//2
f 36//2 38//2 37//2
f 39//2 38//2 40//2
f 40//2 38//2 41//2
f 41//2 38//2 42//2
f 38//2 36//2 43//2
f 43//2 44//2 45//2
f 36//2 44//2 43//2
f 45//2 5//2 4//2
f 4//2 46//2 47//2
f 48//2 49//2 50//2
f 46//2 4//2 51//2
f 51//2 4//2 50//2
f 4//2 52//2 50//2
f 49//2 53//2 54//2
f 53//2 48//2 55//2
f 48//2 50//2 52//2
f 52//2 6//2 56//2
f 4//2 6//2 52//2
f 56//2 6//2 57//2
f 6//2 5//2 58//2
f 58//2 59//2 60//2
f 61//2 59//2 58//2
f 61//2 58//2 5//2
f 5//2 44//2 62//2
f 45//2 44//2 5//2
f 49//2 48//2 53//2
