# Blender v2.82 (sub 7) OBJ File: ''
# www.blender.org
o Debris3_path854.001
v -0.157733 0.044148 -0.983960
v -0.096100 0.044148 -1.035269
v -0.096100 -0.038629 -1.035269
v 0.319208 0.044148 -0.260730
v 0.543326 0.044148 -0.132519
v 0.543326 -0.038629 -0.132519
v -0.438437 0.044148 0.592788
v -0.459864 0.044148 0.538678
v -0.459864 -0.038629 0.538678
v 0.161264 0.044148 -0.414788
v 0.188859 0.044148 -0.374407
v 0.188859 -0.038629 -0.374407
v -0.048918 0.044148 -1.043690
v -0.048918 -0.038629 -1.043690
v 0.623522 0.044148 -0.024245
v 0.564760 0.044148 0.489314
v 0.564760 -0.038629 0.489314
v -0.298463 0.044148 0.065165
v -0.319018 0.044148 0.002267
v -0.319018 -0.038629 0.002267
v 0.123093 0.044148 -0.548520
v 0.124537 0.044148 -0.598513
v -0.314973 0.044148 -0.679924
v -0.553523 0.044148 -0.406879
v -0.342877 0.044148 -0.639431
v -0.342877 -0.038629 -0.639431
v 0.079800 0.044148 -1.033736
v 0.079800 -0.038629 -1.033736
v 0.542641 0.044148 0.547759
v 0.511203 0.044148 0.600647
v 0.511203 -0.038629 0.600647
v 0.171698 -0.038629 -0.868600
v -0.157733 -0.038629 -0.983960
v -0.379682 0.044148 0.621034
v -0.438437 -0.038629 0.592788
v -0.427794 0.044148 -0.140286
v -0.548260 0.044148 -0.192628
v -0.548260 -0.038629 -0.192628
v 0.152837 0.044148 -0.995088
v 0.152837 -0.038629 -0.995088
v 0.224240 0.044148 -0.335514
v 0.224240 -0.038629 -0.335514
v 0.032496 0.044148 0.612396
v -0.379682 -0.038629 0.621034
v 0.171698 0.044148 -0.868600
v 0.411391 0.044148 0.711783
v 0.363947 0.044148 0.744809
v 0.363947 -0.038629 0.744809
v 0.585301 0.044148 -0.097747
v 0.585301 -0.038629 -0.097747
v -0.588151 0.044148 -0.351189
v -0.553523 -0.038629 -0.406879
v -0.442562 0.044148 0.430577
v -0.314169 0.044148 0.216096
v -0.314169 -0.038629 0.216096
v 0.315822 0.044148 0.748372
v 0.032496 -0.038629 0.612396
v -0.595519 0.044148 -0.301499
v -0.588151 -0.038629 -0.351189
v 0.315822 -0.038629 0.748372
v 0.411391 -0.038629 0.711783
v -0.588053 0.044148 -0.252397
v -0.588053 -0.038629 -0.252397
v -0.314973 -0.038629 -0.679924
v -0.374038 0.044148 -0.098623
v -0.427794 -0.038629 -0.140286
v 0.319208 -0.038629 -0.260730
v 0.124537 -0.038629 -0.598513
v 0.623522 -0.038629 -0.024245
v -0.595519 -0.038629 -0.301499
v -0.459675 0.044148 0.489612
v -0.459675 -0.038629 0.489612
v 0.123093 -0.038629 -0.548520
v -0.374038 -0.038629 -0.098623
v 0.542641 -0.038629 0.547759
v 0.128591 0.044148 -0.501479
v 0.128591 -0.038629 -0.501479
v -0.292913 0.044148 0.124656
v -0.298463 -0.038629 0.065165
v 0.141245 0.044148 -0.457024
v 0.141245 -0.038629 -0.457024
v -0.292913 -0.038629 0.124656
v 0.161264 -0.038629 -0.414788
v -0.442562 -0.038629 0.430577
vt 0.050986 0.063515
vt 0.051148 0.063698
vt 0.051148 0.063698
vt 0.052244 0.060935
vt 0.052835 0.060478
vt 0.052835 0.060478
vt 0.050246 0.057891
vt 0.050189 0.058084
vt 0.050189 0.058084
vt 0.051827 0.061485
vt 0.051900 0.061341
vt 0.051900 0.061341
vt 0.051273 0.063729
vt 0.051273 0.063729
vt 0.053046 0.060092
vt 0.052891 0.058260
vt 0.052891 0.058260
vt 0.050615 0.059773
vt 0.050561 0.059997
vt 0.050561 0.059997
vt 0.887946 0.702330
vt 0.888080 0.708579
vt 0.847469 0.718755
vt 0.049942 0.061457
vt 0.050498 0.062286
vt 0.050498 0.062286
vt 0.051612 0.063693
vt 0.051612 0.063693
vt 0.052833 0.058051
vt 0.052750 0.057863
vt 0.052750 0.057863
vt 0.892438 0.742339
vt 0.861998 0.756759
vt 0.872052 0.764224
vt 0.050401 0.057790
vt 0.050246 0.057891
vt 0.050274 0.060506
vt 0.049956 0.060693
vt 0.049956 0.060693
vt 0.051805 0.063555
vt 0.051805 0.063555
vt 0.051993 0.061202
vt 0.051993 0.061202
vt 0.051487 0.057821
vt 0.050401 0.057790
vt 0.051855 0.063104
vt 0.051855 0.063104
vt 0.052487 0.057466
vt 0.052362 0.057348
vt 0.052362 0.057348
vt 0.052945 0.060354
vt 0.052945 0.060354
vt 0.049851 0.061258
vt 0.049942 0.061457
vt 0.050235 0.058469
vt 0.050573 0.059235
vt 0.050573 0.059235
vt 0.052235 0.057336
vt 0.051487 0.057821
vt 0.049831 0.061081
vt 0.049851 0.061258
vt 0.050571 0.062431
vt 0.050986 0.063515
vt 0.052235 0.057336
vt 0.052487 0.057466
vt 0.049851 0.060906
vt 0.049851 0.060906
vt 0.050571 0.062431
vt 0.050415 0.060357
vt 0.050274 0.060506
vt 0.052244 0.060935
vt 0.051730 0.062140
vt 0.051730 0.062140
vt 0.053046 0.060092
vt 0.049831 0.061081
vt 0.050190 0.058259
vt 0.050190 0.058259
vt 0.051726 0.061962
vt 0.051726 0.061962
vt 0.050415 0.060357
vt 0.052833 0.058051
vt 0.051741 0.061794
vt 0.051741 0.061794
vt 0.050629 0.059561
vt 0.050615 0.059773
vt 0.051774 0.061636
vt 0.051774 0.061636
vt 0.050629 0.059561
vt 0.051827 0.061485
vt 0.050235 0.058469
vt 0.930654 0.645986
vt 0.926776 0.650332
vt 0.934186 0.636798
vt 0.928757 0.572606
vt 0.879575 0.557221
vt 0.926713 0.565300
vt 0.923808 0.558690
vt 0.905755 0.540225
vt 0.914585 0.544798
vt 0.910202 0.540670
vt 0.835679 0.579947
vt 0.841490 0.556141
vt 0.834081 0.566435
vt 0.836061 0.559672
vt 0.847543 0.606757
vt 0.834098 0.572568
vt 0.849507 0.618186
vt 0.906067 0.666358
vt 0.848994 0.625623
vt 0.897292 0.675706
vt 0.847095 0.633484
vt 0.894023 0.680567
vt 0.842011 0.646095
vt 0.891473 0.685614
vt 0.889624 0.690894
vt 0.844890 0.713694
vt 0.837044 0.651303
vt 0.825426 0.684626
vt 0.825913 0.657845
vt 0.821546 0.671454
vt 0.822236 0.665316
vt 0.822227 0.677665
vt 0.861998 0.756759
vt 0.872052 0.764224
vt 0.867693 0.763172
vt 0.892438 0.742339
vt 0.888454 0.696451
vt 0.883946 0.762980
vt 0.890695 0.758149
vt 0.928757 0.572606
vt 0.926776 0.650332
vt 0.934186 0.636798
vt 0.930654 0.645986
vt 0.879575 0.557221
vt 0.906067 0.666358
vt 0.923808 0.558690
vt 0.926713 0.565300
vt 0.910202 0.540670
vt 0.905755 0.540225
vt 0.914585 0.544798
vt 0.836061 0.559672
vt 0.834081 0.566435
vt 0.841490 0.556141
vt 0.835679 0.579947
vt 0.847543 0.606757
vt 0.834098 0.572568
vt 0.849507 0.618186
vt 0.848994 0.625623
vt 0.897292 0.675706
vt 0.847095 0.633484
vt 0.894023 0.680567
vt 0.842011 0.646095
vt 0.891473 0.685614
vt 0.889624 0.690894
vt 0.822236 0.665316
vt 0.821546 0.671454
vt 0.825913 0.657845
vt 0.825426 0.684626
vt 0.837044 0.651303
vt 0.844890 0.713694
vt 0.888454 0.696451
vt 0.822227 0.677665
vt 0.887946 0.702330
vt 0.888080 0.708579
vt 0.883946 0.762980
vt 0.890695 0.758149
vt 0.847469 0.718755
vt 0.867693 0.763172
vn -0.7795 0.0000 -0.6264
vn -0.4218 0.0000 -0.9067
vn 0.5591 0.0000 -0.8291
vn 0.5694 0.0000 -0.8221
vn -0.7318 0.0000 0.6815
vn -0.9826 0.0000 0.1855
vn 0.8673 0.0000 -0.4978
vn 0.7846 0.0000 -0.6201
vn -0.0497 0.0000 -0.9988
vn 0.9833 0.0000 -0.1818
vn 0.9718 0.0000 0.2356
vn -0.9792 -0.0000 0.2030
vn -0.9181 0.0000 0.3964
vn 0.0000 1.0000 0.0000
vn -0.7984 0.0000 -0.6021
vn -0.7840 0.0000 -0.6207
vn 0.2782 0.0000 -0.9605
vn 0.9009 0.0000 0.4341
vn 0.8056 0.0000 0.5924
vn 0.0000 -1.0000 -0.0000
vn -0.2120 0.0000 0.9773
vn -0.5095 0.0000 0.8605
vn -0.6416 0.0000 0.7670
vn 0.8162 0.0000 -0.5778
vn 0.6815 0.0000 -0.7318
vn -0.2116 0.0000 0.9773
vn 0.9999 0.0000 0.0124
vn 0.6621 0.0000 0.7494
vn 0.3344 0.0000 0.9424
vn 0.7780 0.0000 -0.6282
vn -0.9388 0.0000 -0.3445
vn -0.9168 0.0000 -0.3993
vn -0.9272 -0.0000 -0.3745
vn -0.1857 0.0000 0.9826
vn -1.0000 0.0000 0.0018
vn -0.8575 0.0000 -0.5144
vn -0.9326 0.0000 0.3608
vn -0.7614 0.0000 0.6483
vn 0.9949 0.0000 0.1007
vn -0.9898 0.0000 -0.1425
vn 0.9990 0.0000 -0.0437
vn 0.9807 0.0000 -0.1956
vn -0.9977 -0.0000 -0.0676
vn 0.9359 0.0000 -0.3522
s 1
f 1/1/1 2/2/2 3/3/2
f 4/4/3 5/5/4 6/6/4
f 7/7/5 8/8/6 9/9/6
f 10/10/7 11/11/8 12/12/8
f 2/2/2 13/13/9 14/14/9
f 15/15/10 16/16/11 17/17/11
f 18/18/12 19/19/13 20/20/13
f 21/21/14 22/22/14 23/23/14
f 24/24/15 25/25/16 26/26/16
f 13/13/9 27/27/17 28/28/17
f 29/29/18 30/30/19 31/31/19
f 32/32/20 33/33/20 14/34/20
f 34/35/21 7/7/5 35/36/5
f 36/37/22 37/38/23 38/39/23
f 27/27/17 39/40/24 40/41/24
f 11/11/8 41/42/25 42/43/25
f 43/44/26 34/35/21 44/45/21
f 39/40/24 45/46/27 32/47/27
f 46/48/28 47/49/29 48/50/29
f 5/5/4 49/51/30 50/52/30
f 51/53/31 24/24/15 52/54/15
f 53/55/32 54/56/33 55/57/33
f 56/58/34 43/44/26 57/59/26
f 58/60/35 51/53/31 59/61/31
f 23/62/36 1/1/1 33/63/1
f 47/49/29 56/58/34 60/64/34
f 30/30/19 46/48/28 61/65/28
f 37/38/23 62/66/37 63/67/37
f 25/25/16 23/62/36 64/68/36
f 65/69/38 36/37/22 66/70/22
f 41/42/25 4/4/3 67/71/3
f 45/46/27 22/72/39 68/73/39
f 49/51/30 15/15/10 69/74/10
f 62/66/37 58/60/35 70/75/35
f 8/8/6 71/76/40 72/77/40
f 22/72/39 21/78/41 73/79/41
f 19/19/13 65/69/38 74/80/38
f 16/16/11 29/29/18 75/81/18
f 21/78/41 76/82/42 77/83/42
f 78/84/43 18/18/12 79/85/12
f 76/82/42 80/86/44 81/87/44
f 54/56/33 78/84/43 82/88/43
f 80/86/44 10/10/7 83/89/7
f 71/76/40 53/55/32 84/90/32
f 1/1/1 3/3/2 33/63/1
f 4/4/3 6/6/4 67/71/3
f 7/7/5 9/9/6 35/36/5
f 10/10/7 12/12/8 83/89/7
f 2/2/2 14/14/9 3/3/2
f 15/15/10 17/17/11 69/74/10
f 18/18/12 20/20/13 79/85/12
f 49/91/14 5/92/14 15/93/14
f 15/93/14 5/92/14 16/94/14
f 16/94/14 43/95/14 29/96/14
f 29/96/14 43/95/14 30/97/14
f 30/97/14 56/98/14 46/99/14
f 46/99/14 56/98/14 47/100/14
f 56/98/14 30/97/14 43/95/14
f 43/95/14 53/101/14 34/102/14
f 34/102/14 8/103/14 7/104/14
f 43/95/14 54/105/14 53/101/14
f 8/103/14 34/102/14 71/106/14
f 71/106/14 34/102/14 53/101/14
f 43/95/14 78/107/14 54/105/14
f 4/108/14 43/95/14 5/92/14
f 5/92/14 43/95/14 16/94/14
f 43/95/14 4/108/14 78/107/14
f 78/107/14 4/108/14 18/109/14
f 41/110/14 18/109/14 4/108/14
f 41/110/14 19/111/14 18/109/14
f 11/112/14 19/111/14 41/110/14
f 19/111/14 11/112/14 65/113/14
f 10/114/14 80/115/14 65/113/14
f 10/114/14 65/113/14 11/112/14
f 65/113/14 25/116/14 36/117/14
f 80/115/14 25/116/14 65/113/14
f 36/117/14 24/118/14 37/119/14
f 37/119/14 58/120/14 62/121/14
f 24/118/14 51/122/14 58/120/14
f 37/119/14 24/118/14 58/120/14
f 24/118/14 36/117/14 25/116/14
f 23/23/14 22/22/14 1/123/14
f 1/123/14 13/124/14 2/125/14
f 1/123/14 45/126/14 13/124/14
f 22/22/14 45/126/14 1/123/14
f 25/116/14 21/21/14 23/23/14
f 80/115/14 76/127/14 25/116/14
f 13/124/14 45/126/14 27/128/14
f 27/128/14 45/126/14 39/129/14
f 76/127/14 21/21/14 25/116/14
f 24/24/15 26/26/16 52/54/15
f 13/13/9 28/28/17 14/14/9
f 29/29/18 31/31/19 75/81/18
f 17/130/20 6/131/20 69/132/20
f 69/132/20 6/131/20 50/133/20
f 6/131/20 57/134/20 67/135/20
f 17/130/20 57/134/20 6/131/20
f 31/136/20 57/134/20 75/137/20
f 75/137/20 57/134/20 17/130/20
f 48/138/20 60/139/20 61/140/20
f 61/140/20 60/139/20 31/136/20
f 57/134/20 31/136/20 60/139/20
f 35/141/20 9/142/20 44/143/20
f 44/143/20 84/144/20 57/134/20
f 84/144/20 55/145/20 57/134/20
f 72/146/20 44/143/20 9/142/20
f 84/144/20 44/143/20 72/146/20
f 82/147/20 57/134/20 55/145/20
f 67/135/20 79/148/20 42/149/20
f 79/148/20 20/150/20 42/149/20
f 42/149/20 20/150/20 12/151/20
f 82/147/20 67/135/20 57/134/20
f 79/148/20 67/135/20 82/147/20
f 12/151/20 74/152/20 83/153/20
f 20/150/20 74/152/20 12/151/20
f 83/153/20 74/152/20 81/154/20
f 63/155/20 70/156/20 38/157/20
f 38/157/20 52/158/20 66/159/20
f 70/156/20 52/158/20 38/157/20
f 66/159/20 26/160/20 74/152/20
f 74/152/20 26/160/20 81/154/20
f 81/154/20 26/160/20 77/161/20
f 52/158/20 70/156/20 59/162/20
f 26/160/20 66/159/20 52/158/20
f 77/161/20 26/160/20 73/163/20
f 68/164/20 33/33/20 32/32/20
f 32/32/20 28/165/20 40/166/20
f 26/160/20 64/167/20 73/163/20
f 73/163/20 64/167/20 68/164/20
f 3/168/20 14/34/20 33/33/20
f 33/33/20 68/164/20 64/167/20
f 32/32/20 14/34/20 28/165/20
f 34/35/21 35/36/5 44/45/21
f 36/37/22 38/39/23 66/70/22
f 27/27/17 40/41/24 28/28/17
f 11/11/8 42/43/25 12/12/8
f 43/44/26 44/45/21 57/59/26
f 39/40/24 32/47/27 40/41/24
f 46/48/28 48/50/29 61/65/28
f 5/5/4 50/52/30 6/6/4
f 51/53/31 52/54/15 59/61/31
f 53/55/32 55/57/33 84/90/32
f 56/58/34 57/59/26 60/64/34
f 58/60/35 59/61/31 70/75/35
f 23/62/36 33/63/1 64/68/36
f 47/49/29 60/64/34 48/50/29
f 30/30/19 61/65/28 31/31/19
f 37/38/23 63/67/37 38/39/23
f 25/25/16 64/68/36 26/26/16
f 65/69/38 66/70/22 74/80/38
f 41/42/25 67/71/3 42/43/25
f 45/46/27 68/73/39 32/47/27
f 49/51/30 69/74/10 50/52/30
f 62/66/37 70/75/35 63/67/37
f 8/8/6 72/77/40 9/9/6
f 22/72/39 73/79/41 68/73/39
f 19/19/13 74/80/38 20/20/13
f 16/16/11 75/81/18 17/17/11
f 21/78/41 77/83/42 73/79/41
f 78/84/43 79/85/12 82/88/43
f 76/82/42 81/87/44 77/83/42
f 54/56/33 82/88/43 55/57/33
f 80/86/44 83/89/7 81/87/44
f 71/76/40 84/90/32 72/77/40
