# Blender v2.82 (sub 7) OBJ File: ''
# www.blender.org
o Debris5_path858
v -4.254558 -0.006059 0.359181
v -4.184361 -0.006059 -2.469695
v -0.038302 -0.006058 -4.732424
v 1.701792 -0.006058 -4.376495
v 2.397830 -0.006058 -4.170848
v 3.038501 -0.006058 -3.814919
v 3.612543 -0.006058 -3.363887
v 4.063575 -0.006059 -2.776178
v 4.391599 -0.006059 -2.174801
v 4.596613 -0.006059 -0.028980
v 4.623949 -0.006059 -1.436748
v 4.692287 -0.006059 -0.739698
v 4.418934 -0.006059 0.654402
v 3.885896 -0.006059 1.898159
v 3.653546 -0.006059 2.608876
v 3.270852 -0.006060 3.278591
v 2.847154 -0.006060 3.811630
v 2.259445 -0.006060 4.276330
v 1.671736 -0.006060 4.604353
v 0.988354 -0.006060 4.809369
v 0.250301 -0.006060 4.877707
v -0.706435 -0.006060 4.795701
v -1.499159 -0.006060 4.508680
v -2.089601 -0.006060 4.246261
v -2.680044 -0.006060 3.754226
v -3.467301 -0.006059 2.753754
v -3.828127 -0.006059 2.097706
v -4.024941 -0.006059 1.408857
v -4.467773 -0.006059 -0.296867
v -4.420537 -0.006059 -1.784782
v -4.562244 -0.006059 -0.981780
v 0.649826 -0.006058 -4.700786
v -1.610031 -0.006058 -4.689760
v -0.877882 -0.006058 -4.784231
v -2.247709 -0.006058 -4.477201
v -3.853713 -0.006058 -3.107373
v -3.428594 -0.006058 -3.674198
v -2.814533 -0.006058 -4.170170
v -4.254558 -0.006059 0.359181
v -0.038302 -0.006058 -4.732424
v -4.184361 -0.006059 -2.469695
v 1.701792 -0.006058 -4.376495
v 3.038501 -0.006058 -3.814919
v 2.397830 -0.006058 -4.170848
v 4.063575 -0.006059 -2.776178
v 3.612543 -0.006058 -3.363887
v 4.596613 -0.006059 -0.028980
v 4.391599 -0.006059 -2.174801
v 4.623949 -0.006059 -1.436748
v 4.692287 -0.006059 -0.739698
v 4.418934 -0.006059 0.654402
v 3.885896 -0.006059 1.898159
v 3.270852 -0.006060 3.278591
v 3.653546 -0.006059 2.608876
v 2.259445 -0.006060 4.276330
v 2.847154 -0.006060 3.811630
v 0.988354 -0.006060 4.809369
v 1.671736 -0.006060 4.604353
v 0.250301 -0.006060 4.877707
v -1.499159 -0.006060 4.508680
v -0.706435 -0.006060 4.795701
v -2.680044 -0.006060 3.754226
v -2.089601 -0.006060 4.246261
v -3.467301 -0.006059 2.753754
v -4.024941 -0.006059 1.408857
v -3.828127 -0.006059 2.097706
v -4.420537 -0.006059 -1.784782
v -4.467773 -0.006059 -0.296867
v -4.562244 -0.006059 -0.981780
v 0.649826 -0.006058 -4.700786
v -1.610031 -0.006058 -4.689760
v -2.247709 -0.006058 -4.477201
v -0.877882 -0.006058 -4.784231
v -3.853713 -0.006058 -3.107373
v -2.814533 -0.006058 -4.170170
v -3.428594 -0.006058 -3.674198
vn -0.0000 -1.0000 -0.0000
vn 0.0000 1.0000 0.0000
s 1
f 1//1 2//1 3//1
f 4//1 5//1 6//1
f 6//1 7//1 8//1
f 8//1 9//1 10//1
f 9//1 11//1 10//1
f 11//1 12//1 10//1
f 10//1 13//1 4//1
f 13//1 14//1 4//1
f 10//1 4//1 6//1
f 14//1 15//1 16//1
f 16//1 17//1 18//1
f 18//1 19//1 20//1
f 20//1 21//1 18//1
f 21//1 22//1 23//1
f 18//1 21//1 16//1
f 23//1 24//1 25//1
f 26//1 23//1 25//1
f 26//1 27//1 28//1
f 1//1 29//1 30//1
f 29//1 31//1 30//1
f 26//1 28//1 14//1
f 28//1 1//1 14//1
f 23//1 26//1 14//1
f 14//1 21//1 23//1
f 14//1 16//1 21//1
f 6//1 8//1 10//1
f 32//1 4//1 3//1
f 3//1 4//1 1//1
f 33//1 34//1 35//1
f 34//1 3//1 2//1
f 30//1 2//1 1//1
f 2//1 36//1 34//1
f 34//1 36//1 35//1
f 36//1 37//1 38//1
f 38//1 35//1 36//1
f 4//1 14//1 1//1
f 39//2 40//2 41//2
f 42//2 43//2 44//2
f 43//2 45//2 46//2
f 45//2 47//2 48//2
f 48//2 47//2 49//2
f 49//2 47//2 50//2
f 47//2 42//2 51//2
f 51//2 42//2 52//2
f 47//2 43//2 42//2
f 52//2 53//2 54//2
f 53//2 55//2 56//2
f 55//2 57//2 58//2
f 57//2 55//2 59//2
f 59//2 60//2 61//2
f 55//2 53//2 59//2
f 60//2 62//2 63//2
f 64//2 62//2 60//2
f 64//2 65//2 66//2
f 39//2 67//2 68//2
f 68//2 67//2 69//2
f 64//2 52//2 65//2
f 65//2 52//2 39//2
f 60//2 52//2 64//2
f 52//2 60//2 59//2
f 52//2 59//2 53//2
f 43//2 47//2 45//2
f 70//2 40//2 42//2
f 40//2 39//2 42//2
f 71//2 72//2 73//2
f 73//2 41//2 40//2
f 67//2 39//2 41//2
f 41//2 73//2 74//2
f 73//2 72//2 74//2
f 74//2 75//2 76//2
f 75//2 74//2 72//2
f 42//2 39//2 52//2
