# Blender v2.82 (sub 7) OBJ File: ''
# www.blender.org
o Debris3_path854
v 2.378754 -0.001238 3.825921
v 1.034769 -0.001238 4.372626
v -0.399423 -0.001238 4.376727
v 1.558695 -0.001236 -4.443007
v 2.242077 -0.001236 -4.055757
v 0.886702 -0.001236 -4.636631
v 2.800173 -0.001236 -3.577389
v 3.267151 -0.001237 -3.042073
v 3.597453 -0.001237 -2.415639
v 4.030262 -0.001237 -1.458903
v -3.669906 -0.001237 -2.351480
v 4.246666 -0.001237 -0.729962
v 4.315004 -0.001237 -0.023800
v -4.220899 -0.001237 0.407641
v 4.189717 -0.001237 1.263237
v -1.235884 -0.001238 4.196313
v 3.939144 -0.001237 2.003568
v 3.608842 -0.001237 2.618612
v 3.153254 -0.001238 3.210876
v 1.718151 -0.001238 4.190391
v 0.305827 -0.001238 4.475134
v -1.908332 -0.001238 3.966697
v -4.106091 -0.001237 1.260502
v -2.515176 -0.001238 3.655075
v -3.548450 -0.001237 2.621800
v -3.089217 -0.001238 3.195842
v -3.892875 -0.001237 1.982154
v -4.302905 -0.001237 -0.264807
v -4.220899 -0.001237 -1.035663
v -3.991282 -0.001237 -1.740914
v -3.137112 -0.001236 -3.109475
v -2.654631 -0.001236 -3.671051
v -2.108875 -0.001236 -4.129803
v -1.459578 -0.001236 -4.465786
v -0.878703 -0.001236 -4.659411
v -0.047254 -0.001236 -4.750529
v 2.378754 -0.001238 3.825921
v -0.399423 -0.001238 4.376727
v 1.034769 -0.001238 4.372626
v 1.558695 -0.001236 -4.443007
v 0.886702 -0.001236 -4.636631
v 2.242077 -0.001236 -4.055757
v 2.800173 -0.001236 -3.577389
v 3.597453 -0.001237 -2.415639
v 3.267151 -0.001237 -3.042073
v -3.669906 -0.001237 -2.351480
v 4.030262 -0.001237 -1.458903
v 4.315004 -0.001237 -0.023800
v 4.246666 -0.001237 -0.729962
v -4.220899 -0.001237 0.407641
v 4.189717 -0.001237 1.263237
v -1.235884 -0.001238 4.196313
v 3.939144 -0.001237 2.003568
v 3.608842 -0.001237 2.618612
v 3.153254 -0.001238 3.210876
v 1.718151 -0.001238 4.190391
v 0.305827 -0.001238 4.475134
v -4.106091 -0.001237 1.260502
v -1.908332 -0.001238 3.966697
v -3.548450 -0.001237 2.621800
v -2.515176 -0.001238 3.655075
v -3.089217 -0.001238 3.195842
v -3.892875 -0.001237 1.982154
v -4.220899 -0.001237 -1.035663
v -4.302905 -0.001237 -0.264807
v -3.991282 -0.001237 -1.740914
v -3.137112 -0.001236 -3.109475
v -2.654631 -0.001236 -3.671051
v -1.459578 -0.001236 -4.465786
v -2.108875 -0.001236 -4.129803
v -0.047254 -0.001236 -4.750529
v -0.878703 -0.001236 -4.659411
vn 0.0000 -1.0000 -0.0000
vn -0.0000 1.0000 0.0000
s 1
f 1//1 2//1 3//1
f 4//1 5//1 6//1
f 5//1 7//1 6//1
f 7//1 8//1 9//1
f 9//1 10//1 11//1
f 10//1 12//1 13//1
f 14//1 10//1 13//1
f 13//1 15//1 3//1
f 14//1 13//1 16//1
f 15//1 17//1 3//1
f 17//1 18//1 3//1
f 18//1 19//1 1//1
f 1//1 20//1 2//1
f 2//1 21//1 3//1
f 3//1 16//1 13//1
f 16//1 22//1 23//1
f 14//1 16//1 23//1
f 22//1 24//1 25//1
f 24//1 26//1 25//1
f 25//1 27//1 23//1
f 22//1 25//1 23//1
f 14//1 28//1 29//1
f 29//1 30//1 14//1
f 30//1 11//1 14//1
f 11//1 31//1 9//1
f 31//1 32//1 6//1
f 9//1 31//1 7//1
f 32//1 33//1 34//1
f 34//1 35//1 36//1
f 36//1 6//1 32//1
f 36//1 32//1 34//1
f 6//1 7//1 31//1
f 10//1 14//1 11//1
f 18//1 1//1 3//1
f 37//2 38//2 39//2
f 40//2 41//2 42//2
f 42//2 41//2 43//2
f 43//2 44//2 45//2
f 44//2 46//2 47//2
f 47//2 48//2 49//2
f 50//2 48//2 47//2
f 48//2 38//2 51//2
f 50//2 52//2 48//2
f 51//2 38//2 53//2
f 53//2 38//2 54//2
f 54//2 37//2 55//2
f 37//2 39//2 56//2
f 39//2 38//2 57//2
f 38//2 48//2 52//2
f 52//2 58//2 59//2
f 50//2 58//2 52//2
f 59//2 60//2 61//2
f 61//2 60//2 62//2
f 60//2 58//2 63//2
f 59//2 58//2 60//2
f 50//2 64//2 65//2
f 64//2 50//2 66//2
f 66//2 50//2 46//2
f 46//2 44//2 67//2
f 67//2 41//2 68//2
f 44//2 43//2 67//2
f 68//2 69//2 70//2
f 69//2 71//2 72//2
f 71//2 68//2 41//2
f 71//2 69//2 68//2
f 41//2 67//2 43//2
f 47//2 46//2 50//2
f 54//2 38//2 37//2
