# Blender v2.82 (sub 7) OBJ File: ''
# www.blender.org
o Debris4_path862
v -2.829133 -0.001940 3.331235
v -3.636071 -0.001939 2.170032
v -0.920035 -0.001940 4.394032
v -2.238690 -0.001938 -4.128023
v -1.589203 -0.001938 -4.344518
v -3.399894 -0.001938 -3.321084
v -0.624814 -0.001938 -4.639740
v 4.452992 -0.001939 -0.053969
v -4.265877 -0.001939 0.674244
v 0.034514 -0.001938 -4.807032
v 0.752885 -0.001938 -4.836554
v 1.481098 -0.001938 -4.757828
v 2.110903 -0.001938 -4.541332
v 2.839116 -0.001938 -4.246111
v 3.370514 -0.001938 -3.793438
v 3.882231 -0.001938 -3.242359
v 4.216815 -0.001939 -2.553509
v 4.433311 -0.001939 -1.864659
v 4.512036 -0.001939 -1.156128
v 4.354585 -0.001939 0.792332
v 4.157771 -0.001939 1.500863
v 3.449239 -0.001939 2.898244
v 2.976886 -0.001940 3.449324
v 0.359257 -0.001940 4.531802
v 2.445487 -0.001940 3.921678
v 1.087469 -0.001940 4.453076
v 1.776319 -0.001940 4.295625
v -1.608885 -0.001940 4.177536
v -2.258372 -0.001940 3.823271
v -3.301487 -0.001939 2.799837
v -4.462691 -0.001939 0.005076
v -4.423328 -0.001939 -1.451349
v -4.541417 -0.001939 -0.723137
v -4.305239 -0.001939 -2.081155
v -3.950974 -0.001939 -2.710960
v -2.868496 -0.001938 -3.773757
v -2.829133 -0.001940 3.331235
v -0.920035 -0.001940 4.394032
v -3.636071 -0.001939 2.170032
v -2.238690 -0.001938 -4.128023
v -3.399894 -0.001938 -3.321084
v -1.589203 -0.001938 -4.344518
v 4.452992 -0.001939 -0.053969
v -0.624814 -0.001938 -4.639740
v -4.265877 -0.001939 0.674244
v 0.752885 -0.001938 -4.836554
v 0.034514 -0.001938 -4.807032
v 2.110903 -0.001938 -4.541332
v 1.481098 -0.001938 -4.757828
v 3.370514 -0.001938 -3.793438
v 2.839116 -0.001938 -4.246111
v 4.216815 -0.001939 -2.553509
v 3.882231 -0.001938 -3.242359
v 4.433311 -0.001939 -1.864659
v 4.512036 -0.001939 -1.156128
v 4.354585 -0.001939 0.792332
v 4.157771 -0.001939 1.500863
v 3.449239 -0.001939 2.898244
v 0.359257 -0.001940 4.531802
v 2.976886 -0.001940 3.449324
v 1.087469 -0.001940 4.453076
v 2.445487 -0.001940 3.921678
v 1.776319 -0.001940 4.295625
v -1.608885 -0.001940 4.177536
v -2.258372 -0.001940 3.823271
v -3.301487 -0.001939 2.799837
v -4.423328 -0.001939 -1.451349
v -4.462691 -0.001939 0.005076
v -4.541417 -0.001939 -0.723137
v -3.950974 -0.001939 -2.710960
v -4.305239 -0.001939 -2.081155
v -2.868496 -0.001938 -3.773757
vn 0.0000 -1.0000 -0.0000
vn -0.0000 1.0000 0.0000
s 1
f 1//1 2//1 3//1
f 4//1 5//1 6//1
f 5//1 7//1 8//1
f 9//1 5//1 2//1
f 7//1 10//1 11//1
f 11//1 12//1 13//1
f 13//1 14//1 15//1
f 15//1 16//1 17//1
f 17//1 18//1 13//1
f 18//1 19//1 13//1
f 19//1 8//1 7//1
f 8//1 20//1 2//1
f 20//1 21//1 2//1
f 21//1 22//1 2//1
f 22//1 23//1 24//1
f 23//1 25//1 26//1
f 25//1 27//1 26//1
f 26//1 24//1 23//1
f 24//1 3//1 22//1
f 3//1 28//1 1//1
f 28//1 29//1 1//1
f 1//1 30//1 2//1
f 9//1 31//1 32//1
f 31//1 33//1 32//1
f 32//1 34//1 35//1
f 9//1 32//1 6//1
f 35//1 6//1 32//1
f 6//1 36//1 4//1
f 5//1 9//1 6//1
f 7//1 11//1 19//1
f 11//1 13//1 19//1
f 13//1 15//1 17//1
f 2//1 5//1 8//1
f 22//1 3//1 2//1
f 37//2 38//2 39//2
f 40//2 41//2 42//2
f 42//2 43//2 44//2
f 45//2 39//2 42//2
f 44//2 46//2 47//2
f 46//2 48//2 49//2
f 48//2 50//2 51//2
f 50//2 52//2 53//2
f 52//2 48//2 54//2
f 54//2 48//2 55//2
f 55//2 44//2 43//2
f 43//2 39//2 56//2
f 56//2 39//2 57//2
f 57//2 39//2 58//2
f 58//2 59//2 60//2
f 60//2 61//2 62//2
f 62//2 61//2 63//2
f 61//2 60//2 59//2
f 59//2 58//2 38//2
f 38//2 37//2 64//2
f 64//2 37//2 65//2
f 37//2 39//2 66//2
f 45//2 67//2 68//2
f 68//2 67//2 69//2
f 67//2 70//2 71//2
f 45//2 41//2 67//2
f 70//2 67//2 41//2
f 41//2 40//2 72//2
f 42//2 41//2 45//2
f 44//2 55//2 46//2
f 46//2 55//2 48//2
f 48//2 52//2 50//2
f 39//2 43//2 42//2
f 58//2 39//2 38//2
