# Blender v2.82 (sub 7) OBJ File: ''
# www.blender.org
o Debris4_path862.001
v 0.295834 0.044148 -0.469248
v 0.275154 0.044148 -0.422168
v 0.275154 -0.038629 -0.422168
v 0.599480 0.044148 -0.684617
v 0.334382 0.044148 -0.509684
v 0.334382 -0.038629 -0.509684
v 0.447467 0.044148 0.356560
v 0.432253 0.044148 0.434187
v 0.432253 -0.038629 0.434187
v -0.768261 0.044148 -0.721409
v -0.612706 0.044148 -0.748103
v -0.612706 -0.038629 -0.748103
v -0.768364 0.044148 -0.592901
v -0.843542 0.044148 -0.675900
v -0.843542 -0.038629 -0.675900
v -0.100337 0.044148 0.376006
v -0.117944 0.044148 0.330720
v -0.117944 -0.038629 0.330720
v -0.026542 0.044148 -0.737243
v 0.050792 0.044148 -0.781324
v 0.050792 -0.038629 -0.781324
v 0.665758 0.044148 -0.742841
v 0.599480 -0.038629 -0.684617
v 0.498445 0.044148 0.283558
v 0.447467 -0.038629 0.356560
v 0.823147 0.044148 -0.951762
v 0.665758 -0.038629 -0.742841
v -0.768261 -0.038629 -0.721409
v -0.318318 0.044148 0.125994
v -0.318318 -0.038629 0.125994
v 0.148586 0.044148 0.898713
v 0.088636 0.044148 0.896298
v 0.088636 -0.038629 0.896298
v 0.799953 0.044148 -1.086595
v 0.827073 0.044148 -1.001899
v 0.827073 -0.038629 -1.001899
v 0.823147 -0.038629 -0.951762
v -0.087606 0.044148 -0.725988
v -0.087606 -0.038629 -0.725988
v 0.699499 0.044148 0.134073
v 0.534779 0.044148 0.248673
v 0.534779 -0.038629 0.248673
v -0.191013 0.044148 0.780196
v -0.191013 -0.038629 0.780196
v 0.279212 0.044148 -0.997594
v 0.344745 0.044148 -1.035630
v 0.344745 -0.038629 -1.035630
v 0.291974 0.044148 -0.308818
v 0.345458 0.044148 -0.249557
v 0.345458 -0.038629 -0.249557
v -0.236381 0.044148 0.617784
v -0.122231 0.044148 0.521765
v -0.122231 -0.038629 0.521765
v -0.332498 0.044148 0.076781
v -0.332498 -0.038629 0.076781
v -0.352577 0.044148 -0.193377
v -0.352577 -0.038629 -0.193377
v 0.397073 0.044148 0.794519
v 0.298884 0.044148 0.854747
v 0.298884 -0.038629 0.854747
v 0.416681 0.044148 -1.059847
v 0.416681 -0.038629 -1.059847
v -0.026542 -0.038629 -0.737243
v 0.716014 0.044148 0.078039
v 0.699499 -0.038629 0.134073
v 0.295834 -0.038629 -0.469248
v -0.098883 0.044148 0.479951
v -0.093423 0.044148 0.430348
v -0.093423 -0.038629 0.430348
v -0.417837 0.044148 -0.357964
v -0.503037 0.044148 -0.399973
v -0.503037 -0.038629 -0.399973
v -0.100337 -0.038629 0.376006
v 0.222151 0.044148 0.883555
v 0.222151 -0.038629 0.883555
v -0.098883 -0.038629 0.479951
v 0.454772 0.044148 0.682781
v 0.454772 -0.038629 0.682781
v 0.273773 0.044148 -0.360596
v 0.291974 -0.038629 -0.308818
v 0.279212 -0.038629 -0.997594
v -0.254998 0.044148 0.665453
v -0.236381 -0.038629 0.617784
v -0.376103 0.044148 -0.261489
v -0.417837 -0.038629 -0.357964
v -0.240407 0.044148 0.721128
v -0.254998 -0.038629 0.665453
v -0.376103 -0.038629 -0.261489
v 0.436024 0.044148 0.748742
v 0.436024 -0.038629 0.748742
v -0.768364 -0.038629 -0.592901
v 0.697283 0.044148 0.022087
v 0.697283 -0.038629 0.022087
v 0.148586 -0.038629 0.898713
v -0.240407 -0.038629 0.721128
v 0.716014 -0.038629 0.078039
v 0.498445 -0.038629 0.283558
v 0.799953 -0.038629 -1.086595
v 0.397073 -0.038629 0.794519
v 0.273773 -0.038629 -0.360596
vt 0.036495 0.051650
vt 0.036441 0.051481
vt 0.036441 0.051481
vt 0.037298 0.052420
vt 0.036597 0.051794
vt 0.036597 0.051794
vt 0.036896 0.048697
vt 0.036856 0.048420
vt 0.036856 0.048420
vt 0.033683 0.052551
vt 0.034094 0.052647
vt 0.034094 0.052647
vt 0.033683 0.052092
vt 0.033484 0.052388
vt 0.033484 0.052388
vt 0.035448 0.048628
vt 0.035402 0.048790
vt 0.035402 0.048790
vt 0.035643 0.052608
vt 0.035848 0.052765
vt 0.035848 0.052765
vt 0.037473 0.052628
vt 0.037298 0.052420
vt 0.037031 0.048958
vt 0.036896 0.048697
vt 0.037889 0.053375
vt 0.037473 0.052628
vt 0.033683 0.052551
vt 0.034872 0.049521
vt 0.034872 0.049521
vt 0.036106 0.046759
vt 0.035948 0.046767
vt 0.035948 0.046767
vt 0.037828 0.053857
vt 0.037899 0.053554
vt 0.037899 0.053554
vt 0.037889 0.053375
vt 0.035482 0.052568
vt 0.035482 0.052568
vt 0.037562 0.049493
vt 0.037127 0.049083
vt 0.037127 0.049083
vt 0.035208 0.047182
vt 0.035208 0.047182
vt 0.036451 0.053539
vt 0.036624 0.053675
vt 0.036624 0.053675
vt 0.036485 0.051076
vt 0.036626 0.050864
vt 0.036626 0.050864
vt 0.035089 0.047763
vt 0.035390 0.048106
vt 0.035390 0.048106
vt 0.034835 0.049697
vt 0.034835 0.049697
vt 0.034781 0.050663
vt 0.034781 0.050663
vt 0.036763 0.047131
vt 0.036503 0.046916
vt 0.036503 0.046916
vt 0.036815 0.053761
vt 0.036815 0.053761
vt 0.035643 0.052608
vt 0.037606 0.049693
vt 0.037562 0.049493
vt 0.324395 0.374559
vt 0.331557 0.380081
vt 0.354250 0.340985
vt 0.331557 0.380081
vt 0.357820 0.346051
vt 0.352711 0.407175
vt 0.035452 0.048256
vt 0.035466 0.048433
vt 0.035466 0.048433
vt 0.036495 0.051650
vt 0.034609 0.051252
vt 0.034384 0.051402
vt 0.034384 0.051402
vt 0.035448 0.048628
vt 0.036300 0.046813
vt 0.036300 0.046813
vt 0.035452 0.048256
vt 0.036915 0.047531
vt 0.036915 0.047531
vt 0.036437 0.051261
vt 0.036485 0.051076
vt 0.036451 0.053539
vt 0.035039 0.047593
vt 0.035089 0.047763
vt 0.034719 0.050907
vt 0.034609 0.051252
vt 0.035078 0.047394
vt 0.035039 0.047593
vt 0.034719 0.050907
vt 0.036866 0.047295
vt 0.036866 0.047295
vt 0.033683 0.052092
vt 0.037556 0.049893
vt 0.037556 0.049893
vt 0.036106 0.046759
vt 0.035078 0.047394
vt 0.037606 0.049693
vt 0.037031 0.048958
vt 0.037828 0.053857
vt 0.036763 0.047131
vt 0.036437 0.051261
vt 0.376379 0.251045
vt 0.391428 0.279431
vt 0.391633 0.265402
vt 0.393163 0.272422
vt 0.358846 0.313462
vt 0.373014 0.246675
vt 0.315930 0.240766
vt 0.296060 0.272579
vt 0.353893 0.320887
vt 0.368293 0.237529
vt 0.317561 0.235093
vt 0.366884 0.227804
vt 0.318201 0.228285
vt 0.294201 0.306424
vt 0.352207 0.327373
vt 0.367233 0.188397
vt 0.363626 0.182662
vt 0.368969 0.196661
vt 0.317696 0.222071
vt 0.354533 0.175117
vt 0.340614 0.169609
vt 0.347426 0.171508
vt 0.309163 0.184457
vt 0.315533 0.216833
vt 0.335062 0.169912
vt 0.303238 0.198832
vt 0.304962 0.204803
vt 0.304589 0.191857
vt 0.318740 0.373149
vt 0.352335 0.335087
vt 0.297374 0.266414
vt 0.292022 0.314957
vt 0.255695 0.356476
vt 0.270110 0.375919
vt 0.280267 0.332306
vt 0.288157 0.327043
vt 0.357820 0.346051
vt 0.352711 0.407175
vt 0.382371 0.367966
vt 0.365442 0.414974
vt 0.388509 0.375260
vt 0.358780 0.411940
vt 0.248733 0.366874
vt 0.255705 0.372575
vt 0.403084 0.401433
vt 0.400936 0.418325
vt 0.403448 0.407714
vt 0.366884 0.227804
vt 0.317696 0.222071
vt 0.368969 0.196661
vt 0.363626 0.182662
vt 0.367233 0.188397
vt 0.354533 0.175117
vt 0.347426 0.171508
vt 0.340614 0.169609
vt 0.335062 0.169912
vt 0.315533 0.216833
vt 0.309163 0.184457
vt 0.304962 0.204803
vt 0.304589 0.191857
vt 0.303238 0.198832
vt 0.368293 0.237529
vt 0.317561 0.235093
vt 0.318201 0.228285
vt 0.373014 0.246675
vt 0.315930 0.240766
vt 0.393163 0.272422
vt 0.391428 0.279431
vt 0.391633 0.265402
vt 0.376379 0.251045
vt 0.358846 0.313462
vt 0.296060 0.272579
vt 0.297374 0.266414
vt 0.353893 0.320887
vt 0.294201 0.306424
vt 0.352207 0.327373
vt 0.292022 0.314957
vt 0.288157 0.327043
vt 0.318740 0.373149
vt 0.280267 0.332306
vt 0.270110 0.375919
vt 0.255695 0.356476
vt 0.352335 0.335087
vt 0.255705 0.372575
vt 0.248733 0.366874
vt 0.354250 0.340985
vt 0.324395 0.374559
vt 0.388509 0.375260
vt 0.365442 0.414974
vt 0.382371 0.367966
vt 0.358780 0.411940
vt 0.403084 0.401433
vt 0.400936 0.418325
vt 0.403448 0.407714
vn 0.8322 0.0000 0.5544
vn 0.9763 0.0000 0.2164
vn 0.6068 0.0000 0.7948
vn 0.6414 0.0000 0.7672
vn 0.9205 0.0000 0.3909
vn 0.9987 0.0000 0.0516
vn -0.3493 0.0000 -0.9370
vn -0.0639 0.0000 -0.9980
vn -0.6682 0.0000 0.7440
vn -0.9894 0.0000 -0.1450
vn -0.9692 0.0000 0.2461
vn -0.8404 0.0000 0.5419
vn -0.3431 0.0000 -0.9393
vn -0.5957 0.0000 -0.8032
vn 0.7332 0.0000 0.6800
vn 0.7599 0.0000 0.6501
vn 0.9352 0.0000 0.3540
vn -0.8640 -0.0000 0.5035
vn 0.0814 0.0000 0.9967
vn -0.2152 0.0000 0.9766
vn 0.5610 0.0000 -0.8278
vn 0.9933 0.0000 -0.1156
vn -0.0700 0.0000 -0.9975
vn 0.8111 0.0000 0.5849
vn 0.6338 0.0000 0.7735
vn -0.5923 0.0000 0.8057
vn -0.5988 0.0000 -0.8009
vn -0.4126 0.0000 -0.9109
vn 0.8597 0.0000 -0.5108
vn 0.6795 0.0000 -0.7337
vn -0.8128 0.0000 -0.5826
vn -0.7710 0.0000 -0.6368
vn -0.9843 -0.0000 0.1764
vn -0.9794 0.0000 0.2020
vn 0.6503 0.0000 0.7597
vn 0.4392 0.0000 0.8984
vn -0.1959 0.0000 -0.9806
vn 0.9998 -0.0000 -0.0182
vn -0.0000 -1.0000 -0.0000
vn -0.0000 1.0000 0.0000
vn -0.9525 0.0000 -0.3045
vn -1.0000 0.0000 0.0085
vn -0.7245 0.0000 0.6893
vn -0.5170 0.0000 0.8560
vn 0.2775 0.0000 0.9607
vn 0.9957 0.0000 0.0932
vn 0.9876 0.0000 -0.1571
vn -0.9983 0.0000 -0.0580
vn -0.9322 0.0000 0.3620
vn -0.8887 0.0000 0.4586
vn 0.8819 0.0000 0.4715
vn 0.8149 0.0000 -0.5795
s 1
f 1/1/1 2/2/2 3/3/2
f 4/4/3 5/5/4 6/6/4
f 7/7/5 8/8/6 9/9/6
f 10/10/7 11/11/8 12/12/8
f 13/13/9 14/14/10 15/15/10
f 16/16/11 17/17/12 18/18/12
f 19/19/13 20/20/14 21/21/14
f 22/22/15 4/4/3 23/23/3
f 24/24/16 7/7/5 25/25/5
f 26/26/17 22/22/15 27/27/15
f 14/14/10 10/10/7 28/28/7
f 17/17/12 29/29/18 30/30/18
f 31/31/19 32/32/20 33/33/20
f 34/34/21 35/35/22 36/36/22
f 35/35/22 26/26/17 37/37/17
f 11/11/8 38/38/23 39/39/23
f 40/40/24 41/41/25 42/42/25
f 32/32/20 43/43/26 44/44/26
f 45/45/27 46/46/28 47/47/28
f 48/48/29 49/49/30 50/50/30
f 51/51/31 52/52/32 53/53/32
f 29/29/18 54/54/33 55/55/33
f 54/54/33 56/56/34 57/57/34
f 58/58/35 59/59/36 60/60/36
f 46/46/28 61/61/37 62/62/37
f 38/38/23 19/19/13 63/63/13
f 64/64/38 40/40/24 65/65/24
f 63/66/39 21/67/39 66/68/39
f 20/69/40 5/70/40 45/71/40
f 67/72/41 68/73/42 69/74/42
f 5/5/4 1/1/1 66/75/1
f 70/76/43 71/77/44 72/78/44
f 68/73/42 16/16/11 73/79/11
f 59/59/36 74/80/45 75/81/45
f 52/52/32 67/72/41 76/82/41
f 8/8/6 77/83/46 78/84/46
f 79/85/47 48/48/29 80/86/29
f 20/20/14 45/45/27 81/87/27
f 82/88/48 51/51/31 83/89/31
f 84/90/49 70/76/43 85/91/43
f 86/92/50 82/88/48 87/93/48
f 56/56/34 84/90/49 88/94/49
f 77/83/46 89/95/51 90/96/51
f 71/77/44 13/13/9 91/97/9
f 49/49/30 92/98/52 93/99/52
f 74/80/45 31/31/19 94/100/19
f 43/43/26 86/92/50 95/101/50
f 92/98/52 64/64/38 96/102/38
f 41/41/25 24/24/16 97/103/16
f 61/61/37 34/34/21 98/104/21
f 89/95/51 58/58/35 99/105/35
f 2/2/2 79/85/47 100/106/47
f 1/1/1 3/3/2 66/75/1
f 4/4/3 6/6/4 23/23/3
f 7/7/5 9/9/6 25/25/5
f 10/10/7 12/12/8 28/28/7
f 13/13/9 15/15/10 91/97/9
f 16/16/11 18/18/12 73/79/11
f 19/19/13 21/21/14 63/63/13
f 22/22/15 23/23/3 27/27/15
f 24/24/16 25/25/5 97/103/16
f 26/26/17 27/27/15 37/37/17
f 14/14/10 28/28/7 15/15/10
f 17/17/12 30/30/18 18/18/12
f 31/31/19 33/33/20 94/100/19
f 34/34/21 36/36/22 98/104/21
f 35/35/22 37/37/17 36/36/22
f 11/11/8 39/39/23 12/12/8
f 40/40/24 42/42/25 65/65/24
f 32/32/20 44/44/26 33/33/20
f 45/45/27 47/47/28 81/87/27
f 48/48/29 50/50/30 80/86/29
f 51/51/31 53/53/32 83/89/31
f 29/29/18 55/55/33 30/30/18
f 54/54/33 57/57/34 55/55/33
f 58/58/35 60/60/36 99/105/35
f 46/46/28 62/62/37 47/47/28
f 38/38/23 63/63/13 39/39/23
f 64/64/38 65/65/24 96/102/38
f 42/107/39 93/108/39 65/109/39
f 65/109/39 93/108/39 96/110/39
f 93/108/39 42/107/39 50/111/39
f 97/112/39 50/111/39 42/107/39
f 97/112/39 18/113/39 50/111/39
f 50/111/39 55/114/39 80/115/39
f 97/112/39 25/116/39 18/113/39
f 73/117/39 25/116/39 9/118/39
f 9/118/39 69/119/39 73/117/39
f 80/115/39 57/120/39 100/121/39
f 73/117/39 18/113/39 25/116/39
f 90/122/39 99/123/39 78/124/39
f 78/124/39 76/125/39 9/118/39
f 9/118/39 76/125/39 69/119/39
f 78/124/39 60/126/39 76/125/39
f 60/126/39 78/124/39 99/123/39
f 94/127/39 76/125/39 75/128/39
f 75/128/39 76/125/39 60/126/39
f 44/129/39 53/130/39 33/131/39
f 33/131/39 76/125/39 94/127/39
f 87/132/39 83/133/39 95/134/39
f 95/134/39 83/133/39 44/129/39
f 53/130/39 44/129/39 83/133/39
f 33/131/39 53/130/39 76/125/39
f 100/121/39 39/135/39 3/136/39
f 18/113/39 55/114/39 50/111/39
f 55/114/39 18/113/39 30/137/39
f 55/114/39 57/120/39 80/115/39
f 3/136/39 63/66/39 66/68/39
f 100/121/39 57/120/39 88/138/39
f 100/121/39 88/138/39 39/135/39
f 39/135/39 63/66/39 3/136/39
f 91/139/39 12/140/39 72/141/39
f 72/141/39 39/135/39 85/142/39
f 12/140/39 39/135/39 72/141/39
f 85/142/39 39/135/39 88/138/39
f 6/143/39 81/144/39 23/145/39
f 23/145/39 62/146/39 27/147/39
f 47/148/39 62/146/39 23/145/39
f 66/68/39 21/67/39 6/143/39
f 15/149/39 28/150/39 91/139/39
f 12/140/39 91/139/39 28/150/39
f 23/145/39 81/144/39 47/148/39
f 27/147/39 62/146/39 37/151/39
f 37/151/39 98/152/39 36/153/39
f 98/152/39 37/151/39 62/146/39
f 81/144/39 6/143/39 21/67/39
f 8/154/40 67/155/40 77/156/40
f 77/156/40 58/157/40 89/158/40
f 59/159/40 58/157/40 77/156/40
f 59/159/40 67/155/40 74/160/40
f 74/160/40 67/155/40 31/161/40
f 67/155/40 32/162/40 31/161/40
f 32/162/40 52/163/40 43/164/40
f 43/164/40 51/165/40 86/166/40
f 86/166/40 51/165/40 82/167/40
f 51/165/40 43/164/40 52/163/40
f 32/162/40 67/155/40 52/163/40
f 77/156/40 67/155/40 59/159/40
f 7/168/40 16/169/40 8/154/40
f 8/154/40 68/170/40 67/155/40
f 8/154/40 16/169/40 68/170/40
f 24/171/40 17/172/40 7/168/40
f 7/168/40 17/172/40 16/169/40
f 64/173/40 92/174/40 40/175/40
f 40/175/40 92/174/40 41/176/40
f 41/176/40 49/177/40 24/171/40
f 17/172/40 54/178/40 29/179/40
f 24/171/40 49/177/40 17/172/40
f 49/177/40 41/176/40 92/174/40
f 17/172/40 49/177/40 54/178/40
f 49/177/40 48/180/40 54/178/40
f 54/178/40 48/180/40 56/181/40
f 48/180/40 79/182/40 56/181/40
f 56/181/40 79/182/40 84/183/40
f 70/184/40 38/185/40 71/186/40
f 71/186/40 11/187/40 13/188/40
f 79/182/40 38/185/40 84/183/40
f 84/183/40 38/185/40 70/184/40
f 2/189/40 38/185/40 79/182/40
f 71/186/40 38/185/40 11/187/40
f 13/188/40 10/190/40 14/191/40
f 11/187/40 10/190/40 13/188/40
f 1/192/40 19/193/40 2/189/40
f 2/189/40 19/193/40 38/185/40
f 22/194/40 61/195/40 4/196/40
f 4/196/40 45/71/40 5/70/40
f 46/197/40 45/71/40 4/196/40
f 5/70/40 20/69/40 1/192/40
f 1/192/40 20/69/40 19/193/40
f 26/198/40 61/195/40 22/194/40
f 4/196/40 61/195/40 46/197/40
f 34/199/40 26/198/40 35/200/40
f 61/195/40 26/198/40 34/199/40
f 67/72/41 69/74/42 76/82/41
f 5/5/4 66/75/1 6/6/4
f 70/76/43 72/78/44 85/91/43
f 68/73/42 73/79/11 69/74/42
f 59/59/36 75/81/45 60/60/36
f 52/52/32 76/82/41 53/53/32
f 8/8/6 78/84/46 9/9/6
f 79/85/47 80/86/29 100/106/47
f 20/20/14 81/87/27 21/21/14
f 82/88/48 83/89/31 87/93/48
f 84/90/49 85/91/43 88/94/49
f 86/92/50 87/93/48 95/101/50
f 56/56/34 88/94/49 57/57/34
f 77/83/46 90/96/51 78/84/46
f 71/77/44 91/97/9 72/78/44
f 49/49/30 93/99/52 50/50/30
f 74/80/45 94/100/19 75/81/45
f 43/43/26 95/101/50 44/44/26
f 92/98/52 96/102/38 93/99/52
f 41/41/25 97/103/16 42/42/25
f 61/61/37 98/104/21 62/62/37
f 89/95/51 99/105/35 90/96/51
f 2/2/2 100/106/47 3/3/2
