# Blender v2.82 (sub 7) OBJ File: ''
# www.blender.org
o Debris5_path858.001
v -0.357425 0.044148 -0.186030
v -0.370764 0.044148 -0.246341
v -0.370764 -0.038629 -0.246341
v -0.744462 0.044148 -1.077910
v -0.676591 0.044148 -1.091278
v -0.676591 -0.038629 -1.091278
v -0.457962 0.044148 -0.421864
v -0.457962 -0.038629 -0.421864
v -0.621188 0.044148 -1.089510
v -0.621188 -0.038629 -1.089510
v -0.221795 0.044148 -1.115538
v -0.143839 0.044148 -1.099162
v -0.143839 -0.038629 -1.099162
v 0.903092 0.044148 -0.405350
v 0.832282 0.044148 -0.339862
v 0.832282 -0.038629 -0.339862
v -0.016096 0.044148 1.130873
v -0.064408 0.044148 0.964943
v -0.064408 -0.038629 0.964943
v -0.531430 0.044148 -1.118500
v -0.531430 -0.038629 -1.118500
v -0.775649 0.044148 -0.811547
v -0.810642 0.044148 -0.872744
v -0.810642 -0.038629 -0.872744
v 0.951354 0.044148 -0.471845
v 0.903092 -0.038629 -0.405350
v -0.398817 0.044148 0.579044
v -0.142378 0.044148 0.865768
v 0.239279 0.044148 0.385226
v 0.363351 -0.038629 0.726399
v -0.090283 -0.038629 0.912004
v 0.346107 -0.038629 0.654737
v -0.052071 0.044148 -1.050838
v -0.052071 -0.038629 -1.050838
v -0.353671 0.044148 -0.136006
v -0.357425 -0.038629 -0.186030
v -0.814065 0.044148 -1.028314
v -0.744462 -0.038629 -1.077910
v 0.519891 0.044148 -0.131631
v 0.519891 -0.038629 -0.131631
v -0.832779 0.044148 -0.971565
v -0.814065 -0.038629 -1.028314
v 0.228191 0.044148 0.146358
v 0.228191 -0.038629 0.146358
v 0.720498 0.044148 -0.814538
v 0.777874 0.044148 -0.831515
v 0.777874 -0.038629 -0.831515
v -0.829395 0.044148 -0.925575
v -0.832779 -0.038629 -0.971565
v 0.827675 0.044148 -0.835720
v 0.827675 -0.038629 -0.835720
v 0.001535 0.044148 -0.998637
v 0.181368 0.044148 -0.761541
v 0.181368 -0.038629 -0.761541
v 0.872208 0.044148 -0.827044
v 0.872208 -0.038629 -0.827044
v -0.353671 -0.038629 -0.136006
v 0.934177 0.044148 -0.789639
v 0.974930 0.044148 -0.749412
v 0.974930 -0.038629 -0.749412
v 0.934177 -0.038629 -0.789639
v -0.390183 0.044148 0.649317
v -0.398817 -0.038629 0.579044
v 0.216348 0.044148 -0.727641
v 0.216348 -0.038629 -0.727641
v 1.000153 0.044148 -0.678402
v 1.000153 -0.038629 -0.678402
v 0.346107 0.044148 0.654737
v 0.285154 0.044148 -0.691493
v 0.285154 -0.038629 -0.691493
v -0.373285 0.044148 0.704701
v -0.390183 -0.038629 0.649317
v 0.345911 0.044148 -0.677788
v 0.427212 0.044148 -0.685209
v 0.427212 -0.038629 -0.685209
v 0.363351 0.044148 0.726399
v 0.990152 0.044148 -0.583101
v 0.951354 -0.038629 -0.471845
v 0.206780 0.044148 1.184919
v 0.142585 0.044148 1.193926
v 0.142585 -0.038629 1.193926
v 0.239279 -0.038629 0.385226
v 0.068993 0.044148 1.193109
v 0.068993 -0.038629 1.193109
v -0.347844 0.044148 0.746105
v -0.373285 -0.038629 0.704701
v -0.347844 -0.038629 0.746105
v 0.370743 0.044148 0.794572
v 0.370743 -0.038629 0.794572
v 0.720498 -0.038629 -0.814538
v -0.090283 0.044148 0.912004
v -0.142378 -0.038629 0.865768
v 0.364776 0.044148 0.898342
v 0.364776 -0.038629 0.898342
v 0.345911 -0.038629 -0.677788
v 0.001535 -0.038629 -0.998637
v 0.314794 0.044148 1.078314
v 0.264555 0.044148 1.151419
v 0.264555 -0.038629 1.151419
v 0.022290 0.044148 1.185713
v -0.016096 -0.038629 1.130873
v 0.206780 -0.038629 1.184919
v 0.990152 -0.038629 -0.583101
v 0.022290 -0.038629 1.185713
v 0.334911 0.044148 1.027831
v 0.334911 -0.038629 1.027831
v 0.314794 -0.038629 1.078314
v -0.775649 -0.038629 -0.811547
v -0.829395 -0.038629 -0.925575
v -0.221795 -0.038629 -1.115538
vt 0.041913 0.050259
vt 0.041878 0.050476
vt 0.041878 0.050476
vt 0.040886 0.053461
vt 0.041066 0.053509
vt 0.041066 0.053509
vt 0.041646 0.051106
vt 0.041646 0.051106
vt 0.041213 0.053503
vt 0.041213 0.053503
vt 0.042273 0.053596
vt 0.042480 0.053538
vt 0.042480 0.053538
vt 0.045259 0.051047
vt 0.045071 0.050812
vt 0.045071 0.050812
vt 0.042819 0.045531
vt 0.042691 0.046127
vt 0.042691 0.046127
vt 0.041452 0.053607
vt 0.041452 0.053607
vt 0.040803 0.052505
vt 0.040710 0.052725
vt 0.040710 0.052725
vt 0.045387 0.051285
vt 0.045259 0.051047
vt 0.540250 0.196021
vt 0.564098 0.159950
vt 0.599590 0.220403
vt 0.611128 0.177483
vt 0.568942 0.154134
vt 0.609525 0.186499
vt 0.042724 0.053364
vt 0.042724 0.053364
vt 0.041923 0.050080
vt 0.041913 0.050259
vt 0.040701 0.053283
vt 0.040886 0.053461
vt 0.044242 0.050064
vt 0.044242 0.050064
vt 0.040652 0.053080
vt 0.040701 0.053283
vt 0.043468 0.049066
vt 0.043468 0.049066
vt 0.044774 0.052516
vt 0.044926 0.052577
vt 0.044926 0.052577
vt 0.040661 0.052914
vt 0.040652 0.053080
vt 0.045059 0.052592
vt 0.045059 0.052592
vt 0.042866 0.053177
vt 0.043343 0.052326
vt 0.043343 0.052326
vt 0.045177 0.052561
vt 0.045177 0.052561
vt 0.041803 0.047513
vt 0.041923 0.050080
vt 0.045341 0.052426
vt 0.045449 0.052282
vt 0.045449 0.052282
vt 0.045341 0.052426
vt 0.041826 0.047260
vt 0.041803 0.047513
vt 0.043436 0.052204
vt 0.043436 0.052204
vt 0.045516 0.052027
vt 0.045516 0.052027
vt 0.043497 0.048208
vt 0.043780 0.047241
vt 0.043780 0.047241
vt 0.043619 0.052074
vt 0.043619 0.052074
vt 0.041871 0.047061
vt 0.041826 0.047260
vt 0.043780 0.052025
vt 0.043996 0.052051
vt 0.043996 0.052051
vt 0.043826 0.046983
vt 0.043826 0.046983
vt 0.045490 0.051685
vt 0.045387 0.051285
vt 0.043411 0.045337
vt 0.043240 0.045305
vt 0.043240 0.045305
vt 0.043497 0.048208
vt 0.043045 0.045308
vt 0.043045 0.045308
vt 0.041939 0.046913
vt 0.041871 0.047061
vt 0.042484 0.046483
vt 0.041939 0.046913
vt 0.043846 0.046739
vt 0.043846 0.046739
vt 0.044774 0.052516
vt 0.042622 0.046317
vt 0.042484 0.046483
vt 0.042622 0.046317
vt 0.043830 0.046366
vt 0.043830 0.046366
vt 0.043780 0.052025
vt 0.042866 0.053177
vt 0.043697 0.045720
vt 0.043564 0.045458
vt 0.043564 0.045458
vt 0.042921 0.045334
vt 0.042819 0.045531
vt 0.043411 0.045337
vt 0.045490 0.051685
vt 0.042921 0.045334
vt 0.043751 0.045901
vt 0.043751 0.045901
vt 0.043697 0.045720
vt 0.040803 0.052505
vt 0.040661 0.052914
vt 0.042273 0.053596
vt 0.499893 0.391089
vt 0.508106 0.404468
vt 0.501633 0.398228
vt 0.501952 0.378657
vt 0.514418 0.406149
vt 0.519570 0.405927
vt 0.500208 0.385304
vt 0.505206 0.370959
vt 0.527917 0.409574
vt 0.534749 0.321936
vt 0.556712 0.409201
vt 0.577481 0.394495
vt 0.563962 0.407141
vt 0.572496 0.401062
vt 0.594205 0.364668
vt 0.542859 0.299855
vt 0.597457 0.360403
vt 0.603857 0.355856
vt 0.544099 0.292268
vt 0.625686 0.285425
vt 0.609507 0.354132
vt 0.598559 0.250453
vt 0.617067 0.355065
vt 0.654737 0.311620
vt 0.644342 0.371335
vt 0.669419 0.342220
vt 0.649678 0.373471
vt 0.665811 0.328224
vt 0.541053 0.187180
vt 0.544448 0.285975
vt 0.661322 0.319859
vt 0.664213 0.368203
vt 0.654309 0.374000
vt 0.658450 0.372908
vt 0.670349 0.354209
vt 0.668003 0.363142
vt 0.544990 0.175004
vt 0.542624 0.180213
vt 0.579411 0.119701
vt 0.583754 0.118771
vt 0.575841 0.126600
vt 0.590598 0.118668
vt 0.571348 0.147474
vt 0.606613 0.133212
vt 0.601941 0.124015
vt 0.596568 0.119801
vt 0.608483 0.139563
vt 0.611816 0.168907
vt 0.568942 0.154134
vt 0.611261 0.155853
vt 0.609525 0.186499
vt 0.611128 0.177483
vt 0.508106 0.404468
vt 0.499893 0.391089
vt 0.501633 0.398228
vt 0.500208 0.385304
vt 0.501952 0.378657
vt 0.514418 0.406149
vt 0.519570 0.405927
vt 0.505206 0.370959
vt 0.527917 0.409574
vt 0.534749 0.321936
vt 0.556712 0.409201
vt 0.563962 0.407141
vt 0.577481 0.394495
vt 0.572496 0.401062
vt 0.594205 0.364668
vt 0.542859 0.299855
vt 0.597457 0.360403
vt 0.603857 0.355856
vt 0.544099 0.292268
vt 0.544448 0.285975
vt 0.598559 0.250453
vt 0.540250 0.196021
vt 0.564098 0.159950
vt 0.541053 0.187180
vt 0.599590 0.220403
vt 0.544990 0.175004
vt 0.542624 0.180213
vt 0.609507 0.354132
vt 0.625686 0.285425
vt 0.649678 0.373471
vt 0.669419 0.342220
vt 0.644342 0.371335
vt 0.654737 0.311620
vt 0.617067 0.355065
vt 0.661322 0.319859
vt 0.571348 0.147474
vt 0.590598 0.118668
vt 0.575841 0.126600
vt 0.583754 0.118771
vt 0.579411 0.119701
vt 0.606613 0.133212
vt 0.611816 0.168907
vt 0.665811 0.328224
vt 0.658450 0.372908
vt 0.654309 0.374000
vt 0.668003 0.363142
vt 0.670349 0.354209
vt 0.664213 0.368203
vt 0.601941 0.124015
vt 0.596568 0.119801
vt 0.608483 0.139563
vt 0.611261 0.155853
vn -0.9893 0.0000 0.1458
vn -0.9430 0.0000 0.3329
vn -0.3957 0.0000 -0.9184
vn -0.0812 0.0000 -0.9967
vn -0.8405 0.0000 0.5418
vn -0.1398 0.0000 -0.9902
vn 0.1081 0.0000 -0.9941
vn 0.3390 0.0000 -0.9408
vn 0.7478 0.0000 0.6640
vn 0.6188 0.0000 0.7856
vn -0.9017 0.0000 0.4323
vn -0.9327 0.0000 0.3607
vn -0.1508 0.0000 -0.9886
vn -0.8244 0.0000 0.5660
vn -0.9089 0.0000 0.4171
vn 0.8862 0.0000 0.4633
vn 0.0000 1.0000 0.0000
vn 0.0000 -1.0000 -0.0000
vn 0.5879 0.0000 -0.8090
vn -1.0000 0.0000 0.0059
vn -0.8050 0.0000 -0.5933
vn 0.6246 0.0000 0.7809
vn -0.9925 0.0000 -0.1222
vn 0.9281 0.0000 0.3723
vn -0.3443 0.0000 -0.9389
vn -0.1849 0.0000 -0.9828
vn -0.9786 0.0000 0.2058
vn 0.0541 0.0000 -0.9985
vn 0.7493 0.0000 -0.6622
vn 0.7485 0.0000 -0.6631
vn 0.3595 0.0000 -0.9331
vn -0.9996 0.0000 0.0296
vn 0.6139 0.0000 -0.7894
vn 0.8437 0.0000 -0.5368
vn -0.9782 0.0000 0.2077
vn 0.5865 0.0000 -0.8100
vn 0.9930 0.0000 -0.1181
vn 0.9776 0.0000 -0.2103
vn 0.9533 0.0000 -0.3020
vn 0.3455 0.0000 -0.9384
vn -0.9116 0.0000 0.4110
vn 0.0654 0.0000 -0.9979
vn -0.2505 0.0000 -0.9681
vn 0.9852 0.0000 -0.1712
vn 0.9759 0.0000 0.2183
vn 0.3263 0.0000 0.9453
vn 0.0641 0.0000 0.9979
vn -0.0840 0.0000 0.9965
vn -0.6987 0.0000 0.7154
vn -0.5864 0.0000 0.8100
vn 0.9997 0.0000 -0.0253
vn -0.7962 0.0000 0.6050
vn 0.9899 0.0000 0.1416
vn 0.8820 0.0000 0.4712
vn 0.6795 0.0000 0.7337
vn -0.5300 0.0000 0.8480
vn 0.9545 0.0000 0.2983
s 1
f 1/1/1 2/2/2 3/3/2
f 4/4/3 5/5/4 6/6/4
f 2/2/2 7/7/5 8/8/5
f 5/5/4 9/9/6 10/10/6
f 11/11/7 12/12/8 13/13/8
f 14/14/9 15/15/10 16/16/10
f 17/17/11 18/18/12 19/19/12
f 9/9/6 20/20/13 21/21/13
f 22/22/14 23/23/15 24/24/15
f 25/25/16 14/14/9 26/26/9
f 27/27/17 28/28/17 29/29/17
f 30/30/18 31/31/18 32/32/18
f 12/12/8 33/33/19 34/34/19
f 35/35/20 1/1/1 36/36/1
f 37/37/21 4/4/3 38/38/3
f 15/15/10 39/39/22 40/40/22
f 41/41/23 37/37/21 42/42/21
f 39/39/22 43/43/24 44/44/24
f 45/45/25 46/46/26 47/47/26
f 48/48/27 41/41/23 49/49/23
f 46/46/26 50/50/28 51/51/28
f 52/52/29 53/53/30 54/54/30
f 50/50/28 55/55/31 56/56/31
f 27/57/32 35/35/20 57/58/20
f 58/59/33 59/60/34 60/61/34
f 55/55/31 58/59/33 61/62/33
f 62/63/35 27/57/32 63/64/32
f 53/53/30 64/65/36 65/66/36
f 59/60/34 66/67/37 67/68/37
f 29/69/38 68/70/39 32/71/39
f 64/65/36 69/72/40 70/73/40
f 71/74/41 62/63/35 72/75/35
f 73/76/42 74/77/43 75/78/43
f 68/70/39 76/79/44 30/80/44
f 77/81/45 25/25/16 78/82/16
f 79/83/46 80/84/47 81/85/47
f 43/43/24 29/69/38 82/86/38
f 80/84/47 83/87/48 84/88/48
f 85/89/49 71/74/41 86/90/41
f 28/91/50 85/89/49 87/92/49
f 76/79/44 88/93/51 89/94/51
f 74/77/43 45/45/25 90/95/25
f 91/96/52 28/91/50 92/97/50
f 18/18/12 91/96/52 31/98/52
f 88/93/51 93/99/53 94/100/53
f 69/72/40 73/76/42 95/101/42
f 33/33/19 52/52/29 96/102/29
f 97/103/54 98/104/55 99/105/55
f 100/106/56 17/17/11 101/107/11
f 98/104/55 79/83/46 102/108/46
f 66/67/37 77/81/45 103/109/45
f 83/87/48 100/106/56 104/110/56
f 93/99/53 105/111/57 106/112/57
f 105/111/57 97/103/54 107/113/54
f 7/7/5 22/22/14 108/114/14
f 23/23/15 48/48/27 109/115/27
f 20/20/13 11/11/7 110/116/7
f 1/1/1 3/3/2 36/36/1
f 4/4/3 6/6/4 38/38/3
f 2/2/2 8/8/5 3/3/2
f 5/5/4 10/10/6 6/6/4
f 11/11/7 13/13/8 110/116/7
f 14/14/9 16/16/10 26/26/9
f 17/17/11 19/19/12 101/107/11
f 9/9/6 21/21/13 10/10/6
f 22/22/14 24/24/15 108/114/14
f 25/25/16 26/26/9 78/82/16
f 41/117/17 4/118/17 37/119/17
f 4/118/17 23/120/17 5/121/17
f 5/121/17 23/120/17 9/122/17
f 4/118/17 48/123/17 23/120/17
f 9/122/17 22/124/17 20/125/17
f 20/125/17 7/126/17 11/127/17
f 22/124/17 7/126/17 20/125/17
f 11/127/17 52/128/17 12/129/17
f 12/129/17 52/128/17 33/130/17
f 52/128/17 7/126/17 53/131/17
f 52/128/17 11/127/17 7/126/17
f 48/123/17 4/118/17 41/117/17
f 22/124/17 9/122/17 23/120/17
f 53/131/17 2/132/17 64/133/17
f 7/126/17 2/132/17 53/131/17
f 64/133/17 2/132/17 69/134/17
f 2/132/17 1/135/17 69/134/17
f 69/134/17 39/136/17 73/137/17
f 1/135/17 43/138/17 69/134/17
f 74/139/17 15/140/17 45/141/17
f 45/141/17 77/142/17 46/143/17
f 25/144/17 77/142/17 45/141/17
f 69/134/17 43/138/17 39/136/17
f 73/137/17 39/136/17 74/139/17
f 62/145/17 28/28/17 27/27/17
f 27/27/17 43/138/17 35/146/17
f 35/146/17 43/138/17 1/135/17
f 45/141/17 14/147/17 25/144/17
f 46/143/17 58/148/17 50/149/17
f 50/149/17 58/148/17 55/150/17
f 58/148/17 66/151/17 59/152/17
f 66/151/17 58/148/17 77/142/17
f 58/148/17 46/143/17 77/142/17
f 14/147/17 45/141/17 15/140/17
f 15/140/17 74/139/17 39/136/17
f 27/27/17 29/29/17 43/138/17
f 85/153/17 62/145/17 71/154/17
f 28/28/17 62/145/17 85/153/17
f 100/155/17 83/156/17 17/157/17
f 17/157/17 80/158/17 18/159/17
f 80/158/17 97/160/17 18/159/17
f 80/158/17 17/157/17 83/156/17
f 98/161/17 80/158/17 79/162/17
f 105/163/17 18/159/17 97/160/17
f 97/160/17 80/158/17 98/161/17
f 88/164/17 91/165/17 93/166/17
f 93/166/17 18/159/17 105/163/17
f 91/165/17 18/159/17 93/166/17
f 68/167/17 91/165/17 76/168/17
f 76/168/17 91/165/17 88/164/17
f 29/29/17 28/28/17 68/167/17
f 28/28/17 91/165/17 68/167/17
f 38/169/18 49/170/18 42/171/18
f 49/170/18 38/169/18 109/172/18
f 109/172/18 38/169/18 24/173/18
f 38/169/18 6/174/18 24/173/18
f 24/173/18 10/175/18 108/176/18
f 108/176/18 21/177/18 8/178/18
f 10/175/18 21/177/18 108/176/18
f 110/179/18 8/178/18 21/177/18
f 10/175/18 24/173/18 6/174/18
f 13/180/18 96/181/18 110/179/18
f 96/181/18 13/180/18 34/182/18
f 54/183/18 8/178/18 96/181/18
f 8/178/18 110/179/18 96/181/18
f 8/178/18 54/183/18 3/184/18
f 54/183/18 65/185/18 3/184/18
f 3/184/18 70/186/18 36/187/18
f 65/185/18 70/186/18 3/184/18
f 57/188/18 44/189/18 63/190/18
f 63/190/18 92/191/18 72/192/18
f 82/193/18 92/191/18 63/190/18
f 36/187/18 44/189/18 57/188/18
f 70/186/18 44/189/18 36/187/18
f 63/190/18 44/189/18 82/193/18
f 72/192/18 87/194/18 86/195/18
f 87/194/18 72/192/18 92/191/18
f 95/196/18 40/197/18 70/186/18
f 40/197/18 44/189/18 70/186/18
f 47/198/18 103/199/18 90/200/18
f 90/200/18 16/201/18 75/202/18
f 26/203/18 16/201/18 90/200/18
f 75/202/18 40/197/18 95/196/18
f 92/191/18 32/32/18 31/31/18
f 82/193/18 32/32/18 92/191/18
f 19/204/18 81/205/18 101/206/18
f 101/206/18 84/207/18 104/208/18
f 19/204/18 107/209/18 81/205/18
f 31/31/18 89/210/18 19/204/18
f 90/200/18 78/211/18 26/203/18
f 56/212/18 47/198/18 51/213/18
f 60/214/18 67/215/18 61/216/18
f 61/216/18 47/198/18 56/212/18
f 103/199/18 47/198/18 61/216/18
f 103/199/18 61/216/18 67/215/18
f 78/211/18 90/200/18 103/199/18
f 40/197/18 75/202/18 16/201/18
f 107/209/18 99/217/18 81/205/18
f 84/207/18 101/206/18 81/205/18
f 81/205/18 99/217/18 102/218/18
f 107/209/18 19/204/18 106/219/18
f 106/219/18 19/204/18 94/220/18
f 94/220/18 19/204/18 89/210/18
f 89/210/18 31/31/18 30/30/18
f 12/12/8 34/34/19 13/13/8
f 35/35/20 36/36/1 57/58/20
f 37/37/21 38/38/3 42/42/21
f 15/15/10 40/40/22 16/16/10
f 41/41/23 42/42/21 49/49/23
f 39/39/22 44/44/24 40/40/22
f 45/45/25 47/47/26 90/95/25
f 48/48/27 49/49/23 109/115/27
f 46/46/26 51/51/28 47/47/26
f 52/52/29 54/54/30 96/102/29
f 50/50/28 56/56/31 51/51/28
f 27/57/32 57/58/20 63/64/32
f 58/59/33 60/61/34 61/62/33
f 55/55/31 61/62/33 56/56/31
f 62/63/35 63/64/32 72/75/35
f 53/53/30 65/66/36 54/54/30
f 59/60/34 67/68/37 60/61/34
f 29/69/38 32/71/39 82/86/38
f 64/65/36 70/73/40 65/66/36
f 71/74/41 72/75/35 86/90/41
f 73/76/42 75/78/43 95/101/42
f 68/70/39 30/80/44 32/71/39
f 77/81/45 78/82/16 103/109/45
f 79/83/46 81/85/47 102/108/46
f 43/43/24 82/86/38 44/44/24
f 80/84/47 84/88/48 81/85/47
f 85/89/49 86/90/41 87/92/49
f 28/91/50 87/92/49 92/97/50
f 76/79/44 89/94/51 30/80/44
f 74/77/43 90/95/25 75/78/43
f 91/96/52 92/97/50 31/98/52
f 18/18/12 31/98/52 19/19/12
f 88/93/51 94/100/53 89/94/51
f 69/72/40 95/101/42 70/73/40
f 33/33/19 96/102/29 34/34/19
f 97/103/54 99/105/55 107/113/54
f 100/106/56 101/107/11 104/110/56
f 98/104/55 102/108/46 99/105/55
f 66/67/37 103/109/45 67/68/37
f 83/87/48 104/110/56 84/88/48
f 93/99/53 106/112/57 94/100/53
f 105/111/57 107/113/54 106/112/57
f 7/7/5 108/114/14 8/8/5
f 23/23/15 109/115/27 24/24/15
f 20/20/13 110/116/7 21/21/13
