# Blender v2.82 (sub 7) OBJ File: 'Obstacals ALL.blend'
# www.blender.org
o Debris4_path862
v -0.191013 0.044148 0.780196
v -0.240407 0.044148 0.721128
v -0.254998 0.044148 0.665453
v 0.088636 -0.038629 0.896298
v -0.236381 0.044148 0.617784
v -0.122231 0.044148 0.521765
v 0.148586 -0.038629 0.898713
v 0.222151 -0.038629 0.883555
v -0.098883 0.044148 0.479951
v 0.298884 -0.038629 0.854747
v -0.093423 0.044148 0.430348
v -0.100337 0.044148 0.376006
v 0.397073 -0.038629 0.794519
v -0.117944 0.044148 0.330720
v 0.436024 -0.038629 0.748742
v 0.454772 -0.038629 0.682781
v -0.318318 0.044148 0.125994
v 0.432253 -0.038629 0.434187
v 0.447467 -0.038629 0.356560
v -0.332498 0.044148 0.076781
v -0.352577 0.044148 -0.193377
v 0.498445 -0.038629 0.283558
v 0.534779 -0.038629 0.248673
v 0.699499 -0.038629 0.134073
v 0.716014 -0.038629 0.078039
v 0.697283 -0.038629 0.022087
v 0.345458 -0.038629 -0.249557
v -0.376103 0.044148 -0.261489
v 0.291974 -0.038629 -0.308818
v 0.273773 -0.038629 -0.360596
v 0.275154 -0.038629 -0.422168
v 0.295834 -0.038629 -0.469248
v 0.334382 -0.038629 -0.509684
v 0.599480 -0.038629 -0.684617
v 0.665758 -0.038629 -0.742841
v 0.823147 -0.038629 -0.951762
v 0.827073 -0.038629 -1.001899
v -0.417837 0.044148 -0.357964
v 0.799953 -0.038629 -1.086595
v -0.503037 0.044148 -0.399973
v -0.768364 0.044148 -0.592901
v -0.843542 0.044148 -0.675900
v -0.768261 0.044148 -0.721409
v 0.416681 -0.038629 -1.059847
v -0.612706 0.044148 -0.748103
v -0.087606 0.044148 -0.725988
v -0.026542 0.044148 -0.737243
v 0.344745 -0.038629 -1.035630
v 0.050792 0.044148 -0.781324
v 0.279212 0.044148 -0.997594
v 0.344745 0.044148 -1.035630
v 0.416681 0.044148 -1.059847
v 0.799953 0.044148 -1.086595
v 0.827073 0.044148 -1.001899
v 0.279212 -0.038629 -0.997594
v 0.050792 -0.038629 -0.781324
v -0.026542 -0.038629 -0.737243
v 0.823147 0.044148 -0.951762
v -0.087606 -0.038629 -0.725988
v 0.665758 0.044148 -0.742841
v 0.599480 0.044148 -0.684617
v 0.334382 0.044148 -0.509684
v 0.295834 0.044148 -0.469248
v -0.612706 -0.038629 -0.748103
v -0.768261 -0.038629 -0.721409
v 0.275154 0.044148 -0.422168
v 0.273773 0.044148 -0.360596
v -0.843542 -0.038629 -0.675900
v -0.768364 -0.038629 -0.592901
v 0.291974 0.044148 -0.308818
v 0.345458 0.044148 -0.249557
v -0.503037 -0.038629 -0.399973
v 0.697283 0.044148 0.022087
v -0.417837 -0.038629 -0.357964
v -0.376103 -0.038629 -0.261489
v -0.352577 -0.038629 -0.193377
v 0.716014 0.044148 0.078039
v -0.332498 -0.038629 0.076781
v -0.318318 -0.038629 0.125994
v -0.117944 -0.038629 0.330720
v 0.699499 0.044148 0.134073
v -0.100337 -0.038629 0.376006
v 0.534779 0.044148 0.248673
v 0.498445 0.044148 0.283558
v -0.093423 -0.038629 0.430348
v 0.447467 0.044148 0.356560
v -0.098883 -0.038629 0.479951
v 0.432253 0.044148 0.434187
v 0.454772 0.044148 0.682781
v -0.122231 -0.038629 0.521765
v -0.236381 -0.038629 0.617784
v 0.436024 0.044148 0.748742
v -0.254998 -0.038629 0.665453
v 0.397073 0.044148 0.794519
v -0.240407 -0.038629 0.721128
v 0.298884 0.044148 0.854747
v 0.222151 0.044148 0.883555
v 0.148586 0.044148 0.898713
v -0.191013 -0.038629 0.780196
v 0.088636 0.044148 0.896298
vt 0.354250 0.340985
vt 0.352335 0.335087
vt 0.352335 0.335087
vt 0.382371 0.367966
vt 0.357820 0.346051
vt 0.357820 0.346051
vt 0.368293 0.237529
vt 0.366884 0.227804
vt 0.366884 0.227804
vt 0.255705 0.372575
vt 0.270110 0.375919
vt 0.270110 0.375919
vt 0.255695 0.356476
vt 0.248733 0.366874
vt 0.248733 0.366874
vt 0.317561 0.235093
vt 0.315930 0.240766
vt 0.315930 0.240766
vt 0.324395 0.374559
vt 0.331557 0.380081
vt 0.331557 0.380081
vt 0.388509 0.375260
vt 0.382371 0.367966
vt 0.373014 0.246675
vt 0.368293 0.237529
vt 0.403084 0.401433
vt 0.388509 0.375260
vt 0.255705 0.372575
vt 0.297374 0.266414
vt 0.297374 0.266414
vt 0.340614 0.169609
vt 0.335062 0.169912
vt 0.335062 0.169912
vt 0.400936 0.418325
vt 0.403448 0.407714
vt 0.403448 0.407714
vt 0.403084 0.401433
vt 0.318740 0.373149
vt 0.318740 0.373149
vt 0.391633 0.265402
vt 0.376379 0.251045
vt 0.376379 0.251045
vt 0.309163 0.184457
vt 0.309163 0.184457
vt 0.352711 0.407175
vt 0.358780 0.411940
vt 0.358780 0.411940
vt 0.353893 0.320887
vt 0.358846 0.313462
vt 0.358846 0.313462
vt 0.304962 0.204803
vt 0.315533 0.216833
vt 0.315533 0.216833
vt 0.296060 0.272579
vt 0.296060 0.272579
vt 0.294201 0.306424
vt 0.294201 0.306424
vt 0.363626 0.182662
vt 0.354533 0.175117
vt 0.354533 0.175117
vt 0.365442 0.414974
vt 0.365442 0.414974
vt 0.324395 0.374559
vt 0.393163 0.272422
vt 0.391633 0.265402
vt 0.354250 0.340985
vt 0.317696 0.222071
vt 0.318201 0.228285
vt 0.318201 0.228285
vt 0.288157 0.327043
vt 0.280267 0.332306
vt 0.280267 0.332306
vt 0.317561 0.235093
vt 0.347426 0.171508
vt 0.347426 0.171508
vt 0.317696 0.222071
vt 0.368969 0.196661
vt 0.368969 0.196661
vt 0.352207 0.327373
vt 0.353893 0.320887
vt 0.352711 0.407175
vt 0.303238 0.198832
vt 0.304962 0.204803
vt 0.292022 0.314957
vt 0.288157 0.327043
vt 0.304589 0.191857
vt 0.303238 0.198832
vt 0.292022 0.314957
vt 0.367233 0.188397
vt 0.367233 0.188397
vt 0.255695 0.356476
vt 0.391428 0.279431
vt 0.391428 0.279431
vt 0.340614 0.169609
vt 0.304589 0.191857
vt 0.393163 0.272422
vt 0.373014 0.246675
vt 0.400936 0.418325
vt 0.363626 0.182662
vt 0.352207 0.327373
vn 0.9156 0.0000 0.4022
vn 0.5508 0.0000 0.8347
vn 0.9813 0.0000 0.1923
vn -0.1691 0.0000 -0.9856
vn -0.7412 0.0000 0.6713
vn -0.9320 0.0000 0.3624
vn -0.4952 0.0000 -0.8688
vn 0.6600 0.0000 0.7513
vn 0.8199 0.0000 0.5725
vn 0.7987 0.0000 0.6017
vn -0.5173 0.0000 -0.8558
vn -0.7147 0.0000 0.6995
vn -0.0402 0.0000 0.9992
vn 0.9524 0.0000 -0.3049
vn 0.9969 0.0000 0.0781
vn 0.0421 0.0000 -0.9991
vn 0.5711 0.0000 0.8209
vn -0.3834 0.0000 0.9236
vn -0.5020 0.0000 -0.8649
vn 0.7424 0.0000 -0.6700
vn -0.6437 0.0000 -0.7653
vn -0.9609 0.0000 0.2769
vn -0.9972 0.0000 0.0741
vn 0.5229 0.0000 0.8524
vn -0.3190 0.0000 -0.9477
vn -0.1813 0.0000 -0.9834
vn 0.9592 0.0000 0.2827
vn 0.0000 -1.0000 -0.0000
vn 0.0000 1.0000 0.0000
vn -0.9940 0.0000 -0.1094
vn 0.7238 0.0000 0.6900
vn -0.4422 0.0000 0.8969
vn -0.9920 0.0000 0.1262
vn 0.3515 0.0000 0.9362
vn -0.8731 0.0000 -0.4875
vn 0.9959 0.0000 -0.0902
vn 0.9434 0.0000 -0.3316
vn -0.6875 0.0000 -0.7262
vn -0.9315 0.0000 -0.3638
vn -0.9178 0.0000 0.3970
vn -0.9673 0.0000 0.2535
vn -0.9452 0.0000 0.3265
vn 0.9619 0.0000 0.2734
vn -0.5881 0.0000 0.8088
vn 0.6111 0.0000 -0.7915
vn 0.2018 0.0000 0.9794
vn -0.7671 0.0000 0.6415
vn 0.9483 0.0000 -0.3175
vn 0.6926 0.0000 0.7213
vn -0.0696 0.0000 -0.9976
vn 0.7616 0.0000 0.6480
vn 0.9997 0.0000 0.0224
s off
f 63/1/1 66/2/1 31/3/1
f 61/4/2 62/5/2 33/6/2
f 86/7/3 88/8/3 18/9/3
f 43/10/4 45/11/4 64/12/4
f 41/13/5 42/14/5 68/15/5
f 12/16/6 14/17/6 80/18/6
f 47/19/7 49/20/7 56/21/7
f 60/22/8 61/4/8 34/23/8
f 84/24/9 86/7/9 19/25/9
f 58/26/10 60/22/10 35/27/10
f 42/14/11 43/10/11 65/28/11
f 14/17/12 17/29/12 79/30/12
f 98/31/13 100/32/13 4/33/13
f 53/34/14 54/35/14 37/36/14
f 54/35/15 58/26/15 36/37/15
f 45/11/16 46/38/16 59/39/16
f 81/40/17 83/41/17 23/42/17
f 100/32/18 1/43/18 99/44/18
f 50/45/19 51/46/19 48/47/19
f 70/48/20 71/49/20 27/50/20
f 5/51/21 6/52/21 90/53/21
f 17/29/22 20/54/22 78/55/22
f 20/54/23 21/56/23 76/57/23
f 94/58/24 96/59/24 10/60/24
f 51/46/25 52/61/25 44/62/25
f 46/38/26 47/19/26 57/63/26
f 77/64/27 81/40/27 24/65/27
f 57/63/28 56/21/28 32/66/28
f 49/20/29 62/5/29 50/45/29
f 9/67/30 11/68/30 85/69/30
f 62/5/31 63/1/31 32/66/31
f 38/70/32 40/71/32 72/72/32
f 11/68/33 12/16/33 82/73/33
f 96/59/34 97/74/34 8/75/34
f 6/52/35 9/67/35 87/76/35
f 88/8/36 89/77/36 16/78/36
f 67/79/37 70/48/37 29/80/37
f 49/20/38 50/45/38 55/81/38
f 3/82/39 5/51/39 91/83/39
f 28/84/40 38/70/40 74/85/40
f 2/86/41 3/82/41 93/87/41
f 21/56/42 28/84/42 75/88/42
f 89/77/43 92/89/43 15/90/43
f 40/71/44 41/13/44 69/91/44
f 71/49/45 73/92/45 26/93/45
f 97/74/46 98/31/46 7/94/46
f 1/43/47 2/86/47 95/95/47
f 73/92/48 77/64/48 25/96/48
f 83/41/49 84/24/49 22/97/49
f 52/61/50 53/34/50 39/98/50
f 92/89/51 94/58/51 13/99/51
f 66/2/52 67/79/52 30/100/52
f 63/1/1 31/3/1 32/66/1
f 61/4/2 33/6/2 34/23/2
f 86/7/3 18/9/3 19/25/3
f 43/10/4 64/12/4 65/28/4
f 41/13/5 68/15/5 69/91/5
f 12/16/6 80/18/6 82/73/6
f 47/19/7 56/21/7 57/63/7
f 60/22/8 34/23/8 35/27/8
f 84/24/9 19/25/9 22/97/9
f 58/26/10 35/27/10 36/37/10
f 42/14/11 65/28/11 68/15/11
f 14/17/12 79/30/12 80/18/12
f 98/31/13 4/33/13 7/94/13
f 53/34/14 37/36/14 39/98/14
f 54/35/15 36/37/15 37/36/15
f 45/11/16 59/39/16 64/12/16
f 81/40/17 23/42/17 24/65/17
f 100/32/18 99/44/18 4/33/18
f 50/45/19 48/47/19 55/81/19
f 70/48/20 27/50/20 29/80/20
f 5/51/21 90/53/21 91/83/21
f 17/29/22 78/55/22 79/30/22
f 20/54/23 76/57/23 78/55/23
f 94/58/24 10/60/24 13/99/24
f 51/46/25 44/62/25 48/47/25
f 46/38/26 57/63/26 59/39/26
f 77/64/27 24/65/27 25/96/27
f 23/42/28 26/93/28 24/65/28
f 24/65/28 26/93/28 25/96/28
f 26/93/28 23/42/28 27/50/28
f 22/97/28 27/50/28 23/42/28
f 22/97/28 80/18/28 27/50/28
f 27/50/28 78/55/28 29/80/28
f 22/97/28 19/25/28 80/18/28
f 82/73/28 19/25/28 18/9/28
f 18/9/28 85/69/28 82/73/28
f 29/80/28 76/57/28 30/100/28
f 82/73/28 80/18/28 19/25/28
f 15/90/28 13/99/28 16/78/28
f 16/78/28 87/76/28 18/9/28
f 18/9/28 87/76/28 85/69/28
f 16/78/28 10/60/28 87/76/28
f 10/60/28 16/78/28 13/99/28
f 7/94/28 87/76/28 8/75/28
f 8/75/28 87/76/28 10/60/28
f 99/44/28 90/53/28 4/33/28
f 4/33/28 87/76/28 7/94/28
f 93/87/28 91/83/28 95/95/28
f 95/95/28 91/83/28 99/44/28
f 90/53/28 99/44/28 91/83/28
f 4/33/28 90/53/28 87/76/28
f 30/100/28 59/39/28 31/3/28
f 80/18/28 78/55/28 27/50/28
f 78/55/28 80/18/28 79/30/28
f 78/55/28 76/57/28 29/80/28
f 31/3/28 57/63/28 32/66/28
f 30/100/28 76/57/28 75/88/28
f 30/100/28 75/88/28 59/39/28
f 59/39/28 57/63/28 31/3/28
f 69/91/28 64/12/28 72/72/28
f 72/72/28 59/39/28 74/85/28
f 64/12/28 59/39/28 72/72/28
f 74/85/28 59/39/28 75/88/28
f 33/6/28 55/81/28 34/23/28
f 34/23/28 44/62/28 35/27/28
f 48/47/28 44/62/28 34/23/28
f 32/66/28 56/21/28 33/6/28
f 68/15/28 65/28/28 69/91/28
f 64/12/28 69/91/28 65/28/28
f 34/23/28 55/81/28 48/47/28
f 35/27/28 44/62/28 36/37/28
f 36/37/28 39/98/28 37/36/28
f 39/98/28 36/37/28 44/62/28
f 55/81/28 33/6/28 56/21/28
f 88/8/29 9/67/29 89/77/29
f 89/77/29 94/58/29 92/89/29
f 96/59/29 94/58/29 89/77/29
f 96/59/29 9/67/29 97/74/29
f 97/74/29 9/67/29 98/31/29
f 9/67/29 100/32/29 98/31/29
f 100/32/29 6/52/29 1/43/29
f 1/43/29 5/51/29 2/86/29
f 2/86/29 5/51/29 3/82/29
f 5/51/29 1/43/29 6/52/29
f 100/32/29 9/67/29 6/52/29
f 89/77/29 9/67/29 96/59/29
f 86/7/29 12/16/29 88/8/29
f 88/8/29 11/68/29 9/67/29
f 88/8/29 12/16/29 11/68/29
f 84/24/29 14/17/29 86/7/29
f 86/7/29 14/17/29 12/16/29
f 77/64/29 73/92/29 81/40/29
f 81/40/29 73/92/29 83/41/29
f 83/41/29 71/49/29 84/24/29
f 14/17/29 20/54/29 17/29/29
f 84/24/29 71/49/29 14/17/29
f 71/49/29 83/41/29 73/92/29
f 14/17/29 71/49/29 20/54/29
f 71/49/29 70/48/29 20/54/29
f 20/54/29 70/48/29 21/56/29
f 70/48/29 67/79/29 21/56/29
f 21/56/29 67/79/29 28/84/29
f 38/70/29 46/38/29 40/71/29
f 40/71/29 45/11/29 41/13/29
f 67/79/29 46/38/29 28/84/29
f 28/84/29 46/38/29 38/70/29
f 66/2/29 46/38/29 67/79/29
f 40/71/29 46/38/29 45/11/29
f 41/13/29 43/10/29 42/14/29
f 45/11/29 43/10/29 41/13/29
f 63/1/29 47/19/29 66/2/29
f 66/2/29 47/19/29 46/38/29
f 60/22/29 52/61/29 61/4/29
f 61/4/29 50/45/29 62/5/29
f 51/46/29 50/45/29 61/4/29
f 62/5/29 49/20/29 63/1/29
f 63/1/29 49/20/29 47/19/29
f 58/26/29 52/61/29 60/22/29
f 61/4/29 52/61/29 51/46/29
f 53/34/29 58/26/29 54/35/29
f 52/61/29 58/26/29 53/34/29
f 9/67/30 85/69/30 87/76/30
f 62/5/31 32/66/31 33/6/31
f 38/70/32 72/72/32 74/85/32
f 11/68/33 82/73/33 85/69/33
f 96/59/34 8/75/34 10/60/34
f 6/52/35 87/76/35 90/53/35
f 88/8/36 16/78/36 18/9/36
f 67/79/37 29/80/37 30/100/37
f 49/20/38 55/81/38 56/21/38
f 3/82/39 91/83/39 93/87/39
f 28/84/40 74/85/40 75/88/40
f 2/86/41 93/87/41 95/95/41
f 21/56/42 75/88/42 76/57/42
f 89/77/43 15/90/43 16/78/43
f 40/71/44 69/91/44 72/72/44
f 71/49/45 26/93/45 27/50/45
f 97/74/46 7/94/46 8/75/46
f 1/43/47 95/95/47 99/44/47
f 73/92/48 25/96/48 26/93/48
f 83/41/49 22/97/49 23/42/49
f 52/61/50 39/98/50 44/62/50
f 92/89/51 13/99/51 15/90/51
f 66/2/52 30/100/52 31/3/52
