# Blender v2.82 (sub 7) OBJ File: ''
# www.blender.org
o Debris6_path856
v -3.644531 -0.004777 3.206481
v -0.782066 -0.004777 4.595201
v -4.324721 -0.004776 -1.498166
v 2.214686 -0.004775 -4.594479
v 1.565473 -0.004775 -4.913391
v 3.262539 -0.004775 -3.546626
v 0.893480 -0.004775 -5.129795
v -2.456626 -0.004775 -4.171471
v -2.907659 -0.004775 -3.652100
v 0.153149 -0.004775 -5.220912
v -1.240205 -0.004775 -4.964195
v -0.556823 -0.004775 -5.169210
v -1.896253 -0.004775 -4.636171
v -3.502825 -0.004776 -2.801863
v -4.012967 -0.004776 -2.093332
v 4.173716 -0.004776 0.838412
v 0.493290 -0.004777 4.538519
v 3.615620 -0.004776 -2.931582
v 2.795561 -0.004775 -4.138890
v 4.242054 -0.004776 -1.268684
v 4.048429 -0.004776 -1.929287
v 4.321782 -0.004776 -0.528353
v 3.858813 -0.004776 2.275156
v 4.114671 -0.004776 1.546943
v 3.051875 -0.004777 3.456041
v 3.504547 -0.004776 2.845917
v 2.540158 -0.004777 3.869351
v 1.851308 -0.004777 4.243298
v 1.201821 -0.004777 4.440112
v -1.518938 -0.004777 4.510178
v -2.199128 -0.004777 4.255106
v -2.879318 -0.004777 3.915012
v -4.183015 -0.004776 2.667997
v -4.523110 -0.004776 1.987807
v -4.721498 -0.004776 1.279276
v -4.778181 -0.004776 0.542404
v -4.721498 -0.004776 -0.137786
v -3.644531 -0.004777 3.206481
v -4.324721 -0.004776 -1.498166
v -0.782066 -0.004777 4.595201
v 2.214686 -0.004775 -4.594479
v 3.262539 -0.004775 -3.546626
v 1.565473 -0.004775 -4.913391
v -2.456626 -0.004775 -4.171471
v 0.893480 -0.004775 -5.129795
v -2.907659 -0.004775 -3.652100
v -1.240205 -0.004775 -4.964195
v 0.153149 -0.004775 -5.220912
v -0.556823 -0.004775 -5.169210
v -1.896253 -0.004775 -4.636171
v -3.502825 -0.004776 -2.801863
v 4.173716 -0.004776 0.838412
v -4.012967 -0.004776 -2.093332
v 0.493290 -0.004777 4.538519
v 3.615620 -0.004776 -2.931582
v 2.795561 -0.004775 -4.138890
v 4.242054 -0.004776 -1.268684
v 4.321782 -0.004776 -0.528353
v 4.048429 -0.004776 -1.929287
v 3.858813 -0.004776 2.275156
v 4.114671 -0.004776 1.546943
v 3.051875 -0.004777 3.456041
v 2.540158 -0.004777 3.869351
v 3.504547 -0.004776 2.845917
v 1.851308 -0.004777 4.243298
v 1.201821 -0.004777 4.440112
v -1.518938 -0.004777 4.510178
v -2.199128 -0.004777 4.255106
v -2.879318 -0.004777 3.915012
v -4.183015 -0.004776 2.667997
v -4.523110 -0.004776 1.987807
v -4.721498 -0.004776 1.279276
v -4.778181 -0.004776 0.542404
v -4.721498 -0.004776 -0.137786
vn 0.0000 1.0000 0.0000
vn -0.0000 -1.0000 -0.0000
s 1
f 1//1 2//1 3//1
f 4//1 5//1 6//1
f 5//1 7//1 8//1
f 6//1 5//1 9//1
f 7//1 10//1 11//1
f 10//1 12//1 11//1
f 11//1 13//1 8//1
f 7//1 11//1 8//1
f 8//1 9//1 5//1
f 14//1 15//1 16//1
f 15//1 3//1 17//1
f 9//1 14//1 18//1
f 19//1 4//1 6//1
f 18//1 6//1 9//1
f 20//1 21//1 22//1
f 21//1 18//1 14//1
f 16//1 22//1 14//1
f 14//1 22//1 21//1
f 23//1 24//1 16//1
f 25//1 26//1 27//1
f 26//1 23//1 16//1
f 28//1 27//1 26//1
f 17//1 29//1 26//1
f 29//1 28//1 26//1
f 30//1 2//1 31//1
f 2//1 17//1 3//1
f 2//1 1//1 31//1
f 32//1 31//1 1//1
f 33//1 1//1 34//1
f 35//1 1//1 36//1
f 35//1 34//1 1//1
f 37//1 36//1 1//1
f 15//1 17//1 16//1
f 3//1 37//1 1//1
f 26//1 16//1 17//1
f 38//2 39//2 40//2
f 41//2 42//2 43//2
f 43//2 44//2 45//2
f 42//2 46//2 43//2
f 45//2 47//2 48//2
f 48//2 47//2 49//2
f 47//2 44//2 50//2
f 45//2 44//2 47//2
f 44//2 43//2 46//2
f 51//2 52//2 53//2
f 53//2 54//2 39//2
f 46//2 55//2 51//2
f 56//2 42//2 41//2
f 55//2 46//2 42//2
f 57//2 58//2 59//2
f 59//2 51//2 55//2
f 52//2 51//2 58//2
f 51//2 59//2 58//2
f 60//2 52//2 61//2
f 62//2 63//2 64//2
f 64//2 52//2 60//2
f 65//2 64//2 63//2
f 54//2 64//2 66//2
f 66//2 64//2 65//2
f 67//2 68//2 40//2
f 40//2 39//2 54//2
f 40//2 68//2 38//2
f 69//2 38//2 68//2
f 70//2 71//2 38//2
f 72//2 73//2 38//2
f 72//2 38//2 71//2
f 74//2 38//2 73//2
f 53//2 52//2 54//2
f 39//2 38//2 74//2
f 64//2 54//2 52//2
