# Blender v2.82 (sub 7) OBJ File: ''
# www.blender.org
o Debris2_path852
v -2.987084 -0.001492 3.143618
v 4.195487 -0.001430 0.529140
v -3.464015 -0.015336 -2.701810
v 0.226099 -0.001429 -4.873538
v -0.495735 -0.001429 -4.802443
v 0.947928 -0.001429 -4.802444
v -1.189830 -0.001429 -4.591892
v -1.829511 -0.001429 -4.249975
v -2.390196 -0.001429 -3.789833
v -3.916414 -0.043087 -2.135736
v -3.916414 -0.043087 1.975483
v 3.689784 -0.001430 -2.641754
v -4.263379 -0.022289 -1.506362
v -4.473060 -0.022289 -0.789149
v -4.539977 -0.043087 -0.080127
v -4.468883 -0.043087 0.641707
v -4.258331 -0.043087 1.335802
v -1.952519 -0.001492 4.130726
v 2.733596 -0.001431 3.655204
v 3.894799 -0.001430 1.923240
v 3.540534 -0.001430 2.651452
v -1.312838 -0.001492 4.472643
v -0.618743 -0.001492 4.683194
v 0.103091 -0.001492 4.754288
v 0.824926 -0.001492 4.683193
v 2.162835 -0.001431 4.147239
v 4.099813 -0.001430 1.239857
v 4.332164 -0.001430 -0.564272
v 4.045143 -0.001430 -1.958372
v 4.263825 -0.001430 -1.315992
v 2.842391 -0.001429 -3.789836
v 2.281704 -0.001429 -4.249978
v 1.642022 -0.001429 -4.591894
v -2.987084 -0.001492 3.143618
v -3.464015 -0.015336 -2.701810
v 4.195487 -0.001430 0.529140
v 0.226099 -0.001429 -4.873538
v 0.947928 -0.001429 -4.802444
v -0.495735 -0.001429 -4.802443
v -1.189830 -0.001429 -4.591892
v -2.390196 -0.001429 -3.789833
v -1.829511 -0.001429 -4.249975
v -3.916414 -0.043087 1.975483
v -3.916414 -0.043087 -2.135736
v 3.689784 -0.001430 -2.641754
v -4.473060 -0.022289 -0.789149
v -4.263379 -0.022289 -1.506362
v -4.539977 -0.043087 -0.080127
v -4.468883 -0.043087 0.641707
v -4.258331 -0.043087 1.335802
v 2.733596 -0.001431 3.655204
v -1.952519 -0.001492 4.130726
v 3.894799 -0.001430 1.923240
v 3.540534 -0.001430 2.651452
v -0.618743 -0.001492 4.683194
v -1.312838 -0.001492 4.472643
v 0.824926 -0.001492 4.683193
v 0.103091 -0.001492 4.754288
v 2.162835 -0.001431 4.147239
v 4.099813 -0.001430 1.239857
v 4.045143 -0.001430 -1.958372
v 4.332164 -0.001430 -0.564272
v 4.263825 -0.001430 -1.315992
v 2.842391 -0.001429 -3.789836
v 2.281704 -0.001429 -4.249978
v 1.642022 -0.001429 -4.591894
vn 0.0000 1.0000 -0.0000
vn -0.0006 1.0000 -0.0022
vn -0.0008 1.0000 -0.0023
vn -0.0001 1.0000 0.0002
vn -0.0051 1.0000 0.0078
vn -0.0030 1.0000 0.0046
vn -0.0612 0.9981 0.0000
vn 0.1386 0.9895 0.0419
vn 0.1265 0.9913 0.0370
vn 0.1300 0.9908 0.0384
vn 0.1389 0.9894 0.0421
vn -0.0465 0.9989 0.0014
vn -0.0000 1.0000 0.0001
vn -0.0001 1.0000 -0.0001
vn 0.0001 -1.0000 0.0002
vn 0.0004 -1.0000 0.0019
vn 0.0022 -1.0000 -0.0034
vn 0.0000 -1.0000 -0.0000
vn 0.0001 -1.0000 -0.0002
vn 0.0612 -0.9981 -0.0000
vn -0.1265 -0.9913 -0.0370
vn -0.1389 -0.9894 -0.0421
vn 0.0465 -0.9989 -0.0014
vn 0.0000 -1.0000 -0.0001
vn 0.0001 -1.0000 0.0001
s 1
f 1//1 2//2 3//3
f 4//1 5//1 6//1
f 5//1 7//1 6//1
f 7//1 8//1 9//4
f 9//4 3//5 2//6
f 3//7 10//7 11//7
f 9//4 2//6 12//1
f 10//8 13//9 14//10
f 14//10 15//11 10//8
f 15//1 16//1 10//1
f 16//1 17//1 11//1
f 11//12 1//12 3//12
f 1//1 18//1 19//1
f 20//1 1//1 21//1
f 18//1 22//1 23//1
f 23//1 24//1 25//13
f 25//13 26//14 19//1
f 19//1 21//1 1//1
f 20//1 27//1 1//1
f 27//1 2//2 1//1
f 2//6 28//1 29//1
f 28//1 30//1 29//1
f 29//1 12//1 2//6
f 12//1 31//1 9//4
f 31//1 32//1 7//1
f 32//1 33//1 6//1
f 7//1 9//4 31//1
f 16//1 11//1 10//1
f 18//1 23//1 19//1
f 23//1 25//13 19//1
f 32//1 6//1 7//1
f 34//15 35//16 36//17
f 37//18 38//18 39//18
f 39//18 38//18 40//18
f 40//18 41//19 42//18
f 41//19 36//17 35//16
f 35//20 43//20 44//20
f 41//19 45//18 36//17
f 44//21 46//21 47//21
f 46//22 44//22 48//22
f 48//18 44//18 49//18
f 49//18 43//18 50//18
f 43//23 35//23 34//23
f 34//18 51//18 52//18
f 53//18 54//18 34//15
f 52//18 55//18 56//18
f 55//18 57//24 58//18
f 57//24 51//18 59//25
f 51//18 34//15 54//18
f 53//18 34//15 60//18
f 60//18 34//15 36//17
f 36//17 61//18 62//18
f 62//18 61//18 63//18
f 61//18 36//17 45//18
f 45//18 41//19 64//18
f 64//18 40//18 65//18
f 65//18 38//18 66//18
f 40//18 64//18 41//19
f 49//18 44//18 43//18
f 52//18 51//18 55//18
f 55//18 51//18 57//24
f 65//18 40//18 38//18
