# Blender v2.82 (sub 7) OBJ File: ''
# www.blender.org
o Debris2_path852.001
v 0.094430 0.039548 -1.156870
v 0.418756 0.039548 -1.093886
v 0.245967 0.039548 -1.166145
v -0.051975 0.039548 -1.037281
v -0.064690 0.039548 -0.901824
v 0.449261 0.039548 -0.861019
v -0.085226 0.039548 -0.695616
v 0.539148 0.039548 -0.727286
v 0.620447 0.039548 -0.541508
v -0.164663 0.039548 -0.494670
v -0.275508 0.039548 -0.387811
v 0.473738 0.039548 -0.376739
v -0.461284 0.039548 -0.319505
v -0.652092 0.039548 -0.290430
v 0.359712 0.039548 -0.258430
v -0.797075 0.039548 -0.207827
v 0.289164 0.039548 -0.130377
v -0.826683 0.039548 0.005372
v 0.300118 0.039548 0.047384
v -0.703039 0.039548 0.196296
v 0.348408 0.039548 0.193320
v -0.582066 0.039548 0.259410
v -0.332564 0.039548 0.310913
v 0.434407 0.039548 0.364815
v 0.478529 0.039548 0.535098
v -0.250605 0.039548 0.447883
v -0.332564 -0.032926 0.310913
v 0.431486 0.039548 0.693540
v -0.182050 0.039548 0.683890
v 0.094430 -0.032926 -1.156870
v 0.478529 -0.032926 0.535098
v -0.164663 -0.032926 -0.494670
v -0.797075 -0.032926 -0.207827
v 0.418756 -0.032926 -1.093886
v 0.119701 -0.032926 1.041983
v 0.297746 0.039548 0.910078
v 0.119701 0.039548 1.041983
v 0.289164 -0.032926 -0.130377
v 0.434407 -0.032926 0.364815
v -0.085226 -0.032926 -0.695616
v -0.008624 -0.032926 0.930647
v -0.008624 0.039548 0.930647
v 0.245967 -0.032926 -1.166145
v 0.620447 -0.032926 -0.541508
v -0.100741 -0.032926 0.819431
v -0.100741 0.039548 0.819431
v -0.652092 -0.032926 -0.290430
v -0.582066 -0.032926 0.259410
v 0.539148 -0.032926 -0.727286
v -0.182050 -0.032926 0.683890
v 0.359712 -0.032926 -0.258430
v 0.297746 -0.032926 0.910078
v -0.703039 -0.032926 0.196296
v -0.064690 -0.032926 -0.901824
v 0.348408 -0.032926 0.193320
v 0.449261 -0.032926 -0.861019
v -0.250605 -0.032926 0.447883
v -0.461284 -0.032926 -0.319505
v 0.431486 -0.032926 0.693540
v -0.826683 -0.032926 0.005372
v -0.275508 -0.032926 -0.387811
v 0.300118 -0.032926 0.047384
v -0.051975 -0.032926 -1.037281
v 0.473738 -0.032926 -0.376739
vt 0.616296 0.785374
vt 0.645267 0.777763
vt 0.629833 0.786495
vt 0.603218 0.770923
vt 0.602082 0.754555
vt 0.647992 0.749624
vt 0.600248 0.729637
vt 0.656022 0.733464
vt 0.663284 0.711014
vt 0.593152 0.705355
vt 0.583251 0.692442
vt 0.650179 0.691104
vt 0.566655 0.684188
vt 0.549611 0.680674
vt 0.639993 0.676808
vt 0.536660 0.670693
vt 0.633691 0.661334
vt 0.534015 0.644930
vt 0.634670 0.639854
vt 0.545060 0.621859
vt 0.638983 0.622219
vt 0.555866 0.614233
vt 0.578154 0.608009
vt 0.646665 0.601496
vt 0.650607 0.580919
vt 0.585475 0.591458
vt 0.052913 0.065119
vt 0.053141 0.064603
vt 0.052913 0.065119
vt 0.646405 0.561773
vt 0.591599 0.562939
vt 0.054103 0.070654
vt 0.053695 0.070203
vt 0.054103 0.070654
vt 0.055174 0.064274
vt 0.055051 0.064916
vt 0.055174 0.064274
vt 0.053381 0.068157
vt 0.053072 0.067754
vt 0.053381 0.068157
vt 0.051618 0.067075
vt 0.051535 0.066271
vt 0.051618 0.067075
vt 0.055007 0.070417
vt 0.054525 0.070689
vt 0.055007 0.070417
vt 0.054173 0.062362
vt 0.054670 0.062860
vt 0.054173 0.062362
vt 0.054646 0.066783
vt 0.054842 0.067266
vt 0.054646 0.066783
vt 0.055051 0.064916
vt 0.054811 0.065563
vt 0.053602 0.068915
vt 0.053602 0.068915
vt 0.053816 0.062782
vt 0.053816 0.062782
vt 0.054525 0.070689
vt 0.055569 0.068334
vt 0.055343 0.069034
vt 0.055569 0.068334
vt 0.053559 0.063201
vt 0.053559 0.063201
vt 0.052022 0.067387
vt 0.052022 0.067387
vt 0.052217 0.065313
vt 0.052217 0.065313
vt 0.055343 0.069034
vt 0.055092 0.069539
vt 0.053332 0.063713
vt 0.053332 0.063713
vt 0.054842 0.067266
vt 0.055160 0.067712
vt 0.054670 0.062860
vt 0.055043 0.063676
vt 0.051880 0.065551
vt 0.051880 0.065551
vt 0.053659 0.069692
vt 0.053659 0.069692
vt 0.054811 0.065563
vt 0.054676 0.066113
vt 0.055092 0.069539
vt 0.053141 0.064603
vt 0.052554 0.067497
vt 0.052554 0.067497
vt 0.634458 0.535607
vt 0.598862 0.546561
vt 0.055043 0.063676
vt 0.051535 0.066271
vt 0.053072 0.067754
vt 0.054676 0.066113
vt 0.053695 0.070203
vt 0.055160 0.067712
vt 0.618554 0.519668
vt 0.607091 0.533121
vt 0.634458 0.535607
vt 0.598862 0.546561
vt 0.591599 0.562939
vt 0.646405 0.561773
vt 0.607091 0.533121
vt 0.585475 0.591458
vt 0.650607 0.580919
vt 0.618554 0.519668
vt 0.578154 0.608009
vt 0.646665 0.601496
vt 0.638983 0.622219
vt 0.555866 0.614233
vt 0.545060 0.621859
vt 0.634670 0.639854
vt 0.534015 0.644930
vt 0.633691 0.661334
vt 0.536660 0.670693
vt 0.639993 0.676808
vt 0.549611 0.680674
vt 0.650179 0.691104
vt 0.566655 0.684188
vt 0.583251 0.692442
vt 0.663284 0.711014
vt 0.593152 0.705355
vt 0.600248 0.729637
vt 0.656022 0.733464
vt 0.647992 0.749624
vt 0.602082 0.754555
vt 0.645267 0.777763
vt 0.603218 0.770923
vt 0.616296 0.785374
vt 0.629833 0.786495
vn -0.0000 1.0000 0.0000
vn -0.5791 0.0000 0.8153
vn -0.9167 0.0000 0.3995
vn -0.3644 0.0000 -0.9312
vn -0.8825 0.0000 -0.4704
vn 0.9998 0.0000 0.0175
vn 0.9362 0.0000 -0.3515
vn -0.8309 0.0000 -0.5564
vn -0.5309 0.0000 -0.8474
vn -0.8279 0.0000 -0.5609
vn -0.9763 0.0000 0.2166
vn 0.7946 0.0000 -0.6072
vn 0.1667 0.0000 -0.9860
vn -0.0385 0.0000 0.9993
vn 0.7363 0.0000 0.6767
vn 0.9757 0.0000 0.2192
vn 0.8049 0.0000 0.5934
vn 0.9241 0.0000 -0.3822
vn -0.9718 0.0000 -0.2356
vn -0.7152 0.0000 0.6990
vn 0.9876 0.0000 0.1568
vn 0.8766 0.0000 -0.4813
vn -0.8162 0.0000 0.5778
vn -0.3283 0.0000 -0.9446
vn -0.3356 0.0000 0.9420
vn 0.9355 0.0000 -0.3532
vn -0.9165 0.0000 0.4000
vn 0.7336 0.0000 0.6796
vn 0.9127 0.0000 0.4086
vn -0.6732 0.0000 0.7395
vn -0.9951 0.0000 -0.0991
vn -0.9956 -0.0000 -0.0935
vn 0.9819 0.0000 -0.1894
vn -0.2491 0.0000 -0.9685
vn 0.0000 -1.0000 -0.0000
s 1
f 1/1/1 2/2/1 3/3/1
f 4/4/1 2/2/1 1/1/1
f 5/5/1 2/2/1 4/4/1
f 5/5/1 6/6/1 2/2/1
f 7/7/1 6/6/1 5/5/1
f 7/7/1 8/8/1 6/6/1
f 7/7/1 9/9/1 8/8/1
f 10/10/1 9/9/1 7/7/1
f 11/11/1 9/9/1 10/10/1
f 11/11/1 12/12/1 9/9/1
f 13/13/1 12/12/1 11/11/1
f 14/14/1 12/12/1 13/13/1
f 14/14/1 15/15/1 12/12/1
f 16/16/1 15/15/1 14/14/1
f 16/16/1 17/17/1 15/15/1
f 18/18/1 17/17/1 16/16/1
f 18/18/1 19/19/1 17/17/1
f 20/20/1 19/19/1 18/18/1
f 20/20/1 21/21/1 19/19/1
f 22/22/1 21/21/1 20/20/1
f 23/23/1 21/21/1 22/22/1
f 23/23/1 24/24/1 21/21/1
f 23/23/1 25/25/1 24/24/1
f 26/26/1 25/25/1 23/23/1
f 27/27/2 26/28/3 23/29/2
f 26/26/1 28/30/1 25/25/1
f 29/31/1 28/30/1 26/26/1
f 30/32/4 4/33/5 1/34/4
f 31/35/6 24/36/7 25/37/6
f 32/38/8 11/39/9 10/40/8
f 33/41/10 18/42/11 16/43/10
f 34/44/12 3/45/13 2/46/12
f 35/47/14 36/48/15 37/49/14
f 38/50/16 15/51/17 17/52/16
f 39/53/7 21/54/18 24/36/7
f 40/55/19 10/40/8 7/56/19
f 41/57/20 37/49/14 42/58/20
f 43/59/13 1/34/4 3/45/13
f 44/60/21 8/61/22 9/62/21
f 45/63/23 42/58/20 46/64/23
f 47/65/24 16/43/10 14/66/24
f 48/67/25 23/29/2 22/68/25
f 49/69/22 6/70/26 8/61/22
f 50/71/27 46/64/23 29/72/27
f 51/73/17 12/74/28 15/51/17
f 52/75/15 28/76/29 36/48/15
f 53/77/30 22/68/25 20/78/30
f 54/79/31 7/56/19 5/80/32
f 55/81/18 19/82/33 21/54/18
f 56/83/26 2/46/12 6/70/26
f 57/84/3 29/72/27 26/28/3
f 58/85/34 14/66/24 13/86/34
f 29/31/1 36/87/1 28/30/1
f 46/88/1 36/87/1 29/31/1
f 59/89/29 25/37/6 28/76/29
f 60/90/11 20/78/30 18/42/11
f 61/91/9 13/86/34 11/39/9
f 62/92/33 17/52/16 19/82/33
f 63/93/5 5/80/32 4/33/5
f 64/94/28 9/62/21 12/74/28
f 35/95/35 41/96/35 52/97/35
f 41/96/35 45/98/35 52/97/35
f 45/98/35 50/99/35 52/97/35
f 50/99/35 59/100/35 52/97/35
f 42/101/1 36/87/1 46/88/1
f 50/99/35 57/102/35 59/100/35
f 57/102/35 31/103/35 59/100/35
f 37/104/1 36/87/1 42/101/1
f 57/102/35 27/105/35 31/103/35
f 27/105/35 39/106/35 31/103/35
f 27/105/35 55/107/35 39/106/35
f 27/105/35 48/108/35 55/107/35
f 48/108/35 53/109/35 55/107/35
f 53/109/35 62/110/35 55/107/35
f 53/109/35 60/111/35 62/110/35
f 60/111/35 38/112/35 62/110/35
f 60/111/35 33/113/35 38/112/35
f 33/113/35 51/114/35 38/112/35
f 33/113/35 47/115/35 51/114/35
f 47/115/35 64/116/35 51/114/35
f 47/115/35 58/117/35 64/116/35
f 58/117/35 61/118/35 64/116/35
f 61/118/35 44/119/35 64/116/35
f 61/118/35 32/120/35 44/119/35
f 32/120/35 40/121/35 44/119/35
f 40/121/35 49/122/35 44/119/35
f 40/121/35 56/123/35 49/122/35
f 40/121/35 54/124/35 56/123/35
f 54/124/35 34/125/35 56/123/35
f 54/124/35 63/126/35 34/125/35
f 63/126/35 30/127/35 34/125/35
f 30/127/35 43/128/35 34/125/35
f 27/27/2 57/84/3 26/28/3
f 30/32/4 63/93/5 4/33/5
f 31/35/6 39/53/7 24/36/7
f 32/38/8 61/91/9 11/39/9
f 33/41/10 60/90/11 18/42/11
f 34/44/12 43/59/13 3/45/13
f 35/47/14 52/75/15 36/48/15
f 38/50/16 51/73/17 15/51/17
f 39/53/7 55/81/18 21/54/18
f 40/55/19 32/38/8 10/40/8
f 41/57/20 35/47/14 37/49/14
f 43/59/13 30/32/4 1/34/4
f 44/60/21 49/69/22 8/61/22
f 45/63/23 41/57/20 42/58/20
f 47/65/24 33/41/10 16/43/10
f 48/67/25 27/27/2 23/29/2
f 49/69/22 56/83/26 6/70/26
f 50/71/27 45/63/23 46/64/23
f 51/73/17 64/94/28 12/74/28
f 52/75/15 59/89/29 28/76/29
f 53/77/30 48/67/25 22/68/25
f 54/79/31 40/55/19 7/56/19
f 55/81/18 62/92/33 19/82/33
f 56/83/26 34/44/12 2/46/12
f 57/84/3 50/71/27 29/72/27
f 58/85/34 47/65/24 14/66/24
f 59/89/29 31/35/6 25/37/6
f 60/90/11 53/77/30 20/78/30
f 61/91/9 58/85/34 13/86/34
f 62/92/33 38/50/16 17/52/16
f 63/93/5 54/79/31 5/80/32
f 64/94/28 44/60/21 9/62/21
