# Blender v2.82 (sub 7) OBJ File: 'Obstacals ALL.blend'
# www.blender.org
o Debris5_path858
v 0.370743 -0.038629 0.794572
v 0.363351 -0.038629 0.726399
v 0.346107 -0.038629 0.654737
v 0.239279 -0.038629 0.385226
v 0.228191 -0.038629 0.146358
v -0.016096 0.044148 1.130873
v -0.064408 0.044148 0.964943
v 0.519891 -0.038629 -0.131631
v -0.090283 0.044148 0.912004
v 0.832282 -0.038629 -0.339862
v -0.142378 0.044148 0.865768
v 0.903092 -0.038629 -0.405350
v -0.347844 0.044148 0.746105
v 0.951354 -0.038629 -0.471845
v -0.373285 0.044148 0.704701
v -0.390183 0.044148 0.649317
v -0.398817 0.044148 0.579044
v -0.353671 0.044148 -0.136006
v -0.357425 0.044148 -0.186030
v -0.370764 0.044148 -0.246341
v -0.457962 0.044148 -0.421864
v -0.775649 0.044148 -0.811547
v -0.810642 0.044148 -0.872744
v -0.829395 0.044148 -0.925575
v 0.990152 -0.038629 -0.583101
v -0.832779 0.044148 -0.971565
v 1.000153 -0.038629 -0.678402
v 0.974930 -0.038629 -0.749412
v -0.814065 0.044148 -1.028314
v 0.934177 -0.038629 -0.789639
v 0.872208 -0.038629 -0.827044
v 0.827675 -0.038629 -0.835720
v -0.744462 0.044148 -1.077910
v 0.777874 -0.038629 -0.831515
v -0.676591 0.044148 -1.091278
v 0.720498 -0.038629 -0.814538
v 0.427212 -0.038629 -0.685209
v 0.345911 -0.038629 -0.677788
v 0.285154 -0.038629 -0.691493
v -0.621188 0.044148 -1.089510
v 0.216348 -0.038629 -0.727641
v 0.181368 -0.038629 -0.761541
v 0.001535 -0.038629 -0.998637
v -0.531430 0.044148 -1.118500
v -0.221795 0.044148 -1.115538
v -0.143839 0.044148 -1.099162
v -0.052071 -0.038629 -1.050838
v -0.143839 -0.038629 -1.099162
v -0.052071 0.044148 -1.050838
v 0.001535 0.044148 -0.998637
v 0.181368 0.044148 -0.761541
v 0.216348 0.044148 -0.727641
v -0.221795 -0.038629 -1.115538
v 0.285154 0.044148 -0.691493
v 0.345911 0.044148 -0.677788
v -0.531430 -0.038629 -1.118500
v 0.427212 0.044148 -0.685209
v 0.720498 0.044148 -0.814538
v 0.777874 0.044148 -0.831515
v -0.621188 -0.038629 -1.089510
v 0.827675 0.044148 -0.835720
v -0.676591 -0.038629 -1.091278
v 0.872208 0.044148 -0.827044
v -0.744462 -0.038629 -1.077910
v 0.934177 0.044148 -0.789639
v 0.974930 0.044148 -0.749412
v -0.814065 -0.038629 -1.028314
v -0.832779 -0.038629 -0.971565
v -0.829395 -0.038629 -0.925575
v -0.810642 -0.038629 -0.872744
v 1.000153 0.044148 -0.678402
v 0.990152 0.044148 -0.583101
v -0.775649 -0.038629 -0.811547
v 0.951354 0.044148 -0.471845
v 0.903092 0.044148 -0.405350
v 0.832282 0.044148 -0.339862
v 0.519891 0.044148 -0.131631
v 0.228191 0.044148 0.146358
v -0.457962 -0.038629 -0.421864
v 0.239279 0.044148 0.385226
v 0.346107 0.044148 0.654737
v 0.363351 0.044148 0.726399
v 0.370743 0.044148 0.794572
v 0.364776 0.044148 0.898342
v 0.334911 0.044148 1.027831
v 0.314794 0.044148 1.078314
v -0.370764 -0.038629 -0.246341
v 0.264555 0.044148 1.151419
v -0.357425 -0.038629 -0.186030
v -0.353671 -0.038629 -0.136006
v -0.398817 -0.038629 0.579044
v 0.206780 0.044148 1.184919
v 0.142585 0.044148 1.193926
v 0.068993 0.044148 1.193109
v -0.390183 -0.038629 0.649317
v -0.373285 -0.038629 0.704701
v -0.347844 -0.038629 0.746105
v -0.142378 -0.038629 0.865768
v -0.090283 -0.038629 0.912004
v 0.022290 0.044148 1.185713
v -0.064408 -0.038629 0.964943
v -0.016096 -0.038629 1.130873
v 0.364776 -0.038629 0.898342
v 0.334911 -0.038629 1.027831
v 0.314794 -0.038629 1.078314
v 0.264555 -0.038629 1.151419
v 0.206780 -0.038629 1.184919
v 0.142585 -0.038629 1.193926
v 0.068993 -0.038629 1.193109
v 0.022290 -0.038629 1.185713
vt 0.544099 0.292268
vt 0.542859 0.299855
vt 0.542859 0.299855
vt 0.508106 0.404468
vt 0.514418 0.406149
vt 0.514418 0.406149
vt 0.534749 0.321936
vt 0.534749 0.321936
vt 0.519570 0.405927
vt 0.519570 0.405927
vt 0.556712 0.409201
vt 0.563962 0.407141
vt 0.563962 0.407141
vt 0.661322 0.319859
vt 0.654737 0.311620
vt 0.654737 0.311620
vt 0.575841 0.126600
vt 0.571348 0.147474
vt 0.571348 0.147474
vt 0.527917 0.409574
vt 0.527917 0.409574
vt 0.505206 0.370959
vt 0.501952 0.378657
vt 0.501952 0.378657
vt 0.665811 0.328224
vt 0.661322 0.319859
vt 0.540250 0.196021
vt 0.564098 0.159950
vt 0.599590 0.220403
vt 0.611128 0.177483
vt 0.568942 0.154134
vt 0.609525 0.186499
vt 0.572496 0.401062
vt 0.572496 0.401062
vt 0.544448 0.285975
vt 0.544099 0.292268
vt 0.501633 0.398228
vt 0.508106 0.404468
vt 0.625686 0.285425
vt 0.625686 0.285425
vt 0.499893 0.391089
vt 0.501633 0.398228
vt 0.598559 0.250453
vt 0.598559 0.250453
vt 0.644342 0.371335
vt 0.649678 0.373471
vt 0.649678 0.373471
vt 0.500208 0.385304
vt 0.499893 0.391089
vt 0.654309 0.374000
vt 0.654309 0.374000
vt 0.577481 0.394495
vt 0.594205 0.364668
vt 0.594205 0.364668
vt 0.658450 0.372908
vt 0.658450 0.372908
vt 0.544448 0.285975
vt 0.664213 0.368203
vt 0.668003 0.363142
vt 0.668003 0.363142
vt 0.664213 0.368203
vt 0.541053 0.187180
vt 0.540250 0.196021
vt 0.597457 0.360403
vt 0.597457 0.360403
vt 0.670349 0.354209
vt 0.670349 0.354209
vt 0.609525 0.186499
vt 0.603857 0.355856
vt 0.603857 0.355856
vt 0.542624 0.180213
vt 0.541053 0.187180
vt 0.609507 0.354132
vt 0.617067 0.355065
vt 0.617067 0.355065
vt 0.611128 0.177483
vt 0.669419 0.342220
vt 0.665811 0.328224
vt 0.596568 0.119801
vt 0.590598 0.118668
vt 0.590598 0.118668
vt 0.599590 0.220403
vt 0.583754 0.118771
vt 0.583754 0.118771
vt 0.544990 0.175004
vt 0.542624 0.180213
vt 0.544990 0.175004
vt 0.611816 0.168907
vt 0.611816 0.168907
vt 0.644342 0.371335
vt 0.568942 0.154134
vt 0.564098 0.159950
vt 0.611261 0.155853
vt 0.611261 0.155853
vt 0.609507 0.354132
vt 0.577481 0.394495
vt 0.606613 0.133212
vt 0.601941 0.124015
vt 0.601941 0.124015
vt 0.579411 0.119701
vt 0.575841 0.126600
vt 0.596568 0.119801
vt 0.669419 0.342220
vt 0.579411 0.119701
vt 0.608483 0.139563
vt 0.608483 0.139563
vt 0.606613 0.133212
vt 0.505206 0.370959
vt 0.500208 0.385304
vt 0.556712 0.409201
vn -0.9764 0.0000 0.2160
vn -0.1932 0.0000 -0.9811
vn -0.8956 0.0000 0.4449
vn 0.0319 0.0000 -0.9995
vn 0.2056 0.0000 -0.9786
vn 0.6790 0.0000 0.7342
vn -0.9601 0.0000 0.2795
vn -0.3073 0.0000 -0.9516
vn -0.8681 0.0000 0.4964
vn 0.8093 0.0000 0.5874
vn 0.0000 1.0000 0.0000
vn 0.0000 -1.0000 0.0000
vn 0.4659 0.0000 -0.8848
vn -0.9972 0.0000 0.0748
vn -0.5803 0.0000 -0.8144
vn 0.5546 0.0000 0.8321
vn -0.9497 0.0000 -0.3132
vn 0.6899 0.0000 0.7239
vn -0.2837 0.0000 -0.9589
vn -0.9973 0.0000 0.0734
vn -0.0841 0.0000 -0.9965
vn 0.7967 0.0000 -0.6043
vn 0.1912 0.0000 -0.9815
vn -0.9980 0.0000 -0.0630
vn 0.7025 0.0000 -0.7117
vn 0.5168 0.0000 -0.8561
vn -0.9925 0.0000 0.1219
vn 0.6959 0.0000 -0.7181
vn 0.9423 0.0000 -0.3347
vn 0.9296 0.0000 -0.3685
vn 0.4651 0.0000 -0.8853
vn -0.9565 0.0000 0.2918
vn -0.0909 0.0000 -0.9959
vn 0.9722 0.0000 -0.2339
vn 0.9442 0.0000 0.3293
vn 0.1389 0.0000 0.9903
vn 0.9989 0.0000 -0.0464
vn -0.0111 0.0000 0.9999
vn -0.8520 0.0000 0.5235
vn -0.5033 0.0000 0.8641
vn 0.9942 0.0000 -0.1078
vn -0.4035 0.0000 -0.9150
vn -0.6638 0.0000 0.7479
vn -0.8984 0.0000 0.4391
vn 0.9984 0.0000 0.0574
vn 0.2200 0.0000 -0.9755
vn 0.6977 0.0000 -0.7164
vn 0.8242 0.0000 0.5664
vn -0.8192 0.0000 0.5734
vn 0.5016 0.0000 0.8651
vn 0.9945 0.0000 0.1044
vn -0.1564 0.0000 0.9877
vn 0.9744 0.0000 0.2247
vn 0.9290 0.0000 0.3702
vn -0.7751 0.0000 0.6319
vn -0.9424 0.0000 0.3345
vn 0.0096 0.0000 -1.0000
s off
f 19/1/1 20/2/1 87/3/1
f 33/4/2 35/5/2 62/6/2
f 20/2/3 21/7/3 79/8/3
f 35/5/4 40/9/4 60/10/4
f 45/11/5 46/12/5 48/13/5
f 75/14/6 76/15/6 10/16/6
f 6/17/7 7/18/7 101/19/7
f 40/9/8 44/20/8 56/21/8
f 22/22/9 23/23/9 70/24/9
f 74/25/10 75/14/10 12/26/10
f 17/27/11 11/28/11 80/29/11
f 2/30/12 99/31/12 3/32/12
f 46/12/13 49/33/13 47/34/13
f 18/35/14 19/1/14 89/36/14
f 29/37/15 33/4/15 64/38/15
f 76/15/16 77/39/16 8/40/16
f 26/41/17 29/37/17 67/42/17
f 77/39/18 78/43/18 5/44/18
f 58/45/19 59/46/19 34/47/19
f 24/48/20 26/41/20 68/49/20
f 59/46/21 61/50/21 32/51/21
f 50/52/22 51/53/22 42/54/22
f 61/50/23 63/55/23 31/56/23
f 17/27/24 18/35/24 90/57/24
f 65/58/25 66/59/25 28/60/25
f 63/55/26 65/58/26 30/61/26
f 16/62/27 17/27/27 91/63/27
f 51/53/28 52/64/28 41/65/28
f 66/59/29 71/66/29 27/67/29
f 80/29/30 81/68/30 3/32/30
f 52/64/31 54/69/31 39/70/31
f 15/71/32 16/62/32 95/72/32
f 55/73/33 57/74/33 37/75/33
f 81/68/34 82/76/34 2/30/34
f 72/77/35 74/25/35 14/78/35
f 92/79/36 93/80/36 108/81/36
f 78/43/37 80/29/37 4/82/37
f 93/80/38 94/83/38 109/84/38
f 13/85/39 15/71/39 96/86/39
f 11/28/40 13/85/40 97/87/40
f 82/76/41 83/88/41 1/89/41
f 57/74/42 58/45/42 36/90/42
f 9/91/43 11/28/43 98/92/43
f 7/18/44 9/91/44 99/31/44
f 83/88/45 84/93/45 103/94/45
f 54/69/46 55/73/46 38/95/46
f 49/33/47 50/52/47 43/96/47
f 86/97/48 88/98/48 106/99/48
f 100/100/49 6/17/49 102/101/49
f 88/98/50 92/79/50 107/102/50
f 71/66/51 72/77/51 25/103/51
f 94/83/52 100/100/52 110/104/52
f 84/93/53 85/105/53 104/106/53
f 85/105/54 86/97/54 105/107/54
f 21/7/55 22/22/55 73/108/55
f 23/23/56 24/48/56 69/109/56
f 44/20/57 45/11/57 53/110/57
f 19/1/1 87/3/1 89/36/1
f 33/4/2 62/6/2 64/38/2
f 20/2/3 79/8/3 87/3/3
f 35/5/4 60/10/4 62/6/4
f 45/11/5 48/13/5 53/110/5
f 75/14/6 10/16/6 12/26/6
f 6/17/7 101/19/7 102/101/7
f 40/9/8 56/21/8 60/10/8
f 22/22/9 70/24/9 73/108/9
f 74/25/10 12/26/10 14/78/10
f 26/41/11 33/4/11 29/37/11
f 33/4/11 23/23/11 35/5/11
f 35/5/11 23/23/11 40/9/11
f 33/4/11 24/48/11 23/23/11
f 40/9/11 22/22/11 44/20/11
f 44/20/11 21/7/11 45/11/11
f 22/22/11 21/7/11 44/20/11
f 45/11/11 50/52/11 46/12/11
f 46/12/11 50/52/11 49/33/11
f 50/52/11 21/7/11 51/53/11
f 50/52/11 45/11/11 21/7/11
f 24/48/11 33/4/11 26/41/11
f 22/22/11 40/9/11 23/23/11
f 51/53/11 20/2/11 52/64/11
f 21/7/11 20/2/11 51/53/11
f 52/64/11 20/2/11 54/69/11
f 20/2/11 19/1/11 54/69/11
f 54/69/11 77/39/11 55/73/11
f 19/1/11 78/43/11 54/69/11
f 57/74/11 76/15/11 58/45/11
f 58/45/11 72/77/11 59/46/11
f 74/25/11 72/77/11 58/45/11
f 54/69/11 78/43/11 77/39/11
f 55/73/11 77/39/11 57/74/11
f 16/62/11 11/28/11 17/27/11
f 17/27/11 78/43/11 18/35/11
f 18/35/11 78/43/11 19/1/11
f 58/45/11 75/14/11 74/25/11
f 59/46/11 65/58/11 61/50/11
f 61/50/11 65/58/11 63/55/11
f 65/58/11 71/66/11 66/59/11
f 71/66/11 65/58/11 72/77/11
f 65/58/11 59/46/11 72/77/11
f 75/14/11 58/45/11 76/15/11
f 76/15/11 57/74/11 77/39/11
f 17/27/11 80/29/11 78/43/11
f 13/85/11 16/62/11 15/71/11
f 11/28/11 16/62/11 13/85/11
f 100/100/11 94/83/11 6/17/11
f 6/17/11 93/80/11 7/18/11
f 93/80/11 86/97/11 7/18/11
f 93/80/11 6/17/11 94/83/11
f 88/98/11 93/80/11 92/79/11
f 85/105/11 7/18/11 86/97/11
f 86/97/11 93/80/11 88/98/11
f 83/88/11 9/91/11 84/93/11
f 84/93/11 7/18/11 85/105/11
f 9/91/11 7/18/11 84/93/11
f 81/68/11 9/91/11 82/76/11
f 82/76/11 9/91/11 83/88/11
f 80/29/11 11/28/11 81/68/11
f 11/28/11 9/91/11 81/68/11
f 64/38/12 68/49/12 67/42/12
f 68/49/12 64/38/12 69/109/12
f 69/109/12 64/38/12 70/24/12
f 64/38/12 62/6/12 70/24/12
f 70/24/12 60/10/12 73/108/12
f 73/108/12 56/21/12 79/8/12
f 60/10/12 56/21/12 73/108/12
f 53/110/12 79/8/12 56/21/12
f 60/10/12 70/24/12 62/6/12
f 48/13/12 43/96/12 53/110/12
f 43/96/12 48/13/12 47/34/12
f 42/54/12 79/8/12 43/96/12
f 79/8/12 53/110/12 43/96/12
f 79/8/12 42/54/12 87/3/12
f 42/54/12 41/65/12 87/3/12
f 87/3/12 39/70/12 89/36/12
f 41/65/12 39/70/12 87/3/12
f 90/57/12 5/44/12 91/63/12
f 91/63/12 98/92/12 95/72/12
f 4/82/12 98/92/12 91/63/12
f 89/36/12 5/44/12 90/57/12
f 39/70/12 5/44/12 89/36/12
f 91/63/12 5/44/12 4/82/12
f 95/72/12 97/87/12 96/86/12
f 97/87/12 95/72/12 98/92/12
f 38/95/12 8/40/12 39/70/12
f 8/40/12 5/44/12 39/70/12
f 34/47/12 25/103/12 36/90/12
f 36/90/12 10/16/12 37/75/12
f 12/26/12 10/16/12 36/90/12
f 37/75/12 8/40/12 38/95/12
f 98/92/12 3/32/12 99/31/12
f 4/82/12 3/32/12 98/92/12
f 101/19/12 108/81/12 102/101/12
f 102/101/12 109/84/12 110/104/12
f 101/19/12 105/107/12 108/81/12
f 99/31/12 1/89/12 101/19/12
f 36/90/12 14/78/12 12/26/12
f 31/56/12 34/47/12 32/51/12
f 28/60/12 27/67/12 30/61/12
f 30/61/12 34/47/12 31/56/12
f 25/103/12 34/47/12 30/61/12
f 25/103/12 30/61/12 27/67/12
f 14/78/12 36/90/12 25/103/12
f 8/40/12 37/75/12 10/16/12
f 105/107/12 106/99/12 108/81/12
f 109/84/12 102/101/12 108/81/12
f 108/81/12 106/99/12 107/102/12
f 105/107/12 101/19/12 104/106/12
f 104/106/12 101/19/12 103/94/12
f 103/94/12 101/19/12 1/89/12
f 1/89/12 99/31/12 2/30/12
f 46/12/13 47/34/13 48/13/13
f 18/35/14 89/36/14 90/57/14
f 29/37/15 64/38/15 67/42/15
f 76/15/16 8/40/16 10/16/16
f 26/41/17 67/42/17 68/49/17
f 77/39/18 5/44/18 8/40/18
f 58/45/19 34/47/19 36/90/19
f 24/48/20 68/49/20 69/109/20
f 59/46/21 32/51/21 34/47/21
f 50/52/22 42/54/22 43/96/22
f 61/50/23 31/56/23 32/51/23
f 17/27/24 90/57/24 91/63/24
f 65/58/25 28/60/25 30/61/25
f 63/55/26 30/61/26 31/56/26
f 16/62/27 91/63/27 95/72/27
f 51/53/28 41/65/28 42/54/28
f 66/59/29 27/67/29 28/60/29
f 80/29/30 3/32/30 4/82/30
f 52/64/31 39/70/31 41/65/31
f 15/71/32 95/72/32 96/86/32
f 55/73/33 37/75/33 38/95/33
f 81/68/34 2/30/34 3/32/34
f 72/77/35 14/78/35 25/103/35
f 92/79/36 108/81/36 107/102/36
f 78/43/37 4/82/37 5/44/37
f 93/80/38 109/84/38 108/81/38
f 13/85/39 96/86/39 97/87/39
f 11/28/40 97/87/40 98/92/40
f 82/76/41 1/89/41 2/30/41
f 57/74/42 36/90/42 37/75/42
f 9/91/43 98/92/43 99/31/43
f 7/18/44 99/31/44 101/19/44
f 83/88/45 103/94/45 1/89/45
f 54/69/46 38/95/46 39/70/46
f 49/33/47 43/96/47 47/34/47
f 86/97/48 106/99/48 105/107/48
f 100/100/49 102/101/49 110/104/49
f 88/98/50 107/102/50 106/99/50
f 71/66/51 25/103/51 27/67/51
f 94/83/52 110/104/52 109/84/52
f 84/93/53 104/106/53 103/94/53
f 85/105/54 105/107/54 104/106/54
f 21/7/55 73/108/55 79/8/55
f 23/23/56 69/109/56 70/24/56
f 44/20/57 53/110/57 56/21/57
