# Blender v2.82 (sub 7) OBJ File: ''
# www.blender.org
o GasCloud2_Mesh2_Model.002
v 4.093556 0.001044 1.999039
v -4.010429 0.001044 2.266813
v 4.192509 0.001044 -1.517364
v 0.483397 0.001045 -4.823345
v 1.416718 0.001045 -4.546512
v 2.049478 0.001045 -4.182675
v 2.611053 0.001045 -3.723924
v 3.061894 0.001045 -3.360087
v 3.536464 0.001044 -2.774784
v -0.260095 0.001045 -4.878711
v -1.003554 0.001046 -4.806177
v -1.743883 0.001045 -4.589773
v -2.837292 0.001045 -4.111406
v -3.383997 0.001045 -3.633040
v -4.443236 0.001045 -1.571509
v -3.850974 0.001045 -3.074946
v -4.204053 0.001045 -2.437124
v -4.534354 0.001045 0.945610
v -4.602692 0.001045 -0.022512
v -4.317951 0.001044 1.628991
v -3.178983 0.001044 3.417170
v -3.668739 0.001045 2.870466
v -1.719533 0.001044 4.405678
v -2.598109 0.001044 3.895536
v -0.444180 0.001044 4.717431
v 3.778654 0.001044 2.648525
v 0.292690 0.001044 4.745771
v 1.738089 0.001044 4.490701
v 1.057901 0.001044 4.717430
v 2.956760 0.001043 3.697148
v 2.418278 0.001043 4.150607
v 4.506865 0.001044 0.286761
v 4.447820 0.001044 0.995290
v 4.424859 0.001044 -0.847651
v 4.093556 0.001044 1.999039
v 4.192509 0.001044 -1.517364
v -4.010429 0.001044 2.266813
v 0.483397 0.001045 -4.823345
v 2.049478 0.001045 -4.182675
v 1.416718 0.001045 -4.546512
v 2.611053 0.001045 -3.723924
v 3.536464 0.001044 -2.774784
v 3.061894 0.001045 -3.360087
v -0.260095 0.001045 -4.878711
v -1.003554 0.001046 -4.806177
v -1.743883 0.001045 -4.589773
v -2.837292 0.001045 -4.111406
v -3.383997 0.001045 -3.633040
v -3.850974 0.001045 -3.074946
v -4.443236 0.001045 -1.571509
v -4.204053 0.001045 -2.437124
v -4.534354 0.001045 0.945610
v -4.317951 0.001044 1.628991
v -4.602692 0.001045 -0.022512
v -3.178983 0.001044 3.417170
v -3.668739 0.001045 2.870466
v -1.719533 0.001044 4.405678
v -0.444180 0.001044 4.717431
v -2.598109 0.001044 3.895536
v 3.778654 0.001044 2.648525
v 0.292690 0.001044 4.745771
v 1.738089 0.001044 4.490701
v 1.057901 0.001044 4.717430
v 2.956760 0.001043 3.697148
v 2.418278 0.001043 4.150607
v 4.506865 0.001044 0.286761
v 4.447820 0.001044 0.995290
v 4.424859 0.001044 -0.847651
v 4.093556 0.001044 1.999039
v 4.192509 0.001044 -1.517364
v -4.010429 0.001044 2.266813
v 0.483397 0.001045 -4.823345
v 2.049478 0.001045 -4.182675
v 1.416718 0.001045 -4.546512
v 2.611053 0.001045 -3.723924
v 3.536464 0.001044 -2.774784
v 3.061894 0.001045 -3.360087
v -0.260095 0.001045 -4.878711
v -1.003554 0.001046 -4.806177
v -1.743883 0.001045 -4.589773
v -2.837292 0.001045 -4.111406
v -3.383997 0.001045 -3.633040
v -3.850974 0.001045 -3.074946
v -4.443236 0.001045 -1.571509
v -4.204053 0.001045 -2.437124
v -4.534354 0.001045 0.945610
v -4.317951 0.001044 1.628991
v -4.602692 0.001045 -0.022512
v -3.178983 0.001044 3.417170
v -3.668739 0.001045 2.870466
v -1.719533 0.001044 4.405678
v -0.444180 0.001044 4.717431
v -2.598109 0.001044 3.895536
v 3.778654 0.001044 2.648525
v 0.292690 0.001044 4.745771
v 1.738089 0.001044 4.490701
v 1.057901 0.001044 4.717430
v 2.956760 0.001043 3.697148
v 2.418278 0.001043 4.150607
v 4.506865 0.001044 0.286761
v 4.447820 0.001044 0.995290
v 4.424859 0.001044 -0.847651
v 4.093556 0.001044 1.999039
v 4.192509 0.001044 -1.517364
v -4.010429 0.001044 2.266813
v 0.483397 0.001045 -4.823345
v 2.049478 0.001045 -4.182675
v 1.416718 0.001045 -4.546512
v 2.611053 0.001045 -3.723924
v 3.536464 0.001044 -2.774784
v 3.061894 0.001045 -3.360087
v -0.260095 0.001045 -4.878711
v -1.003554 0.001046 -4.806177
v -1.743883 0.001045 -4.589773
v -2.837292 0.001045 -4.111406
v -3.383997 0.001045 -3.633040
v -3.850974 0.001045 -3.074946
v -4.443236 0.001045 -1.571509
v -4.204053 0.001045 -2.437124
v -4.534354 0.001045 0.945610
v -4.317951 0.001044 1.628991
v -4.602692 0.001045 -0.022512
v -3.178983 0.001044 3.417170
v -3.668739 0.001045 2.870466
v -1.719533 0.001044 4.405678
v -0.444180 0.001044 4.717431
v -2.598109 0.001044 3.895536
v 3.778654 0.001044 2.648525
v 0.292690 0.001044 4.745771
v 1.738089 0.001044 4.490701
v 1.057901 0.001044 4.717430
v 2.956760 0.001043 3.697148
v 2.418278 0.001043 4.150607
v 4.506865 0.001044 0.286761
v 4.447820 0.001044 0.995290
v 4.424859 0.001044 -0.847651
vn -0.0000 -1.0000 -0.0000
vn 0.0000 1.0000 0.0000
s off
f 1//1 2//1 3//1
f 4//1 5//1 6//1
f 7//1 8//1 9//1
f 4//1 6//1 10//1
f 6//1 7//1 10//1
f 11//1 10//1 12//1
f 13//1 12//1 14//1
f 14//1 15//1 16//1
f 15//1 17//1 16//1
f 18//1 19//1 20//1
f 19//1 15//1 7//1
f 2//1 20//1 19//1
f 21//1 22//1 2//1
f 23//1 24//1 25//1
f 24//1 21//1 2//1
f 25//1 1//1 26//1
f 27//1 25//1 26//1
f 28//1 29//1 27//1
f 30//1 31//1 28//1
f 26//1 30//1 27//1
f 32//1 33//1 1//1
f 3//1 34//1 32//1
f 7//1 9//1 19//1
f 9//1 3//1 19//1
f 10//1 7//1 12//1
f 14//1 12//1 15//1
f 15//1 12//1 7//1
f 25//1 24//1 1//1
f 1//1 24//1 2//1
f 30//1 28//1 27//1
f 32//1 1//1 3//1
f 19//1 3//1 2//1
f 35//2 36//2 37//2
f 38//2 39//2 40//2
f 41//2 42//2 43//2
f 38//2 44//2 39//2
f 39//2 44//2 41//2
f 45//2 46//2 44//2
f 47//2 48//2 46//2
f 48//2 49//2 50//2
f 50//2 49//2 51//2
f 52//2 53//2 54//2
f 54//2 41//2 50//2
f 37//2 54//2 53//2
f 55//2 37//2 56//2
f 57//2 58//2 59//2
f 59//2 37//2 55//2
f 58//2 60//2 35//2
f 61//2 60//2 58//2
f 62//2 61//2 63//2
f 64//2 62//2 65//2
f 60//2 61//2 64//2
f 66//2 35//2 67//2
f 36//2 66//2 68//2
f 41//2 54//2 42//2
f 42//2 54//2 36//2
f 44//2 46//2 41//2
f 48//2 50//2 46//2
f 50//2 41//2 46//2
f 58//2 35//2 59//2
f 35//2 37//2 59//2
f 64//2 61//2 62//2
f 66//2 36//2 35//2
f 54//2 37//2 36//2
f 69//2 70//2 71//2
f 72//2 73//2 74//2
f 75//2 76//2 77//2
f 72//2 78//2 73//2
f 73//2 78//2 75//2
f 79//2 80//2 78//2
f 81//2 82//2 80//2
f 82//2 83//2 84//2
f 84//2 83//2 85//2
f 86//2 87//2 88//2
f 88//2 75//2 84//2
f 71//2 88//2 87//2
f 89//2 71//2 90//2
f 91//2 92//2 93//2
f 93//2 71//2 89//2
f 92//2 94//2 69//2
f 95//2 94//2 92//2
f 96//2 95//2 97//2
f 98//2 96//2 99//2
f 94//2 95//2 98//2
f 100//2 69//2 101//2
f 70//2 100//2 102//2
f 75//2 88//2 76//2
f 76//2 88//2 70//2
f 78//2 80//2 75//2
f 82//2 84//2 80//2
f 84//2 75//2 80//2
f 92//2 69//2 93//2
f 69//2 71//2 93//2
f 98//2 95//2 96//2
f 100//2 70//2 69//2
f 88//2 71//2 70//2
f 103//2 104//2 105//2
f 106//2 107//2 108//2
f 109//2 110//2 111//2
f 106//2 112//2 107//2
f 107//2 112//2 109//2
f 113//2 114//2 112//2
f 115//2 116//2 114//2
f 116//2 117//2 118//2
f 118//2 117//2 119//2
f 120//2 121//2 122//2
f 122//2 109//2 118//2
f 105//2 122//2 121//2
f 123//2 105//2 124//2
f 125//2 126//2 127//2
f 127//2 105//2 123//2
f 126//2 128//2 103//2
f 129//2 128//2 126//2
f 130//2 129//2 131//2
f 132//2 130//2 133//2
f 128//2 129//2 132//2
f 134//2 103//2 135//2
f 104//2 134//2 136//2
f 109//2 122//2 110//2
f 110//2 122//2 104//2
f 112//2 114//2 109//2
f 116//2 118//2 114//2
f 118//2 109//2 114//2
f 126//2 103//2 127//2
f 103//2 105//2 127//2
f 132//2 129//2 130//2
f 134//2 104//2 103//2
f 122//2 105//2 104//2
