# Blender v2.82 (sub 7) OBJ File: ''
# www.blender.org
o GasCloud1_Mesh3_Model.001
v -0.247555 0.058370 -1.267767
v -0.310057 0.000000 -1.309675
v -0.310057 0.058370 -1.309675
v -0.339278 -0.000000 0.499711
v -0.346684 -0.000000 0.576457
v -0.339278 0.058371 0.499711
v 0.440240 0.058371 1.281686
v 0.449830 -0.000000 1.215844
v 0.449830 0.058371 1.215844
v -0.201000 0.058370 -1.248112
v -0.176393 0.000000 -1.242226
v -0.201000 0.000000 -1.248112
v -0.213442 0.058371 1.126707
v -0.243615 0.058371 1.062982
v -0.243615 -0.000000 1.062982
v 0.399119 0.000000 -0.629675
v 0.503974 0.058370 -0.372898
v 0.503974 0.000000 -0.372898
v -0.583135 0.058370 -1.263802
v -0.605665 0.000000 -1.234048
v -0.605665 0.058370 -1.234048
v -0.555948 0.058370 -1.289370
v -0.583135 0.000000 -1.263802
v -0.344106 0.000000 -1.324952
v -0.344106 0.058370 -1.324952
v 0.417720 0.058371 1.344291
v 0.440240 -0.000000 1.281686
v 0.448280 -0.000000 1.133069
v 0.332973 0.058370 -0.987695
v 0.320455 0.000000 -1.004921
v 0.320455 0.058370 -1.004921
v -0.380232 0.058370 -1.334321
v -0.417416 0.000000 -1.337513
v -0.417416 0.058370 -1.337513
v -0.622901 0.000000 -1.200946
v -0.622901 0.058370 -1.200946
v -0.341224 0.058371 0.430443
v -0.369650 0.058371 0.263272
v -0.369650 -0.000000 0.263272
v -0.334725 0.058371 0.779981
v -0.348151 -0.000000 0.653066
v -0.334725 -0.000000 0.779981
v 0.152293 0.000000 -1.146402
v 0.129350 0.058370 -1.160018
v 0.152293 0.058370 -1.146402
v -0.653231 0.000000 -0.607341
v -0.678109 0.058370 -0.856210
v -0.678109 0.000000 -0.856210
v 0.240033 -0.000000 1.506881
v 0.192873 0.058371 1.512619
v 0.192873 -0.000000 1.512619
v 0.538232 0.058371 0.956534
v 0.549052 -0.000000 0.934485
v 0.551972 0.058371 0.925087
v 0.311967 0.058371 1.470778
v 0.361811 -0.000000 1.426707
v 0.361811 0.058371 1.426707
v 0.571169 -0.000000 0.784860
v 0.161313 0.058371 1.509374
v -0.454610 0.058370 -1.334443
v -0.490765 0.000000 -1.325191
v -0.490765 0.058370 -1.325191
v -0.380232 0.000000 -1.334321
v 0.417720 -0.000000 1.344291
v 0.383176 0.058371 1.401150
v 0.383176 -0.000000 1.401150
v -0.454610 0.000000 -1.334443
v -0.127687 -0.000000 1.272239
v -0.046132 0.058371 1.368900
v -0.127687 0.058371 1.272239
v -0.270620 -0.000000 0.997845
v -0.270620 0.058371 0.997845
v 0.543632 0.058371 -0.201266
v 0.543632 0.000000 -0.201266
v -0.661763 0.058370 -1.043232
v -0.661763 0.000000 -1.043232
v 0.538232 -0.000000 0.956534
v 0.479112 0.058371 1.039480
v 0.479112 -0.000000 1.039480
v -0.071453 0.058370 -1.233048
v 0.010554 0.000000 -1.213830
v -0.071453 0.000000 -1.233048
v 0.465529 0.058371 1.069521
v 0.455212 0.058371 1.100838
v 0.465529 -0.000000 1.069521
v 0.042274 0.058370 -1.202393
v 0.082094 0.058370 -1.184777
v 0.042274 0.000000 -1.202393
v 0.354637 0.000000 -0.935453
v 0.399119 0.058370 -0.629675
v 0.311967 -0.000000 1.470778
v 0.269893 0.058371 1.496163
v 0.269894 -0.000000 1.496163
v -0.524865 0.000000 -1.310024
v -0.524865 0.058370 -1.310024
v 0.346047 0.058370 -0.962504
v 0.354637 0.058370 -0.935453
v -0.555948 0.000000 -1.289370
v 0.161313 -0.000000 1.509374
v 0.116306 0.058371 1.494164
v 0.116306 -0.000000 1.494164
v -0.393286 -0.000000 0.158630
v -0.653231 0.058370 -0.607341
v -0.046132 -0.000000 1.368900
v 0.259055 0.058370 -1.066694
v 0.240033 0.058371 1.506881
v -0.104957 0.000000 -1.236904
v -0.104957 0.058370 -1.236904
v -0.176393 0.058370 -1.242226
v -0.247555 0.000000 -1.267767
v 0.455212 -0.000000 1.100838
v 0.446110 0.058371 1.149413
v -0.348151 0.058371 0.653066
v -0.346684 0.058371 0.576457
v -0.339044 0.058371 0.456368
v -0.339044 -0.000000 0.456368
v -0.145574 -0.000000 1.246129
v -0.145574 0.058371 1.246129
v -0.180174 0.058371 1.188871
v -0.180174 -0.000000 1.188871
v -0.213442 -0.000000 1.126707
v 0.346047 0.000000 -0.962504
v 0.332973 0.000000 -0.987695
v -0.393286 0.058371 0.158630
v -0.341224 -0.000000 0.430443
v 0.259055 0.000000 -1.066694
v 0.196672 0.000000 -1.116789
v 0.196672 0.058370 -1.116789
v 0.129350 0.000000 -1.160018
v 0.571169 0.058371 0.784860
v -0.224818 0.000000 -1.256662
v -0.305043 -0.000000 0.897859
v 0.082094 0.000000 -1.184777
v -0.305043 0.058371 0.897859
v 0.010554 0.058370 -1.213830
v -0.224818 0.058370 -1.256662
vt 0.020534 0.063845
vt 0.019226 0.063584
vt 0.020424 0.063299
vt 0.030706 0.071728
vt 0.031401 0.073581
vt 0.030128 0.072757
vt 0.033518 0.013268
vt 0.036048 0.017169
vt 0.032868 0.014438
vt 0.040870 0.036557
vt 0.039989 0.034749
vt 0.041199 0.034962
vt 0.021833 0.068134
vt 0.023454 0.068027
vt 0.022667 0.068919
vt 0.032576 0.072941
vt 0.032839 0.074285
vt 0.032090 0.073967
vt 0.022994 0.020933
vt 0.023015 0.019023
vt 0.024091 0.019751
vt 0.041403 0.027755
vt 0.040337 0.030502
vt 0.040102 0.027920
vt 0.039081 0.068662
vt 0.038807 0.072176
vt 0.037781 0.071479
vt 0.041474 0.033304
vt 0.041594 0.030480
vt 0.031970 0.072584
vt 0.020786 0.024125
vt 0.021866 0.024969
vt 0.020589 0.024837
vt 0.031963 0.014050
vt 0.031560 0.012533
vt 0.032382 0.012746
vt 0.020989 0.027987
vt 0.024785 0.070476
vt 0.025941 0.069791
vt 0.025409 0.070812
vt 0.035777 0.073169
vt 0.036948 0.073927
vt 0.036167 0.074285
vt 0.038987 0.019366
vt 0.037508 0.019354
vt 0.038639 0.018711
vt 0.021705 0.066128
vt 0.019775 0.065221
vt 0.020865 0.064735
vt 0.020697 0.064364
vt 0.019599 0.064790
vt 0.040727 0.037440
vt 0.039413 0.037848
vt 0.039476 0.037276
vt 0.035143 0.073342
vt 0.035337 0.074503
vt 0.041594 0.060410
vt 0.039971 0.065261
vt 0.040395 0.060385
vt 0.023850 0.068368
vt 0.030254 0.012441
vt 0.031313 0.013895
vt 0.030328 0.013858
vt 0.038921 0.022708
vt 0.040613 0.023830
vt 0.039359 0.024171
vt 0.030252 0.071457
vt 0.029274 0.072295
vt 0.029778 0.071224
vt 0.033836 0.073357
vt 0.034486 0.074572
vt 0.033644 0.074496
vt 0.018529 0.057072
vt 0.018987 0.051304
vt 0.019758 0.056920
vt 0.028667 0.014324
vt 0.026458 0.013910
vt 0.028077 0.012960
vt 0.021489 0.021558
vt 0.022309 0.022497
vt 0.021277 0.022169
vt 0.027594 0.071677
vt 0.027364 0.070443
vt 0.027960 0.070638
vt 0.022712 0.021432
vt 0.021746 0.020959
vt 0.022243 0.020099
vt 0.040529 0.041569
vt 0.039284 0.041563
vt 0.036916 0.072508
vt 0.038279 0.072852
vt 0.037657 0.073443
vt 0.039632 0.036338
vt 0.022022 0.024410
vt 0.029636 0.013963
vt 0.040583 0.043823
vt 0.039349 0.043873
vt 0.025382 0.069467
vt 0.023997 0.069980
vt 0.024681 0.068998
vt 0.019799 0.027757
vt 0.018939 0.047781
vt 0.017784 0.051379
vt 0.017757 0.047730
vt 0.027441 0.015130
vt 0.025705 0.014558
vt 0.036374 0.072889
vt 0.028842 0.072098
vt 0.033196 0.073200
vt 0.024514 0.016023
vt 0.026743 0.015699
vt 0.025816 0.016849
vt 0.029379 0.012550
vt 0.110478 0.874865
vt 0.118333 0.873123
vt 0.090306 0.860511
vt 0.039717 0.025657
vt 0.040989 0.025386
vt 0.029296 0.071028
vt 0.029700 0.072516
vt 0.038401 0.021275
vt 0.040157 0.022296
vt 0.023677 0.017764
vt 0.034491 0.073405
vt 0.037823 0.019963
vt 0.039612 0.020781
vt 0.037390 0.072035
vt 0.041113 0.065466
vt 0.019389 0.064197
vt 0.026977 0.071465
vt 0.022710 0.067302
vt 0.024907 0.018531
vt 0.206546 0.545097
vt 0.212881 0.556605
vt 0.216411 0.580422
vt 0.022485 0.021951
vt 0.036993 0.016341
vt 0.040163 0.069049
vt 0.040218 0.033176
vt 0.020751 0.066809
vt 0.040668 0.037977
vt 0.023096 0.069281
vt 0.192287 0.822839
vt 0.193208 0.819086
vt 0.190887 0.826334
vt 0.197974 0.776665
vt 0.176281 0.844244
vt 0.189545 0.828724
vt 0.209210 0.741041
vt 0.113064 0.667300
vt 0.213460 0.717230
vt 0.216411 0.580422
vt 0.118642 0.629591
vt 0.214041 0.559664
vt 0.212881 0.556605
vt 0.206546 0.545097
vt 0.122519 0.564745
vt 0.115596 0.652783
vt 0.182966 0.837294
vt 0.205091 0.540930
vt 0.129102 0.541837
vt 0.169067 0.850241
vt 0.171526 0.848352
vt 0.085209 0.773566
vt 0.159736 0.856120
vt 0.164003 0.853676
vt 0.147550 0.860373
vt 0.156337 0.857706
vt 0.136305 0.861646
vt 0.143960 0.860907
vt 0.118876 0.625994
vt 0.203985 0.536585
vt 0.132335 0.532996
vt 0.118851 0.619981
vt 0.203242 0.532113
vt 0.203408 0.520630
vt 0.150263 0.499396
vt 0.202381 0.511495
vt 0.139607 0.516428
vt 0.118057 0.609334
vt 0.135900 0.524372
vt 0.199968 0.502810
vt 0.196266 0.494922
vt 0.193977 0.491376
vt 0.167669 0.482018
vt 0.188636 0.485262
vt 0.184127 0.481740
vt 0.180927 0.480253
vt 0.175874 0.479457
vt 0.172492 0.479908
vt 0.141524 0.512806
vt 0.126208 0.550874
vt 0.119339 0.581098
vt 0.117900 0.598706
vt 0.133668 0.862463
vt 0.082543 0.808093
vt 0.131116 0.863649
vt 0.084295 0.834039
vt 0.128679 0.865189
vt 0.121982 0.871003
vt 0.088459 0.855919
vt 0.114462 0.874423
vt 0.102618 0.873156
vt 0.106492 0.874439
vt 0.095633 0.868186
vt 0.098964 0.871052
vt 0.092720 0.864639
vt 0.106492 0.874439
vt 0.102618 0.873156
vt 0.110478 0.874865
vt 0.098964 0.871052
vt 0.095633 0.868186
vt 0.092720 0.864639
vt 0.090306 0.860511
vt 0.088459 0.855919
vt 0.084295 0.834039
vt 0.128679 0.865189
vt 0.082543 0.808093
vt 0.133668 0.862463
vt 0.131116 0.863649
vt 0.085209 0.773566
vt 0.136305 0.861646
vt 0.113064 0.667300
vt 0.197974 0.776665
vt 0.118333 0.873123
vt 0.114462 0.874423
vt 0.121982 0.871003
vt 0.115596 0.652783
vt 0.213460 0.717230
vt 0.171526 0.848352
vt 0.118642 0.629591
vt 0.209210 0.741041
vt 0.118876 0.625994
vt 0.147550 0.860373
vt 0.143960 0.860907
vt 0.159736 0.856120
vt 0.118851 0.619981
vt 0.118057 0.609334
vt 0.117900 0.598706
vt 0.156337 0.857706
vt 0.164003 0.853676
vt 0.169067 0.850241
vt 0.182966 0.837294
vt 0.176281 0.844244
vt 0.193208 0.819086
vt 0.190887 0.826334
vt 0.189545 0.828724
vt 0.192287 0.822839
vt 0.119339 0.581098
vt 0.122519 0.564745
vt 0.126208 0.550874
vt 0.129102 0.541837
vt 0.132335 0.532996
vt 0.205091 0.540930
vt 0.135900 0.524372
vt 0.203985 0.536585
vt 0.139607 0.516428
vt 0.141524 0.512806
vt 0.203010 0.529846
vt 0.150263 0.499396
vt 0.167669 0.482018
vt 0.196266 0.494922
vt 0.172492 0.479908
vt 0.180927 0.480253
vt 0.175874 0.479457
vt 0.184127 0.481740
vt 0.188636 0.485262
vt 0.193977 0.491376
vt 0.199968 0.502810
vt 0.202381 0.511495
vt 0.203408 0.520630
vt 0.214354 0.560968
vn 0.9237 0.0000 -0.3831
vn 0.9746 0.0000 -0.2240
vn 0.4990 0.0000 -0.8666
vn 0.4849 0.0000 -0.8746
vn -0.4719 0.0000 0.8817
vn -0.6914 0.0000 0.7225
vn -0.9987 0.0000 -0.0508
vn -0.9983 0.0000 -0.0576
vn 0.5912 0.0000 -0.8066
vn 0.5329 0.0000 -0.8462
vn 0.3314 0.0000 -0.9435
vn 0.1689 0.0000 -0.9856
vn 0.9948 0.0078 0.1018
vn 0.9984 0.0104 0.0557
vn 0.9980 0.0000 0.0629
vn -0.9585 0.0000 0.2851
vn -0.9845 0.0000 0.1751
vn -0.9865 0.0000 -0.1636
vn -0.9356 0.0000 -0.3531
vn -0.9356 0.0000 -0.3530
vn -0.9991 0.0000 0.0431
vn 0.8672 0.0070 0.4979
vn 0.9523 -0.0084 0.3050
vn 0.9654 -0.0028 0.2609
vn -0.2125 0.0000 0.9772
vn 0.0093 0.0000 1.0000
vn 0.9985 -0.0032 0.0554
vn 0.3721 0.0000 -0.9282
vn 0.2842 0.0000 -0.9588
vn -0.4816 0.0000 -0.8764
vn -0.6215 0.0000 -0.7834
vn -0.8408 0.0000 0.5414
vn -0.7956 0.0000 0.6058
vn 0.6687 0.0000 -0.7435
vn 0.7614 0.0000 -0.6483
vn 0.8507 0.0000 -0.5257
vn -0.9992 0.0000 0.0392
vn -0.9921 0.0000 0.1258
vn -0.3283 0.0000 -0.9446
vn -0.9773 0.0000 0.2118
vn -1.0000 0.0000 0.0062
vn 0.4874 0.0000 -0.8732
vn 0.2307 0.0000 0.9730
vn -0.8930 0.0000 0.4500
vn -0.9141 0.0000 0.4056
vn 0.3889 0.0000 -0.9213
vn 0.2857 0.0000 -0.9583
vn 0.0016 0.0000 -1.0000
vn -0.1657 0.0000 -0.9862
vn 0.9648 0.0000 -0.2629
vn 0.9531 0.0000 -0.3026
vn 0.5919 0.0000 0.8060
vn 0.7168 0.0000 0.6972
vn 0.9318 0.0000 0.3630
vn 0.8669 0.0000 0.4986
vn 0.0943 0.0000 -0.9955
vn 0.1715 0.0000 -0.9852
vn 0.9651 0.0000 0.2620
vn 0.9674 -0.0051 0.2533
vn 0.9987 0.0249 0.0436
vn -0.9810 0.0000 0.1940
vn -0.7438 0.0000 -0.6684
vn -0.8451 0.0000 -0.5346
vn 0.8589 0.0000 0.5122
vn 0.4293 0.0000 0.9031
vn -0.9625 -0.0000 0.2712
vn 0.4346 0.0000 -0.9006
vn 0.9985 -0.0000 0.0540
vn 0.9919 -0.0000 -0.1272
vn 0.8132 0.0000 0.5819
vn 0.1540 0.0000 -0.9881
vn 0.9023 0.0000 0.4310
vn 0.4293 0.0000 0.9032
vn -0.0000 -1.0000 -0.0000
vn -0.9351 0.0000 0.3544
vn -0.8691 0.0000 0.4947
vn 0.9701 0.0000 0.2425
vn 0.0000 1.0000 0.0000
s 1
f 122/1/1 97/2/2 89/3/2
f 110/4/3 3/5/4 1/6/3
f 100/7/5 104/8/6 101/9/5
f 6/10/7 5/11/8 114/12/8
f 128/13/9 43/14/10 45/15/10
f 24/16/11 32/17/12 25/18/11
f 28/19/13 9/20/14 8/21/15
f 134/22/16 42/23/17 132/24/16
f 76/25/18 36/26/19 35/27/20
f 113/28/21 42/23/17 40/29/17
f 2/30/4 25/18/11 3/5/4
f 52/31/22 53/32/23 54/33/24
f 99/34/25 50/35/26 59/36/25
f 58/37/27 54/33/24 53/32/23
f 86/38/28 81/39/29 135/40/29
f 94/41/30 22/42/31 95/43/30
f 118/44/32 68/45/33 70/46/33
f 126/47/34 31/48/35 30/49/35
f 123/50/36 31/48/35 29/51/36
f 115/52/37 125/53/38 116/54/37
f 61/55/39 95/43/30 62/56/39
f 103/57/40 48/58/41 46/59/40
f 129/60/42 45/15/10 43/14/10
f 106/61/43 51/62/26 49/63/43
f 121/64/44 14/65/45 15/66/45
f 131/67/46 10/68/47 12/69/47
f 33/70/48 60/71/49 34/72/48
f 90/73/50 18/74/51 16/75/50
f 91/76/52 57/77/53 55/78/52
f 83/79/54 79/80/55 78/81/55
f 108/82/56 82/83/57 107/84/56
f 111/85/58 84/86/59 28/19/13
f 84/86/59 112/87/60 28/19/13
f 125/53/38 38/88/61 39/89/61
f 23/90/62 21/91/63 19/92/62
f 4/93/7 115/52/37 116/54/37
f 52/31/22 79/80/55 77/94/64
f 28/19/13 112/87/60 9/20/14
f 55/78/52 93/95/65 91/76/52
f 39/89/61 124/96/66 102/97/66
f 88/98/28 87/99/67 133/100/67
f 59/36/25 101/9/5 99/34/25
f 52/31/22 77/94/64 53/32/23
f 58/37/27 130/101/68 54/33/24
f 74/102/69 17/103/51 73/104/69
f 102/97/66 103/57/40 46/59/40
f 56/105/53 65/106/70 57/77/53
f 98/107/31 19/92/62 22/42/31
f 109/108/71 12/69/47 10/68/47
f 63/109/12 34/72/48 32/17/12
f 26/110/72 66/111/70 64/112/72
f 49/63/43 92/113/73 106/61/43
f 33/114/74 24/115/74 20/116/74
f 5/11/8 113/28/21 114/12/8
f 134/22/16 71/117/75 72/118/75
f 108/82/56 11/119/71 109/108/71
f 104/8/6 70/46/33 68/45/33
f 131/67/46 1/6/3 136/120/46
f 120/121/76 13/122/44 121/64/44
f 130/101/68 74/102/69 73/104/69
f 64/112/72 7/123/77 26/110/72
f 15/66/45 72/118/75 71/117/75
f 67/124/49 62/56/39 60/71/49
f 117/125/32 119/126/76 120/121/76
f 20/127/63 36/26/19 21/91/63
f 47/128/41 76/25/18 48/58/41
f 96/129/1 123/50/36 29/51/36
f 135/40/29 82/83/57 80/130/57
f 128/13/9 126/47/34 127/131/9
f 27/132/77 9/20/14 7/123/77
f 97/2/2 16/75/50 89/3/2
f 78/133/78 52/134/78 130/135/78
f 85/136/54 84/86/59 111/85/58
f 87/99/67 129/60/42 133/100/67
f 122/1/1 96/129/1 97/2/2
f 110/4/3 2/30/4 3/5/4
f 100/7/5 69/137/6 104/8/6
f 6/10/7 4/93/7 5/11/8
f 128/13/9 127/131/9 43/14/10
f 24/16/11 63/109/12 32/17/12
f 134/22/16 40/29/17 42/23/17
f 76/25/18 75/138/18 36/26/19
f 113/28/21 41/139/21 42/23/17
f 2/30/4 24/16/11 25/18/11
f 99/34/25 51/62/26 50/35/26
f 86/38/28 88/98/28 81/39/29
f 94/41/30 98/107/31 22/42/31
f 118/44/32 117/125/32 68/45/33
f 126/47/34 105/140/34 31/48/35
f 123/50/36 30/49/35 31/48/35
f 115/52/37 37/141/38 125/53/38
f 61/55/39 94/41/30 95/43/30
f 103/57/40 47/128/41 48/58/41
f 129/60/42 44/142/42 45/15/10
f 106/61/43 50/35/26 51/62/26
f 121/64/44 13/122/44 14/65/45
f 131/67/46 136/120/46 10/68/47
f 33/70/48 67/124/49 60/71/49
f 90/73/50 17/103/51 18/74/51
f 91/76/52 56/105/53 57/77/53
f 83/79/54 85/136/54 79/80/55
f 108/82/56 80/130/57 82/83/57
f 125/53/38 37/141/38 38/88/61
f 23/90/62 20/127/63 21/91/63
f 4/93/7 6/10/7 115/52/37
f 52/31/22 78/81/55 79/80/55
f 55/78/52 92/113/73 93/95/65
f 39/89/61 38/88/61 124/96/66
f 88/98/28 86/38/28 87/99/67
f 59/36/25 100/7/5 101/9/5
f 74/102/69 18/74/51 17/103/51
f 102/97/66 124/96/66 103/57/40
f 56/105/53 66/111/70 65/106/70
f 98/107/31 23/90/62 19/92/62
f 109/108/71 11/119/71 12/69/47
f 63/109/12 33/70/48 34/72/48
f 26/110/72 65/106/70 66/111/70
f 49/63/43 93/95/65 92/113/73
f 122/143/74 89/144/74 123/145/74
f 89/144/74 16/146/74 127/147/74
f 123/145/74 89/144/74 30/148/74
f 16/146/74 18/149/74 102/150/74
f 18/149/74 74/151/74 102/150/74
f 74/151/74 58/152/74 125/153/74
f 58/152/74 53/154/74 77/155/74
f 79/156/74 58/152/74 77/155/74
f 58/152/74 79/156/74 132/157/74
f 74/151/74 125/153/74 39/158/74
f 30/148/74 89/144/74 126/159/74
f 74/151/74 39/158/74 102/150/74
f 79/156/74 85/160/74 15/161/74
f 126/159/74 89/144/74 127/147/74
f 129/162/74 43/163/74 46/164/74
f 43/163/74 127/147/74 16/146/74
f 88/165/74 133/166/74 46/164/74
f 133/166/74 129/162/74 46/164/74
f 82/167/74 81/168/74 88/165/74
f 11/169/74 107/170/74 46/164/74
f 107/170/74 82/167/74 88/165/74
f 46/164/74 107/170/74 88/165/74
f 43/163/74 16/146/74 46/164/74
f 125/153/74 58/152/74 116/171/74
f 85/160/74 111/172/74 121/173/74
f 116/171/74 58/152/74 4/174/74
f 28/175/74 8/176/74 104/177/74
f 8/176/74 27/178/74 104/177/74
f 111/172/74 28/175/74 117/179/74
f 4/174/74 58/152/74 5/180/74
f 111/172/74 120/181/74 121/173/74
f 27/178/74 64/182/74 104/177/74
f 64/182/74 66/183/74 104/177/74
f 66/183/74 56/184/74 101/185/74
f 56/184/74 91/186/74 101/185/74
f 91/186/74 93/187/74 101/185/74
f 93/187/74 49/188/74 101/185/74
f 49/188/74 51/189/74 99/190/74
f 99/190/74 101/185/74 49/188/74
f 101/185/74 104/177/74 66/183/74
f 104/177/74 68/191/74 28/175/74
f 68/191/74 117/179/74 28/175/74
f 117/179/74 120/181/74 111/172/74
f 121/173/74 15/161/74 85/160/74
f 15/161/74 71/192/74 79/156/74
f 71/192/74 132/157/74 79/156/74
f 132/157/74 42/193/74 58/152/74
f 42/193/74 41/194/74 58/152/74
f 41/194/74 5/180/74 58/152/74
f 12/195/74 11/169/74 48/196/74
f 131/197/74 12/195/74 76/198/74
f 11/169/74 46/164/74 48/196/74
f 110/199/74 131/197/74 76/198/74
f 24/115/74 2/200/74 20/116/74
f 2/200/74 110/199/74 35/201/74
f 20/116/74 2/200/74 35/201/74
f 33/114/74 63/202/74 24/115/74
f 61/203/74 67/204/74 33/114/74
f 98/205/74 94/206/74 20/116/74
f 94/206/74 61/203/74 33/114/74
f 20/116/74 23/207/74 98/205/74
f 76/198/74 35/201/74 110/199/74
f 48/196/74 76/198/74 12/195/74
f 102/150/74 46/164/74 16/146/74
f 33/114/74 20/116/74 94/206/74
f 5/11/8 41/139/21 113/28/21
f 134/22/16 132/24/16 71/117/75
f 108/82/56 107/84/56 11/119/71
f 104/8/6 69/137/6 70/46/33
f 131/67/46 110/4/3 1/6/3
f 120/121/76 119/126/76 13/122/44
f 130/101/68 58/37/27 74/102/69
f 64/112/72 27/132/77 7/123/77
f 15/66/45 14/65/45 72/118/75
f 67/124/49 61/55/39 62/56/39
f 117/125/32 118/44/32 119/126/76
f 20/127/63 35/27/20 36/26/19
f 47/128/41 75/138/18 76/25/18
f 96/129/1 122/1/1 123/50/36
f 135/40/29 81/39/29 82/83/57
f 128/13/9 105/140/34 126/47/34
f 27/132/77 8/21/15 9/20/14
f 97/2/2 90/73/50 16/75/50
f 60/208/78 62/209/78 34/210/78
f 62/209/78 95/211/78 34/210/78
f 95/211/78 22/212/78 19/213/78
f 19/213/78 21/214/78 95/211/78
f 21/214/78 36/215/78 95/211/78
f 36/215/78 75/216/78 1/217/78
f 75/216/78 47/218/78 10/219/78
f 136/220/78 75/216/78 10/219/78
f 47/218/78 103/221/78 109/222/78
f 103/221/78 124/223/78 90/224/78
f 75/216/78 136/220/78 1/217/78
f 10/219/78 47/218/78 109/222/78
f 25/225/78 32/226/78 34/210/78
f 1/217/78 3/227/78 36/215/78
f 3/227/78 25/225/78 36/215/78
f 25/225/78 34/210/78 36/215/78
f 34/210/78 95/211/78 36/215/78
f 124/223/78 38/228/78 73/229/78
f 103/221/78 90/224/78 45/230/78
f 38/228/78 37/231/78 73/229/78
f 90/224/78 124/223/78 17/232/78
f 17/232/78 124/223/78 73/229/78
f 37/231/78 115/233/78 130/135/78
f 80/234/78 108/235/78 86/236/78
f 108/235/78 109/222/78 103/221/78
f 6/237/78 114/238/78 130/135/78
f 114/238/78 113/239/78 130/135/78
f 115/233/78 6/237/78 130/135/78
f 135/240/78 80/234/78 86/236/78
f 108/235/78 103/221/78 86/236/78
f 87/241/78 86/236/78 103/221/78
f 45/230/78 44/242/78 103/221/78
f 44/242/78 87/241/78 103/221/78
f 105/243/78 128/244/78 97/245/78
f 128/244/78 45/230/78 90/224/78
f 97/245/78 128/244/78 90/224/78
f 29/246/78 31/247/78 97/245/78
f 31/247/78 105/243/78 97/245/78
f 97/245/78 96/248/78 29/246/78
f 37/231/78 130/135/78 73/229/78
f 113/239/78 40/249/78 130/135/78
f 40/249/78 134/250/78 130/135/78
f 134/250/78 72/251/78 78/133/78
f 130/135/78 134/250/78 78/133/78
f 72/251/78 14/252/78 78/133/78
f 14/252/78 13/253/78 83/254/78
f 13/253/78 119/255/78 84/256/78
f 119/255/78 118/257/78 84/256/78
f 13/253/78 84/256/78 83/254/78
f 118/257/78 70/258/78 112/259/78
f 70/258/78 69/260/78 112/259/78
f 69/260/78 100/261/78 65/262/78
f 100/261/78 59/263/78 106/264/78
f 59/263/78 50/265/78 106/264/78
f 106/264/78 92/266/78 100/261/78
f 92/266/78 55/267/78 100/261/78
f 55/267/78 57/268/78 100/261/78
f 57/268/78 65/262/78 100/261/78
f 65/262/78 26/269/78 69/260/78
f 26/269/78 7/270/78 69/260/78
f 7/270/78 9/271/78 69/260/78
f 9/271/78 112/259/78 69/260/78
f 84/256/78 118/257/78 112/259/78
f 14/252/78 83/254/78 78/133/78
f 52/134/78 54/272/78 130/135/78
f 85/136/54 83/79/54 84/86/59
f 87/99/67 44/142/42 129/60/42
