# Blender v2.82 (sub 7) OBJ File: 'Obstacals ALL.blend'
# www.blender.org
o GasCloud1_Mesh3_Model
v -0.661763 0.000000 -1.043232
v -0.661763 0.058370 -1.043232
v 0.448280 0.000000 1.133069
v 0.010554 0.000000 -1.213830
v 0.440240 0.058371 1.281686
v 0.417720 0.000000 1.344291
v 0.440240 0.000000 1.281686
v 0.543632 0.000000 -0.201266
v 0.503974 0.058370 -0.372898
v 0.543632 0.058371 -0.201266
v -0.339278 0.000000 0.499711
v -0.346684 0.000000 0.576457
v -0.339278 0.058371 0.499711
v -0.605665 0.058370 -1.234048
v -0.583135 0.000000 -1.263802
v -0.605665 0.000000 -1.234048
v -0.622901 0.058370 -1.200946
v -0.622901 0.000000 -1.200946
v -0.270620 0.000000 0.997845
v -0.243615 0.000000 1.062982
v -0.270620 0.058371 0.997845
v 0.192873 0.000000 1.512619
v 0.240033 0.058371 1.506881
v 0.192873 0.058371 1.512619
v 0.354637 0.000000 -0.935453
v -0.046132 0.058371 1.368900
v 0.259055 0.058370 -1.066694
v 0.449830 0.000000 1.215844
v 0.446110 0.058371 1.149413
v 0.449830 0.058371 1.215844
v -0.145574 0.000000 1.246129
v -0.127687 0.000000 1.272239
v -0.145574 0.058371 1.246129
v -0.678109 0.000000 -0.856210
v -0.653231 0.058370 -0.607341
v -0.678109 0.058370 -0.856210
v -0.224818 0.000000 -1.256662
v -0.224818 0.058370 -1.256662
v 0.383176 0.058371 1.401150
v 0.361811 0.000000 1.426707
v 0.383176 0.000000 1.401150
v 0.269894 0.000000 1.496163
v 0.311967 0.058371 1.470778
v 0.269893 0.058371 1.496163
v 0.161313 0.000000 1.509374
v -0.201000 0.000000 -1.248112
v 0.417720 0.058371 1.344291
v -0.380232 0.058370 -1.334321
v -0.344106 0.000000 -1.324952
v -0.380232 0.000000 -1.334321
v 0.538232 0.058371 0.956534
v 0.538232 0.000000 0.956534
v -0.417416 0.058370 -1.337513
v -0.417416 0.000000 -1.337513
v 0.152293 0.000000 -1.146402
v 0.129350 0.058370 -1.160018
v 0.152293 0.058370 -1.146402
v -0.524865 0.058370 -1.310024
v -0.490765 0.000000 -1.325191
v -0.524865 0.000000 -1.310024
v 0.551972 0.058371 0.925087
v 0.549052 0.000000 0.934485
v -0.393286 0.000000 0.158630
v -0.653231 0.000000 -0.607341
v -0.341224 0.000000 0.430443
v -0.339044 0.058371 0.456368
v -0.341224 0.058371 0.430443
v -0.046132 0.000000 1.368900
v 0.116306 0.058371 1.494164
v 0.479112 0.000000 1.039480
v 0.116306 0.000000 1.494164
v 0.161313 0.058371 1.509374
v 0.361811 0.058371 1.426707
v 0.311967 0.000000 1.470778
v 0.571169 0.058371 0.784860
v -0.490765 0.058370 -1.325191
v -0.454610 0.000000 -1.334443
v -0.247555 0.058370 -1.267767
v -0.247555 0.000000 -1.267767
v -0.344106 0.058370 -1.324952
v -0.310057 0.000000 -1.309675
v 0.240033 0.000000 1.506881
v -0.583135 0.058370 -1.263802
v -0.555948 0.000000 -1.289370
v -0.454610 0.058370 -1.334443
v -0.555948 0.058370 -1.289370
v -0.176393 0.058370 -1.242226
v 0.455212 0.000000 1.100838
v 0.455212 0.058371 1.100838
v 0.082094 0.058370 -1.184777
v 0.082094 0.000000 -1.184777
v 0.129350 0.000000 -1.160018
v 0.042274 0.058370 -1.202393
v 0.042274 0.000000 -1.202393
v 0.010554 0.058370 -1.213830
v 0.503974 0.000000 -0.372898
v -0.348151 0.058371 0.653066
v -0.346684 0.058371 0.576457
v -0.348151 0.000000 0.653066
v -0.339044 0.000000 0.456368
v -0.305043 0.058371 0.897859
v -0.305043 0.000000 0.897859
v -0.334725 0.058371 0.779981
v -0.334725 0.000000 0.779981
v -0.243615 0.058371 1.062982
v 0.346047 0.058370 -0.962504
v 0.346047 0.000000 -0.962504
v 0.354637 0.058370 -0.935453
v -0.127687 0.058371 1.272239
v 0.320455 0.058370 -1.004921
v 0.320455 0.000000 -1.004921
v 0.259055 0.000000 -1.066694
v -0.180174 0.058371 1.188871
v -0.180174 0.000000 1.188871
v -0.213442 0.058371 1.126707
v -0.213442 0.000000 1.126707
v -0.201000 0.058370 -1.248112
v -0.071453 0.058370 -1.233048
v -0.071453 0.000000 -1.233048
v -0.104957 0.058370 -1.236904
v -0.104957 0.000000 -1.236904
v -0.176393 0.000000 -1.242226
v 0.332973 0.000000 -0.987695
v 0.332973 0.058370 -0.987695
v 0.196672 0.058370 -1.116789
v 0.196672 0.000000 -1.116789
v 0.479112 0.058371 1.039480
v -0.393286 0.058371 0.158630
v 0.399119 0.000000 -0.629675
v 0.399119 0.058370 -0.629675
v 0.571169 0.000000 0.784860
v -0.369650 0.058371 0.263272
v -0.369650 0.000000 0.263272
v 0.465529 0.058371 1.069521
v 0.465529 0.000000 1.069521
v -0.310057 0.058370 -1.309675
vt 0.128679 0.865189
vt 0.121982 0.871003
vt 0.121982 0.871003
vt 0.118851 0.619981
vt 0.118057 0.609334
vt 0.118851 0.619981
vt 0.202381 0.511495
vt 0.203408 0.520630
vt 0.203408 0.520630
vt 0.133668 0.862463
vt 0.136305 0.861646
vt 0.133668 0.862463
vt 0.132335 0.532996
vt 0.129102 0.541837
vt 0.129102 0.541837
vt 0.197974 0.776665
vt 0.209210 0.741041
vt 0.209210 0.741041
vt 0.092720 0.864639
vt 0.090306 0.860511
vt 0.090306 0.860511
vt 0.095633 0.868186
vt 0.092720 0.864639
vt 0.118333 0.873123
vt 0.118333 0.873123
vt 0.199968 0.502810
vt 0.202381 0.511495
vt 0.203242 0.532113
vt 0.190887 0.826334
vt 0.189545 0.828724
vt 0.189545 0.828724
vt 0.114462 0.874423
vt 0.110478 0.874865
vt 0.110478 0.874865
vt 0.088459 0.855919
vt 0.088459 0.855919
vt 0.118642 0.629591
vt 0.115596 0.652783
vt 0.115596 0.652783
vt 0.119339 0.581098
vt 0.117900 0.598706
vt 0.119339 0.581098
vt 0.171526 0.848352
vt 0.169067 0.850241
vt 0.171526 0.848352
vt 0.085209 0.773566
vt 0.082543 0.808093
vt 0.082543 0.808093
vt 0.180927 0.480253
vt 0.175874 0.479457
vt 0.175874 0.479457
vt 0.212881 0.556605
vt 0.214041 0.559664
vt 0.214354 0.560968
vt 0.188636 0.485262
vt 0.193977 0.491376
vt 0.193977 0.491376
vt 0.216411 0.580422
vt 0.172492 0.479908
vt 0.106492 0.874439
vt 0.102618 0.873156
vt 0.102618 0.873156
vt 0.114462 0.874423
vt 0.199968 0.502810
vt 0.196266 0.494922
vt 0.196266 0.494922
vt 0.106492 0.874439
vt 0.141524 0.512806
vt 0.150263 0.499396
vt 0.141524 0.512806
vt 0.126208 0.550874
vt 0.126208 0.550874
vt 0.213460 0.717230
vt 0.213460 0.717230
vt 0.084295 0.834039
vt 0.084295 0.834039
vt 0.212881 0.556605
vt 0.206546 0.545097
vt 0.206546 0.545097
vt 0.147550 0.860373
vt 0.156337 0.857706
vt 0.147550 0.860373
vt 0.205091 0.540930
vt 0.203985 0.536585
vt 0.205091 0.540930
vt 0.159736 0.856120
vt 0.164003 0.853676
vt 0.159736 0.856120
vt 0.193208 0.819086
vt 0.197974 0.776665
vt 0.188636 0.485262
vt 0.184127 0.481740
vt 0.184127 0.481740
vt 0.098964 0.871052
vt 0.098964 0.871052
vt 0.192287 0.822839
vt 0.193208 0.819086
vt 0.095633 0.868186
vt 0.172492 0.479908
vt 0.167669 0.482018
vt 0.167669 0.482018
vt 0.113064 0.667300
vt 0.085209 0.773566
vt 0.150263 0.499396
vt 0.182966 0.837294
vt 0.180927 0.480253
vt 0.143960 0.860907
vt 0.143960 0.860907
vt 0.136305 0.861646
vt 0.128679 0.865189
vt 0.203985 0.536585
vt 0.203010 0.529846
vt 0.117900 0.598706
vt 0.118057 0.609334
vt 0.118876 0.625994
vt 0.118876 0.625994
vt 0.139607 0.516428
vt 0.139607 0.516428
vt 0.135900 0.524372
vt 0.135900 0.524372
vt 0.132335 0.532996
vt 0.192287 0.822839
vt 0.190887 0.826334
vt 0.113064 0.667300
vt 0.118642 0.629591
vt 0.182966 0.837294
vt 0.176281 0.844244
vt 0.176281 0.844244
vt 0.169067 0.850241
vt 0.216411 0.580422
vt 0.131116 0.863649
vt 0.122519 0.564745
vt 0.164003 0.853676
vt 0.122519 0.564745
vt 0.156337 0.857706
vt 0.131116 0.863649
vn 0.3449 0.7228 -0.5989
vn 0.3516 -0.6886 -0.6342
vn 0.3516 0.6886 -0.6342
vn -0.6957 -0.7175 -0.0354
vn -0.7144 -0.6985 -0.0412
vn -0.6957 0.7175 -0.0354
vn 0.7066 0.6852 0.1766
vn 0.7231 -0.6892 0.0456
vn 0.7238 0.6889 0.0403
vn 0.1983 0.7197 -0.6654
vn 0.1059 -0.7256 -0.6799
vn 0.1983 -0.7197 -0.6654
vn -0.6363 0.7016 0.3207
vn -0.6513 0.7016 0.2890
vn -0.6513 -0.7016 0.2890
vn 0.6537 -0.7355 -0.1782
vn 0.6903 0.6895 -0.2191
vn 0.6903 -0.6895 -0.2191
vn -0.5393 0.6887 -0.4846
vn -0.6127 -0.6887 -0.3876
vn -0.6127 0.6887 -0.3876
vn -0.4506 0.6887 -0.5681
vn -0.5393 -0.6887 -0.4846
vn 0.2402 -0.6887 -0.6841
vn 0.2402 0.6887 -0.6841
vn 0.6572 0.6852 0.3139
vn 0.7066 -0.6852 0.1766
vn 0.6784 -0.7314 0.0694
vn 0.6152 0.6907 -0.3802
vn 0.5509 -0.6902 -0.4691
vn 0.5509 0.6902 -0.4691
vn 0.1225 0.6887 -0.7146
vn 0.0012 -0.6887 -0.7250
vn 0.0012 0.6887 -0.7250
vn -0.6849 -0.6813 -0.2584
vn -0.6849 0.6813 -0.2584
vn -0.6918 0.7167 0.0877
vn -0.6876 0.7132 0.1360
vn -0.6876 -0.7132 0.1360
vn -0.7112 0.6916 0.1265
vn -0.7199 -0.6934 0.0311
vn -0.7112 -0.6916 0.1265
vn 0.3799 -0.7012 -0.6033
vn 0.3475 0.7012 -0.6225
vn 0.3799 0.7012 -0.6033
vn -0.7144 -0.6824 0.1548
vn -0.7269 0.6867 0.0045
vn -0.7269 -0.6867 0.0045
vn 0.1686 -0.6828 0.7109
vn 0.0068 0.6828 0.7305
vn 0.0068 -0.6828 0.7305
vn 0.6301 0.6870 0.3618
vn 0.7010 -0.6770 0.2245
vn 0.7111 0.6763 0.1922
vn 0.4299 0.6873 0.5855
vn 0.5185 -0.6906 0.5043
vn 0.5185 0.6906 0.5043
vn 0.7236 -0.6891 0.0401
vn -0.1553 0.6829 0.7139
vn -0.1201 0.6887 -0.7150
vn -0.2380 -0.6887 -0.6849
vn -0.2380 0.6887 -0.6849
vn 0.1225 -0.6887 -0.7146
vn 0.6572 -0.6852 0.3139
vn 0.5882 0.6906 0.4209
vn 0.5882 -0.6906 0.4209
vn -0.1201 -0.6887 -0.7150
vn -0.5713 -0.6960 0.4350
vn -0.5044 0.6839 0.5271
vn -0.5713 0.6960 0.4350
vn -0.6676 -0.7003 0.2530
vn -0.6676 0.7003 0.2530
vn 0.7223 0.6854 -0.0926
vn 0.7223 -0.6854 -0.0926
vn -0.7139 0.6902 -0.1184
vn -0.7139 -0.6902 -0.1184
vn 0.6223 -0.6892 0.3711
vn 0.5928 0.7296 0.3409
vn 0.5928 -0.7296 0.3409
vn 0.1234 0.6943 -0.7090
vn 0.2045 -0.6943 -0.6900
vn 0.1234 -0.6943 -0.7090
vn 0.6474 0.7193 0.2521
vn 0.6707 0.7206 0.1756
vn 0.6474 -0.7193 0.2521
vn 0.2660 0.6993 -0.6635
vn 0.3105 0.6997 -0.6434
vn 0.2660 -0.6993 -0.6635
vn 0.7061 -0.6892 -0.1623
vn 0.6537 0.7355 -0.1782
vn 0.4300 -0.6873 0.5855
vn 0.3126 0.6855 0.6576
vn 0.3126 -0.6855 0.6576
vn -0.3492 -0.6887 -0.6354
vn -0.3492 0.6887 -0.6354
vn 0.6700 0.6884 -0.2779
vn 0.7061 0.6892 -0.1623
vn -0.4506 -0.6887 -0.5681
vn -0.1553 -0.6829 0.7139
vn -0.3495 0.6718 0.6531
vn -0.3495 -0.6718 0.6531
vn -0.6688 -0.7191 0.1885
vn -0.7144 0.6824 0.1548
vn -0.5044 -0.6839 0.5271
vn 0.4811 0.6947 -0.5347
vn 0.1686 0.6828 0.7109
vn 0.0671 -0.7026 -0.7084
vn 0.0671 0.7026 -0.7084
vn 0.1059 0.7256 -0.6799
vn 0.3449 -0.7228 -0.5989
vn 0.6705 -0.7193 0.1820
vn 0.6681 0.7435 0.0292
vn -0.7199 0.6934 0.0311
vn -0.7144 0.6985 -0.0412
vn -0.6962 0.7173 0.0273
vn -0.6962 -0.7173 0.0273
vn -0.5998 -0.7007 0.3862
vn -0.5998 0.7007 0.3862
vn -0.6195 0.7013 0.3526
vn -0.6195 -0.7013 0.3527
vn -0.6363 -0.7016 0.3207
vn 0.6700 -0.6884 -0.2779
vn 0.6152 -0.6907 -0.3802
vn -0.6688 0.7191 0.1885
vn -0.6918 -0.7167 0.0877
vn 0.4810 -0.6947 -0.5348
vn 0.4237 -0.6973 -0.5781
vn 0.4237 0.6973 -0.5781
vn 0.3475 -0.7012 -0.6225
vn 0.7236 0.6891 0.0392
vn 0.2701 -0.7197 -0.6397
vn -0.6867 -0.6977 0.2043
vn 0.3105 -0.6997 -0.6434
vn -0.6867 0.6977 0.2043
vn 0.2045 0.6943 -0.6900
vn 0.2701 0.7197 -0.6397
g GasCloud1_Mesh3_Model_Default_OBJ.003
s 1
f 78/1/1 81/2/2 136/3/3
f 11/4/4 12/5/5 13/6/6
f 5/7/7 28/8/8 30/9/9
f 117/10/10 122/11/11 46/12/12
f 115/13/13 105/14/14 20/15/15
f 129/16/16 9/17/17 96/18/18
f 83/19/19 16/20/20 14/21/21
f 86/22/22 15/23/23 83/19/19
f 136/3/3 49/24/24 80/25/25
f 47/26/26 7/27/27 5/7/7
f 3/28/28 30/9/9 28/8/8
f 124/29/29 111/30/30 110/31/31
f 48/32/32 54/33/33 53/34/34
f 14/21/21 18/35/35 17/36/36
f 67/37/37 132/38/38 133/39/39
f 103/40/40 99/41/41 104/42/42
f 55/43/43 56/44/44 57/45/45
f 64/46/46 36/47/47 34/48/48
f 82/49/49 24/50/50 22/51/51
f 51/52/52 62/53/53 61/54/54
f 43/55/55 40/56/56 73/57/57
f 131/58/58 61/54/54 62/53/53
f 72/59/59 22/51/51 24/50/50
f 85/60/60 59/61/61 76/62/62
f 80/25/25 50/63/63 48/32/32
f 6/64/64 39/65/65 41/66/66
f 53/34/34 77/67/67 85/60/60
f 32/68/68 26/69/69 109/70/70
f 19/71/71 105/14/14 21/72/72
f 10/73/73 131/58/58 8/74/74
f 34/48/48 2/75/75 1/76/76
f 52/77/77 127/78/78 70/79/79
f 118/80/80 4/81/81 119/82/82
f 134/83/83 89/84/84 135/85/85
f 93/86/86 90/87/87 94/88/88
f 25/89/89 130/90/90 129/16/16
f 74/91/91 44/92/92 42/93/93
f 76/62/62 60/94/94 58/95/95
f 25/89/89 106/96/96 108/97/97
f 58/95/95 84/98/98 86/22/22
f 48/32/32 58/95/95 17/36/36
f 8/74/74 9/17/17 10/73/73
f 45/99/99 69/100/100 71/101/101
f 63/102/102 35/103/103 64/46/46
f 71/101/101 26/69/69 68/104/104
f 73/57/57 41/66/66 39/65/65
f 111/30/30 27/105/105 110/31/31
f 18/35/35 2/75/75 17/36/36
f 23/106/106 42/93/93 44/92/92
f 119/82/82 121/107/107 118/80/80
f 121/107/107 122/11/11 120/108/108
f 118/80/80 121/107/107 120/108/108
f 87/109/109 120/108/108 122/11/11
f 78/1/1 79/110/110 81/2/2
f 88/111/111 89/84/84 3/28/28
f 89/84/84 29/112/112 3/28/28
f 97/113/113 98/114/114 99/41/41
f 98/114/114 13/6/6 12/5/5
f 99/41/41 98/114/114 12/5/5
f 13/6/6 66/115/115 100/116/116
f 13/6/6 100/116/116 11/4/4
f 5/7/7 7/27/27 28/8/8
f 117/10/10 87/109/109 122/11/11
f 31/117/117 32/68/68 109/70/70
f 33/118/118 113/119/119 114/120/120
f 113/119/119 115/13/13 114/120/120
f 31/117/117 109/70/70 33/118/118
f 20/15/15 116/121/121 115/13/13
f 116/121/121 114/120/120 115/13/13
f 114/120/120 31/117/117 33/118/118
f 129/16/16 130/90/90 9/17/17
f 83/19/19 15/23/23 16/20/20
f 107/122/122 123/123/123 106/96/96
f 124/29/29 106/96/96 123/123/123
f 86/22/22 84/98/98 15/23/23
f 136/3/3 81/2/2 49/24/24
f 47/26/26 6/64/64 7/27/27
f 3/28/28 29/112/112 30/9/9
f 124/29/29 123/123/123 111/30/30
f 48/32/32 50/63/63 54/33/33
f 14/21/21 16/20/20 18/35/35
f 132/38/38 128/124/124 63/102/102
f 133/39/39 65/125/125 67/37/37
f 65/125/125 100/116/116 67/37/37
f 132/38/38 63/102/102 133/39/39
f 100/116/116 66/115/115 67/37/37
f 103/40/40 97/113/113 99/41/41
f 112/126/126 126/127/127 27/105/105
f 126/127/127 55/43/43 125/128/128
f 27/105/105 126/127/127 125/128/128
f 55/43/43 92/129/129 56/44/44
f 57/45/45 125/128/128 55/43/43
f 64/46/46 35/103/103 36/47/47
f 82/49/49 23/106/106 24/50/50
f 51/52/52 52/77/77 62/53/53
f 43/55/55 74/91/91 40/56/56
f 131/58/58 75/130/130 61/54/54
f 72/59/59 45/99/99 22/51/51
f 85/60/60 77/67/67 59/61/61
f 80/25/25 49/24/24 50/63/63
f 16/20/20 15/23/23 59/61/61
f 15/23/23 84/98/98 60/94/94
f 59/61/61 15/23/23 60/94/94
f 59/61/61 77/67/67 54/33/33
f 54/33/33 50/63/63 49/24/24
f 49/24/24 81/2/2 18/35/35
f 81/2/2 79/110/110 18/35/35
f 54/33/33 49/24/24 18/35/35
f 59/61/61 54/33/33 18/35/35
f 18/35/35 16/20/20 59/61/61
f 34/48/48 1/76/76 46/12/12
f 1/76/76 18/35/35 79/110/110
f 63/102/102 64/46/46 129/16/16
f 64/46/46 34/48/48 122/11/11
f 46/12/12 1/76/76 37/131/131
f 37/131/131 1/76/76 79/110/110
f 133/39/39 63/102/102 8/74/74
f 34/48/48 46/12/12 122/11/11
f 65/125/125 133/39/39 8/74/74
f 129/16/16 64/46/46 55/43/43
f 100/116/116 65/125/125 131/58/58
f 63/102/102 129/16/16 96/18/18
f 63/102/102 96/18/18 8/74/74
f 11/4/4 100/116/116 131/58/58
f 99/41/41 12/5/5 131/58/58
f 12/5/5 11/4/4 131/58/58
f 122/11/11 121/107/107 64/46/46
f 121/107/107 119/82/82 94/88/88
f 94/88/88 119/82/82 4/81/81
f 65/125/125 8/74/74 131/58/58
f 104/42/42 99/41/41 131/58/58
f 19/71/71 102/132/132 70/79/79
f 102/132/132 104/42/42 131/58/58
f 116/121/121 135/85/85 88/111/111
f 116/121/121 20/15/15 135/85/85
f 20/15/15 19/71/71 70/79/79
f 116/121/121 88/111/111 114/120/120
f 31/117/117 114/120/120 3/28/28
f 3/28/28 114/120/120 88/111/111
f 68/104/104 32/68/68 3/28/28
f 32/68/68 31/117/117 3/28/28
f 45/99/99 71/101/101 82/49/49
f 71/101/101 68/104/104 41/66/66
f 82/49/49 71/101/101 42/93/93
f 82/49/49 22/51/51 45/99/99
f 74/91/91 42/93/93 71/101/101
f 41/66/66 40/56/56 71/101/101
f 40/56/56 74/91/91 71/101/101
f 7/27/27 6/64/64 68/104/104
f 6/64/64 41/66/66 68/104/104
f 3/28/28 28/8/8 68/104/104
f 28/8/8 7/27/27 68/104/104
f 64/46/46 94/88/88 91/133/133
f 121/107/107 94/88/88 64/46/46
f 91/133/133 92/129/129 64/46/46
f 92/129/129 55/43/43 64/46/46
f 55/43/43 126/127/127 129/16/16
f 126/127/127 112/126/126 25/89/89
f 25/89/89 112/126/126 111/30/30
f 111/30/30 123/123/123 107/122/122
f 25/89/89 129/16/16 126/127/127
f 131/58/58 62/53/53 52/77/77
f 52/77/77 70/79/79 131/58/58
f 107/122/122 25/89/89 111/30/30
f 131/58/58 70/79/79 102/132/132
f 135/85/85 20/15/15 70/79/79
f 6/64/64 47/26/26 39/65/65
f 53/34/34 54/33/33 77/67/67
f 32/68/68 68/104/104 26/69/69
f 104/42/42 102/132/132 103/40/40
f 102/132/132 19/71/71 101/134/134
f 103/40/40 102/132/132 101/134/134
f 19/71/71 20/15/15 105/14/14
f 21/72/72 101/134/134 19/71/71
f 10/73/73 75/130/130 131/58/58
f 34/48/48 36/47/47 2/75/75
f 52/77/77 51/52/52 127/78/78
f 118/80/80 95/135/135 4/81/81
f 78/1/1 38/136/136 79/110/110
f 79/110/110 38/136/136 37/131/131
f 38/136/136 117/10/10 46/12/12
f 46/12/12 37/131/131 38/136/136
f 88/111/111 135/85/85 89/84/84
f 135/85/85 70/79/79 127/78/78
f 127/78/78 134/83/83 135/85/85
f 56/44/44 92/129/129 91/133/133
f 94/88/88 4/81/81 95/135/135
f 56/44/44 91/133/133 90/87/87
f 91/133/133 94/88/88 90/87/87
f 95/135/135 93/86/86 94/88/88
f 25/89/89 108/97/97 130/90/90
f 74/91/91 43/55/55 44/92/92
f 76/62/62 59/61/61 60/94/94
f 25/89/89 107/122/122 106/96/96
f 58/95/95 60/94/94 84/98/98
f 95/135/135 118/80/80 93/86/86
f 118/80/80 120/108/108 93/86/86
f 120/108/108 87/109/109 35/103/103
f 90/87/87 93/86/86 35/103/103
f 35/103/103 93/86/86 120/108/108
f 57/45/45 56/44/44 35/103/103
f 56/44/44 90/87/87 35/103/103
f 27/105/105 125/128/128 108/97/97
f 125/128/128 57/45/45 130/90/90
f 27/105/105 108/97/97 110/31/31
f 124/29/29 110/31/31 106/96/96
f 106/96/96 110/31/31 108/97/97
f 130/90/90 108/97/97 125/128/128
f 10/73/73 9/17/17 128/124/124
f 9/17/17 130/90/90 128/124/124
f 61/54/54 75/130/130 51/52/52
f 75/130/130 10/73/73 67/37/37
f 127/78/78 75/130/130 101/134/134
f 127/78/78 51/52/52 75/130/130
f 10/73/73 132/38/38 67/37/37
f 132/38/38 10/73/73 128/124/124
f 128/124/124 130/90/90 35/103/103
f 57/45/45 35/103/103 130/90/90
f 35/103/103 87/109/109 36/47/47
f 134/83/83 127/78/78 105/14/14
f 87/109/109 117/10/10 36/47/47
f 89/84/84 134/83/83 115/13/13
f 75/130/130 67/37/37 66/115/115
f 75/130/130 66/115/115 13/6/6
f 117/10/10 38/136/136 2/75/75
f 29/112/112 89/84/84 33/118/118
f 75/130/130 13/6/6 98/114/114
f 75/130/130 98/114/114 97/113/113
f 36/47/47 117/10/10 2/75/75
f 5/7/7 30/9/9 26/69/69
f 30/9/9 29/112/112 26/69/69
f 78/1/1 136/3/3 17/36/36
f 136/3/3 80/25/25 17/36/36
f 75/130/130 97/113/113 103/40/40
f 38/136/136 78/1/1 2/75/75
f 47/26/26 5/7/7 26/69/69
f 73/57/57 39/65/65 69/100/100
f 39/65/65 47/26/26 26/69/69
f 69/100/100 39/65/65 26/69/69
f 44/92/92 43/55/55 69/100/100
f 43/55/55 73/57/57 69/100/100
f 24/50/50 23/106/106 44/92/92
f 69/100/100 72/59/59 44/92/92
f 72/59/59 24/50/50 44/92/92
f 109/70/70 26/69/69 29/112/112
f 113/119/119 33/118/118 89/84/84
f 33/118/118 109/70/70 29/112/112
f 105/14/14 115/13/13 134/83/83
f 115/13/13 113/119/119 89/84/84
f 101/134/134 21/72/72 127/78/78
f 21/72/72 105/14/14 127/78/78
f 103/40/40 101/134/134 75/130/130
f 80/25/25 48/32/32 17/36/36
f 48/32/32 53/34/34 85/60/60
f 85/60/60 76/62/62 48/32/32
f 76/62/62 58/95/95 48/32/32
f 58/95/95 86/22/22 83/19/19
f 83/19/19 14/21/21 58/95/95
f 14/21/21 17/36/36 58/95/95
f 17/36/36 2/75/75 78/1/1
f 8/74/74 96/18/18 9/17/17
f 45/99/99 72/59/59 69/100/100
f 63/102/102 128/124/124 35/103/103
f 71/101/101 69/100/100 26/69/69
f 73/57/57 40/56/56 41/66/66
f 111/30/30 112/126/126 27/105/105
f 18/35/35 1/76/76 2/75/75
f 23/106/106 82/49/49 42/93/93
