# Blender v2.82 (sub 7) OBJ File: ''
# www.blender.org
o GasCloud1_Mesh3_Model
v -4.339968 0.032692 -0.668416
v -3.191890 0.032693 -3.852968
v 0.261828 0.032693 -4.964526
v 1.511528 0.032693 -4.616508
v 2.136378 0.032693 -4.260581
v 2.974784 0.032693 -3.588274
v 3.765733 0.032692 -2.386032
v 3.433534 0.032692 -3.026700
v 4.177027 0.032692 -0.986051
v -4.271630 0.032692 0.069635
v 4.275434 0.032692 -0.018385
v 4.259032 0.032692 0.932881
v -3.998279 0.032692 1.504733
v -3.765929 0.032692 2.215449
v 4.188180 0.032692 1.641409
v 3.857533 0.032692 2.727820
v -2.740859 0.032691 3.869229
v -3.205557 0.032691 3.322525
v 3.526886 0.032691 3.389113
v 3.030916 0.032691 4.003172
v 2.275152 0.032691 4.593612
v 1.646442 0.032691 4.935302
v 0.225011 0.032691 5.208654
v -1.866132 0.032691 4.593612
v 0.935727 0.032691 5.153984
v -0.513039 0.032691 5.153984
v -1.237422 0.032691 4.921635
v -4.271630 0.032692 -1.898500
v -4.052949 0.032692 -2.609216
v -3.724926 0.032693 -3.251593
v -2.535845 0.032693 -4.413340
v -1.876861 0.032693 -4.757712
v -1.179814 0.032693 -4.979075
v -0.133647 0.032693 -5.011983
v -0.452876 0.032693 -5.041921
v -4.339968 0.032692 -0.668416
v 0.261828 0.032693 -4.964526
v -3.191890 0.032693 -3.852968
v 2.136378 0.032693 -4.260581
v 1.511528 0.032693 -4.616508
v 3.765733 0.032692 -2.386032
v 2.974784 0.032693 -3.588274
v 3.433534 0.032692 -3.026700
v -4.271630 0.032692 0.069635
v 4.177027 0.032692 -0.986051
v 4.275434 0.032692 -0.018385
v -3.998279 0.032692 1.504733
v 4.259032 0.032692 0.932881
v -3.765929 0.032692 2.215449
v 4.188180 0.032692 1.641409
v -2.740859 0.032691 3.869229
v 3.857533 0.032692 2.727820
v -3.205557 0.032691 3.322525
v 3.030916 0.032691 4.003172
v 3.526886 0.032691 3.389113
v 2.275152 0.032691 4.593612
v 0.225011 0.032691 5.208654
v 1.646442 0.032691 4.935302
v -1.866132 0.032691 4.593612
v 0.935727 0.032691 5.153984
v -1.237422 0.032691 4.921635
v -0.513039 0.032691 5.153984
v -4.271630 0.032692 -1.898500
v -4.052949 0.032692 -2.609216
v -3.724926 0.032693 -3.251593
v -1.876861 0.032693 -4.757712
v -2.535845 0.032693 -4.413340
v -0.133647 0.032693 -5.011983
v -1.179814 0.032693 -4.979075
v -0.452876 0.032693 -5.041921
vn -0.0000 -1.0000 -0.0000
vn 0.0000 1.0000 0.0000
s off
f 1//1 2//1 3//1
f 3//1 4//1 5//1
f 5//1 6//1 7//1
f 6//1 8//1 7//1
f 7//1 9//1 10//1
f 5//1 7//1 10//1
f 9//1 11//1 10//1
f 11//1 12//1 13//1
f 13//1 12//1 14//1
f 12//1 15//1 14//1
f 15//1 16//1 17//1
f 14//1 15//1 18//1
f 16//1 19//1 20//1
f 20//1 21//1 16//1
f 21//1 22//1 23//1
f 16//1 21//1 24//1
f 22//1 25//1 23//1
f 23//1 26//1 27//1
f 27//1 24//1 21//1
f 24//1 17//1 16//1
f 17//1 18//1 15//1
f 13//1 10//1 11//1
f 10//1 1//1 5//1
f 1//1 28//1 2//1
f 5//1 1//1 3//1
f 28//1 29//1 2//1
f 29//1 30//1 2//1
f 2//1 31//1 32//1
f 32//1 33//1 34//1
f 33//1 35//1 34//1
f 34//1 3//1 2//1
f 23//1 27//1 21//1
f 34//1 2//1 32//1
f 36//2 37//2 38//2
f 37//2 39//2 40//2
f 39//2 41//2 42//2
f 42//2 41//2 43//2
f 41//2 44//2 45//2
f 39//2 44//2 41//2
f 45//2 44//2 46//2
f 46//2 47//2 48//2
f 47//2 49//2 48//2
f 48//2 49//2 50//2
f 50//2 51//2 52//2
f 49//2 53//2 50//2
f 52//2 54//2 55//2
f 54//2 52//2 56//2
f 56//2 57//2 58//2
f 52//2 59//2 56//2
f 58//2 57//2 60//2
f 57//2 61//2 62//2
f 61//2 56//2 59//2
f 59//2 52//2 51//2
f 51//2 50//2 53//2
f 47//2 46//2 44//2
f 44//2 39//2 36//2
f 36//2 38//2 63//2
f 39//2 37//2 36//2
f 63//2 38//2 64//2
f 64//2 38//2 65//2
f 38//2 66//2 67//2
f 66//2 68//2 69//2
f 69//2 68//2 70//2
f 68//2 38//2 37//2
f 57//2 56//2 61//2
f 68//2 66//2 38//2
