# Blender v2.82 (sub 7) OBJ File: ''
# www.blender.org
o GasCloud3_Mesh1_Model.008
v -4.041224 -0.001605 -1.912627
v -2.515917 -0.001604 -4.143184
v -3.516387 -0.001604 -3.126312
v 0.594834 -0.001604 -4.874022
v 0.006367 -0.001604 -4.930970
v 1.268724 -0.001604 -4.646228
v -1.531848 -0.001604 -4.651619
v 1.933122 -0.001604 -4.323520
v -0.892203 -0.001604 -4.881235
v 3.005651 -0.001604 -3.393363
v 3.451746 -0.001605 -2.852353
v 2.502834 -0.001606 3.876977
v 4.011739 -0.001605 -2.093040
v 4.569378 -0.001605 -0.748146
v 4.356164 -0.001605 -1.469797
v 4.585780 -0.001605 0.941172
v 4.667785 -0.001605 0.235923
v 3.929734 -0.001605 2.499281
v 4.405367 -0.001605 1.646421
v 3.454101 -0.001606 3.106123
v -4.385648 -0.001605 0.875568
v 1.354754 -0.001606 4.500221
v -2.909544 -0.001606 3.729367
v -0.350965 -0.001606 4.828244
v 0.616702 -0.001606 4.746238
v -1.056215 -0.001606 4.746238
v -1.712261 -0.001606 4.549425
v -2.384708 -0.001606 4.188600
v -4.123230 -0.001605 2.023648
v -3.778805 -0.001605 2.728897
v -4.434851 -0.001605 -0.567733
v -4.500456 -0.001605 0.170318
v -3.877212 -0.001605 -2.453865
v -3.089957 -0.001604 -3.700352
v -4.041224 -0.001605 -1.912627
v -3.516387 -0.001604 -3.126312
v -2.515917 -0.001604 -4.143184
v 0.594834 -0.001604 -4.874022
v 1.268724 -0.001604 -4.646228
v 0.006367 -0.001604 -4.930970
v 1.933122 -0.001604 -4.323520
v -1.531848 -0.001604 -4.651619
v -0.892203 -0.001604 -4.881235
v 3.005651 -0.001604 -3.393363
v 3.451746 -0.001605 -2.852353
v 4.011739 -0.001605 -2.093040
v 2.502834 -0.001606 3.876977
v 4.356164 -0.001605 -1.469797
v 4.569378 -0.001605 -0.748146
v 4.585780 -0.001605 0.941172
v 4.667785 -0.001605 0.235923
v 4.405367 -0.001605 1.646421
v 3.929734 -0.001605 2.499281
v 3.454101 -0.001606 3.106123
v 1.354754 -0.001606 4.500221
v -4.385648 -0.001605 0.875568
v -2.909544 -0.001606 3.729367
v 0.616702 -0.001606 4.746238
v -0.350965 -0.001606 4.828244
v -1.056215 -0.001606 4.746238
v -1.712261 -0.001606 4.549425
v -2.384708 -0.001606 4.188600
v -3.778805 -0.001605 2.728897
v -4.123230 -0.001605 2.023648
v -4.500456 -0.001605 0.170318
v -4.434851 -0.001605 -0.567733
v -3.877212 -0.001605 -2.453865
v -3.089957 -0.001604 -3.700352
vn -0.0000 1.0000 0.0000
vn 0.0000 -1.0000 -0.0000
s off
f 1//1 2//1 3//1
f 4//1 5//1 6//1
f 6//1 7//1 8//1
f 5//1 9//1 7//1
f 8//1 1//1 10//1
f 10//1 1//1 11//1
f 8//1 7//1 1//1
f 11//1 12//1 13//1
f 13//1 14//1 15//1
f 16//1 17//1 14//1
f 13//1 16//1 14//1
f 16//1 18//1 19//1
f 18//1 13//1 20//1
f 20//1 13//1 12//1
f 12//1 21//1 22//1
f 21//1 23//1 22//1
f 22//1 24//1 25//1
f 24//1 23//1 26//1
f 26//1 23//1 27//1
f 27//1 23//1 28//1
f 23//1 29//1 30//1
f 29//1 23//1 21//1
f 21//1 31//1 32//1
f 31//1 11//1 1//1
f 21//1 11//1 31//1
f 1//1 3//1 33//1
f 3//1 2//1 34//1
f 2//1 1//1 7//1
f 7//1 6//1 5//1
f 16//1 13//1 18//1
f 22//1 23//1 24//1
f 12//1 11//1 21//1
f 35//2 36//2 37//2
f 38//2 39//2 40//2
f 39//2 41//2 42//2
f 40//2 42//2 43//2
f 41//2 44//2 35//2
f 44//2 45//2 35//2
f 41//2 35//2 42//2
f 45//2 46//2 47//2
f 46//2 48//2 49//2
f 50//2 49//2 51//2
f 46//2 49//2 50//2
f 50//2 52//2 53//2
f 53//2 54//2 46//2
f 54//2 47//2 46//2
f 47//2 55//2 56//2
f 56//2 55//2 57//2
f 55//2 58//2 59//2
f 59//2 60//2 57//2
f 60//2 61//2 57//2
f 61//2 62//2 57//2
f 57//2 63//2 64//2
f 64//2 56//2 57//2
f 56//2 65//2 66//2
f 66//2 35//2 45//2
f 56//2 66//2 45//2
f 35//2 67//2 36//2
f 36//2 68//2 37//2
f 37//2 42//2 35//2
f 42//2 40//2 39//2
f 50//2 53//2 46//2
f 55//2 59//2 57//2
f 47//2 56//2 45//2
