# Blender v2.82 (sub 7) OBJ File: ''
# www.blender.org
o GasCloud4_path819.002
v -0.002686 0.014060 -5.160208
v 4.610135 0.014059 -0.803653
v -4.216110 0.014059 -1.938066
v 0.718661 0.014060 -5.122242
v 1.288145 0.014060 -5.036819
v 3.917263 0.014060 -3.138539
v 4.467764 0.014059 -1.809742
v 1.990508 0.014060 -4.846991
v 2.645415 0.014060 -4.505301
v 3.214899 0.014060 -4.040222
v 4.258953 0.014059 -2.502614
v 4.818946 0.014059 -0.034850
v 4.866403 0.014059 0.686497
v -0.735929 0.014060 -5.117685
v -1.408237 0.014060 -4.919948
v -2.499748 0.014060 -4.342555
v -3.535893 0.014060 -3.314319
v -3.061323 0.014060 -3.883803
v -4.105377 0.014059 -2.270265
v -4.544133 0.014059 -0.038267
v -4.475795 0.014059 -0.789986
v -4.462128 0.014059 0.686117
v -4.202443 0.014059 1.711188
v -3.245709 0.014058 3.296633
v -3.724076 0.014059 2.681590
v -1.564592 0.014058 4.513051
v -2.193303 0.014058 4.157693
v -0.730868 0.014058 4.772736
v 0.594892 0.014058 4.882077
v 2.016324 0.014058 4.622392
v 1.332943 0.014058 4.813739
v 2.576696 0.014058 4.321704
v 3.191740 0.014058 3.939011
v 4.189476 0.014059 2.954942
v 3.752112 0.014058 3.460644
v 4.572169 0.014059 2.271561
v 4.818945 0.014059 1.407843
v -0.002686 0.014060 -5.160208
v -4.216110 0.014059 -1.938066
v 4.610135 0.014059 -0.803653
v 0.718661 0.014060 -5.122242
v 3.917263 0.014060 -3.138539
v 1.288145 0.014060 -5.036819
v 4.467764 0.014059 -1.809742
v 2.645415 0.014060 -4.505301
v 1.990508 0.014060 -4.846991
v 3.214899 0.014060 -4.040222
v 4.258953 0.014059 -2.502614
v 4.866403 0.014059 0.686497
v 4.818946 0.014059 -0.034850
v -0.735929 0.014060 -5.117685
v -1.408237 0.014060 -4.919948
v -2.499748 0.014060 -4.342555
v -3.535893 0.014060 -3.314319
v -3.061323 0.014060 -3.883803
v -4.105377 0.014059 -2.270265
v -4.544133 0.014059 -0.038267
v -4.462128 0.014059 0.686117
v -4.475795 0.014059 -0.789986
v -4.202443 0.014059 1.711188
v -3.245709 0.014058 3.296633
v -3.724076 0.014059 2.681590
v -1.564592 0.014058 4.513051
v -0.730868 0.014058 4.772736
v -2.193303 0.014058 4.157693
v 0.594892 0.014058 4.882077
v 2.016324 0.014058 4.622392
v 2.576696 0.014058 4.321704
v 1.332943 0.014058 4.813739
v 3.191740 0.014058 3.939011
v 4.189476 0.014059 2.954942
v 4.572169 0.014059 2.271561
v 3.752112 0.014058 3.460644
v 4.818945 0.014059 1.407843
vn 0.0000 -1.0000 -0.0000
vn -0.0000 1.0000 0.0000
s off
f 1//1 2//1 3//1
f 1//1 4//1 2//1
f 4//1 5//1 6//1
f 2//1 4//1 7//1
f 5//1 8//1 9//1
f 9//1 10//1 5//1
f 10//1 6//1 5//1
f 6//1 11//1 7//1
f 2//1 12//1 13//1
f 6//1 7//1 4//1
f 14//1 1//1 15//1
f 16//1 1//1 17//1
f 16//1 15//1 1//1
f 17//1 18//1 16//1
f 3//1 19//1 17//1
f 20//1 21//1 22//1
f 21//1 3//1 2//1
f 23//1 22//1 2//1
f 2//1 22//1 21//1
f 24//1 25//1 23//1
f 26//1 27//1 28//1
f 27//1 24//1 2//1
f 29//1 28//1 2//1
f 2//1 28//1 27//1
f 30//1 31//1 32//1
f 31//1 29//1 32//1
f 33//1 32//1 2//1
f 2//1 32//1 29//1
f 34//1 35//1 36//1
f 35//1 33//1 13//1
f 37//1 36//1 35//1
f 2//1 13//1 33//1
f 13//1 37//1 35//1
f 3//1 17//1 1//1
f 24//1 23//1 2//1
f 38//2 39//2 40//2
f 38//2 40//2 41//2
f 41//2 42//2 43//2
f 40//2 44//2 41//2
f 43//2 45//2 46//2
f 45//2 43//2 47//2
f 47//2 43//2 42//2
f 42//2 44//2 48//2
f 40//2 49//2 50//2
f 42//2 41//2 44//2
f 51//2 52//2 38//2
f 53//2 54//2 38//2
f 53//2 38//2 52//2
f 54//2 53//2 55//2
f 39//2 54//2 56//2
f 57//2 58//2 59//2
f 59//2 40//2 39//2
f 60//2 40//2 58//2
f 40//2 59//2 58//2
f 61//2 60//2 62//2
f 63//2 64//2 65//2
f 65//2 40//2 61//2
f 66//2 40//2 64//2
f 40//2 65//2 64//2
f 67//2 68//2 69//2
f 69//2 68//2 66//2
f 70//2 40//2 68//2
f 40//2 66//2 68//2
f 71//2 72//2 73//2
f 73//2 49//2 70//2
f 74//2 73//2 72//2
f 40//2 70//2 49//2
f 49//2 73//2 74//2
f 39//2 38//2 54//2
f 61//2 40//2 60//2
