# Blender v2.91.0 OBJ File: ''
# www.blender.org
o Pride_Junk3_Plane
v -0.106979 0.000000 -0.298988
v -0.085480 0.000000 -0.355421
v 0.135744 0.000000 -0.336042
v -0.306738 -0.000000 0.332889
v -0.292832 -0.000000 0.301757
v -0.243206 -0.000000 0.277770
v -0.312310 -0.000000 0.400646
v -0.279207 -0.000000 0.450350
v -0.222926 -0.000000 0.480006
v -0.024809 -0.000000 0.493055
v -0.087135 -0.000000 0.490558
v -0.207450 -0.000000 0.232854
v -0.144777 -0.000000 0.474924
v 0.042107 -0.000000 0.473592
v 0.166094 -0.000000 0.361049
v 0.105960 -0.000000 0.420166
v -0.178104 -0.000000 0.176304
v 0.273339 -0.000000 0.322827
v 0.220671 -0.000000 0.342667
v 0.305589 -0.000000 0.267204
v 0.308014 -0.000000 0.182785
v 0.259773 -0.000000 0.024975
v 0.287914 -0.000000 0.103418
v -0.164289 -0.000000 0.113002
v 0.183865 0.000000 -0.209701
v 0.220666 0.000000 -0.141284
v -0.127307 0.000000 -0.154765
v -0.153581 0.000000 -0.090473
v 0.159835 0.000000 -0.298937
v 0.174423 0.000000 -0.250162
v -0.115484 0.000000 -0.221672
v -0.170010 -0.000000 0.045735
v -0.170037 0.000000 -0.011957
v 0.088048 0.000000 -0.463758
v 0.106737 0.000000 -0.414557
v -0.005599 0.000000 -0.426982
v 0.120634 0.000000 -0.366847
v -0.041837 0.000000 -0.399368
v 0.064912 0.000000 -0.486401
v 0.017712 0.000000 -0.471946
v 0.038884 0.000000 -0.492511
v -0.106979 0.025004 -0.298988
v 0.135744 0.025004 -0.336042
v -0.085480 0.025004 -0.355421
v -0.306738 0.025004 0.332889
v -0.243206 0.025004 0.277770
v -0.292832 0.025004 0.301757
v -0.312310 0.025004 0.400646
v -0.279207 0.025004 0.450350
v -0.222926 0.025004 0.480006
v -0.024809 0.025004 0.493055
v -0.207450 0.025004 0.232854
v -0.087135 0.025004 0.490558
v -0.144777 0.025004 0.474924
v 0.042107 0.025004 0.473592
v 0.166094 0.025004 0.361049
v -0.178104 0.025004 0.176304
v 0.105960 0.025004 0.420166
v 0.273339 0.025004 0.322827
v 0.305589 0.025004 0.267204
v 0.220671 0.025004 0.342667
v 0.308014 0.025004 0.182785
v 0.259773 0.025004 0.024975
v -0.164289 0.025004 0.113002
v 0.287914 0.025004 0.103418
v 0.183865 0.025004 -0.209701
v -0.127307 0.025004 -0.154765
v 0.220666 0.025004 -0.141284
v -0.153581 0.025004 -0.090473
v 0.159835 0.025004 -0.298937
v -0.115484 0.025004 -0.221672
v 0.174423 0.025004 -0.250162
v -0.170010 0.025004 0.045735
v -0.170037 0.025004 -0.011957
v 0.088048 0.025004 -0.463758
v -0.005599 0.025004 -0.426982
v 0.106737 0.025004 -0.414557
v 0.120634 0.025004 -0.366847
v -0.041837 0.025004 -0.399368
v 0.064912 0.025004 -0.486401
v 0.017712 0.025004 -0.471946
v 0.038884 0.025004 -0.492511
vt 0.342947 0.787950
vt 0.376366 0.843162
vt 0.720238 0.824201
vt 0.023078 0.167618
vt 0.056731 0.192961
vt 0.133871 0.217708
vt 0.023781 0.103458
vt 0.075235 0.054830
vt 0.162719 0.025817
vt 0.470674 0.013050
vt 0.373793 0.015492
vt 0.186775 0.267619
vt 0.284194 0.030788
vt 0.574689 0.032091
vt 0.767414 0.142198
vt 0.673942 0.084362
vt 0.232391 0.322945
vt 0.934116 0.179593
vt 0.852248 0.160183
vt 0.984246 0.234012
vt 0.988015 0.316605
vt 0.913029 0.470998
vt 0.956772 0.394253
vt 0.253865 0.384877
vt 0.795038 0.700596
vt 0.852242 0.633659
vt 0.311350 0.646848
vt 0.270510 0.583948
vt 0.757685 0.787900
vt 0.780361 0.740181
vt 0.329728 0.712307
vt 0.244972 0.450688
vt 0.244931 0.507131
vt 0.646099 0.949154
vt 0.675150 0.901018
vt 0.500534 0.913173
vt 0.696750 0.854340
vt 0.444206 0.886156
vt 0.610136 0.971306
vt 0.536768 0.957164
vt 0.569678 0.977284
vt 0.342947 0.787950
vt 0.720238 0.824201
vt 0.376366 0.843162
vt 0.023078 0.167618
vt 0.133871 0.217708
vt 0.056731 0.192961
vt 0.023781 0.103458
vt 0.075235 0.054830
vt 0.162719 0.025817
vt 0.470674 0.013050
vt 0.186775 0.267619
vt 0.373793 0.015492
vt 0.284194 0.030788
vt 0.574689 0.032091
vt 0.767414 0.142198
vt 0.232391 0.322945
vt 0.673942 0.084362
vt 0.934116 0.179593
vt 0.984246 0.234012
vt 0.852248 0.160183
vt 0.988015 0.316605
vt 0.913029 0.470998
vt 0.253865 0.384877
vt 0.956772 0.394253
vt 0.795038 0.700596
vt 0.311350 0.646848
vt 0.852242 0.633659
vt 0.270510 0.583948
vt 0.757685 0.787900
vt 0.329728 0.712307
vt 0.780361 0.740181
vt 0.244972 0.450688
vt 0.244931 0.507131
vt 0.646099 0.949154
vt 0.500534 0.913173
vt 0.675150 0.901018
vt 0.696750 0.854340
vt 0.444206 0.886156
vt 0.610136 0.971306
vt 0.536768 0.957164
vt 0.569678 0.977284
vt 0.090070 0.957479
vt 0.092993 0.953240
vt 0.095343 0.954522
vt 0.070273 0.857906
vt 0.064745 0.859836
vt 0.063667 0.857580
vt 0.038676 0.900025
vt 0.042383 0.908310
vt 0.039766 0.909678
vt 0.087494 0.962610
vt 0.092751 0.958946
vt 0.053812 0.869867
vt 0.048089 0.877136
vt 0.046098 0.875218
vt 0.037624 0.891102
vt 0.035794 0.900756
vt 0.086059 0.964724
vt 0.089882 0.964517
vt 0.092153 0.878543
vt 0.095754 0.873083
vt 0.098063 0.873994
vt 0.039534 0.884874
vt 0.034703 0.890671
vt 0.084003 0.964803
vt 0.086922 0.967196
vt 0.090810 0.886334
vt 0.094945 0.879533
vt 0.043340 0.880933
vt 0.037283 0.883452
vt 0.081523 0.963593
vt 0.083489 0.967363
vt 0.091591 0.894126
vt 0.093703 0.886423
vt 0.041586 0.879078
vt 0.078027 0.959635
vt 0.080001 0.965713
vt 0.093723 0.901454
vt 0.094443 0.893552
vt 0.093959 0.859487
vt 0.089576 0.856543
vt 0.090657 0.854152
vt 0.074556 0.955109
vt 0.075937 0.961425
vt 0.095066 0.907920
vt 0.096511 0.900812
vt 0.096334 0.864843
vt 0.095932 0.857920
vt 0.071939 0.952111
vt 0.072354 0.956992
vt 0.095903 0.916777
vt 0.097919 0.907500
vt 0.083794 0.855569
vt 0.083861 0.852949
vt 0.068623 0.948578
vt 0.069767 0.954046
vt 0.095603 0.924659
vt 0.098691 0.916700
vt 0.076239 0.857086
vt 0.069681 0.855521
vt 0.065490 0.943881
vt 0.066423 0.950242
vt 0.095935 0.932678
vt 0.098519 0.924619
vt 0.059281 0.863525
vt 0.057616 0.861551
vt 0.062950 0.939845
vt 0.063173 0.945428
vt 0.096326 0.941397
vt 0.098883 0.932554
vt 0.051737 0.868119
vt 0.057572 0.933219
vt 0.060611 0.941550
vt 0.095604 0.947586
vt 0.099176 0.941572
vt 0.096580 0.867977
vt 0.099176 0.868094
vt 0.098815 0.864323
vt 0.047406 0.916460
vt 0.055298 0.934789
vt 0.098164 0.948365
vt 0.075748 0.854433
vt 0.044915 0.918003
vn 0.0000 -1.0000 -0.0000
vn 0.0000 1.0000 0.0000
vn -0.7655 0.0000 -0.6434
vn -0.6594 0.0000 -0.7518
vn -0.1519 0.0000 0.9884
vn 0.1212 0.0000 0.9926
vn 0.9940 -0.0000 -0.1094
vn 0.9564 -0.0000 -0.2919
vn -0.8026 0.0000 -0.5965
vn 0.6719 0.0000 0.7406
vn 0.5234 0.0000 0.8521
vn 0.9619 0.0000 0.2735
vn -0.2669 0.0000 -0.9637
vn -0.8389 0.0000 -0.5443
vn -0.6244 0.0000 -0.7811
vn 0.6464 0.0000 0.7630
vn 0.4817 0.0000 -0.8763
vn -0.9405 0.0000 -0.3399
vn 0.3359 0.0000 0.9419
vn 0.8367 0.0000 -0.5477
vn -0.9979 -0.0000 -0.0650
vn 0.9482 0.0000 -0.3176
vn -0.9991 0.0000 0.0426
vn -0.9682 0.0000 0.2501
vn -0.6699 0.0000 0.7424
vn 0.9324 0.0000 -0.3614
vn -0.9947 -0.0000 -0.1029
vn -0.9686 0.0000 -0.2484
vn 0.8698 0.0000 -0.4934
vn -0.9561 0.0000 -0.2929
vn -0.2085 0.0000 0.9780
vn 0.9076 0.0000 -0.4198
vn -0.9607 0.0000 -0.2777
vn -0.0998 0.0000 0.9950
vn 0.9664 0.0000 -0.2570
vn -0.9899 0.0000 -0.1418
vn 0.4705 0.0000 0.8824
vn 0.9354 0.0000 -0.3536
vn -0.9721 0.0000 -0.2346
vn 0.9351 0.0000 -0.3544
vn -0.8403 0.0000 -0.5421
vn -0.7177 0.0000 -0.6964
vn 0.9589 -0.0000 -0.2838
s 1
f 1/1/1 2/2/1 3/3/1
f 4/4/1 5/5/1 6/6/1
f 7/7/1 4/4/1 8/8/1
f 4/4/1 6/6/1 8/8/1
f 9/9/1 8/8/1 6/6/1
f 10/10/1 11/11/1 12/12/1
f 11/11/1 13/13/1 12/12/1
f 13/13/1 9/9/1 6/6/1
f 6/6/1 12/12/1 13/13/1
f 14/14/1 10/10/1 12/12/1
f 15/15/1 16/16/1 17/17/1
f 16/16/1 14/14/1 12/12/1
f 17/17/1 16/16/1 12/12/1
f 18/18/1 19/19/1 20/20/1
f 19/19/1 15/15/1 21/21/1
f 21/21/1 20/20/1 19/19/1
f 22/22/1 23/23/1 24/24/1
f 23/23/1 21/21/1 15/15/1
f 24/24/1 23/23/1 15/15/1
f 25/25/1 26/26/1 27/27/1
f 26/26/1 22/22/1 28/28/1
f 27/27/1 26/26/1 28/28/1
f 29/29/1 30/30/1 31/31/1
f 30/30/1 25/25/1 31/31/1
f 3/3/1 29/29/1 31/31/1
f 25/25/1 27/27/1 31/31/1
f 24/24/1 32/32/1 22/22/1
f 32/32/1 33/33/1 22/22/1
f 17/17/1 24/24/1 15/15/1
f 34/34/1 35/35/1 36/36/1
f 35/35/1 37/37/1 36/36/1
f 37/37/1 3/3/1 38/38/1
f 33/33/1 28/28/1 22/22/1
f 3/3/1 31/31/1 1/1/1
f 39/39/1 34/34/1 40/40/1
f 40/40/1 41/41/1 39/39/1
f 2/2/1 38/38/1 3/3/1
f 38/38/1 36/36/1 37/37/1
f 36/36/1 40/40/1 34/34/1
f 42/42/2 43/43/2 44/44/2
f 45/45/2 46/46/2 47/47/2
f 48/48/2 49/49/2 45/45/2
f 45/45/2 49/49/2 46/46/2
f 50/50/2 46/46/2 49/49/2
f 51/51/2 52/52/2 53/53/2
f 53/53/2 52/52/2 54/54/2
f 54/54/2 46/46/2 50/50/2
f 46/46/2 54/54/2 52/52/2
f 55/55/2 52/52/2 51/51/2
f 56/56/2 57/57/2 58/58/2
f 58/58/2 52/52/2 55/55/2
f 57/57/2 52/52/2 58/58/2
f 59/59/2 60/60/2 61/61/2
f 61/61/2 62/62/2 56/56/2
f 62/62/2 61/61/2 60/60/2
f 63/63/2 64/64/2 65/65/2
f 65/65/2 56/56/2 62/62/2
f 64/64/2 56/56/2 65/65/2
f 66/66/2 67/67/2 68/68/2
f 68/68/2 69/69/2 63/63/2
f 67/67/2 69/69/2 68/68/2
f 70/70/2 71/71/2 72/72/2
f 72/72/2 71/71/2 66/66/2
f 43/43/2 71/71/2 70/70/2
f 66/66/2 71/71/2 67/67/2
f 64/64/2 63/63/2 73/73/2
f 73/73/2 63/63/2 74/74/2
f 57/57/2 56/56/2 64/64/2
f 75/75/2 76/76/2 77/77/2
f 77/77/2 76/76/2 78/78/2
f 78/78/2 79/79/2 43/43/2
f 74/74/2 63/63/2 69/69/2
f 43/43/2 42/42/2 71/71/2
f 80/80/2 81/81/2 75/75/2
f 81/81/2 80/80/2 82/82/2
f 44/44/2 43/43/2 79/79/2
f 79/79/2 78/78/2 76/76/2
f 76/76/2 75/75/2 81/81/2
f 36/83/3 38/84/4 79/85/4
f 11/86/5 10/87/6 51/88/6
f 21/89/7 23/90/8 65/91/8
f 40/92/9 36/83/3 76/93/3
f 16/94/10 15/95/11 56/96/11
f 20/97/12 21/89/7 62/98/7
f 41/99/13 40/92/9 81/100/9
f 12/101/14 6/102/15 46/103/15
f 18/104/16 20/97/12 60/105/12
f 39/106/17 41/99/13 82/107/13
f 17/108/18 12/101/14 52/109/14
f 19/110/19 18/104/16 59/111/16
f 34/112/20 39/106/17 80/113/17
f 24/114/21 17/108/18 57/115/18
f 15/95/11 19/110/19 61/116/19
f 35/117/22 34/112/20 75/118/20
f 32/119/23 24/114/21 64/120/21
f 7/121/24 8/122/25 49/123/25
f 37/124/26 35/117/22 77/125/22
f 33/126/27 32/119/23 73/127/23
f 4/128/28 7/121/24 48/129/24
f 3/130/29 37/124/26 78/131/26
f 28/132/30 33/126/27 74/133/27
f 8/122/25 9/134/31 50/135/31
f 29/136/32 3/130/29 43/137/29
f 27/138/33 28/132/30 69/139/30
f 13/140/34 11/86/5 53/141/5
f 30/142/35 29/136/32 70/143/32
f 31/144/36 27/138/33 67/145/33
f 10/87/6 14/146/37 55/147/37
f 25/148/38 30/142/35 72/149/35
f 1/150/39 31/144/36 71/151/36
f 14/146/37 16/94/10 58/152/10
f 26/153/40 25/148/38 66/154/38
f 2/155/41 1/150/39 42/156/39
f 6/102/15 5/157/42 47/158/42
f 5/157/42 4/128/28 45/159/28
f 22/160/43 26/153/40 68/161/40
f 38/84/4 2/155/41 44/162/41
f 9/134/31 13/140/34 54/163/34
f 23/90/8 22/160/43 63/164/43
f 36/83/3 79/85/4 76/93/3
f 11/86/5 51/88/6 53/141/5
f 21/89/7 65/91/8 62/98/7
f 40/92/9 76/93/3 81/100/9
f 16/94/10 56/96/11 58/152/10
f 20/97/12 62/98/7 60/105/12
f 41/99/13 81/100/9 82/107/13
f 12/101/14 46/103/15 52/109/14
f 18/104/16 60/105/12 59/111/16
f 39/106/17 82/107/13 80/113/17
f 17/108/18 52/109/14 57/115/18
f 19/110/19 59/111/16 61/116/19
f 34/112/20 80/113/17 75/118/20
f 24/114/21 57/115/18 64/120/21
f 15/95/11 61/116/19 56/96/11
f 35/117/22 75/118/20 77/125/22
f 32/119/23 64/120/21 73/127/23
f 7/121/24 49/123/25 48/129/24
f 37/124/26 77/125/22 78/131/26
f 33/126/27 73/127/23 74/133/27
f 4/128/28 48/129/24 45/159/28
f 3/130/29 78/131/26 43/137/29
f 28/132/30 74/133/27 69/139/30
f 8/122/25 50/135/31 49/123/25
f 29/136/32 43/137/29 70/143/32
f 27/138/33 69/139/30 67/145/33
f 13/140/34 53/141/5 54/163/34
f 30/142/35 70/143/32 72/149/35
f 31/144/36 67/145/33 71/151/36
f 10/87/6 55/147/37 51/88/6
f 25/148/38 72/149/35 66/154/38
f 1/150/39 71/151/36 42/156/39
f 14/146/37 58/152/10 55/147/37
f 26/153/40 66/154/38 68/161/40
f 2/155/41 42/156/39 44/162/41
f 6/102/15 47/158/42 46/103/15
f 5/157/42 45/159/28 47/158/42
f 22/160/43 68/161/40 63/164/43
f 38/84/4 44/162/41 79/85/4
f 9/134/31 54/163/34 50/135/31
f 23/90/8 63/164/43 65/91/8
