# Blender v2.91.0 OBJ File: ''
# www.blender.org
o Pride_Junk3_Plane
v -0.207450 -0.000000 0.232854
v 0.166094 -0.000000 0.361049
v 0.105960 -0.000000 0.420166
v -0.164289 -0.000000 0.113002
v -0.207450 0.025004 0.232854
v 0.166094 0.025004 0.361049
v 0.105960 0.025004 0.420166
v -0.164289 0.025004 0.113002
vt 0.186775 0.267619
vt 0.767414 0.142198
vt 0.673942 0.084362
vt 0.186775 0.267619
vt 0.767414 0.142198
vt 0.253865 0.384877
vt 0.099558 0.219092
vt 0.099555 0.219091
vt 0.099555 0.219091
vt 0.099570 0.219084
vt 0.099572 0.219087
vt 0.099570 0.219084
vt 0.253865 0.384877
vt 0.673942 0.084362
vt 0.099558 0.219092
vt 0.099572 0.219087
vn 0.0000 -1.0000 -0.0000
vn 0.0000 1.0000 0.0000
vn 0.7011 0.0000 0.7131
vn -0.9409 0.0000 -0.3388
s 1
f 1/1/1 2/2/1 3/3/1
f 5/4/2 6/5/2 8/6/2
f 7/7/3 2/8/3 6/9/3
f 4/10/4 5/11/4 8/12/4
f 1/1/1 4/13/1 2/2/1
f 5/4/2 7/14/2 6/5/2
f 7/7/3 3/15/3 2/8/3
f 4/10/4 1/16/4 5/11/4
o Pride_Junk3_Plane.001
v 0.088048 0.000000 -0.463758
v -0.005599 0.000000 -0.426982
v 0.120634 0.000000 -0.366847
v 0.064912 0.000000 -0.486401
v 0.017712 0.000000 -0.471946
v 0.038884 0.000000 -0.492511
v 0.088048 0.025004 -0.463758
v -0.005599 0.025004 -0.426982
v 0.120634 0.025004 -0.366847
v 0.064912 0.025004 -0.486401
v 0.017712 0.025004 -0.471946
v 0.038884 0.025004 -0.492511
vt 0.099562 0.219067
vt 0.099563 0.219068
vt 0.099563 0.219068
vt 0.500534 0.913173
vt 0.696750 0.854340
vt 0.646099 0.949154
vt 0.099559 0.219067
vt 0.099560 0.219067
vt 0.099560 0.219067
vt 0.099557 0.219070
vt 0.099559 0.219067
vt 0.646099 0.949154
vt 0.696750 0.854340
vt 0.500534 0.913173
vt 0.099561 0.219067
vt 0.099562 0.219067
vt 0.099561 0.219067
vt 0.610136 0.971306
vt 0.536768 0.957164
vt 0.569678 0.977284
vt 0.099557 0.219070
vt 0.536768 0.957164
vt 0.569678 0.977284
vt 0.610136 0.971306
vn -0.8026 0.0000 -0.5965
vn -0.8878 0.0000 -0.4603
vn -0.0000 1.0000 0.0000
vn 0.8471 0.0000 -0.5314
vn 0.4817 0.0000 -0.8763
vn 0.9479 0.0000 -0.3187
vn 0.0000 -1.0000 -0.0000
vn -0.2669 0.0000 -0.9637
s 1
f 19/17/5 10/18/6 16/19/6
f 16/20/7 17/21/7 15/22/7
f 15/23/8 12/24/9 18/25/9
f 17/26/10 9/27/8 15/23/8
f 9/28/11 11/29/11 10/30/11
f 20/31/12 13/32/5 19/17/5
f 18/25/9 14/33/12 20/31/12
f 19/17/5 13/32/5 10/18/6
f 15/22/7 18/34/7 19/35/7
f 18/34/7 20/36/7 19/35/7
f 19/35/7 16/20/7 15/22/7
f 15/23/8 9/27/8 12/24/9
f 17/26/10 11/37/10 9/27/8
f 10/30/11 13/38/11 9/28/11
f 13/38/11 14/39/11 12/40/11
f 9/28/11 13/38/11 12/40/11
f 20/31/12 14/33/12 13/32/5
f 18/25/9 12/24/9 14/33/12
o Pride_Junk3_Plane.002
v -0.106979 0.000000 -0.298988
v -0.085480 0.000000 -0.355421
v 0.135744 0.000000 -0.336042
v -0.115484 0.000000 -0.221672
v -0.005599 0.000000 -0.426982
v 0.120634 0.000000 -0.366847
v -0.041837 0.000000 -0.399368
v -0.106979 0.025004 -0.298988
v 0.135744 0.025004 -0.336042
v -0.085480 0.025004 -0.355421
v -0.115484 0.025004 -0.221672
v -0.005599 0.025004 -0.426982
v 0.120634 0.025004 -0.366847
v -0.041837 0.025004 -0.399368
vt 0.099565 0.219069
vt 0.099567 0.219070
vt 0.099567 0.219070
vt 0.099568 0.219072
vt 0.099568 0.219074
vt 0.099568 0.219074
vt 0.720238 0.824201
vt 0.329728 0.712307
vt 0.342947 0.787950
vt 0.444206 0.886156
vt 0.376366 0.843162
vt 0.720238 0.824201
vt 0.099557 0.219071
vt 0.099557 0.219070
vt 0.099557 0.219070
vt 0.099568 0.219072
vt 0.099563 0.219068
vt 0.099565 0.219069
vt 0.376366 0.843162
vt 0.444206 0.886156
vt 0.696750 0.854340
vt 0.500534 0.913173
vt 0.329728 0.712307
vt 0.342947 0.787950
vt 0.696750 0.854340
vt 0.500534 0.913173
vt 0.099557 0.219071
vt 0.099563 0.219068
vn -0.6594 0.0000 -0.7518
vn -0.8403 0.0000 -0.5421
vn -0.9721 0.0000 -0.2346
vn -0.9940 0.0000 -0.1093
vn 0.0000 -1.0000 -0.0000
vn 0.0000 1.0000 0.0000
vn 0.8978 0.0000 -0.4404
vn -0.6061 0.0000 -0.7954
s 1
f 34/41/13 22/42/14 30/43/14
f 28/44/15 24/45/16 31/46/16
f 23/47/17 24/48/17 21/49/17
f 34/50/18 30/51/18 29/52/18
f 29/53/19 26/54/19 33/55/19
f 30/43/14 21/56/15 28/44/15
f 32/57/20 27/58/13 34/41/13
f 34/41/13 27/58/13 22/42/14
f 28/44/15 21/56/15 24/45/16
f 21/49/17 22/59/17 23/47/17
f 22/59/17 27/60/17 23/47/17
f 23/47/17 27/60/17 26/61/17
f 27/60/17 25/62/17 26/61/17
f 31/63/18 29/52/18 28/64/18
f 29/52/18 33/65/18 34/50/18
f 28/64/18 29/52/18 30/51/18
f 33/65/18 32/66/18 34/50/18
f 29/53/19 23/67/19 26/54/19
f 30/43/14 22/42/14 21/56/15
f 32/57/20 25/68/20 27/58/13
o Pride_Junk3_Plane.004
v 0.166094 -0.000000 0.361049
v 0.287914 -0.000000 0.103418
v -0.164289 -0.000000 0.113002
v 0.183865 0.000000 -0.209701
v 0.220666 0.000000 -0.141284
v -0.127307 0.000000 -0.154765
v -0.153581 0.000000 -0.090473
v -0.170037 0.000000 -0.011957
v 0.166094 0.025004 0.361049
v -0.164289 0.025004 0.113002
v 0.287914 0.025004 0.103418
v 0.183865 0.025004 -0.209701
v -0.127307 0.025004 -0.154765
v 0.220666 0.025004 -0.141284
v -0.153581 0.025004 -0.090473
v -0.170037 0.025004 -0.011957
vt 0.270510 0.583948
vt 0.244931 0.507131
vt 0.852242 0.633659
vt 0.270510 0.583948
vt 0.311350 0.646848
vt 0.852242 0.633659
vt 0.099553 0.219077
vt 0.099555 0.219075
vt 0.099555 0.219075
vt 0.099570 0.219080
vt 0.099570 0.219084
vt 0.099570 0.219084
vt 0.099569 0.219076
vt 0.099570 0.219078
vt 0.099570 0.219078
vt 0.099570 0.219080
vt 0.099550 0.219083
vt 0.099550 0.219083
vt 0.253865 0.384877
vt 0.956772 0.394253
vt 0.767414 0.142198
vt 0.795038 0.700596
vt 0.311350 0.646848
vt 0.795038 0.700596
vt 0.956772 0.394253
vt 0.244931 0.507131
vt 0.253865 0.384877
vt 0.767414 0.142198
vt 0.099553 0.219077
vt 0.099569 0.219076
vn 0.0000 1.0000 0.0000
vn 0.0000 -1.0000 -0.0000
vn 0.9283 0.0000 -0.3717
vn 0.8807 0.0000 -0.4737
vn -0.9968 0.0000 -0.0802
vn -0.9989 -0.0000 0.0460
vn -0.9257 0.0000 -0.3783
vn -0.9561 0.0000 -0.2929
vn 0.9643 0.0000 -0.2650
s 1
f 49/69/21 50/70/21 48/71/21
f 41/72/22 40/73/22 39/74/22
f 48/75/23 38/76/24 46/77/24
f 50/78/25 37/79/26 44/80/26
f 47/81/27 41/82/28 49/83/28
f 49/83/28 42/84/25 50/78/25
f 36/85/29 48/75/23 45/86/29
f 50/70/21 44/87/21 45/88/21
f 44/87/21 43/89/21 45/88/21
f 45/88/21 48/71/21 50/70/21
f 48/71/21 46/90/21 47/91/21
f 47/91/21 49/69/21 48/71/21
f 38/92/22 39/74/22 40/73/22
f 39/74/22 36/93/22 42/94/22
f 42/94/22 36/93/22 37/95/22
f 36/93/22 35/96/22 37/95/22
f 42/94/22 41/72/22 39/74/22
f 48/75/23 39/97/23 38/76/24
f 50/78/25 42/84/25 37/79/26
f 47/81/27 40/98/27 41/82/28
f 49/83/28 41/82/28 42/84/25
f 36/85/29 39/97/23 48/75/23
o Pride_Junk3_Plane.005
v 0.166094 -0.000000 0.361049
v 0.273339 -0.000000 0.322827
v 0.305589 -0.000000 0.267204
v 0.308014 -0.000000 0.182785
v 0.287914 -0.000000 0.103418
v 0.166094 0.025004 0.361049
v 0.273339 0.025004 0.322827
v 0.305589 0.025004 0.267204
v 0.308014 0.025004 0.182785
v 0.287914 0.025004 0.103418
vt 0.099550 0.219090
vt 0.099549 0.219088
vt 0.099549 0.219088
vt 0.099549 0.219086
vt 0.099549 0.219086
vt 0.984246 0.234012
vt 0.934116 0.179593
vt 0.767414 0.142198
vt 0.767414 0.142198
vt 0.984246 0.234012
vt 0.988015 0.316605
vt 0.099555 0.219091
vt 0.099550 0.219090
vt 0.099550 0.219083
vt 0.099550 0.219083
vt 0.956772 0.394253
vt 0.988015 0.316605
vt 0.956772 0.394253
vt 0.934116 0.179593
vt 0.099555 0.219091
vn 0.6395 0.0000 0.7688
vn 0.9619 0.0000 0.2735
vn 0.9940 0.0000 -0.1094
vn 0.0000 -1.0000 -0.0000
vn -0.0000 1.0000 0.0000
vn 0.3357 0.0000 0.9420
vn 0.9694 -0.0000 -0.2455
s 1
f 57/99/30 53/100/31 58/101/31
f 58/101/31 54/102/32 59/103/32
f 53/104/33 52/105/33 51/106/33
f 56/107/34 58/108/34 59/109/34
f 56/110/35 52/111/30 57/99/30
f 59/103/32 55/112/36 60/113/36
f 57/99/30 52/111/30 53/100/31
f 58/101/31 53/100/31 54/102/32
f 55/114/33 54/115/33 51/106/33
f 54/115/33 53/104/33 51/106/33
f 59/109/34 60/116/34 56/107/34
f 56/107/34 57/117/34 58/108/34
f 56/110/35 51/118/35 52/111/30
f 59/103/32 54/102/32 55/112/36
o Pride_Junk3_Plane.006
v -0.306738 -0.000000 0.332889
v -0.292832 -0.000000 0.301757
v -0.243206 -0.000000 0.277770
v -0.312310 -0.000000 0.400646
v -0.279207 -0.000000 0.450350
v -0.222926 -0.000000 0.480006
v -0.144777 -0.000000 0.474924
v -0.306738 0.025004 0.332889
v -0.243206 0.025004 0.277770
v -0.292832 0.025004 0.301757
v -0.312310 0.025004 0.400646
v -0.279207 0.025004 0.450350
v -0.222926 0.025004 0.480006
v -0.144777 0.025004 0.474924
vt 0.099573 0.219094
vt 0.099569 0.219094
vt 0.099569 0.219094
vt 0.133871 0.217708
vt 0.023078 0.167618
vt 0.075235 0.054830
vt 0.075235 0.054830
vt 0.023781 0.103458
vt 0.023078 0.167618
vt 0.099577 0.219092
vt 0.099575 0.219093
vt 0.099575 0.219093
vt 0.099577 0.219090
vt 0.099577 0.219092
vt 0.099573 0.219094
vt 0.099576 0.219089
vt 0.099577 0.219090
vt 0.099574 0.219088
vt 0.099576 0.219089
vt 0.284194 0.030788
vt 0.162719 0.025817
vt 0.056731 0.192961
vt 0.023781 0.103458
vt 0.056731 0.192961
vt 0.133871 0.217708
vt 0.284194 0.030788
vt 0.162719 0.025817
vt 0.099574 0.219088
vn -0.2085 0.0000 0.9780
vn 0.0649 0.0000 0.9979
vn 0.0000 1.0000 0.0000
vn -0.0000 -1.0000 -0.0000
vn -0.9682 0.0000 0.2501
vn -0.6699 0.0000 0.7424
vn -0.9686 0.0000 -0.2484
vn -0.7177 0.0000 -0.6964
vn -0.4352 0.0000 -0.9003
s 1
f 73/119/37 67/120/38 74/121/38
f 69/122/39 68/123/39 72/124/39
f 65/125/40 64/126/40 61/127/40
f 71/128/41 65/129/42 72/130/42
f 68/131/43 64/132/41 71/128/41
f 72/130/42 66/133/37 73/119/37
f 70/134/44 61/135/43 68/131/43
f 69/136/45 62/137/44 70/134/44
f 73/119/37 66/133/37 67/120/38
f 74/138/39 69/122/39 73/139/39
f 69/122/39 70/140/39 68/123/39
f 73/139/39 69/122/39 72/124/39
f 68/123/39 71/141/39 72/124/39
f 62/142/40 63/143/40 61/127/40
f 63/143/40 67/144/40 66/145/40
f 61/127/40 63/143/40 65/125/40
f 66/145/40 65/125/40 63/143/40
f 71/128/41 64/132/41 65/129/42
f 68/131/43 61/135/43 64/132/41
f 72/130/42 65/129/42 66/133/37
f 70/134/44 62/137/44 61/135/43
f 69/136/45 63/146/45 62/137/44
o Pride_Junk3_Plane.007
v -0.243206 -0.000000 0.277770
v -0.024809 -0.000000 0.493055
v -0.087135 -0.000000 0.490558
v -0.207450 -0.000000 0.232854
v -0.144777 -0.000000 0.474924
v 0.042107 -0.000000 0.473592
v 0.105960 -0.000000 0.420166
v -0.243206 0.025004 0.277770
v -0.024809 0.025004 0.493055
v -0.207450 0.025004 0.232854
v -0.087135 0.025004 0.490558
v -0.144777 0.025004 0.474924
v 0.042107 0.025004 0.473592
v 0.105960 0.025004 0.420166
vt 0.099567 0.219094
vt 0.099564 0.219094
vt 0.099564 0.219094
vt 0.574689 0.032091
vt 0.673942 0.084362
vt 0.186775 0.267619
vt 0.099572 0.219087
vt 0.099574 0.219088
vt 0.099574 0.219088
vt 0.099561 0.219094
vt 0.099558 0.219092
vt 0.099558 0.219092
vt 0.373793 0.015492
vt 0.284194 0.030788
vt 0.186775 0.267619
vt 0.099569 0.219094
vt 0.099567 0.219094
vt 0.099561 0.219094
vt 0.133871 0.217708
vt 0.284194 0.030788
vt 0.373793 0.015492
vt 0.470674 0.013050
vt 0.099572 0.219087
vt 0.133871 0.217708
vt 0.673942 0.084362
vt 0.574689 0.032091
vt 0.470674 0.013050
vt 0.099569 0.219094
vn -0.1519 0.0000 0.9884
vn 0.1212 0.0000 0.9926
vn 0.0000 1.0000 0.0000
vn -0.7824 0.0000 -0.6228
vn 0.4705 0.0000 0.8824
vn 0.6417 0.0000 0.7669
vn 0.0000 -1.0000 -0.0000
vn -0.2618 0.0000 0.9651
s 1
f 85/147/46 76/148/47 83/149/47
f 87/150/48 88/151/48 84/152/48
f 84/153/49 75/154/49 82/155/49
f 87/156/50 81/157/51 88/158/51
f 77/159/52 79/160/52 78/161/52
f 86/162/53 77/163/46 85/147/46
f 83/149/47 80/164/50 87/156/50
f 85/147/46 77/163/46 76/148/47
f 84/152/48 82/165/48 86/166/48
f 86/166/48 85/167/48 84/152/48
f 85/167/48 83/168/48 84/152/48
f 83/168/48 87/150/48 84/152/48
f 84/153/49 78/169/49 75/154/49
f 87/156/50 80/164/50 81/157/51
f 79/160/52 75/170/52 78/161/52
f 78/161/52 81/171/52 80/172/52
f 80/172/52 76/173/52 78/161/52
f 76/173/52 77/159/52 78/161/52
f 86/162/53 79/174/53 77/163/46
f 83/149/47 76/148/47 80/164/50
o Pride_Junk3_Plane.008
v -0.115484 0.000000 -0.221672
v 0.135744 0.000000 -0.336042
v 0.183865 0.000000 -0.209701
v -0.127307 0.000000 -0.154765
v 0.159835 0.000000 -0.298937
v -0.115484 0.000000 -0.221672
v 0.135744 0.025004 -0.336042
v 0.183865 0.025004 -0.209701
v -0.127307 0.025004 -0.154765
v 0.159835 0.025004 -0.298937
v -0.115484 0.025004 -0.221672
vt 0.329728 0.712307
vt 0.311350 0.646848
vt 0.311350 0.646848
vt 0.329728 0.712307
vt 0.720238 0.824201
vt 0.757685 0.787900
vt 0.099556 0.219072
vt 0.099557 0.219071
vt 0.099557 0.219071
vt 0.757685 0.787900
vt 0.720238 0.824201
vt 0.099555 0.219075
vt 0.099556 0.219072
vt 0.795038 0.700596
vt 0.795038 0.700596
vt 0.099555 0.219075
vn -0.9847 0.0000 -0.1740
vn 0.0000 -1.0000 -0.0000
vn 0.9133 0.0000 -0.4073
vn 0.8387 0.0000 -0.5446
vn -0.0000 1.0000 0.0000
vn 0.9656 0.0000 -0.2600
s 1
f 99/175/54 92/176/54 97/177/54
f 94/178/55 90/179/55 93/180/55
f 98/181/56 90/182/57 95/183/57
f 98/184/58 95/185/58 99/175/58
f 96/186/59 93/187/56 98/181/56
f 99/175/54 94/178/54 92/176/54
f 93/180/55 91/188/55 94/178/55
f 91/188/55 92/176/55 94/178/55
f 98/181/56 93/187/56 90/182/57
f 97/177/58 96/189/58 99/175/58
f 96/189/58 98/184/58 99/175/58
f 96/186/59 91/190/59 93/187/56
l 92 89
