# Blender v2.91.0 OBJ File: ''
# www.blender.org
o Plane_Plane.001
v -0.421473 -0.000000 0.028590
v -0.266533 0.000000 -0.345848
v -0.133728 0.000000 -0.363371
v -0.222265 -0.000000 0.293279
v 0.282212 0.000000 -0.109749
v 0.292357 0.000000 -0.059025
v -0.346770 0.000000 -0.310802
v -0.458363 0.000000 -0.189063
v -0.473119 0.000000 -0.079314
v -0.482342 0.000000 -0.140184
v -0.421473 0.023241 0.028590
v -0.266533 0.023241 -0.345848
v -0.133728 0.023241 -0.363371
v -0.222265 0.023241 0.293279
v 0.282212 0.023241 -0.109749
v 0.292357 0.023241 -0.059025
v -0.346770 0.023241 -0.310802
v -0.458363 0.023241 -0.189063
v -0.482342 0.023241 -0.140184
v -0.473119 0.023241 -0.079314
v 0.000000 0.000000 0.000000
v 0.000000 0.023241 0.000000
vt 0.330299 0.905304
vt 0.330358 0.905331
vt 0.330299 0.905304
vt 0.330206 0.905122
vt 0.330199 0.905170
vt 0.330206 0.905122
vt 0.330217 0.905208
vt 0.330217 0.905208
vt 0.330199 0.905170
vt 0.779657 0.617308
vt 0.789677 0.564206
vt 0.281376 0.195385
vt 0.158399 0.827787
vt 0.048176 0.700341
vt 0.084614 0.472483
vt 0.330358 0.905331
vt 0.330456 0.905345
vt 0.330764 0.905146
vt 0.330771 0.905106
vt 0.330764 0.905146
vt 0.330244 0.905038
vt 0.330244 0.905038
vt 0.084614 0.472483
vt 0.368825 0.882820
vt 0.033601 0.585447
vt 0.048176 0.700341
vt 0.024492 0.649169
vt 0.158399 0.827787
vt 0.237651 0.864476
vt 0.024492 0.649169
vt 0.033601 0.585447
vt 0.281376 0.195385
vt 0.368825 0.882820
vt 0.789677 0.564206
vt 0.779657 0.617308
vt 0.237651 0.864476
vt 0.330456 0.905345
vt 0.330771 0.905106
vn -0.5813 0.0000 -0.8137
vn -0.2682 0.0000 -0.9634
vn -0.9558 0.0000 0.2940
vn -0.9883 0.0000 -0.1523
vn -0.8259 0.0000 -0.5638
vn -0.0000 -1.0000 -0.0000
vn 0.0000 1.0000 0.0000
vn -0.1308 0.0000 -0.9914
vn 0.9806 0.0000 -0.1961
vn -0.9020 0.0000 0.4317
s 1
f 17/1/1 2/2/2 7/3/1
f 20/4/3 10/5/4 9/6/3
f 17/1/1 8/7/5 18/8/5
f 19/9/4 8/7/5 10/5/4
f 5/10/6 6/11/6 4/12/6
f 17/13/7 18/14/7 11/15/7
f 12/16/2 3/17/8 2/2/2
f 15/18/9 6/19/9 5/20/9
f 11/21/10 9/6/3 1/22/10
f 17/1/1 12/16/2 2/2/2
f 20/4/3 19/9/4 10/5/4
f 17/1/1 7/3/1 8/7/5
f 19/9/4 18/8/5 8/7/5
f 4/12/6 1/23/6 3/24/6
f 1/23/6 9/25/6 8/26/6
f 9/25/6 10/27/6 8/26/6
f 8/26/6 7/28/6 1/23/6
f 7/28/6 2/29/6 1/23/6
f 2/29/6 3/24/6 1/23/6
f 3/24/6 5/10/6 4/12/6
f 19/30/7 20/31/7 18/14/7
f 20/31/7 11/15/7 18/14/7
f 11/15/7 14/32/7 13/33/7
f 14/32/7 16/34/7 15/35/7
f 13/33/7 14/32/7 15/35/7
f 13/33/7 12/36/7 11/15/7
f 12/36/7 17/13/7 11/15/7
f 12/16/2 13/37/8 3/17/8
f 15/18/9 16/38/9 6/19/9
f 11/21/10 20/4/3 9/6/3
l 21 22
o Plane_Plane.002
v 0.367982 0.000000 -0.011989
v 0.386427 -0.000000 0.139261
v 0.302501 0.000000 -0.036890
v 0.414095 -0.000000 0.023057
v 0.416862 -0.000000 0.107904
v 0.430696 -0.000000 0.066403
v 0.367982 0.023241 -0.011989
v 0.302501 0.023241 -0.036890
v 0.386427 0.023241 0.139261
v 0.416862 0.023241 0.107904
v 0.414095 0.023241 0.023057
v 0.430696 0.023241 0.066403
vt 0.909921 0.478276
vt 0.926318 0.432898
vt 0.912653 0.389450
vt 0.330863 0.904976
vt 0.330841 0.904951
vt 0.330863 0.904976
vt 0.330861 0.905042
vt 0.330873 0.905008
vt 0.330861 0.905042
vt 0.864374 0.514965
vt 0.799697 0.541034
vt 0.882593 0.356623
vt 0.330779 0.905089
vt 0.330827 0.905070
vt 0.330779 0.905089
vt 0.330827 0.905070
vt 0.330873 0.905008
vt 0.882593 0.356623
vt 0.799697 0.541034
vt 0.864374 0.514965
vt 0.330841 0.904951
vt 0.912653 0.389450
vt 0.909921 0.478276
vt 0.926318 0.432898
vn 0.0000 -1.0000 -0.0000
vn 0.8545 -0.0000 0.5194
vn 0.7176 0.0000 0.6965
vn 0.8001 0.0000 -0.5999
vn 0.9998 0.0000 -0.0220
vn -0.0000 1.0000 0.0000
vn 0.3554 0.0000 -0.9347
vn 0.4852 -0.0000 -0.8744
s 1
f 26/39/11 28/40/11 27/41/11
f 32/42/12 24/43/13 27/44/12
f 33/45/14 28/46/15 26/47/14
f 29/48/16 30/49/16 31/50/16
f 30/51/17 23/52/18 25/53/17
f 29/54/18 26/47/14 23/52/18
f 34/55/15 27/44/12 28/46/15
f 27/41/11 24/56/11 26/39/11
f 24/56/11 25/57/11 23/58/11
f 23/58/11 26/39/11 24/56/11
f 32/42/12 31/59/13 24/43/13
f 33/45/14 34/55/15 28/46/15
f 31/50/16 32/60/16 33/61/16
f 32/60/16 34/62/16 33/61/16
f 33/61/16 29/48/16 31/50/16
f 30/51/17 29/54/18 23/52/18
f 29/54/18 33/45/14 26/47/14
f 34/55/15 32/42/12 27/44/12
o Plane_Plane.003
v 0.480498 -0.000000 0.314491
v 0.442685 -0.000000 0.232410
v 0.468508 -0.000000 0.264689
v 0.241632 -0.000000 0.449141
v 0.393805 -0.000000 0.194597
v 0.319102 -0.000000 0.456519
v 0.376282 -0.000000 0.450985
v 0.427007 -0.000000 0.424240
v 0.464819 -0.000000 0.379049
v 0.480498 0.023241 0.314491
v 0.468508 0.023241 0.264689
v 0.442685 0.023241 0.232410
v 0.241632 0.023241 0.449141
v 0.393805 0.023241 0.194597
v 0.319102 0.023241 0.456519
v 0.376282 0.023241 0.450985
v 0.427007 0.023241 0.424240
v 0.464819 0.023241 0.379049
vt 0.330871 0.904728
vt 0.330833 0.904707
vt 0.330871 0.904728
vt 0.330791 0.904703
vt 0.330734 0.904709
vt 0.330791 0.904703
vt 0.330910 0.904814
vt 0.330898 0.904764
vt 0.330910 0.904814
vt 0.330898 0.904764
vt 0.872572 0.030285
vt 0.922674 0.058284
vt 0.938160 0.259108
vt 0.330833 0.904707
vt 0.330882 0.904878
vt 0.330901 0.904853
vt 0.330882 0.904878
vt 0.330846 0.904908
vt 0.330846 0.904908
vt 0.922674 0.058284
vt 0.872572 0.030285
vt 0.938160 0.259108
vt 0.330901 0.904853
vt 0.330734 0.904709
vt 0.960022 0.105594
vt 0.975508 0.173179
vt 0.963666 0.225316
vt 0.889880 0.298694
vt 0.739576 0.032216
vt 0.816094 0.024492
vt 0.739576 0.032216
vt 0.889880 0.298694
vt 0.816094 0.024492
vt 0.963666 0.225316
vt 0.975508 0.173179
vt 0.960022 0.105594
vn 0.6285 0.0000 0.7778
vn 0.2868 0.0000 0.9580
vn 0.0008 0.0000 1.0000
vn -0.0948 0.0000 0.9955
vn 1.0000 0.0000 0.0010
vn 0.8927 0.0000 0.4506
vn -0.0000 1.0000 0.0000
vn 0.7013 0.0000 -0.7128
vn 0.8980 0.0000 -0.4399
vn 0.6119 0.0000 -0.7910
vn 0.0000 -1.0000 -0.0000
s 1
f 51/63/19 41/64/20 42/65/19
f 49/66/21 38/67/22 40/68/21
f 44/69/23 43/70/24 35/71/23
f 52/72/24 42/65/19 43/70/24
f 50/73/25 51/74/25 46/75/25
f 50/76/20 40/68/21 41/64/20
f 46/77/26 37/78/27 36/79/26
f 48/80/28 36/79/26 39/81/28
f 42/82/29 41/83/29 36/84/29
f 45/85/27 35/71/23 37/78/27
f 51/63/19 50/76/20 41/64/20
f 49/66/21 47/86/22 38/67/22
f 44/69/23 52/72/24 43/70/24
f 52/72/24 51/63/19 42/65/19
f 51/74/25 52/87/25 46/75/25
f 52/87/25 44/88/25 46/75/25
f 44/88/25 45/89/25 46/75/25
f 46/75/25 48/90/25 50/73/25
f 48/90/25 47/91/25 49/92/25
f 49/92/25 50/73/25 48/90/25
f 50/76/20 49/66/21 40/68/21
f 46/77/26 45/85/27 37/78/27
f 48/80/28 46/77/26 36/79/26
f 38/93/29 39/94/29 40/95/29
f 39/94/29 36/84/29 41/83/29
f 40/95/29 39/94/29 41/83/29
f 36/84/29 37/96/29 35/97/29
f 35/97/29 43/98/29 36/84/29
f 43/98/29 42/82/29 36/84/29
f 45/85/27 44/69/23 35/71/23
o Plane_Plane.004
v 0.378127 -0.000000 0.166929
v 0.086693 -0.000000 0.413173
v 0.241632 -0.000000 0.449141
v 0.393805 -0.000000 0.194597
v 0.378127 0.023241 0.166929
v 0.086693 0.023241 0.413173
v 0.241632 0.023241 0.449141
v 0.393805 0.023241 0.194597
vt 0.874394 0.327659
vt 0.739576 0.032216
vt 0.586539 0.069870
vt 0.330619 0.904737
vt 0.330734 0.904709
vt 0.330619 0.904737
vt 0.739576 0.032216
vt 0.874394 0.327659
vt 0.586539 0.069870
vt 0.330834 0.904930
vt 0.330846 0.904908
vt 0.330834 0.904930
vt 0.889880 0.298694
vt 0.330734 0.904709
vt 0.889880 0.298694
vt 0.330846 0.904908
vn 0.0000 -1.0000 -0.0000
vn -0.2261 0.0000 0.9741
vn -0.0000 1.0000 0.0000
vn 0.8700 0.0000 -0.4930
s 1
f 53/99/30 55/100/30 54/101/30
f 54/102/31 59/103/31 58/104/31
f 59/105/32 57/106/32 58/107/32
f 57/108/33 56/109/33 53/110/33
f 53/99/30 56/111/30 55/100/30
f 54/102/31 55/112/31 59/103/31
f 59/105/32 60/113/32 57/106/32
f 57/108/33 60/114/33 56/109/33
o Plane_Plane.005
v -0.222265 -0.000000 0.293279
v 0.386427 -0.000000 0.139261
v 0.302501 0.000000 -0.036890
v 0.378127 -0.000000 0.166929
v 0.086693 -0.000000 0.413173
v 0.292357 0.000000 -0.059025
v -0.145717 -0.000000 0.357837
v -0.085770 -0.000000 0.396572
v -0.001844 -0.000000 0.419628
v -0.222265 0.023241 0.293279
v 0.302501 0.023241 -0.036890
v 0.386427 0.023241 0.139261
v 0.378127 0.023241 0.166929
v 0.086693 0.023241 0.413173
v 0.292357 0.023241 -0.059025
v -0.145717 0.023241 0.357837
v -0.085770 0.023241 0.396572
v -0.001844 0.023241 0.419628
vt 0.330448 0.904780
vt 0.330391 0.904831
vt 0.330448 0.904780
vt 0.330554 0.904732
vt 0.330492 0.904750
vt 0.330554 0.904732
vt 0.586539 0.069870
vt 0.799697 0.541034
vt 0.356983 0.127800
vt 0.330771 0.905106
vt 0.330779 0.905089
vt 0.330771 0.905106
vt 0.330841 0.904951
vt 0.330834 0.904930
vt 0.330841 0.904951
vt 0.330492 0.904750
vt 0.799697 0.541034
vt 0.882593 0.356623
vt 0.874394 0.327659
vt 0.330619 0.904737
vt 0.330619 0.904737
vt 0.330391 0.904831
vt 0.789677 0.564206
vt 0.281376 0.195385
vt 0.416194 0.087249
vt 0.499089 0.063112
vt 0.874394 0.327659
vt 0.882593 0.356623
vt 0.330779 0.905089
vt 0.330834 0.904930
vt 0.586539 0.069870
vt 0.499089 0.063112
vt 0.416194 0.087249
vt 0.356983 0.127800
vt 0.281376 0.195385
vt 0.789677 0.564206
vn -0.5949 0.0000 0.8038
vn -0.6447 0.0000 0.7644
vn -0.0975 0.0000 0.9952
vn -0.4086 0.0000 0.9127
vn 0.0000 1.0000 0.0000
vn 0.9091 0.0000 -0.4166
vn 0.9578 0.0000 0.2873
vn 0.0000 -1.0000 -0.0000
vn 0.0727 0.0000 0.9974
s 1
f 76/115/34 61/116/35 67/117/34
f 78/118/36 68/119/37 69/120/36
f 74/121/38 71/122/38 76/123/38
f 75/124/39 63/125/39 66/126/39
f 72/127/40 64/128/40 62/129/40
f 77/130/37 67/117/34 68/119/37
f 63/131/41 62/132/41 64/133/41
f 74/134/42 69/120/36 65/135/42
f 76/115/34 70/136/35 61/116/35
f 78/118/36 77/130/37 68/119/37
f 71/122/38 75/137/38 70/138/38
f 70/138/38 76/123/38 71/122/38
f 76/123/38 77/139/38 74/121/38
f 77/139/38 78/140/38 74/121/38
f 74/121/38 73/141/38 71/122/38
f 73/141/38 72/142/38 71/122/38
f 75/124/39 71/143/39 63/125/39
f 72/127/40 73/144/40 64/128/40
f 77/130/37 76/115/34 67/117/34
f 64/133/41 65/145/41 63/131/41
f 65/145/41 69/146/41 68/147/41
f 63/131/41 65/145/41 67/148/41
f 68/147/41 67/148/41 65/145/41
f 67/148/41 61/149/41 63/131/41
f 61/149/41 66/150/41 63/131/41
f 74/134/42 78/118/36 69/120/36
o Plane_Plane.006
v -0.133728 0.000000 -0.363371
v 0.221342 0.000000 -0.321869
v -0.078392 0.000000 -0.401183
v 0.253622 0.000000 -0.260077
v 0.282212 0.000000 -0.109749
v 0.272989 0.000000 -0.193675
v 0.037813 0.000000 -0.449141
v 0.151251 0.000000 -0.422395
v 0.106982 0.000000 -0.451907
v -0.133728 0.023241 -0.363371
v 0.221342 0.023241 -0.321869
v -0.078392 0.023241 -0.401183
v 0.253622 0.023241 -0.260077
v 0.282212 0.023241 -0.109749
v 0.272989 0.023241 -0.193675
v 0.151251 0.023241 -0.422395
v 0.037813 0.023241 -0.449141
v 0.106982 0.023241 -0.451907
vt 0.330757 0.905212
vt 0.330764 0.905146
vt 0.330757 0.905212
vt 0.330456 0.905345
vt 0.330497 0.905374
vt 0.330456 0.905345
vt 0.330743 0.905264
vt 0.330743 0.905264
vt 0.330634 0.905414
vt 0.330667 0.905391
vt 0.330634 0.905414
vt 0.330719 0.905312
vt 0.330667 0.905391
vt 0.330719 0.905312
vt 0.330583 0.905412
vt 0.330497 0.905374
vt 0.330583 0.905412
vt 0.330764 0.905146
vn 0.9807 -0.0000 -0.1954
vn 0.9940 -0.0000 -0.1092
vn -0.5642 0.0000 -0.8257
vn -0.4754 0.0000 -0.8798
vn 0.0000 1.0000 0.0000
vn 0.9277 0.0000 -0.3733
vn 0.2706 0.0000 -0.9627
vn 0.2981 -0.6683 -0.6815
vn 0.6721 -0.6917 -0.2643
vn 0.3016 0.6687 -0.6796
vn 0.6724 0.6917 -0.2635
vn -0.2140 0.0000 -0.9768
vn 0.0000 -1.0000 -0.0000
s 1
f 93/151/43 83/152/44 84/153/43
f 88/154/45 81/155/46 79/156/45
f 93/151/47 91/157/47 88/154/47
f 91/157/48 84/153/43 82/158/48
f 96/159/49 86/160/50 87/161/49
f 80/162/51 94/163/52 89/164/53
f 85/165/54 90/166/46 95/167/54
f 89/164/53 82/158/48 80/162/51
f 95/167/54 87/161/49 85/165/54
f 84/153/55 83/152/55 79/156/55
f 93/151/43 92/168/44 83/152/44
f 88/154/45 90/166/46 81/155/46
f 91/157/47 89/164/53 88/154/47
f 89/164/53 94/163/52 95/167/47
f 88/154/47 89/164/53 90/166/47
f 94/163/52 96/159/47 95/167/47
f 95/167/47 90/166/47 89/164/53
f 88/154/47 92/168/47 93/151/47
f 91/157/48 93/151/43 84/153/43
f 96/159/49 94/163/52 86/160/50
f 80/162/51 86/160/50 94/163/52
f 85/165/54 81/155/46 90/166/46
f 89/164/53 91/157/48 82/158/48
f 95/167/54 96/159/49 87/161/49
f 79/156/55 81/155/55 80/162/51
f 81/155/55 85/165/55 80/162/51
f 79/156/55 80/162/51 82/158/55
f 85/165/55 87/161/55 86/160/50
f 86/160/50 80/162/51 85/165/55
f 82/158/55 84/153/55 79/156/55
o Plane_Plane.007
v -0.421473 -0.000000 0.028590
v -0.222265 -0.000000 0.293279
v -0.417784 -0.000000 0.093148
v -0.399339 -0.000000 0.166929
v -0.365215 -0.000000 0.212120
v -0.421473 0.023241 0.028590
v -0.222265 0.023241 0.293279
v -0.417784 0.023241 0.093148
v -0.399339 0.023241 0.166929
v -0.365215 0.023241 0.212120
vt 0.330285 0.904894
vt 0.330260 0.904930
vt 0.330285 0.904894
vt 0.140181 0.280349
vt 0.106476 0.327659
vt 0.088257 0.404898
vt 0.330260 0.904930
vt 0.330247 0.904987
vt 0.330391 0.904831
vt 0.330391 0.904831
vt 0.281376 0.195385
vt 0.084614 0.472483
vt 0.088257 0.404898
vt 0.330247 0.904987
vt 0.330244 0.905038
vt 0.084614 0.472483
vt 0.281376 0.195385
vt 0.106476 0.327659
vt 0.140181 0.280349
vt 0.330244 0.905038
vn -0.6595 0.0000 0.7517
vn -0.9022 0.0000 0.4312
vn -0.0000 -1.0000 -0.0000
vn -0.9886 0.0000 0.1505
vn -0.4937 0.0000 0.8696
vn 0.0000 1.0000 0.0000
vn -0.9984 -0.0000 0.0570
s 1
f 106/169/56 100/170/57 101/171/56
f 101/172/58 100/173/58 99/174/58
f 105/175/57 99/176/59 100/170/57
f 103/177/60 101/171/56 98/178/60
f 103/179/61 102/180/61 104/181/61
f 104/182/59 97/183/62 99/176/59
f 106/169/56 105/175/57 100/170/57
f 97/184/58 98/185/58 99/174/58
f 98/185/58 101/172/58 99/174/58
f 105/175/57 104/182/59 99/176/59
f 103/177/60 106/169/56 101/171/56
f 104/181/61 105/186/61 106/187/61
f 106/187/61 103/179/61 104/181/61
f 104/182/59 102/188/62 97/183/62
