# Blender v2.91.0 OBJ File: ''
# www.blender.org
v 0.082748 0.000000 -0.347794
v 0.123873 -0.000000 0.200042
v -0.193178 0.000000 -0.386464
v 0.333935 -0.000000 0.036994
v 0.337674 -0.000000 0.080815
v 0.282255 -0.000000 0.153406
v 0.160123 0.000000 -0.253816
v 0.218100 0.000000 -0.193710
v 0.048139 0.000000 -0.475811
v 0.074035 0.000000 -0.457291
v 0.086399 0.000000 -0.427109
v -0.297174 0.000000 -0.247863
v 0.225792 -0.000000 0.174143
v 0.315554 0.000000 -0.007558
v 0.168542 -0.000000 0.184903
v 0.260017 0.000000 -0.130516
v 0.290078 0.000000 -0.063624
v 0.321967 -0.000000 0.120827
v 0.105604 0.000000 -0.306933
v 0.084928 0.000000 -0.387181
v -0.028894 0.000000 -0.490766
v -0.159981 0.000000 -0.420602
v -0.133753 0.000000 -0.449792
v -0.104924 0.000000 -0.471561
v -0.069790 0.000000 -0.485532
v 0.012468 0.000000 -0.486815
v 0.043016 -0.000000 0.334517
v 0.018908 -0.000000 0.390132
v -0.280545 -0.000000 0.354783
v -0.009674 -0.000000 0.437870
v -0.217078 -0.000000 0.450240
v -0.252249 -0.000000 0.415743
v -0.046104 -0.000000 0.471149
v -0.134395 -0.000000 0.488221
v -0.088654 -0.000000 0.487698
v -0.178012 -0.000000 0.475211
v -0.300727 -0.000000 0.258640
v 0.067686 -0.000000 0.278875
v -0.311985 -0.000000 0.157197
v -0.320315 -0.000000 0.063498
v 0.093416 -0.000000 0.231207
v -0.332900 0.000000 -0.016705
v -0.342962 0.000000 -0.076372
v -0.324841 0.000000 -0.183987
v -0.341730 0.000000 -0.128296
v -0.268961 0.000000 -0.306682
v -0.234467 0.000000 -0.349969
v 0.082997 0.022835 -0.347794
v -0.192929 0.022835 -0.386464
v 0.124121 0.022835 0.200042
v 0.334184 0.022835 0.036994
v 0.282503 0.022835 0.153406
v 0.337922 0.022835 0.080815
v 0.160371 0.022835 -0.253816
v 0.218348 0.022835 -0.193710
v 0.048387 0.022835 -0.475811
v 0.086647 0.022835 -0.427109
v 0.074283 0.022835 -0.457291
v -0.296926 0.022835 -0.247863
v 0.315802 0.022835 -0.007558
v 0.226041 0.022835 0.174143
v 0.168791 0.022835 0.184903
v 0.260265 0.022835 -0.130516
v 0.290327 0.022835 -0.063624
v 0.322215 0.022835 0.120827
v 0.105853 0.022835 -0.306933
v 0.085176 0.022835 -0.387181
v -0.028646 0.022835 -0.490766
v -0.159733 0.022835 -0.420602
v -0.133505 0.022835 -0.449792
v -0.104675 0.022835 -0.471561
v -0.069542 0.022835 -0.485532
v 0.012716 0.022835 -0.486815
v 0.043264 0.022835 0.334517
v -0.280297 0.022835 0.354783
v 0.019156 0.022835 0.390132
v -0.216830 0.022835 0.450240
v -0.009426 0.022835 0.437870
v -0.252001 0.022835 0.415743
v -0.134147 0.022835 0.488221
v -0.045856 0.022835 0.471149
v -0.088406 0.022835 0.487698
v -0.177764 0.022835 0.475211
v -0.300478 0.022835 0.258640
v 0.067935 0.022835 0.278875
v -0.311737 0.022835 0.157197
v 0.093664 0.022835 0.231207
v -0.320067 0.022835 0.063498
v -0.332652 0.022835 -0.016705
v -0.324593 0.022835 -0.183987
v -0.342714 0.022835 -0.076372
v -0.341482 0.022835 -0.128296
v -0.234219 0.022835 -0.349969
v -0.268712 0.022835 -0.306682
vt 0.623673 0.849554
vt 0.683320 0.296923
vt 0.223471 0.888562
vt 0.987994 0.461398
vt 0.993417 0.417194
vt 0.913037 0.343967
vt 0.735897 0.754754
vt 0.819986 0.694122
vt 0.573475 0.978691
vt 0.611035 0.960009
vt 0.628968 0.929563
vt 0.072634 0.748748
vt 0.831144 0.323049
vt 0.961334 0.506340
vt 0.748109 0.312195
vt 0.880783 0.630374
vt 0.924384 0.562896
vt 0.970636 0.376832
vt 0.656823 0.808335
vt 0.626834 0.889286
vt 0.461747 0.993777
vt 0.271618 0.922999
vt 0.309659 0.952445
vt 0.351474 0.974404
vt 0.402431 0.988497
vt 0.521738 0.989792
vt 0.566045 0.161271
vt 0.531079 0.105170
vt 0.096752 0.140828
vt 0.489624 0.057014
vt 0.188806 0.044536
vt 0.137793 0.079335
vt 0.436786 0.023444
vt 0.308729 0.006223
vt 0.375071 0.006750
vt 0.245466 0.019346
vt 0.067481 0.237813
vt 0.601827 0.217401
vt 0.051152 0.340144
vt 0.039070 0.434662
vt 0.639146 0.265486
vt 0.020817 0.515567
vt 0.006223 0.575757
vt 0.032505 0.684314
vt 0.008010 0.628135
vt 0.113555 0.808082
vt 0.163584 0.851748
vt 0.624033 0.849554
vt 0.223831 0.888562
vt 0.683680 0.296923
vt 0.988355 0.461398
vt 0.913397 0.343967
vt 0.993777 0.417194
vt 0.736257 0.754754
vt 0.820347 0.694122
vt 0.573835 0.978691
vt 0.629328 0.929563
vt 0.611395 0.960009
vt 0.072994 0.748748
vt 0.961694 0.506340
vt 0.831504 0.323049
vt 0.748468 0.312195
vt 0.881142 0.630374
vt 0.924744 0.562896
vt 0.970996 0.376832
vt 0.657184 0.808335
vt 0.627195 0.889286
vt 0.462107 0.993777
vt 0.271978 0.922999
vt 0.310019 0.952445
vt 0.351834 0.974404
vt 0.402791 0.988497
vt 0.522098 0.989792
vt 0.566405 0.161271
vt 0.097113 0.140828
vt 0.531439 0.105170
vt 0.189166 0.044536
vt 0.489984 0.057014
vt 0.138153 0.079335
vt 0.309089 0.006223
vt 0.437146 0.023444
vt 0.375431 0.006750
vt 0.245826 0.019346
vt 0.067841 0.237813
vt 0.602187 0.217401
vt 0.051512 0.340144
vt 0.639506 0.265486
vt 0.039430 0.434662
vt 0.021177 0.515567
vt 0.032865 0.684314
vt 0.006583 0.575757
vt 0.008370 0.628135
vt 0.163944 0.851748
vt 0.113915 0.808082
vt 0.825092 0.154858
vt 0.819975 0.151590
vt 0.821470 0.149658
vt 0.798562 0.071369
vt 0.800269 0.072811
vt 0.797953 0.076305
vt 0.867229 0.144830
vt 0.865080 0.143460
vt 0.867343 0.140566
vt 0.839381 0.161137
vt 0.835342 0.159496
vt 0.836321 0.157199
vt 0.795933 0.075333
vt 0.796441 0.080419
vt 0.863315 0.153198
vt 0.860795 0.156539
vt 0.858881 0.154629
vt 0.843391 0.162172
vt 0.840172 0.158799
vt 0.851160 0.081373
vt 0.851493 0.084010
vt 0.843735 0.085411
vt 0.794291 0.080012
vt 0.796080 0.086493
vt 0.857117 0.159347
vt 0.852592 0.161411
vt 0.851837 0.158931
vt 0.830558 0.157393
vt 0.831603 0.155103
vt 0.858136 0.081424
vt 0.857730 0.083945
vt 0.793897 0.086581
vt 0.797349 0.095608
vt 0.843471 0.082842
vt 0.838419 0.085708
vt 0.847817 0.162359
vt 0.843800 0.159702
vt 0.863851 0.083501
vt 0.862423 0.085717
vt 0.795126 0.096020
vt 0.799648 0.105766
vt 0.838742 0.083202
vt 0.833705 0.084033
vt 0.847675 0.159813
vt 0.867718 0.087488
vt 0.865284 0.089002
vt 0.797348 0.106312
vt 0.802121 0.115360
vt 0.834744 0.081875
vt 0.828957 0.080787
vt 0.855770 0.157066
vt 0.869528 0.092771
vt 0.866976 0.093326
vt 0.799757 0.115942
vt 0.804169 0.123812
vt 0.830332 0.078940
vt 0.824261 0.076847
vt 0.864915 0.148803
vt 0.860765 0.151854
vt 0.869940 0.098319
vt 0.867431 0.098397
vt 0.805804 0.135925
vt 0.803545 0.130723
vt 0.805795 0.129913
vt 0.825735 0.075072
vt 0.819659 0.072986
vt 0.862170 0.147296
vt 0.869762 0.105034
vt 0.867318 0.104928
vt 0.801778 0.124437
vt 0.821028 0.071093
vt 0.815186 0.070028
vt 0.869292 0.112800
vt 0.866905 0.112619
vt 0.809429 0.141208
vt 0.807950 0.134768
vt 0.816164 0.067920
vt 0.810995 0.068513
vt 0.868676 0.120851
vt 0.866200 0.120840
vt 0.814614 0.146834
vt 0.811392 0.139673
vt 0.811260 0.066261
vt 0.807036 0.068613
vt 0.869337 0.129654
vt 0.867026 0.129869
vt 0.816366 0.145069
vt 0.806485 0.066444
vt 0.803346 0.070184
vt 0.869940 0.136853
vt 0.867785 0.136732
vt 0.826308 0.152713
vt 0.802117 0.068310
vt 0.869240 0.141283
vn 0.0000 -1.0000 -0.0000
vn -0.0000 1.0000 0.0000
vn -0.7252 0.0079 -0.6885
vn -0.8474 0.0092 -0.5308
vn -0.8470 0.0092 -0.5315
vn -0.4170 0.0045 0.9089
vn -0.4154 0.0045 0.9096
vn -0.6223 0.0068 0.7828
vn 0.9989 -0.0109 0.0460
vn 0.9989 -0.0108 0.0460
vn 0.9741 -0.0106 -0.2258
vn -0.6767 0.0073 -0.7362
vn -0.7304 0.0079 -0.6829
vn -0.7306 0.0079 -0.6828
vn -0.6232 0.0068 0.7821
vn -0.8164 0.0089 0.5774
vn 0.7834 -0.0085 -0.6214
vn 0.4431 -0.0048 -0.8965
vn 0.4449 -0.0048 -0.8956
vn -0.4912 0.0054 -0.8711
vn -0.6760 0.0073 -0.7369
vn 0.2651 -0.0029 0.9642
vn 0.2662 -0.0029 0.9639
vn 0.2530 -0.0028 0.9675
vn -0.8173 0.0089 0.5762
vn -0.9489 0.0103 0.3155
vn 0.1953 -0.0021 -0.9807
vn -0.0168 0.0002 -0.9999
vn -0.0153 0.0002 -0.9999
vn -0.6899 0.0075 -0.7238
vn -0.6902 0.0075 -0.7236
vn 0.4956 -0.0054 0.8685
vn 0.4973 -0.0054 0.8676
vn -0.9490 0.0103 0.3150
vn -0.9874 0.0108 0.1581
vn 0.2539 -0.0028 0.9672
vn 0.5316 -0.0058 0.8470
vn -0.2510 0.0027 -0.9680
vn -0.4897 0.0053 -0.8718
vn 0.8080 -0.0088 0.5891
vn 0.8092 -0.0088 0.5874
vn -0.9874 0.0108 0.1580
vn -0.9950 0.0108 0.0994
vn 0.5339 -0.0058 0.8455
vn 0.8050 -0.0087 0.5932
vn -0.2494 0.0027 -0.9684
vn 0.9895 -0.0108 0.1442
vn 0.9896 -0.0107 0.1438
vn -0.9925 0.0108 0.1218
vn 0.8057 -0.0088 0.5922
vn 0.8977 -0.0098 0.4406
vn 0.1966 -0.0021 -0.9805
vn 0.9716 -0.0106 -0.2362
vn 0.9718 -0.0106 -0.2357
vn -0.9925 0.0108 0.1219
vn -0.9879 0.0107 0.1550
vn 0.8978 -0.0098 0.4404
vn 0.9141 -0.0100 0.4053
vn 0.9845 -0.0107 -0.1753
vn 0.7849 -0.0085 -0.6195
vn 0.9175 -0.0100 -0.3976
vn 0.9175 -0.0100 -0.3975
vn -0.9873 0.0107 -0.1583
vn -0.9974 0.0108 0.0716
vn -0.9974 0.0108 0.0717
vn 0.9175 -0.0099 0.3977
vn 0.8897 -0.0097 0.4565
vn 0.9845 -0.0107 -0.1748
vn 0.9121 -0.0098 -0.4099
vn 0.9104 -0.0098 -0.4137
vn -0.9860 0.0107 0.1663
vn 0.8895 -0.0097 0.4568
vn 0.7748 -0.0084 0.6322
vn 0.8755 -0.0095 -0.4832
vn 0.8757 -0.0095 -0.4827
vn -0.9388 0.0102 -0.3442
vn -0.9873 0.0107 -0.1586
vn 0.7740 -0.0084 0.6332
vn 0.5283 -0.0057 0.8490
vn 0.7795 -0.0085 -0.6264
vn 0.7800 -0.0085 -0.6258
vn -0.9098 0.0099 -0.4150
vn -0.9387 0.0102 -0.3445
vn 0.5265 -0.0057 0.8502
vn 0.1912 -0.0021 0.9815
vn 0.7088 -0.0077 -0.7054
vn 0.7089 -0.0077 -0.7053
vn -0.9097 0.0099 -0.4151
vn 0.1888 -0.0021 0.9820
vn -0.1378 0.0015 0.9905
vn 0.7939 -0.0087 -0.6080
vn 0.7931 -0.0086 -0.6090
vn -0.7246 0.0079 -0.6891
vn -0.1398 0.0015 0.9902
vn 0.9743 -0.0106 -0.2250
s 1
f 1/1/1 2/2/1 3/3/1
f 4/4/1 5/5/1 6/6/1
f 7/7/1 8/8/1 2/2/1
f 9/9/1 10/10/1 11/11/1
f 3/3/1 2/2/1 12/12/1
f 6/6/1 13/13/1 14/14/1
f 13/13/1 15/15/1 14/14/1
f 6/6/1 14/14/1 4/4/1
f 15/15/1 2/2/1 16/16/1
f 17/17/1 14/14/1 15/15/1
f 15/15/1 16/16/1 17/17/1
f 18/18/1 6/6/1 5/5/1
f 8/8/1 16/16/1 2/2/1
f 2/2/1 1/1/1 19/19/1
f 19/19/1 7/7/1 2/2/1
f 11/11/1 20/20/1 9/9/1
f 20/20/1 1/1/1 21/21/1
f 1/1/1 3/3/1 22/22/1
f 22/22/1 23/23/1 1/1/1
f 23/23/1 24/24/1 1/1/1
f 24/24/1 25/25/1 1/1/1
f 25/25/1 21/21/1 1/1/1
f 21/21/1 26/26/1 20/20/1
f 26/26/1 9/9/1 20/20/1
f 27/27/1 28/28/1 29/29/1
f 28/28/1 30/30/1 31/31/1
f 32/32/1 28/28/1 31/31/1
f 30/30/1 33/33/1 34/34/1
f 33/33/1 35/35/1 34/34/1
f 34/34/1 36/36/1 30/30/1
f 36/36/1 31/31/1 30/30/1
f 32/32/1 29/29/1 28/28/1
f 29/29/1 37/37/1 27/27/1
f 27/27/1 37/37/1 38/38/1
f 37/37/1 39/39/1 38/38/1
f 39/39/1 40/40/1 41/41/1
f 38/38/1 39/39/1 41/41/1
f 42/42/1 43/43/1 44/44/1
f 43/43/1 45/45/1 44/44/1
f 40/40/1 42/42/1 2/2/1
f 40/40/1 2/2/1 41/41/1
f 44/44/1 12/12/1 2/2/1
f 42/42/1 44/44/1 2/2/1
f 12/12/1 46/46/1 47/47/1
f 47/47/1 3/3/1 12/12/1
f 48/48/2 49/49/2 50/50/2
f 51/51/2 52/52/2 53/53/2
f 54/54/2 50/50/2 55/55/2
f 56/56/2 57/57/2 58/58/2
f 49/49/2 59/59/2 50/50/2
f 52/52/2 60/60/2 61/61/2
f 61/61/2 60/60/2 62/62/2
f 52/52/2 51/51/2 60/60/2
f 62/62/2 63/63/2 50/50/2
f 64/64/2 62/62/2 60/60/2
f 62/62/2 64/64/2 63/63/2
f 65/65/2 53/53/2 52/52/2
f 55/55/2 50/50/2 63/63/2
f 50/50/2 66/66/2 48/48/2
f 66/66/2 50/50/2 54/54/2
f 57/57/2 56/56/2 67/67/2
f 67/67/2 68/68/2 48/48/2
f 48/48/2 69/69/2 49/49/2
f 69/69/2 48/48/2 70/70/2
f 70/70/2 48/48/2 71/71/2
f 71/71/2 48/48/2 72/72/2
f 72/72/2 48/48/2 68/68/2
f 68/68/2 67/67/2 73/73/2
f 73/73/2 67/67/2 56/56/2
f 74/74/2 75/75/2 76/76/2
f 76/76/2 77/77/2 78/78/2
f 79/79/2 77/77/2 76/76/2
f 78/78/2 80/80/2 81/81/2
f 81/81/2 80/80/2 82/82/2
f 80/80/2 78/78/2 83/83/2
f 83/83/2 78/78/2 77/77/2
f 79/79/2 76/76/2 75/75/2
f 75/75/2 74/74/2 84/84/2
f 74/74/2 85/85/2 84/84/2
f 84/84/2 85/85/2 86/86/2
f 86/86/2 87/87/2 88/88/2
f 85/85/2 87/87/2 86/86/2
f 89/89/2 90/90/2 91/91/2
f 91/91/2 90/90/2 92/92/2
f 88/88/2 50/50/2 89/89/2
f 88/88/2 87/87/2 50/50/2
f 90/90/2 50/50/2 59/59/2
f 89/89/2 50/50/2 90/90/2
f 59/59/2 93/93/2 94/94/2
f 93/93/2 59/59/2 49/49/2
f 47/95/3 46/96/4 94/97/5
f 36/98/6 83/99/7 77/100/8
f 20/101/9 67/102/10 48/103/11
f 23/104/12 22/105/13 69/106/14
f 31/107/15 77/100/8 79/108/16
f 10/109/17 9/110/18 56/111/19
f 24/112/20 23/104/12 70/113/21
f 13/114/22 61/115/23 62/116/24
f 32/117/25 79/108/16 75/118/26
f 26/119/27 21/120/28 68/121/29
f 22/105/13 3/122/30 49/123/31
f 6/124/32 52/125/33 61/115/23
f 29/126/34 75/118/26 84/127/35
f 15/128/36 62/116/24 50/129/37
f 25/130/38 24/112/20 71/131/39
f 18/132/40 65/133/41 52/125/33
f 37/134/42 84/127/35 86/135/43
f 2/136/44 50/129/37 87/137/45
f 21/120/28 25/130/38 72/138/46
f 5/139/47 53/140/48 65/133/41
f 39/141/43 86/135/43 88/142/49
f 41/143/50 87/137/45 85/144/51
f 9/110/18 26/119/27 73/145/52
f 5/139/47 4/146/53 51/147/54
f 40/148/55 88/142/49 89/149/56
f 38/150/57 85/144/51 74/151/58
f 11/152/59 10/109/17 58/153/60
f 4/146/53 14/154/61 60/155/62
f 45/156/63 43/157/64 91/158/65
f 27/159/66 74/151/58 76/160/67
f 11/152/59 57/161/68 67/102/10
f 14/154/61 17/162/69 64/163/70
f 42/164/71 89/149/56 91/158/65
f 28/165/72 76/160/67 78/166/73
f 17/162/69 16/167/74 63/168/75
f 44/169/76 45/156/63 92/170/77
f 30/171/78 78/166/73 81/172/79
f 16/167/74 8/173/80 55/174/81
f 12/175/82 44/169/76 90/176/83
f 33/177/84 81/172/79 82/178/85
f 8/173/80 7/179/86 54/180/87
f 46/96/4 12/175/82 59/181/88
f 35/182/89 82/178/85 80/183/90
f 7/179/86 19/184/91 66/185/92
f 3/122/30 47/95/3 93/186/93
f 34/187/94 80/183/90 83/99/7
f 19/184/91 1/188/95 48/103/11
f 47/95/3 94/97/5 93/186/93
f 36/98/6 77/100/8 31/107/15
f 20/101/9 48/103/11 1/188/95
f 23/104/12 69/106/14 70/113/21
f 31/107/15 79/108/16 32/117/25
f 10/109/17 56/111/19 58/153/60
f 24/112/20 70/113/21 71/131/39
f 13/114/22 62/116/24 15/128/36
f 32/117/25 75/118/26 29/126/34
f 26/119/27 68/121/29 73/145/52
f 22/105/13 49/123/31 69/106/14
f 6/124/32 61/115/23 13/114/22
f 29/126/34 84/127/35 37/134/42
f 15/128/36 50/129/37 2/136/44
f 25/130/38 71/131/39 72/138/46
f 18/132/40 52/125/33 6/124/32
f 37/134/42 86/135/43 39/141/43
f 2/136/44 87/137/45 41/143/50
f 21/120/28 72/138/46 68/121/29
f 5/139/47 65/133/41 18/132/40
f 39/141/43 88/142/49 40/148/55
f 41/143/50 85/144/51 38/150/57
f 9/110/18 73/145/52 56/111/19
f 5/139/47 51/147/54 53/140/48
f 40/148/55 89/149/56 42/164/71
f 38/150/57 74/151/58 27/159/66
f 11/152/59 58/153/60 57/161/68
f 4/146/53 60/155/62 51/147/54
f 45/156/63 91/158/65 92/170/77
f 27/159/66 76/160/67 28/165/72
f 11/152/59 67/102/10 20/101/9
f 14/154/61 64/163/70 60/155/62
f 42/164/71 91/158/65 43/157/64
f 28/165/72 78/166/73 30/171/78
f 17/162/69 63/168/75 64/163/70
f 44/169/76 92/170/77 90/176/83
f 30/171/78 81/172/79 33/177/84
f 16/167/74 55/174/81 63/168/75
f 12/175/82 90/176/83 59/181/88
f 33/177/84 82/178/85 35/182/89
f 8/173/80 54/180/87 55/174/81
f 46/96/4 59/181/88 94/97/5
f 35/182/89 80/183/90 34/187/94
f 7/179/86 66/185/92 54/180/87
f 3/122/30 93/186/93 49/123/31
f 34/187/94 83/99/7 36/98/6
f 19/184/91 48/103/11 66/185/92
