# Blender v2.82 (sub 7) OBJ File: 'Obstacals ALL.blend'
# www.blender.org
o Debris3_path854
v 0.623522 -0.038629 -0.024245
v 0.032496 0.044148 0.612396
v 0.585301 -0.038629 -0.097747
v -0.379682 0.044148 0.621034
v 0.543326 -0.038629 -0.132519
v 0.319208 -0.038629 -0.260730
v -0.438437 0.044148 0.592788
v 0.224240 -0.038629 -0.335514
v 0.188859 -0.038629 -0.374407
v -0.459864 0.044148 0.538678
v -0.459675 0.044148 0.489612
v 0.161264 -0.038629 -0.414788
v -0.442562 0.044148 0.430577
v -0.314169 0.044148 0.216096
v 0.141245 -0.038629 -0.457024
v -0.292913 0.044148 0.124656
v 0.128591 -0.038629 -0.501479
v -0.298463 0.044148 0.065165
v -0.319018 0.044148 0.002267
v 0.123093 -0.038629 -0.548520
v -0.374038 0.044148 -0.098623
v 0.124537 -0.038629 -0.598513
v -0.427794 0.044148 -0.140286
v -0.548260 0.044148 -0.192628
v 0.171698 -0.038629 -0.868600
v 0.152837 -0.038629 -0.995088
v 0.079800 -0.038629 -1.033736
v -0.048918 -0.038629 -1.043690
v -0.588053 0.044148 -0.252397
v -0.595519 0.044148 -0.301499
v -0.096100 -0.038629 -1.035269
v -0.157733 -0.038629 -0.983960
v -0.588151 0.044148 -0.351189
v -0.314973 -0.038629 -0.679924
v -0.553523 0.044148 -0.406879
v -0.342877 0.044148 -0.639431
v -0.314973 0.044148 -0.679924
v -0.157733 0.044148 -0.983960
v -0.342877 -0.038629 -0.639431
v -0.553523 -0.038629 -0.406879
v -0.096100 0.044148 -1.035269
v -0.588151 -0.038629 -0.351189
v -0.048918 0.044148 -1.043690
v -0.595519 -0.038629 -0.301499
v 0.079800 0.044148 -1.033736
v -0.588053 -0.038629 -0.252397
v -0.548260 -0.038629 -0.192628
v -0.427794 -0.038629 -0.140286
v 0.152837 0.044148 -0.995088
v -0.374038 -0.038629 -0.098623
v -0.319018 -0.038629 0.002267
v -0.298463 -0.038629 0.065165
v 0.171698 0.044148 -0.868600
v 0.124537 0.044148 -0.598513
v 0.123093 0.044148 -0.548520
v 0.128591 0.044148 -0.501479
v 0.141245 0.044148 -0.457024
v 0.161264 0.044148 -0.414788
v 0.188859 0.044148 -0.374407
v 0.224240 0.044148 -0.335514
v 0.319208 0.044148 -0.260730
v 0.543326 0.044148 -0.132519
v 0.585301 0.044148 -0.097747
v -0.292913 -0.038629 0.124656
v -0.314169 -0.038629 0.216096
v -0.442562 -0.038629 0.430577
v 0.623522 0.044148 -0.024245
v -0.459675 -0.038629 0.489612
v 0.564760 0.044148 0.489314
v 0.542641 0.044148 0.547759
v 0.511203 0.044148 0.600647
v 0.411391 0.044148 0.711783
v -0.459864 -0.038629 0.538678
v -0.438437 -0.038629 0.592788
v 0.363947 0.044148 0.744809
v -0.379682 -0.038629 0.621034
v 0.032496 -0.038629 0.612396
v 0.315822 0.044148 0.748372
v 0.564760 -0.038629 0.489314
v 0.542641 -0.038629 0.547759
v 0.511203 -0.038629 0.600647
v 0.411391 -0.038629 0.711783
v 0.363947 -0.038629 0.744809
v 0.315822 -0.038629 0.748372
v -0.047254 -0.001237 -4.750529
v -1.459578 -0.001237 -4.465786
v 0.886702 -0.001237 -4.636631
v -0.878703 -0.001237 -4.659411
v -2.108875 -0.001237 -4.129803
v -2.654631 -0.001237 -3.671051
v -3.137112 -0.001237 -3.109475
v -3.669906 -0.001237 -2.351480
v -3.991282 -0.001237 -1.740914
v -4.220899 -0.001237 -1.035663
v -4.302905 -0.001237 -0.264807
v -4.220899 -0.001237 0.407641
v -4.106091 -0.001237 1.260502
v -3.892875 -0.001237 1.982154
v -3.548450 -0.001237 2.621800
v -3.089217 -0.001237 3.195842
v -2.515176 -0.001237 3.655075
v -1.908332 -0.001237 3.966697
v -1.235884 -0.001237 4.196313
v -0.399423 -0.001237 4.376727
v 0.305827 -0.001237 4.475134
v 1.034769 -0.001237 4.372626
v 1.718151 -0.001237 4.190391
v 2.378754 -0.001237 3.825921
v 3.153254 -0.001237 3.210876
v 3.608842 -0.001237 2.618612
v 3.939144 -0.001237 2.003568
v 4.189717 -0.001237 1.263237
v 4.315004 -0.001237 -0.023800
v 4.246666 -0.001237 -0.729962
v 4.030262 -0.001237 -1.458903
v 3.597453 -0.001237 -2.415639
v 3.267151 -0.001237 -3.042073
v 2.800173 -0.001237 -3.577389
v 2.242077 -0.001237 -4.055757
v 1.558695 -0.001237 -4.443007
v -0.878703 -0.001237 -4.659411
v 0.886702 -0.001237 -4.636631
v -1.459578 -0.001237 -4.465786
v -0.047254 -0.001237 -4.750529
v 1.558695 -0.001237 -4.443007
v 2.242077 -0.001237 -4.055757
v 2.800173 -0.001237 -3.577389
v 3.267151 -0.001237 -3.042073
v 3.597453 -0.001237 -2.415639
v 4.030262 -0.001237 -1.458903
v 4.246666 -0.001237 -0.729962
v 4.315004 -0.001237 -0.023800
v 4.189717 -0.001237 1.263237
v 3.939144 -0.001237 2.003568
v 3.608842 -0.001237 2.618612
v 3.153254 -0.001237 3.210876
v 2.378754 -0.001237 3.825921
v 1.718151 -0.001237 4.190391
v 1.034769 -0.001237 4.372626
v 0.305827 -0.001237 4.475134
v -0.399423 -0.001237 4.376727
v -1.235884 -0.001237 4.196313
v -1.908332 -0.001237 3.966697
v -2.515176 -0.001237 3.655075
v -3.089217 -0.001237 3.195842
v -3.548450 -0.001237 2.621800
v -3.892875 -0.001237 1.982154
v -4.106091 -0.001237 1.260502
v -4.220899 -0.001237 0.407641
v -4.302905 -0.001237 -0.264807
v -4.220899 -0.001237 -1.035663
v -3.991282 -0.001237 -1.740914
v -3.669906 -0.001237 -2.351480
v -3.137112 -0.001237 -3.109475
v -2.654631 -0.001237 -3.671051
v -2.108875 -0.001237 -4.129803
vt 0.025364 0.038270
vt 0.025364 0.038270
vt 0.025364 0.038270
vt 0.025364 0.038270
vt 0.025364 0.038270
vt 0.025364 0.038270
vt 0.025364 0.038270
vt 0.025364 0.038270
vt 0.025364 0.038270
vt 0.025364 0.038270
vt 0.025364 0.038270
vt 0.025364 0.038270
vt 0.025364 0.038270
vt 0.025364 0.038270
vt 0.025364 0.038270
vt 0.025364 0.038270
vt 0.025364 0.038270
vt 0.025364 0.038270
vt 0.025364 0.038270
vt 0.025364 0.038270
vt 0.025364 0.038270
vt 0.025364 0.038270
vt 0.025364 0.038270
vt 0.025364 0.038270
vt 0.025364 0.038270
vt 0.025364 0.038270
vt 0.025364 0.038270
vt 0.025364 0.038270
vt 0.025364 0.038270
vt 0.025364 0.038270
vt 0.025364 0.038270
vt 0.025364 0.038270
vt 0.025364 0.038270
vt 0.025364 0.038270
vt 0.025364 0.038270
vt 0.025364 0.038270
vt 0.025364 0.038270
vt 0.025364 0.038270
vt 0.025364 0.038270
vt 0.025364 0.038270
vt 0.025364 0.038270
vt 0.025364 0.038270
vt 0.025364 0.038270
vt 0.025364 0.038270
vt 0.025364 0.038270
vt 0.025364 0.038270
vt 0.025364 0.038270
vt 0.025364 0.038270
vt 0.025364 0.038270
vt 0.025364 0.038270
vt 0.025364 0.038270
vt 0.025364 0.038270
vt 0.025364 0.038270
vt 0.025364 0.038270
vt 0.025364 0.038270
vt 0.025364 0.038270
vt 0.025364 0.038270
vt 0.025364 0.038270
vt 0.025364 0.038270
vt 0.025364 0.038270
vt 0.025364 0.038270
vt 0.025364 0.038270
vt 0.025364 0.038270
vt 0.025364 0.038270
vt 0.025364 0.038270
vt 0.025364 0.038270
vt 0.025364 0.038270
vt 0.025364 0.038270
vt 0.025364 0.038270
vt 0.025364 0.038270
vt 0.025364 0.038270
vt 0.025364 0.038270
vt 0.861998 0.756759
vt 0.867693 0.763172
vt 0.867693 0.763172
vt 0.906067 0.666358
vt 0.926776 0.650332
vt 0.926776 0.650332
vt 0.836061 0.559672
vt 0.834081 0.566435
vt 0.834081 0.566435
vt 0.891473 0.685614
vt 0.894023 0.680567
vt 0.894023 0.680567
vt 0.872052 0.764224
vt 0.872052 0.764224
vt 0.934186 0.636798
vt 0.928757 0.572606
vt 0.928757 0.572606
vt 0.848994 0.625623
vt 0.847095 0.633484
vt 0.847095 0.633484
vt 0.887946 0.702330
vt 0.888080 0.708579
vt 0.847469 0.718755
vt 0.825426 0.684626
vt 0.844890 0.713694
vt 0.844890 0.713694
vt 0.883946 0.762980
vt 0.883946 0.762980
vt 0.926713 0.565300
vt 0.923808 0.558690
vt 0.923808 0.558690
vt 0.892438 0.742339
vt 0.861998 0.756759
vt 0.841490 0.556141
vt 0.836061 0.559672
vt 0.837044 0.651303
vt 0.825913 0.657845
vt 0.825913 0.657845
vt 0.890695 0.758149
vt 0.890695 0.758149
vt 0.897292 0.675706
vt 0.897292 0.675706
vt 0.879575 0.557221
vt 0.841490 0.556141
vt 0.892438 0.742339
vt 0.914585 0.544798
vt 0.910202 0.540670
vt 0.910202 0.540670
vt 0.930654 0.645986
vt 0.930654 0.645986
vt 0.822227 0.677665
vt 0.825426 0.684626
vt 0.835679 0.579947
vt 0.847543 0.606757
vt 0.847543 0.606757
vt 0.905755 0.540225
vt 0.879575 0.557221
vt 0.821546 0.671454
vt 0.822227 0.677665
vt 0.905755 0.540225
vt 0.914585 0.544798
vt 0.822236 0.665316
vt 0.822236 0.665316
vt 0.847469 0.718755
vt 0.842011 0.646095
vt 0.837044 0.651303
vt 0.906067 0.666358
vt 0.888080 0.708579
vt 0.934186 0.636798
vt 0.821546 0.671454
vt 0.834098 0.572568
vt 0.834098 0.572568
vt 0.887946 0.702330
vt 0.842011 0.646095
vt 0.926713 0.565300
vt 0.888454 0.696451
vt 0.888454 0.696451
vt 0.849507 0.618186
vt 0.848994 0.625623
vt 0.889624 0.690894
vt 0.889624 0.690894
vt 0.849507 0.618186
vt 0.891473 0.685614
vt 0.835679 0.579947
vn 0.0000 -1.0000 0.0000
vn 0.0000 1.0000 -0.0000
vn -0.6398 0.0000 -0.7685
vn 0.4966 0.0000 -0.8680
vn -0.9298 0.0000 0.3682
vn 0.8256 0.0000 -0.5642
vn -0.1757 0.0000 -0.9844
vn 0.9935 0.0000 0.1137
vn -0.9505 0.0000 0.3106
vn -0.7412 0.0000 -0.6713
vn 0.0771 0.0000 -0.9970
vn 0.8596 0.0000 0.5110
vn -0.4333 0.0000 0.9013
vn -0.3985 0.0000 0.9172
vn 0.4677 0.0000 -0.8839
vn 0.7397 0.0000 -0.6729
vn 0.0210 0.0000 0.9998
vn 0.9891 0.0000 -0.1475
vn 0.5713 0.0000 0.8207
vn 0.6379 0.0000 -0.7701
vn -0.8492 0.0000 -0.5280
vn -0.8580 0.0000 -0.5136
vn -0.4327 0.0000 0.9015
vn -0.9892 0.0000 -0.1467
vn -0.8882 0.0000 -0.4594
vn 0.0738 0.0000 0.9973
vn 0.7440 0.0000 0.6682
vn -0.8324 0.0000 0.5542
vn -0.8234 0.0000 -0.5674
vn -0.6126 0.0000 0.7904
vn 0.6187 0.0000 -0.7856
vn 0.9851 0.0000 0.1720
vn 0.8872 0.0000 -0.4614
vn -0.9886 0.0000 0.1503
vn -1.0000 0.0000 -0.0039
vn 0.9996 0.0000 0.0289
vn -0.8779 0.0000 0.4788
vn 0.9353 0.0000 0.3540
vn 0.9932 0.0000 -0.1161
vn -0.9957 0.0000 0.0929
vn 0.9618 0.0000 -0.2738
vn -0.9740 0.0000 -0.2264
vn 0.9036 0.0000 -0.4283
vn -0.9605 0.0000 -0.2784
g Debris3_path854_Default_OBJ.006
s off
f 137/1/1 139/2/1 141/3/1
f 125/4/1 126/5/1 87/6/1
f 126/5/1 127/7/1 87/6/1
f 127/7/1 128/8/1 129/9/1
f 129/9/1 130/10/1 153/11/1
f 130/10/1 131/12/1 132/13/1
f 149/14/1 130/10/1 132/13/1
f 132/13/1 133/15/1 141/3/1
f 149/14/1 132/13/1 142/16/1
f 133/15/1 134/17/1 141/3/1
f 134/17/1 135/18/1 141/3/1
f 135/18/1 136/19/1 137/1/1
f 137/1/1 138/20/1 139/2/1
f 139/2/1 140/21/1 141/3/1
f 141/3/1 142/16/1 132/13/1
f 142/16/1 143/22/1 148/23/1
f 149/14/1 142/16/1 148/23/1
f 143/22/1 144/24/1 146/25/1
f 144/24/1 145/26/1 146/25/1
f 146/25/1 147/27/1 148/23/1
f 143/22/1 146/25/1 148/23/1
f 149/14/1 150/28/1 151/29/1
f 151/29/1 152/30/1 149/14/1
f 152/30/1 153/11/1 149/14/1
f 153/11/1 154/31/1 129/9/1
f 154/31/1 155/32/1 87/6/1
f 129/9/1 154/31/1 127/7/1
f 155/32/1 156/33/1 86/34/1
f 86/34/1 88/35/1 85/36/1
f 85/36/1 87/6/1 155/32/1
f 85/36/1 155/32/1 86/34/1
f 87/6/1 127/7/1 154/31/1
f 130/10/1 149/14/1 153/11/1
f 135/18/1 137/1/1 141/3/1
f 108/37/2 104/38/2 106/39/2
f 120/40/2 122/41/2 119/42/2
f 119/42/2 122/41/2 118/43/2
f 118/43/2 116/44/2 117/45/2
f 116/44/2 92/46/2 115/47/2
f 115/47/2 113/48/2 114/49/2
f 96/50/2 113/48/2 115/47/2
f 113/48/2 104/38/2 112/51/2
f 96/50/2 103/52/2 113/48/2
f 112/51/2 104/38/2 111/53/2
f 111/53/2 104/38/2 110/54/2
f 110/54/2 108/37/2 109/55/2
f 108/37/2 106/39/2 107/56/2
f 106/39/2 104/38/2 105/57/2
f 104/38/2 113/48/2 103/52/2
f 103/52/2 97/58/2 102/59/2
f 96/50/2 97/58/2 103/52/2
f 102/59/2 99/60/2 101/61/2
f 101/61/2 99/60/2 100/62/2
f 99/60/2 97/58/2 98/63/2
f 102/59/2 97/58/2 99/60/2
f 96/50/2 94/64/2 95/65/2
f 94/64/2 96/50/2 93/66/2
f 93/66/2 96/50/2 92/46/2
f 92/46/2 116/44/2 91/67/2
f 91/67/2 122/41/2 90/68/2
f 116/44/2 118/43/2 91/67/2
f 90/68/2 123/69/2 89/70/2
f 123/69/2 124/71/2 121/72/2
f 124/71/2 90/68/2 122/41/2
f 124/71/2 123/69/2 90/68/2
f 122/41/2 91/67/2 118/43/2
f 115/47/2 92/46/2 96/50/2
f 110/54/2 104/38/2 108/37/2
g Debris3_path854_SVGMat.003
f 38/73/3 41/74/3 31/75/3
f 61/76/4 62/77/4 5/78/4
f 7/79/5 10/80/5 73/81/5
f 58/82/6 59/83/6 9/84/6
f 41/74/7 43/85/7 28/86/7
f 67/87/8 69/88/8 79/89/8
f 18/90/9 19/91/9 51/92/9
f 55/93/2 54/94/2 37/95/2
f 35/96/10 36/97/10 39/98/10
f 43/85/11 45/99/11 27/100/11
f 70/101/12 71/102/12 81/103/12
f 25/104/1 32/105/1 28/86/1
f 4/106/13 7/79/13 74/107/13
f 23/108/14 24/109/14 47/110/14
f 45/99/15 49/111/15 26/112/15
f 59/83/16 60/113/16 8/114/16
f 2/115/17 4/106/17 76/116/17
f 49/111/18 53/117/18 25/104/18
f 72/118/19 75/119/19 83/120/19
f 62/77/20 63/121/20 3/122/20
f 33/123/21 35/96/21 40/124/21
f 13/125/22 14/126/22 65/127/22
f 78/128/23 2/115/23 77/129/23
f 30/130/24 33/123/24 42/131/24
f 37/95/25 38/73/25 32/105/25
f 75/119/26 78/128/26 84/132/26
f 71/102/27 72/118/27 82/133/27
f 24/109/28 29/134/28 46/135/28
f 36/97/29 37/95/29 34/136/29
f 21/137/30 23/108/30 48/138/30
f 60/113/31 61/76/31 6/139/31
f 53/117/32 54/94/32 22/140/32
f 63/121/33 67/87/33 1/141/33
f 29/134/34 30/130/34 44/142/34
f 10/80/35 11/143/35 68/144/35
f 54/94/36 55/93/36 20/145/36
f 19/91/37 21/137/37 50/146/37
f 69/88/38 70/101/38 80/147/38
f 55/93/39 56/148/39 17/149/39
f 16/150/40 18/90/40 52/151/40
f 56/148/41 57/152/41 15/153/41
f 14/126/42 16/150/42 64/154/42
f 57/152/43 58/82/43 12/155/43
f 11/143/44 13/125/44 66/156/44
f 38/73/3 31/75/3 32/105/3
f 61/76/4 5/78/4 6/139/4
f 7/79/5 73/81/5 74/107/5
f 58/82/6 9/84/6 12/155/6
f 41/74/7 28/86/7 31/75/7
f 67/87/8 79/89/8 1/141/8
f 18/90/9 51/92/9 52/151/9
f 63/121/2 62/77/2 67/87/2
f 67/87/2 62/77/2 69/88/2
f 69/88/2 2/115/2 70/101/2
f 70/101/2 2/115/2 71/102/2
f 71/102/2 78/128/2 72/118/2
f 72/118/2 78/128/2 75/119/2
f 78/128/2 71/102/2 2/115/2
f 2/115/2 13/125/2 4/106/2
f 4/106/2 10/80/2 7/79/2
f 2/115/2 14/126/2 13/125/2
f 10/80/2 4/106/2 11/143/2
f 11/143/2 4/106/2 13/125/2
f 2/115/2 16/150/2 14/126/2
f 61/76/2 2/115/2 62/77/2
f 62/77/2 2/115/2 69/88/2
f 2/115/2 61/76/2 16/150/2
f 16/150/2 61/76/2 18/90/2
f 60/113/2 18/90/2 61/76/2
f 60/113/2 19/91/2 18/90/2
f 59/83/2 19/91/2 60/113/2
f 19/91/2 59/83/2 21/137/2
f 58/82/2 57/152/2 21/137/2
f 58/82/2 21/137/2 59/83/2
f 21/137/2 36/97/2 23/108/2
f 57/152/2 36/97/2 21/137/2
f 23/108/2 35/96/2 24/109/2
f 24/109/2 30/130/2 29/134/2
f 35/96/2 33/123/2 30/130/2
f 24/109/2 35/96/2 30/130/2
f 35/96/2 23/108/2 36/97/2
f 37/95/2 54/94/2 38/73/2
f 38/73/2 43/85/2 41/74/2
f 38/73/2 53/117/2 43/85/2
f 54/94/2 53/117/2 38/73/2
f 36/97/2 55/93/2 37/95/2
f 57/152/2 56/148/2 36/97/2
f 43/85/2 53/117/2 45/99/2
f 45/99/2 53/117/2 49/111/2
f 56/148/2 55/93/2 36/97/2
f 35/96/10 39/98/10 40/124/10
f 43/85/11 27/100/11 28/86/11
f 70/101/12 81/103/12 80/147/12
f 79/89/1 5/78/1 1/141/1
f 1/141/1 5/78/1 3/122/1
f 5/78/1 77/129/1 6/139/1
f 79/89/1 77/129/1 5/78/1
f 81/103/1 77/129/1 80/147/1
f 80/147/1 77/129/1 79/89/1
f 83/120/1 84/132/1 82/133/1
f 82/133/1 84/132/1 81/103/1
f 77/129/1 81/103/1 84/132/1
f 74/107/1 73/81/1 76/116/1
f 76/116/1 66/156/1 77/129/1
f 66/156/1 65/127/1 77/129/1
f 68/144/1 76/116/1 73/81/1
f 66/156/1 76/116/1 68/144/1
f 64/154/1 77/129/1 65/127/1
f 6/139/1 52/151/1 8/114/1
f 52/151/1 51/92/1 8/114/1
f 8/114/1 51/92/1 9/84/1
f 64/154/1 6/139/1 77/129/1
f 52/151/1 6/139/1 64/154/1
f 9/84/1 50/146/1 12/155/1
f 51/92/1 50/146/1 9/84/1
f 12/155/1 50/146/1 15/153/1
f 46/135/1 44/142/1 47/110/1
f 47/110/1 40/124/1 48/138/1
f 44/142/1 40/124/1 47/110/1
f 48/138/1 39/98/1 50/146/1
f 50/146/1 39/98/1 15/153/1
f 15/153/1 39/98/1 17/149/1
f 40/124/1 44/142/1 42/131/1
f 39/98/1 48/138/1 40/124/1
f 17/149/1 39/98/1 20/145/1
f 22/140/1 32/105/1 25/104/1
f 25/104/1 27/100/1 26/112/1
f 39/98/1 34/136/1 20/145/1
f 20/145/1 34/136/1 22/140/1
f 31/75/1 28/86/1 32/105/1
f 32/105/1 22/140/1 34/136/1
f 25/104/1 28/86/1 27/100/1
f 4/106/13 74/107/13 76/116/13
f 23/108/14 47/110/14 48/138/14
f 45/99/15 26/112/15 27/100/15
f 59/83/16 8/114/16 9/84/16
f 2/115/17 76/116/17 77/129/17
f 49/111/18 25/104/18 26/112/18
f 72/118/19 83/120/19 82/133/19
f 62/77/20 3/122/20 5/78/20
f 33/123/21 40/124/21 42/131/21
f 13/125/22 65/127/22 66/156/22
f 78/128/23 77/129/23 84/132/23
f 30/130/24 42/131/24 44/142/24
f 37/95/25 32/105/25 34/136/25
f 75/119/26 84/132/26 83/120/26
f 71/102/27 82/133/27 81/103/27
f 24/109/28 46/135/28 47/110/28
f 36/97/29 34/136/29 39/98/29
f 21/137/30 48/138/30 50/146/30
f 60/113/31 6/139/31 8/114/31
f 53/117/32 22/140/32 25/104/32
f 63/121/33 1/141/33 3/122/33
f 29/134/34 44/142/34 46/135/34
f 10/80/35 68/144/35 73/81/35
f 54/94/36 20/145/36 22/140/36
f 19/91/37 50/146/37 51/92/37
f 69/88/38 80/147/38 79/89/38
f 55/93/39 17/149/39 20/145/39
f 16/150/40 52/151/40 64/154/40
f 56/148/41 15/153/41 17/149/41
f 14/126/42 64/154/42 65/127/42
f 57/152/43 12/155/43 15/153/43
f 11/143/44 66/156/44 68/144/44
