# Blender v2.82 (sub 7) OBJ File: 'Obstacals ALL.blend'
# www.blender.org
o Debris6_path856
v -0.303813 -0.038629 0.001447
v -0.228045 0.044148 0.824397
v -0.280656 0.044148 0.805520
v -0.335137 0.044148 0.799218
v -0.393986 0.044148 0.805491
v -0.661274 0.044148 0.901336
v -0.346387 -0.038629 0.034008
v -0.742375 0.044148 0.904124
v -0.798754 0.044148 0.890844
v -0.989797 0.044148 0.795984
v -0.396101 -0.038629 0.062290
v -1.050380 0.044148 0.744334
v -0.449175 -0.038629 0.083802
v -1.081487 0.044148 0.689100
v -0.501831 -0.038629 0.096052
v -1.084238 0.044148 0.626374
v -0.552156 -0.038629 0.100226
v -1.059756 0.044148 0.552243
v -0.997804 0.044148 0.442461
v -0.978803 0.044148 0.392855
v -0.965205 0.044148 0.334948
v -0.956364 0.044148 0.211555
v -0.962192 0.044148 0.154728
v -0.976679 0.044148 0.092351
v -0.859521 -0.038629 -0.023733
v -0.907660 -0.038629 -0.024968
v -0.950663 -0.038629 0.012234
v -0.976679 -0.038629 0.092351
v -0.950663 0.044148 0.012234
v -0.962192 -0.038629 0.154728
v -0.907660 0.044148 -0.024968
v -0.956364 -0.038629 0.211555
v -0.965205 -0.038629 0.334948
v -0.978803 -0.038629 0.392855
v -0.859521 0.044148 -0.023733
v -0.997804 -0.038629 0.442461
v -1.059756 -0.038629 0.552243
v -0.552156 0.044148 0.100226
v -0.501831 0.044148 0.096052
v -0.449175 0.044148 0.083802
v -0.396101 0.044148 0.062290
v -0.346387 0.044148 0.034008
v -0.303813 0.044148 0.001447
v -0.272157 0.044148 -0.032902
v -1.084238 -0.038629 0.626374
v -1.081487 -0.038629 0.689100
v -0.244030 0.044148 -0.123611
v -0.240817 0.044148 -0.179390
v -0.245913 0.044148 -0.236064
v -0.259670 0.044148 -0.295811
v -0.379532 0.044148 -0.599604
v -1.050380 -0.038629 0.744334
v -0.386026 0.044148 -0.689844
v -0.989797 -0.038629 0.795984
v -0.370901 0.044148 -0.748604
v -0.246402 0.044148 -0.949929
v -0.205212 0.044148 -1.043682
v -0.158480 0.044148 -1.210566
v -0.129172 0.044148 -1.279901
v -0.093680 0.044148 -1.335212
v -0.798754 -0.038629 0.890844
v -0.022062 0.044148 -1.402451
v 0.042456 0.044148 -1.443838
v 0.095677 0.044148 -1.469183
v 0.149871 0.044148 -1.484795
v 0.203189 0.044148 -1.490639
v 0.253780 0.044148 -1.486682
v 0.299794 0.044148 -1.472890
v -0.742375 -0.038629 0.904124
v 0.389371 0.044148 -1.409240
v 0.360887 0.044148 -0.997125
v 0.365088 0.044148 -0.938899
v -0.661274 -0.038629 0.901336
v 0.384147 0.044148 -0.893692
v 0.568865 0.044148 -0.631224
v -0.393986 -0.038629 0.805491
v 0.611391 0.044148 -0.523508
v -0.335137 -0.038629 0.799218
v 0.609312 0.044148 -0.455040
v -0.280656 -0.038629 0.805520
v 0.446261 0.044148 -0.114026
v 0.426118 0.044148 -0.040105
v 0.423361 0.044148 0.007695
v 0.440248 0.044148 0.132067
v 0.465378 0.044148 0.202770
v 0.549005 0.044148 0.364546
v -0.228045 -0.038629 0.824397
v 0.567866 0.044148 0.430142
v 0.570843 0.044148 0.545596
v 0.564250 0.044148 0.607323
v 0.541273 0.044148 0.689156
v 0.516434 0.044148 0.738488
v 0.483342 0.044148 0.785197
v 0.441451 0.044148 0.830618
v 0.370880 0.044148 0.889362
v 0.296357 0.044148 0.932798
v 0.219343 0.044148 0.960555
v 0.141299 0.044148 0.972260
v 0.063686 0.044148 0.967542
v -0.012035 0.044148 0.946029
v -0.272157 -0.038629 -0.032902
v -0.244030 -0.038629 -0.123611
v -0.240817 -0.038629 -0.179390
v -0.245913 -0.038629 -0.236064
v -0.259670 -0.038629 -0.295811
v -0.379532 -0.038629 -0.599604
v -0.386026 -0.038629 -0.689844
v -0.370901 -0.038629 -0.748604
v -0.246402 -0.038629 -0.949929
v -0.205212 -0.038629 -1.043682
v -0.158480 -0.038629 -1.210566
v -0.129172 -0.038629 -1.279901
v -0.093680 -0.038629 -1.335212
v -0.022062 -0.038629 -1.402451
v 0.042456 -0.038629 -1.443838
v 0.095677 -0.038629 -1.469183
v 0.149871 -0.038629 -1.484795
v 0.203189 -0.038629 -1.490639
v 0.253780 -0.038629 -1.486682
v 0.299794 -0.038629 -1.472890
v 0.389371 -0.038629 -1.409240
v 0.360887 -0.038629 -0.997125
v 0.365088 -0.038629 -0.938899
v 0.384147 -0.038629 -0.893692
v 0.568865 -0.038629 -0.631224
v 0.611391 -0.038629 -0.523508
v 0.609312 -0.038629 -0.455040
v 0.446261 -0.038629 -0.114026
v 0.426118 -0.038629 -0.040105
v 0.423361 -0.038629 0.007695
v 0.440248 -0.038629 0.132067
v 0.465378 -0.038629 0.202770
v 0.549005 -0.038629 0.364546
v 0.567866 -0.038629 0.430142
v 0.570843 -0.038629 0.545596
v 0.564250 -0.038629 0.607323
v 0.541273 -0.038629 0.689156
v 0.516434 -0.038629 0.738488
v 0.483342 -0.038629 0.785197
v 0.441451 -0.038629 0.830618
v 0.370880 -0.038629 0.889362
v 0.296357 -0.038629 0.932798
v 0.219343 -0.038629 0.960555
v 0.141299 -0.038629 0.972260
v 0.063686 -0.038629 0.967542
v -0.012035 -0.038629 0.946029
v 0.893480 -0.004776 -5.129795
v -0.556823 -0.004776 -5.169210
v -1.240205 -0.004776 -4.964195
v -1.896253 -0.004776 -4.636171
v -2.456626 -0.004776 -4.171471
v -2.907659 -0.004776 -3.652100
v -3.502825 -0.004776 -2.801863
v -4.012967 -0.004776 -2.093332
v -4.324721 -0.004776 -1.498166
v -4.721498 -0.004776 -0.137786
v -4.778181 -0.004776 0.542404
v -4.721498 -0.004776 1.279276
v -4.523110 -0.004776 1.987807
v -4.183015 -0.004776 2.667997
v -3.644531 -0.004776 3.206481
v -2.879318 -0.004776 3.915012
v -2.199128 -0.004776 4.255106
v -1.518938 -0.004776 4.510178
v -0.782066 -0.004776 4.595201
v 0.493290 -0.004776 4.538519
v 1.201821 -0.004776 4.440112
v 1.851308 -0.004776 4.243298
v 2.540158 -0.004776 3.869351
v 3.051875 -0.004776 3.456041
v 3.504547 -0.004776 2.845917
v 3.858813 -0.004776 2.275156
v 4.114671 -0.004776 1.546943
v 4.173716 -0.004776 0.838412
v 4.321782 -0.004776 -0.528353
v 4.242054 -0.004776 -1.268684
v 4.048429 -0.004776 -1.929287
v 3.615620 -0.004776 -2.931582
v 3.262539 -0.004776 -3.546626
v 2.795561 -0.004776 -4.138890
v 2.214686 -0.004776 -4.594479
v 1.565473 -0.004776 -4.913391
v 0.153149 -0.004776 -5.220912
v 0.893480 -0.004776 -5.129795
v 0.153149 -0.004776 -5.220912
v 1.565473 -0.004776 -4.913391
v 2.214686 -0.004776 -4.594479
v 2.795561 -0.004776 -4.138890
v 3.262539 -0.004776 -3.546626
v 3.615620 -0.004776 -2.931582
v 4.048429 -0.004776 -1.929287
v 4.242054 -0.004776 -1.268684
v 4.321782 -0.004776 -0.528353
v 4.173716 -0.004776 0.838412
v 4.114671 -0.004776 1.546943
v 3.858813 -0.004776 2.275156
v 3.504547 -0.004776 2.845917
v 3.051875 -0.004776 3.456041
v 2.540158 -0.004776 3.869351
v 1.851308 -0.004776 4.243298
v 1.201821 -0.004776 4.440112
v 0.493290 -0.004776 4.538519
v -0.782066 -0.004776 4.595201
v -1.518938 -0.004776 4.510178
v -2.199128 -0.004776 4.255106
v -2.879318 -0.004776 3.915012
v -3.644531 -0.004776 3.206481
v -4.183015 -0.004776 2.667997
v -4.523110 -0.004776 1.987807
v -4.721498 -0.004776 1.279276
v -4.778181 -0.004776 0.542404
v -4.721498 -0.004776 -0.137786
v -4.324721 -0.004776 -1.498166
v -4.012967 -0.004776 -2.093332
v -3.502825 -0.004776 -2.801863
v -2.907659 -0.004776 -3.652100
v -2.456626 -0.004776 -4.171471
v -1.896253 -0.004776 -4.636171
v -1.240205 -0.004776 -4.964195
v -0.556823 -0.004776 -5.169210
vt 0.031957 0.056531
vt 0.031957 0.056531
vt 0.031957 0.056531
vt 0.031957 0.056531
vt 0.031957 0.056531
vt 0.031957 0.056531
vt 0.031957 0.056531
vt 0.031957 0.056531
vt 0.031957 0.056531
vt 0.031957 0.056531
vt 0.031957 0.056531
vt 0.031957 0.056531
vt 0.031957 0.056531
vt 0.031957 0.056531
vt 0.031957 0.056531
vt 0.031957 0.056531
vt 0.031957 0.056531
vt 0.031957 0.056531
vt 0.031957 0.056531
vt 0.031957 0.056531
vt 0.031957 0.056531
vt 0.031957 0.056531
vt 0.031957 0.056531
vt 0.031957 0.056531
vt 0.031957 0.056531
vt 0.031957 0.056531
vt 0.031957 0.056531
vt 0.031957 0.056531
vt 0.031957 0.056531
vt 0.031957 0.056531
vt 0.031957 0.056531
vt 0.031957 0.056531
vt 0.031957 0.056531
vt 0.031957 0.056531
vt 0.031957 0.056531
vt 0.031957 0.056531
vt 0.031957 0.056531
vt 0.031957 0.056531
vt 0.031957 0.056531
vt 0.031957 0.056531
vt 0.031957 0.056531
vt 0.031957 0.056531
vt 0.031957 0.056531
vt 0.031957 0.056531
vt 0.031957 0.056531
vt 0.031957 0.056531
vt 0.031957 0.056531
vt 0.031957 0.056531
vt 0.031957 0.056531
vt 0.031957 0.056531
vt 0.031957 0.056531
vt 0.031957 0.056531
vt 0.031957 0.056531
vt 0.031957 0.056531
vt 0.031957 0.056531
vt 0.031957 0.056531
vt 0.031957 0.056531
vt 0.031957 0.056531
vt 0.031957 0.056531
vt 0.031957 0.056531
vt 0.031957 0.056531
vt 0.031957 0.056531
vt 0.031957 0.056531
vt 0.031957 0.056531
vt 0.031957 0.056531
vt 0.031957 0.056531
vt 0.031957 0.056531
vt 0.031957 0.056531
vt 0.031957 0.056531
vt 0.031957 0.056531
vt 0.031957 0.056531
vt 0.031957 0.056531
vt 0.031957 0.056531
vt 0.031957 0.056531
vt 0.849429 0.253211
vt 0.838007 0.292373
vt 0.838007 0.292373
vt 0.826353 0.202697
vt 0.831371 0.204276
vt 0.831371 0.204276
vt 0.923386 0.119882
vt 0.920233 0.113861
vt 0.920233 0.113861
vt 0.865247 0.387198
vt 0.872072 0.395866
vt 0.872072 0.395866
vt 0.898357 0.406724
vt 0.902742 0.404946
vt 0.902742 0.404946
vt 0.910780 0.330283
vt 0.841166 0.210695
vt 0.847430 0.111241
vt 0.836428 0.207049
vt 0.883291 0.404468
vt 0.888456 0.406481
vt 0.888456 0.406481
vt 0.908964 0.336111
vt 0.910780 0.330283
vt 0.850740 0.245510
vt 0.849429 0.253211
vt 0.837388 0.304006
vt 0.838830 0.311580
vt 0.838830 0.311580
vt 0.842238 0.112053
vt 0.836630 0.111245
vt 0.836630 0.111245
vt 0.851226 0.238204
vt 0.850740 0.245510
vt 0.878220 0.401201
vt 0.883291 0.404468
vt 0.837388 0.304006
vt 0.847430 0.111241
vt 0.842238 0.112053
vt 0.821558 0.202159
vt 0.826353 0.202697
vt 0.850920 0.231013
vt 0.851226 0.238204
vt 0.878220 0.401201
vt 0.928383 0.296449
vt 0.932435 0.282563
vt 0.932435 0.282563
vt 0.916241 0.108006
vt 0.916241 0.108006
vt 0.914517 0.214087
vt 0.916127 0.198055
vt 0.916127 0.198055
vt 0.932237 0.273737
vt 0.932237 0.273737
vt 0.852443 0.108808
vt 0.782484 0.195133
vt 0.781103 0.203174
vt 0.781103 0.203174
vt 0.916700 0.229778
vt 0.916700 0.229778
vt 0.909516 0.100433
vt 0.909516 0.100433
vt 0.783039 0.187808
vt 0.782484 0.195133
vt 0.848239 0.219320
vt 0.850920 0.231013
vt 0.798058 0.100242
vt 0.779853 0.112470
vt 0.779853 0.112470
vt 0.918521 0.188940
vt 0.918521 0.188940
vt 0.914780 0.220249
vt 0.914780 0.220249
vt 0.861865 0.380068
vt 0.865247 0.387198
vt 0.787680 0.218298
vt 0.792268 0.218138
vt 0.792268 0.218138
vt 0.811159 0.098890
vt 0.811159 0.098890
vt 0.782197 0.171902
vt 0.783039 0.187808
vt 0.859072 0.371131
vt 0.861865 0.380068
vt 0.783583 0.213502
vt 0.787680 0.218298
vt 0.803431 0.098530
vt 0.798058 0.100242
vt 0.926490 0.168086
vt 0.926490 0.168086
vt 0.854619 0.349618
vt 0.859072 0.371131
vt 0.783583 0.213502
vt 0.780901 0.164437
vt 0.782197 0.171902
vt 0.911278 0.396741
vt 0.908564 0.343616
vt 0.908564 0.343616
vt 0.821558 0.202159
vt 0.850694 0.337532
vt 0.854619 0.349618
vt 0.928288 0.159630
vt 0.928288 0.159630
vt 0.902415 0.094834
vt 0.902415 0.094834
vt 0.908964 0.336111
vt 0.770854 0.134334
vt 0.773187 0.143890
vt 0.773187 0.143890
vt 0.779090 0.158042
vt 0.780901 0.164437
vt 0.914517 0.214087
vt 0.771116 0.126248
vt 0.770854 0.134334
vt 0.779090 0.158042
vt 0.845223 0.214892
vt 0.848239 0.219320
vt 0.774080 0.119128
vt 0.771116 0.126248
vt 0.895076 0.091256
vt 0.895076 0.091256
vt 0.928571 0.144747
vt 0.928571 0.144747
vt 0.850694 0.337532
vt 0.774080 0.119128
vt 0.880243 0.090355
vt 0.873027 0.093128
vt 0.873027 0.093128
vt 0.803431 0.098530
vt 0.887639 0.089747
vt 0.880243 0.090355
vt 0.927943 0.136790
vt 0.927943 0.136790
vt 0.841166 0.210695
vt 0.845223 0.214892
vt 0.852443 0.108808
vt 0.887639 0.089747
vt 0.928383 0.296449
vt 0.836428 0.207049
vt 0.925753 0.126241
vt 0.925753 0.126241
vt 0.923386 0.119882
vt 0.893537 0.407234
vt 0.898357 0.406724
vt 0.893537 0.407234
vt 0.911278 0.396741
vn 0.0000 1.0000 0.0000
vn 0.0000 -1.0000 0.0000
vn -0.9302 0.0000 0.3670
vn -0.2266 0.0000 -0.9740
vn 0.8160 0.0000 0.5781
vn -0.6845 0.0000 -0.7290
vn 0.2871 0.0000 -0.9579
vn -0.2768 0.0000 -0.9609
vn 0.9215 0.0000 -0.3885
vn -0.9745 0.0000 0.2244
vn -0.9684 0.0000 -0.2493
vn 0.1060 0.0000 0.9944
vn -0.9960 0.0000 0.0896
vn -0.4300 0.0000 -0.9028
vn -0.9974 0.0000 0.0718
vn -0.1149 0.0000 0.9934
vn -0.0826 0.0000 -0.9966
vn -0.9983 0.0000 -0.0575
vn -0.5399 0.0000 -0.8417
vn 0.9301 0.0000 -0.3672
vn 0.7351 0.0000 0.6780
vn 0.9909 0.0000 -0.1345
vn 0.9995 0.0000 0.0304
vn -0.3377 0.0000 0.9412
vn -0.9741 0.0000 0.2262
vn 0.9022 0.0000 0.4314
vn 0.6398 0.0000 0.7686
vn -0.9948 0.0000 0.1020
vn -0.9551 0.0000 -0.2962
vn -0.4447 0.0000 0.8957
vn 0.9423 0.0000 -0.3349
vn 0.9648 0.0000 0.2629
vn -0.8416 0.0000 -0.5401
vn 0.0257 0.0000 -0.9997
vn 0.3375 0.0000 0.9413
vn -0.9974 0.0000 -0.0715
vn -0.9211 0.0000 -0.3893
vn -0.6543 0.0000 -0.7563
vn -0.2293 0.0000 0.9734
vn 0.8883 0.0000 -0.4592
vn -0.9630 0.0000 -0.2697
vn -0.9511 0.0000 -0.3089
vn -0.9735 0.0000 -0.2286
vn 0.9976 0.0000 0.0690
vn 0.3740 0.0000 -0.9274
vn -0.9155 0.0000 -0.4022
vn 0.9611 0.0000 -0.2763
vn 0.5036 0.0000 0.8640
vn 0.9974 0.0000 -0.0720
vn -0.9496 0.0000 -0.3136
vn -0.9338 0.0000 -0.3577
vn 0.9983 0.0000 0.0576
vn -0.9990 0.0000 0.0438
vn -0.8709 0.0000 -0.4915
vn -0.7353 0.0000 -0.6777
vn -0.8713 0.0000 0.4907
vn 0.3391 0.0000 0.9408
vn 0.9997 0.0000 -0.0258
vn -0.8505 0.0000 -0.5260
vn -0.6488 0.0000 0.7610
vn -0.2733 0.0000 0.9619
vn 0.0344 0.0000 0.9994
vn -0.0607 0.0000 0.9982
vn 0.9943 0.0000 0.1062
vn -0.6075 0.0000 -0.7943
vn -0.4906 0.0000 0.8714
vn 0.1483 0.0000 0.9889
vn 0.8178 0.0000 -0.5755
vn -0.4945 0.0000 -0.8692
vn 0.9628 0.0000 0.2703
vn 0.8932 0.0000 0.4497
vn -0.3756 0.0000 -0.9268
vn 0.0780 0.0000 -0.9970
vn -0.1090 0.0000 -0.9940
vn 0.5792 0.0000 -0.8152
s off
f 207/1/1 203/2/1 213/3/1
f 187/4/1 186/5/1 189/6/1
f 186/5/1 147/7/1 217/8/1
f 189/6/1 186/5/1 216/9/1
f 147/7/1 185/10/1 219/11/1
f 185/10/1 220/12/1 219/11/1
f 219/11/1 218/13/1 217/8/1
f 147/7/1 219/11/1 217/8/1
f 217/8/1 216/9/1 186/5/1
f 215/14/1 214/15/1 194/16/1
f 214/15/1 213/3/1 202/17/1
f 216/9/1 215/14/1 190/18/1
f 188/19/1 187/4/1 189/6/1
f 190/18/1 189/6/1 216/9/1
f 192/20/1 191/21/1 193/22/1
f 191/21/1 190/18/1 215/14/1
f 194/16/1 193/22/1 215/14/1
f 215/14/1 193/22/1 191/21/1
f 196/23/1 195/24/1 194/16/1
f 198/25/1 197/26/1 199/27/1
f 197/26/1 196/23/1 194/16/1
f 200/28/1 199/27/1 197/26/1
f 202/17/1 201/29/1 197/26/1
f 201/29/1 200/28/1 197/26/1
f 204/30/1 203/2/1 205/31/1
f 203/2/1 202/17/1 213/3/1
f 203/2/1 207/1/1 205/31/1
f 206/32/1 205/31/1 207/1/1
f 208/33/1 207/1/1 209/34/1
f 210/35/1 207/1/1 211/36/1
f 210/35/1 209/34/1 207/1/1
f 212/37/1 211/36/1 207/1/1
f 214/15/1 202/17/1 194/16/1
f 213/3/1 212/37/1 207/1/1
f 197/26/1 194/16/1 202/17/1
f 161/38/2 155/39/2 165/40/2
f 181/41/2 179/42/2 182/43/2
f 182/43/2 151/44/2 184/45/2
f 179/42/2 152/46/2 182/43/2
f 184/45/2 149/47/2 183/48/2
f 183/48/2 149/47/2 148/49/2
f 149/47/2 151/44/2 150/50/2
f 184/45/2 151/44/2 149/47/2
f 151/44/2 182/43/2 152/46/2
f 153/51/2 174/52/2 154/53/2
f 154/53/2 166/54/2 155/39/2
f 152/46/2 178/55/2 153/51/2
f 180/56/2 179/42/2 181/41/2
f 178/55/2 152/46/2 179/42/2
f 176/57/2 175/58/2 177/59/2
f 177/59/2 153/51/2 178/55/2
f 174/52/2 153/51/2 175/58/2
f 153/51/2 177/59/2 175/58/2
f 172/60/2 174/52/2 173/61/2
f 170/62/2 169/63/2 171/64/2
f 171/64/2 174/52/2 172/60/2
f 168/65/2 171/64/2 169/63/2
f 166/54/2 171/64/2 167/66/2
f 167/66/2 171/64/2 168/65/2
f 164/67/2 163/68/2 165/40/2
f 165/40/2 155/39/2 166/54/2
f 165/40/2 163/68/2 161/38/2
f 162/69/2 161/38/2 163/68/2
f 160/70/2 159/71/2 161/38/2
f 158/72/2 157/73/2 161/38/2
f 158/72/2 161/38/2 159/71/2
f 156/74/2 161/38/2 157/73/2
f 154/53/2 174/52/2 166/54/2
f 155/39/2 161/38/2 156/74/2
f 171/64/2 166/54/2 174/52/2
f 50/75/3 51/76/3 106/77/3
f 39/78/4 40/79/4 13/80/4
f 92/81/5 93/82/5 139/83/5
f 60/84/6 62/85/6 114/86/6
f 67/87/7 68/88/7 120/89/7
f 50/75/1 74/90/1 51/76/1
f 7/91/2 80/92/2 11/93/2
f 64/94/8 65/95/8 117/96/8
f 72/97/9 74/90/9 124/98/9
f 49/99/10 50/75/10 105/100/10
f 53/101/11 55/102/11 108/103/11
f 4/104/12 5/105/12 76/106/12
f 48/107/13 49/99/13 104/108/13
f 63/109/14 64/94/14 116/110/14
f 51/76/15 53/101/15 107/111/15
f 3/112/16 4/104/16 78/113/16
f 38/114/17 39/78/17 15/115/17
f 47/116/18 48/107/18 103/117/18
f 62/85/19 63/109/19 115/118/19
f 75/119/20 77/120/20 126/121/20
f 93/82/21 94/122/21 140/123/21
f 83/124/22 84/125/22 131/126/22
f 77/120/23 79/127/23 127/128/23
f 2/129/24 3/112/24 80/92/24
f 23/130/25 24/131/25 28/132/25
f 79/127/26 81/133/26 128/134/26
f 94/122/27 95/135/27 141/136/27
f 22/137/28 23/130/28 30/138/28
f 44/139/29 47/116/29 102/140/29
f 9/141/30 10/142/30 54/143/30
f 84/125/31 85/144/31 132/145/31
f 81/133/32 82/146/32 129/147/32
f 59/148/33 60/84/33 113/149/33
f 31/150/34 35/151/34 25/152/34
f 5/105/35 6/153/35 73/154/35
f 21/155/36 22/137/36 32/156/36
f 58/157/37 59/148/37 112/158/37
f 29/159/38 31/150/38 26/160/38
f 8/161/39 9/141/39 61/162/39
f 85/144/40 86/163/40 133/164/40
f 57/165/41 58/157/41 111/166/41
f 24/131/42 29/159/42 27/167/42
f 20/168/43 21/155/43 33/169/43
f 70/170/44 71/171/44 122/172/44
f 35/151/45 38/114/45 17/173/45
f 56/174/46 57/165/46 110/175/46
f 86/163/47 88/176/47 134/177/47
f 95/135/48 96/178/48 142/179/48
f 71/171/49 72/97/49 123/180/49
f 16/181/50 18/182/50 37/183/50
f 19/184/51 20/168/51 34/185/51
f 82/146/52 83/124/52 130/186/52
f 14/187/53 16/181/53 45/188/53
f 18/182/54 19/184/54 36/189/54
f 43/190/55 44/139/55 101/191/55
f 12/192/56 14/187/56 46/193/56
f 96/178/57 97/194/57 143/195/57
f 88/176/58 89/196/58 135/197/58
f 55/102/59 56/174/59 109/198/59
f 10/142/60 12/192/60 52/199/60
f 99/200/61 100/201/61 146/202/61
f 6/153/62 8/161/62 69/203/62
f 98/204/63 99/200/63 145/205/63
f 89/196/64 90/206/64 136/207/64
f 42/208/65 43/190/65 1/209/65
f 100/201/66 2/129/66 87/210/66
f 97/194/67 98/204/67 144/211/67
f 74/90/68 75/119/68 125/212/68
f 41/213/69 42/208/69 7/91/69
f 90/206/70 91/214/70 137/215/70
f 91/214/71 92/81/71 138/216/71
f 40/79/72 41/213/72 11/93/72
f 66/217/73 67/87/73 119/218/73
f 65/95/74 66/217/74 118/219/74
f 68/88/75 70/170/75 121/220/75
f 50/75/3 106/77/3 105/100/3
f 39/78/4 13/80/4 15/115/4
f 92/81/5 139/83/5 138/216/5
f 60/84/6 114/86/6 113/149/6
f 67/87/7 120/89/7 119/218/7
f 5/105/1 20/168/1 6/153/1
f 6/153/1 9/141/1 8/161/1
f 20/168/1 19/184/1 6/153/1
f 9/141/1 19/184/1 10/142/1
f 10/142/1 18/182/1 12/192/1
f 12/192/1 16/181/1 14/187/1
f 18/182/1 16/181/1 12/192/1
f 18/182/1 10/142/1 19/184/1
f 19/184/1 9/141/1 6/153/1
f 4/104/1 39/78/1 5/105/1
f 5/105/1 38/114/1 20/168/1
f 5/105/1 39/78/1 38/114/1
f 20/168/1 38/114/1 21/155/1
f 3/112/1 41/213/1 4/104/1
f 21/155/1 38/114/1 22/137/1
f 99/200/1 98/204/1 100/201/1
f 100/201/1 85/144/1 2/129/1
f 94/122/1 89/196/1 100/201/1
f 2/129/1 42/208/1 3/112/1
f 23/130/1 35/151/1 24/131/1
f 24/131/1 35/151/1 29/159/1
f 4/104/1 40/79/1 39/78/1
f 22/137/1 38/114/1 23/130/1
f 100/201/1 95/135/1 94/122/1
f 96/178/1 95/135/1 100/201/1
f 96/178/1 100/201/1 97/194/1
f 97/194/1 100/201/1 98/204/1
f 92/81/1 90/206/1 93/82/1
f 93/82/1 90/206/1 94/122/1
f 90/206/1 92/81/1 91/214/1
f 88/176/1 86/163/1 89/196/1
f 89/196/1 94/122/1 90/206/1
f 86/163/1 100/201/1 89/196/1
f 85/144/1 100/201/1 86/163/1
f 29/159/1 35/151/1 31/150/1
f 35/151/1 23/130/1 38/114/1
f 4/104/1 41/213/1 40/79/1
f 84/125/1 43/190/1 85/144/1
f 2/129/1 43/190/1 42/208/1
f 83/124/1 44/139/1 84/125/1
f 85/144/1 43/190/1 2/129/1
f 3/112/1 42/208/1 41/213/1
f 82/146/1 47/116/1 83/124/1
f 77/120/1 75/119/1 79/127/1
f 79/127/1 75/119/1 81/133/1
f 81/133/1 48/107/1 82/146/1
f 84/125/1 44/139/1 43/190/1
f 74/90/1 50/75/1 75/119/1
f 75/119/1 50/75/1 81/133/1
f 50/75/1 49/99/1 81/133/1
f 83/124/1 47/116/1 44/139/1
f 72/97/1 56/174/1 74/90/1
f 68/88/1 66/217/1 70/170/1
f 70/170/1 64/94/1 71/171/1
f 66/217/1 65/95/1 70/170/1
f 82/146/1 48/107/1 47/116/1
f 71/171/1 57/165/1 72/97/1
f 70/170/1 65/95/1 64/94/1
f 66/217/1 68/88/1 67/87/1
f 62/85/1 71/171/1 63/109/1
f 63/109/1 71/171/1 64/94/1
f 59/148/1 71/171/1 60/84/1
f 60/84/1 71/171/1 62/85/1
f 57/165/1 71/171/1 58/157/1
f 58/157/1 71/171/1 59/148/1
f 53/101/1 51/76/1 55/102/1
f 55/102/1 51/76/1 56/174/1
f 56/174/1 72/97/1 57/165/1
f 81/133/1 49/99/1 48/107/1
f 51/76/1 74/90/1 56/174/1
f 87/210/2 132/145/2 146/202/2
f 146/202/2 143/195/2 145/205/2
f 145/205/2 143/195/2 144/211/2
f 143/195/2 146/202/2 142/179/2
f 142/179/2 146/202/2 141/136/2
f 141/136/2 146/202/2 140/123/2
f 140/123/2 135/197/2 139/83/2
f 139/83/2 137/215/2 138/216/2
f 137/215/2 139/83/2 136/207/2
f 136/207/2 139/83/2 135/197/2
f 135/197/2 133/164/2 134/177/2
f 135/197/2 146/202/2 133/164/2
f 133/164/2 146/202/2 132/145/2
f 140/123/2 146/202/2 135/197/2
f 80/92/2 7/91/2 87/210/2
f 1/209/2 101/191/2 131/126/2
f 132/145/2 1/209/2 131/126/2
f 87/210/2 1/209/2 132/145/2
f 131/126/2 101/191/2 130/186/2
f 78/113/2 11/93/2 80/92/2
f 87/210/2 7/91/2 1/209/2
f 130/186/2 102/140/2 129/147/2
f 101/191/2 102/140/2 130/186/2
f 69/203/2 61/162/2 73/154/2
f 73/154/2 34/185/2 76/106/2
f 36/189/2 34/185/2 73/154/2
f 76/106/2 15/115/2 78/113/2
f 128/134/2 125/212/2 127/128/2
f 127/128/2 125/212/2 126/121/2
f 129/147/2 103/117/2 128/134/2
f 73/154/2 61/162/2 36/189/2
f 52/199/2 37/183/2 54/143/2
f 54/143/2 36/189/2 61/162/2
f 45/188/2 52/199/2 46/193/2
f 36/189/2 54/143/2 37/183/2
f 37/183/2 52/199/2 45/188/2
f 125/212/2 105/100/2 124/98/2
f 128/134/2 105/100/2 125/212/2
f 103/117/2 104/108/2 128/134/2
f 129/147/2 102/140/2 103/117/2
f 124/98/2 109/198/2 123/180/2
f 104/108/2 105/100/2 128/134/2
f 122/172/2 116/110/2 121/220/2
f 121/220/2 118/219/2 120/89/2
f 123/180/2 110/175/2 122/172/2
f 33/169/2 17/173/2 34/185/2
f 34/185/2 17/173/2 76/106/2
f 32/156/2 17/173/2 33/169/2
f 121/220/2 117/96/2 118/219/2
f 116/110/2 117/96/2 121/220/2
f 120/89/2 118/219/2 119/218/2
f 116/110/2 122/172/2 115/118/2
f 115/118/2 122/172/2 114/86/2
f 114/86/2 122/172/2 113/149/2
f 113/149/2 122/172/2 112/158/2
f 112/158/2 122/172/2 111/166/2
f 111/166/2 122/172/2 110/175/2
f 109/198/2 106/77/2 108/103/2
f 108/103/2 106/77/2 107/111/2
f 110/175/2 123/180/2 109/198/2
f 30/138/2 17/173/2 32/156/2
f 27/167/2 25/152/2 28/132/2
f 28/132/2 25/152/2 30/138/2
f 25/152/2 27/167/2 26/160/2
f 17/173/2 30/138/2 25/152/2
f 109/198/2 124/98/2 106/77/2
f 106/77/2 124/98/2 105/100/2
f 15/115/2 76/106/2 17/173/2
f 13/80/2 78/113/2 15/115/2
f 11/93/2 78/113/2 13/80/2
f 64/94/8 117/96/8 116/110/8
f 72/97/9 124/98/9 123/180/9
f 49/99/10 105/100/10 104/108/10
f 53/101/11 108/103/11 107/111/11
f 4/104/12 76/106/12 78/113/12
f 48/107/13 104/108/13 103/117/13
f 63/109/14 116/110/14 115/118/14
f 51/76/15 107/111/15 106/77/15
f 3/112/16 78/113/16 80/92/16
f 38/114/17 15/115/17 17/173/17
f 47/116/18 103/117/18 102/140/18
f 62/85/19 115/118/19 114/86/19
f 75/119/20 126/121/20 125/212/20
f 93/82/21 140/123/21 139/83/21
f 83/124/22 131/126/22 130/186/22
f 77/120/23 127/128/23 126/121/23
f 2/129/24 80/92/24 87/210/24
f 23/130/25 28/132/25 30/138/25
f 79/127/26 128/134/26 127/128/26
f 94/122/27 141/136/27 140/123/27
f 22/137/28 30/138/28 32/156/28
f 44/139/29 102/140/29 101/191/29
f 9/141/30 54/143/30 61/162/30
f 84/125/31 132/145/31 131/126/31
f 81/133/32 129/147/32 128/134/32
f 59/148/33 113/149/33 112/158/33
f 31/150/34 25/152/34 26/160/34
f 5/105/35 73/154/35 76/106/35
f 21/155/36 32/156/36 33/169/36
f 58/157/37 112/158/37 111/166/37
f 29/159/38 26/160/38 27/167/38
f 8/161/39 61/162/39 69/203/39
f 85/144/40 133/164/40 132/145/40
f 57/165/41 111/166/41 110/175/41
f 24/131/42 27/167/42 28/132/42
f 20/168/43 33/169/43 34/185/43
f 70/170/44 122/172/44 121/220/44
f 35/151/45 17/173/45 25/152/45
f 56/174/46 110/175/46 109/198/46
f 86/163/47 134/177/47 133/164/47
f 95/135/48 142/179/48 141/136/48
f 71/171/49 123/180/49 122/172/49
f 16/181/50 37/183/50 45/188/50
f 19/184/51 34/185/51 36/189/51
f 82/146/52 130/186/52 129/147/52
f 14/187/53 45/188/53 46/193/53
f 18/182/54 36/189/54 37/183/54
f 43/190/55 101/191/55 1/209/55
f 12/192/56 46/193/56 52/199/56
f 96/178/57 143/195/57 142/179/57
f 88/176/58 135/197/58 134/177/58
f 55/102/59 109/198/59 108/103/59
f 10/142/60 52/199/60 54/143/60
f 99/200/61 146/202/61 145/205/61
f 6/153/62 69/203/62 73/154/62
f 98/204/63 145/205/63 144/211/63
f 89/196/64 136/207/64 135/197/64
f 42/208/65 1/209/65 7/91/65
f 100/201/66 87/210/66 146/202/66
f 97/194/67 144/211/67 143/195/67
f 74/90/68 125/212/68 124/98/68
f 41/213/69 7/91/69 11/93/69
f 90/206/70 137/215/70 136/207/70
f 91/214/71 138/216/71 137/215/71
f 40/79/72 11/93/72 13/80/72
f 66/217/73 119/218/73 118/219/73
f 65/95/74 118/219/74 117/96/74
f 68/88/75 121/220/75 120/89/75
