# Blender v2.82 (sub 7) OBJ File: 'Obstacals ALL.blend'
# www.blender.org
o Debris2_path852
v -0.008624 0.039548 0.930647
v -0.100741 0.039548 0.819431
v -0.182050 0.039548 0.683890
v -0.250605 0.039548 0.447883
v -0.332564 0.039548 0.310913
v -0.582066 0.039548 0.259410
v -0.703039 0.039548 0.196296
v -0.826683 0.039548 0.005372
v -0.797075 0.039548 -0.207827
v -0.652092 0.039548 -0.290430
v -0.461284 0.039548 -0.319505
v -0.275508 0.039548 -0.387811
v -0.164663 0.039548 -0.494670
v -0.085226 0.039548 -0.695616
v -0.064690 0.039548 -0.901824
v -0.051975 0.039548 -1.037281
v 0.094430 0.039548 -1.156870
v 0.245967 0.039548 -1.166145
v 0.418756 0.039548 -1.093886
v 0.449261 0.039548 -0.861019
v 0.539148 0.039548 -0.727286
v 0.620447 0.039548 -0.541508
v 0.473738 0.039548 -0.376739
v 0.359712 0.039548 -0.258430
v 0.289164 0.039548 -0.130377
v 0.300118 0.039548 0.047384
v 0.348408 0.039548 0.193320
v 0.434407 0.039548 0.364815
v 0.478529 0.039548 0.535098
v 0.431486 0.039548 0.693540
v 0.119701 -0.032926 1.041983
v 0.297746 -0.032926 0.910078
v 0.431486 -0.032926 0.693540
v 0.478529 -0.032926 0.535098
v 0.434407 -0.032926 0.364815
v 0.348408 -0.032926 0.193320
v 0.300118 -0.032926 0.047384
v 0.289164 -0.032926 -0.130377
v 0.359712 -0.032926 -0.258430
v 0.473738 -0.032926 -0.376739
v 0.297746 0.039548 0.910078
v 0.620447 -0.032926 -0.541508
v 0.539148 -0.032926 -0.727286
v 0.449261 -0.032926 -0.861019
v 0.418756 -0.032926 -1.093886
v 0.245967 -0.032926 -1.166145
v 0.094430 -0.032926 -1.156870
v -0.051975 -0.032926 -1.037281
v -0.064690 -0.032926 -0.901824
v -0.085226 -0.032926 -0.695616
v -0.164663 -0.032926 -0.494670
v -0.275508 -0.032926 -0.387811
v -0.461284 -0.032926 -0.319505
v -0.652092 -0.032926 -0.290430
v -0.797075 -0.032926 -0.207827
v -0.826683 -0.032926 0.005372
v -0.703039 -0.032926 0.196296
v -0.582066 -0.032926 0.259410
v -0.332564 -0.032926 0.310913
v -0.250605 -0.032926 0.447883
v -0.182050 -0.032926 0.683890
v 0.119701 0.039548 1.041983
v -0.100741 -0.032926 0.819431
v -0.008624 -0.032926 0.930647
v 0.226099 -0.001430 -4.873538
v -0.495735 -0.001430 -4.802443
v -1.189830 -0.001430 -4.591892
v -1.829511 -0.001430 -4.249975
v -2.390196 -0.001430 -3.789833
v 4.045143 -0.001430 -1.958372
v 3.689784 -0.001430 -2.641754
v 2.842391 -0.001430 -3.789836
v 2.281704 -0.001430 -4.249978
v 1.642022 -0.001430 -4.591894
v 0.947928 -0.001430 -4.802444
v -1.952519 -0.001491 4.130726
v -1.312838 -0.001491 4.472643
v -0.618743 -0.001491 4.683194
v 0.103091 -0.001491 4.754288
v 0.824926 -0.001491 4.683193
v -2.987084 -0.001491 3.143618
v -3.464015 -0.015336 -2.701810
v -3.916414 -0.043087 -2.135736
v -4.263379 -0.022289 -1.506362
v -4.473060 -0.022289 -0.789149
v -4.539977 -0.043087 -0.080127
v -4.468883 -0.043087 0.641707
v -4.258331 -0.043087 1.335802
v -3.916414 -0.043087 1.975483
v 0.226099 -0.001430 -4.873538
v 2.162835 -0.001430 4.147239
v 2.733596 -0.001430 3.655204
v 3.540534 -0.001430 2.651452
v 3.894799 -0.001430 1.923240
v 4.099813 -0.001430 1.239857
v 4.195487 -0.001430 0.529140
v 4.332164 -0.001430 -0.564272
v 4.263825 -0.001430 -1.315992
v -3.916414 -0.043087 1.975483
v -4.258331 -0.043087 1.335802
v -4.468883 -0.043087 0.641707
v -4.539977 -0.043087 -0.080127
v -4.473060 -0.022289 -0.789149
v -4.263379 -0.022289 -1.506362
v -3.916414 -0.043087 -2.135736
v -3.464015 -0.015336 -2.701810
v -2.987084 -0.001491 3.143618
v 0.824926 -0.001491 4.683193
v 0.103091 -0.001491 4.754288
v -0.618743 -0.001491 4.683194
v -1.312838 -0.001491 4.472643
v -1.952519 -0.001491 4.130726
v 0.947928 -0.001430 -4.802444
v 1.642022 -0.001430 -4.591894
v 2.281704 -0.001430 -4.249978
v 2.842391 -0.001430 -3.789836
v 3.689784 -0.001430 -2.641754
v 4.045143 -0.001430 -1.958372
v -2.390196 -0.001430 -3.789833
v -1.829511 -0.001430 -4.249975
v 4.263825 -0.001430 -1.315992
v 4.332164 -0.001430 -0.564272
v 4.195487 -0.001430 0.529140
v 4.099813 -0.001430 1.239857
v 3.894799 -0.001430 1.923240
v 3.540534 -0.001430 2.651452
v 2.733596 -0.001430 3.655204
v 2.162835 -0.001430 4.147239
v -1.189830 -0.001430 -4.591892
v -0.495735 -0.001430 -4.802443
vt 0.025364 0.038270
vt 0.025364 0.038270
vt 0.025364 0.038270
vt 0.025364 0.038270
vt 0.025364 0.038270
vt 0.025364 0.038270
vt 0.025364 0.038270
vt 0.025364 0.038270
vt 0.025364 0.038270
vt 0.025364 0.038270
vt 0.025364 0.038270
vt 0.025364 0.038270
vt 0.025364 0.038270
vt 0.025364 0.038270
vt 0.025364 0.038270
vt 0.025364 0.038270
vt 0.025364 0.038270
vt 0.025364 0.038270
vt 0.025364 0.038270
vt 0.025364 0.038270
vt 0.025364 0.038270
vt 0.025364 0.038270
vt 0.025364 0.038270
vt 0.025364 0.038270
vt 0.025364 0.038270
vt 0.025364 0.038270
vt 0.025364 0.038270
vt 0.025364 0.038270
vt 0.025364 0.038270
vt 0.025364 0.038270
vt 0.025364 0.038270
vt 0.025364 0.038270
vt 0.025364 0.038270
vt 0.025364 0.038270
vt 0.025364 0.038270
vt 0.025364 0.038270
vt 0.025364 0.038270
vt 0.025364 0.038270
vt 0.025364 0.038270
vt 0.025364 0.038270
vt 0.025364 0.038270
vt 0.025364 0.038270
vt 0.025364 0.038270
vt 0.025364 0.038270
vt 0.025364 0.038270
vt 0.025364 0.038270
vt 0.025364 0.038270
vt 0.025364 0.038270
vt 0.025364 0.038270
vt 0.025364 0.038270
vt 0.025364 0.038270
vt 0.025364 0.038270
vt 0.025364 0.038270
vt 0.025364 0.038270
vt 0.025364 0.038270
vt 0.025364 0.038270
vt 0.025364 0.038270
vt 0.025364 0.038270
vt 0.025364 0.038270
vt 0.025364 0.038270
vt 0.025364 0.038270
vt 0.025364 0.038270
vt 0.025364 0.038270
vt 0.025364 0.038270
vt 0.025364 0.038270
vt 0.025364 0.038270
vt 0.616296 0.785374
vt 0.645267 0.777763
vt 0.629833 0.786495
vt 0.603218 0.770923
vt 0.602082 0.754555
vt 0.647992 0.749624
vt 0.600248 0.729637
vt 0.656022 0.733464
vt 0.663284 0.711014
vt 0.593152 0.705355
vt 0.583251 0.692442
vt 0.650179 0.691104
vt 0.566655 0.684188
vt 0.549611 0.680674
vt 0.639993 0.676808
vt 0.536660 0.670693
vt 0.633691 0.661334
vt 0.534015 0.644930
vt 0.634670 0.639854
vt 0.545060 0.621859
vt 0.638983 0.622219
vt 0.555866 0.614233
vt 0.578154 0.608009
vt 0.646665 0.601496
vt 0.650607 0.580919
vt 0.585475 0.591458
vt 0.578154 0.608009
vt 0.585475 0.591458
vt 0.646405 0.561773
vt 0.591599 0.562939
vt 0.616296 0.785374
vt 0.603218 0.770923
vt 0.650607 0.580919
vt 0.646665 0.601496
vt 0.593152 0.705355
vt 0.583251 0.692442
vt 0.536660 0.670693
vt 0.534015 0.644930
vt 0.645267 0.777763
vt 0.629833 0.786495
vt 0.618554 0.519668
vt 0.618554 0.519668
vt 0.634458 0.535607
vt 0.634458 0.535607
vt 0.633691 0.661334
vt 0.639993 0.676808
vt 0.638983 0.622219
vt 0.600248 0.729637
vt 0.607091 0.533121
vt 0.607091 0.533121
vt 0.663284 0.711014
vt 0.656022 0.733464
vt 0.598862 0.546561
vt 0.598862 0.546561
vt 0.549611 0.680674
vt 0.555866 0.614233
vt 0.647992 0.749624
vt 0.591599 0.562939
vt 0.650179 0.691104
vt 0.646405 0.561773
vt 0.545060 0.621859
vt 0.602082 0.754555
vt 0.634670 0.639854
vt 0.566655 0.684188
vn -0.0008 1.0000 -0.0023
vn 0.0000 1.0000 0.0000
vn -0.0051 1.0000 0.0078
vn -0.0612 0.9981 0.0000
vn 0.1265 0.9913 0.0370
vn 0.1389 0.9894 0.0421
vn -0.0465 0.9989 0.0014
vn -0.0001 1.0000 -0.0001
vn 0.0000 1.0000 0.0001
vn 0.0008 -1.0000 0.0023
vn 0.0000 -1.0000 0.0000
vn 0.0051 -1.0000 -0.0078
vn 0.0612 -0.9981 0.0000
vn -0.1265 -0.9913 -0.0370
vn -0.1389 -0.9894 -0.0421
vn 0.0465 -0.9989 -0.0014
vn 0.0001 -1.0000 0.0001
vn -0.0000 -1.0000 -0.0001
vn -0.8581 0.0000 0.5135
vn -0.6326 0.0000 -0.7745
vn 0.9680 0.0000 -0.2508
vn -0.6940 0.0000 -0.7199
vn -0.9905 0.0000 -0.1376
vn 0.3858 0.0000 -0.9226
vn 0.5953 0.0000 0.8035
vn 0.8759 0.0000 0.4825
vn 0.8939 0.0000 -0.4483
vn -0.9300 0.0000 -0.3676
vn -0.6553 0.0000 0.7553
vn -0.0611 0.0000 -0.9981
vn 0.9161 0.0000 -0.4009
vn -0.7701 0.0000 0.6379
vn -0.4950 0.0000 -0.8689
vn -0.2022 0.0000 0.9794
vn 0.8299 0.0000 -0.5578
vn -0.8575 0.0000 0.5144
vn 0.7200 0.0000 0.6940
vn 0.8508 0.0000 0.5255
vn -0.4626 0.0000 0.8866
vn -0.9951 0.0000 -0.0991
vn 0.9494 0.0000 -0.3141
vn 0.9915 0.0000 -0.1299
vn -0.9603 0.0000 0.2789
vn -0.1506 0.0000 -0.9886
vn 0.9586 0.0000 0.2846
vn -0.8394 0.0000 0.5436
vn -0.3451 0.0000 -0.9386
vn 0.9981 0.0000 -0.0615
vn -0.9956 0.0000 -0.0935
vn 0.7469 0.0000 0.6650
g Debris2_path852_Default_OBJ.006
s off
f 81/1/1 123/2/1 82/3/1
f 65/4/2 66/5/2 75/6/2
f 66/5/2 67/7/2 75/6/2
f 67/7/2 68/8/2 69/9/2
f 69/9/3 82/3/3 123/2/3
f 82/3/4 83/10/4 89/11/4
f 69/9/2 123/2/2 71/12/2
f 83/10/5 84/13/5 85/14/5
f 85/14/6 86/15/6 83/10/6
f 86/15/2 87/16/2 83/10/2
f 87/16/2 88/17/2 89/11/2
f 89/11/7 81/1/7 82/3/7
f 81/1/2 76/18/2 127/19/2
f 125/20/2 81/1/2 126/21/2
f 76/18/2 77/22/2 78/23/2
f 78/23/2 79/24/2 80/25/2
f 80/25/8 128/26/8 127/19/8
f 127/19/2 126/21/2 81/1/2
f 125/20/2 124/27/2 81/1/2
f 124/27/2 123/2/2 81/1/2
f 123/2/2 122/28/2 70/29/2
f 122/28/2 121/30/2 70/29/2
f 70/29/2 71/12/2 123/2/2
f 71/12/2 72/31/2 69/9/2
f 72/31/2 73/32/2 67/7/2
f 73/32/2 74/33/2 75/6/2
f 67/7/2 69/9/2 72/31/2
f 87/16/2 89/11/2 83/10/2
f 76/18/2 78/23/2 127/19/2
f 78/23/9 80/25/9 127/19/9
f 73/32/2 75/6/2 67/7/2
f 107/34/10 106/35/10 96/36/10
f 90/37/11 113/38/11 130/39/11
f 130/39/11 113/38/11 129/40/11
f 129/40/11 119/41/11 120/42/11
f 119/41/12 96/36/12 106/35/12
f 106/35/13 99/43/13 105/44/13
f 119/41/11 117/45/11 96/36/11
f 105/44/14 103/46/14 104/47/14
f 103/46/15 105/44/15 102/48/15
f 102/48/11 105/44/11 101/49/11
f 101/49/11 99/43/11 100/50/11
f 99/43/16 106/35/16 107/34/16
f 107/34/11 92/51/11 112/52/11
f 94/53/11 93/54/11 107/34/11
f 112/52/11 110/55/11 111/56/11
f 110/55/11 108/57/11 109/58/11
f 108/57/17 92/51/17 91/59/17
f 92/51/11 107/34/11 93/54/11
f 94/53/11 107/34/11 95/60/11
f 95/60/11 107/34/11 96/36/11
f 96/36/11 118/61/11 97/62/11
f 97/62/11 118/61/11 98/63/11
f 118/61/11 96/36/11 117/45/11
f 117/45/11 119/41/11 116/64/11
f 116/64/11 129/40/11 115/65/11
f 115/65/11 113/38/11 114/66/11
f 129/40/11 116/64/11 119/41/11
f 101/49/11 105/44/11 99/43/11
f 112/52/11 92/51/11 110/55/11
f 110/55/18 92/51/18 108/57/18
f 115/65/11 129/40/11 113/38/11
g Debris2_path852_SVGMat.002
f 17/67/2 19/68/2 18/69/2
f 16/70/2 19/68/2 17/67/2
f 15/71/2 19/68/2 16/70/2
f 15/71/2 20/72/2 19/68/2
f 14/73/2 20/72/2 15/71/2
f 14/73/2 21/74/2 20/72/2
f 14/73/2 22/75/2 21/74/2
f 13/76/2 22/75/2 14/73/2
f 12/77/2 22/75/2 13/76/2
f 12/77/2 23/78/2 22/75/2
f 11/79/2 23/78/2 12/77/2
f 10/80/2 23/78/2 11/79/2
f 10/80/2 24/81/2 23/78/2
f 9/82/2 24/81/2 10/80/2
f 9/82/2 25/83/2 24/81/2
f 8/84/2 25/83/2 9/82/2
f 8/84/2 26/85/2 25/83/2
f 7/86/2 26/85/2 8/84/2
f 7/86/2 27/87/2 26/85/2
f 6/88/2 27/87/2 7/86/2
f 5/89/2 27/87/2 6/88/2
f 5/89/2 28/90/2 27/87/2
f 5/89/2 29/91/2 28/90/2
f 4/92/2 29/91/2 5/89/2
f 5/89/19 59/93/19 60/94/19 4/92/19
f 4/92/2 30/95/2 29/91/2
f 3/96/2 30/95/2 4/92/2
f 17/67/20 47/97/20 48/98/20 16/70/20
f 29/91/21 34/99/21 35/100/21 28/90/21
f 13/76/22 51/101/22 52/102/22 12/77/22
f 9/82/23 55/103/23 56/104/23 8/84/23
f 19/68/24 45/105/24 46/106/24 18/69/24
f 62/107/25 31/108/25 32/109/25 41/110/25
f 25/83/26 38/111/26 39/112/26 24/81/26
f 28/90/27 35/100/27 36/113/27 27/87/27
f 14/73/28 50/114/28 51/101/28 13/76/28
f 1/115/29 64/116/29 31/108/29 62/107/29
f 18/69/30 46/106/30 47/97/30 17/67/30
f 22/75/31 42/117/31 43/118/31 21/74/31
f 2/119/32 63/120/32 64/116/32 1/115/32
f 10/80/33 54/121/33 55/103/33 9/82/33
f 6/88/34 58/122/34 59/93/34 5/89/34
f 21/74/35 43/118/35 44/123/35 20/72/35
f 3/96/36 61/124/36 63/120/36 2/119/36
f 24/81/37 39/112/37 40/125/37 23/78/37
f 41/110/38 32/109/38 33/126/38 30/95/38
f 7/86/39 57/127/39 58/122/39 6/88/39
f 15/71/40 49/128/40 50/114/40 14/73/40
f 27/87/41 36/113/41 37/129/41 26/85/41
f 20/72/42 44/123/42 45/105/42 19/68/42
f 4/92/43 60/94/43 61/124/43 3/96/43
f 11/79/44 53/130/44 54/121/44 10/80/44
f 3/96/2 41/110/2 30/95/2
f 2/119/2 41/110/2 3/96/2
f 30/95/45 33/126/45 34/99/45 29/91/45
f 8/84/46 56/104/46 57/127/46 7/86/46
f 12/77/47 52/102/47 53/130/47 11/79/47
f 26/85/48 37/129/48 38/111/48 25/83/48
f 16/70/49 48/98/49 49/128/49 15/71/49
f 23/78/50 40/125/50 42/117/50 22/75/50
f 31/108/11 64/116/11 32/109/11
f 64/116/11 63/120/11 32/109/11
f 63/120/11 61/124/11 32/109/11
f 61/124/11 33/126/11 32/109/11
f 1/115/2 41/110/2 2/119/2
f 61/124/11 60/94/11 33/126/11
f 60/94/11 34/99/11 33/126/11
f 62/107/2 41/110/2 1/115/2
f 60/94/11 59/93/11 34/99/11
f 59/93/11 35/100/11 34/99/11
f 59/93/11 36/113/11 35/100/11
f 59/93/11 58/122/11 36/113/11
f 58/122/11 57/127/11 36/113/11
f 57/127/11 37/129/11 36/113/11
f 57/127/11 56/104/11 37/129/11
f 56/104/11 38/111/11 37/129/11
f 56/104/11 55/103/11 38/111/11
f 55/103/11 39/112/11 38/111/11
f 55/103/11 54/121/11 39/112/11
f 54/121/11 40/125/11 39/112/11
f 54/121/11 53/130/11 40/125/11
f 53/130/11 52/102/11 40/125/11
f 52/102/11 42/117/11 40/125/11
f 52/102/11 51/101/11 42/117/11
f 51/101/11 50/114/11 42/117/11
f 50/114/11 43/118/11 42/117/11
f 50/114/11 44/123/11 43/118/11
f 50/114/11 49/128/11 44/123/11
f 49/128/11 45/105/11 44/123/11
f 49/128/11 48/98/11 45/105/11
f 48/98/11 47/97/11 45/105/11
f 47/97/11 46/106/11 45/105/11
