# Blender v2.82 (sub 7) OBJ File: 'Obstacals ALL.blend'
# www.blender.org
o GasCloud1_Mesh3_Model
v -0.661763 -0.000000 -1.043232
v -0.661763 0.058370 -1.043232
v 0.448280 0.000001 1.133069
v 0.010554 -0.000000 -1.213830
v 0.440240 0.058371 1.281686
v 0.417720 0.000001 1.344291
v 0.440240 0.000001 1.281686
v 0.543632 0.000001 -0.201266
v 0.503974 0.058370 -0.372898
v 0.543632 0.058371 -0.201266
v -0.339278 0.000001 0.499711
v -0.346684 0.000001 0.576457
v -0.339278 0.058371 0.499711
v -0.605665 0.058370 -1.234048
v -0.583135 -0.000000 -1.263802
v -0.605665 -0.000000 -1.234048
v -0.622901 0.058370 -1.200946
v -0.622901 -0.000000 -1.200946
v -0.270620 0.000001 0.997845
v -0.243615 0.000001 1.062982
v -0.270620 0.058371 0.997845
v 0.192873 0.000001 1.512619
v 0.240033 0.058371 1.506881
v 0.192873 0.058371 1.512619
v 0.354637 0.000000 -0.935453
v -0.046132 0.058371 1.368900
v 0.259055 0.058370 -1.066694
v 0.449830 0.000001 1.215844
v 0.446110 0.058371 1.149413
v 0.449830 0.058371 1.215844
v -0.145574 0.000001 1.246129
v -0.127687 0.000001 1.272239
v -0.145574 0.058371 1.246129
v -0.678109 -0.000000 -0.856210
v -0.653231 0.058370 -0.607341
v -0.678109 0.058370 -0.856210
v -0.224818 -0.000000 -1.256662
v -0.224818 0.058370 -1.256662
v 0.383176 0.058371 1.401150
v 0.361811 0.000001 1.426707
v 0.383176 0.000001 1.401150
v 0.269894 0.000001 1.496163
v 0.311967 0.058371 1.470778
v 0.269893 0.058371 1.496163
v 0.161313 0.000001 1.509374
v -0.201000 -0.000000 -1.248112
v 0.417720 0.058371 1.344291
v -0.380232 0.058370 -1.334321
v -0.344106 -0.000000 -1.324952
v -0.380232 -0.000000 -1.334321
v 0.538232 0.058371 0.956534
v 0.538232 0.000001 0.956534
v -0.417416 0.058370 -1.337513
v -0.417416 -0.000000 -1.337513
v 0.152293 -0.000000 -1.146402
v 0.129350 0.058370 -1.160018
v 0.152293 0.058370 -1.146402
v -0.524865 0.058370 -1.310024
v -0.490765 -0.000000 -1.325191
v -0.524865 -0.000000 -1.310024
v 0.551972 0.058371 0.925087
v 0.549052 0.000001 0.934485
v -0.393286 0.000001 0.158630
v -0.653231 -0.000000 -0.607341
v -0.341224 0.000001 0.430443
v -0.339044 0.058371 0.456368
v -0.341224 0.058371 0.430443
v -0.046132 0.000001 1.368900
v 0.116306 0.058371 1.494164
v 0.479112 0.000001 1.039480
v 0.116306 0.000001 1.494164
v 0.161313 0.058371 1.509374
v 0.361811 0.058371 1.426707
v 0.311967 0.000001 1.470778
v 0.571169 0.058371 0.784860
v -0.490765 0.058370 -1.325191
v -0.454610 -0.000000 -1.334443
v -0.247555 0.058370 -1.267767
v -0.247555 -0.000000 -1.267767
v -0.344106 0.058370 -1.324952
v -0.310057 -0.000000 -1.309675
v 0.240033 0.000001 1.506881
v -0.583135 0.058370 -1.263802
v -0.555948 -0.000000 -1.289370
v -0.454610 0.058370 -1.334443
v -0.555948 0.058370 -1.289370
v -0.176393 0.058370 -1.242226
v 0.455212 0.000001 1.100838
v 0.455212 0.058371 1.100838
v 0.082094 0.058370 -1.184777
v 0.082094 -0.000000 -1.184777
v 0.129350 -0.000000 -1.160018
v 0.042274 0.058370 -1.202393
v 0.042274 -0.000000 -1.202393
v 0.010554 0.058370 -1.213830
v 0.503974 0.000000 -0.372898
v -0.348151 0.058371 0.653066
v -0.346684 0.058371 0.576457
v -0.348151 0.000001 0.653066
v -0.339044 0.000001 0.456368
v -0.305043 0.058371 0.897859
v -0.305043 0.000001 0.897859
v -0.334725 0.058371 0.779981
v -0.334725 0.000001 0.779981
v -0.243615 0.058371 1.062982
v 0.346047 0.058370 -0.962504
v 0.346047 0.000000 -0.962504
v 0.354637 0.058370 -0.935453
v -0.127687 0.058371 1.272239
v 0.320455 0.058370 -1.004921
v 0.320455 -0.000000 -1.004921
v 0.259055 -0.000000 -1.066694
v -0.180174 0.058371 1.188871
v -0.180174 0.000001 1.188871
v -0.213442 0.058371 1.126707
v -0.213442 0.000001 1.126707
v -0.201000 0.058370 -1.248112
v -0.071453 0.058370 -1.233048
v -0.071453 -0.000000 -1.233048
v -0.104957 0.058370 -1.236904
v -0.104957 -0.000000 -1.236904
v -0.176393 -0.000000 -1.242226
v 0.332973 -0.000000 -0.987695
v 0.332973 0.058370 -0.987695
v 0.196672 0.058370 -1.116789
v 0.196672 -0.000000 -1.116789
v 0.479112 0.058371 1.039480
v -0.393286 0.058371 0.158630
v 0.399119 0.000000 -0.629675
v 0.399119 0.058370 -0.629675
v 0.571169 0.000001 0.784860
v -0.369650 0.058371 0.263272
v -0.369650 0.000001 0.263272
v 0.465529 0.058371 1.069521
v 0.465529 0.000001 1.069521
v -0.310057 0.058370 -1.309675
v -0.133647 0.032692 -5.011983
v -0.452876 0.032692 -5.041921
v -1.179814 0.032692 -4.979075
v -1.876861 0.032692 -4.757712
v -2.535845 0.032692 -4.413340
v -3.191890 0.032692 -3.852968
v -3.724926 0.032692 -3.251593
v -4.052949 0.032692 -2.609216
v -4.271630 0.032692 -1.898500
v -4.339968 0.032692 -0.668416
v -4.271630 0.032692 0.069635
v -3.998279 0.032692 1.504733
v -3.765929 0.032692 2.215449
v -3.205557 0.032692 3.322525
v -2.740859 0.032692 3.869229
v -1.866132 0.032692 4.593612
v -1.237422 0.032692 4.921635
v -0.513039 0.032692 5.153984
v 0.225011 0.032692 5.208654
v 0.935727 0.032692 5.153984
v 1.646442 0.032692 4.935302
v 2.275152 0.032692 4.593612
v 3.030916 0.032692 4.003172
v 3.526886 0.032692 3.389113
v 3.857533 0.032692 2.727820
v 4.188180 0.032692 1.641409
v 4.259032 0.032692 0.932881
v 4.275434 0.032692 -0.018385
v 4.177027 0.032692 -0.986051
v 3.765733 0.032692 -2.386032
v 3.433534 0.032692 -3.026700
v 2.974784 0.032692 -3.588274
v 2.136378 0.032692 -4.260581
v 1.511528 0.032692 -4.616508
v 0.261828 0.032692 -4.964526
v -0.133647 0.032692 -5.011983
v 0.261828 0.032692 -4.964526
v 1.511528 0.032692 -4.616508
v 2.136378 0.032692 -4.260581
v 2.974784 0.032692 -3.588274
v 3.433534 0.032692 -3.026700
v 3.765733 0.032692 -2.386032
v 4.177027 0.032692 -0.986051
v 4.275434 0.032692 -0.018385
v 4.259032 0.032692 0.932881
v 4.188180 0.032692 1.641409
v 3.857533 0.032692 2.727820
v 3.526886 0.032692 3.389113
v 3.030916 0.032692 4.003172
v 2.275152 0.032692 4.593612
v 1.646442 0.032692 4.935302
v 0.935727 0.032692 5.153984
v 0.225011 0.032692 5.208654
v -0.513039 0.032692 5.153984
v -1.237422 0.032692 4.921635
v -1.866132 0.032692 4.593612
v -2.740859 0.032692 3.869229
v -3.205557 0.032692 3.322525
v -3.765929 0.032692 2.215449
v -3.998279 0.032692 1.504733
v -4.271630 0.032692 0.069635
v -4.339968 0.032692 -0.668416
v -4.271630 0.032692 -1.898500
v -4.052949 0.032692 -2.609216
v -3.724926 0.032692 -3.251593
v -3.191890 0.032692 -3.852968
v -2.535845 0.032692 -4.413340
v -1.876861 0.032692 -4.757712
v -1.179814 0.032692 -4.979075
v -0.452876 0.032692 -5.041921
vt 0.000000 0.000000
vt 0.000000 0.000000
vt 0.000000 0.000000
vt 0.000000 0.000000
vt 0.000000 0.000000
vt 0.000000 0.000000
vt 0.000000 0.000000
vt 0.000000 0.000000
vt 0.000000 0.000000
vt 0.000000 0.000000
vt 0.000000 0.000000
vt 0.000000 0.000000
vt 0.000000 0.000000
vt 0.000000 0.000000
vt 0.000000 0.000000
vt 0.000000 0.000000
vt 0.000000 0.000000
vt 0.000000 0.000000
vt 0.000000 0.000000
vt 0.000000 0.000000
vt 0.000000 0.000000
vt 0.000000 0.000000
vt 0.000000 0.000000
vt 0.000000 0.000000
vt 0.000000 0.000000
vt 0.000000 0.000000
vt 0.000000 0.000000
vt 0.000000 0.000000
vt 0.000000 0.000000
vt 0.000000 0.000000
vt 0.000000 0.000000
vt 0.000000 0.000000
vt 0.000000 0.000000
vt 0.000000 0.000000
vt 0.000000 0.000000
vt 0.000000 0.000000
vt 0.000000 0.000000
vt 0.000000 0.000000
vt 0.000000 0.000000
vt 0.000000 0.000000
vt 0.000000 0.000000
vt 0.000000 0.000000
vt 0.000000 0.000000
vt 0.000000 0.000000
vt 0.000000 0.000000
vt 0.000000 0.000000
vt 0.000000 0.000000
vt 0.000000 0.000000
vt 0.000000 0.000000
vt 0.000000 0.000000
vt 0.000000 0.000000
vt 0.000000 0.000000
vt 0.000000 0.000000
vt 0.000000 0.000000
vt 0.000000 0.000000
vt 0.000000 0.000000
vt 0.000000 0.000000
vt 0.000000 0.000000
vt 0.000000 0.000000
vt 0.000000 0.000000
vt 0.000000 0.000000
vt 0.000000 0.000000
vt 0.000000 0.000000
vt 0.000000 0.000000
vt 0.000000 0.000000
vt 0.000000 0.000000
vt 0.000000 0.000000
vt 0.000000 0.000000
vt 0.000000 0.000000
vt 0.000000 0.000000
vt 0.128373 0.865487
vt 0.121799 0.871220
vt 0.121799 0.871220
vt 0.118725 0.623701
vt 0.117946 0.613202
vt 0.118725 0.623701
vt 0.200724 0.516729
vt 0.201733 0.525736
vt 0.201733 0.525736
vt 0.133271 0.862798
vt 0.135859 0.861993
vt 0.133271 0.862798
vt 0.131962 0.537929
vt 0.128788 0.546647
vt 0.128788 0.546647
vt 0.196398 0.778198
vt 0.207428 0.743071
vt 0.207428 0.743071
vt 0.093073 0.864944
vt 0.090703 0.860874
vt 0.090703 0.860874
vt 0.095933 0.868442
vt 0.093073 0.864944
vt 0.118217 0.873309
vt 0.118217 0.873309
vt 0.198355 0.508165
vt 0.200724 0.516729
vt 0.201570 0.537059
vt 0.189440 0.827174
vt 0.188124 0.829530
vt 0.188124 0.829530
vt 0.114417 0.874591
vt 0.110505 0.875028
vt 0.110505 0.875028
vt 0.088890 0.856346
vt 0.088890 0.856346
vt 0.118520 0.633176
vt 0.115530 0.656045
vt 0.115530 0.656045
vt 0.119204 0.585360
vt 0.117792 0.602722
vt 0.119204 0.585360
vt 0.170434 0.848884
vt 0.168021 0.850747
vt 0.170434 0.848884
vt 0.085699 0.775142
vt 0.083082 0.809187
vt 0.083082 0.809187
vt 0.179664 0.485923
vt 0.174703 0.485138
vt 0.174703 0.485138
vt 0.211032 0.561209
vt 0.212170 0.564225
vt 0.212478 0.565511
vt 0.187231 0.490861
vt 0.192474 0.496890
vt 0.192474 0.496890
vt 0.214497 0.584693
vt 0.171383 0.485582
vt 0.106593 0.874608
vt 0.102789 0.873342
vt 0.102789 0.873342
vt 0.114417 0.874591
vt 0.198355 0.508165
vt 0.194721 0.500386
vt 0.194721 0.500386
vt 0.106593 0.874608
vt 0.140983 0.518021
vt 0.149561 0.504798
vt 0.140983 0.518021
vt 0.125947 0.555557
vt 0.125947 0.555557
vt 0.211600 0.719592
vt 0.211600 0.719592
vt 0.084802 0.834771
vt 0.084802 0.834771
vt 0.211032 0.561209
vt 0.204813 0.549862
vt 0.204813 0.549862
vt 0.146898 0.860737
vt 0.155524 0.858108
vt 0.146898 0.860737
vt 0.203384 0.545752
vt 0.202299 0.541468
vt 0.203384 0.545752
vt 0.158861 0.856544
vt 0.163050 0.854134
vt 0.158861 0.856544
vt 0.191719 0.820027
vt 0.196398 0.778198
vt 0.187231 0.490861
vt 0.182805 0.487389
vt 0.182805 0.487389
vt 0.099202 0.871267
vt 0.099202 0.871267
vt 0.190816 0.823727
vt 0.191719 0.820027
vt 0.095933 0.868442
vt 0.171383 0.485582
vt 0.166649 0.487662
vt 0.166649 0.487662
vt 0.113044 0.670360
vt 0.085699 0.775142
vt 0.149561 0.504798
vt 0.181665 0.837980
vt 0.179664 0.485923
vt 0.143374 0.861265
vt 0.143374 0.861265
vt 0.135859 0.861993
vt 0.128373 0.865487
vt 0.202299 0.541468
vt 0.201342 0.534823
vt 0.117792 0.602722
vt 0.117946 0.613202
vt 0.118749 0.629630
vt 0.118749 0.629630
vt 0.139101 0.521593
vt 0.139101 0.521593
vt 0.135461 0.529425
vt 0.135461 0.529425
vt 0.131962 0.537929
vt 0.190816 0.823727
vt 0.189440 0.827174
vt 0.113044 0.670360
vt 0.118520 0.633176
vt 0.181665 0.837980
vt 0.175103 0.844833
vt 0.175103 0.844833
vt 0.168021 0.850747
vt 0.214497 0.584693
vt 0.130765 0.863967
vt 0.122326 0.569235
vt 0.163050 0.854134
vt 0.122326 0.569235
vt 0.155524 0.858108
vt 0.130765 0.863967
vn -0.0000 -1.0000 0.0000
vn 0.0000 1.0000 0.0000
vn 0.4991 0.0000 -0.8666
vn 0.4849 0.0000 -0.8746
vn -0.9987 -0.0000 -0.0508
vn -0.9983 -0.0000 -0.0576
vn 0.9701 0.0000 0.2425
vn 0.9980 0.0000 0.0629
vn 0.9984 0.0104 0.0557
vn 0.2857 0.0000 -0.9583
vn 0.1540 0.0000 -0.9881
vn -0.8930 -0.0000 0.4500
vn -0.9141 -0.0000 0.4056
vn 0.9648 0.0000 -0.2629
vn 0.9531 0.0000 -0.3026
vn -0.7438 0.0000 -0.6684
vn -0.8451 -0.0000 -0.5346
vn -0.6215 0.0000 -0.7834
vn 0.3314 0.0000 -0.9435
vn 0.9023 0.0000 0.4310
vn 0.9948 0.0078 0.1018
vn 0.6152 0.6907 -0.3802
vn 0.7614 0.0000 -0.6483
vn 0.1689 0.0000 -0.9856
vn 0.0016 0.0000 -1.0000
vn -0.9356 -0.0000 -0.3531
vn -0.9921 -0.0000 0.1258
vn -0.9810 -0.0000 0.1940
vn -0.9845 0.0000 0.1751
vn -0.9991 -0.0000 0.0431
vn 0.5329 0.0000 -0.8462
vn 0.4874 0.0000 -0.8732
vn -0.9773 -0.0000 0.2118
vn -1.0000 -0.0000 0.0062
vn 0.2308 0.0000 0.9730
vn 0.0093 0.0000 1.0000
vn 0.6301 0.6870 0.3618
vn 0.7010 -0.6770 0.2245
vn 0.7111 0.6763 0.1922
vn 0.5919 0.0000 0.8060
vn 0.7168 0.0000 0.6972
vn 0.9985 -0.0032 0.0554
vn -0.2125 -0.0000 0.9772
vn -0.1657 -0.0000 -0.9862
vn -0.3283 0.0000 -0.9446
vn 0.8132 0.0000 0.5819
vn -0.7956 -0.0000 0.6058
vn -0.6914 -0.0000 0.7225
vn -0.9351 0.0000 0.3544
vn 0.9919 0.0000 -0.1272
vn -0.9865 -0.0000 -0.1636
vn 0.6223 -0.6892 0.3711
vn 0.8669 0.0000 0.4986
vn 0.1715 0.0000 -0.9852
vn 0.2842 0.0000 -0.9588
vn 0.9318 0.0000 0.3629
vn 0.9674 -0.0051 0.2533
vn 0.3721 0.0000 -0.9282
vn 0.4346 0.0000 -0.9006
vn 0.7061 -0.6892 -0.1623
vn 0.4293 0.0000 0.9031
vn -0.4816 0.0000 -0.8764
vn 0.6700 0.6884 -0.2779
vn 0.7061 0.6892 -0.1623
vn -0.4719 -0.0000 0.8817
vn -0.9625 -0.0000 0.2712
vn 0.6689 0.0000 -0.7433
vn 0.0943 0.0000 -0.9955
vn 0.4990 0.0000 -0.8666
vn 0.9651 0.0000 0.2620
vn 0.9987 0.0249 0.0436
vn -0.9992 -0.0000 0.0392
vn -0.8408 -0.0000 0.5414
vn -0.8691 -0.0000 0.4947
vn 0.6700 -0.6884 -0.2779
vn 0.6152 -0.6907 -0.3802
vn 0.6687 0.0000 -0.7435
vn 0.5912 0.0000 -0.8066
vn 0.9985 0.0000 0.0540
vn -0.9585 0.0000 0.2851
vn 0.3889 0.0000 -0.9213
g GasCloud1_Mesh3_Model_Default_OBJ.006
s off
f 198/1/1 202/2/1 173/3/1
f 173/3/1 174/4/1 175/5/1
f 175/5/1 176/6/1 178/7/1
f 176/6/1 177/8/1 178/7/1
f 178/7/1 179/9/1 197/10/1
f 175/5/1 178/7/1 197/10/1
f 179/9/1 180/11/1 197/10/1
f 180/11/1 181/12/1 196/13/1
f 196/13/1 181/12/1 195/14/1
f 181/12/1 182/15/1 195/14/1
f 182/15/1 183/16/1 193/17/1
f 195/14/1 182/15/1 194/18/1
f 183/16/1 184/19/1 185/20/1
f 185/20/1 186/21/1 183/16/1
f 186/21/1 187/22/1 189/23/1
f 183/16/1 186/21/1 192/24/1
f 187/22/1 188/25/1 189/23/1
f 189/23/1 190/26/1 191/27/1
f 191/27/1 192/24/1 186/21/1
f 192/24/1 193/17/1 183/16/1
f 193/17/1 194/18/1 182/15/1
f 196/13/1 197/10/1 180/11/1
f 197/10/1 198/1/1 175/5/1
f 198/1/1 199/28/1 202/2/1
f 175/5/1 198/1/1 173/3/1
f 199/28/1 200/29/1 202/2/1
f 200/29/1 201/30/1 202/2/1
f 202/2/1 203/31/1 204/32/1
f 204/32/1 205/33/1 137/34/1
f 205/33/1 206/35/1 137/34/1
f 137/34/1 173/3/1 202/2/1
f 189/23/1 191/27/1 186/21/1
f 137/34/1 202/2/1 204/32/1
f 146/36/2 171/37/2 142/38/2
f 171/37/2 169/39/2 170/40/2
f 169/39/2 166/41/2 168/42/2
f 168/42/2 166/41/2 167/43/2
f 166/41/2 147/44/2 165/45/2
f 169/39/2 147/44/2 166/41/2
f 165/45/2 147/44/2 164/46/2
f 164/46/2 148/47/2 163/48/2
f 148/47/2 149/49/2 163/48/2
f 163/48/2 149/49/2 162/50/2
f 162/50/2 151/51/2 161/52/2
f 149/49/2 150/53/2 162/50/2
f 161/52/2 159/54/2 160/55/2
f 159/54/2 161/52/2 158/56/2
f 158/56/2 155/57/2 157/58/2
f 161/52/2 152/59/2 158/56/2
f 157/58/2 155/57/2 156/60/2
f 155/57/2 153/61/2 154/62/2
f 153/61/2 158/56/2 152/59/2
f 152/59/2 161/52/2 151/51/2
f 151/51/2 162/50/2 150/53/2
f 148/47/2 164/46/2 147/44/2
f 147/44/2 169/39/2 146/36/2
f 146/36/2 142/38/2 145/63/2
f 169/39/2 171/37/2 146/36/2
f 145/63/2 142/38/2 144/64/2
f 144/64/2 142/38/2 143/65/2
f 142/38/2 140/66/2 141/67/2
f 140/66/2 172/68/2 139/69/2
f 139/69/2 172/68/2 138/70/2
f 172/68/2 142/38/2 171/37/2
f 155/57/2 158/56/2 153/61/2
f 172/68/2 140/66/2 142/38/2
g GasCloud1_Mesh3_Model_Default_OBJ.003
s 1
f 78/71/3 81/72/4 136/73/4
f 11/74/5 12/75/6 13/76/5
f 5/77/7 28/78/8 30/79/9
f 117/80/10 122/81/11 46/82/10
f 115/83/12 105/84/13 20/85/13
f 129/86/14 9/87/15 96/88/15
f 83/89/16 16/90/17 14/91/17
f 86/92/18 15/93/16 83/89/16
f 136/73/4 49/94/19 80/95/19
f 47/96/20 7/97/7 5/77/7
f 3/98/21 30/79/9 28/78/8
f 124/99/22 111/100/23 110/101/23
f 48/102/24 54/103/25 53/104/25
f 14/91/17 18/105/26 17/106/26
f 67/107/27 132/108/28 133/109/28
f 103/110/29 99/111/30 104/112/29
f 55/113/31 56/114/32 57/115/31
f 64/116/33 36/117/34 34/118/34
f 82/119/35 24/120/36 22/121/36
f 51/122/37 62/123/38 61/124/39
f 43/125/40 40/126/41 73/127/41
f 131/128/42 61/124/39 62/123/38
f 72/129/43 22/121/36 24/120/36
f 85/130/44 59/131/45 76/132/45
f 80/95/19 50/133/24 48/102/24
f 6/134/20 39/135/46 41/136/46
f 53/104/25 77/137/44 85/130/44
f 32/138/47 26/139/48 109/140/47
f 19/141/49 105/84/13 21/142/49
f 10/143/50 131/128/42 8/144/50
f 34/118/34 2/145/51 1/146/51
f 52/147/52 127/148/53 70/149/53
f 118/150/54 4/151/55 119/152/54
f 134/153/56 89/154/57 135/155/56
f 93/156/58 90/157/59 94/158/58
f 25/159/60 130/160/14 129/86/14
f 74/161/40 44/162/61 42/163/61
f 76/132/45 60/164/62 58/165/62
f 25/159/60 106/166/63 108/167/64
f 58/165/62 84/168/18 86/92/18
f 48/102/2 58/165/2 17/106/2
f 8/144/50 9/87/15 10/143/50
f 45/169/43 69/170/65 71/171/65
f 63/172/66 35/173/33 64/116/33
f 71/171/65 26/139/48 68/174/48
f 73/127/41 41/136/46 39/135/46
f 111/100/23 27/175/67 110/101/23
f 18/105/26 2/145/51 17/106/26
f 23/176/35 42/163/61 44/162/61
f 119/152/54 121/177/68 118/150/54
f 121/177/68 122/81/11 120/178/68
f 118/150/54 121/177/68 120/178/68
f 87/179/11 120/178/68 122/81/11
f 78/71/3 79/180/69 81/72/4
f 88/181/70 89/154/57 3/98/21
f 89/154/57 29/182/71 3/98/21
f 97/183/30 98/184/6 99/111/30
f 98/184/6 13/76/5 12/75/6
f 99/111/30 98/184/6 12/75/6
f 13/76/5 66/185/72 100/186/72
f 13/76/5 100/186/72 11/74/5
f 5/77/7 7/97/7 28/78/8
f 117/80/10 87/179/11 122/81/11
f 31/187/73 32/138/47 109/140/47
f 33/188/73 113/189/74 114/190/74
f 113/189/74 115/83/12 114/190/74
f 31/187/73 109/140/47 33/188/73
f 20/85/13 116/191/12 115/83/12
f 116/191/12 114/190/74 115/83/12
f 114/190/74 31/187/73 33/188/73
f 129/86/14 130/160/14 9/87/15
f 83/89/16 15/93/16 16/90/17
f 107/192/75 123/193/76 106/166/63
f 124/99/22 106/166/63 123/193/76
f 86/92/18 84/168/18 15/93/16
f 136/73/4 81/72/4 49/94/19
f 47/96/20 6/134/20 7/97/7
f 3/98/21 29/182/71 30/79/9
f 124/99/22 123/193/76 111/100/23
f 48/102/24 50/133/24 54/103/25
f 14/91/17 16/90/17 18/105/26
f 132/108/28 128/194/66 63/172/66
f 133/109/28 65/195/27 67/107/27
f 65/195/27 100/186/72 67/107/27
f 132/108/28 63/172/66 133/109/28
f 100/186/72 66/185/72 67/107/27
f 103/110/29 97/183/30 99/111/30
f 112/196/77 126/197/78 27/175/67
f 126/197/78 55/113/31 125/198/78
f 27/175/67 126/197/78 125/198/78
f 55/113/31 92/199/32 56/114/32
f 57/115/31 125/198/78 55/113/31
f 64/116/33 35/173/33 36/117/34
f 82/119/35 23/176/35 24/120/36
f 51/122/37 52/147/52 62/123/38
f 43/125/40 74/161/40 40/126/41
f 131/128/42 75/200/79 61/124/39
f 72/129/43 45/169/43 22/121/36
f 85/130/44 77/137/44 59/131/45
f 80/95/19 49/94/19 50/133/24
f 16/90/1 15/93/1 59/131/1
f 15/93/1 84/168/1 60/164/1
f 59/131/1 15/93/1 60/164/1
f 59/131/1 77/137/1 54/103/1
f 54/103/1 50/133/1 49/94/1
f 49/94/1 81/72/1 18/105/1
f 81/72/1 79/180/1 18/105/1
f 54/103/1 49/94/1 18/105/1
f 59/131/1 54/103/1 18/105/1
f 18/105/1 16/90/1 59/131/1
f 34/118/1 1/146/1 46/82/1
f 1/146/1 18/105/1 79/180/1
f 63/172/1 64/116/1 129/86/1
f 64/116/1 34/118/1 122/81/1
f 46/82/1 1/146/1 37/201/1
f 37/201/1 1/146/1 79/180/1
f 133/109/1 63/172/1 8/144/1
f 34/118/1 46/82/1 122/81/1
f 65/195/1 133/109/1 8/144/1
f 129/86/1 64/116/1 55/113/1
f 100/186/1 65/195/1 131/128/1
f 63/172/1 129/86/1 96/88/1
f 63/172/1 96/88/1 8/144/1
f 11/74/1 100/186/1 131/128/1
f 99/111/1 12/75/1 131/128/1
f 12/75/1 11/74/1 131/128/1
f 122/81/1 121/177/1 64/116/1
f 121/177/1 119/152/1 94/158/1
f 94/158/1 119/152/1 4/151/1
f 65/195/1 8/144/1 131/128/1
f 104/112/1 99/111/1 131/128/1
f 19/141/1 102/202/1 70/149/1
f 102/202/1 104/112/1 131/128/1
f 116/191/1 135/155/1 88/181/1
f 116/191/1 20/85/1 135/155/1
f 20/85/1 19/141/1 70/149/1
f 116/191/1 88/181/1 114/190/1
f 31/187/1 114/190/1 3/98/1
f 3/98/1 114/190/1 88/181/1
f 68/174/1 32/138/1 3/98/1
f 32/138/1 31/187/1 3/98/1
f 45/169/1 71/171/1 82/119/1
f 71/171/1 68/174/1 41/136/1
f 82/119/1 71/171/1 42/163/1
f 82/119/1 22/121/1 45/169/1
f 74/161/1 42/163/1 71/171/1
f 41/136/1 40/126/1 71/171/1
f 40/126/1 74/161/1 71/171/1
f 7/97/1 6/134/1 68/174/1
f 6/134/1 41/136/1 68/174/1
f 3/98/1 28/78/1 68/174/1
f 28/78/1 7/97/1 68/174/1
f 64/116/1 94/158/1 91/203/1
f 121/177/1 94/158/1 64/116/1
f 91/203/1 92/199/1 64/116/1
f 92/199/1 55/113/1 64/116/1
f 55/113/1 126/197/1 129/86/1
f 126/197/1 112/196/1 25/159/60
f 25/159/60 112/196/1 111/100/1
f 111/100/1 123/193/76 107/192/75
f 25/159/60 129/86/1 126/197/1
f 131/128/1 62/123/38 52/147/52
f 52/147/52 70/149/1 131/128/1
f 107/192/75 25/159/60 111/100/1
f 131/128/1 70/149/1 102/202/1
f 135/155/1 20/85/1 70/149/1
f 6/134/20 47/96/20 39/135/46
f 53/104/25 54/103/25 77/137/44
f 32/138/47 68/174/48 26/139/48
f 104/112/29 102/202/80 103/110/29
f 102/202/80 19/141/49 101/204/80
f 103/110/29 102/202/80 101/204/80
f 19/141/49 20/85/13 105/84/13
f 21/142/49 101/204/80 19/141/49
f 10/143/50 75/200/79 131/128/42
f 34/118/34 36/117/34 2/145/51
f 52/147/52 51/122/37 127/148/53
f 118/150/54 95/205/55 4/151/55
f 78/71/3 38/206/81 79/180/69
f 79/180/69 38/206/81 37/201/81
f 38/206/81 117/80/10 46/82/10
f 46/82/10 37/201/81 38/206/81
f 88/181/70 135/155/56 89/154/57
f 135/155/56 70/149/53 127/148/53
f 127/148/53 134/153/56 135/155/56
f 56/114/32 92/199/32 91/203/59
f 94/158/58 4/151/55 95/205/55
f 56/114/32 91/203/59 90/157/59
f 91/203/59 94/158/58 90/157/59
f 95/205/55 93/156/58 94/158/58
f 25/159/60 108/167/64 130/160/14
f 74/161/40 43/125/40 44/162/61
f 76/132/45 59/131/45 60/164/62
f 25/159/60 107/192/75 106/166/63
f 58/165/62 60/164/62 84/168/18
f 95/205/2 118/150/2 93/156/2
f 118/150/2 120/178/2 93/156/2
f 120/178/2 87/179/2 35/173/2
f 90/157/2 93/156/2 35/173/2
f 35/173/2 93/156/2 120/178/2
f 57/115/2 56/114/2 35/173/2
f 56/114/2 90/157/2 35/173/2
f 27/175/2 125/198/2 108/167/64
f 125/198/2 57/115/2 130/160/2
f 27/175/2 108/167/64 110/101/2
f 124/99/22 110/101/2 106/166/63
f 106/166/63 110/101/2 108/167/64
f 130/160/2 108/167/64 125/198/2
f 10/143/2 9/87/2 128/194/2
f 9/87/2 130/160/2 128/194/2
f 61/124/39 75/200/2 51/122/37
f 75/200/2 10/143/2 67/107/2
f 127/148/2 75/200/2 101/204/2
f 127/148/2 51/122/37 75/200/2
f 10/143/2 132/108/2 67/107/2
f 132/108/2 10/143/2 128/194/2
f 128/194/2 130/160/2 35/173/2
f 57/115/2 35/173/2 130/160/2
f 35/173/2 87/179/2 36/117/2
f 134/153/2 127/148/2 105/84/2
f 87/179/2 117/80/2 36/117/2
f 89/154/2 134/153/2 115/83/2
f 75/200/2 67/107/2 66/185/2
f 75/200/2 66/185/2 13/76/2
f 117/80/2 38/206/2 2/145/2
f 29/182/2 89/154/2 33/188/2
f 75/200/2 13/76/2 98/184/2
f 75/200/2 98/184/2 97/183/2
f 36/117/2 117/80/2 2/145/2
f 5/77/2 30/79/2 26/139/2
f 30/79/2 29/182/2 26/139/2
f 78/71/2 136/73/2 17/106/2
f 136/73/2 80/95/2 17/106/2
f 75/200/2 97/183/2 103/110/2
f 38/206/2 78/71/2 2/145/2
f 47/96/2 5/77/2 26/139/2
f 73/127/2 39/135/2 69/170/2
f 39/135/2 47/96/2 26/139/2
f 69/170/2 39/135/2 26/139/2
f 44/162/2 43/125/2 69/170/2
f 43/125/2 73/127/2 69/170/2
f 24/120/2 23/176/2 44/162/2
f 69/170/2 72/129/2 44/162/2
f 72/129/2 24/120/2 44/162/2
f 109/140/2 26/139/2 29/182/2
f 113/189/2 33/188/2 89/154/2
f 33/188/2 109/140/2 29/182/2
f 105/84/2 115/83/2 134/153/2
f 115/83/2 113/189/2 89/154/2
f 101/204/2 21/142/2 127/148/2
f 21/142/2 105/84/2 127/148/2
f 103/110/2 101/204/2 75/200/2
f 80/95/2 48/102/2 17/106/2
f 48/102/2 53/104/2 85/130/2
f 85/130/2 76/132/2 48/102/2
f 76/132/2 58/165/2 48/102/2
f 58/165/2 86/92/2 83/89/2
f 83/89/2 14/91/2 58/165/2
f 14/91/2 17/106/2 58/165/2
f 17/106/2 2/145/2 78/71/2
f 8/144/50 96/88/15 9/87/15
f 45/169/43 72/129/43 69/170/65
f 63/172/66 128/194/66 35/173/33
f 71/171/65 69/170/65 26/139/48
f 73/127/41 40/126/41 41/136/46
f 111/100/23 112/196/77 27/175/67
f 18/105/26 1/146/51 2/145/51
f 23/176/35 82/119/35 42/163/61
