# Blender v2.82 (sub 7) OBJ File: ''
# www.blender.org
o TFA1_Curve_Mesh.001
v -0.665039 0.015467 0.086296
v -0.170587 0.015468 -0.725446
v -0.292043 0.015468 -0.745012
v -0.170587 -0.014059 -0.725446
v -0.665039 -0.014059 0.086296
v -0.292043 -0.014059 -0.745012
v -0.870329 0.015467 -0.790204
v -0.864564 0.015467 -0.801031
v -0.864564 -0.014059 -0.801031
v 0.849105 0.015468 0.487136
v 0.805636 0.015468 0.849167
v 0.805636 -0.014059 0.849167
v -0.826485 0.015467 -0.845626
v -0.804531 0.015467 -0.863605
v -0.804531 -0.014059 -0.863605
v 0.133224 0.015468 -0.771291
v 0.205755 0.015468 -0.808192
v 0.205755 -0.014059 -0.808192
v 0.577927 0.015468 -0.957939
v 0.602858 0.015468 -0.936651
v 0.602858 -0.014059 -0.936651
v 0.652454 0.015468 -0.864552
v 0.704455 0.015468 -0.710873
v 0.704455 -0.014059 -0.710873
v -0.778248 0.015467 -0.877980
v -0.778248 -0.014059 -0.877980
v -0.567893 0.015467 -0.873076
v -0.533507 0.015467 -0.861418
v -0.533507 -0.014059 -0.861418
v -0.873704 0.015467 -0.312590
v -0.873704 -0.014059 -0.312590
v 0.330142 0.015468 -0.908056
v 0.464380 0.015468 -0.976725
v 0.464380 -0.014059 -0.976725
v 0.330142 -0.014059 -0.908056
v 0.532180 0.015468 -0.983476
v 0.577927 -0.014059 -0.957939
v -0.632480 0.015467 0.513348
v -0.645448 0.015467 0.167277
v -0.645448 -0.014059 0.167277
v 0.571524 0.015468 1.158230
v 0.547362 0.015468 1.159781
v 0.547362 -0.014059 1.159781
v -0.191563 0.015468 1.005738
v -0.260317 0.015468 0.975216
v -0.260317 -0.014059 0.975216
v -0.923272 0.015467 -0.522564
v -0.870329 -0.014059 -0.790204
v -0.452574 0.015467 0.845432
v -0.559784 0.015467 0.718655
v -0.559784 -0.014059 0.718655
v -0.747309 0.015467 -0.886293
v -0.631623 0.015467 -0.884827
v -0.631623 -0.014059 -0.884827
v -0.316441 0.015468 -0.753357
v -0.316441 -0.014059 -0.753357
v 0.743720 0.015468 1.030677
v 0.743720 -0.014059 1.030677
v 0.623497 0.015468 -0.913249
v 0.623497 -0.014059 -0.913249
v -0.003056 0.015468 -0.730738
v 0.133224 -0.014059 -0.771291
v -0.747309 -0.014059 -0.886293
v -0.595380 0.015467 0.663146
v -0.595380 -0.014059 0.663146
v 0.849105 -0.014059 0.487136
v 0.496010 0.015468 -0.984854
v 0.496010 -0.014059 -0.984854
v -0.919546 0.015467 -0.466841
v -0.919546 -0.014059 -0.466841
v 0.698545 0.015468 1.092517
v 0.652122 0.015468 1.125000
v 0.652122 -0.014059 1.125000
v 0.718601 0.015468 1.071487
v 0.698545 -0.014059 1.092517
v 0.509862 0.015468 -0.986405
v 0.509862 -0.014059 -0.986405
v 0.718601 -0.014059 1.071487
v -0.826485 -0.014059 -0.845626
v -0.602244 0.015467 0.648493
v -0.632480 -0.014059 0.513348
v -0.441739 0.015467 0.855215
v -0.441739 -0.014059 0.855215
v -0.923833 0.015467 -0.507467
v -0.923833 -0.014059 -0.507467
v -0.003056 -0.014059 -0.730738
v 0.522016 0.015468 -0.986012
v 0.522016 -0.014059 -0.986012
v 0.583022 0.015468 1.155866
v 0.583022 -0.014059 1.155866
v -0.191563 -0.014059 1.005738
v -0.452574 -0.014059 0.845432
v -0.923272 -0.014059 -0.522564
v -0.602244 -0.014059 0.648493
v -0.567893 -0.014059 -0.873076
v 0.571524 -0.014059 1.158230
v 0.652454 -0.014059 -0.864552
v 0.532180 -0.014059 -0.983476
vt 0.061758 0.022873
vt 0.062434 0.024298
vt 0.061398 0.023986
vt 0.007892 0.022125
vt 0.008117 0.019587
vt 0.008941 0.020115
vt 0.061320 0.028227
vt 0.060374 0.028062
vt 0.061735 0.040199
vt 0.064756 0.044127
vt 0.063921 0.044489
vt 0.065682 0.008355
vt 0.066817 0.009028
vt 0.065914 0.009207
vt 0.060068 0.033450
vt 0.061719 0.037612
vt 0.060861 0.037848
vt 0.060983 0.033400
vt 0.062546 0.039848
vt 0.003941 0.048821
vt 0.001982 0.046607
vt 0.003217 0.046478
vt 0.055941 0.004236
vt 0.063607 0.005127
vt 0.063258 0.005905
vt 0.065429 0.049007
vt 0.066818 0.050229
vt 0.065443 0.050080
vt 0.001909 0.046058
vt 0.003122 0.045918
vt 0.013473 0.014692
vt 0.013146 0.013461
vt 0.013898 0.014228
vt 0.011894 0.054022
vt 0.006249 0.052671
vt 0.006707 0.051865
vt 0.064202 0.053370
vt 0.064021 0.055138
vt 0.063303 0.054185
vt 0.060642 0.055640
vt 0.056019 0.057422
vt 0.055937 0.056549
vt 0.066797 0.051013
vt 0.065370 0.050769
vt 0.065162 0.051941
vt 0.065104 0.054217
vt 0.025005 0.009490
vt 0.034974 0.009139
vt 0.035005 0.010020
vt 0.049959 0.005392
vt 0.054255 0.003440
vt 0.054378 0.004301
vt 0.037335 0.008867
vt 0.037517 0.009709
vt 0.063554 0.006051
vt 0.065412 0.006422
vt 0.064782 0.007050
vt 0.066075 0.015877
vt 0.062784 0.023324
vt 0.066011 0.007130
vt 0.065285 0.007644
vt 0.066818 0.012675
vt 0.065895 0.012587
vt 0.022264 0.055961
vt 0.011643 0.054873
vt 0.022176 0.056816
vt 0.020240 0.010296
vt 0.020531 0.009029
vt 0.020868 0.010012
vt 0.062888 0.055835
vt 0.062328 0.054896
vt 0.066690 0.051704
vt 0.065279 0.051395
vt 0.066536 0.052267
vt 0.066436 0.014725
vt 0.065527 0.014489
vt 0.004906 0.050293
vt 0.003002 0.049298
vt 0.005580 0.051028
vt 0.004134 0.050972
vt 0.018282 0.011179
vt 0.019899 0.009239
vt 0.063956 0.005298
vt 0.004907 0.051761
vt 0.065162 0.015537
vt 0.066503 0.007994
vt 0.373984 0.425721
vt 0.486189 0.362252
vt 0.529188 0.506659
vt 0.012718 0.013879
vt 0.049720 0.004587
vt 0.374357 0.409479
vt 0.373984 0.425721
vt 0.475934 0.360463
vt 0.055526 0.003348
vt 0.055519 0.004216
vt 0.024971 0.008587
vt 0.066516 0.048788
vt 0.003025 0.044951
vt 0.007003 0.021799
vt 0.001917 0.044984
vt 0.056000 0.003370
vt 0.017780 0.010295
vt 0.060947 0.056566
vt 0.353430 0.365014
vt 0.353042 0.353805
vt 0.364952 0.341753
vt 0.354036 0.350795
vt 0.355805 0.348229
vt 0.358035 0.346077
vt 0.363596 0.342326
vt 0.398637 0.336261
vt 0.400542 0.336186
vt 0.405676 0.336546
vt 0.355026 0.371174
vt 0.425225 0.340780
vt 0.370577 0.395381
vt 0.356557 0.374491
vt 0.475934 0.360463
vt 0.371674 0.397734
vt 0.529889 0.363041
vt 0.592807 0.405106
vt 0.546998 0.365789
vt 0.555928 0.369809
vt 0.548859 0.366435
vt 0.374357 0.409479
vt 0.572116 0.380027
vt 0.573370 0.381064
vt 0.588834 0.398485
vt 0.613549 0.476508
vt 0.574802 0.501957
vt 0.613396 0.478852
vt 0.613118 0.479969
vt 0.609344 0.486708
vt 0.605326 0.491250
vt 0.597601 0.495712
vt 0.602707 0.493222
vt 0.377736 0.494261
vt 0.369106 0.438983
vt 0.358249 0.489429
vt 0.352192 0.458251
vt 0.364576 0.446062
vt 0.352053 0.486688
vt 0.343761 0.471353
vt 0.349063 0.484720
vt 0.346332 0.482332
vt 0.343029 0.477934
vt 0.342791 0.474430
vt 0.342620 0.475774
vt 0.342691 0.476952
vt 0.613118 0.479969
vt 0.613396 0.478852
vt 0.613549 0.476508
vt 0.592807 0.405106
vt 0.574802 0.501957
vt 0.588834 0.398485
vt 0.529889 0.363041
vt 0.529188 0.506659
vt 0.486189 0.362252
vt 0.573370 0.381064
vt 0.572116 0.380027
vt 0.555928 0.369809
vt 0.548859 0.366435
vt 0.546998 0.365789
vt 0.609344 0.486708
vt 0.605326 0.491250
vt 0.597601 0.495712
vt 0.602707 0.493222
vt 0.358249 0.489429
vt 0.377736 0.494261
vt 0.352192 0.458251
vt 0.369106 0.438983
vt 0.364576 0.446062
vt 0.349063 0.484720
vt 0.352053 0.486688
vt 0.343761 0.471353
vt 0.343029 0.477934
vt 0.346332 0.482332
vt 0.342791 0.474430
vt 0.342620 0.475774
vt 0.342691 0.476952
vt 0.425225 0.340780
vt 0.371674 0.397734
vt 0.405676 0.336546
vt 0.370577 0.395381
vt 0.400542 0.336186
vt 0.398637 0.336261
vt 0.364952 0.341753
vt 0.353430 0.365014
vt 0.363596 0.342326
vt 0.358035 0.346077
vt 0.355805 0.348229
vt 0.353042 0.353805
vt 0.354036 0.350795
vt 0.355026 0.371174
vt 0.356557 0.374491
vn 0.3855 0.0000 -0.9227
vn 0.2422 0.0000 -0.9702
vn -0.3066 0.0000 0.9518
vn -0.4804 0.0000 0.8771
vn 0.0640 0.0000 -0.9979
vn -0.5426 0.0000 -0.8400
vn -0.5435 0.0000 -0.8394
vn -0.3723 0.0000 -0.9281
vn -0.1246 0.0000 -0.9922
vn -0.1597 0.0000 -0.9872
vn -0.3709 0.0000 -0.9287
vn 0.4928 0.0000 0.8701
vn 0.3064 0.0000 0.9519
vn -0.9933 0.0000 -0.1160
vn -0.9420 0.0000 -0.3356
vn -0.3543 0.0000 -0.9351
vn -0.1805 0.0000 -0.9836
vn 0.1330 0.0000 0.9911
vn -0.6126 0.0000 0.7904
vn -0.7185 0.0000 0.6955
vn 0.9750 0.0000 0.2222
vn 0.9046 0.0000 0.4262
vn 0.5712 0.0000 -0.8208
vn 0.7014 0.0000 -0.7127
vn 0.9084 0.0000 -0.4181
vn 0.9752 0.0000 -0.2214
vn -0.0396 0.0000 -0.9992
vn 0.3680 0.0000 -0.9298
vn -0.9917 0.0000 0.1284
vn -0.9906 0.0000 0.1370
vn -0.9266 0.0000 0.3760
vn -0.9807 0.0000 0.1957
vn -0.9360 0.0000 0.3520
vn -0.8265 0.0000 -0.5630
vn -0.6998 0.0000 -0.7143
vn 0.3842 0.0000 -0.9232
vn -0.5591 0.0000 -0.8291
vn 0.0974 0.0000 -0.9953
vn 1.0000 0.0000 -0.0003
vn -0.8756 0.0000 0.4831
vn -0.9463 0.0000 0.3232
vn 0.8083 0.0000 -0.5888
vn 0.1380 0.0000 -0.9904
vn 0.2519 0.0000 -0.9678
vn 0.6517 0.0000 0.7585
vn 0.7920 0.0000 0.6105
vn -0.8044 0.0000 0.5941
vn -0.0000 1.0000 0.0000
vn 0.0000 -1.0000 -0.0000
vn -0.9994 0.0000 0.0340
vn -0.0707 0.0000 0.9975
s 1
f 56/1/1 3/2/2 6/3/2
f 91/4/3 45/5/4 46/6/4
f 6/3/2 2/7/5 4/8/5
f 18/9/6 32/10/7 35/11/7
f 26/12/8 52/13/9 63/14/9
f 86/15/10 16/16/11 62/17/11
f 4/8/5 61/18/10 86/15/10
f 62/17/11 17/19/6 18/9/6
f 73/20/12 89/21/13 90/22/13
f 93/23/14 7/24/15 48/25/15
f 34/26/16 67/27/17 68/28/17
f 90/22/13 41/29/18 96/30/18
f 83/31/19 49/32/20 92/33/20
f 12/34/21 57/35/22 58/36/22
f 37/37/23 20/38/24 21/39/24
f 97/40/25 23/41/26 24/42/26
f 68/28/17 76/43/27 77/44/27
f 98/45/28 19/46/23 37/37/23
f 81/47/29 39/48/30 40/49/30
f 31/50/31 69/51/32 70/52/32
f 40/49/30 1/53/33 5/54/33
f 9/55/34 13/56/35 79/57/35
f 56/1/1 28/58/36 55/59/1
f 79/57/35 14/60/37 15/61/37
f 63/14/9 53/62/38 54/63/38
f 66/64/39 11/65/21 12/34/21
f 24/42/26 10/66/39 66/64/39
f 65/67/40 80/68/41 94/69/41
f 21/39/24 59/70/42 60/71/42
f 77/44/27 87/72/43 88/73/43
f 88/73/43 36/74/28 98/45/28
f 54/63/38 27/75/44 95/76/44
f 75/77/45 72/78/12 73/20/12
f 78/79/46 71/80/45 75/77/45
f 51/81/47 64/82/40 65/67/40
f 48/25/15 8/83/34 9/55/34
f 58/36/22 74/84/46 78/79/46
f 95/76/44 28/58/36 29/85/36
f 15/61/37 25/86/8 26/12/8
f 61/87/48 39/88/48 10/89/48
f 46/6/4 82/90/19 83/31/19
f 5/54/33 30/91/31 31/50/31
f 4/92/49 86/93/49 5/94/49
f 70/52/32 84/95/50 85/96/50
f 94/69/41 38/97/29 81/47/29
f 35/11/7 33/98/16 34/26/16
f 43/99/51 44/100/3 91/4/3
f 96/30/18 42/101/51 43/99/51
f 85/96/50 47/102/14 93/23/14
f 92/33/20 50/103/47 51/81/47
f 60/71/42 22/104/25 97/40/25
f 56/1/1 55/59/1 3/2/2
f 91/4/3 44/100/3 45/5/4
f 6/3/2 3/2/2 2/7/5
f 18/9/6 17/19/6 32/10/7
f 26/12/8 25/86/8 52/13/9
f 86/15/10 61/18/10 16/16/11
f 4/8/5 2/7/5 61/18/10
f 62/17/11 16/16/11 17/19/6
f 73/20/12 72/78/12 89/21/13
f 93/23/14 47/102/14 7/24/15
f 34/26/16 33/98/16 67/27/17
f 90/22/13 89/21/13 41/29/18
f 83/31/19 82/90/19 49/32/20
f 12/34/21 11/65/21 57/35/22
f 37/37/23 19/46/23 20/38/24
f 97/40/25 22/104/25 23/41/26
f 68/28/17 67/27/17 76/43/27
f 98/45/28 36/74/28 19/46/23
f 81/47/29 38/97/29 39/48/30
f 31/50/31 30/91/31 69/51/32
f 40/49/30 39/48/30 1/53/33
f 9/55/34 8/83/34 13/56/35
f 56/1/1 29/85/36 28/58/36
f 79/57/35 13/56/35 14/60/37
f 63/14/9 52/13/9 53/62/38
f 66/64/39 10/66/39 11/65/21
f 24/42/26 23/41/26 10/66/39
f 65/67/40 64/82/40 80/68/41
f 21/39/24 20/38/24 59/70/42
f 77/44/27 76/43/27 87/72/43
f 88/73/43 87/72/43 36/74/28
f 54/63/38 53/62/38 27/75/44
f 75/77/45 71/80/45 72/78/12
f 78/79/46 74/84/46 71/80/45
f 51/81/47 50/103/47 64/82/40
f 48/25/15 7/24/15 8/83/34
f 58/36/22 57/35/22 74/84/46
f 95/76/44 27/75/44 28/58/36
f 15/61/37 14/60/37 25/86/8
f 53/105/48 52/106/48 7/107/48
f 52/106/48 25/108/48 14/109/48
f 13/110/48 52/106/48 14/109/48
f 13/110/48 8/111/48 7/107/48
f 7/107/48 47/112/48 53/105/48
f 47/112/48 84/113/48 69/114/48
f 53/105/48 47/112/48 27/115/48
f 69/114/48 30/116/48 55/117/48
f 69/114/48 55/117/48 28/118/48
f 30/116/48 1/119/48 3/120/48
f 55/117/48 30/116/48 3/120/48
f 13/110/48 7/107/48 52/106/48
f 28/118/48 27/115/48 47/112/48
f 28/118/48 47/112/48 69/114/48
f 39/88/48 38/121/48 44/122/48
f 38/121/48 80/123/48 50/124/48
f 50/124/48 80/123/48 64/125/48
f 1/119/48 39/88/48 61/87/48
f 3/120/48 1/119/48 2/126/48
f 2/126/48 1/119/48 61/87/48
f 50/124/48 49/127/48 38/121/48
f 38/121/48 49/127/48 82/128/48
f 82/128/48 45/129/48 38/121/48
f 45/129/48 44/122/48 38/121/48
f 44/122/48 42/130/48 11/131/48
f 10/89/48 44/122/48 11/131/48
f 42/130/48 41/132/48 89/133/48
f 89/133/48 72/134/48 42/130/48
f 72/134/48 71/135/48 57/136/48
f 42/130/48 72/134/48 57/136/48
f 71/135/48 74/137/48 57/136/48
f 57/136/48 11/131/48 42/130/48
f 10/89/48 23/138/48 16/139/48
f 23/138/48 22/140/48 32/141/48
f 17/142/48 23/138/48 32/141/48
f 22/140/48 59/143/48 33/144/48
f 59/143/48 20/145/48 33/144/48
f 20/145/48 19/146/48 33/144/48
f 19/146/48 36/147/48 67/148/48
f 67/148/48 36/147/48 76/149/48
f 36/147/48 87/150/48 76/149/48
f 67/148/48 33/144/48 19/146/48
f 33/144/48 32/141/48 22/140/48
f 23/138/48 17/142/48 16/139/48
f 44/122/48 10/89/48 39/88/48
f 16/139/48 61/87/48 10/89/48
f 46/6/4 45/5/4 82/90/19
f 5/54/33 1/53/33 30/91/31
f 90/151/49 96/152/49 43/153/49
f 43/153/49 91/154/49 12/155/49
f 91/154/49 46/156/49 81/157/49
f 66/158/49 91/154/49 40/159/49
f 46/156/49 83/160/49 81/157/49
f 83/160/49 92/161/49 81/157/49
f 92/161/49 51/162/49 81/157/49
f 51/162/49 65/163/49 94/164/49
f 81/157/49 51/162/49 94/164/49
f 81/157/49 40/159/49 91/154/49
f 90/151/49 43/153/49 73/165/49
f 91/154/49 66/158/49 12/155/49
f 75/166/49 73/165/49 58/167/49
f 58/167/49 73/165/49 43/153/49
f 58/167/49 78/168/49 75/166/49
f 12/155/49 58/167/49 43/153/49
f 97/169/49 24/170/49 35/171/49
f 24/170/49 66/158/49 62/172/49
f 18/173/49 24/170/49 62/172/49
f 21/174/49 60/175/49 34/176/49
f 60/175/49 97/169/49 34/176/49
f 98/177/49 37/178/49 68/179/49
f 37/178/49 21/174/49 34/176/49
f 98/177/49 68/179/49 77/180/49
f 77/180/49 88/181/49 98/177/49
f 34/176/49 68/179/49 37/178/49
f 18/173/49 35/171/49 24/170/49
f 35/171/49 34/176/49 97/169/49
f 5/94/49 31/182/49 6/183/49
f 31/182/49 70/184/49 56/185/49
f 6/183/49 31/182/49 56/185/49
f 40/159/49 5/94/49 86/93/49
f 66/158/49 40/159/49 86/93/49
f 70/184/49 85/186/49 93/187/49
f 93/187/49 48/188/49 54/189/49
f 48/188/49 9/190/49 79/191/49
f 79/191/49 15/192/49 63/193/49
f 15/192/49 26/194/49 63/193/49
f 63/193/49 54/189/49 48/188/49
f 79/191/49 63/193/49 48/188/49
f 54/189/49 95/195/49 93/187/49
f 95/195/49 29/196/49 93/187/49
f 29/196/49 56/185/49 70/184/49
f 86/93/49 62/172/49 66/158/49
f 5/94/49 6/183/49 4/92/49
f 70/184/49 93/187/49 29/196/49
f 70/52/32 69/51/32 84/95/50
f 94/69/41 80/68/41 38/97/29
f 35/11/7 32/10/7 33/98/16
f 43/99/51 42/101/51 44/100/3
f 96/30/18 41/29/18 42/101/51
f 85/96/50 84/95/50 47/102/14
f 92/33/20 49/32/20 50/103/47
f 60/71/42 59/70/42 22/104/25
