# Blender v2.82 (sub 7) OBJ File: ''
# www.blender.org
o TFA1_Curve_Mesh
v -4.257466 0.004944 1.321019
v 4.484081 0.004944 -0.254548
v 0.004157 0.004945 -4.658542
v 1.930904 0.004945 -4.421258
v 1.200069 0.004945 -4.658542
v 0.488216 0.004945 -4.705998
v -1.296159 0.004945 -4.535154
v -2.197839 0.004945 -4.297869
v -3.431717 0.004945 -3.472121
v -4.238483 0.004944 -2.276209
v 2.538351 0.004945 -4.070077
v 3.098342 0.004945 -3.623983
v 4.132901 0.004944 -2.162313
v 3.772229 0.004944 -2.788743
v 4.332220 0.004944 -1.469443
v 4.484082 0.004944 1.226105
v 4.531538 0.004944 0.485778
v -0.166688 0.004943 4.775875
v -0.954471 0.004943 4.624013
v 4.180358 0.004944 2.440999
v 4.389168 0.004944 1.729147
v 2.642757 0.004943 4.196902
v 3.838669 0.004943 3.086412
v 3.373592 0.004943 3.655894
v 1.949887 0.004943 4.567065
v 0.545165 0.004943 4.832824
v 1.276000 0.004943 4.775876
v -2.539529 0.004943 3.912162
v -1.656832 0.004943 4.424695
v -3.536122 0.004944 2.896586
v -3.071045 0.004943 3.447085
v -4.029674 0.004944 2.032871
v -4.618138 0.004944 -0.520306
v -4.561190 0.004944 0.229512
v -4.551698 0.004944 -1.241650
v -3.906285 0.004944 -2.912130
v -2.862235 0.004945 -3.946689
v -4.257466 0.004944 1.321019
v 0.004157 0.004945 -4.658542
v 4.484081 0.004944 -0.254548
v 1.930904 0.004945 -4.421258
v 0.488216 0.004945 -4.705998
v 1.200069 0.004945 -4.658542
v -1.296159 0.004945 -4.535154
v -3.431717 0.004945 -3.472121
v -2.197839 0.004945 -4.297869
v -4.238483 0.004944 -2.276209
v 2.538351 0.004945 -4.070077
v 3.098342 0.004945 -3.623983
v 4.132901 0.004944 -2.162313
v 4.332220 0.004944 -1.469443
v 3.772229 0.004944 -2.788743
v 4.484082 0.004944 1.226105
v -0.166688 0.004943 4.775875
v 4.531538 0.004944 0.485778
v -0.954471 0.004943 4.624013
v 4.180358 0.004944 2.440999
v 2.642757 0.004943 4.196902
v 4.389168 0.004944 1.729147
v 3.838669 0.004943 3.086412
v 3.373592 0.004943 3.655894
v 1.949887 0.004943 4.567065
v 0.545165 0.004943 4.832824
v 1.276000 0.004943 4.775876
v -2.539529 0.004943 3.912162
v -1.656832 0.004943 4.424695
v -3.536122 0.004944 2.896586
v -3.071045 0.004943 3.447085
v -4.029674 0.004944 2.032871
v -4.618138 0.004944 -0.520306
v -4.561190 0.004944 0.229512
v -4.551698 0.004944 -1.241650
v -3.906285 0.004944 -2.912130
v -2.862235 0.004945 -3.946689
vn 0.0000 1.0000 0.0000
vn -0.0000 -1.0000 -0.0000
s 1
f 1//1 2//1 3//1
f 4//1 5//1 6//1
f 3//1 7//1 1//1
f 7//1 8//1 9//1
f 10//1 7//1 9//1
f 4//1 6//1 11//1
f 6//1 3//1 11//1
f 12//1 11//1 3//1
f 13//1 14//1 15//1
f 14//1 12//1 3//1
f 2//1 15//1 3//1
f 3//1 15//1 14//1
f 16//1 17//1 18//1
f 17//1 2//1 19//1
f 20//1 21//1 22//1
f 21//1 16//1 18//1
f 20//1 22//1 23//1
f 24//1 23//1 22//1
f 25//1 22//1 26//1
f 26//1 22//1 18//1
f 26//1 27//1 25//1
f 19//1 18//1 17//1
f 28//1 29//1 19//1
f 30//1 31//1 19//1
f 31//1 28//1 19//1
f 1//1 32//1 30//1
f 33//1 34//1 7//1
f 34//1 1//1 7//1
f 10//1 35//1 7//1
f 35//1 33//1 7//1
f 9//1 36//1 10//1
f 8//1 37//1 9//1
f 2//1 30//1 19//1
f 22//1 21//1 18//1
f 1//1 30//1 2//1
f 38//2 39//2 40//2
f 41//2 42//2 43//2
f 39//2 38//2 44//2
f 44//2 45//2 46//2
f 47//2 45//2 44//2
f 41//2 48//2 42//2
f 42//2 48//2 39//2
f 49//2 39//2 48//2
f 50//2 51//2 52//2
f 52//2 39//2 49//2
f 40//2 39//2 51//2
f 39//2 52//2 51//2
f 53//2 54//2 55//2
f 55//2 56//2 40//2
f 57//2 58//2 59//2
f 59//2 54//2 53//2
f 57//2 60//2 58//2
f 61//2 58//2 60//2
f 62//2 63//2 58//2
f 63//2 54//2 58//2
f 63//2 62//2 64//2
f 56//2 55//2 54//2
f 65//2 56//2 66//2
f 67//2 56//2 68//2
f 68//2 56//2 65//2
f 38//2 67//2 69//2
f 70//2 44//2 71//2
f 71//2 44//2 38//2
f 47//2 44//2 72//2
f 72//2 44//2 70//2
f 45//2 47//2 73//2
f 46//2 45//2 74//2
f 40//2 56//2 67//2
f 58//2 54//2 59//2
f 38//2 40//2 67//2
