# Blender v2.82 (sub 7) OBJ File: ''
# www.blender.org
o TFA3_Curve_Mesh.002
v 3.986189 0.006299 -1.582479
v -4.154047 0.006299 0.582478
v -3.538238 0.006299 -2.390730
v 2.119516 0.006300 -4.084207
v 2.831546 0.006300 -3.458775
v 1.465217 0.006300 -4.420978
v 3.274159 0.006299 -2.881453
v -3.037893 0.006299 -3.064272
v -1.363659 0.006300 -4.420978
v 4.255606 0.006299 -0.678009
v 4.313338 0.006299 0.024399
v 4.245984 0.006299 0.765296
v 3.889969 0.006299 1.833341
v 3.187560 0.006298 3.132315
v -4.009717 0.006299 1.438838
v 2.610239 0.006298 3.825101
v -2.268130 0.006298 4.123384
v 2.071405 0.006298 4.267715
v 1.436351 0.006298 4.594863
v -0.709361 0.006298 4.816170
v 0.724321 0.006298 4.816170
v 0.002669 0.006298 4.893147
v -1.382903 0.006298 4.623729
v -2.787719 0.006298 3.680771
v -3.239955 0.006298 3.103449
v -3.807654 0.006299 2.131624
v -4.231024 0.006299 -0.119931
v -4.154047 0.006299 -0.889693
v -3.894253 0.006299 -1.746054
v -2.585657 0.006300 -3.622349
v -2.008335 0.006300 -4.093829
v -0.651629 0.006300 -4.632662
v -0.016575 0.006300 -4.709639
v 0.762809 0.006300 -4.632662
v 3.986189 0.006299 -1.582479
v -3.538238 0.006299 -2.390730
v -4.154047 0.006299 0.582478
v 2.119516 0.006300 -4.084207
v 1.465217 0.006300 -4.420978
v 2.831546 0.006300 -3.458775
v -3.037893 0.006299 -3.064272
v 3.274159 0.006299 -2.881453
v -1.363659 0.006300 -4.420978
v 4.313338 0.006299 0.024399
v 4.255606 0.006299 -0.678009
v 3.889969 0.006299 1.833341
v 4.245984 0.006299 0.765296
v -4.009717 0.006299 1.438838
v 3.187560 0.006298 3.132315
v -2.268130 0.006298 4.123384
v 2.610239 0.006298 3.825101
v 1.436351 0.006298 4.594863
v 2.071405 0.006298 4.267715
v -0.709361 0.006298 4.816170
v 0.724321 0.006298 4.816170
v 0.002669 0.006298 4.893147
v -1.382903 0.006298 4.623729
v -3.239955 0.006298 3.103449
v -2.787719 0.006298 3.680771
v -3.807654 0.006299 2.131624
v -4.154047 0.006299 -0.889693
v -4.231024 0.006299 -0.119931
v -3.894253 0.006299 -1.746054
v -2.585657 0.006300 -3.622349
v -2.008335 0.006300 -4.093829
v -0.651629 0.006300 -4.632662
v 0.762809 0.006300 -4.632662
v -0.016575 0.006300 -4.709639
vn -0.0000 -1.0000 -0.0000
vn 0.0000 1.0000 0.0000
s 1
f 1//1 2//1 3//1
f 4//1 5//1 6//1
f 5//1 7//1 8//1
f 6//1 8//1 9//1
f 7//1 1//1 8//1
f 1//1 10//1 11//1
f 8//1 1//1 3//1
f 11//1 12//1 13//1
f 1//1 11//1 13//1
f 13//1 14//1 15//1
f 14//1 16//1 17//1
f 16//1 18//1 19//1
f 17//1 19//1 20//1
f 19//1 21//1 20//1
f 16//1 19//1 17//1
f 21//1 22//1 20//1
f 20//1 23//1 17//1
f 17//1 24//1 25//1
f 25//1 26//1 15//1
f 15//1 2//1 13//1
f 2//1 27//1 28//1
f 3//1 28//1 29//1
f 2//1 28//1 3//1
f 2//1 1//1 13//1
f 8//1 30//1 9//1
f 30//1 31//1 9//1
f 9//1 32//1 6//1
f 32//1 33//1 34//1
f 34//1 6//1 32//1
f 8//1 6//1 5//1
f 17//1 25//1 14//1
f 25//1 15//1 14//1
f 35//2 36//2 37//2
f 38//2 39//2 40//2
f 40//2 41//2 42//2
f 39//2 43//2 41//2
f 42//2 41//2 35//2
f 35//2 44//2 45//2
f 41//2 36//2 35//2
f 44//2 46//2 47//2
f 35//2 46//2 44//2
f 46//2 48//2 49//2
f 49//2 50//2 51//2
f 51//2 52//2 53//2
f 50//2 54//2 52//2
f 52//2 54//2 55//2
f 51//2 50//2 52//2
f 55//2 54//2 56//2
f 54//2 50//2 57//2
f 50//2 58//2 59//2
f 58//2 48//2 60//2
f 48//2 46//2 37//2
f 37//2 61//2 62//2
f 36//2 63//2 61//2
f 37//2 36//2 61//2
f 37//2 46//2 35//2
f 41//2 43//2 64//2
f 64//2 43//2 65//2
f 43//2 39//2 66//2
f 66//2 67//2 68//2
f 67//2 66//2 39//2
f 41//2 40//2 39//2
f 50//2 49//2 58//2
f 58//2 49//2 48//2
