# Blender v2.82 (sub 7) OBJ File: 'Obstacals ALL.blend'
# www.blender.org
o TFA5_Curve_Mesh.004
v -0.304456 -0.000000 -0.675357
v 0.175524 0.000000 0.003417
v 0.314475 0.015221 -0.605817
v 0.647384 0.000000 -0.615419
v 0.647384 0.015221 -0.615419
v -0.633317 0.015221 0.949065
v 0.249228 0.000000 -0.609190
v 0.249228 0.015221 -0.609190
v -0.245248 0.015221 -0.692897
v 0.237693 0.000000 -0.037887
v -0.647993 0.015221 0.944606
v -0.245248 -0.000000 -0.692897
v -0.722350 0.015221 -0.403829
v 0.237693 0.015221 -0.037887
v -0.647993 -0.000000 0.944606
v 0.212071 0.015221 -0.025867
v -0.722350 -0.000000 -0.403829
v -0.669057 0.015221 0.934275
v 0.314475 0.000000 -0.605817
v 0.212071 0.000000 -0.025867
v -0.669057 -0.000000 0.934275
v -0.159803 0.015221 -0.695999
v 0.187020 0.015221 -0.008761
v 1.027528 0.015221 -0.044074
v -0.694532 0.015221 0.917169
v -0.159803 -0.000000 -0.695999
v 0.187020 0.000000 -0.008761
v 0.175524 0.015221 0.003417
v -0.668597 0.015221 -0.477715
v 1.027528 0.000000 -0.044074
v -0.694532 -0.000000 0.917169
v -0.668597 -0.000000 -0.477715
v 1.046483 0.015221 -0.002698
v -0.722446 0.015221 0.892385
v 0.155604 0.015221 0.039036
v -0.633608 0.015221 -0.513867
v 1.046483 0.000000 -0.002698
v 1.051916 0.015221 0.017714
v -0.722446 -0.000000 0.892385
v 0.155604 0.000000 0.039036
v -0.633608 -0.000000 -0.513867
v 1.051916 0.000000 0.017714
v 1.053972 0.015221 0.037622
v -0.038596 0.015221 -0.682246
v -0.895144 0.015221 0.167557
v 1.053972 0.000000 0.037622
v 1.052230 0.015221 0.056420
v -0.764570 0.015221 0.838840
v -0.038596 -0.000000 -0.682246
v -0.114785 0.015221 0.349273
v 0.461219 0.015221 -0.026297
v -0.895144 -0.000000 0.167557
v 0.736717 0.015221 -0.406176
v 1.052230 0.000000 0.056420
v 1.046944 0.015221 0.073679
v -0.764570 -0.000000 0.838840
v -0.114785 -0.000000 0.349273
v -0.525481 0.015221 -0.593651
v 0.461219 0.000000 -0.026297
v 0.736717 0.000000 -0.406176
v 1.046944 0.000000 0.073679
v 1.038609 0.015221 0.089411
v 0.533932 0.015221 -0.657289
v -0.511155 -0.000000 0.869402
v -0.525481 -0.000000 -0.593651
v 1.038609 0.000000 0.089411
v 1.027725 0.015221 0.103632
v 0.533932 0.000000 -0.657289
v -0.511155 0.015221 0.869402
v -0.813146 0.015221 0.737058
v 1.027725 0.000000 0.103632
v 1.014789 0.015221 0.116356
v -0.180501 0.015221 0.375342
v 0.391383 0.015221 -0.045905
v 1.014789 0.000000 0.116356
v -0.813146 -0.000000 0.737058
v 0.573748 0.015221 -0.657725
v -0.180501 -0.000000 0.375342
v -0.200206 0.015221 0.387713
v -0.391007 0.015221 -0.656621
v 0.089263 0.015221 0.234936
v 0.391383 0.000000 -0.045905
v 0.984751 0.015221 0.137374
v 0.573748 0.000000 -0.657725
v -0.543182 0.015221 0.908814
v -0.200206 -0.000000 0.387713
v -0.220465 0.015221 0.405370
v 0.089263 0.000000 0.234936
v -0.391007 -0.000000 -0.656621
v 0.984751 0.000000 0.137374
v 0.594988 0.015221 -0.654384
v -0.543182 -0.000000 0.908814
v -0.220465 -0.000000 0.405370
v -0.851825 0.015221 -0.122233
v 0.952477 0.015221 0.152582
v 0.594988 0.000000 -0.654384
v -0.560908 0.015221 0.924251
v -0.261430 0.015221 0.452729
v 0.058569 0.015221 0.285608
v 0.315851 0.015221 -0.052592
v -0.851825 -0.000000 -0.122233
v 0.952477 0.000000 0.152582
v 0.612710 0.015221 -0.648498
v -0.560908 -0.000000 0.924251
v -0.261430 -0.000000 0.452729
v 0.058569 0.000000 0.285608
v -0.304456 0.015221 -0.675357
v 0.315851 0.000000 -0.052592
v -0.828706 0.015221 -0.192371
v 0.612710 0.000000 -0.648498
v -0.580671 0.015221 0.936384
v 0.037488 0.015221 0.307596
v -0.828706 -0.000000 -0.192371
v 0.908581 0.015221 0.164758
v 0.627175 0.015221 -0.640050
v -0.580671 -0.000000 0.936384
v 0.037488 0.000000 0.307596
v 0.908581 0.000000 0.164758
v 0.892304 0.015221 0.164120
v -0.874473 0.015221 0.518390
v 0.627175 0.000000 -0.640050
v -0.603141 0.015221 0.944873
v 0.016104 0.015221 0.322189
v 0.284643 0.015221 -0.050166
v 0.892304 0.000000 0.164120
v 0.869258 0.015221 0.158762
v -0.874473 -0.000000 0.518390
v 0.638646 0.015221 -0.629029
v -0.603141 -0.000000 0.944873
v 0.016104 0.000000 0.322189
v 0.284643 0.000000 -0.050166
v 0.869258 0.000000 0.158762
v 0.638646 0.000000 -0.629029
v -0.005600 0.015221 0.331065
v -0.268361 0.015221 -0.688352
v -0.628990 -0.000000 0.949375
v -0.005600 -0.000000 0.331065
v -0.268361 -0.000000 -0.688352
vt 0.081508 0.113163
vt 0.078026 0.328665
vt 0.081778 0.113166
vt 0.081808 0.111470
vt 0.081488 0.114331
vt 0.081758 0.114333
vt 0.077820 0.340474
vt 0.077556 0.340120
vt 0.077826 0.340123
vt 0.081671 0.119308
vt 0.081391 0.119871
vt 0.081662 0.119874
vt 0.077671 0.349054
vt 0.077497 0.343506
vt 0.077767 0.343509
vt 0.078033 0.328269
vt 0.077768 0.327981
vt 0.078038 0.327984
vt 0.077939 0.333667
vt 0.077663 0.333980
vt 0.077933 0.333982
vt 0.081657 0.120153
vt 0.081382 0.120422
vt 0.081652 0.120425
vt 0.081541 0.111280
vt 0.081811 0.111283
vt 0.077884 0.336807
vt 0.077546 0.340707
vt 0.077816 0.340709
vt 0.081643 0.120949
vt 0.081370 0.121126
vt 0.081640 0.121128
vt 0.077562 0.339776
vt 0.077832 0.339779
vt 0.081626 0.121928
vt 0.081424 0.117995
vt 0.081694 0.117998
vt 0.077730 0.330147
vt 0.078000 0.330150
vt 0.077947 0.333173
vt 0.077669 0.333664
vt 0.077609 0.337072
vt 0.077905 0.335617
vt 0.077879 0.337075
vt 0.081711 0.117032
vt 0.081453 0.131830
vt 0.081196 0.131091
vt 0.081466 0.131094
vt 0.078017 0.329188
vt 0.077752 0.328878
vt 0.078022 0.328881
vt 0.174368 0.303685
vt 0.243667 0.303282
vt 0.243931 0.300278
vt 0.077633 0.351221
vt 0.077366 0.351040
vt 0.077636 0.351043
vt 0.077698 0.331988
vt 0.077968 0.331991
vt 0.081392 0.119835
vt 0.081654 0.120321
vt 0.081662 0.119838
vt 0.077874 0.337405
vt 0.077734 0.345427
vt 0.077459 0.345686
vt 0.077729 0.345689
vt 0.077643 0.350630
vt 0.077381 0.350186
vt 0.077651 0.350188
vt 0.081387 0.120150
vt 0.081568 0.125261
vt 0.081286 0.125898
vt 0.081557 0.125901
vt 0.077514 0.342567
vt 0.077802 0.341541
vt 0.077784 0.342569
vt 0.077925 0.334448
vt 0.077659 0.334196
vt 0.077929 0.334199
vt 0.081338 0.122959
vt 0.081608 0.122962
vt 0.077373 0.350628
vt 0.081220 0.129698
vt 0.081490 0.129700
vt 0.077650 0.334715
vt 0.077920 0.334718
vt 0.077759 0.328466
vt 0.077763 0.328267
vt 0.081595 0.123668
vt 0.077598 0.337737
vt 0.077868 0.337739
vt 0.077809 0.341115
vt 0.077550 0.340471
vt 0.081665 0.119674
vt 0.077539 0.341113
vt 0.279397 0.281210
vt 0.254942 0.287780
vt 0.293462 0.261473
vt 0.078012 0.329459
vt 0.077747 0.329185
vt 0.077456 0.345861
vt 0.077726 0.345864
vt 0.081367 0.121292
vt 0.081637 0.121294
vt 0.081458 0.131545
vt 0.081179 0.132075
vt 0.081449 0.132078
vt 0.081401 0.119305
vt 0.078044 0.327639
vt 0.077780 0.327259
vt 0.078050 0.327262
vt 0.078029 0.328469
vt 0.077469 0.345136
vt 0.077739 0.345138
vt 0.077801 0.341598
vt 0.081543 0.126673
vt 0.077913 0.335147
vt 0.077614 0.336804
vt 0.077737 0.329727
vt 0.078007 0.329729
vt 0.081491 0.114163
vt 0.081761 0.114165
vt 0.077604 0.337402
vt 0.077748 0.344596
vt 0.081377 0.120678
vt 0.081648 0.120681
vt 0.077391 0.349586
vt 0.077661 0.349589
vt 0.081356 0.121925
vt 0.081325 0.123665
vt 0.077665 0.349367
vt 0.077401 0.349051
vt 0.077478 0.344593
vt 0.077677 0.333170
vt 0.081373 0.120946
vt 0.077655 0.334445
vt 0.077395 0.349364
vt 0.081188 0.131542
vt 0.077756 0.328663
vt 0.081538 0.111467
vt 0.077635 0.335615
vt 0.081441 0.117030
vt 0.081183 0.131827
vt 0.367451 0.213924
vt 0.367938 0.211017
vt 0.367361 0.209611
vt 0.366040 0.207595
vt 0.363865 0.205161
vt 0.364921 0.218006
vt 0.366416 0.216094
vt 0.360726 0.202500
vt 0.363009 0.219727
vt 0.353966 0.198501
vt 0.358113 0.222846
vt 0.341155 0.193926
vt 0.313688 0.188239
vt 0.306236 0.247268
vt 0.269717 0.186591
vt 0.300355 0.251254
vt 0.233472 0.191038
vt 0.298169 0.253220
vt 0.224716 0.193329
vt 0.296644 0.255127
vt 0.198363 0.203764
vt 0.189176 0.209005
vt 0.254942 0.287780
vt 0.184691 0.212405
vt 0.174834 0.222883
vt 0.167116 0.235878
vt 0.164878 0.244221
vt 0.163296 0.247706
vt 0.162755 0.249933
vt 0.293462 0.261473
vt 0.162475 0.258154
vt 0.164350 0.269799
vt 0.250506 0.289731
vt 0.173863 0.297412
vt 0.246884 0.293275
vt 0.168198 0.324842
vt 0.199907 0.344105
vt 0.168193 0.328672
vt 0.173585 0.335715
vt 0.168639 0.330713
vt 0.169398 0.332412
vt 0.170474 0.333794
vt 0.171869 0.334888
vt 0.245631 0.371726
vt 0.247143 0.317239
vt 0.250837 0.373509
vt 0.268305 0.367436
vt 0.270838 0.356306
vt 0.270169 0.364317
vt 0.290234 0.274089
vt 0.291318 0.271993
vt 0.288433 0.276160
vt 0.279397 0.281210
vt 0.285705 0.278208
vt 0.248995 0.290848
vt 0.253401 0.374011
vt 0.264132 0.371602
vt 0.255897 0.374191
vt 0.262365 0.372662
vt 0.258249 0.374004
vt 0.260404 0.373480
vt 0.265710 0.370345
vt 0.271639 0.360083
vt 0.271539 0.358519
vt 0.244599 0.310540
vt 0.245410 0.295750
vt 0.077363 0.351218
vt 0.081384 0.120318
vt 0.077464 0.345425
vt 0.081298 0.125259
vt 0.077531 0.341538
vt 0.081395 0.119671
vt 0.199907 0.344105
vt 0.173585 0.335715
vt 0.168198 0.324842
vt 0.171869 0.334888
vt 0.170474 0.333794
vt 0.174368 0.303685
vt 0.169398 0.332412
vt 0.168639 0.330713
vt 0.168193 0.328672
vt 0.173863 0.297412
vt 0.164350 0.269799
vt 0.246884 0.293275
vt 0.162475 0.258154
vt 0.250506 0.289731
vt 0.248995 0.290848
vt 0.162755 0.249933
vt 0.164878 0.244221
vt 0.163296 0.247706
vt 0.244599 0.310540
vt 0.243931 0.300278
vt 0.243667 0.303282
vt 0.250837 0.373509
vt 0.245631 0.371726
vt 0.268305 0.367436
vt 0.247143 0.317239
vt 0.270169 0.364317
vt 0.270838 0.356306
vt 0.271539 0.358519
vt 0.255897 0.374191
vt 0.253401 0.374011
vt 0.262365 0.372662
vt 0.264132 0.371602
vt 0.260404 0.373480
vt 0.258249 0.374004
vt 0.265710 0.370345
vt 0.271639 0.360083
vt 0.167116 0.235878
vt 0.174834 0.222883
vt 0.184691 0.212405
vt 0.189176 0.209005
vt 0.198363 0.203764
vt 0.224716 0.193329
vt 0.296644 0.255127
vt 0.233472 0.191038
vt 0.298169 0.253220
vt 0.269717 0.186591
vt 0.300355 0.251254
vt 0.306236 0.247268
vt 0.313688 0.188239
vt 0.341155 0.193926
vt 0.353966 0.198501
vt 0.358113 0.222846
vt 0.360726 0.202500
vt 0.363009 0.219727
vt 0.363865 0.205161
vt 0.366040 0.207595
vt 0.364921 0.218006
vt 0.366416 0.216094
vt 0.367361 0.209611
vt 0.367451 0.213924
vt 0.367982 0.211434
vt 0.245410 0.295750
vt 0.291318 0.271993
vt 0.290234 0.274089
vt 0.288433 0.276160
vt 0.285705 0.278208
vt 0.077742 0.329456
vt 0.077774 0.327636
vt 0.077530 0.341595
vt 0.081273 0.126671
vt 0.077643 0.335144
vn -0.7186 0.0000 -0.6955
vn 0.9197 0.0000 -0.3926
vn 0.4247 0.0000 0.9053
vn 0.9091 0.0000 -0.4165
vn -0.4130 0.0000 0.9107
vn -0.4404 0.0000 0.8978
vn -0.1930 0.0000 -0.9812
vn 0.9947 0.0000 -0.1027
vn 0.8415 0.0000 -0.5403
vn 0.2460 0.0000 -0.9693
vn 0.8837 0.0000 0.4681
vn 0.5639 0.0000 0.8258
vn -0.9890 0.0000 -0.1478
vn -0.5937 0.0000 -0.8047
vn -0.3387 0.0000 -0.9409
vn 0.1645 0.0000 0.9864
vn -0.9497 0.0000 -0.3131
vn -0.7859 0.0000 0.6183
vn 0.3534 0.0000 0.9355
vn 0.0000 -1.0000 -0.0000
vn 0.7013 0.0000 0.7129
vn -0.4241 0.0000 -0.9056
vn 0.8728 0.0000 0.4881
vn 0.3785 0.0000 0.9256
vn 0.3152 0.0000 -0.9490
vn 0.4263 0.0000 0.9046
vn 0.9664 0.0000 -0.2572
vn 0.7563 0.0000 0.6542
vn -0.0882 0.0000 0.9961
vn 0.6570 0.0000 0.7538
vn 0.9472 0.0000 0.3208
vn 0.5733 0.0000 0.8193
vn -0.9025 0.0000 0.4307
vn 0.3687 0.0000 0.9295
vn -0.2907 0.0000 0.9568
vn 0.7218 0.0000 0.6921
vn 0.2530 0.0000 0.9675
vn 0.7272 0.0000 0.6865
vn 0.0775 0.0000 0.9970
vn -0.0000 1.0000 0.0000
vn 0.5232 0.0000 0.8522
vn 0.5043 0.0000 -0.8635
vn -0.2703 0.0000 0.9628
vn 0.7941 0.0000 0.6078
vn 0.7761 0.0000 0.6307
vn 0.7797 0.0000 -0.6262
vn -0.6639 0.0000 0.7478
vn 0.6928 0.0000 -0.7211
vn 0.1374 0.0591 0.9888
vn 0.1554 0.0000 -0.9879
vn 0.0516 0.0000 -0.9987
vn -0.9628 0.0000 0.2700
vn 0.1127 0.0000 -0.9936
vn 0.6567 0.0000 0.7541
vn -0.8086 0.0000 -0.5883
vn -0.5575 0.0000 0.8302
vn 0.5637 0.0000 0.8260
vn -0.0109 0.0000 -0.9999
vn 0.9957 0.0000 0.0923
vn 0.2673 0.0000 0.9636
vn -0.9983 0.0000 0.0588
vn 0.8553 0.0000 0.5181
vn -0.8934 0.0000 -0.4493
vn -0.2265 0.0000 0.9740
vn -0.0363 0.0000 -0.9993
vn -0.2283 0.0000 -0.9736
vn -0.2116 0.0000 -0.9774
vn 0.9561 0.0000 0.2929
vn 0.5317 0.0000 0.8469
vn -0.0392 0.0000 0.9992
vn 0.8577 0.0000 0.5141
vn 0.6571 0.0000 0.7538
vn -0.2431 -0.0494 0.9687
vn 0.1716 0.0000 0.9852
s off
f 29/1/1 41/2/1 32/3/1
f 4/4/2 53/5/2 60/6/2
f 10/7/3 16/8/3 20/9/3
f 30/10/4 33/11/4 37/12/4
f 132/13/5 51/14/5 59/15/5
f 15/16/6 18/17/6 21/18/6
f 138/19/7 9/20/7 12/21/7
f 42/22/8 43/23/8 46/24/8
f 128/25/9 4/4/9 133/26/9
f 49/27/10 8/28/10 7/29/10
f 61/30/11 62/31/11 66/32/11
f 20/9/12 23/33/12 27/34/12
f 52/35/13 94/36/13 101/37/13
f 41/2/14 58/38/14 65/39/14
f 1/40/15 135/41/15 138/19/15
f 134/42/16 57/43/16 137/44/16
f 94/36/17 113/45/17 101/37/17
f 39/46/18 48/47/18 56/48/18
f 116/49/19 122/50/19 129/51/19
f 19/52/20 108/53/20 131/54/20
f 71/55/21 72/56/21 75/57/21
f 65/39/22 80/58/22 89/59/22
f 28/60/23 40/61/23 2/62/23
f 130/63/24 134/42/24 137/44/24
f 96/64/25 103/65/25 110/66/25
f 90/67/26 95/68/26 102/69/26
f 37/12/27 38/70/27 42/22/27
f 93/71/28 98/72/28 105/73/28
f 74/74/29 108/75/29 82/76/29
f 86/77/30 87/78/30 93/79/30
f 40/61/31 81/80/31 88/81/31
f 75/57/32 83/82/32 90/67/32
f 56/48/33 70/83/33 76/84/33
f 57/43/34 73/85/34 78/86/34
f 15/16/35 6/87/35 11/88/35
f 106/89/36 112/90/36 117/91/36
f 131/92/37 14/93/37 10/7/37
f 27/94/38 28/60/38 2/62/38
f 108/75/39 124/95/39 131/92/39
f 81/96/40 35/97/40 50/98/40
f 104/99/41 111/100/41 116/49/41
f 110/66/42 115/101/42 121/102/42
f 59/15/43 74/74/43 82/76/43
f 66/32/44 67/103/44 71/104/44
f 64/105/45 85/106/45 92/107/45
f 60/6/46 24/108/46 30/10/46
f 31/109/47 34/110/47 39/111/47
f 121/102/48 128/25/48 133/26/48
f 136/112/49 122/50/49 6/87/49
f 77/113/50 96/64/50 84/114/50
f 8/28/51 19/115/51 7/29/51
f 70/83/52 127/116/52 76/84/52
f 26/117/53 44/118/53 49/27/53
f 85/119/54 104/99/54 92/120/54
f 13/121/55 32/3/55 17/122/55
f 18/17/56 31/109/56 21/18/56
f 117/91/57 123/123/57 130/63/57
f 68/124/58 77/113/58 84/114/58
f 46/24/59 47/125/59 54/126/59
f 102/69/60 114/127/60 118/128/60
f 127/116/61 45/129/61 52/35/61
f 88/81/62 99/130/62 106/89/62
f 113/45/63 13/121/63 17/122/63
f 125/131/64 126/132/64 132/13/64
f 9/20/65 26/117/65 12/21/65
f 19/115/66 63/133/66 68/124/66
f 89/59/67 107/134/67 1/40/67
f 54/126/68 55/135/68 61/30/68
f 78/86/69 79/136/69 86/77/69
f 118/128/70 119/137/70 125/131/70
f 105/73/71 69/138/71 64/105/71
f 29/1/1 36/139/1 41/2/1
f 4/4/2 5/140/2 53/5/2
f 10/7/3 14/93/3 16/8/3
f 30/10/4 24/108/4 33/11/4
f 132/13/5 126/132/5 51/14/5
f 15/16/6 11/88/6 18/17/6
f 138/19/7 135/41/7 9/20/7
f 42/22/8 38/70/8 43/23/8
f 128/25/9 5/140/9 4/4/9
f 49/27/10 44/118/10 8/28/10
f 61/30/11 55/135/11 62/31/11
f 20/9/12 16/8/12 23/33/12
f 52/35/13 45/129/13 94/36/13
f 41/2/14 36/139/14 58/38/14
f 1/40/15 107/134/15 135/41/15
f 134/42/16 50/141/16 57/43/16
f 94/36/17 109/142/17 113/45/17
f 39/46/18 34/143/18 48/47/18
f 116/49/19 111/100/19 122/50/19
f 129/144/20 136/145/20 15/146/20
f 15/146/20 21/147/20 129/144/20
f 21/147/20 31/148/20 104/149/20
f 116/150/20 21/147/20 104/149/20
f 31/148/20 39/151/20 92/152/20
f 39/151/20 56/153/20 64/154/20
f 92/152/20 39/151/20 64/154/20
f 56/153/20 76/155/20 64/154/20
f 76/155/20 127/156/20 105/157/20
f 105/157/20 52/158/20 93/159/20
f 127/156/20 52/158/20 105/157/20
f 52/158/20 101/160/20 86/161/20
f 101/160/20 113/162/20 78/163/20
f 113/162/20 17/164/20 78/163/20
f 101/160/20 78/163/20 86/161/20
f 17/164/20 32/165/20 40/166/20
f 32/165/20 41/167/20 40/166/20
f 41/167/20 65/168/20 40/166/20
f 65/168/20 89/169/20 40/166/20
f 1/170/20 138/171/20 12/172/20
f 17/164/20 40/166/20 57/173/20
f 89/169/20 1/170/20 40/166/20
f 52/158/20 86/161/20 93/159/20
f 21/147/20 116/150/20 129/144/20
f 92/152/20 104/149/20 31/148/20
f 105/157/20 64/154/20 76/155/20
f 1/170/20 12/172/20 26/174/20
f 26/174/20 49/175/20 2/176/20
f 1/170/20 26/174/20 2/176/20
f 49/175/20 7/177/20 20/178/20
f 78/163/20 17/164/20 57/173/20
f 1/170/20 2/176/20 40/166/20
f 19/52/20 68/179/20 60/180/20
f 68/179/20 84/181/20 4/182/20
f 7/177/20 19/52/20 131/54/20
f 68/179/20 4/182/20 60/180/20
f 84/181/20 96/183/20 4/182/20
f 96/183/20 110/184/20 4/182/20
f 110/184/20 121/185/20 4/182/20
f 121/185/20 133/186/20 4/182/20
f 60/180/20 30/187/20 59/188/20
f 30/187/20 37/189/20 90/190/20
f 132/191/20 30/187/20 102/192/20
f 130/193/20 137/194/20 117/195/20
f 137/194/20 57/173/20 88/196/20
f 106/197/20 137/194/20 88/196/20
f 2/176/20 49/175/20 27/198/20
f 30/187/20 132/191/20 59/188/20
f 37/189/20 42/199/20 71/200/20
f 42/199/20 46/201/20 66/202/20
f 46/201/20 54/203/20 61/204/20
f 66/202/20 46/201/20 61/204/20
f 66/202/20 71/200/20 42/199/20
f 71/200/20 75/205/20 37/189/20
f 75/205/20 90/190/20 37/189/20
f 90/190/20 102/192/20 30/187/20
f 102/192/20 118/206/20 125/207/20
f 125/207/20 132/191/20 102/192/20
f 19/52/20 60/180/20 82/208/20
f 137/194/20 106/197/20 117/195/20
f 40/166/20 88/196/20 57/173/20
f 60/180/20 59/188/20 82/208/20
f 27/198/20 49/175/20 20/178/20
f 19/52/20 82/208/20 108/53/20
f 20/178/20 7/177/20 10/209/20
f 10/209/20 7/177/20 131/54/20
f 71/55/21 67/210/21 72/56/21
f 65/39/22 58/38/22 80/58/22
f 28/60/23 35/211/23 40/61/23
f 130/63/24 123/123/24 134/42/24
f 96/64/25 91/212/25 103/65/25
f 90/67/26 83/82/26 95/68/26
f 37/12/27 33/11/27 38/70/27
f 93/71/28 87/213/28 98/72/28
f 74/74/29 100/214/29 108/75/29
f 86/77/72 79/136/72 87/78/72
f 40/61/31 35/211/31 81/80/31
f 75/57/32 72/56/32 83/82/32
f 56/48/33 48/47/33 70/83/33
f 57/43/34 50/141/34 73/85/34
f 15/16/73 136/112/73 6/87/73
f 106/89/36 99/130/36 112/90/36
f 131/92/37 124/95/37 14/93/37
f 27/94/38 23/215/38 28/60/38
f 108/75/39 100/214/39 124/95/39
f 53/216/40 5/217/40 63/218/40
f 5/217/40 128/219/40 115/220/40
f 53/216/40 63/218/40 3/221/40
f 115/220/40 103/222/40 5/217/40
f 103/222/40 91/223/40 5/217/40
f 91/223/40 77/224/40 5/217/40
f 77/224/40 63/218/40 5/217/40
f 8/225/40 44/226/40 16/227/40
f 44/226/40 22/228/40 28/229/40
f 16/227/40 44/226/40 23/230/40
f 22/228/40 9/231/40 107/232/40
f 23/230/40 44/226/40 28/229/40
f 9/231/40 135/233/40 107/232/40
f 22/228/40 107/232/40 28/229/40
f 53/216/40 3/221/40 74/234/40
f 3/221/40 8/225/40 124/235/40
f 74/234/40 3/221/40 100/236/40
f 33/237/40 24/238/40 83/239/40
f 24/238/40 53/216/40 51/240/40
f 95/241/40 126/242/40 119/243/40
f 43/244/40 38/245/40 62/246/40
f 38/245/40 33/237/40 67/247/40
f 55/248/40 47/249/40 43/244/40
f 67/247/40 62/246/40 38/245/40
f 62/246/40 55/248/40 43/244/40
f 83/239/40 72/250/40 33/237/40
f 72/250/40 67/247/40 33/237/40
f 114/251/40 95/241/40 119/243/40
f 95/241/40 83/239/40 24/238/40
f 51/240/40 126/242/40 24/238/40
f 95/241/40 24/238/40 126/242/40
f 107/232/40 80/252/40 35/97/40
f 80/252/40 58/253/40 35/97/40
f 107/232/40 35/97/40 28/229/40
f 58/253/40 36/254/40 35/97/40
f 36/254/40 29/255/40 35/97/40
f 29/255/40 13/256/40 35/97/40
f 13/256/40 109/257/40 73/258/40
f 73/258/40 94/259/40 79/260/40
f 109/257/40 94/259/40 73/258/40
f 94/259/40 45/261/40 79/260/40
f 87/262/40 45/261/40 98/263/40
f 45/261/40 120/264/40 98/263/40
f 120/264/40 70/265/40 98/263/40
f 70/265/40 48/266/40 69/267/40
f 48/266/40 34/268/40 69/267/40
f 69/267/40 34/268/40 85/269/40
f 34/268/40 25/270/40 85/269/40
f 25/270/40 18/271/40 97/272/40
f 97/272/40 18/271/40 111/273/40
f 18/271/40 11/274/40 122/275/40
f 11/274/40 6/276/40 122/275/40
f 122/275/40 111/273/40 18/271/40
f 97/272/40 85/269/40 25/270/40
f 69/267/40 98/263/40 70/265/40
f 45/261/40 87/262/40 79/260/40
f 100/236/40 3/221/40 124/235/40
f 74/234/40 51/240/40 53/216/40
f 124/235/40 8/225/40 14/277/40
f 14/277/40 8/225/40 16/227/40
f 13/256/40 73/258/40 50/98/40
f 13/256/40 50/98/40 35/97/40
f 50/98/40 134/278/40 81/96/40
f 134/278/40 123/279/40 112/280/40
f 99/281/40 134/278/40 112/280/40
f 99/281/40 81/96/40 134/278/40
f 104/99/41 97/282/41 111/100/41
f 110/66/42 103/65/42 115/101/42
f 59/15/43 51/14/43 74/74/43
f 66/32/44 62/31/44 67/103/44
f 64/105/45 69/138/45 85/106/45
f 60/6/46 53/5/46 24/108/46
f 31/109/47 25/283/47 34/110/47
f 121/102/48 115/101/48 128/25/48
f 136/112/74 129/51/74 122/50/74
f 77/113/50 91/212/50 96/64/50
f 8/28/51 3/284/51 19/115/51
f 70/83/52 120/285/52 127/116/52
f 26/117/53 22/286/53 44/118/53
f 85/119/54 97/282/54 104/99/54
f 13/121/55 29/1/55 32/3/55
f 18/17/56 25/283/56 31/109/56
f 117/91/57 112/90/57 123/123/57
f 68/124/58 63/133/58 77/113/58
f 46/24/59 43/23/59 47/125/59
f 102/69/60 95/68/60 114/127/60
f 127/116/61 120/285/61 45/129/61
f 88/81/62 81/80/62 99/130/62
f 113/45/63 109/142/63 13/121/63
f 125/131/64 119/137/64 126/132/64
f 9/20/65 22/286/65 26/117/65
f 19/115/66 3/284/66 63/133/66
f 89/59/67 80/58/67 107/134/67
f 54/126/68 47/125/68 55/135/68
f 78/86/69 73/85/69 79/136/69
f 118/128/70 114/127/70 119/137/70
f 105/73/71 98/72/71 69/138/71
