# Blender v2.82 (sub 7) OBJ File: 'Obstacals ALL.blend'
# www.blender.org
o TFA6_Curve_Mesh.005
v -0.461757 -0.000000 -0.205706
v 0.305528 0.000000 -0.429914
v 0.634686 0.000000 -0.097024
v 0.634686 0.017192 -0.097024
v 0.286304 0.017191 -0.502551
v -0.309744 -0.000000 -0.579380
v -0.309744 0.017191 -0.579380
v 0.140007 0.000000 -0.851685
v 0.149884 0.017191 -0.857943
v 0.112606 0.017191 0.640821
v 0.647900 0.017192 -0.059642
v 0.286304 0.000000 -0.502551
v 0.288374 0.017191 -0.482656
v -0.536620 0.017191 -0.009322
v 0.647900 0.000000 -0.059642
v 0.650089 0.017192 -0.041398
v 0.288374 0.000000 -0.482656
v 0.291051 0.017191 -0.465111
v 0.172762 0.017191 -0.869774
v -0.536620 -0.000000 -0.009322
v -0.529008 0.017191 -0.023337
v 0.650089 0.000000 -0.041398
v 0.291051 0.000000 -0.465111
v 0.294410 0.017191 -0.450642
v 0.172762 0.000000 -0.869774
v -0.529008 -0.000000 -0.023337
v 0.294410 0.000000 -0.450642
v 0.198405 0.017191 -0.878146
v -0.485995 0.017191 -0.492872
v -0.511453 0.017191 -0.060418
v 0.305527 0.017191 -0.429914
v -0.254512 -0.000000 0.675383
v -0.264735 0.017191 0.667766
v 0.198405 0.000000 -0.878146
v 0.211735 0.017191 -0.880079
v -0.485995 -0.000000 -0.492872
v -0.511453 -0.000000 -0.060418
v 0.641540 0.017192 0.035825
v 0.211735 0.000000 -0.880079
v 0.225123 0.017191 -0.880001
v -0.625994 0.017191 0.284210
v 0.641540 0.000000 0.035825
v -0.202483 0.017191 -0.584884
v 0.225123 0.000000 -0.880001
v 0.237487 0.017191 -0.875490
v 0.548533 0.017191 0.487264
v -0.625994 -0.000000 0.284210
v -0.202483 -0.000000 -0.584884
v 0.237487 0.000000 -0.875490
v 0.247982 0.017191 -0.865004
v -0.474931 0.017191 -0.540046
v -0.476679 0.017191 -0.149577
v 0.548533 0.000000 0.487264
v -0.186338 0.017191 -0.587839
v 0.247982 0.000000 -0.865004
v 0.256757 0.017191 -0.849577
v -0.474931 -0.000000 -0.540046
v 0.213846 0.017191 0.612740
v -0.476679 -0.000000 -0.149577
v 0.537900 0.017191 0.518349
v 0.256758 0.000000 -0.849577
v -0.466436 0.017191 -0.558450
v 0.213846 0.000000 0.612740
v -0.464978 0.017191 -0.189535
v 0.537900 0.000000 0.518349
v -0.649193 0.017191 0.237208
v -0.175509 -0.000000 -0.590681
v 0.013076 0.017191 0.734680
v 0.269742 0.017191 -0.808054
v -0.466436 -0.000000 -0.558450
v -0.464978 -0.000000 -0.189535
v 0.520038 0.017191 0.548701
v -0.649193 -0.000000 0.237208
v 0.269742 0.000000 -0.808054
v 0.274248 0.017191 -0.784031
v -0.451672 0.017191 -0.572041
v -0.460749 0.017191 -0.218330
v 0.520038 0.000000 0.548701
v -0.654858 0.017191 0.216631
v 0.274248 0.000000 -0.784031
v 0.004273 -0.000000 0.741471
v -0.451672 -0.000000 -0.572041
v 0.497394 0.017191 0.574650
v -0.654858 -0.000000 0.216631
v -0.115392 0.017191 -0.612568
v 0.280029 0.017191 -0.734647
v -0.013836 0.017191 0.752927
v -0.429019 0.017191 -0.581296
v -0.461558 -0.000000 -0.230351
v 0.497394 0.000000 0.574650
v -0.656801 0.017191 0.198496
v -0.115392 -0.000000 -0.612568
v 0.280029 0.000000 -0.734647
v -0.013836 -0.000000 0.752927
v -0.429019 -0.000000 -0.581296
v 0.473987 0.017191 0.593513
v -0.656801 -0.000000 0.198496
v -0.082314 0.017191 -0.629525
v -0.033454 0.017191 0.761068
v -0.402352 0.017191 -0.586654
v 0.159952 0.017191 0.620386
v 0.473987 0.000000 0.593513
v 0.462085 0.017191 0.600604
v 0.573095 0.017191 0.223001
v -0.082314 -0.000000 -0.629525
v -0.033454 -0.000000 0.761068
v -0.402352 -0.000000 -0.586654
v 0.159952 0.000000 0.620386
v 0.462085 0.000000 0.600604
v -0.642273 0.017191 0.157682
v 0.573095 0.000000 0.223001
v -0.439897 0.017191 0.507884
v -0.052602 0.017191 -0.650266
v -0.375546 0.017191 -0.588551
v 0.438059 0.017191 0.610740
v -0.642273 -0.000000 0.157682
v -0.439897 -0.000000 0.507884
v -0.052602 -0.000000 -0.650266
v -0.067909 0.017191 0.765797
v 0.438059 0.000000 0.610740
v -0.067909 -0.000000 0.765797
v -0.081846 0.017191 0.764271
v -0.363302 -0.000000 -0.588337
v -0.352475 0.017191 -0.587422
v 0.584485 0.017191 -0.170605
v -0.081846 -0.000000 0.764271
v 0.401996 0.017191 0.617727
v 0.584485 0.000000 -0.170605
v -0.343551 -0.000000 -0.585860
v 0.119159 0.017191 -0.836125
v 0.130037 0.017191 0.628771
v 0.401996 0.000000 0.617727
v -0.133891 0.017191 0.746167
v -0.330364 0.017191 -0.581650
v 0.130037 0.000000 0.628771
v 0.119159 0.000000 -0.836125
v -0.490700 0.017191 -0.407289
v -0.133891 -0.000000 0.746167
v -0.330364 -0.000000 -0.581650
v -0.490700 -0.000000 -0.407289
v 0.118713 0.000000 0.635876
vt 0.088990 0.362610
vt 0.088414 0.362444
vt 0.088990 0.362444
vt 0.082852 0.362610
vt 0.059391 0.362444
vt 0.083030 0.362444
vt 0.051098 0.362610
vt 0.047730 0.362444
vt 0.047730 0.362610
vt 0.085565 0.362610
vt 0.085888 0.362444
vt 0.085565 0.362444
vt 0.047252 0.362610
vt 0.047466 0.362444
vt 0.047252 0.362444
vt 0.059340 0.362610
vt 0.059729 0.362444
vt 0.059340 0.362444
vt 0.047466 0.362610
vt 0.047556 0.362444
vt 0.050597 0.362610
vt 0.050394 0.362444
vt 0.050597 0.362444
vt 0.091256 0.362610
vt 0.051995 0.362444
vt 0.051098 0.362444
vt 0.085278 0.362444
vt 0.084625 0.362610
vt 0.084625 0.362444
vt 0.053670 0.362610
vt 0.052699 0.362444
vt 0.052699 0.362610
vt 0.089155 0.362610
vt 0.089324 0.362444
vt 0.089155 0.362444
vt 0.092316 0.362610
vt 0.092617 0.362444
vt 0.092565 0.362610
vt 0.089324 0.362610
vt 0.089493 0.362444
vt 0.086368 0.362444
vt 0.086137 0.362610
vt 0.086137 0.362444
vt 0.088063 0.362610
vt 0.085888 0.362610
vt 0.052853 0.362610
vt 0.054876 0.362444
vt 0.054876 0.362610
vt 0.082372 0.362610
vt 0.082546 0.362444
vt 0.082372 0.362444
vt 0.081523 0.362444
vt 0.081861 0.362610
vt 0.081861 0.362444
vt 0.045947 0.362444
vt 0.080898 0.362610
vt 0.080898 0.362444
vt 0.083120 0.362444
vt 0.042235 0.362610
vt 0.042431 0.362444
vt 0.042235 0.362444
vt 0.056533 0.362610
vt 0.055936 0.362444
vt 0.056533 0.362444
vt 0.043884 0.362444
vt 0.043261 0.362444
vt 0.043884 0.362610
vt 0.091862 0.362610
vt 0.092167 0.362444
vt 0.092167 0.362610
vt 0.055676 0.362610
vt 0.055936 0.362610
vt 0.046178 0.362444
vt 0.046810 0.362610
vt 0.046178 0.362610
vt 0.060108 0.362610
vt 0.060430 0.362444
vt 0.060108 0.362444
vt 0.087863 0.362444
vt 0.086368 0.362610
vt 0.092316 0.362444
vt 0.042431 0.362610
vt 0.042957 0.362444
vt 0.085888 0.362610
vt 0.085763 0.362610
vt 0.085453 0.362444
vt 0.085763 0.362444
vt 0.051995 0.362610
vt 0.052468 0.362444
vt 0.088831 0.362444
vt 0.088831 0.362610
vt 0.050083 0.362444
vt 0.047847 0.362610
vt 0.047847 0.362444
vt 0.088540 0.362610
vt 0.088290 0.362444
vt 0.463590 0.224995
vt 0.480441 0.216507
vt 0.494195 0.217686
vt 0.056015 0.362444
vt 0.053670 0.362444
vt 0.084042 0.362444
vt 0.084383 0.362610
vt 0.084246 0.362444
vt 0.082689 0.362610
vt 0.085145 0.362610
vt 0.085145 0.362444
vt 0.056015 0.362610
vt 0.089493 0.362610
vt 0.089647 0.362444
vt 0.059729 0.362610
vt 0.087863 0.362610
vt 0.087984 0.362444
vt 0.055447 0.362610
vt 0.055676 0.362444
vt 0.455129 0.323222
vt 0.459208 0.324271
vt 0.461191 0.324428
vt 0.081186 0.362444
vt 0.055287 0.362610
vt 0.055287 0.362444
vt 0.091557 0.362444
vt 0.091862 0.362444
vt 0.082264 0.362444
vt 0.081523 0.362610
vt 0.081186 0.362610
vt 0.082264 0.362610
vt 0.051098 0.362610
vt 0.051098 0.362444
vt 0.050235 0.362444
vt 0.050083 0.362610
vt 0.088414 0.362610
vt 0.059391 0.362610
vt 0.045947 0.362610
vt 0.042100 0.362610
vt 0.042100 0.362444
vt 0.052468 0.362610
vt 0.085453 0.362610
vt 0.047556 0.362610
vt 0.050394 0.362610
vt 0.085278 0.362610
vt 0.088063 0.362444
vt 0.052978 0.362444
vt 0.082546 0.362610
vt 0.083030 0.362610
vt 0.046810 0.362610
vt 0.046810 0.362444
vt 0.047062 0.362610
vt 0.047062 0.362444
vt 0.042957 0.362610
vt 0.043261 0.362610
vt 0.046810 0.362444
vt 0.060430 0.362610
vt 0.087672 0.362610
vt 0.085888 0.362444
vt 0.088540 0.362444
vt 0.369609 0.287972
vt 0.370470 0.285824
vt 0.372813 0.292792
vt 0.371712 0.283902
vt 0.377341 0.293816
vt 0.374436 0.280934
vt 0.379955 0.294158
vt 0.393872 0.266746
vt 0.385322 0.294570
vt 0.369456 0.290199
vt 0.369423 0.289084
vt 0.371124 0.292082
vt 0.369968 0.291223
vt 0.410509 0.294769
vt 0.412671 0.294915
vt 0.396068 0.264243
vt 0.414579 0.295113
vt 0.397847 0.261465
vt 0.416155 0.295372
vt 0.400576 0.254840
vt 0.417320 0.295701
vt 0.400692 0.254172
vt 0.441351 0.232048
vt 0.455129 0.323222
vt 0.447057 0.319143
vt 0.469552 0.323608
vt 0.489731 0.317647
vt 0.400981 0.244285
vt 0.459208 0.324271
vt 0.461191 0.324428
vt 0.521704 0.314304
vt 0.518351 0.315233
vt 0.524964 0.312774
vt 0.531355 0.287181
vt 0.532106 0.303845
vt 0.400811 0.243516
vt 0.400026 0.240782
vt 0.399981 0.239762
vt 0.443100 0.231757
vt 0.419433 0.229918
vt 0.447413 0.230727
vt 0.410158 0.230429
vt 0.400138 0.237527
vt 0.400671 0.235298
vt 0.405062 0.231417
vt 0.402293 0.232673
vt 0.403081 0.232150
vt 0.527737 0.310851
vt 0.530489 0.307874
vt 0.529741 0.308876
vt 0.531545 0.305858
vt 0.532086 0.282681
vt 0.532941 0.280177
vt 0.457021 0.227706
vt 0.546148 0.268020
vt 0.544218 0.270288
vt 0.547255 0.262341
vt 0.533691 0.279225
vt 0.545197 0.258031
vt 0.537300 0.248083
vt 0.518795 0.232875
vt 0.461011 0.226192
vt 0.547446 0.263500
vt 0.546995 0.266376
vt 0.489055 0.215819
vt 0.484842 0.215239
vt 0.486812 0.215376
vt 0.084042 0.362610
vt 0.089647 0.362610
vt 0.055447 0.362444
vt 0.438678 0.232099
vt 0.419433 0.229918
vt 0.401094 0.245230
vt 0.410158 0.230429
vt 0.400811 0.243516
vt 0.405062 0.231417
vt 0.400138 0.237527
vt 0.402293 0.232673
vt 0.401633 0.233398
vt 0.400671 0.235298
vt 0.400145 0.241682
vt 0.400330 0.242423
vt 0.439984 0.232150
vt 0.400112 0.256426
vt 0.400576 0.254840
vt 0.443100 0.231757
vt 0.418423 0.296269
vt 0.397847 0.261465
vt 0.416155 0.295372
vt 0.447413 0.230727
vt 0.396068 0.264243
vt 0.457021 0.227706
vt 0.532086 0.282681
vt 0.414579 0.295113
vt 0.461011 0.226192
vt 0.532941 0.280177
vt 0.393872 0.266746
vt 0.374023 0.281312
vt 0.385322 0.294570
vt 0.371712 0.283902
vt 0.379955 0.294158
vt 0.412671 0.294915
vt 0.483718 0.215402
vt 0.480441 0.216507
vt 0.486812 0.215376
vt 0.462518 0.225540
vt 0.494195 0.217686
vt 0.489055 0.215819
vt 0.518795 0.232875
vt 0.370470 0.285824
vt 0.377341 0.293816
vt 0.369609 0.287972
vt 0.372813 0.292792
vt 0.369423 0.289084
vt 0.369456 0.290199
vt 0.371124 0.292082
vt 0.369968 0.291223
vt 0.410509 0.294769
vt 0.489731 0.317647
vt 0.545197 0.258031
vt 0.536455 0.247242
vt 0.534217 0.278709
vt 0.547446 0.263500
vt 0.547255 0.262341
vt 0.547263 0.265481
vt 0.544938 0.269545
vt 0.546148 0.268020
vt 0.531545 0.305858
vt 0.532236 0.302846
vt 0.529741 0.308876
vt 0.531355 0.287181
vt 0.518351 0.315233
vt 0.447057 0.319143
vt 0.469552 0.323608
vt 0.524964 0.312774
vt 0.530489 0.307874
vt 0.527737 0.310851
vt 0.521704 0.314304
vt 0.091557 0.362610
vt 0.052233 0.362444
vt 0.052233 0.362610
vt 0.052699 0.362444
vt 0.052699 0.362610
vt 0.052853 0.362444
vt 0.087984 0.362610
vn 0.1405 0.0000 0.9901
vn -0.6688 -0.0697 0.7402
vn 0.6808 0.0000 -0.7324
vn -0.5724 0.0000 -0.8200
vn 0.9741 0.0000 -0.2261
vn 0.9462 0.0000 0.3236
vn 0.8813 0.0000 -0.4726
vn -0.9807 0.0000 -0.1953
vn -0.0265 0.0000 0.9996
vn 0.8261 0.0000 -0.5636
vn -0.3286 0.0000 0.9445
vn 0.9939 0.0000 0.1100
vn -0.1435 0.0000 -0.9897
vn 0.6275 0.0000 0.7786
vn 0.0058 0.0000 -1.0000
vn 0.5346 0.0000 0.8451
vn -0.7344 0.0000 -0.6787
vn -0.8451 0.0000 -0.5346
vn 0.1094 0.0000 -0.9940
vn -0.0430 -0.0430 -0.9981
vn -0.6773 0.0000 -0.7357
vn -0.5061 0.0000 0.8625
vn 0.8692 0.0000 -0.4944
vn -0.8967 0.0000 0.4426
vn 0.9932 0.0000 -0.1163
vn 0.3887 0.0000 0.9214
vn -0.9641 0.0000 0.2654
vn -0.9736 0.0000 -0.2283
vn 0.7535 0.0000 0.6575
vn 0.6770 -0.0568 0.7338
vn 0.5118 0.0000 0.8591
vn 0.9544 0.0000 -0.2985
vn 0.3833 0.0000 0.9236
vn 0.1360 0.0000 0.9907
vn 0.9428 0.0000 -0.3333
vn -0.3104 0.0000 -0.9506
vn -0.9867 0.0000 0.1625
vn -0.4594 -0.0000 -0.8883
vn -0.5786 0.0358 -0.8148
vn -0.0000 1.0000 0.0000
vn 0.9392 0.0000 0.3434
vn -0.2100 0.0293 -0.9773
vn -0.0512 0.0000 -0.9987
vn -0.3421 0.0000 -0.9397
vn -0.9985 0.0000 -0.0549
vn 0.9957 0.0000 0.0925
vn 0.3427 0.0000 -0.9394
vn 0.8618 0.0000 0.5072
vn 0.5315 0.0000 0.8471
vn -0.9943 0.0000 0.1065
vn 0.0000 -1.0000 -0.0000
vn -0.4562 0.0000 -0.8899
vn -0.3782 0.0000 -0.9257
vn -0.9421 0.0000 -0.3353
vn 0.1902 0.0000 0.9817
vn 0.3042 0.0000 -0.9526
vn -0.1970 0.0000 -0.9804
vn 0.1244 -0.0256 -0.9919
vn -0.9597 0.0000 -0.2810
vn -0.9986 0.0527 -0.0081
vn 0.2699 0.0000 0.9629
vn -0.7687 0.0000 0.6396
vn -0.9079 0.0000 -0.4191
vn 0.7068 0.0000 -0.7074
vn 0.9929 0.0000 -0.1192
vn -0.1088 0.0000 0.9941
vn -0.6742 0.0000 0.7386
vn -0.9882 -0.0486 -0.1452
vn 0.0059 0.0000 -1.0000
vn 0.5608 0.0396 0.8270
vn -0.0706 0.0000 -0.9975
vn -0.5126 0.0742 0.8554
vn 0.9996 0.0000 -0.0270
vn 0.9946 0.0000 -0.1035
vn 0.9886 0.0000 -0.1509
vn 0.9829 0.0000 -0.1843
vn 0.9829 0.0000 -0.1844
vn 0.6857 0.0345 0.7271
vn -0.9857 -0.0628 0.1562
vn -0.4830 -0.0409 -0.8746
vn -0.5981 0.0000 -0.8014
vn -0.1800 0.0000 -0.9837
vn -0.3287 -0.0511 -0.9430
vn 0.5683 -0.0346 0.8221
vn 0.2524 0.0432 -0.9667
vn 0.0488 0.0224 -0.9986
vn -0.9316 0.0000 -0.3634
vn -0.9038 0.0000 -0.4279
vn -0.8787 0.0000 -0.4773
s off
f 58/1/1 108/2/1 63/3/1
f 33/4/2 117/5/2 32/6/2
f 125/7/3 2/8/3 31/9/3
f 98/10/4 118/11/4 105/12/4
f 18/13/5 27/14/5 23/15/5
f 46/16/6 65/17/6 53/18/6
f 24/19/7 2/20/7 27/14/7
f 64/21/8 1/22/8 71/23/8
f 63/3/9 127/24/9 58/1/9
f 125/7/10 3/25/10 128/26/10
f 126/27/11 133/28/11 138/29/11
f 38/30/12 22/31/12 16/32/12
f 28/33/13 39/34/13 34/35/13
f 96/36/14 90/37/14 83/38/14
f 35/39/15 44/40/15 39/34/15
f 81/41/16 87/42/16 94/43/16
f 130/44/17 118/11/17 113/45/17
f 14/46/18 116/47/18 110/48/18
f 134/49/19 6/50/19 139/51/19
f 107/52/20 114/53/20 123/54/20
f 70/55/21 76/56/21 82/57/21
f 133/28/22 32/58/22 138/29/22
f 50/59/23 61/60/23 55/61/23
f 41/62/24 73/63/24 47/64/24
f 93/65/25 80/66/25 86/67/25
f 115/68/26 109/69/26 103/70/26
f 79/71/27 73/63/27 66/72/27
f 57/73/28 29/74/28 51/75/28
f 72/76/29 90/77/29 78/78/29
f 141/79/30 68/80/30 81/41/30
f 96/36/31 109/69/31 102/81/31
f 56/82/32 74/83/32 61/60/32
f 99/84/33 94/43/33 87/42/33
f 99/85/34 121/86/34 106/87/34
f 4/88/35 15/89/35 3/25/35
f 28/33/36 25/90/36 19/91/36
f 89/92/37 137/93/37 140/94/37
f 25/90/38 9/95/38 19/91/38
f 8/96/39 130/44/39 9/95/39
f 14/97/40 110/98/40 41/99/40
f 38/30/41 111/100/41 42/101/41
f 48/102/42 54/103/42 67/104/42
f 7/105/43 48/102/43 6/50/43
f 67/104/44 85/106/44 92/107/44
f 29/74/45 140/94/45 137/93/45
f 46/16/46 111/100/46 104/108/46
f 40/109/47 49/110/47 44/40/47
f 60/111/48 78/78/48 65/17/48
f 131/112/49 141/79/49 135/113/49
f 91/114/50 84/115/50 79/71/50
f 3/116/51 15/117/51 22/118/51
f 85/106/52 105/12/52 92/107/52
f 76/56/53 95/119/53 82/57/53
f 91/120/54 116/47/54 97/121/54
f 115/68/55 132/122/55 120/123/55
f 129/124/56 134/49/56 139/51/56
f 100/125/57 95/119/57 88/126/57
f 123/54/58 124/127/58 129/124/58
f 52/128/59 64/21/59 59/129/59
f 89/92/60 1/130/60 77/131/60
f 101/132/61 135/113/61 108/2/61
f 41/62/62 117/5/62 112/133/62
f 62/134/63 57/73/63 51/75/63
f 45/135/64 55/61/64 49/136/64
f 11/137/65 22/31/65 15/89/65
f 119/138/66 126/27/66 121/86/66
f 58/1/1 101/132/1 108/2/1
f 33/4/67 112/133/67 117/5/67
f 125/7/3 128/26/3 2/8/3
f 98/10/4 113/45/4 118/11/4
f 18/13/5 24/19/5 27/14/5
f 46/16/6 60/111/6 65/17/6
f 24/19/7 31/139/7 2/20/7
f 64/21/68 77/140/68 1/22/68
f 63/3/9 132/122/9 127/24/9
f 125/7/10 4/88/10 3/25/10
f 126/27/11 122/141/11 133/28/11
f 38/30/12 42/101/12 22/31/12
f 28/33/13 35/39/13 39/34/13
f 96/36/14 102/81/14 90/37/14
f 35/39/69 40/109/69 44/40/69
f 81/41/70 68/80/70 87/42/70
f 130/44/17 136/142/17 118/11/17
f 14/46/18 20/143/18 116/47/18
f 134/49/19 7/144/19 6/50/19
f 107/52/71 100/125/71 114/53/71
f 70/55/21 62/134/21 76/56/21
f 133/28/72 33/145/72 32/58/72
f 50/59/23 56/82/23 61/60/23
f 41/62/24 66/72/24 73/63/24
f 86/67/73 5/146/73 12/147/73
f 5/146/74 13/148/74 17/149/74
f 13/148/75 18/13/75 23/15/75
f 17/149/74 12/147/74 5/146/74
f 12/147/73 93/65/73 86/67/73
f 13/148/75 23/15/75 17/149/75
f 69/150/76 75/151/76 74/83/76
f 75/151/25 86/67/25 80/66/25
f 74/83/77 75/151/77 80/66/77
f 115/68/26 120/123/26 109/69/26
f 79/71/27 84/115/27 73/63/27
f 57/73/28 36/152/28 29/74/28
f 72/76/29 83/153/29 90/77/29
f 141/79/78 10/154/78 68/80/78
f 96/36/31 103/70/31 109/69/31
f 56/82/32 69/150/32 74/83/32
f 99/84/33 106/155/33 94/43/33
f 99/85/34 119/138/34 121/86/34
f 4/88/35 11/137/35 15/89/35
f 28/33/36 34/35/36 25/90/36
f 89/92/79 77/131/79 137/93/79
f 25/90/80 8/156/80 9/95/80
f 8/96/81 136/142/81 130/44/81
f 28/157/40 19/158/40 56/159/40
f 19/158/40 9/160/40 69/161/40
f 9/160/40 130/162/40 75/163/40
f 130/162/40 113/164/40 86/165/40
f 19/158/40 69/161/40 56/159/40
f 130/162/40 86/165/40 75/163/40
f 69/161/40 9/160/40 75/163/40
f 40/166/40 35/167/40 50/168/40
f 35/167/40 28/157/40 56/159/40
f 50/168/40 35/167/40 56/159/40
f 50/168/40 45/169/40 40/166/40
f 5/170/40 86/165/40 113/164/40
f 5/170/40 113/164/40 13/171/40
f 113/164/40 98/172/40 13/171/40
f 13/171/40 98/172/40 18/173/40
f 98/172/40 85/174/40 24/175/40
f 18/173/40 98/172/40 24/175/40
f 85/174/40 54/176/40 31/177/40
f 24/175/40 85/174/40 31/177/40
f 54/176/40 43/178/40 77/179/40
f 31/177/40 54/176/40 77/179/40
f 4/180/40 125/181/40 38/182/40
f 125/181/40 31/177/40 104/183/40
f 43/178/40 7/184/40 77/179/40
f 11/185/40 4/180/40 16/186/40
f 125/181/40 104/183/40 38/182/40
f 38/182/40 16/186/40 4/180/40
f 60/187/40 46/188/40 72/189/40
f 46/188/40 104/183/40 58/190/40
f 127/191/40 46/188/40 58/190/40
f 134/192/40 124/193/40 114/194/40
f 31/177/40 77/179/40 64/195/40
f 7/184/40 134/192/40 137/196/40
f 77/179/40 7/184/40 137/196/40
f 46/188/40 127/191/40 72/189/40
f 104/183/40 31/177/40 52/197/40
f 134/192/40 114/194/40 29/198/40
f 114/194/40 100/199/40 29/198/40
f 100/199/40 88/200/40 51/201/40
f 88/200/40 76/202/40 51/201/40
f 76/202/40 62/203/40 51/201/40
f 51/201/40 29/198/40 100/199/40
f 29/198/40 137/196/40 134/192/40
f 83/204/40 72/189/40 127/191/40
f 103/205/40 96/206/40 115/207/40
f 96/206/40 83/204/40 127/191/40
f 127/191/40 115/207/40 96/206/40
f 101/208/40 58/190/40 104/183/40
f 31/177/40 64/195/40 52/197/40
f 131/209/40 101/208/40 30/210/40
f 101/208/40 104/183/40 52/197/40
f 30/210/40 101/208/40 52/197/40
f 87/211/40 68/212/40 122/213/40
f 68/212/40 10/214/40 133/215/40
f 10/214/40 131/209/40 33/216/40
f 112/217/40 21/218/40 14/97/40
f 30/210/40 21/218/40 131/209/40
f 68/212/40 133/215/40 122/213/40
f 21/218/40 112/217/40 131/209/40
f 33/216/40 131/209/40 112/217/40
f 119/219/40 99/220/40 122/213/40
f 99/220/40 87/211/40 122/213/40
f 33/216/40 133/215/40 10/214/40
f 66/221/40 41/99/40 110/98/40
f 41/99/40 112/217/40 14/97/40
f 91/222/40 79/223/40 110/98/40
f 79/223/40 66/221/40 110/98/40
f 38/30/41 104/108/41 111/100/41
f 48/102/82 43/224/82 54/103/82
f 7/105/43 43/224/43 48/102/43
f 67/104/83 54/103/83 85/106/83
f 29/74/45 36/152/45 140/94/45
f 46/16/46 53/18/46 111/100/46
f 40/109/47 45/225/47 49/110/47
f 60/111/48 72/76/48 78/78/48
f 131/112/84 10/154/84 141/79/84
f 91/114/50 97/226/50 84/115/50
f 89/227/51 140/228/51 6/229/51
f 140/228/51 36/230/51 139/231/51
f 6/229/51 140/228/51 139/231/51
f 36/230/51 57/232/51 107/233/51
f 57/232/51 70/234/51 82/235/51
f 95/236/51 57/232/51 82/235/51
f 95/236/51 107/233/51 57/232/51
f 107/233/51 123/237/51 36/230/51
f 123/237/51 129/238/51 139/231/51
f 123/237/51 139/231/51 36/230/51
f 1/239/51 89/227/51 67/240/51
f 89/227/51 6/229/51 48/241/51
f 89/227/51 48/241/51 67/240/51
f 71/242/51 1/239/51 2/243/51
f 1/239/51 67/240/51 2/243/51
f 2/243/51 92/244/51 27/245/51
f 59/246/51 71/242/51 2/243/51
f 92/244/51 2/243/51 67/240/51
f 27/245/51 92/244/51 105/247/51
f 37/248/51 59/246/51 108/249/51
f 27/245/51 105/247/51 23/250/51
f 26/251/51 37/248/51 135/252/51
f 118/253/51 136/254/51 93/255/51
f 136/254/51 8/256/51 80/257/51
f 105/247/51 118/253/51 17/258/51
f 23/250/51 105/247/51 17/258/51
f 97/259/51 116/260/51 84/261/51
f 116/260/51 20/262/51 47/263/51
f 73/264/51 116/260/51 47/263/51
f 20/262/51 26/251/51 117/265/51
f 136/254/51 80/257/51 93/255/51
f 8/256/51 25/266/51 74/267/51
f 80/257/51 8/256/51 74/267/51
f 25/266/51 34/268/51 61/269/51
f 34/268/51 39/270/51 61/269/51
f 39/270/51 44/271/51 55/272/51
f 44/271/51 49/273/51 55/272/51
f 55/272/51 61/269/51 39/270/51
f 61/269/51 74/267/51 25/266/51
f 93/255/51 12/274/51 118/253/51
f 116/260/51 73/264/51 84/261/51
f 59/246/51 2/243/51 111/275/51
f 117/265/51 47/263/51 20/262/51
f 138/276/51 32/277/51 141/278/51
f 32/277/51 117/265/51 141/278/51
f 121/279/51 126/280/51 106/281/51
f 126/280/51 138/276/51 81/282/51
f 94/283/51 126/280/51 81/282/51
f 94/283/51 106/281/51 126/280/51
f 141/278/51 81/282/51 138/276/51
f 17/258/51 118/253/51 12/274/51
f 135/252/51 141/278/51 117/265/51
f 59/246/51 111/275/51 108/249/51
f 108/249/51 135/252/51 37/248/51
f 135/252/51 117/265/51 26/251/51
f 120/284/51 132/285/51 102/286/51
f 132/285/51 63/287/51 53/288/51
f 63/287/51 108/249/51 111/275/51
f 2/243/51 128/289/51 111/275/51
f 128/289/51 3/116/51 42/290/51
f 111/275/51 128/289/51 42/290/51
f 132/285/51 53/288/51 78/291/51
f 102/286/51 109/292/51 120/284/51
f 78/291/51 90/293/51 132/285/51
f 90/293/51 102/286/51 132/285/51
f 53/288/51 65/294/51 78/291/51
f 22/118/51 42/290/51 3/116/51
f 111/275/51 53/288/51 63/287/51
f 85/106/52 98/10/52 105/12/52
f 76/56/53 88/126/53 95/119/53
f 91/120/54 110/48/54 116/47/54
f 115/68/55 127/295/55 132/122/55
f 129/124/85 124/127/85 134/49/85
f 100/125/57 107/52/57 95/119/57
f 123/54/86 114/53/86 124/127/86
f 59/129/87 37/296/87 30/297/87
f 37/296/88 26/298/88 21/299/88
f 26/298/89 20/300/89 14/46/89
f 21/299/88 30/297/88 37/296/88
f 30/297/87 52/128/87 59/129/87
f 26/298/89 14/46/89 21/299/89
f 64/21/59 71/23/59 59/129/59
f 101/132/61 131/301/61 135/113/61
f 41/62/62 47/64/62 117/5/62
f 62/134/63 70/55/63 57/73/63
f 45/135/64 50/59/64 55/61/64
f 11/137/65 16/32/65 22/31/65
f 119/138/66 122/141/66 126/27/66
