# Blender v2.82 (sub 7) OBJ File: ''
# www.blender.org
o TFA6_Curve_Mesh.005
v 1.402150 0.008809 4.232069
v -0.014906 0.008809 4.468245
v -2.471137 0.008809 3.641629
v 0.950791 0.008811 -4.572047
v 1.656039 0.008811 -4.342432
v 0.032329 0.008811 -4.621251
v 2.279281 0.008811 -4.047212
v 2.853320 0.008811 -3.555178
v 3.279749 0.008810 -2.981140
v 3.656975 0.008810 -2.390699
v -1.214812 0.008811 -4.364737
v 4.329421 0.008810 -0.701385
v 4.296618 0.008810 0.659907
v 4.378623 0.008810 0.003863
v 3.902991 0.008810 1.971996
v 3.574969 0.008810 2.578837
v 2.583030 0.008809 3.618011
v 3.149852 0.008809 3.169277
v 0.670004 0.008809 4.444628
v -0.794287 0.008809 4.444627
v -1.479197 0.008809 4.208452
v -3.061577 0.008809 3.192895
v -3.770105 0.008810 2.295426
v -4.100751 0.008810 1.586898
v -4.289691 0.008810 0.901988
v -4.360545 0.008810 0.169842
v -4.360545 0.008810 -0.420598
v -3.888192 0.008810 -2.002977
v -3.527368 0.008810 -2.626219
v -3.068137 0.008811 -3.151055
v -2.559703 0.008811 -3.626687
v -0.493163 0.008811 -4.577951
v 1.402150 0.008809 4.232069
v 3.902991 0.008810 1.971996
v -2.471137 0.008809 3.641629
v -0.014906 0.008809 4.468245
v 0.950791 0.008811 -4.572047
v 0.032329 0.008811 -4.621251
v 1.656039 0.008811 -4.342432
v 2.853320 0.008811 -3.555178
v 2.279281 0.008811 -4.047212
v 3.279749 0.008810 -2.981140
v -1.214812 0.008811 -4.364737
v 3.656975 0.008810 -2.390699
v 4.296618 0.008810 0.659907
v 4.329421 0.008810 -0.701385
v 0.670004 0.008809 4.444628
v 4.378623 0.008810 0.003863
v 2.583030 0.008809 3.618011
v 3.574969 0.008810 2.578837
v 3.149852 0.008809 3.169277
v -1.479197 0.008809 4.208452
v -0.794287 0.008809 4.444627
v -3.770105 0.008810 2.295426
v -3.061577 0.008809 3.192895
v -4.100751 0.008810 1.586898
v -4.360545 0.008810 0.169842
v -4.289691 0.008810 0.901988
v -3.888192 0.008810 -2.002977
v -4.360545 0.008810 -0.420598
v -3.068137 0.008811 -3.151055
v -2.559703 0.008811 -3.626687
v -0.493163 0.008811 -4.577951
v -3.527368 0.008810 -2.626219
vn -0.0000 -1.0000 -0.0000
vn 0.0000 1.0000 0.0000
s 1
f 1//1 2//1 3//1
f 4//1 5//1 6//1
f 5//1 7//1 8//1
f 9//1 5//1 8//1
f 9//1 10//1 11//1
f 10//1 12//1 13//1
f 12//1 14//1 13//1
f 13//1 15//1 3//1
f 15//1 16//1 17//1
f 16//1 18//1 17//1
f 17//1 1//1 15//1
f 1//1 19//1 2//1
f 2//1 20//1 21//1
f 1//1 3//1 15//1
f 21//1 3//1 2//1
f 3//1 22//1 23//1
f 23//1 24//1 3//1
f 24//1 25//1 26//1
f 3//1 24//1 26//1
f 26//1 27//1 28//1
f 3//1 26//1 13//1
f 28//1 29//1 30//1
f 10//1 28//1 30//1
f 30//1 31//1 10//1
f 31//1 11//1 10//1
f 11//1 32//1 6//1
f 9//1 11//1 6//1
f 9//1 6//1 5//1
f 10//1 13//1 28//1
f 28//1 13//1 26//1
f 33//2 34//2 35//2
f 33//2 35//2 36//2
f 37//2 38//2 39//2
f 39//2 40//2 41//2
f 42//2 38//2 43//2
f 42//2 43//2 44//2
f 44//2 45//2 46//2
f 33//2 36//2 47//2
f 46//2 45//2 48//2
f 45//2 35//2 34//2
f 34//2 49//2 50//2
f 50//2 49//2 51//2
f 49//2 34//2 33//2
f 36//2 52//2 53//2
f 52//2 36//2 35//2
f 35//2 54//2 55//2
f 54//2 35//2 56//2
f 56//2 57//2 58//2
f 35//2 57//2 56//2
f 35//2 45//2 57//2
f 57//2 59//2 60//2
f 61//2 44//2 62//2
f 62//2 44//2 43//2
f 43//2 38//2 63//2
f 42//2 39//2 38//2
f 59//2 57//2 45//2
f 44//2 59//2 45//2
f 42//2 40//2 39//2
f 59//2 61//2 64//2
f 44//2 61//2 59//2
