# Exported from Wings 3D 1.5.3
mtllib tractortoken.mtl
o Cube2
#16 vertices, 28 faces
v -0.80200000 -0.10000000 -0.66956267
v -0.66956267 -0.10000000 -0.80200000
v -0.80200000 -0.10000000 0.66956267
v -0.66956267 -0.10000000 0.80200000
v -0.80200000 0.10000000 -0.66956267
v -0.66956267 0.10000000 -0.80200000
v -0.80200000 0.10000000 0.66956267
v -0.66956267 0.10000000 0.80200000
v 0.66956267 -0.10000000 -0.80200000
v 0.80200000 -0.10000000 -0.66956267
v 0.80200000 -0.10000000 0.66956267
v 0.66956267 -0.10000000 0.80200000
v 0.66956267 0.10000000 -0.80200000
v 0.80200000 0.10000000 -0.66956267
v 0.80200000 0.10000000 0.66956267
v 0.66956267 0.10000000 0.80200000
vt 2.9816986e-3 0.49885945
vt 2.9816986e-3 0.49885945
vt 2.9816986e-3 0.50091631
vt 2.9816986e-3 0.50091631
vt 4.2024867e-3 0.49885945
vt 4.2024867e-3 0.50091631
vt 5.3993767e-3 0.49885945
vt 5.3993767e-3 0.50091631
vt 5.5645105e-3 0.49885945
vt 5.5645105e-3 0.50091631
vt 1.6698214e-2 0.49885945
vt 1.6698214e-2 0.49885945
vt 1.6698214e-2 0.50091631
vt 1.6698214e-2 0.50091631
vt 1.8176841e-2 0.49885945
vt 1.8176841e-2 0.49885945
vt 1.8176841e-2 0.50091631
vt 1.8176841e-2 0.50091631
vt 1.9171329e-2 0.49885945
vt 1.9171329e-2 0.50091631
vt 1.9336463e-2 0.49885945
vt 1.9336463e-2 0.50091631
vt 2.0698487e-2 0.49885945
vt 2.0698487e-2 0.50091631
vt 9.7305535e-2 0.45983501
vt 9.7305535e-2 0.53351515
vt 9.7305535e-2 0.45983501
vt 9.7305535e-2 0.53351515
vt 0.46794782 0.94219455
vt 0.46794782 0.94219455
vt 0.47180473 5.3416552e-2
vt 0.47180473 5.3416552e-2
vt 0.54162796 0.94219455
vt 0.54162796 0.94219455
vt 0.54548487 5.3416552e-2
vt 0.91599416 0.45983501
vt 0.91599416 0.45983501
vt 0.91599416 0.53351515
vn -0.92387953 0.0000000e+0 -0.38268343
vn -0.92387953 0.0000000e+0 -0.38268343
vn 0.0000000e+0 -1.00000000 -1.6332229e-17
vn 0.0000000e+0 -1.00000000 -1.6332229e-17
vn 0.0000000e+0 -1.00000000 -1.6332229e-17
vn 0.0000000e+0 -1.00000000 -2.4498343e-17
vn -0.38268343 0.0000000e+0 -0.92387953
vn -0.38268343 0.0000000e+0 -0.92387953
vn 0.0000000e+0 -1.00000000 -2.4498343e-17
vn -0.38268343 0.0000000e+0 -0.92387953
vn -0.38268343 0.0000000e+0 -0.92387953
vn -0.92387953 0.0000000e+0 0.38268343
vn -0.92387953 0.0000000e+0 0.38268343
vn 0.0000000e+0 -1.00000000 1.6332229e-17
vn 0.0000000e+0 -1.00000000 1.6332229e-17
vn 0.0000000e+0 -1.00000000 1.6332229e-17
vn -0.92387953 0.0000000e+0 0.38268343
vn -0.92387953 0.0000000e+0 0.38268343
vn -0.38268343 0.0000000e+0 0.92387953
vn -0.38268343 0.0000000e+0 0.92387953
vn 0.0000000e+0 -1.00000000 0.0000000e+0
vn 0.0000000e+0 1.00000000 0.0000000e+0
vn -0.92387953 0.0000000e+0 -0.38268343
vn -0.92387953 0.0000000e+0 -0.38268343
vn 0.0000000e+0 1.00000000 0.0000000e+0
vn -0.92387953 0.0000000e+0 -0.38268343
vn -0.92387953 0.0000000e+0 -0.38268343
vn 0.0000000e+0 1.00000000 0.0000000e+0
vn 0.0000000e+0 1.00000000 0.0000000e+0
vn 0.0000000e+0 1.00000000 0.0000000e+0
vn -0.38268343 0.0000000e+0 -0.92387953
vn -0.38268343 0.0000000e+0 -0.92387953
vn 0.0000000e+0 1.00000000 0.0000000e+0
vn -0.92387953 0.0000000e+0 0.38268343
vn -0.92387953 0.0000000e+0 0.38268343
vn 0.0000000e+0 1.00000000 0.0000000e+0
vn -0.38268343 0.0000000e+0 0.92387953
vn -0.38268343 0.0000000e+0 0.92387953
vn 0.0000000e+0 1.00000000 0.0000000e+0
vn 0.0000000e+0 1.00000000 0.0000000e+0
vn -0.38268343 0.0000000e+0 0.92387953
vn -0.38268343 0.0000000e+0 0.92387953
vn 0.0000000e+0 -1.00000000 0.0000000e+0
vn 0.38268343 0.0000000e+0 -0.92387953
vn 0.38268343 0.0000000e+0 -0.92387953
vn 0.0000000e+0 -1.00000000 -1.6332229e-17
vn 0.92387953 0.0000000e+0 -0.38268343
vn 0.92387953 0.0000000e+0 -0.38268343
vn 0.0000000e+0 -1.00000000 -1.6332229e-17
vn 0.0000000e+0 -1.00000000 -1.6332229e-17
vn 0.92387953 0.0000000e+0 -0.38268343
vn 0.92387953 0.0000000e+0 -0.38268343
vn 0.92387953 0.0000000e+0 0.38268343
vn 0.0000000e+0 -1.00000000 1.6332229e-17
vn 0.0000000e+0 -1.00000000 1.6332229e-17
vn 0.0000000e+0 -1.00000000 1.6332229e-17
vn 0.92387953 0.0000000e+0 0.38268343
vn 0.38268343 0.0000000e+0 0.92387953
vn 0.38268343 0.0000000e+0 0.92387953
vn 0.0000000e+0 -1.00000000 2.4498343e-17
vn 0.0000000e+0 -1.00000000 2.4498343e-17
vn 0.38268343 0.0000000e+0 0.92387953
vn 0.38268343 0.0000000e+0 0.92387953
vn 0.38268343 0.0000000e+0 -0.92387953
vn 0.38268343 0.0000000e+0 -0.92387953
vn 0.0000000e+0 1.00000000 0.0000000e+0
vn 0.0000000e+0 1.00000000 0.0000000e+0
vn 0.0000000e+0 1.00000000 0.0000000e+0
vn 0.38268343 0.0000000e+0 -0.92387953
vn 0.38268343 0.0000000e+0 -0.92387953
vn 0.92387953 0.0000000e+0 -0.38268343
vn 0.0000000e+0 1.00000000 0.0000000e+0
vn 0.92387953 0.0000000e+0 -0.38268343
vn 0.92387953 0.0000000e+0 0.38268343
vn 0.92387953 0.0000000e+0 0.38268343
vn 0.0000000e+0 1.00000000 0.0000000e+0
vn 0.0000000e+0 1.00000000 0.0000000e+0
vn 0.92387953 0.0000000e+0 0.38268343
vn 0.92387953 0.0000000e+0 0.38268343
vn 0.0000000e+0 1.00000000 0.0000000e+0
vn 0.0000000e+0 1.00000000 0.0000000e+0
vn 0.0000000e+0 1.00000000 0.0000000e+0
vn 0.38268343 0.0000000e+0 0.92387953
vn 0.38268343 0.0000000e+0 0.92387953
g Cube2_Cube2_auv
usemtl Cube2_auv
s 1
f 1/37/3 11/26/55 3/35/16
f 2/38/9 10/29/49 1/37/4
f 4/31/21 3/35/14 12/25/60
f 5/30/25 8/27/39 6/33/29
f 6/33/28 16/32/81 13/38/68
f 7/28/33 8/27/36 5/30/22
f 9/34/43 10/29/46 2/38/6
f 11/26/56 1/37/5 10/29/50
f 12/25/61 3/35/15 11/26/54
f 14/36/72 13/38/66 15/35/76
f 15/35/77 13/38/67 16/32/80
f 16/32/82 6/33/30 8/27/40
s 2
f 2/18/10 5/12/27 6/16/31
f 2/8/7 13/19/64 9/20/44
f 3/4/12 5/12/23 1/14/1
f 5/12/24 2/18/8 1/14/2
f 5/12/26 3/4/18 7/2/35
f 7/15/34 3/17/17 8/11/42
f 8/11/38 3/17/13 4/13/20
f 8/11/41 12/3/62 16/1/83
f 10/10/51 13/5/70 14/9/73
f 10/10/52 15/21/78 11/22/57
f 11/22/53 15/21/75 12/24/59
f 12/3/58 8/11/37 4/13/19
f 13/19/69 2/8/11 6/7/32
f 13/5/65 10/10/48 9/6/45
f 15/21/74 10/10/47 14/9/71
f 16/23/84 12/24/63 15/21/79
