# Blender v2.92.0 OBJ File: ''
# www.blender.org
mtllib Vector.mtl
o Cube.001
v -1.526583 0.032519 -0.066459
v -1.490737 0.032519 0.009427
v 1.480876 0.032519 0.009427
v 1.516722 0.032519 -0.066460
v 0.046289 0.032519 -1.916898
v -0.056150 0.032519 -1.916898
v 1.579125 -0.032519 1.866255
v 1.579125 0.032519 1.866255
v -1.588986 0.032519 1.866255
v -1.588986 -0.032519 1.866255
v -1.526583 -0.032519 -0.066459
v -0.056150 -0.032519 -1.916898
v 1.579125 0.032519 0.107676
v -1.588986 0.032519 0.107676
v -1.588986 -0.032519 0.107676
v 0.046289 -0.032519 -1.916898
v -1.490737 -0.032519 0.009427
v 1.480876 -0.032519 0.009427
v 1.579125 -0.032519 0.107676
v 1.516722 -0.032519 -0.066460
vt 0.487173 0.966452
vt 0.865242 0.492626
vt 0.512370 0.966452
vt 0.889409 0.035894
vt 0.110135 0.035894
vt 0.889409 0.035894
vt 0.125484 0.511292
vt 0.487173 0.966452
vt 0.125484 0.511292
vt 0.134301 0.492626
vt 0.110135 0.035894
vt 0.110135 0.468459
vt 0.512370 0.966452
vt 0.865242 0.492626
vt 0.134301 0.492626
vt 0.889409 0.468459
vt 0.889409 0.468459
vt 0.874059 0.511292
vt 0.874059 0.511292
vt 0.110135 0.468459
vn -0.0000 1.0000 0.0000
vn 0.0000 0.0000 1.0000
vn -0.7829 0.0000 -0.6221
vn -1.0000 -0.0000 0.0000
vn 0.0000 0.0000 -1.0000
vn 0.0000 -1.0000 -0.0000
vn 1.0000 0.0000 0.0000
vn 0.9414 0.0000 -0.3374
vn -0.9414 -0.0000 -0.3374
vn 0.7829 0.0000 -0.6221
usemtl Material.001
s 1
f 6/1/1 3/2/1 5/3/1
f 8/4/2 10/5/2 7/6/2
f 1/7/3 12/8/3 11/9/3
f 8/4/1 2/10/1 9/11/1
f 9/11/4 15/12/4 10/5/4
f 6/1/5 16/13/5 12/8/5
f 10/5/6 18/14/6 7/6/6
f 16/13/6 17/15/6 12/8/6
f 13/16/7 7/6/7 19/17/7
f 13/16/1 4/18/1 3/2/1
f 20/19/6 19/17/6 18/14/6
f 1/7/1 14/20/1 2/10/1
f 15/12/6 11/9/6 17/15/6
f 19/17/8 4/18/8 13/16/8
f 11/9/9 14/20/9 1/7/9
f 20/19/10 5/3/10 4/18/10
f 6/1/1 1/7/1 2/10/1
f 2/10/1 3/2/1 6/1/1
f 3/2/1 4/18/1 5/3/1
f 8/4/2 9/11/2 10/5/2
f 1/7/3 6/1/3 12/8/3
f 8/4/1 13/16/1 3/2/1
f 3/2/1 2/10/1 8/4/1
f 2/10/1 14/20/1 9/11/1
f 9/11/4 14/20/4 15/12/4
f 6/1/5 5/3/5 16/13/5
f 10/5/6 15/12/6 17/15/6
f 17/15/6 18/14/6 10/5/6
f 18/14/6 19/17/6 7/6/6
f 16/13/6 20/19/6 18/14/6
f 18/14/6 17/15/6 16/13/6
f 17/15/6 11/9/6 12/8/6
f 13/16/7 8/4/7 7/6/7
f 19/17/8 20/19/8 4/18/8
f 11/9/9 15/12/9 14/20/9
f 20/19/10 16/13/10 5/3/10
