# Blender v2.78 (sub 0) OBJ File: ''
# www.blender.org
mtllib MOEDINEA.mtl
o SketchUp_ID3
v -2.313596 0.000000 -0.526122
v -2.256102 0.000000 0.707134
v -2.366030 0.000000 0.094291
v -2.102375 0.000000 -1.111823
v -1.991305 0.000000 1.270644
v -1.746759 0.000000 -1.622900
v -1.589683 0.000000 1.746419
v -1.270985 0.000000 -2.024522
v -1.078606 0.000000 2.102034
v -0.707476 0.000000 -2.289319
v -0.492905 0.000000 2.313256
v -0.094632 0.000000 -2.399247
v 0.127508 0.000000 2.365689
v 0.525781 0.000000 -2.346813
v 0.740352 0.000000 2.255761
v 1.111482 0.000000 -2.135592
v 1.303861 0.000000 1.990964
v 1.622559 0.000000 -1.779977
v 1.779636 0.000000 1.589342
v 2.024181 0.000000 -1.304202
v 2.135251 0.000000 1.078266
v 2.288978 0.000000 -0.740692
v 2.346472 0.000000 0.492564
v 2.398906 0.000000 -0.127849
v 2.288978 0.000000 -0.740692
v 2.398906 0.160000 -0.127849
v 2.398906 0.000000 -0.127849
v 2.288978 0.160000 -0.740692
v 2.346472 0.160000 0.492564
v 2.346472 0.000000 0.492564
v 2.135251 0.160000 1.078266
v 2.135251 0.000000 1.078266
v 1.779636 0.160000 1.589342
v 1.779636 0.000000 1.589342
v 1.303861 0.000000 1.990964
v 1.303861 0.160000 1.990964
v 0.740352 0.000000 2.255761
v 0.740352 0.160000 2.255761
v 0.127508 0.000000 2.365689
v 0.127508 0.160000 2.365689
v -0.492905 0.000000 2.313256
v -0.492905 0.160000 2.313256
v -1.078606 0.000000 2.102034
v -1.078606 0.160000 2.102034
v -1.589683 0.000000 1.746419
v -1.589683 0.160000 1.746419
v -1.991305 0.160000 1.270644
v -1.991305 0.000000 1.270644
v -2.256102 0.160000 0.707134
v -2.256102 0.000000 0.707134
v -2.366030 0.160000 0.094291
v -2.366030 0.000000 0.094291
v -2.313596 0.160000 -0.526122
v -2.313596 0.000000 -0.526122
v -2.102375 0.160000 -1.111823
v -2.102375 0.000000 -1.111823
v -1.746759 0.160000 -1.622900
v -1.746759 0.000000 -1.622900
v -1.270985 0.000000 -2.024522
v -1.270985 0.160000 -2.024522
v -0.707476 0.000000 -2.289319
v -0.707476 0.160000 -2.289319
v -0.094632 0.000000 -2.399247
v -0.094632 0.160000 -2.399247
v 0.525781 0.000000 -2.346813
v 0.525781 0.160000 -2.346813
v 1.111482 0.000000 -2.135592
v 1.111482 0.160000 -2.135592
v 1.622559 0.000000 -1.779977
v 1.622559 0.160000 -1.779977
v 2.024181 0.160000 -1.304202
v 2.024181 0.000000 -1.304202
v -2.256102 0.160000 0.707134
v -2.313596 0.160000 -0.526122
v -2.366030 0.160000 0.094291
v -2.102375 0.160000 -1.111823
v -1.991305 0.160000 1.270644
v -1.746759 0.160000 -1.622900
v -1.589683 0.160000 1.746419
v -1.270985 0.160000 -2.024522
v -1.078606 0.160000 2.102034
v -0.707476 0.160000 -2.289319
v -0.492905 0.160000 2.313256
v -0.094632 0.160000 -2.399247
v 0.127508 0.160000 2.365689
v 0.525781 0.160000 -2.346813
v 0.740352 0.160000 2.255761
v 1.111482 0.160000 -2.135592
v 1.303861 0.160000 1.990964
v 1.622559 0.160000 -1.779977
v 1.779636 0.160000 1.589342
v 2.024181 0.160000 -1.304202
v 2.135251 0.160000 1.078266
v 2.288978 0.160000 -0.740692
v 2.346472 0.160000 0.492564
v 2.398906 0.160000 -0.127849
vt 0.4426 0.2326
vt 0.4491 0.3713
vt 0.4367 0.3024
vt 0.4664 0.1668
vt 0.4789 0.4346
vt 0.5064 0.1093
vt 0.5240 0.4881
vt 0.5598 0.0642
vt 0.5815 0.5281
vt 0.6232 0.0344
vt 0.6473 0.5518
vt 0.6921 0.0220
vt 0.7171 0.5577
vt 0.7619 0.0279
vt 0.7860 0.5454
vt 0.8277 0.0517
vt 0.8493 0.5156
vt 0.8852 0.0916
vt 0.9028 0.4704
vt 0.9303 0.1451
vt 0.9428 0.4130
vt 0.9601 0.2085
vt 0.9665 0.3471
vt 0.9724 0.2774
vt 0.0532 0.6178
vt 0.0468 0.7565
vt 0.0409 0.6867
vt 0.0705 0.8223
vt 0.0830 0.5545
vt 0.1105 0.8798
vt 0.1282 0.5010
vt 0.1640 0.9249
vt 0.1856 0.4610
vt 0.2273 0.9547
vt 0.2515 0.4373
vt 0.2962 0.9670
vt 0.3212 0.4314
vt 0.3660 0.9611
vt 0.3901 0.4437
vt 0.4318 0.9374
vt 0.4534 0.4735
vt 0.4893 0.8974
vt 0.5069 0.5187
vt 0.5344 0.8439
vt 0.5469 0.5761
vt 0.5642 0.7806
vt 0.5706 0.6419
vt 0.5765 0.7117
vt 0.0614 0.3438
vt 0.1147 0.3438
vt 0.1147 0.3971
vt 0.0614 0.3438
vt 0.1147 0.3438
vt 0.1147 0.3971
vt 0.0614 0.3438
vt 0.1147 0.3438
vt 0.1147 0.3971
vt 0.0614 0.3438
vt 0.1147 0.3438
vt 0.1147 0.3971
vt 0.0614 0.3438
vt 0.1147 0.3438
vt 0.1147 0.3971
vt 0.0614 0.3438
vt 0.1147 0.3438
vt 0.1147 0.3971
vt 0.0614 0.3438
vt 0.1147 0.3438
vt 0.1147 0.3971
vt 0.0614 0.3438
vt 0.1147 0.3438
vt 0.1147 0.3971
vt 0.1147 0.3438
vt 0.0614 0.3438
vt 0.1147 0.3971
vt 0.0614 0.3438
vt 0.1147 0.3438
vt 0.1147 0.3971
vt 0.0614 0.3438
vt 0.1147 0.3438
vt 0.1147 0.3971
vt 0.0614 0.3438
vt 0.1147 0.3438
vt 0.1147 0.3971
vt 0.0614 0.3438
vt 0.1147 0.3438
vt 0.1147 0.3971
vt 0.0614 0.3438
vt 0.1147 0.3438
vt 0.1147 0.3971
vt 0.0614 0.3438
vt 0.1147 0.3438
vt 0.1147 0.3971
vt 0.0614 0.3438
vt 0.1147 0.3438
vt 0.1147 0.3971
vt 0.0614 0.3438
vt 0.1147 0.3438
vt 0.1147 0.3971
vt 0.0614 0.3438
vt 0.1147 0.3438
vt 0.1147 0.3971
vt 0.0614 0.3438
vt 0.1147 0.3438
vt 0.1147 0.3971
vt 0.0614 0.3438
vt 0.1147 0.3438
vt 0.1147 0.3971
vt 0.0614 0.3438
vt 0.1147 0.3438
vt 0.1147 0.3971
vt 0.0614 0.3438
vt 0.1147 0.3438
vt 0.1147 0.3971
vt 0.0614 0.3438
vt 0.1147 0.3438
vt 0.1147 0.3971
vt 0.0614 0.3438
vt 0.1147 0.3438
vt 0.1147 0.3971
vt 0.0614 0.3438
vt 0.1147 0.3438
vt 0.1147 0.3971
vt 0.0614 0.3438
vt 0.1147 0.3438
vt 0.1147 0.3971
vt 0.0614 0.3438
vt 0.1147 0.3438
vt 0.1147 0.3971
vt 0.0614 0.3438
vt 0.1147 0.3438
vt 0.1147 0.3971
vt 0.0614 0.3438
vt 0.1147 0.3438
vt 0.1147 0.3971
vt 0.0614 0.3438
vt 0.1147 0.3438
vt 0.1147 0.3971
vt 0.1147 0.3438
vt 0.0614 0.3438
vt 0.1147 0.3971
vt 0.0614 0.3438
vt 0.1147 0.3438
vt 0.1147 0.3971
vt 0.0614 0.3438
vt 0.1147 0.3438
vt 0.1147 0.3971
vt 0.0614 0.3438
vt 0.1147 0.3438
vt 0.1147 0.3971
vt 0.0614 0.3438
vt 0.1147 0.3438
vt 0.1147 0.3971
vt 0.0614 0.3438
vt 0.1147 0.3438
vt 0.1147 0.3971
vt 0.0614 0.3438
vt 0.1147 0.3438
vt 0.1147 0.3971
vt 0.0614 0.3438
vt 0.1147 0.3438
vt 0.1147 0.3971
vt 0.0614 0.3438
vt 0.1147 0.3438
vt 0.1147 0.3971
vt 0.0614 0.3438
vt 0.1147 0.3438
vt 0.1147 0.3971
vt 0.0614 0.3438
vt 0.1147 0.3438
vt 0.1147 0.3971
vt 0.1147 0.3438
vt 0.1147 0.3971
vt 0.0614 0.3438
vt 0.0614 0.3438
vt 0.1147 0.3438
vt 0.1147 0.3971
vt 0.0614 0.3438
vt 0.1147 0.3438
vt 0.1147 0.3971
vn 0.0000 -1.0000 0.0000
vn 0.0000 1.0000 0.0000
vn 0.9528 0.0000 -0.3035
vn 0.9989 0.0000 -0.0465
vn 0.9769 0.0000 0.2135
vn 0.8884 0.0000 0.4591
vn 0.7392 0.0000 0.6734
vn 0.5398 0.0000 0.8418
vn 0.3035 0.0000 0.9528
vn 0.0465 0.0000 0.9989
vn -0.2135 0.0000 0.9769
vn -0.4591 0.0000 0.8884
vn -0.6734 0.0000 0.7392
vn -0.8418 0.0000 0.5398
vn -0.9528 0.0000 0.3035
vn -0.9989 0.0000 0.0465
vn -0.9769 0.0000 -0.2135
vn -0.8884 0.0000 -0.4591
vn -0.7392 0.0000 -0.6734
vn -0.5398 0.0000 -0.8418
vn -0.3035 0.0000 -0.9528
vn -0.0465 0.0000 -0.9989
vn 0.2135 0.0000 -0.9769
vn 0.4591 0.0000 -0.8884
vn 0.6734 0.0000 -0.7392
vn 0.8418 0.0000 -0.5398
usemtl material
s off
f 1/1/1 2/2/1 3/3/1
f 2/2/1 1/1/1 4/4/1
f 2/2/1 4/4/1 5/5/1
f 5/5/1 4/4/1 6/6/1
f 5/5/1 6/6/1 7/7/1
f 7/7/1 6/6/1 8/8/1
f 7/7/1 8/8/1 9/9/1
f 9/9/1 8/8/1 10/10/1
f 9/9/1 10/10/1 11/11/1
f 11/11/1 10/10/1 12/12/1
f 11/11/1 12/12/1 13/13/1
f 13/13/1 12/12/1 14/14/1
f 13/13/1 14/14/1 15/15/1
f 15/15/1 14/14/1 16/16/1
f 15/15/1 16/16/1 17/17/1
f 17/17/1 16/16/1 18/18/1
f 17/17/1 18/18/1 19/19/1
f 19/19/1 18/18/1 20/20/1
f 19/19/1 20/20/1 21/21/1
f 21/21/1 20/20/1 22/22/1
f 21/21/1 22/22/1 23/23/1
f 23/23/1 22/22/1 24/24/1
f 73/25/2 74/26/2 75/27/2
f 74/26/2 73/25/2 76/28/2
f 76/28/2 73/25/2 77/29/2
f 76/28/2 77/29/2 78/30/2
f 78/30/2 77/29/2 79/31/2
f 78/30/2 79/31/2 80/32/2
f 80/32/2 79/31/2 81/33/2
f 80/32/2 81/33/2 82/34/2
f 82/34/2 81/33/2 83/35/2
f 82/34/2 83/35/2 84/36/2
f 84/36/2 83/35/2 85/37/2
f 84/36/2 85/37/2 86/38/2
f 86/38/2 85/37/2 87/39/2
f 86/38/2 87/39/2 88/40/2
f 88/40/2 87/39/2 89/41/2
f 88/40/2 89/41/2 90/42/2
f 90/42/2 89/41/2 91/43/2
f 90/42/2 91/43/2 92/44/2
f 92/44/2 91/43/2 93/45/2
f 92/44/2 93/45/2 94/46/2
f 94/46/2 93/45/2 95/47/2
f 94/46/2 95/47/2 96/48/2
s 1
f 25/49/3 26/50/4 27/51/4
f 26/52/4 25/53/3 28/54/3
f 27/55/4 29/56/5 30/57/5
f 29/58/5 27/59/4 26/60/4
f 30/61/5 31/62/6 32/63/6
f 31/64/6 30/65/5 29/66/5
f 32/67/6 33/68/7 34/69/7
f 33/70/7 32/71/6 31/72/6
f 33/70/7 35/73/8 34/69/7
f 35/74/8 33/68/7 36/75/8
f 36/76/8 37/77/9 35/78/8
f 37/79/9 36/80/8 38/81/9
f 38/82/9 39/83/10 37/84/9
f 39/85/10 38/86/9 40/87/10
f 40/88/10 41/89/11 39/90/10
f 41/91/11 40/92/10 42/93/11
f 42/94/11 43/95/12 41/96/11
f 43/97/12 42/98/11 44/99/12
f 44/100/12 45/101/13 43/102/12
f 45/103/13 44/104/12 46/105/13
f 47/106/14 45/101/13 46/105/13
f 45/103/13 47/107/14 48/108/14
f 49/109/15 48/110/14 47/111/14
f 48/112/14 49/113/15 50/114/15
f 51/115/16 50/116/15 49/117/15
f 50/118/15 51/119/16 52/120/16
f 53/121/17 52/122/16 51/123/16
f 52/124/16 53/125/17 54/126/17
f 55/127/18 54/128/17 53/129/17
f 54/130/17 55/131/18 56/132/18
f 57/133/19 56/134/18 55/135/18
f 56/136/18 57/137/19 58/138/19
f 57/133/19 59/139/20 58/138/19
f 59/140/20 57/137/19 60/141/20
f 60/142/20 61/143/21 59/144/20
f 61/145/21 60/146/20 62/147/21
f 62/148/21 63/149/22 61/150/21
f 63/151/22 62/152/21 64/153/22
f 64/154/22 65/155/23 63/156/22
f 65/157/23 64/158/22 66/159/23
f 66/160/23 67/161/24 65/162/23
f 67/163/24 66/164/23 68/165/24
f 68/166/24 69/167/25 67/168/24
f 69/169/25 68/170/24 70/171/25
f 69/169/25 71/172/26 72/173/26
f 71/174/26 69/167/25 70/171/25
f 72/175/26 28/176/3 25/177/3
f 28/178/3 72/179/26 71/180/26
