# Blender v2.78 (sub 0) OBJ File: ''
# www.blender.org
mtllib HDRIVE.mtl
o SketchUp_ID3
v -2.179767 -0.085325 -0.881950
v -2.482985 -0.085325 1.105008
v -2.486545 -0.085325 -0.875339
v -2.190462 -0.085325 1.122489
v -1.900322 -0.085325 1.163638
v -1.875063 -0.085325 -0.918179
v -1.614474 -0.085325 1.228184
v -1.575287 -0.085325 -0.983688
v -1.334803 -0.085325 1.315700
v -1.283247 -0.085325 -1.077864
v -1.063153 -0.085325 1.425612
v -1.001675 -0.085325 -1.199824
v -0.801311 -0.085325 1.557194
v -0.733209 -0.085325 -1.348427
v -0.551004 -0.085325 1.709579
v -0.480362 -0.085325 -1.522282
v -0.313881 -0.085325 1.881764
v -0.245502 -0.085325 -1.719760
v -0.091504 -0.085325 2.072614
v -0.030828 -0.085325 -1.939013
v 0.114660 -0.085325 2.280871
v 0.161651 -0.085325 -2.177987
v 0.303255 -0.085325 2.505163
v 0.330131 -0.085325 -2.434446
v 0.473037 -0.085325 2.744013
v 0.473037 -0.085325 -2.705986
v 2.030568 -0.085325 -1.139439
v 2.152603 -0.085325 -1.409907
v 2.299534 -0.085325 -1.667700
v 1.934512 -0.085325 -0.858692
v 1.865286 -0.085325 -0.570155
v 1.823503 -0.085325 -0.276387
v 1.809534 -0.085325 0.020009
v 2.152603 -0.085325 1.449925
v 2.299534 -0.085325 1.707717
v 2.030568 -0.085325 1.179457
v 1.934512 -0.085325 0.898710
v 1.865286 -0.085325 0.610173
v 1.823503 -0.085325 0.316405
v 2.299534 0.104675 1.707717
v 0.473037 -0.085325 2.744013
v 2.299534 -0.085325 1.707717
v 0.473037 0.104675 2.744013
v 0.303255 0.104675 2.505163
v 0.473037 -0.085325 2.744013
v 0.473037 0.104675 2.744013
v 0.303255 -0.085325 2.505163
v 0.114660 0.104675 2.280871
v 0.114660 -0.085325 2.280871
v -0.091504 0.104675 2.072614
v -0.091504 -0.085325 2.072614
v -0.313881 0.104675 1.881764
v -0.313881 -0.085325 1.881764
v -0.551004 0.104675 1.709579
v -0.551004 -0.085325 1.709579
v -0.801311 0.104675 1.557194
v -0.801311 -0.085325 1.557194
v -1.063153 0.104675 1.425612
v -1.063153 -0.085325 1.425612
v -1.334803 0.104675 1.315700
v -1.334803 -0.085325 1.315700
v -1.614474 0.104675 1.228184
v -1.614474 -0.085325 1.228184
v -1.900322 0.104675 1.163638
v -1.900322 -0.085325 1.163638
v -2.190462 0.104675 1.122489
v -2.190462 -0.085325 1.122489
v -2.482985 0.104675 1.105008
v -2.482985 -0.085325 1.105008
v -2.486545 0.104675 -0.875339
v -2.482985 -0.085325 1.105008
v -2.482985 0.104675 1.105008
v -2.486545 -0.085325 -0.875339
v -2.486545 0.104675 -0.875339
v -2.179767 -0.085325 -0.881950
v -2.486545 -0.085325 -0.875339
v -2.179767 0.104675 -0.881950
v -1.875063 -0.085325 -0.918179
v -1.875063 0.104675 -0.918179
v -1.575287 -0.085325 -0.983688
v -1.575287 0.104675 -0.983688
v -1.283247 -0.085325 -1.077864
v -1.283247 0.104675 -1.077864
v -1.001675 -0.085325 -1.199824
v -1.001675 0.104675 -1.199824
v -0.733209 -0.085325 -1.348427
v -0.733209 0.104675 -1.348427
v -0.480362 -0.085325 -1.522282
v -0.480362 0.104675 -1.522282
v -0.245502 -0.085325 -1.719760
v -0.245502 0.104675 -1.719760
v -0.030828 0.104675 -1.939013
v -0.030828 -0.085325 -1.939013
v 0.161651 0.104675 -2.177987
v 0.161651 -0.085325 -2.177987
v 0.330131 0.104675 -2.434446
v 0.330131 -0.085325 -2.434446
v 0.473037 0.104675 -2.705986
v 0.473037 -0.085325 -2.705986
v 0.473037 0.104675 -2.705986
v 2.299534 -0.085325 -1.667700
v 0.473037 -0.085325 -2.705986
v 2.299534 0.104675 -1.667700
v 2.299534 -0.085325 -1.667700
v 2.152603 0.104675 -1.409907
v 2.152603 -0.085325 -1.409907
v 2.299534 0.104675 -1.667700
v 2.030568 0.104675 -1.139439
v 2.030568 -0.085325 -1.139439
v 1.934512 0.104675 -0.858692
v 1.934512 -0.085325 -0.858692
v 1.865286 0.104675 -0.570155
v 1.865286 -0.085325 -0.570155
v 1.823503 0.104675 -0.276387
v 1.823503 -0.085325 -0.276387
v 1.809534 -0.085325 0.020009
v 1.809534 0.104675 0.020009
v 1.823503 0.104675 0.316405
v 1.823503 -0.085325 0.316405
v 1.865286 0.104675 0.610173
v 1.865286 -0.085325 0.610173
v 1.934512 0.104675 0.898710
v 1.934512 -0.085325 0.898710
v 2.030568 0.104675 1.179457
v 2.030568 -0.085325 1.179457
v 2.152603 0.104675 1.449925
v 2.152603 -0.085325 1.449925
v 2.299534 0.104675 1.707717
v 2.299534 -0.085325 1.707717
v -2.482985 0.104675 1.105008
v -2.179767 0.104675 -0.881950
v -2.486545 0.104675 -0.875339
v -2.190462 0.104675 1.122489
v -1.900322 0.104675 1.163638
v -1.875063 0.104675 -0.918179
v -1.614474 0.104675 1.228184
v -1.575287 0.104675 -0.983688
v -1.334803 0.104675 1.315700
v -1.283247 0.104675 -1.077864
v -1.063153 0.104675 1.425612
v -1.001675 0.104675 -1.199824
v -0.801311 0.104675 1.557194
v -0.733209 0.104675 -1.348427
v -0.551004 0.104675 1.709579
v -0.480362 0.104675 -1.522282
v -0.313881 0.104675 1.881764
v -0.245502 0.104675 -1.719760
v -0.091504 0.104675 2.072614
v -0.030828 0.104675 -1.939013
v 0.114660 0.104675 2.280871
v 0.161651 0.104675 -2.177987
v 0.303255 0.104675 2.505163
v 0.330131 0.104675 -2.434446
v 0.473037 0.104675 2.744013
v 0.473037 0.104675 -2.705986
v 2.030568 0.104675 1.179457
v 2.152603 0.104675 1.449925
v 2.299534 0.104675 1.707717
v 1.934512 0.104675 0.898710
v 1.865286 0.104675 0.610173
v 1.823503 0.104675 0.316405
v 1.809534 0.104675 0.020009
v 2.152603 0.104675 -1.409907
v 2.299534 0.104675 -1.667700
v 2.030568 0.104675 -1.139439
v 1.934512 0.104675 -0.858692
v 1.865286 0.104675 -0.570155
v 1.823503 0.104675 -0.276387
vt 0.5356 0.1302
vt 0.4418 0.3052
vt 0.5069 0.1207
vt 0.4684 0.3165
vt 0.4941 0.3299
vt 0.5652 0.1369
vt 0.5186 0.3453
vt 0.5953 0.1407
vt 0.5417 0.3627
vt 0.6256 0.1416
vt 0.5634 0.3819
vt 0.6558 0.1395
vt 0.5834 0.4028
vt 0.6857 0.1346
vt 0.6017 0.4253
vt 0.7150 0.1267
vt 0.6181 0.4491
vt 0.7434 0.1161
vt 0.6325 0.4742
vt 0.7706 0.1028
vt 0.6448 0.5004
vt 0.7964 0.0869
vt 0.6549 0.5275
vt 0.8206 0.0686
vt 0.6628 0.5554
vt 0.8428 0.0480
vt 0.9361 0.2453
vt 0.9564 0.2242
vt 0.9786 0.2050
vt -0.0545 0.0035
vt -0.0545 0.0035
vt -0.0545 0.0035
vt 0.9179 0.2683
vt 0.9019 0.2928
vt 0.8883 0.3188
vt 0.8772 0.3459
vt 0.8619 0.4904
vt 0.8671 0.5192
vt 0.8595 0.4612
vt 0.8598 0.4319
vt 0.8629 0.4027
vt 0.8687 0.3740
vt 0.0354 0.0283
vt 0.0354 0.0283
vt 0.0354 0.0283
vt 0.0354 0.0283
vt 0.0354 0.0283
vt 0.0354 0.0283
vt 0.0354 0.0283
vt 0.0354 0.0283
vt 0.0354 0.0283
vt 0.0354 0.0283
vt 0.0354 0.0283
vt 0.0354 0.0283
vt 0.1551 0.4399
vt 0.0790 0.6380
vt 0.0512 0.6213
vt 0.1828 0.4536
vt 0.2116 0.4650
vt 0.1050 0.6572
vt 0.2412 0.4741
vt 0.1291 0.6789
vt 0.2714 0.4807
vt 0.1509 0.7028
vt 0.3021 0.4848
vt 0.1703 0.7287
vt 0.3330 0.4865
vt 0.1872 0.7564
vt 0.3639 0.4856
vt 0.2013 0.7856
vt 0.3946 0.4822
vt 0.2125 0.8160
vt 0.4250 0.4763
vt 0.2207 0.8473
vt 0.4548 0.4680
vt 0.2258 0.8793
vt 0.4838 0.4573
vt 0.2278 0.9116
vt 0.5119 0.4443
vt 0.2267 0.9440
vt 0.5728 0.6693
vt 0.5982 0.6508
vt 0.6251 0.6349
vt 0.5493 0.6900
vt 0.5279 0.7128
vt 0.5087 0.7375
vt 0.4919 0.7640
vt 0.4485 0.9130
vt 0.4485 0.9444
vt 0.4515 0.8819
vt 0.4574 0.8511
vt 0.4661 0.8210
vt 0.4777 0.7919
vt 0.0354 0.0283
vt 0.0354 0.0283
vt 0.0354 0.0283
vt 0.0354 0.0283
vt 0.0354 0.0283
vt 0.0354 0.0283
vt 0.0354 0.0283
vt 0.0354 0.0283
vt 0.0354 0.0283
vt 0.0354 0.0283
vt 0.0354 0.0283
vt 0.0354 0.0283
vt 0.0354 0.0283
vt 0.0354 0.0283
vt 0.0354 0.0283
vt 0.0354 0.0283
vt 0.0354 0.0283
vt 0.0354 0.0283
vt 0.0354 0.0283
vt 0.0354 0.0283
vt 0.0354 0.0283
vt 0.0354 0.0283
vt 0.0354 0.0283
vt 0.0354 0.0283
vt 0.0354 0.0283
vt 0.0354 0.0283
vt 0.0354 0.0283
vt 0.0354 0.0283
vt 0.0354 0.0283
vt 0.0354 0.0283
vt 0.0354 0.0283
vt 0.0354 0.0283
vt 0.0354 0.0283
vt 0.0354 0.0283
vt 0.0354 0.0283
vt 0.0354 0.0283
vt 0.0354 0.0283
vt 0.0354 0.0283
vt 0.0354 0.0283
vt 0.0354 0.0283
vt 0.0354 0.0283
vt 0.0354 0.0283
vt 0.0354 0.0283
vt 0.0354 0.0283
vt 0.0354 0.0283
vt 0.0354 0.0283
vt 0.0354 0.0283
vt 0.0354 0.0283
vt 0.0354 0.0283
vt 0.0354 0.0283
vt 0.0354 0.0283
vt 0.0354 0.0283
vt 0.0354 0.0283
vt 0.0354 0.0283
vt 0.0354 0.0283
vt 0.0354 0.0283
vt 0.0354 0.0283
vt 0.0354 0.0283
vt 0.0354 0.0283
vt 0.0354 0.0283
vt 0.0354 0.0283
vt 0.0354 0.0283
vt 0.0354 0.0283
vt 0.0354 0.0283
vt 0.0354 0.0283
vt 0.0354 0.0283
vt 0.0354 0.0283
vt 0.0354 0.0283
vt 0.0354 0.0283
vt 0.0354 0.0283
vt 0.0354 0.0283
vt 0.0354 0.0283
vt 0.0354 0.0283
vt 0.0354 0.0283
vt 0.0354 0.0283
vt 0.0354 0.0283
vt 0.0354 0.0283
vt 0.0354 0.0283
vn 0.0000 -1.0000 0.0000
vn 0.4935 0.0000 0.8698
vn -1.0000 0.0000 0.0018
vn 0.4942 0.0000 -0.8694
vn 0.0000 1.0000 0.0000
vn -0.7909 0.0000 0.6120
vn -0.8151 0.0000 0.5794
vn -0.7386 0.0000 0.6741
vn -0.6815 0.0000 0.7318
vn -0.6199 0.0000 0.7846
vn -0.5542 0.0000 0.8323
vn -0.4849 0.0000 0.8745
vn -0.4124 0.0000 0.9110
vn -0.3371 0.0000 0.9414
vn -0.2597 0.0000 0.9657
vn -0.1805 0.0000 0.9836
vn -0.1001 0.0000 0.9950
vn -0.0596 0.0000 0.9982
vn -0.0215 0.0000 -0.9998
vn -0.0699 0.0000 -0.9975
vn -0.1660 0.0000 -0.9861
vn -0.2605 0.0000 -0.9655
vn -0.3526 0.0000 -0.9358
vn -0.4414 0.0000 -0.8973
vn -0.5260 0.0000 -0.8504
vn -0.6058 0.0000 -0.7956
vn -0.6798 0.0000 -0.7333
vn -0.7475 0.0000 -0.6642
vn -0.8082 0.0000 -0.5889
vn -0.8614 0.0000 -0.5080
vn -0.8849 0.0000 -0.4657
vn 0.8688 0.0000 0.4952
vn 0.8911 0.0000 0.4537
vn 0.9298 0.0000 0.3679
vn 0.9603 0.0000 0.2788
vn 0.9823 0.0000 0.1873
vn 0.9955 0.0000 0.0940
vn 1.0000 0.0000 0.0000
vn 0.9955 0.0000 -0.0940
vn 0.9823 0.0000 -0.1873
vn 0.9603 0.0000 -0.2788
vn 0.9298 0.0000 -0.3679
vn 0.8911 0.0000 -0.4537
vn 0.8688 0.0000 -0.4952
usemtl material
s off
f 1/1/1 2/2/1 3/3/1
f 2/2/1 1/1/1 4/4/1
f 4/4/1 1/1/1 5/5/1
f 5/5/1 1/1/1 6/6/1
f 5/5/1 6/6/1 7/7/1
f 7/7/1 6/6/1 8/8/1
f 7/7/1 8/8/1 9/9/1
f 9/9/1 8/8/1 10/10/1
f 9/9/1 10/10/1 11/11/1
f 11/11/1 10/10/1 12/12/1
f 11/11/1 12/12/1 13/13/1
f 13/13/1 12/12/1 14/14/1
f 13/13/1 14/14/1 15/15/1
f 15/15/1 14/14/1 16/16/1
f 15/15/1 16/16/1 17/17/1
f 17/17/1 16/16/1 18/18/1
f 17/17/1 18/18/1 19/19/1
f 19/19/1 18/18/1 20/20/1
f 19/19/1 20/20/1 21/21/1
f 21/21/1 20/20/1 22/22/1
f 21/21/1 22/22/1 23/23/1
f 23/23/1 22/22/1 24/24/1
f 23/23/1 24/24/1 25/25/1
f 25/25/1 24/24/1 26/26/1
f 25/25/1 26/26/1 27/27/1
f 27/27/1 26/26/1 28/28/1
f 28/28/1 26/26/1 29/29/1
f 25/30/1 27/31/1 30/32/1
f 25/25/1 30/33/1 31/34/1
f 25/25/1 31/34/1 32/35/1
f 25/25/1 32/35/1 33/36/1
f 25/25/1 34/37/1 35/38/1
f 34/37/1 25/25/1 36/39/1
f 36/39/1 25/25/1 37/40/1
f 37/40/1 25/25/1 38/41/1
f 38/41/1 25/25/1 39/42/1
f 39/42/1 25/25/1 33/36/1
f 40/43/2 41/44/2 42/45/2
f 41/44/2 40/43/2 43/46/2
f 70/47/3 71/48/3 72/49/3
f 71/48/3 70/47/3 73/50/3
f 100/51/4 101/52/4 102/53/4
f 101/52/4 100/51/4 103/54/4
f 130/55/5 131/56/5 132/57/5
f 131/56/5 130/55/5 133/58/5
f 131/56/5 133/58/5 134/59/5
f 131/56/5 134/59/5 135/60/5
f 135/60/5 134/59/5 136/61/5
f 135/60/5 136/61/5 137/62/5
f 137/62/5 136/61/5 138/63/5
f 137/62/5 138/63/5 139/64/5
f 139/64/5 138/63/5 140/65/5
f 139/64/5 140/65/5 141/66/5
f 141/66/5 140/65/5 142/67/5
f 141/66/5 142/67/5 143/68/5
f 143/68/5 142/67/5 144/69/5
f 143/68/5 144/69/5 145/70/5
f 145/70/5 144/69/5 146/71/5
f 145/70/5 146/71/5 147/72/5
f 147/72/5 146/71/5 148/73/5
f 147/72/5 148/73/5 149/74/5
f 149/74/5 148/73/5 150/75/5
f 149/74/5 150/75/5 151/76/5
f 151/76/5 150/75/5 152/77/5
f 151/76/5 152/77/5 153/78/5
f 153/78/5 152/77/5 154/79/5
f 153/78/5 154/79/5 155/80/5
f 155/80/5 154/79/5 156/81/5
f 156/81/5 154/79/5 157/82/5
f 157/82/5 154/79/5 158/83/5
f 155/80/5 156/81/5 159/84/5
f 155/80/5 159/84/5 160/85/5
f 155/80/5 160/85/5 161/86/5
f 155/80/5 161/86/5 162/87/5
f 155/80/5 163/88/5 164/89/5
f 163/88/5 155/80/5 165/90/5
f 165/90/5 155/80/5 166/91/5
f 166/91/5 155/80/5 167/92/5
f 167/92/5 155/80/5 168/93/5
f 168/93/5 155/80/5 162/87/5
s 1
f 44/94/6 45/95/7 46/96/7
f 45/95/7 44/94/6 47/97/6
f 48/98/8 47/97/6 44/94/6
f 47/97/6 48/98/8 49/99/8
f 50/100/9 49/99/8 48/98/8
f 49/99/8 50/100/9 51/101/9
f 51/101/9 52/102/10 53/103/10
f 52/102/10 51/101/9 50/100/9
f 53/103/10 54/104/11 55/105/11
f 54/104/11 53/103/10 52/102/10
f 55/105/11 56/106/12 57/107/12
f 56/106/12 55/105/11 54/104/11
f 57/107/12 58/108/13 59/109/13
f 58/108/13 57/107/12 56/106/12
f 59/109/13 60/110/14 61/111/14
f 60/110/14 59/109/13 58/108/13
f 61/111/14 62/112/15 63/113/15
f 62/112/15 61/111/14 60/110/14
f 63/113/15 64/114/16 65/115/16
f 64/114/16 63/113/15 62/112/15
f 65/115/16 66/116/17 67/117/17
f 66/116/17 65/115/16 64/114/16
f 67/117/17 68/118/18 69/119/18
f 68/118/18 67/117/17 66/116/17
f 74/120/19 75/121/20 76/122/19
f 75/121/20 74/120/19 77/123/20
f 77/123/20 78/124/21 75/121/20
f 78/124/21 77/123/20 79/125/21
f 79/125/21 80/126/22 78/124/21
f 80/126/22 79/125/21 81/127/22
f 81/127/22 82/128/23 80/126/22
f 82/128/23 81/127/22 83/129/23
f 83/129/23 84/130/24 82/128/23
f 84/130/24 83/129/23 85/131/24
f 85/131/24 86/132/25 84/130/24
f 86/132/25 85/131/24 87/133/25
f 87/133/25 88/134/26 86/132/25
f 88/134/26 87/133/25 89/135/26
f 89/135/26 90/136/27 88/134/26
f 90/136/27 89/135/26 91/137/27
f 92/138/28 90/136/27 91/137/27
f 90/136/27 92/138/28 93/139/28
f 94/140/29 93/139/28 92/138/28
f 93/139/28 94/140/29 95/141/29
f 96/142/30 95/141/29 94/140/29
f 95/141/29 96/142/30 97/143/30
f 98/144/31 97/143/30 96/142/30
f 97/143/30 98/144/31 99/145/31
f 104/146/32 105/147/33 106/148/33
f 105/147/33 104/146/32 107/149/32
f 106/148/33 108/150/34 109/151/34
f 108/150/34 106/148/33 105/147/33
f 109/151/34 110/152/35 111/153/35
f 110/152/35 109/151/34 108/150/34
f 111/153/35 112/154/36 113/155/36
f 112/154/36 111/153/35 110/152/35
f 113/155/36 114/156/37 115/157/37
f 114/156/37 113/155/36 112/154/36
f 116/158/38 114/156/37 117/159/38
f 114/156/37 116/158/38 115/157/37
f 116/158/38 118/160/39 119/161/39
f 118/160/39 116/158/38 117/159/38
f 119/161/39 120/162/40 121/163/40
f 120/162/40 119/161/39 118/160/39
f 121/163/40 122/164/41 123/165/41
f 122/164/41 121/163/40 120/162/40
f 123/165/41 124/166/42 125/167/42
f 124/166/42 123/165/41 122/164/41
f 125/167/42 126/168/43 127/169/43
f 126/168/43 125/167/42 124/166/42
f 127/169/43 128/170/44 129/171/44
f 128/170/44 127/169/43 126/168/43
