# Blender v2.78 (sub 0) OBJ File: ''
# www.blender.org
mtllib NEWAGETOKEN2.mtl
o SketchUp_ID3
v -0.922042 -0.100585 -0.159281
v -0.880458 -0.100585 0.321022
v -0.932867 -0.100585 0.083607
v -0.856525 -0.100585 -0.366422
v -0.861725 -0.100585 0.357089
v -0.789185 -0.100585 -0.874889
v -0.866868 -0.100585 -0.794540
v -0.794447 -0.100585 0.868140
v -0.408245 -0.100585 0.841331
v -0.375499 -0.100585 -0.844787
v -0.399359 -0.100585 0.847004
v -0.167548 -0.100585 0.920324
v -0.322741 -0.100585 -0.872191
v -0.085326 -0.100585 -0.924600
v 0.075341 -0.100585 0.931149
v 0.157562 -0.100585 -0.913775
v 0.312755 -0.100585 0.878740
v 0.389373 -0.100585 -0.840455
v 0.392871 -0.100585 0.837127
v 0.804251 -0.100585 -0.869253
v 0.798341 -0.100585 0.865272
v 0.876024 -0.100585 0.784923
v 0.864686 -0.100585 0.315600
v -0.872130 -0.100585 0.787791
v 0.870474 -0.100585 -0.314473
v 0.881934 -0.100585 -0.788904
v 0.912057 -0.100585 0.165829
v 0.922882 -0.100585 -0.077059
v -0.789185 0.100585 -0.874889
v -0.866868 -0.100585 -0.794540
v -0.866868 0.100585 -0.794540
v -0.789185 -0.100585 -0.874889
v -0.789185 0.100585 -0.874889
v -0.375499 -0.100585 -0.844787
v -0.789185 -0.100585 -0.874889
v -0.375499 0.100585 -0.844787
v -0.375499 0.100585 -0.844787
v -0.322741 -0.100585 -0.872191
v -0.375499 -0.100585 -0.844787
v -0.322741 0.100585 -0.872191
v -0.085326 -0.100585 -0.924600
v -0.085326 0.100585 -0.924600
v 0.157562 -0.100585 -0.913775
v 0.157562 0.100585 -0.913775
v 0.389373 -0.100585 -0.840455
v 0.389373 0.100585 -0.840455
v 0.389373 0.100585 -0.840455
v 0.804251 -0.100585 -0.869253
v 0.389373 -0.100585 -0.840455
v 0.804251 0.100585 -0.869253
v 0.804251 -0.100585 -0.869253
v 0.881934 0.100585 -0.788904
v 0.881934 -0.100585 -0.788904
v 0.804251 0.100585 -0.869253
v 0.881934 -0.100585 -0.788904
v 0.870474 0.100585 -0.314473
v 0.870474 -0.100585 -0.314473
v 0.881934 0.100585 -0.788904
v 0.870474 -0.100585 -0.314473
v 0.922882 0.100585 -0.077059
v 0.922882 -0.100585 -0.077059
v 0.870474 0.100585 -0.314473
v 0.912057 0.100585 0.165829
v 0.912057 -0.100585 0.165829
v 0.864686 0.100585 0.315600
v 0.864686 -0.100585 0.315600
v 0.864686 -0.100585 0.315600
v 0.876024 0.100585 0.784923
v 0.876024 -0.100585 0.784923
v 0.864686 0.100585 0.315600
v 0.876024 -0.100585 0.784923
v 0.798341 0.100585 0.865272
v 0.798341 -0.100585 0.865272
v 0.876024 0.100585 0.784923
v 0.798341 0.100585 0.865272
v 0.392871 -0.100585 0.837127
v 0.798341 -0.100585 0.865272
v 0.392871 0.100585 0.837127
v 0.392871 0.100585 0.837127
v 0.312755 -0.100585 0.878740
v 0.392871 -0.100585 0.837127
v 0.312755 0.100585 0.878740
v 0.075341 -0.100585 0.931149
v 0.075341 0.100585 0.931149
v -0.167548 -0.100585 0.920324
v -0.167548 0.100585 0.920324
v -0.399359 -0.100585 0.847004
v -0.399359 0.100585 0.847004
v -0.408245 0.100585 0.841331
v -0.408245 -0.100585 0.841331
v -0.408245 -0.100585 0.841331
v -0.794447 0.100585 0.868140
v -0.794447 -0.100585 0.868140
v -0.408245 0.100585 0.841331
v -0.872130 0.100585 0.787791
v -0.794447 -0.100585 0.868140
v -0.794447 0.100585 0.868140
v -0.872130 -0.100585 0.787791
v -0.861725 0.100585 0.357089
v -0.872130 -0.100585 0.787791
v -0.872130 0.100585 0.787791
v -0.861725 -0.100585 0.357089
v -0.880458 0.100585 0.321022
v -0.861725 -0.100585 0.357089
v -0.861725 0.100585 0.357089
v -0.880458 -0.100585 0.321022
v -0.932867 0.100585 0.083607
v -0.932867 -0.100585 0.083607
v -0.922042 0.100585 -0.159281
v -0.922042 -0.100585 -0.159281
v -0.856525 0.100585 -0.366422
v -0.856525 -0.100585 -0.366422
v -0.866868 0.100585 -0.794540
v -0.856525 -0.100585 -0.366422
v -0.856525 0.100585 -0.366422
v -0.866868 -0.100585 -0.794540
v -0.794447 0.100585 0.868140
v -0.861725 0.100585 0.357089
v -0.872130 0.100585 0.787791
v -0.856525 0.100585 -0.366422
v -0.880458 0.100585 0.321022
v -0.922042 0.100585 -0.159281
v -0.932867 0.100585 0.083607
v -0.789185 0.100585 -0.874889
v -0.866868 0.100585 -0.794540
v -0.408245 0.100585 0.841331
v -0.375499 0.100585 -0.844787
v -0.399359 0.100585 0.847004
v -0.167548 0.100585 0.920324
v -0.322741 0.100585 -0.872191
v -0.085326 0.100585 -0.924600
v 0.075341 0.100585 0.931149
v 0.157562 0.100585 -0.913775
v 0.312755 0.100585 0.878740
v 0.389373 0.100585 -0.840455
v 0.392871 0.100585 0.837127
v 0.804251 0.100585 -0.869253
v 0.798341 0.100585 0.865272
v 0.876024 0.100585 0.784923
v 0.864686 0.100585 0.315600
v 0.912057 0.100585 0.165829
v 0.870474 0.100585 -0.314473
v 0.922882 0.100585 -0.077059
v 0.881934 0.100585 -0.788904
vt 0.9628 0.2914
vt 0.9530 0.1800
vt 0.9652 0.2351
vt 0.9478 0.3395
vt 0.9486 0.1716
vt 0.9324 0.4572
vt 0.9504 0.4386
vt 0.9327 0.0529
vt 0.8430 0.0594
vt 0.8366 0.4506
vt 0.8831 0.9583
vt 0.8918 0.5558
vt 0.8852 0.9597
vt 0.8409 0.0581
vt 0.7870 0.0413
vt 0.8243 0.4570
vt 0.7694 0.4693
vt 0.7306 0.0390
vt 0.7131 0.4671
vt 0.6754 0.0514
vt 0.6594 0.4503
vt 0.6569 0.0611
vt 0.5633 0.4573
vt 0.5626 0.0549
vt 0.5447 0.0737
vt 0.8681 0.9409
vt 0.8538 0.5464
vt 0.8662 0.8295
vt 0.9508 0.0715
vt 0.5473 0.3290
vt 0.5479 0.1828
vt 0.5452 0.4388
vt 0.5370 0.2176
vt 0.5348 0.2740
vt 0.9438 0.9032
vt 0.9579 0.9110
vt 0.9438 0.9110
vt 0.9579 0.9032
vt 0.9579 0.8740
vt 0.9438 0.9030
vt 0.9438 0.8740
vt 0.9579 0.9030
vt 0.9437 0.9041
vt 0.9297 0.9332
vt 0.9297 0.9041
vt 0.9437 0.9332
vt 0.9233 0.9043
vt 0.9155 0.9184
vt 0.9155 0.9043
vt 0.9233 0.9184
vt 0.9487 0.8457
vt 0.9155 0.8597
vt 0.9155 0.8457
vt 0.9487 0.8597
vt 0.9483 0.8599
vt 0.9155 0.8739
vt 0.9155 0.8599
vt 0.9483 0.8739
vt 0.9236 0.9187
vt 0.9157 0.9327
vt 0.9157 0.9187
vt 0.9236 0.9327
vt 0.9581 0.9474
vt 0.9297 0.9333
vt 0.9581 0.9333
vt 0.9297 0.9474
vt 0.9567 0.9475
vt 0.9297 0.9616
vt 0.9297 0.9475
vt 0.9567 0.9616
vt 0.9438 0.9111
vt 0.9579 0.9189
vt 0.9438 0.9189
vt 0.9579 0.9111
vt 0.9155 0.8740
vt 0.9295 0.9042
vt 0.9155 0.9042
vt 0.9295 0.8740
vt 0.9297 0.8740
vt 0.9437 0.9040
vt 0.9297 0.9040
vt 0.9437 0.8740
vt 0.0709 0.5267
vt 0.0578 0.6511
vt 0.0526 0.5467
vt 0.0636 0.8266
vt 0.0535 0.6600
vt 0.0464 0.7768
vt 0.0423 0.7179
vt 0.0832 0.9495
vt 0.0638 0.9305
vt 0.1648 0.5308
vt 0.1833 0.9396
vt 0.1718 0.5261
vt 0.2283 0.5074
vt 0.1963 0.9462
vt 0.2545 0.9582
vt 0.2876 0.5040
vt 0.3139 0.9547
vt 0.3458 0.5160
vt 0.3703 0.9360
vt 0.3655 0.5259
vt 0.4718 0.9417
vt 0.4646 0.5176
vt 0.4838 0.5370
vt 0.4855 0.6518
vt 0.4972 0.6884
vt 0.4875 0.8059
vt 0.5001 0.7478
vt 0.4908 0.9219
vt 0.9155 0.8031
vt 0.9196 0.8172
vt 0.9155 0.8172
vt 0.9196 0.8031
vt 0.9366 0.8172
vt 0.9366 0.8031
vt 0.9536 0.8172
vt 0.9536 0.8031
vt 0.9706 0.8172
vt 0.9706 0.8031
vt 0.9605 0.8315
vt 0.9435 0.8456
vt 0.9435 0.8315
vt 0.9605 0.8456
vt 0.9265 0.8456
vt 0.9265 0.8315
vt 0.9155 0.8456
vt 0.9155 0.8315
vt 0.9735 0.8030
vt 0.9672 0.7889
vt 0.9735 0.7889
vt 0.9672 0.8030
vt 0.9502 0.7889
vt 0.9502 0.8030
vt 0.9332 0.7889
vt 0.9332 0.8030
vt 0.9162 0.7889
vt 0.9162 0.8030
vt 0.9155 0.8030
vt 0.9155 0.7889
vt 0.9183 0.8173
vt 0.9155 0.8314
vt 0.9155 0.8173
vt 0.9183 0.8314
vt 0.9353 0.8173
vt 0.9353 0.8314
vt 0.9523 0.8173
vt 0.9523 0.8314
vt 0.9675 0.8173
vt 0.9675 0.8314
vn 0.0000 -1.0000 -0.0000
vn -0.7189 0.0000 -0.6951
vn 0.0726 0.0000 -0.9974
vn -0.0692 0.0000 -0.9976
vn 0.7189 0.0000 -0.6951
vn 0.9997 0.0000 0.0242
vn 0.9997 0.0000 -0.0242
vn 0.7189 0.0000 0.6951
vn -0.0692 0.0000 0.9976
vn 0.0692 0.0000 0.9976
vn -0.7189 0.0000 0.6951
vn -0.9997 0.0000 -0.0242
vn -0.9997 0.0000 0.0242
vn 0.0000 1.0000 0.0000
vn -0.4609 0.0000 -0.8874
vn -0.3412 0.0000 -0.9400
vn -0.0862 0.0000 -0.9962
vn 0.1745 0.0000 -0.9846
vn 0.3016 0.0000 -0.9534
vn 0.9765 0.0000 -0.2156
vn 0.9962 0.0000 -0.0862
vn 0.9846 0.0000 0.1745
vn 0.9534 0.0000 0.3016
vn 0.4609 0.0000 0.8874
vn 0.3412 0.0000 0.9400
vn 0.0862 0.0000 0.9962
vn -0.1745 0.0000 0.9846
vn -0.4234 0.0000 0.9059
vn -0.5380 0.0000 0.8429
vn -0.9400 0.0000 0.3412
vn -0.8874 0.0000 0.4609
vn -0.9962 0.0000 0.0862
vn -0.9846 0.0000 -0.1745
vn -0.9534 0.0000 -0.3016
usemtl material
s off
f 1/1/1 2/2/1 3/3/1
f 2/2/1 1/1/1 4/4/1
f 2/2/1 4/4/1 5/5/1
f 6/6/1 4/4/1 7/7/1
f 4/4/1 6/6/1 8/8/1
f 8/8/1 6/6/1 9/9/1
f 9/9/1 6/6/1 10/10/1
f 9/11/1 10/12/1 11/13/1
f 11/14/1 10/10/1 12/15/1
f 12/15/1 10/10/1 13/16/1
f 12/15/1 13/16/1 14/17/1
f 12/15/1 14/17/1 15/18/1
f 15/18/1 14/17/1 16/19/1
f 15/18/1 16/19/1 17/20/1
f 17/20/1 16/19/1 18/21/1
f 17/20/1 18/21/1 19/22/1
f 19/22/1 18/21/1 20/23/1
f 19/22/1 20/23/1 21/24/1
f 21/24/1 20/23/1 22/25/1
f 22/26/1 20/27/1 23/28/1
f 5/5/1 8/8/1 24/29/1
f 8/8/1 5/5/1 4/4/1
f 20/23/1 25/30/1 23/31/1
f 25/30/1 20/23/1 26/32/1
f 25/30/1 27/33/1 23/31/1
f 27/33/1 25/30/1 28/34/1
f 29/35/2 30/36/2 31/37/2
f 30/36/2 29/35/2 32/38/2
f 33/39/3 34/40/3 35/41/3
f 34/40/3 33/39/3 36/42/3
f 47/43/4 48/44/4 49/45/4
f 48/44/4 47/43/4 50/46/4
f 51/47/5 52/48/5 53/49/5
f 52/48/5 51/47/5 54/50/5
f 55/51/6 56/52/6 57/53/6
f 56/52/6 55/51/6 58/54/6
f 67/55/7 68/56/7 69/57/7
f 68/56/7 67/55/7 70/58/7
f 71/59/8 72/60/8 73/61/8
f 72/60/8 71/59/8 74/62/8
f 75/63/9 76/64/9 77/65/9
f 76/64/9 75/63/9 78/66/9
f 91/67/10 92/68/10 93/69/10
f 92/68/10 91/67/10 94/70/10
f 95/71/11 96/72/11 97/73/11
f 96/72/11 95/71/11 98/74/11
f 99/75/12 100/76/12 101/77/12
f 100/76/12 99/75/12 102/78/12
f 113/79/13 114/80/13 115/81/13
f 114/80/13 113/79/13 116/82/13
f 117/83/14 118/84/14 119/85/14
f 118/84/14 117/83/14 120/86/14
f 121/87/14 122/88/14 123/89/14
f 122/88/14 121/87/14 120/86/14
f 120/86/14 121/87/14 118/84/14
f 120/86/14 124/90/14 125/91/14
f 124/90/14 120/86/14 117/83/14
f 124/90/14 117/83/14 126/92/14
f 124/90/14 126/92/14 127/93/14
f 127/93/14 126/92/14 128/94/14
f 127/93/14 128/94/14 129/95/14
f 127/93/14 129/95/14 130/96/14
f 130/96/14 129/95/14 131/97/14
f 131/97/14 129/95/14 132/98/14
f 131/97/14 132/98/14 133/99/14
f 133/99/14 132/98/14 134/100/14
f 133/99/14 134/100/14 135/101/14
f 135/101/14 134/100/14 136/102/14
f 135/101/14 136/102/14 137/103/14
f 137/103/14 136/102/14 138/104/14
f 137/103/14 138/104/14 139/105/14
f 137/103/14 139/105/14 140/106/14
f 141/107/14 142/108/14 140/106/14
f 142/108/14 141/107/14 143/109/14
f 137/103/14 142/108/14 144/110/14
f 142/108/14 137/103/14 140/106/14
s 1
f 37/111/15 38/112/16 39/113/15
f 38/112/16 37/111/15 40/114/16
f 40/114/16 41/115/17 38/112/16
f 41/115/17 40/114/16 42/116/17
f 42/116/17 43/117/18 41/115/17
f 43/117/18 42/116/17 44/118/18
f 44/118/18 45/119/19 43/117/18
f 45/119/19 44/118/18 46/120/19
f 59/121/20 60/122/21 61/123/21
f 60/122/21 59/121/20 62/124/20
f 61/123/21 63/125/22 64/126/22
f 63/125/22 61/123/21 60/122/21
f 64/126/22 65/127/23 66/128/23
f 65/127/23 64/126/22 63/125/22
f 79/129/24 80/130/25 81/131/24
f 80/130/25 79/129/24 82/132/25
f 82/132/25 83/133/26 80/130/25
f 83/133/26 82/132/25 84/134/26
f 84/134/26 85/135/27 83/133/26
f 85/135/27 84/134/26 86/136/27
f 86/136/27 87/137/28 85/135/27
f 87/137/28 86/136/27 88/138/28
f 87/137/28 89/139/29 90/140/29
f 89/139/29 87/137/28 88/138/28
f 103/141/30 104/142/31 105/143/31
f 104/142/31 103/141/30 106/144/30
f 107/145/32 106/144/30 103/141/30
f 106/144/30 107/145/32 108/146/32
f 109/147/33 108/146/32 107/145/32
f 108/146/32 109/147/33 110/148/33
f 111/149/34 110/148/33 109/147/33
f 110/148/33 111/149/34 112/150/34
