# Blender 3.1.0
# www.blender.org
mtllib BlazeBomb.mtl
o STL_object
v -1.500000 -0.000000 1.100000
v -1.500000 0.000000 -1.100000
v -1.500000 -0.000000 1.460000
v -1.488159 0.000000 -1.489319
v -1.500000 0.000000 -1.460000
v -1.488159 -0.000000 1.489319
v -1.471846 0.000000 -1.516405
v -1.471846 -0.000000 1.516405
v -1.451468 0.000000 -1.540582
v -1.451468 -0.000000 1.540582
v -1.427534 0.000000 -1.561245
v -1.427534 -0.000000 1.561245
v -1.400642 0.000000 -1.577878
v -1.400642 -0.000000 1.577878
v -1.371466 0.000000 -1.590065
v -1.371466 -0.000000 1.590065
v -1.340733 0.000000 -1.597501
v -1.340733 -0.000000 1.597501
v -1.309212 0.000000 -1.600000
v 1.300000 0.000000 -1.600000
v -1.309212 -0.000000 1.600000
v 1.300000 -0.000000 1.600000
v 1.331287 0.000000 -1.597538
v 1.331287 -0.000000 1.597538
v 1.361803 0.000000 -1.590211
v 1.361803 -0.000000 1.590211
v 1.390798 0.000000 -1.578201
v 1.390798 -0.000000 1.578201
v 1.417557 0.000000 -1.561803
v 1.417557 -0.000000 1.561803
v 1.441421 0.000000 -1.541421
v 1.441421 -0.000000 1.541421
v 1.461803 0.000000 -1.517557
v 1.461803 -0.000000 1.517557
v 1.478201 0.000000 -1.490798
v 1.478201 -0.000000 1.490798
v 1.490211 0.000000 -1.461803
v 1.490211 -0.000000 1.461803
v 1.497538 0.000000 -1.268729
v 1.497538 -0.000000 1.431287
v 1.505845 0.000983 -1.193967
v 1.500000 -0.000000 1.239166
v 1.500589 -0.000000 1.199862
v -1.499936 0.216264 1.099978
v -1.800000 0.000000 -1.280000
v -1.620000 0.000000 -1.100000
v -1.797265 0.000000 -1.248743
v -1.800000 -0.000000 1.280000
v -1.620000 -0.000000 1.460000
v -1.797265 -0.000000 1.311257
v -1.797265 0.000000 -1.311257
v -1.789145 0.000000 -1.218436
v -1.797265 -0.000000 1.248743
v -1.789145 -0.000000 1.341564
v -1.789145 0.000000 -1.341564
v -1.775885 0.000000 -1.190000
v -1.789145 -0.000000 1.218436
v -1.775885 -0.000000 1.370000
v -1.775885 0.000000 -1.370000
v -1.757888 0.000000 -1.164298
v -1.775885 -0.000000 1.190000
v -1.757888 -0.000000 1.395702
v -1.757888 0.000000 -1.395702
v -1.735702 0.000000 -1.142112
v -1.757888 -0.000000 1.164298
v -1.735702 -0.000000 1.417888
v -1.735702 0.000000 -1.417888
v -1.710000 0.000000 -1.124115
v -1.735702 -0.000000 1.142112
v -1.710000 -0.000000 1.435885
v -1.710000 0.000000 -1.435885
v -1.681564 0.000000 -1.110855
v -1.710000 -0.000000 1.124115
v -1.681564 -0.000000 1.449145
v -1.681564 0.000000 -1.449145
v -1.651257 0.000000 -1.102735
v -1.681564 -0.000000 1.110855
v -1.651257 -0.000000 1.457265
v -1.651257 0.000000 -1.457265
v -1.651257 -0.000000 1.102735
v -1.620000 0.000000 -1.460000
v -1.620000 -0.000000 1.100000
v 1.666714 -0.000000 1.048976
v 1.666714 0.000000 -1.060303
v 1.626652 -0.000000 1.054796
v 1.627887 0.000000 -1.065523
v 1.586712 0.000000 -1.080879
v 1.521193 -0.000000 1.134369
v 1.548794 -0.000000 1.098998
v 1.550470 0.000000 -1.105478
v 1.584764 -0.000000 1.071856
v -1.499936 0.216265 -1.100022
v -1.499936 0.216264 1.459978
v -1.488095 0.216265 -1.489341
v -1.499936 0.216265 -1.460022
v -1.471782 0.216265 -1.516427
v -1.309148 0.216265 -1.600022
v -1.488095 0.216264 1.489297
v -1.309148 0.216264 1.599978
v 1.300064 0.216265 -1.600022
v 1.331351 0.216265 -1.597560
v 1.361867 0.216265 -1.590233
v 1.390862 0.216265 -1.578223
v 1.417621 0.216265 -1.561825
v 1.441485 0.216265 -1.541443
v 1.461867 0.216265 -1.517579
v 1.478265 0.216265 -1.490820
v 1.490275 0.216265 -1.461825
v 1.497602 0.216265 -1.268751
v 1.505909 0.217248 -1.193989
v -1.451404 0.216264 1.540560
v -1.797201 0.216264 1.311235
v -1.789081 0.216264 1.341542
v -1.789081 0.216265 -1.218458
v -1.775821 0.216265 -1.190022
v -1.757824 0.216265 -1.164320
v -1.735638 0.216265 -1.142134
v -1.709936 0.216265 -1.124137
v -1.681500 0.216265 -1.110877
v -1.651193 0.216265 -1.102757
v -1.651193 0.216264 1.102713
v -1.619936 0.216264 1.099978
v -1.400578 0.216264 1.577856
v 1.500653 0.216264 1.199840
v 1.300064 0.216264 1.599978
v -1.451404 0.216265 -1.540604
v -1.427470 0.216265 -1.561267
v -1.400578 0.216265 -1.577900
v -1.371402 0.216265 -1.590087
v -1.340669 0.216265 -1.597523
v -1.797201 0.216264 1.248721
v -1.789081 0.216264 1.218414
v -1.775821 0.216264 1.189978
v -1.757824 0.216264 1.164276
v -1.735638 0.216264 1.142090
v -1.709936 0.216264 1.124093
v -1.681500 0.216264 1.110833
v -1.619936 0.216265 -1.460022
v 1.666778 0.216265 -1.060325
v 1.627951 0.216265 -1.065545
v 1.586776 0.216265 -1.080901
v 1.584828 0.216264 1.071834
v 1.331351 0.216264 1.597516
v 1.361867 0.216264 1.590189
v 1.390862 0.216264 1.578179
v 1.417621 0.216264 1.561781
v 1.441485 0.216264 1.541399
v 1.461867 0.216264 1.517535
v 1.478265 0.216264 1.490776
v 1.490275 0.216264 1.461781
v 1.497602 0.216264 1.431265
v 1.500064 0.216264 1.239144
v -1.619936 0.216265 -1.100022
v -1.775821 0.216264 1.369978
v -1.757824 0.216264 1.395680
v -1.735638 0.216264 1.417866
v -1.709936 0.216264 1.435863
v -1.681500 0.216264 1.449123
v -1.651193 0.216264 1.457243
v -1.471782 0.216264 1.516383
v -1.427470 0.216264 1.561223
v 1.521257 0.216264 1.134347
v 1.548858 0.216264 1.098976
v -1.371402 0.216264 1.590043
v -1.340669 0.216264 1.597479
v -1.799936 0.216265 -1.280022
v -1.797201 0.216265 -1.248765
v -1.797201 0.216265 -1.311279
v 1.626716 0.216264 1.054774
v -1.619936 0.216264 1.459978
v -1.789081 0.216265 -1.341586
v -1.775821 0.216265 -1.370022
v -1.757824 0.216265 -1.395724
v -1.735638 0.216265 -1.417910
v -1.709936 0.216265 -1.435907
v -1.681500 0.216265 -1.449167
v -1.651193 0.216265 -1.457287
v 1.550534 0.216265 -1.105500
v -1.799936 0.216264 1.279978
v 1.666778 0.216264 1.048954
vn -0.0442 -0.9990 -0.0093
vn 0.0001 -1.0000 0.0001
vn 0.0014 -1.0000 0.0008
vn -0.0000 -1.0000 -0.0000
vn 0.0005 -1.0000 -0.0000
vn 0.0006 -1.0000 -0.0000
vn 0.0001 -1.0000 -0.0001
vn 0.0003 -1.0000 -0.0000
vn -0.0027 -1.0000 0.0047
vn -0.0006 -1.0000 -0.0000
vn 0.0078 -1.0000 -0.0047
vn 0.0053 -1.0000 0.0074
vn 0.0080 -1.0000 0.0043
vn -0.0087 -0.9999 -0.0084
vn -0.0001 -1.0000 -0.0091
vn 0.0012 -1.0000 0.0090
vn 0.0046 -1.0000 -0.0079
vn -0.0013 -1.0000 -0.0090
vn -0.0010 -1.0000 0.0091
vn -0.0210 0.9994 0.0288
vn -0.0013 1.0000 -0.0027
vn -0.0001 1.0000 -0.0001
vn -0.0000 1.0000 -0.0000
vn -0.0005 1.0000 0.0001
vn -0.0005 1.0000 -0.0000
vn -0.0003 1.0000 -0.0000
vn -0.0001 1.0000 0.0001
vn -0.0007 1.0000 -0.0053
vn -0.0006 1.0000 -0.0000
vn 0.0473 0.9989 -0.0036
vn -0.0091 1.0000 -0.0001
vn -0.0091 1.0000 -0.0000
vn -0.0097 1.0000 -0.0013
vn -0.0083 1.0000 0.0006
vn 0.0094 0.9998 -0.0183
vn -0.0091 1.0000 -0.0002
vn 0.9634 0.0331 -0.2661
vn 0.9526 -0.0330 -0.3025
vn 0.7636 0.0022 -0.6457
vn 0.7071 -0.0003 -0.7071
vn 0.5878 -0.0003 -0.8090
vn 0.9978 -0.0235 -0.0619
vn 0.9960 0.0230 -0.0864
vn -0.0436 0.0001 0.9990
vn -0.1736 0.0002 0.9848
vn -0.5000 0.0001 -0.8660
vn -0.6428 0.0001 -0.7660
vn -0.6428 0.0001 -0.7661
vn -0.1737 0.0002 0.9848
vn -0.3420 0.0002 0.9397
vn -0.1737 -0.0000 -0.9848
vn -0.3420 -0.0000 -0.9397
vn -0.7113 0.0003 0.7029
vn -0.8132 0.0003 0.5820
vn 0.8910 -0.0003 -0.4540
vn 0.8090 -0.0003 -0.5878
vn -0.5592 0.0002 0.8290
vn -0.5593 0.0003 0.8290
vn -0.4572 0.0002 0.8894
vn -0.4571 0.0002 0.8894
vn -0.5916 0.0003 0.8062
vn -0.7113 0.0001 -0.7029
vn -0.8132 0.0002 -0.5820
vn -0.0436 -0.0001 -0.9990
vn -0.1736 -0.0000 -0.9848
vn -0.5592 0.0001 -0.8291
vn -0.1576 0.0001 0.9875
vn -0.3113 0.0002 0.9503
vn 0.9769 -0.0003 -0.2136
vn 0.9769 -0.0003 -0.2137
vn -0.4572 -0.0000 -0.8894
vn -0.5916 0.0001 -0.8062
vn -0.7070 0.0001 -0.7072
vn -0.1576 -0.0001 -0.9875
vn -0.3113 -0.0000 -0.9503
vn 0.7453 0.0021 -0.6668
vn 0.7604 -0.0027 -0.6495
vn 0.7644 -0.0035 0.6448
vn 0.2348 0.0027 -0.9720
vn 0.2509 -0.0031 -0.9680
vn -0.8947 0.0003 0.4466
vn 0.7495 0.0026 0.6620
vn 0.2703 -0.0032 0.9628
vn 0.0375 -0.0011 -0.9993
vn -0.0396 -0.0001 -0.9992
vn -0.0392 -0.0001 -0.9992
vn -0.9848 0.0003 0.1736
vn -0.9397 0.0003 0.3420
vn 0.6971 0.0060 0.7169
vn 0.7055 -0.0063 0.7087
vn 0.8866 -0.0102 0.4624
vn 0.1564 0.0001 0.9877
vn 0.0393 0.0001 0.9992
vn -0.8660 0.0003 0.5000
vn 0.4522 0.0044 -0.8919
vn 0.7392 -0.0025 -0.6734
vn -0.9397 0.0002 -0.3420
vn -0.9848 0.0003 -0.1736
vn -0.7660 0.0003 0.6428
vn -0.0399 0.0001 0.9992
vn -0.0392 0.0001 0.9992
vn 0.4540 -0.0000 0.8910
vn 0.3090 -0.0000 0.9510
vn -0.6428 0.0003 0.7660
vn 0.3090 -0.0000 0.9511
vn -0.5000 0.0002 0.8660
vn 0.5878 -0.0001 0.8090
vn 0.7071 -0.0001 0.7071
vn -0.8660 0.0002 -0.5000
vn 0.8090 -0.0002 0.5878
vn -1.0000 0.0003 -0.0000
vn 0.8910 -0.0002 0.4540
vn 0.9511 -0.0003 0.3090
vn 0.9511 -0.0002 0.3090
vn -0.7661 0.0002 -0.6428
vn 0.9999 0.0002 0.0139
vn 0.9999 -0.0006 0.0139
vn 0.9923 -0.0003 0.1239
vn -0.7071 0.0003 0.7072
vn -0.7072 0.0001 -0.7070
vn 0.9880 0.0019 0.1544
vn 0.9865 -0.0024 0.1640
vn -0.8947 0.0002 -0.4466
vn -0.5593 0.0001 -0.8289
vn 0.8838 0.0097 0.4677
vn -0.7660 0.0002 -0.6428
vn -0.4571 -0.0000 -0.8894
vn 0.2545 0.0032 0.9671
vn 0.5001 -0.0050 0.8659
vn -0.7072 0.0003 0.7071
vn 0.0389 -0.0000 0.9992
vn 0.4654 -0.0048 -0.8851
vn 0.3090 -0.0002 -0.9511
vn 0.1564 -0.0001 -0.9877
vn 0.0410 0.0009 -0.9992
vn 0.4540 -0.0002 -0.8910
vn 0.4876 0.0050 0.8730
vt 0.217593 0.816331
vt 0.441389 0.816331
vt 0.180972 0.816331
vt 0.480993 0.815126
vt 0.478011 0.816331
vt 0.177989 0.815126
vt 0.483748 0.813467
vt 0.175234 0.813467
vt 0.486208 0.811394
vt 0.172775 0.811394
vt 0.488310 0.808959
vt 0.170673 0.808959
vt 0.490002 0.806223
vt 0.168981 0.806223
vt 0.491242 0.803255
vt 0.167741 0.803255
vt 0.491998 0.800129
vt 0.166985 0.800129
vt 0.492252 0.796923
vt 0.492252 0.531499
vt 0.166730 0.796923
vt 0.166730 0.531499
vt 0.492002 0.528316
vt 0.166981 0.528316
vt 0.491257 0.525212
vt 0.167726 0.525212
vt 0.490035 0.522263
vt 0.168948 0.522263
vt 0.488367 0.519540
vt 0.170616 0.519540
vt 0.486293 0.517113
vt 0.172689 0.517113
vt 0.483866 0.515039
vt 0.175117 0.515039
vt 0.481144 0.513371
vt 0.177839 0.513371
vt 0.478194 0.512150
vt 0.180788 0.512150
vt 0.458554 0.511404
vt 0.183893 0.511404
vt 0.451867 0.511534
vt 0.445244 0.508990
vt 0.455734 0.511154
vt 0.203436 0.511154
vt 0.207434 0.511094
vt 0.217593 0.816331
vt 0.459700 0.846848
vt 0.492825 0.500326
vt 0.441389 0.828538
vt 0.456520 0.846570
vt 0.199282 0.846848
vt 0.180972 0.828538
vt 0.196103 0.846570
vt 0.462880 0.846570
vt 0.453437 0.845744
vt 0.202462 0.846570
vt 0.193020 0.845744
vt 0.465963 0.845744
vt 0.450545 0.844395
vt 0.205545 0.845744
vt 0.190127 0.844395
vt 0.468855 0.844395
vt 0.447930 0.842564
vt 0.208438 0.844395
vt 0.187513 0.842564
vt 0.471470 0.842564
vt 0.445673 0.840308
vt 0.211052 0.842564
vt 0.185256 0.840307
vt 0.473727 0.840308
vt 0.443843 0.837693
vt 0.213309 0.840307
vt 0.183425 0.837693
vt 0.475557 0.837693
vt 0.442494 0.834800
vt 0.492825 0.500325
vt 0.215140 0.837693
vt 0.182076 0.834800
vt 0.476906 0.834800
vt 0.492825 0.500326
vt 0.216489 0.834800
vt 0.181250 0.831717
vt 0.477732 0.831717
vt 0.217315 0.831717
vt 0.478011 0.828538
vt 0.217593 0.828538
vt 0.222784 0.494195
vt 0.437351 0.494195
vt 0.222191 0.498270
vt 0.437882 0.498145
vt 0.439444 0.502333
vt 0.214097 0.508998
vt 0.217695 0.506190
vt 0.441947 0.506020
vt 0.220456 0.502531
vt 0.441389 0.816331
vt 0.180972 0.816331
vt 0.480993 0.815126
vt 0.478011 0.816331
vt 0.483748 0.813467
vt 0.492252 0.796923
vt 0.177989 0.815126
vt 0.166730 0.796923
vt 0.492252 0.531499
vt 0.492002 0.528316
vt 0.491257 0.525212
vt 0.490035 0.522263
vt 0.488367 0.519540
vt 0.486293 0.517113
vt 0.483866 0.515039
vt 0.481144 0.513371
vt 0.478194 0.512150
vt 0.458554 0.511404
vt 0.451867 0.511534
vt 0.445244 0.508990
vt 0.455734 0.511154
vt 0.172775 0.811394
vt 0.196103 0.846570
vt 0.193020 0.845744
vt 0.453437 0.845744
vt 0.450545 0.844395
vt 0.447930 0.842564
vt 0.445673 0.840308
vt 0.443843 0.837693
vt 0.442494 0.834800
vt 0.492825 0.500325
vt 0.492825 0.500326
vt 0.217315 0.831717
vt 0.217593 0.828538
vt 0.168981 0.806223
vt 0.207434 0.511094
vt 0.166730 0.531499
vt 0.486208 0.811394
vt 0.488310 0.808959
vt 0.490002 0.806223
vt 0.491242 0.803255
vt 0.491998 0.800129
vt 0.202462 0.846570
vt 0.205545 0.845744
vt 0.208438 0.844395
vt 0.211052 0.842564
vt 0.213309 0.840307
vt 0.215140 0.837693
vt 0.216489 0.834800
vt 0.478011 0.828538
vt 0.437351 0.494195
vt 0.437882 0.498145
vt 0.439444 0.502333
vt 0.220456 0.502531
vt 0.166981 0.528316
vt 0.167726 0.525212
vt 0.168948 0.522263
vt 0.170616 0.519540
vt 0.172689 0.517113
vt 0.175117 0.515039
vt 0.177839 0.513371
vt 0.180788 0.512150
vt 0.183893 0.511404
vt 0.203436 0.511154
vt 0.492825 0.500326
vt 0.441389 0.828538
vt 0.190127 0.844395
vt 0.187513 0.842564
vt 0.185256 0.840307
vt 0.183425 0.837693
vt 0.182076 0.834800
vt 0.181250 0.831717
vt 0.175234 0.813467
vt 0.170673 0.808959
vt 0.214097 0.508998
vt 0.217695 0.506190
vt 0.167741 0.803255
vt 0.166985 0.800129
vt 0.459700 0.846848
vt 0.456520 0.846570
vt 0.462880 0.846570
vt 0.222191 0.498270
vt 0.180972 0.828538
vt 0.465963 0.845744
vt 0.468855 0.844395
vt 0.471470 0.842564
vt 0.473727 0.840308
vt 0.475557 0.837693
vt 0.476906 0.834800
vt 0.477732 0.831717
vt 0.441947 0.506020
vt 0.199282 0.846848
vt 0.222784 0.494195
s 1
usemtl Default_OBJ
f 41/41/1 2/2/2 20/20/3
f 45/47/4 46/49/4 47/50/4
f 48/51/4 49/52/4 50/53/4
f 51/54/4 46/49/4 45/47/4
f 47/50/4 46/49/4 52/55/4
f 53/56/4 49/52/4 48/51/4
f 50/53/4 49/52/4 54/57/4
f 55/58/4 46/49/4 51/54/4
f 52/55/4 46/49/4 56/59/4
f 57/60/4 49/52/4 53/56/4
f 54/57/4 49/52/4 58/61/4
f 59/62/4 46/49/4 55/58/4
f 56/59/4 46/49/4 60/63/4
f 61/64/4 49/52/4 57/60/4
f 58/61/4 49/52/4 62/65/4
f 63/66/4 46/49/4 59/62/4
f 60/63/4 46/49/4 64/67/4
f 65/68/4 49/52/4 61/64/4
f 62/65/4 49/52/4 66/69/4
f 67/70/4 46/49/4 63/66/4
f 64/67/4 46/49/4 68/71/4
f 69/72/4 49/52/4 65/68/4
f 66/69/4 49/52/4 70/73/4
f 71/74/4 46/49/4 67/70/4
f 68/71/4 46/49/4 72/75/4
f 73/77/4 49/52/4 69/72/4
f 70/73/4 49/52/4 74/78/4
f 75/79/4 46/49/4 71/74/4
f 72/76/4 46/48/4 76/80/4
f 77/81/4 49/52/4 73/77/4
f 74/78/4 49/52/4 78/82/4
f 79/83/4 46/49/4 75/79/4
f 80/84/4 49/52/4 77/81/4
f 81/85/4 46/49/4 79/83/4
f 81/85/4 2/2/2 46/49/4
f 82/86/4 49/52/4 80/84/4
f 82/86/4 3/3/4 49/52/4
f 5/5/4 2/2/2 81/85/4
f 5/5/4 19/19/5 2/2/2
f 21/21/6 1/1/7 22/22/8
f 1/1/7 3/3/4 82/86/4
f 1/1/7 21/21/6 3/3/4
f 3/3/4 21/21/6 6/6/4
f 43/45/9 42/44/10 22/22/8
f 41/41/1 43/45/9 1/1/7
f 4/4/4 19/19/5 5/5/4
f 6/6/4 21/21/6 8/8/4
f 7/7/4 19/19/5 4/4/4
f 8/8/4 21/21/6 10/10/4
f 9/9/4 19/19/5 7/7/4
f 10/10/4 21/21/6 12/12/4
f 11/11/4 19/19/5 9/9/4
f 12/12/4 21/21/6 14/14/4
f 13/13/4 19/19/5 11/11/4
f 14/14/4 21/21/6 16/16/4
f 15/15/4 19/19/5 13/13/4
f 16/16/4 21/21/6 18/18/4
f 17/17/4 19/19/5 15/15/4
f 22/22/8 26/26/4 24/24/4
f 22/22/8 28/28/4 26/26/4
f 22/22/8 30/30/4 28/28/4
f 22/22/8 32/32/4 30/30/4
f 22/22/8 34/34/4 32/32/4
f 22/22/8 36/36/4 34/34/4
f 22/22/8 38/38/4 36/36/4
f 22/22/8 40/40/4 38/38/4
f 22/22/8 42/44/10 40/40/4
f 22/22/8 1/1/7 43/45/9
f 23/23/4 25/25/4 20/20/3
f 25/25/4 27/27/4 20/20/3
f 27/27/4 29/29/4 20/20/3
f 29/29/4 31/31/4 20/20/3
f 31/31/4 33/33/4 20/20/3
f 33/33/4 35/35/4 20/20/3
f 35/35/4 37/37/4 20/20/3
f 37/37/4 39/39/4 20/20/3
f 39/39/4 41/43/1 20/20/3
f 85/89/11 87/91/12 86/90/13
f 1/1/7 2/2/2 41/41/1
f 41/41/1 88/92/14 43/45/9
f 88/92/14 41/42/1 89/93/15
f 41/42/1 90/94/16 89/93/15
f 89/93/15 90/94/16 91/95/17
f 85/89/11 86/90/13 83/87/18
f 83/87/18 86/90/13 84/88/19
f 90/94/16 87/91/12 91/95/17
f 91/95/17 87/91/12 85/89/11
f 2/2/2 19/19/5 20/20/3
f 110/114/20 100/104/21 92/96/22
f 166/174/23 167/175/23 153/161/23
f 179/187/23 112/118/23 170/178/23
f 168/176/23 166/174/23 153/161/23
f 167/175/23 114/120/23 153/161/23
f 131/138/23 179/187/23 170/178/23
f 112/118/23 113/119/23 170/178/23
f 171/179/23 168/176/23 153/161/23
f 114/120/23 115/121/23 153/161/23
f 132/139/23 131/138/23 170/178/23
f 113/119/23 154/162/23 170/178/23
f 172/180/23 171/179/23 153/161/23
f 115/121/23 116/122/23 153/161/23
f 133/140/23 132/139/23 170/178/23
f 154/162/23 155/163/23 170/178/23
f 173/181/23 172/180/23 153/161/23
f 116/122/23 117/123/23 153/161/23
f 134/141/23 133/140/23 170/178/23
f 155/163/23 156/164/23 170/178/23
f 174/182/23 173/181/23 153/161/23
f 117/123/23 118/124/23 153/161/23
f 135/142/23 134/141/23 170/178/23
f 156/164/23 157/165/23 170/178/23
f 175/183/23 174/182/23 153/161/23
f 118/124/23 119/125/23 153/161/23
f 136/143/23 135/142/23 170/178/23
f 157/165/23 158/166/23 170/178/23
f 176/184/23 175/183/23 153/161/23
f 119/126/23 120/127/23 153/160/23
f 137/144/23 136/143/23 170/178/23
f 158/166/23 159/167/23 170/178/23
f 177/185/23 176/184/23 153/161/23
f 121/128/23 137/144/23 170/178/23
f 138/145/23 177/185/23 153/161/23
f 138/145/23 153/161/23 92/96/22
f 122/129/23 121/128/23 170/178/23
f 122/129/23 170/178/23 93/97/23
f 95/99/23 138/145/23 92/96/22
f 95/99/23 92/96/22 97/101/24
f 99/103/25 125/132/26 44/46/27
f 44/46/27 122/129/23 93/97/23
f 44/46/27 93/97/23 99/103/25
f 93/97/23 98/102/23 99/103/25
f 124/131/28 125/132/26 152/159/29
f 110/114/20 44/46/27 124/131/28
f 94/98/23 95/99/23 97/101/24
f 98/102/23 160/168/23 99/103/25
f 96/100/23 94/98/23 97/101/24
f 160/168/23 111/117/23 99/103/25
f 126/133/23 96/100/23 97/101/24
f 111/117/23 161/169/23 99/103/25
f 127/134/23 126/133/23 97/101/24
f 161/169/23 123/130/23 99/103/25
f 128/135/23 127/134/23 97/101/24
f 123/130/23 164/172/23 99/103/25
f 129/136/23 128/135/23 97/101/24
f 164/172/23 165/173/23 99/103/25
f 130/137/23 129/136/23 97/101/24
f 125/132/26 143/150/23 144/151/23
f 125/132/26 144/151/23 145/152/23
f 125/132/26 145/152/23 146/153/23
f 125/132/26 146/153/23 147/154/23
f 125/132/26 147/154/23 148/155/23
f 125/132/26 148/155/23 149/156/23
f 125/132/26 149/156/23 150/157/23
f 125/132/26 150/157/23 151/158/23
f 125/132/26 151/158/23 152/159/29
f 125/132/26 124/131/28 44/46/27
f 101/105/23 100/104/21 102/106/23
f 102/106/23 100/104/21 103/107/23
f 103/107/23 100/104/21 104/108/23
f 104/108/23 100/104/21 105/109/23
f 105/109/23 100/104/21 106/110/23
f 106/110/23 100/104/21 107/111/23
f 107/111/23 100/104/21 108/112/23
f 108/112/23 100/104/21 109/113/30
f 109/113/30 100/104/21 110/116/20
f 169/177/31 140/147/32 141/148/32
f 44/46/27 110/114/20 92/96/22
f 110/114/20 124/131/28 162/170/33
f 162/170/33 163/171/34 110/115/20
f 110/115/20 163/171/34 178/186/35
f 163/171/34 142/149/31 178/186/35
f 169/177/31 180/188/32 140/147/32
f 180/188/32 139/146/36 140/147/32
f 178/186/35 142/149/31 141/148/32
f 142/149/31 169/177/31 141/148/32
f 92/96/22 100/104/21 97/101/24
f 41/42/37 110/115/38 178/186/39
f 31/31/40 29/29/41 104/108/41
f 41/43/37 39/39/42 109/113/43
f 49/52/44 170/178/44 159/167/45
f 73/77/46 69/72/47 135/142/48
f 78/82/49 159/167/45 158/166/50
f 79/83/51 75/79/52 176/184/52
f 77/81/52 73/77/46 136/143/46
f 10/10/53 111/117/53 160/168/54
f 35/35/55 33/33/56 106/110/56
f 3/3/57 93/97/58 170/178/44
f 80/84/51 77/81/52 137/144/52
f 14/14/59 123/130/60 161/169/61
f 9/9/62 7/7/63 96/100/63
f 81/85/64 79/83/51 177/185/65
f 5/5/66 81/85/64 138/145/64
f 18/18/67 165/173/67 164/172/68
f 37/37/69 108/112/70 109/113/43
f 13/13/71 11/11/72 127/134/72
f 1/1/73 82/86/64 122/129/64
f 17/17/74 15/15/75 129/136/75
f 84/88/76 139/146/77 180/188/78
f 84/88/76 86/90/79 140/147/80
f 8/8/54 160/168/54 98/102/81
f 83/87/82 180/188/78 169/177/83
f 20/20/84 19/19/85 97/101/86
f 12/12/61 161/169/61 111/117/53
f 50/53/87 54/57/88 113/119/88
f 47/50/87 52/55/88 114/120/88
f 89/93/89 163/171/90 162/170/91
f 24/24/92 143/150/92 125/132/93
f 56/59/94 115/121/94 114/120/88
f 87/91/95 90/94/96 178/186/39
f 16/16/68 164/172/68 123/130/60
f 55/58/97 51/54/98 168/176/98
f 60/63/99 116/122/99 115/121/94
f 21/21/100 99/103/101 165/173/67
f 28/28/102 145/152/102 144/151/103
f 64/67/104 117/123/104 116/122/99
f 26/26/105 144/151/103 143/150/92
f 68/71/106 118/124/106 117/123/104
f 30/30/107 146/153/107 145/152/102
f 32/32/108 147/154/108 146/153/107
f 59/62/109 55/58/97 171/179/97
f 72/75/50 119/125/50 118/124/106
f 34/34/110 148/155/110 147/154/108
f 45/47/111 47/50/87 167/175/87
f 76/80/49 120/127/45 119/126/50
f 51/54/98 45/47/111 166/174/111
f 36/36/112 149/156/112 148/155/110
f 82/86/64 80/84/51 121/128/65
f 38/38/113 150/157/114 149/156/112
f 63/66/115 59/62/109 172/180/109
f 42/44/116 152/159/117 151/158/118
f 2/2/119 1/1/73 44/46/120
f 40/40/118 151/158/118 150/157/114
f 46/48/44 153/160/44 120/127/45
f 43/45/121 124/131/122 152/159/117
f 11/11/72 9/9/62 126/133/62
f 4/4/123 5/5/66 95/99/124
f 88/92/125 162/170/91 124/131/122
f 67/70/47 63/66/115 173/181/126
f 15/15/75 13/13/71 128/135/127
f 48/51/111 50/53/87 112/118/87
f 7/7/63 4/4/123 94/98/123
f 85/89/128 169/177/83 142/149/129
f 2/2/119 92/96/130 153/161/44
f 19/19/85 17/17/74 130/137/74
f 53/56/98 48/51/111 179/187/111
f 22/22/131 125/132/93 99/103/101
f 86/90/79 87/91/95 141/148/132
f 6/6/81 98/102/81 93/97/58
f 58/61/94 154/162/94 113/119/88
f 71/74/46 67/70/47 174/182/48
f 25/25/133 23/23/134 101/105/134
f 62/65/99 155/163/99 154/162/94
f 57/60/97 53/56/98 131/138/98
f 23/23/134 20/20/84 100/104/135
f 29/29/41 27/27/136 103/107/136
f 66/69/104 156/164/104 155/163/99
f 61/64/109 57/60/97 132/139/97
f 91/95/137 142/149/129 163/171/90
f 33/33/56 31/31/40 105/109/40
f 70/73/106 157/165/106 156/164/104
f 75/79/52 71/74/46 175/183/46
f 65/68/115 61/64/109 133/140/109
f 27/27/136 25/25/133 102/106/133
f 37/37/69 35/35/55 107/111/55
f 74/78/50 158/166/50 157/165/106
f 69/72/47 65/68/115 134/141/126
f 41/42/37 178/186/39 90/94/96
f 31/31/40 104/108/41 105/109/40
f 41/43/37 109/113/43 110/116/38
f 49/52/44 159/167/45 78/82/49
f 73/77/46 135/142/48 136/143/46
f 78/82/49 158/166/50 74/78/50
f 79/83/51 176/184/52 177/185/65
f 77/81/52 136/143/46 137/144/52
f 10/10/53 160/168/54 8/8/54
f 35/35/55 106/110/56 107/111/55
f 3/3/57 170/178/44 49/52/44
f 80/84/51 137/144/52 121/128/65
f 14/14/59 161/169/61 12/12/61
f 9/9/62 96/100/63 126/133/62
f 81/85/64 177/185/65 138/145/64
f 5/5/66 138/145/64 95/99/124
f 18/18/67 164/172/68 16/16/68
f 37/37/69 109/113/43 39/39/42
f 13/13/71 127/134/72 128/135/127
f 1/1/73 122/129/64 44/46/120
f 17/17/74 129/136/75 130/137/74
f 84/88/76 180/188/78 83/87/82
f 84/88/76 140/147/80 139/146/77
f 8/8/54 98/102/81 6/6/81
f 83/87/82 169/177/83 85/89/128
f 20/20/84 97/101/86 100/104/135
f 12/12/61 111/117/53 10/10/53
f 50/53/87 113/119/88 112/118/87
f 47/50/87 114/120/88 167/175/87
f 89/93/89 162/170/91 88/92/125
f 24/24/92 125/132/93 22/22/131
f 56/59/94 114/120/88 52/55/88
f 87/91/95 178/186/39 141/148/132
f 16/16/68 123/130/60 14/14/59
f 55/58/97 168/176/98 171/179/97
f 60/63/99 115/121/94 56/59/94
f 21/21/100 165/173/67 18/18/67
f 28/28/102 144/151/103 26/26/105
f 64/67/104 116/122/99 60/63/99
f 26/26/105 143/150/92 24/24/92
f 68/71/106 117/123/104 64/67/104
f 30/30/107 145/152/102 28/28/102
f 32/32/108 146/153/107 30/30/107
f 59/62/109 171/179/97 172/180/109
f 72/75/50 118/124/106 68/71/106
f 34/34/110 147/154/108 32/32/108
f 45/47/111 167/175/87 166/174/111
f 76/80/49 119/126/50 72/76/50
f 51/54/98 166/174/111 168/176/98
f 36/36/112 148/155/110 34/34/110
f 82/86/64 121/128/65 122/129/64
f 38/38/113 149/156/112 36/36/112
f 63/66/115 172/180/109 173/181/126
f 42/44/116 151/158/118 40/40/118
f 2/2/119 44/46/120 92/96/130
f 40/40/118 150/157/114 38/38/113
f 46/48/44 120/127/45 76/80/49
f 43/45/121 152/159/117 42/44/116
f 11/11/72 126/133/62 127/134/72
f 4/4/123 95/99/124 94/98/123
f 88/92/125 124/131/122 43/45/121
f 67/70/47 173/181/126 174/182/48
f 15/15/75 128/135/127 129/136/75
f 48/51/111 112/118/87 179/187/111
f 7/7/63 94/98/123 96/100/63
f 85/89/128 142/149/129 91/95/137
f 2/2/119 153/161/44 46/49/44
f 19/19/85 130/137/74 97/101/86
f 53/56/98 179/187/111 131/138/98
f 22/22/131 99/103/101 21/21/100
f 86/90/79 141/148/132 140/147/80
f 6/6/81 93/97/58 3/3/57
f 58/61/94 113/119/88 54/57/88
f 71/74/46 174/182/48 175/183/46
f 25/25/133 101/105/134 102/106/133
f 62/65/99 154/162/94 58/61/94
f 57/60/97 131/138/98 132/139/97
f 23/23/134 100/104/135 101/105/134
f 29/29/41 103/107/136 104/108/41
f 66/69/104 155/163/99 62/65/99
f 61/64/109 132/139/97 133/140/109
f 91/95/137 163/171/90 89/93/89
f 33/33/56 105/109/40 106/110/56
f 70/73/106 156/164/104 66/69/104
f 75/79/52 175/183/46 176/184/52
f 65/68/115 133/140/109 134/141/126
f 27/27/136 102/106/133 103/107/136
f 37/37/69 107/111/55 108/112/70
f 74/78/50 157/165/106 70/73/106
f 69/72/47 134/141/126 135/142/48
