# Blender v2.83.1 OBJ File: 'ProbeDroid.blend'
# www.blender.org
mtllib ProbeDroidBorder.mtl
o Plane
v 0.725463 0.065938 -0.993350
v -0.719471 0.065938 -1.006508
v 1.167291 0.065938 0.367454
v -1.170392 0.065938 0.351182
v -0.005704 0.065938 1.198966
v 1.167291 0.065938 0.367454
v 0.725463 0.065938 -0.993350
v -0.719471 0.065938 -1.006508
v -1.170392 0.065938 0.351182
v -0.005704 0.065938 1.198966
v 1.144898 0.065938 0.359902
v 0.711754 0.065938 -0.974159
v -0.706031 0.065938 -0.987069
v -1.148008 0.065938 0.343693
v -0.005456 0.065938 1.175365
v 1.033734 0.065938 0.020149
v 0.337233 0.065938 -0.977528
v -0.822969 0.065938 -0.636239
v 0.278111 0.065938 0.976078
v -0.849375 0.065938 0.559504
v 0.997032 0.065938 0.018971
v 0.321564 0.065938 -0.942962
v -0.793292 0.065938 -0.613257
v 0.270924 0.065938 0.941455
v -0.816951 0.065938 0.540431
v 0.821171 0.065938 -0.628337
v -0.351247 0.065938 -0.984168
v -1.039263 0.065938 0.016510
v 0.843777 0.065938 0.573468
v -0.303100 0.065938 0.956737
v 0.798026 0.065938 -0.600079
v -0.335968 0.065938 -0.948733
v -0.999709 0.065938 0.012927
v 0.811458 0.065938 0.554791
v -0.295563 0.065938 0.922429
vt 0.454302 0.195928
vt 0.491770 0.080528
vt 0.454302 0.195928
vt 0.331768 0.197044
vt 0.331768 0.197044
vt 0.293529 0.081908
vt 0.293529 0.081908
vt 0.491770 0.080528
vt 0.392297 0.010014
vt 0.392297 0.010014
vt 0.480444 0.109980
vt 0.421379 0.194586
vt 0.322991 0.165644
vt 0.416365 0.028915
vt 0.320752 0.064242
vt 0.367716 0.033465
vt 0.367077 0.030555
vt 0.461595 0.064641
vt 0.464335 0.063058
vt 0.308003 0.110593
vt 0.304649 0.110289
vt 0.420050 0.191655
vt 0.362994 0.195149
vt 0.364290 0.192144
vt 0.460456 0.162577
vt 0.462418 0.164974
vt 0.453139 0.194300
vt 0.489871 0.081168
vt 0.332908 0.195395
vt 0.295427 0.082543
vt 0.392318 0.012015
vt 0.323501 0.065859
vt 0.415756 0.031851
vt 0.325508 0.163695
vt 0.477332 0.110080
vn 0.0000 0.0000 1.0000
vn 0.0000 1.0000 -0.0000
usemtl FrontColor
s off
f 7/1/1 3/2/1 1/3/1
f 8/4/1 1/3/1 2/5/1
f 9/6/1 2/5/1 4/7/1
f 6/8/1 5/9/1 3/2/1
f 10/10/1 4/7/1 5/9/1
f 16/11/2 6/8/2 7/1/2
f 7/1/2 8/4/2 17/12/2
f 18/13/2 8/4/2 9/6/2
f 19/14/2 10/10/2 6/8/2
f 9/6/2 10/10/2 20/15/2
f 35/16/2 20/15/2 30/17/2
f 34/18/2 19/14/2 29/19/2
f 33/20/2 18/13/2 28/21/2
f 22/22/2 27/23/2 32/24/2
f 31/25/2 16/11/2 26/26/2
f 7/1/1 6/8/1 3/2/1
f 8/4/1 7/1/1 1/3/1
f 9/6/1 8/4/1 2/5/1
f 6/8/1 10/10/1 5/9/1
f 10/10/1 9/6/1 4/7/1
f 7/1/2 12/27/2 26/26/2
f 16/11/2 11/28/2 6/8/2
f 7/1/2 26/26/2 16/11/2
f 8/4/2 13/29/2 27/23/2
f 27/23/2 17/12/2 8/4/2
f 17/12/2 12/27/2 7/1/2
f 9/6/2 14/30/2 28/21/2
f 18/13/2 13/29/2 8/4/2
f 9/6/2 28/21/2 18/13/2
f 6/8/2 11/28/2 29/19/2
f 19/14/2 15/31/2 10/10/2
f 6/8/2 29/19/2 19/14/2
f 10/10/2 15/31/2 30/17/2
f 30/17/2 20/15/2 10/10/2
f 20/15/2 14/30/2 9/6/2
f 35/16/2 25/32/2 20/15/2
f 34/18/2 24/33/2 19/14/2
f 33/20/2 23/34/2 18/13/2
f 22/22/2 17/12/2 27/23/2
f 31/25/2 21/35/2 16/11/2
o Mesh1_Model
v -0.179284 0.060000 1.198006
v 0.166080 0.060000 1.198329
v -1.187632 0.060000 0.186039
v 0.997707 0.060000 -0.912083
v 0.583974 -0.060000 -1.243374
v 0.572106 0.060000 -1.217995
v 0.870009 -0.060000 -0.881630
v 1.018447 -0.060000 -0.931086
v 1.201724 0.060000 0.247782
v 0.852299 0.060000 -0.863637
v 1.327257 0.060000 0.210947
v 1.226717 -0.060000 0.252956
v 1.181300 0.060000 0.645968
v 1.354867 -0.060000 0.215353
v 1.122217 -0.060000 0.544925
v 1.205867 -0.060000 0.659441
v 1.099358 0.060000 0.533790
v 0.169486 -0.060000 1.223316
v 0.255587 0.060000 1.322197
v -0.268547 0.060000 1.322197
v 0.260859 -0.060000 1.349766
v -0.183077 -0.060000 1.222986
v -0.274200 -0.060000 1.349766
v -1.098010 0.060000 0.517016
v -1.191883 0.060000 0.635291
v -1.120953 -0.060000 0.527802
v -1.361633 -0.060000 0.133463
v -1.216783 -0.060000 0.648542
v -1.333776 0.060000 0.130729
v -1.212443 -0.060000 0.189926
v -0.831866 0.060000 -0.874332
v -0.977246 0.060000 -0.922802
v -0.849262 -0.060000 -0.892548
v -0.551637 0.060000 -1.228712
v -0.997671 -0.060000 -0.942028
v -0.563191 -0.060000 -1.096244
v -0.563191 -0.060000 -1.254314
v -0.551637 0.060000 -1.073869
v 0.583974 -0.060000 -1.085304
v 0.572106 0.060000 -1.063153
vt 0.357018 0.273213
vt 0.455633 0.273121
vt 0.069096 0.562169
vt 0.951953 0.855433
vt 0.933645 0.850123
vt 0.933119 0.855433
vt 0.946302 0.850123
vt 0.952871 0.850123
vt 0.960981 0.855433
vt 0.945518 0.855433
vt 0.966536 0.855433
vt 0.962087 0.850123
vt 0.960078 0.855433
vt 0.967758 0.850123
vt 0.957463 0.850123
vt 0.961165 0.850123
vt 0.956451 0.855433
vt 0.915303 0.850123
vt 0.919113 0.855433
vt 0.915152 0.855433
vt 0.895919 0.855433
vt 0.919346 0.850123
vt 0.899701 0.850123
vt 0.895669 0.850123
vt 0.859213 0.855433
vt 0.899869 0.855433
vt 0.855059 0.855433
vt 0.858198 0.850123
vt 0.847547 0.850123
vt 0.853957 0.850123
vt 0.848780 0.855433
vt 0.854149 0.850123
vt 0.870991 0.855433
vt 0.855247 0.855433
vt 0.864557 0.855433
vt 0.870221 0.850123
vt 0.883391 0.855433
vt 0.863653 0.850123
vt 0.882880 0.850123
vt 0.882880 0.850123
vt 0.883391 0.855433
vt 0.933645 0.850123
vt 0.933119 0.855433
vt 0.362323 0.283448
vt 0.460487 0.283540
vt 0.747094 0.571175
vt 0.651576 0.861893
vt 0.693095 0.875726
vt 0.571570 0.963076
vt 0.571570 0.918862
vt 0.745518 0.430842
vt 0.787195 0.555057
vt 0.751350 0.544539
vt 0.722121 0.462873
vt 0.250697 0.921922
vt 0.250697 0.966136
vt 0.170681 0.864947
vt 0.129169 0.878787
vt 0.331530 0.237752
vt 0.481191 0.237752
vt 0.027366 0.577963
vt 0.067882 0.433890
vt 0.094686 0.467662
vt 0.246917 0.926238
vt 0.246917 0.970249
vt 0.167277 0.869529
vt 0.125947 0.883299
vt 0.687295 0.886345
vt 0.566323 0.973295
vt 0.645973 0.872568
vt 0.566323 0.929283
vt 0.097054 0.472333
vt 0.067958 0.553626
vt 0.032278 0.564096
vt 0.073764 0.440448
vt 0.748302 0.443483
vt 0.788633 0.586896
vt 0.336882 0.248241
vt 0.485859 0.248241
vt 0.721620 0.477100
vn -0.0000 1.0000 0.0000
vn 0.5689 0.2236 -0.7914
vn 0.3147 -0.0952 0.9444
vn 0.9379 0.1826 -0.2949
vn -0.2802 -0.0995 -0.9548
vn 0.9240 0.2240 0.3100
vn -0.8036 -0.0986 0.5870
vn 0.5702 0.1829 0.8008
vn 0.8066 -0.0985 -0.5828
vn 0.0000 0.2239 0.9746
vn -0.8083 -0.0954 -0.5810
vn -0.5854 0.1829 0.7898
vn 0.7798 -0.0935 0.6190
vn -0.9382 0.2238 0.2639
vn -0.9382 0.2238 0.2638
vn 0.3521 -0.1029 -0.9303
vn -0.9321 0.1826 -0.3127
vn -0.3148 -0.0977 0.9441
vn -0.5689 0.2236 -0.7914
vn 0.9954 -0.0958 -0.0000
vn 0.0094 0.1824 -0.9832
vn -0.9951 -0.0984 -0.0000
vn -0.0000 -1.0000 -0.0000
usemtl FrontColor
s 1
f 36/36/3 37/37/3 38/38/3
f 39/39/4 40/40/4 41/41/4
f 39/39/5 42/42/5 43/43/5
f 44/44/6 42/42/6 45/45/6
f 46/46/7 47/47/7 44/44/7
f 48/48/8 49/49/8 46/46/8
f 48/48/9 50/50/9 51/51/9
f 52/52/10 53/53/10 50/50/10
f 54/54/11 53/53/11 37/55/11
f 55/56/12 56/57/12 54/54/12
f 55/56/13 57/58/13 58/59/13
f 59/60/14 57/58/14 36/61/14
f 60/62/15 61/63/15 59/60/15
f 60/62/16 62/64/16 63/65/17
f 64/66/18 65/67/18 62/64/18
f 66/68/19 65/67/19 38/69/19
f 67/70/20 68/71/20 66/68/20
f 69/72/21 70/73/21 67/70/21
f 69/72/22 71/74/22 72/75/22
f 73/76/23 74/77/23 71/74/23
f 41/41/24 74/77/24 75/78/24
f 53/79/25 57/80/25 65/81/25
f 45/82/3 39/83/3 41/84/3
f 45/82/3 41/84/3 75/85/3
f 48/86/3 46/87/3 44/88/3
f 44/88/3 45/82/3 52/89/3
f 45/82/3 75/85/3 52/89/3
f 73/90/3 69/91/3 66/92/3
f 69/91/3 67/93/3 66/92/3
f 75/85/3 73/90/3 38/38/3
f 37/37/3 75/85/3 38/38/3
f 52/89/3 48/86/3 44/88/3
f 55/94/3 54/95/3 37/37/3
f 37/37/3 52/89/3 75/85/3
f 38/38/3 64/96/3 60/97/3
f 73/90/3 66/92/3 38/38/3
f 36/36/3 55/94/3 37/37/3
f 38/38/3 60/97/3 59/98/3
f 59/98/3 36/36/3 38/38/3
f 39/39/4 43/43/4 40/40/4
f 39/39/5 45/45/5 42/42/5
f 44/44/6 47/47/6 42/42/6
f 46/46/7 49/49/7 47/47/7
f 48/48/8 51/51/8 49/49/8
f 48/48/9 52/52/9 50/50/9
f 52/52/10 37/55/10 53/53/10
f 54/54/11 56/57/11 53/53/11
f 55/56/12 58/59/12 56/57/12
f 55/56/13 36/61/13 57/58/13
f 59/60/14 61/63/14 57/58/14
f 60/62/15 63/65/15 61/63/15
f 60/62/16 64/66/16 62/64/16
f 64/66/18 38/69/18 65/67/18
f 66/68/19 68/71/19 65/67/19
f 67/70/20 70/73/20 68/71/20
f 69/72/21 72/75/21 70/73/21
f 69/72/22 73/76/22 71/74/22
f 73/76/23 75/78/23 74/77/23
f 41/41/24 40/40/24 74/77/24
f 74/99/25 40/100/25 42/101/25
f 40/100/25 43/102/25 42/101/25
f 70/103/25 72/104/25 68/105/25
f 72/104/25 71/106/25 68/105/25
f 71/106/25 74/99/25 65/81/25
f 74/99/25 42/101/25 50/107/25
f 65/81/25 74/99/25 53/79/25
f 47/108/25 49/109/25 51/110/25
f 42/101/25 47/108/25 50/107/25
f 63/111/25 62/112/25 65/81/25
f 65/81/25 68/105/25 71/106/25
f 47/108/25 51/110/25 50/107/25
f 53/79/25 56/113/25 58/114/25
f 50/107/25 53/79/25 74/99/25
f 61/115/25 63/111/25 65/81/25
f 53/79/25 58/114/25 57/80/25
f 57/80/25 61/115/25 65/81/25
