# Blender v2.82 (sub 7) OBJ File: 'chargeToken.blend'
# www.blender.org
mtllib flipToken.mtl
o Cylinder.002_Cylinder.018
v 0.874972 -0.099781 0.284296
v 0.874972 0.099868 0.284296
v 0.848224 0.099868 0.351853
v 0.848224 -0.099781 0.351853
v 0.867572 -0.099781 0.794983
v 0.867572 0.099868 0.794983
v 0.353738 0.099868 0.848306
v 0.353738 -0.099781 0.848306
v 0.338674 -0.099781 0.855395
v 0.338674 0.099868 0.855395
v 0.794983 -0.099781 0.867572
v 0.867571 -0.099781 0.794983
v 0.794983 0.099868 0.867572
v 0.867571 0.099868 0.794983
v 0.867572 0.099868 -0.794983
v 0.794983 0.099868 -0.867571
v 0.115307 -0.099781 -0.912746
v 0.000000 -0.099781 -0.920000
v 0.228795 -0.099781 -0.891097
v 0.338675 -0.099781 -0.855394
v 0.918185 -0.099781 0.057768
v 0.918185 -0.099781 -0.057767
v 0.874972 -0.099781 -0.284296
v 0.903704 -0.099781 -0.172391
v 0.903704 -0.099781 0.172391
v 0.874972 -0.099781 0.284296
v 0.338674 -0.099781 0.855395
v 0.228794 -0.099781 0.891097
v 0.115306 -0.099781 0.912746
v 0.867572 -0.099781 -0.794983
v 0.794983 -0.099781 -0.867571
v 0.115307 0.099868 -0.912746
v 0.000000 0.099868 -0.920000
v 0.228795 0.099868 -0.891097
v 0.338675 0.099868 -0.855394
v 0.918185 0.099868 0.057768
v 0.918185 0.099868 -0.057767
v 0.874972 0.099868 -0.284296
v 0.903704 0.099868 -0.172391
v 0.903704 0.099868 0.172391
v 0.874972 0.099868 0.284296
v 0.338674 0.099868 0.855395
v 0.228794 0.099868 0.891097
v 0.115306 0.099868 0.912746
v -0.115305 -0.099781 -0.912746
v -0.228793 -0.099781 -0.891097
v -0.338673 -0.099781 -0.855395
v -0.874972 -0.099781 -0.284297
v -0.903704 -0.099781 -0.172392
v -0.874972 -0.099781 0.284295
v -0.903705 -0.099781 0.172390
v -0.918185 -0.099781 -0.057769
v -0.918185 -0.099781 0.057766
v -0.000001 -0.099781 0.920000
v -0.115307 -0.099781 0.912745
v -0.228796 -0.099781 0.891096
v -0.338675 -0.099781 0.855394
v -0.867572 -0.099781 0.794983
v -0.794983 -0.099781 0.867571
v -0.794983 -0.099781 -0.867572
v -0.867571 -0.099781 -0.794983
v -0.794983 0.099868 -0.867572
v -0.867571 0.099868 -0.794983
v -0.115305 0.099868 -0.912746
v -0.228793 0.099868 -0.891097
v -0.338673 0.099868 -0.855395
v -0.874972 0.099868 -0.284297
v -0.903704 0.099868 -0.172392
v -0.874972 0.099868 0.284295
v -0.903705 0.099868 0.172390
v -0.918185 0.099868 -0.057769
v -0.918185 0.099868 0.057766
v -0.000001 0.099868 0.920000
v -0.115307 0.099868 0.912746
v -0.228796 0.099868 0.891096
v -0.338675 0.099868 0.855394
v -0.867572 0.099868 0.794983
v -0.794983 0.099868 0.867571
v -0.874972 -0.099781 -0.284297
v -0.874972 0.099868 -0.284297
v -0.867572 -0.099781 -0.794983
v -0.867572 0.099868 -0.794983
v -0.848224 0.099868 -0.351853
v -0.848224 -0.099781 -0.351853
v -0.874972 -0.099781 0.284295
v -0.874972 0.099868 0.284295
v -0.867572 -0.099781 0.794983
v -0.848224 -0.099781 0.351853
v -0.867572 0.099868 0.794983
v -0.848224 0.099868 0.351853
v -0.848224 -0.099781 0.351853
v -0.848224 -0.099781 0.351853
v -0.848224 0.099868 0.351853
v -0.338675 -0.099781 0.855394
v -0.338675 0.099868 0.855394
v -0.794983 -0.099781 0.867571
v -0.794983 0.099868 0.867571
v -0.353738 0.099868 0.848306
v -0.353738 -0.099781 0.848306
v 0.874972 -0.099781 -0.284296
v 0.874972 0.099868 -0.284296
v 0.867572 0.099868 -0.794983
v 0.867572 -0.099781 -0.794983
v 0.848224 0.099868 -0.351853
v 0.848224 -0.099781 -0.351853
v 0.338675 -0.099781 -0.855394
v 0.338675 0.099868 -0.855394
v 0.794983 0.099868 -0.867571
v 0.794983 -0.099781 -0.867571
v 0.353738 0.099868 -0.848306
v 0.353738 -0.099781 -0.848306
v -0.338673 -0.099781 -0.855395
v -0.338673 0.099868 -0.855395
v -0.353737 -0.099781 -0.848306
v -0.353737 0.099868 -0.848306
v -0.794983 -0.099781 -0.867572
v -0.794983 0.099868 -0.867572
vt 0.774993 0.619303
vt 0.754380 0.601445
vt 0.774993 0.601445
vt 0.754380 0.619303
vt 0.774993 0.736443
vt 0.754380 0.736443
vt 0.818075 0.601229
vt 0.838689 0.605211
vt 0.818075 0.605211
vt 0.668834 0.781160
vt 0.648220 0.752114
vt 0.668834 0.752114
vt 0.690066 0.722398
vt 0.669452 0.692098
vt 0.690066 0.692098
vt 0.690066 0.631256
vt 0.669452 0.601675
vt 0.690066 0.601675
vt 0.668834 0.631152
vt 0.648220 0.602106
vt 0.668834 0.602106
vt 0.690066 0.661556
vt 0.648220 0.722113
vt 0.668834 0.722113
vt 0.879706 0.620343
vt 0.860517 0.620343
vt 0.860517 0.599729
vt 0.690684 0.601675
vt 0.711298 0.631256
vt 0.690684 0.631256
vt 0.668834 0.661152
vt 0.648220 0.631152
vt 0.919234 0.620343
vt 0.900046 0.620343
vt 0.900046 0.599729
vt 0.938999 0.620343
vt 0.919810 0.620343
vt 0.919810 0.599729
vt 0.647602 0.874546
vt 0.626989 0.844546
vt 0.647602 0.844546
vt 0.648220 0.691633
vt 0.668834 0.691633
vt 0.690684 0.692098
vt 0.711298 0.722398
vt 0.690684 0.722398
vt 0.647602 0.753585
vt 0.626989 0.724538
vt 0.647602 0.724538
vt 0.647602 0.814065
vt 0.626989 0.783585
vt 0.647602 0.783585
vt 0.690684 0.661556
vt 0.711298 0.692098
vt 0.648220 0.661152
vt 0.880282 0.599729
vt 0.899470 0.599729
vt 0.899470 0.620343
vt 0.690066 0.751979
vt 0.669452 0.722398
vt 0.711298 0.661556
vt 0.626989 0.753585
vt 0.669452 0.631256
vt 0.647602 0.903593
vt 0.626989 0.874546
vt 0.626989 0.814065
vt 0.711298 0.751979
vt 0.690684 0.751979
vt 0.775611 0.718585
vt 0.796225 0.601445
vt 0.796225 0.718585
vt 0.775611 0.736443
vt 0.796225 0.736443
vt 0.732529 0.601445
vt 0.732529 0.718584
vt 0.711916 0.718584
vt 0.000000 0.000000
vt 0.000000 0.000000
vt 0.000000 0.000000
vt 0.711916 0.736443
vt 0.626989 0.720557
vt 0.626989 0.603915
vt 0.647602 0.720556
vt 0.838689 0.721853
vt 0.733148 0.619304
vt 0.753761 0.619303
vt 0.753761 0.736443
vt 0.733148 0.601445
vt 0.753761 0.601445
vt 0.859920 0.717871
vt 0.839307 0.717871
vt 0.839307 0.601229
vt 0.839307 0.721853
vt 0.796843 0.717871
vt 0.817457 0.721853
vt 0.796843 0.721853
vt 0.817457 0.601229
vt 0.817457 0.717871
vt 0.490258 0.153541
vt 0.485808 0.047364
vt 0.503304 0.029928
vt 0.898484 0.154253
vt 0.885869 0.030596
vt 0.903304 0.048092
vt 0.898187 0.324480
vt 0.902637 0.430657
vt 0.885141 0.448093
vt 0.502575 0.447425
vt 0.485140 0.429929
vt 0.489961 0.323768
vt 0.913889 0.211650
vt 0.915586 0.239397
vt 0.680708 0.018060
vt 0.708508 0.018108
vt 0.609918 0.034770
vt 0.472859 0.238624
vt 0.778526 0.443251
vt 0.762260 0.449659
vt 0.735322 0.456525
vt 0.779239 0.035065
vt 0.609206 0.442956
vt 0.181389 0.532143
vt 0.182101 0.940330
vt 0.062441 0.821559
vt 0.350709 0.531848
vt 0.470370 0.650619
vt 0.470667 0.820846
vt 0.074758 0.527674
vt 0.062144 0.651331
vt 0.057323 0.545170
vt 0.457324 0.527007
vt 0.475488 0.927007
vt 0.458052 0.944503
vt 0.075487 0.945171
vt 0.486072 0.763449
vt 0.480910 0.790765
vt 0.060729 0.817937
vt 0.052093 0.791514
vt 0.351422 0.940034
vt 0.335178 0.946498
vt 0.308264 0.953459
vt 0.252120 0.515186
vt 0.838689 0.601229
vt 0.648220 0.781160
vt 0.669452 0.661556
vt 0.879706 0.599729
vt 0.711298 0.601675
vt 0.919234 0.599729
vt 0.938999 0.599729
vt 0.880282 0.620343
vt 0.669452 0.751979
vt 0.626989 0.903593
vt 0.775612 0.601445
vt 0.711916 0.601445
vt 0.732529 0.736443
vt 0.647602 0.603915
vt 0.818075 0.721853
vt 0.733148 0.736443
vt 0.859920 0.601229
vt 0.859920 0.721853
vt 0.796843 0.601229
vt 0.913792 0.267138
vt 0.908535 0.294435
vt 0.899899 0.320859
vt 0.900183 0.157881
vt 0.908727 0.184334
vt 0.736081 0.021641
vt 0.762995 0.028601
vt 0.626185 0.028362
vt 0.653123 0.021496
vt 0.488262 0.320141
vt 0.479717 0.293687
vt 0.474556 0.266372
vt 0.474653 0.210883
vt 0.479910 0.183586
vt 0.488546 0.157162
vt 0.707736 0.459961
vt 0.679937 0.459913
vt 0.652364 0.456381
vt 0.625450 0.449420
vt 0.474820 0.544442
vt 0.057991 0.927736
vt 0.472366 0.817219
vt 0.487769 0.735702
vt 0.472081 0.654240
vt 0.480718 0.680663
vt 0.485975 0.707961
vt 0.046836 0.764216
vt 0.045042 0.736475
vt 0.046739 0.708728
vt 0.051900 0.681413
vt 0.060444 0.654959
vt 0.280690 0.956991
vt 0.252891 0.957040
vt 0.225305 0.953604
vt 0.198368 0.946737
vt 0.197632 0.525679
vt 0.224546 0.518719
vt 0.279919 0.515138
vt 0.307505 0.518574
vt 0.334443 0.525440
vn 0.9298 0.0000 0.3681
vn 0.9990 0.0000 -0.0436
vn 0.4258 -0.0000 0.9048
vn -0.3090 0.0000 -0.9511
vn -0.9921 -0.0000 0.1253
vn -0.9686 0.0000 -0.2487
vn 0.3090 0.0000 -0.9511
vn -1.0000 0.0000 -0.0000
vn -0.1874 0.0000 -0.9823
vn 0.7071 0.0000 -0.7071
vn 0.9686 0.0000 -0.2487
vn 0.1874 0.0000 -0.9823
vn 0.7071 0.0000 0.7071
vn -0.7071 -0.0000 0.7071
vn 0.1874 0.0000 0.9823
vn -0.0628 0.0000 -0.9980
vn 0.9921 0.0000 0.1253
vn -0.3090 0.0000 0.9511
vn -0.0628 -0.0000 0.9980
vn 1.0000 -0.0000 0.0000
vn 0.0628 0.0000 -0.9980
vn -0.7071 0.0000 -0.7071
vn -0.9686 0.0000 0.2487
vn 0.9921 0.0000 -0.1253
vn -0.1874 0.0000 0.9823
vn -0.9921 0.0000 -0.1253
vn 0.3090 -0.0000 0.9511
vn 0.0628 0.0000 0.9980
vn 0.9686 0.0000 0.2487
vn -0.9990 0.0000 0.0436
vn -0.9298 0.0000 -0.3681
vn -0.9990 -0.0000 -0.0436
vn 0.0000 0.0000 1.0000
vn -0.9298 0.0000 0.3681
vn -0.4258 0.0000 0.9048
vn 0.0436 -0.0000 0.9990
vn -0.0436 0.0000 0.9990
vn 0.9990 0.0000 0.0436
vn 0.9298 0.0000 -0.3681
vn -0.0436 0.0000 -0.9990
vn 0.4258 0.0000 -0.9048
vn -0.4258 0.0000 -0.9048
vn 0.0436 0.0000 -0.9990
vn 0.0000 -1.0000 -0.0000
vn 0.0000 1.0000 -0.0000
usemtl None
s off
f 3/1/1 1/2/1 2/3/1
f 4/4/2 6/5/2 5/6/2
f 10/7/3 8/8/3 7/9/3
f 47/10/4 65/11/4 46/12/4
f 51/13/5 72/14/5 53/15/5
f 49/16/6 67/17/6 48/18/6
f 19/19/7 35/20/7 20/21/7
f 72/14/8 52/22/8 53/15/8
f 46/12/9 64/23/9 45/24/9
f 30/25/10 31/26/10 16/27/10
f 23/28/11 39/29/11 24/30/11
f 17/31/12 34/32/12 19/19/12
f 11/33/13 12/34/13 14/35/13
f 58/36/14 59/37/14 78/38/14
f 28/39/15 44/40/15 29/41/15
f 45/24/16 33/42/16 18/43/16
f 21/44/17 40/45/17 25/46/17
f 56/47/18 95/48/18 94/49/18
f 54/50/19 74/51/19 55/52/19
f 22/53/20 36/54/20 21/44/20
f 18/43/21 32/55/21 17/31/21
f 60/56/22 61/57/22 63/58/22
f 50/59/23 70/60/23 51/13/23
f 22/53/24 39/29/24 37/61/24
f 55/52/25 75/62/25 56/47/25
f 52/22/26 68/63/26 49/16/26
f 27/64/27 43/65/27 28/39/27
f 29/41/28 73/66/28 54/50/28
f 25/46/29 41/67/29 26/68/29
f 83/69/30 81/70/30 84/71/30
f 80/72/31 84/71/31 79/73/31
f 89/74/32 93/75/32 92/76/32
f 88/77/33 93/78/33 92/79/33
f 85/80/34 92/76/34 93/75/34
f 98/81/35 94/49/35 95/48/35
f 97/82/36 99/83/36 98/81/36
f 11/84/37 7/9/37 8/8/37
f 104/85/38 105/86/38 103/87/38
f 101/88/39 100/89/39 105/86/39
f 111/90/40 110/91/40 108/92/40
f 107/93/41 110/91/41 111/90/41
f 114/94/42 113/95/42 112/96/42
f 114/94/43 117/97/43 115/98/43
f 99/99/44 96/100/44 87/101/44
f 114/102/44 81/103/44 116/104/44
f 111/105/44 109/106/44 103/107/44
f 12/108/44 11/109/44 8/110/44
f 45/111/44 18/112/44 114/102/44
f 53/113/44 52/114/44 92/115/44
f 99/99/44 8/110/44 54/116/44
f 105/117/44 100/118/44 24/119/44
f 114/102/44 105/117/44 84/120/44
f 8/110/44 99/99/44 92/115/44
f 4/121/44 84/120/44 105/117/44
f 83/122/45 104/123/45 110/124/45
f 93/125/45 98/126/45 7/127/45
f 82/128/45 115/129/45 117/130/45
f 98/126/45 93/125/45 89/131/45
f 7/127/45 13/132/45 14/133/45
f 110/124/45 104/123/45 102/134/45
f 44/135/45 43/136/45 7/127/45
f 110/124/45 107/137/45 34/138/45
f 3/139/45 104/123/45 83/122/45
f 3/139/45 41/140/45 40/141/45
f 93/125/45 83/122/45 71/142/45
f 3/1/1 4/4/1 1/2/1
f 4/4/2 3/1/2 6/5/2
f 10/7/3 9/143/3 8/8/3
f 47/10/4 66/144/4 65/11/4
f 51/13/5 70/60/5 72/14/5
f 49/16/6 68/63/6 67/17/6
f 19/19/7 34/32/7 35/20/7
f 72/14/8 71/145/8 52/22/8
f 46/12/9 65/11/9 64/23/9
f 30/25/10 16/27/10 15/146/10
f 23/28/11 38/147/11 39/29/11
f 17/31/12 32/55/12 34/32/12
f 11/33/13 14/35/13 13/148/13
f 58/36/14 78/38/14 77/149/14
f 28/39/15 43/65/15 44/40/15
f 45/24/16 64/23/16 33/42/16
f 21/44/17 36/54/17 40/45/17
f 56/47/18 75/62/18 95/48/18
f 54/50/19 73/66/19 74/51/19
f 22/53/20 37/61/20 36/54/20
f 18/43/21 33/42/21 32/55/21
f 60/56/22 63/58/22 62/150/22
f 50/59/23 69/151/23 70/60/23
f 22/53/24 24/30/24 39/29/24
f 55/52/25 74/51/25 75/62/25
f 52/22/26 71/145/26 68/63/26
f 27/64/27 42/152/27 43/65/27
f 29/41/28 44/40/28 73/66/28
f 25/46/29 40/45/29 41/67/29
f 83/69/30 82/153/30 81/70/30
f 80/72/31 83/69/31 84/71/31
f 89/74/32 92/76/32 87/154/32
f 85/80/34 93/75/34 86/155/34
f 98/81/35 99/83/35 94/49/35
f 97/82/36 96/156/36 99/83/36
f 11/84/37 13/157/37 7/9/37
f 104/85/38 103/87/38 102/158/38
f 101/88/39 105/86/39 104/85/39
f 111/90/40 108/92/40 109/159/40
f 107/93/41 111/90/41 106/160/41
f 114/94/42 115/98/42 113/95/42
f 114/94/43 116/161/43 117/97/43
f 99/99/44 87/101/44 92/115/44
f 114/102/44 84/120/44 81/103/44
f 111/105/44 103/107/44 105/117/44
f 12/108/44 8/110/44 4/121/44
f 18/112/44 17/162/44 111/105/44
f 17/162/44 19/163/44 111/105/44
f 19/163/44 106/164/44 111/105/44
f 111/105/44 114/102/44 18/112/44
f 114/102/44 112/165/44 46/166/44
f 45/111/44 114/102/44 46/166/44
f 52/114/44 49/167/44 84/120/44
f 49/167/44 79/168/44 84/120/44
f 84/120/44 92/115/44 52/114/44
f 92/115/44 85/169/44 51/170/44
f 51/170/44 53/113/44 92/115/44
f 8/110/44 27/171/44 28/172/44
f 28/172/44 29/173/44 8/110/44
f 29/173/44 54/116/44 8/110/44
f 54/116/44 55/174/44 99/99/44
f 55/174/44 56/175/44 99/99/44
f 56/175/44 94/176/44 99/99/44
f 24/119/44 22/177/44 105/117/44
f 22/177/44 21/178/44 105/117/44
f 21/178/44 25/179/44 4/121/44
f 25/179/44 26/180/44 4/121/44
f 4/121/44 105/117/44 21/178/44
f 114/102/44 111/105/44 105/117/44
f 8/110/44 92/115/44 4/121/44
f 4/121/44 92/115/44 84/120/44
f 83/122/45 110/124/45 115/129/45
f 93/125/45 7/127/45 3/139/45
f 82/128/45 83/122/45 115/129/45
f 98/126/45 89/131/45 97/181/45
f 7/127/45 14/133/45 3/139/45
f 110/124/45 102/134/45 108/182/45
f 43/136/45 42/183/45 7/127/45
f 7/127/45 98/126/45 73/184/45
f 98/126/45 95/185/45 75/186/45
f 74/187/45 98/126/45 75/186/45
f 74/187/45 73/184/45 98/126/45
f 73/184/45 44/135/45 7/127/45
f 34/138/45 32/188/45 110/124/45
f 32/188/45 33/189/45 110/124/45
f 33/189/45 64/190/45 115/129/45
f 64/190/45 65/191/45 115/129/45
f 65/191/45 113/192/45 115/129/45
f 115/129/45 110/124/45 33/189/45
f 3/139/45 83/122/45 93/125/45
f 40/141/45 36/193/45 3/139/45
f 36/193/45 37/194/45 3/139/45
f 37/194/45 39/195/45 104/123/45
f 39/195/45 101/196/45 104/123/45
f 104/123/45 3/139/45 37/194/45
f 80/197/45 68/198/45 83/122/45
f 68/198/45 71/142/45 83/122/45
f 71/142/45 72/199/45 93/125/45
f 72/199/45 70/200/45 93/125/45
f 70/200/45 86/201/45 93/125/45
l 76 57
l 91 85
l 90 86
l 90 93
