# Blender v2.91.0 OBJ File: ''
# www.blender.org
o PROTECAPETA.014
v 0.086700 3.434304 0.000005
v 0.086700 -0.033696 -0.000000
v 0.080100 3.434304 -0.033174
v 0.080100 3.434304 0.033183
v 0.061306 -0.033696 0.061306
v 0.080100 -0.033696 0.033179
v 0.061306 3.434304 0.061311
v 0.033179 3.434304 0.080105
v 0.000000 -0.033696 0.086700
v 0.033179 -0.033696 0.080100
v 0.000000 3.434304 0.086705
v -0.033179 3.434304 0.080105
v -0.061306 -0.033696 0.061306
v -0.033179 -0.033696 0.080100
v -0.061306 3.434304 0.061311
v -0.080100 3.434304 0.033183
v -0.086700 -0.033696 -0.000000
v -0.080100 -0.033696 0.033179
v -0.086700 3.434304 0.000005
v -0.080100 3.434304 -0.033174
v -0.061306 -0.033696 -0.061306
v -0.080100 -0.033696 -0.033179
v -0.061306 3.434304 -0.061302
v -0.033179 3.434304 -0.080096
v 0.000000 -0.033696 -0.086700
v -0.033179 -0.033696 -0.080100
v 0.000000 3.434304 -0.086695
v 0.033179 3.434304 -0.080096
v 0.061306 -0.033696 -0.061306
v 0.033179 -0.033696 -0.080100
v 0.061306 3.434304 -0.061302
v 0.080100 -0.033696 -0.033179
vt 0.888111 0.563822
vt 0.888111 0.027822
vt 0.893311 0.563822
vt 0.883011 0.563822
vt 0.878711 0.027822
vt 0.883011 0.027822
vt 0.878711 0.563822
vt 0.928611 0.563822
vt 0.933011 0.027822
vt 0.933011 0.563822
vt 0.923511 0.027822
vt 0.928611 0.027822
vt 0.923511 0.563822
vt 0.918411 0.563822
vt 0.914011 0.027822
vt 0.918411 0.027822
vt 0.914011 0.563822
vt 0.964011 0.563822
vt 0.968311 0.027822
vt 0.968311 0.563822
vt 0.958911 0.027822
vt 0.964011 0.027822
vt 0.958911 0.563822
vt 0.953711 0.563822
vt 0.949411 0.027822
vt 0.953711 0.027822
vt 0.949411 0.563822
vt 0.857911 0.563822
vt 0.862311 0.027822
vt 0.862311 0.563822
vt 0.852811 0.027822
vt 0.857911 0.027822
vt 0.852811 0.563822
vt 0.847711 0.563822
vt 0.843311 0.027822
vt 0.847711 0.027822
vt 0.843311 0.563822
vt 0.893311 0.027822
vt 0.897611 0.027822
vt 0.897611 0.563822
vn 0.7462 0.6657 -0.0000
vn 0.7462 -0.6657 0.0000
vn 0.9145 -0.0186 -0.4042
vn 0.9145 -0.0186 0.4042
vn 0.5277 -0.6657 0.5276
vn 0.6894 -0.6657 0.2856
vn 0.7071 -0.0000 0.7071
vn 0.3827 -0.0000 0.9239
vn 0.0000 -0.6657 0.7462
vn 0.2856 -0.6657 0.6894
vn 0.0000 -0.0000 1.0000
vn -0.3827 -0.0000 0.9239
vn -0.5278 -0.6657 0.5275
vn -0.2856 -0.6657 0.6894
vn -0.7071 -0.0000 0.7071
vn -0.9239 -0.0000 0.3827
vn -0.7462 -0.6657 -0.0000
vn -0.6894 -0.6657 0.2856
vn -1.0000 0.0000 0.0000
vn -0.9239 0.0000 -0.3827
vn -0.5278 -0.6657 -0.5275
vn -0.6894 -0.6657 -0.2856
vn -0.7071 0.0000 -0.7071
vn -0.3827 0.0000 -0.9239
vn 0.0000 -0.6657 -0.7462
vn -0.2856 -0.6657 -0.6894
vn 0.0000 0.0000 -1.0000
vn 0.3827 0.0000 -0.9239
vn 0.5276 -0.6657 -0.5277
vn 0.2856 -0.6657 -0.6894
vn 0.7071 0.0000 -0.7071
vn 0.6894 -0.6657 -0.2856
s 1
f 1/1/1 2/2/2 3/3/3
f 4/4/4 2/2/2 1/1/1
f 4/4/4 5/5/5 6/6/6
f 7/7/7 5/5/5 4/4/4
f 8/8/8 5/9/5 7/10/7
f 8/8/8 9/11/9 10/12/10
f 11/13/11 9/11/9 8/8/8
f 12/14/12 9/11/9 11/13/11
f 12/14/12 13/15/13 14/16/14
f 15/17/15 13/15/13 12/14/12
f 16/18/16 13/19/13 15/20/15
f 16/18/16 17/21/17 18/22/18
f 19/23/19 17/21/17 16/18/16
f 20/24/20 17/21/17 19/23/19
f 20/24/20 21/25/21 22/26/22
f 23/27/23 21/25/21 20/24/20
f 24/28/24 21/29/21 23/30/23
f 24/28/24 25/31/25 26/32/26
f 27/33/27 25/31/25 24/28/24
f 28/34/28 25/31/25 27/33/27
f 28/34/28 29/35/29 30/36/30
f 31/37/31 29/35/29 28/34/28
f 3/3/3 2/2/2 32/38/32
f 3/3/3 29/39/29 31/40/31
f 6/6/6 2/2/2 4/4/4
f 10/12/10 5/9/5 8/8/8
f 14/16/14 9/11/9 12/14/12
f 18/22/18 13/19/13 16/18/16
f 22/26/22 17/21/17 20/24/20
f 26/32/26 21/29/21 24/28/24
f 30/36/30 25/31/25 28/34/28
f 32/38/32 29/39/29 3/3/3
