# Blender v2.82 (sub 7) OBJ File: 'probedroidarc.blend'
# www.blender.org
o Circle.023_Circle.002
v 0.000000 0.000000 -0.000000
v 0.362064 0.000000 -11.694491
v 6.921361 0.000000 -9.511484
v 6.154182 0.000000 -10.034651
v 5.493471 0.000000 -10.415876
v 4.807760 0.000000 -10.750113
v 4.100390 0.000000 -11.035731
v 3.374807 0.000000 -11.271341
v 2.634547 0.000000 -11.455793
v 1.883215 0.000000 -11.588189
v 1.124472 0.000000 -11.667885
v 11.236156 0.000000 -3.231026
v 11.026720 0.000000 -3.952882
v 10.765782 0.000000 -4.669356
v 10.455473 0.000000 -5.365895
v 10.097301 0.000000 -6.039103
v 9.693011 0.000000 -6.685702
v 9.244575 0.000000 -7.302542
v 8.754176 0.000000 -7.886616
v 8.224203 0.000000 -8.435080
v 7.657240 0.000000 -8.945261
v 11.189128 -0.000000 3.646740
v 11.445605 -0.000000 2.776152
v 11.604223 -0.000000 2.030356
v 11.710401 -0.000000 1.275318
v 11.763617 -0.000000 0.514718
v 11.763616 -0.000000 -0.247738
v 11.710395 -0.000000 -1.008338
v 11.604215 -0.000000 -1.763375
v 11.445591 -0.000000 -2.509170
v 7.172297 -0.000000 9.246219
v 7.773487 -0.000000 8.776802
v 8.340447 -0.000000 8.266618
v 8.870417 -0.000000 7.718151
v 9.360811 -0.000000 7.134076
v 9.809244 -0.000000 6.517234
v 10.213530 -0.000000 5.870634
v 10.571698 -0.000000 5.197423
v 10.882006 -0.000000 4.500883
v -0.004124 -0.000000 11.760454
v 0.924201 -0.000000 11.733842
v 1.682943 -0.000000 11.654142
v 2.434274 -0.000000 11.521744
v 3.174534 -0.000000 11.337288
v 3.900115 -0.000000 11.101674
v 4.607484 -0.000000 10.816051
v 5.293193 -0.000000 10.481811
v 5.953902 -0.000000 10.100582
v 6.586392 -0.000000 9.674220
v -6.594645 -0.000000 9.674233
v -5.962154 -0.000000 10.100595
v -5.301445 -0.000000 10.481821
v -4.615735 -0.000000 10.816061
v -3.908366 -0.000000 11.101682
v -3.182783 -0.000000 11.337293
v -2.442523 -0.000000 11.521749
v -1.691192 -0.000000 11.654147
v -0.932450 -0.000000 11.733845
v -11.239505 -0.000000 -3.292830
v -11.449794 -0.000000 -2.559911
v -11.608414 -0.000000 -1.814116
v -11.714593 -0.000000 -1.059081
v -11.767811 -0.000000 -0.298482
v -11.767811 -0.000000 0.463973
v -11.714593 -0.000000 1.224572
v -11.608415 -0.000000 1.979608
v -11.449794 -0.000000 2.725402
v -11.299746 -0.000000 3.251536
v -11.149699 -0.000000 3.777671
v -10.888765 -0.000000 4.494144
v -10.578456 -0.000000 5.190683
v -10.220286 -0.000000 5.863893
v -9.815999 -0.000000 6.510493
v -9.367565 -0.000000 7.127334
v -8.877169 -0.000000 7.711411
v -8.347198 -0.000000 8.259876
v -7.780238 -0.000000 8.770060
v -7.179047 -0.000000 9.239474
v -6.908510 0.000000 -9.518243
v -7.644390 0.000000 -8.952020
v -8.211350 0.000000 -8.441835
v -8.741320 0.000000 -7.893371
v -9.231716 0.000000 -7.309295
v -9.680150 0.000000 -6.692455
v -10.084436 0.000000 -6.045856
v -10.442606 0.000000 -5.372647
v -10.752914 0.000000 -4.676109
v -11.013848 0.000000 -3.959635
v -0.349178 0.000000 -11.701273
v -1.111635 0.000000 -11.674664
v -1.870376 0.000000 -11.594966
v -2.621707 0.000000 -11.462567
v -3.361965 0.000000 -11.278111
v -4.087546 0.000000 -11.042500
v -4.794914 0.000000 -10.756879
v -5.480623 0.000000 -10.422641
v -6.141332 0.000000 -10.041412
vt 0.509314 0.018265
vt 0.503189 0.895105
vt 0.509314 0.018264
vt 0.509314 0.018266
vt 0.509313 0.018267
vt 0.509313 0.018266
vt 0.509313 0.018268
vt 0.509312 0.018269
vt 0.509312 0.018269
vt 0.509311 0.018270
vt 0.509311 0.018271
vt 0.509310 0.018271
vt 0.509310 0.018272
vt 0.509309 0.018272
vt 0.509308 0.018273
vt 0.509308 0.018273
vt 0.509307 0.018274
vt 0.509314 0.018264
vt 0.509314 0.018263
vt 0.509304 0.018275
vt 0.509305 0.018275
vt 0.509303 0.018275
vt 0.509302 0.018275
vt 0.509301 0.018275
vt 0.509300 0.018275
vt 0.509299 0.018275
vt 0.509299 0.018275
vt 0.509298 0.018275
vt 0.509297 0.018274
vt 0.509296 0.018274
vt 0.509295 0.018274
vt 0.509295 0.018273
vt 0.509294 0.018273
vt 0.509293 0.018272
vt 0.509293 0.018272
vt 0.509292 0.018271
vt 0.509291 0.018271
vt 0.509291 0.018270
vt 0.509306 0.018274
vt 0.509305 0.018274
vt 0.509289 0.018266
vt 0.509289 0.018267
vt 0.509289 0.018265
vt 0.509288 0.018264
vt 0.509288 0.018264
vt 0.509288 0.018263
vt 0.509288 0.018262
vt 0.509288 0.018261
vt 0.509288 0.018260
vt 0.509289 0.018259
vt 0.509289 0.018259
vt 0.509289 0.018258
vt 0.509289 0.018257
vt 0.509290 0.018256
vt 0.509290 0.018256
vt 0.509290 0.018255
vt 0.509291 0.018254
vt 0.509292 0.018253
vt 0.509290 0.018269
vt 0.509290 0.018268
vt 0.509292 0.018253
vt 0.509290 0.018269
vt 0.509296 0.018250
vt 0.509295 0.018251
vt 0.509297 0.018250
vt 0.509297 0.018250
vt 0.509298 0.018250
vt 0.509299 0.018249
vt 0.509300 0.018249
vt 0.509301 0.018249
vt 0.509302 0.018249
vt 0.509302 0.018249
vt 0.509303 0.018249
vt 0.509304 0.018250
vt 0.509305 0.018250
vt 0.509306 0.018250
vt 0.509294 0.018252
vt 0.509294 0.018251
vt 0.509306 0.018250
vt 0.509293 0.018252
vt 0.509309 0.018252
vt 0.509308 0.018251
vt 0.509310 0.018252
vt 0.509310 0.018253
vt 0.509311 0.018253
vt 0.509311 0.018254
vt 0.509312 0.018255
vt 0.509312 0.018256
vt 0.509313 0.018256
vt 0.509313 0.018257
vt 0.509313 0.018258
vt 0.509314 0.018259
vt 0.509314 0.018259
vt 0.509314 0.018260
vt 0.509314 0.018261
vt 0.509314 0.018262
vt 0.509307 0.018251
vn -0.0000 1.0000 0.0000
s off
f 67/1/1 1/2/1 66/3/1
f 68/4/1 1/2/1 67/1/1
f 70/5/1 1/2/1 69/6/1
f 71/7/1 1/2/1 70/5/1
f 72/8/1 1/2/1 71/7/1
f 73/9/1 1/2/1 72/8/1
f 74/10/1 1/2/1 73/9/1
f 75/11/1 1/2/1 74/10/1
f 76/12/1 1/2/1 75/11/1
f 77/13/1 1/2/1 76/12/1
f 78/14/1 1/2/1 77/13/1
f 50/15/1 1/2/1 78/14/1
f 50/15/1 51/16/1 1/2/1
f 1/2/1 51/16/1 52/17/1
f 65/18/1 1/2/1 64/19/1
f 66/3/1 1/2/1 65/18/1
f 69/6/1 1/2/1 68/4/1
f 56/20/1 1/2/1 55/21/1
f 57/22/1 1/2/1 56/20/1
f 58/23/1 1/2/1 57/22/1
f 40/24/1 1/2/1 58/23/1
f 41/25/1 1/2/1 40/24/1
f 42/26/1 1/2/1 41/25/1
f 43/27/1 1/2/1 42/26/1
f 44/28/1 1/2/1 43/27/1
f 45/29/1 1/2/1 44/28/1
f 46/30/1 1/2/1 45/29/1
f 47/31/1 1/2/1 46/30/1
f 48/32/1 1/2/1 47/31/1
f 49/33/1 1/2/1 48/32/1
f 31/34/1 1/2/1 49/33/1
f 32/35/1 1/2/1 31/34/1
f 33/36/1 1/2/1 32/35/1
f 33/36/1 34/37/1 1/2/1
f 1/2/1 34/37/1 35/38/1
f 53/39/1 1/2/1 52/17/1
f 54/40/1 1/2/1 53/39/1
f 55/21/1 1/2/1 54/40/1
f 22/41/1 1/2/1 39/42/1
f 23/43/1 1/2/1 22/41/1
f 24/44/1 1/2/1 23/43/1
f 25/45/1 1/2/1 24/44/1
f 26/46/1 1/2/1 25/45/1
f 27/47/1 1/2/1 26/46/1
f 28/48/1 1/2/1 27/47/1
f 29/49/1 1/2/1 28/48/1
f 30/50/1 1/2/1 29/49/1
f 12/51/1 1/2/1 30/50/1
f 13/52/1 1/2/1 12/51/1
f 14/53/1 1/2/1 13/52/1
f 15/54/1 1/2/1 14/53/1
f 16/55/1 1/2/1 15/54/1
f 17/56/1 1/2/1 16/55/1
f 18/57/1 1/2/1 17/56/1
f 19/58/1 1/2/1 18/57/1
f 37/59/1 38/60/1 1/2/1
f 1/2/1 19/58/1 20/61/1
f 36/62/1 1/2/1 35/38/1
f 37/59/1 1/2/1 36/62/1
f 39/42/1 1/2/1 38/60/1
f 6/63/1 1/2/1 5/64/1
f 7/65/1 1/2/1 6/63/1
f 8/66/1 1/2/1 7/65/1
f 9/67/1 1/2/1 8/66/1
f 10/68/1 1/2/1 9/67/1
f 11/69/1 1/2/1 10/68/1
f 2/70/1 1/2/1 11/69/1
f 89/71/1 1/2/1 2/70/1
f 90/72/1 1/2/1 89/71/1
f 91/73/1 1/2/1 90/72/1
f 92/74/1 1/2/1 91/73/1
f 93/75/1 1/2/1 92/74/1
f 94/76/1 1/2/1 93/75/1
f 3/77/1 4/78/1 1/2/1
f 1/2/1 94/76/1 95/79/1
f 21/80/1 1/2/1 20/61/1
f 3/77/1 1/2/1 21/80/1
f 5/64/1 1/2/1 4/78/1
f 79/81/1 1/2/1 97/82/1
f 80/83/1 1/2/1 79/81/1
f 81/84/1 1/2/1 80/83/1
f 82/85/1 1/2/1 81/84/1
f 83/86/1 1/2/1 82/85/1
f 84/87/1 1/2/1 83/86/1
f 85/88/1 1/2/1 84/87/1
f 86/89/1 1/2/1 85/88/1
f 87/90/1 1/2/1 86/89/1
f 88/91/1 1/2/1 87/90/1
f 59/92/1 1/2/1 88/91/1
f 60/93/1 1/2/1 59/92/1
f 61/94/1 1/2/1 60/93/1
f 62/95/1 1/2/1 61/94/1
f 63/96/1 1/2/1 62/95/1
f 1/2/1 63/96/1 64/19/1
f 96/97/1 1/2/1 95/79/1
f 97/82/1 1/2/1 96/97/1
