# Blender v2.92.0 OBJ File: ''
# www.blender.org
mtllib Medium.mtl
o Cylinder.019
v -0.240775 3.100551 -1.422688
v -0.235398 3.083967 -1.429229
v -0.235398 3.083967 -1.250118
v -0.240775 3.100551 -1.256661
vt 0.882700 0.125536
vt 0.880900 0.130136
vt 0.929000 0.130136
vt 0.927200 0.125536
vn -0.9512 -0.3084 0.0000
usemtl image.001
s 1
f 1/1/1 2/2/1 3/3/1 4/4/1
o Cylinder.163_Cylinder.170
v 0.760087 -0.145255 1.808836
v 0.749255 -0.004745 1.849262
v 0.749255 -0.145255 1.849262
v 0.679236 -0.145255 1.889687
v 0.561715 -0.145255 1.808836
v 0.642566 -0.004745 1.889687
v 0.642566 -0.145255 1.889687
v 0.719661 -0.145255 1.878855
v 0.719661 -0.004745 1.878855
v 0.679236 -0.004745 1.889687
v 0.602140 -0.145255 1.878855
v 0.602140 -0.004745 1.878855
v 0.572547 -0.004745 1.849262
v 0.572547 -0.145255 1.849262
v 0.561715 -0.004745 1.808836
v -0.679236 -0.145255 1.889687
v -0.719662 -0.004745 1.878855
v -0.719662 -0.145255 1.878855
v -0.760087 -0.145255 1.808836
v -0.561715 -0.145255 1.808836
v -0.760087 -0.004745 1.808836
v -0.760087 -0.004745 1.743413
v -0.760087 -0.012317 1.743413
v -0.749255 -0.145255 1.849262
v -0.749255 -0.004745 1.849262
v -0.602140 -0.145255 1.878855
v -0.642566 -0.145255 1.889687
v -0.572547 -0.004745 1.849262
v -0.572547 -0.145255 1.849262
v -0.642566 -0.004745 1.889687
v -0.602140 -0.004745 1.878855
v 0.760087 -0.004745 1.808836
v -0.679236 -0.004745 1.889687
v -0.561715 -0.004745 1.808836
v -0.561715 -0.004745 1.743413
v -0.572406 -0.004745 1.743413
v 0.749396 -0.145255 1.743413
v 0.760087 -0.145255 1.743413
v 0.561715 -0.004745 1.743413
v 0.561715 -0.012317 1.743413
v -0.561715 -0.145255 1.743413
v -0.561715 -0.012317 1.743413
v -0.749396 -0.145255 1.743413
v -0.760087 -0.145255 1.743413
v 0.760087 -0.004745 1.743413
v 0.572407 -0.004745 1.743413
v 0.561715 -0.145255 1.743413
v 0.760087 -0.137682 1.743413
vt 0.902372 0.169693
vt 0.902372 0.169593
vt 0.902372 0.169693
vt 0.902272 0.169293
vt 0.902272 0.169293
vt 0.902272 0.169293
vt 0.902372 0.169593
vt 0.902272 0.169693
vt 0.902272 0.169593
vt 0.902372 0.169593
vt 0.902372 0.169693
vt 0.902372 0.169693
vt 0.902272 0.169293
vt 0.902272 0.169293
vt 0.902272 0.169593
vt 0.902272 0.169693
vt 0.902272 0.169693
vt 0.902372 0.169693
vt 0.902372 0.169593
vt 0.902372 0.169693
vt 0.902272 0.169593
vt 0.902272 0.169693
vt 0.902272 0.169593
vt 0.902272 0.169293
vt 0.902272 0.169293
vt 0.902272 0.169293
vt 0.902372 0.169693
vt 0.902372 0.169593
vt 0.902372 0.169593
vt 0.902372 0.169593
vt 0.902272 0.169293
vt 0.902272 0.169293
vt 0.902372 0.169693
vt 0.902372 0.169593
vt 0.902272 0.169293
vt 0.902272 0.169293
vt 0.902372 0.169693
vt 0.902372 0.169593
vt 0.902372 0.169693
vt 0.902272 0.169593
vt 0.902272 0.169693
vt 0.902272 0.169593
vt 0.902272 0.169693
vt 0.902272 0.169593
vt 0.902272 0.169693
vt 0.902272 0.169693
vt 0.902272 0.169693
vt 0.902272 0.169693
vt 0.902272 0.169693
vt 0.902272 0.169693
vt 0.902272 0.169693
vt 0.902272 0.169693
vt 0.902272 0.169693
vt 0.902272 0.169693
vt 0.902272 0.169293
vt 0.902272 0.169293
vt 0.902272 0.169293
vt 0.902272 0.169293
vt 0.902372 0.169593
vt 0.902372 0.169693
vt 0.902372 0.169593
vt 0.902372 0.169593
vt 0.902272 0.169293
vt 0.902272 0.169693
vt 0.902272 0.169593
vt 0.902272 0.169293
vt 0.902272 0.169693
vt 0.902372 0.169593
vt 0.902372 0.169593
vt 0.902372 0.169593
vt 0.902272 0.169593
vt 0.902372 0.169693
vt 0.902372 0.169593
vt 0.902272 0.169293
vt 0.902272 0.169293
vt 0.902372 0.169693
vt 0.902272 0.169293
vt 0.902272 0.169693
vt 0.902272 0.169693
vt 0.902272 0.169693
vt 0.902372 0.169693
vt 0.902372 0.169693
vt 0.902372 0.169693
vt 0.902372 0.169593
vt 0.902272 0.169293
vt 0.902272 0.169693
vt 0.000000 0.000000
vt 0.000000 0.000000
vt 0.000000 0.000000
vt 0.000000 0.000000
vt 0.000000 0.000000
vt 0.000000 0.000000
vt 0.000000 0.000000
vt 0.000000 0.000000
vt 0.000000 0.000000
vt 0.000000 0.000000
vt 0.000000 0.000000
vt 0.000000 0.000000
vt 0.000000 0.000000
vt 0.000000 0.000000
vt 0.000000 0.000000
vt 0.000000 0.000000
vt 0.902372 0.169593
vn 0.9659 0.0000 0.2588
vn -0.0000 -1.0000 -0.0000
vn 0.0000 0.0000 1.0000
vn 0.2588 0.0000 0.9659
vn -0.7071 0.0000 0.7071
vn -0.9659 0.0000 0.2588
vn -0.2588 0.0000 0.9659
vn -1.0000 0.0000 0.0000
vn 0.7071 0.0000 0.7071
vn 0.0000 1.0000 0.0000
vn 1.0000 0.0000 0.0000
vn -0.0000 0.0000 -1.0000
usemtl Stand_sep29_auv.004
s 1
f 5/5/2 6/6/2 7/7/2
f 8/8/3 9/9/3 5/10/3
f 8/11/4 10/12/4 11/13/4
f 12/14/5 13/15/5 14/16/5
f 11/17/3 15/18/3 9/9/3
f 15/19/6 16/20/6 17/21/6
f 18/22/7 19/23/7 9/24/7
f 20/25/8 21/26/8 22/27/8
f 23/28/3 24/29/3 20/30/3
f 23/31/9 25/32/9 26/33/9 27/34/9
f 22/35/3 28/36/3 23/28/3
f 28/37/7 29/38/7 25/32/7
f 24/29/3 30/39/3 31/40/3
f 24/41/2 32/42/2 33/43/2
f 31/44/4 34/45/4 20/25/4
f 33/46/10 35/47/10 30/48/10
f 36/49/11 10/12/11 14/50/11
f 13/51/11 6/52/11 36/49/11
f 19/53/11 16/20/11 10/12/11
f 25/54/11 21/26/11 37/55/11
f 25/54/11 38/56/11 39/57/11 40/58/11
f 34/45/11 35/47/11 38/56/11
f 5/10/3 9/9/3 41/59/3 42/60/3
f 7/61/3 12/62/3 5/10/3
f 7/63/10 6/64/10 13/15/10
f 11/17/3 9/9/3 8/8/3
f 9/24/9 19/23/9 43/65/9 44/66/9
f 15/18/3 18/67/3 9/9/3
f 20/30/3 22/35/3 23/28/3
f 22/27/6 29/68/6 28/69/6
f 28/37/7 25/32/7 23/31/7
f 24/29/3 31/40/3 20/30/3
f 33/70/3 30/39/3 24/29/3
f 33/46/10 32/71/10 35/47/10
f 30/48/5 35/47/5 34/45/5
f 14/50/11 13/51/11 36/49/11
f 14/16/4 10/12/4 8/11/4
f 36/72/2 6/6/2 5/5/2
f 19/53/11 10/12/11 36/49/11
f 10/12/8 16/20/8 11/13/8
f 17/21/11 16/20/11 19/53/11
f 37/55/8 21/26/8 20/25/8
f 37/55/11 34/45/11 25/54/11
f 29/68/11 21/26/11 25/54/11
f 38/73/2 32/42/2 24/41/2
f 7/63/10 13/15/10 12/14/10
f 12/14/5 14/16/5 8/11/5
f 11/13/8 16/20/8 15/19/8
f 18/22/7 17/74/7 19/23/7
f 20/25/4 34/45/4 37/55/4
f 22/27/6 21/26/6 29/68/6
f 30/48/5 34/45/5 31/44/5
f 34/45/11 38/56/11 25/54/11
f 35/47/11 32/71/11 38/56/11
f 5/10/3 12/62/3 8/8/3
f 15/19/6 17/21/6 18/75/6
f 45/76/12 46/77/12 24/41/12
f 47/78/3 45/79/3 24/29/3
f 27/34/9 48/80/9 23/31/9
f 48/81/3 47/78/3 24/29/3 23/28/3
f 49/82/11 50/83/11 36/49/11
f 50/83/11 43/84/11 19/53/11 36/49/11
f 44/66/9 51/85/9 9/24/9
f 42/86/12 52/87/12 36/72/12 5/5/12
f 46/77/12 39/88/12 38/73/12 24/41/12
f 51/89/3 41/59/3 9/9/3
f 40/58/11 26/90/11 25/54/11
f 49/91/13 52/92/13 42/93/13 41/94/13 51/95/13 44/96/13 43/97/13 50/98/13
f 45/99/13 47/100/13 48/101/13 27/102/13 26/103/13 40/104/13 39/105/13 46/106/13
f 52/87/12 49/107/12 36/72/12
o Cylinder.041
v 0.228055 3.111224 -1.422688
v 0.212656 3.103049 -1.429229
v 0.212656 3.103049 -1.250118
v 0.228055 3.111224 -1.256661
vt 0.882700 0.125536
vt 0.880900 0.130136
vt 0.929000 0.130136
vt 0.927200 0.125536
vn -0.4689 0.8833 0.0000
usemtl image.001
s 1
f 53/108/14 54/109/14 55/110/14 56/111/14
o Cylinder.162_Cylinder.169
v -0.760087 -0.145255 -1.811086
v -0.749255 -0.004745 -1.851512
v -0.749255 -0.145255 -1.851512
v -0.679236 -0.145255 -1.891937
v -0.561715 -0.145255 -1.811086
v -0.642566 -0.004745 -1.891937
v -0.642566 -0.145255 -1.891937
v -0.719661 -0.145255 -1.881105
v -0.719661 -0.004745 -1.881105
v -0.679236 -0.004745 -1.891937
v -0.602140 -0.145255 -1.881105
v -0.602140 -0.004745 -1.881105
v -0.572547 -0.004745 -1.851512
v -0.572547 -0.145255 -1.851512
v -0.561715 -0.004745 -1.811086
v 0.679236 -0.145255 -1.891937
v 0.719662 -0.004745 -1.881105
v 0.719662 -0.145255 -1.881105
v 0.760087 -0.145255 -1.811086
v 0.561715 -0.145255 -1.811086
v 0.760087 -0.004745 -1.811086
v 0.760087 -0.004745 -1.745664
v 0.760087 -0.012317 -1.745664
v 0.749255 -0.145255 -1.851512
v 0.749255 -0.004745 -1.851512
v 0.602140 -0.145255 -1.881105
v 0.642566 -0.145255 -1.891937
v 0.572547 -0.004745 -1.851512
v 0.572547 -0.145255 -1.851512
v 0.642566 -0.004745 -1.891937
v 0.602140 -0.004745 -1.881105
v -0.760087 -0.004745 -1.811086
v 0.679236 -0.004745 -1.891937
v 0.561715 -0.004745 -1.811086
v 0.561715 -0.004745 -1.745664
v 0.572406 -0.004745 -1.745664
v -0.749396 -0.145255 -1.745664
v -0.760087 -0.145255 -1.745664
v -0.561715 -0.004745 -1.745664
v -0.561715 -0.012317 -1.745664
v 0.561715 -0.145255 -1.745664
v 0.561715 -0.012317 -1.745664
v 0.749396 -0.145255 -1.745664
v 0.760087 -0.145255 -1.745664
v -0.760087 -0.004745 -1.745664
v -0.572406 -0.004745 -1.745664
v -0.561715 -0.145255 -1.745664
v -0.760087 -0.137682 -1.745664
vt 0.902372 0.169693
vt 0.902372 0.169593
vt 0.902372 0.169693
vt 0.902272 0.169293
vt 0.902272 0.169293
vt 0.902272 0.169293
vt 0.902372 0.169593
vt 0.902272 0.169693
vt 0.902272 0.169593
vt 0.902372 0.169593
vt 0.902372 0.169693
vt 0.902372 0.169693
vt 0.902272 0.169293
vt 0.902272 0.169293
vt 0.902272 0.169593
vt 0.902272 0.169693
vt 0.902272 0.169693
vt 0.902372 0.169693
vt 0.902372 0.169593
vt 0.902372 0.169693
vt 0.902272 0.169593
vt 0.902272 0.169693
vt 0.902272 0.169593
vt 0.902272 0.169293
vt 0.902272 0.169293
vt 0.902272 0.169293
vt 0.902372 0.169693
vt 0.902372 0.169593
vt 0.902372 0.169593
vt 0.902372 0.169593
vt 0.902272 0.169293
vt 0.902272 0.169293
vt 0.902372 0.169693
vt 0.902372 0.169593
vt 0.902272 0.169293
vt 0.902272 0.169293
vt 0.902372 0.169693
vt 0.902372 0.169593
vt 0.902372 0.169693
vt 0.902272 0.169593
vt 0.902272 0.169693
vt 0.902272 0.169593
vt 0.902272 0.169693
vt 0.902272 0.169593
vt 0.902272 0.169693
vt 0.902272 0.169693
vt 0.902272 0.169693
vt 0.902272 0.169693
vt 0.902272 0.169693
vt 0.902272 0.169693
vt 0.902272 0.169693
vt 0.902272 0.169693
vt 0.902272 0.169693
vt 0.902272 0.169693
vt 0.902272 0.169293
vt 0.902272 0.169293
vt 0.902272 0.169293
vt 0.902272 0.169293
vt 0.902372 0.169593
vt 0.902372 0.169693
vt 0.902372 0.169593
vt 0.902372 0.169593
vt 0.902272 0.169293
vt 0.902272 0.169693
vt 0.902272 0.169593
vt 0.902272 0.169293
vt 0.902272 0.169693
vt 0.902372 0.169593
vt 0.902372 0.169593
vt 0.902372 0.169593
vt 0.902272 0.169593
vt 0.902372 0.169693
vt 0.902372 0.169593
vt 0.902272 0.169293
vt 0.902272 0.169293
vt 0.902372 0.169693
vt 0.902272 0.169293
vt 0.902272 0.169693
vt 0.902272 0.169693
vt 0.902272 0.169693
vt 0.902372 0.169693
vt 0.902372 0.169693
vt 0.902372 0.169693
vt 0.902372 0.169593
vt 0.902272 0.169293
vt 0.902272 0.169693
vt 0.000000 0.000000
vt 0.000000 0.000000
vt 0.000000 0.000000
vt 0.000000 0.000000
vt 0.000000 0.000000
vt 0.000000 0.000000
vt 0.000000 0.000000
vt 0.000000 0.000000
vt 0.000000 0.000000
vt 0.000000 0.000000
vt 0.000000 0.000000
vt 0.000000 0.000000
vt 0.000000 0.000000
vt 0.000000 0.000000
vt 0.000000 0.000000
vt 0.000000 0.000000
vt 0.902372 0.169593
vn -0.9659 0.0000 -0.2588
vn -0.0000 -1.0000 -0.0000
vn 0.0000 0.0000 -1.0000
vn -0.2588 0.0000 -0.9659
vn 0.7071 0.0000 -0.7071
vn 0.9659 0.0000 -0.2588
vn 0.2588 0.0000 -0.9659
vn 1.0000 0.0000 0.0000
vn -0.7071 0.0000 -0.7071
vn 0.0000 1.0000 0.0000
vn -1.0000 0.0000 0.0000
vn -0.0000 0.0000 1.0000
usemtl Stand_sep29_auv.004
s 1
f 57/112/15 58/113/15 59/114/15
f 60/115/16 61/116/16 57/117/16
f 60/118/17 62/119/17 63/120/17
f 64/121/18 65/122/18 66/123/18
f 63/124/16 67/125/16 61/116/16
f 67/126/19 68/127/19 69/128/19
f 70/129/20 71/130/20 61/131/20
f 72/132/21 73/133/21 74/134/21
f 75/135/16 76/136/16 72/137/16
f 75/138/22 77/139/22 78/140/22 79/141/22
f 74/142/16 80/143/16 75/135/16
f 80/144/20 81/145/20 77/139/20
f 76/136/16 82/146/16 83/147/16
f 76/148/15 84/149/15 85/150/15
f 83/151/17 86/152/17 72/132/17
f 85/153/23 87/154/23 82/155/23
f 88/156/24 62/119/24 66/157/24
f 65/158/24 58/159/24 88/156/24
f 71/160/24 68/127/24 62/119/24
f 77/161/24 73/133/24 89/162/24
f 77/161/24 90/163/24 91/164/24 92/165/24
f 86/152/24 87/154/24 90/163/24
f 57/117/16 61/116/16 93/166/16 94/167/16
f 59/168/16 64/169/16 57/117/16
f 59/170/23 58/171/23 65/122/23
f 63/124/16 61/116/16 60/115/16
f 61/131/22 71/130/22 95/172/22 96/173/22
f 67/125/16 70/174/16 61/116/16
f 72/137/16 74/142/16 75/135/16
f 74/134/19 81/175/19 80/176/19
f 80/144/20 77/139/20 75/138/20
f 76/136/16 83/147/16 72/137/16
f 85/177/16 82/146/16 76/136/16
f 85/153/23 84/178/23 87/154/23
f 82/155/18 87/154/18 86/152/18
f 66/157/24 65/158/24 88/156/24
f 66/123/17 62/119/17 60/118/17
f 88/179/15 58/113/15 57/112/15
f 71/160/24 62/119/24 88/156/24
f 62/119/21 68/127/21 63/120/21
f 69/128/24 68/127/24 71/160/24
f 89/162/21 73/133/21 72/132/21
f 89/162/24 86/152/24 77/161/24
f 81/175/24 73/133/24 77/161/24
f 90/180/15 84/149/15 76/148/15
f 59/170/23 65/122/23 64/121/23
f 64/121/18 66/123/18 60/118/18
f 63/120/21 68/127/21 67/126/21
f 70/129/20 69/181/20 71/130/20
f 72/132/17 86/152/17 89/162/17
f 74/134/19 73/133/19 81/175/19
f 82/155/18 86/152/18 83/151/18
f 86/152/24 90/163/24 77/161/24
f 87/154/24 84/178/24 90/163/24
f 57/117/16 64/169/16 60/115/16
f 67/126/19 69/128/19 70/182/19
f 97/183/25 98/184/25 76/148/25
f 99/185/16 97/186/16 76/136/16
f 79/141/22 100/187/22 75/138/22
f 100/188/16 99/185/16 76/136/16 75/135/16
f 101/189/24 102/190/24 88/156/24
f 102/190/24 95/191/24 71/160/24 88/156/24
f 96/173/22 103/192/22 61/131/22
f 94/193/25 104/194/25 88/179/25 57/112/25
f 98/184/25 91/195/25 90/180/25 76/148/25
f 103/196/16 93/166/16 61/116/16
f 92/165/24 78/197/24 77/161/24
f 101/198/26 104/199/26 94/200/26 93/201/26 103/202/26 96/203/26 95/204/26 102/205/26
f 97/206/26 99/207/26 100/208/26 79/209/26 78/210/26 92/211/26 91/212/26 98/213/26
f 104/194/25 101/214/25 88/179/25
o Cylinder.161_Cylinder.168
v -1.747343 -0.145256 1.747342
v -1.747342 -0.145255 -0.000000
v -1.534252 -0.145256 1.747342
v -1.534252 0.072628 1.747342
v -1.534252 0.145255 1.747342
v -0.570065 -0.145256 1.747342
v -0.570065 -0.145255 -0.000000
v -0.421286 -0.145256 1.747342
v -0.570065 0.072628 1.747342
v -1.534252 0.245255 1.747342
v -1.747343 0.245255 1.747342
v -1.747343 0.145255 1.747342
v -1.534252 0.245255 0.000000
v -1.747342 0.245255 0.000000
v -1.534252 -0.145255 -0.000000
v -0.570065 0.145255 1.747342
v -0.570065 -0.145255 -1.747342
v -1.747342 -0.145255 -1.747343
v -1.534252 0.072628 -1.747343
v -1.534252 -0.145255 -1.747343
v -1.747342 0.145255 -1.747343
v -1.747342 0.245255 -1.747343
v -1.534252 0.245255 -1.747343
v -1.534252 0.145255 -1.747343
v -1.747342 0.145255 0.000000
v -0.421286 0.145255 -1.747342
v -0.570065 0.145255 -1.747342
v 0.000000 0.145255 0.000000
v 0.421286 0.145255 -1.747342
v 0.000000 0.145255 -1.747342
v -0.570065 0.072628 -1.747342
v -0.421286 0.072628 -1.747342
v -0.421286 -0.145255 -1.747342
v 0.000000 -0.145255 -1.747342
v -0.421286 -0.145255 -0.000000
v 0.000000 -0.145256 1.747342
v 1.534252 0.245255 1.747343
v 1.534252 0.245255 0.000000
v 1.534252 0.145255 1.747343
v 1.747342 0.145255 1.747343
v 1.747342 0.245255 1.747343
v 1.747342 -0.145256 1.747343
v 1.747342 -0.145255 -0.000000
v 1.747342 0.145255 0.000000
v 0.000000 0.145255 1.747342
v 0.000000 0.072628 1.747342
v 0.421286 0.145255 1.747342
v 1.534252 -0.145256 1.747343
v 1.534252 0.072628 1.747343
v 0.570065 -0.145256 1.747342
v 0.570065 0.145255 1.747342
v 0.570065 0.072628 1.747342
v 0.421286 0.072628 1.747342
v 0.421286 -0.145256 1.747342
v 0.421286 -0.145255 -0.000000
v 0.570065 -0.145255 -0.000000
v 1.534252 -0.145255 -0.000000
v 1.747343 -0.145255 -1.747342
v 1.534252 0.145255 -1.747342
v 1.747343 0.145255 -1.747342
v 0.570065 -0.145255 -1.747342
v 1.534252 -0.145255 -1.747342
v 1.747342 0.245255 0.000000
v 1.747343 0.245255 -1.747342
v 1.534252 0.245255 -1.747342
v 1.534252 0.145255 0.000000
v 0.000000 0.072628 -1.747342
v 0.421286 0.072628 -1.747342
v -1.534252 0.145255 0.000000
v 1.534252 0.072628 -1.747342
v 0.570065 0.072628 -1.747342
v 0.570065 0.145255 -1.747342
v 0.000000 -0.145255 -0.000000
v 0.421286 -0.145255 -1.747342
v -0.421286 0.072628 1.747342
v -0.421286 0.145255 1.747342
vt 0.931688 0.053844
vt 0.931688 0.053844
vt 0.931688 0.053844
vt 0.931688 0.057203
vt 0.931688 0.053844
vt 0.931688 0.050486
vt 0.935045 0.053844
vt 0.935045 0.053844
vt 0.935045 0.053844
vt 0.928329 0.057203
vt 0.928329 0.053844
vt 0.931688 0.050486
vt 0.931688 0.050486
vt 0.931688 0.050486
vt 0.938404 0.060562
vt 0.938404 0.057203
vt 0.938404 0.057203
vt 0.931688 0.053844
vt 0.931688 0.067279
vt 0.935045 0.063920
vt 0.935045 0.067279
vt 0.901459 0.090790
vt 0.894743 0.080714
vt 0.901459 0.080714
vt 0.935045 0.050486
vt 0.921612 0.057203
vt 0.921612 0.053844
vt 0.921612 0.057203
vt 0.921612 0.050486
vt 0.921612 0.050486
vt 0.921612 0.050486
vt 0.921612 0.050486
vt 0.931688 0.060562
vt 0.935045 0.060562
vt 0.931688 0.057203
vt 0.928329 0.060562
vt 0.928329 0.057203
vt 0.335564 0.960644
vt 0.296406 0.960644
vt 0.446445 0.501222
vt 0.928329 0.063920
vt 0.924969 0.060562
vt 0.931688 0.050486
vt 0.557327 0.960644
vt 0.446445 0.960644
vt 0.901459 0.080714
vt 0.894743 0.080714
vt 0.894743 0.090790
vt 0.901459 0.080714
vt 0.894743 0.080714
vt 0.935045 0.050486
vt 0.935045 0.050486
vt 0.935045 0.053844
vt 0.935045 0.053844
vt 0.935045 0.067279
vt 0.935045 0.063920
vt 0.935045 0.067279
vt 0.924969 0.050486
vt 0.924969 0.050486
vt 0.924969 0.050486
vt 0.924969 0.050486
vt 0.924969 0.057203
vt 0.924969 0.060562
vt 0.921612 0.063920
vt 0.921612 0.060562
vt 0.901459 0.073996
vt 0.894743 0.073996
vt 0.901459 0.070638
vt 0.938404 0.053844
vt 0.938404 0.053844
vt 0.938404 0.053844
vt 0.924969 0.057203
vt 0.924969 0.053844
vt 0.928329 0.057203
vt 0.901459 0.070638
vt 0.894743 0.070638
vt 0.901459 0.060562
vt 0.894743 0.070638
vt 0.935045 0.053844
vt 0.935045 0.053844
vt 0.935045 0.053844
vt 0.938404 0.053844
vt 0.935045 0.053844
vt 0.924969 0.057203
vt 0.924969 0.050486
vt 0.924969 0.050486
vt 0.935045 0.050486
vt 0.938404 0.050486
vt 0.938404 0.057203
vt 0.938404 0.057203
vt 0.938404 0.060562
vt 0.938404 0.053844
vt 0.938404 0.053844
vt 0.935045 0.060562
vt 0.935045 0.063920
vt 0.921612 0.057203
vt 0.921612 0.060562
vt 0.901459 0.073996
vt 0.894743 0.073996
vt 0.921612 0.057203
vt 0.921612 0.053844
vt 0.924969 0.053844
vt 0.043240 0.041801
vt 0.296406 0.041801
vt 0.043240 0.501222
vt 0.924969 0.057203
vt 0.924969 0.053844
vt 0.901459 0.060562
vt 0.894743 0.070638
vt 0.901459 0.070638
vt 0.935045 0.053844
vt 0.894743 0.070638
vt 0.901459 0.070638
vt 0.935045 0.050486
vt 0.928329 0.053844
vt 0.928329 0.057203
vt 0.894743 0.080714
vt 0.901459 0.080714
vt 0.928329 0.053844
vt 0.928329 0.057203
vt 0.938404 0.060562
vt 0.924969 0.063920
vt 0.931688 0.057203
vt 0.931688 0.063920
vt 0.849650 0.041801
vt 0.849650 0.501222
vt 0.596484 0.041801
vt 0.931688 0.050486
vt 0.924969 0.057203
vt 0.931688 0.060562
vt 0.938404 0.053844
vt 0.849650 0.960644
vt 0.596484 0.960644
vt 0.901459 0.090790
vt 0.921612 0.057203
vt 0.924969 0.063920
vt 0.924969 0.057203
vt 0.938404 0.060562
vt 0.446445 0.041801
vt 0.335564 0.041801
vt 0.557327 0.041801
vt 0.894743 0.060562
vt 0.924969 0.057203
vt 0.924969 0.050486
vt 0.924969 0.050486
vt 0.935045 0.060562
vt 0.921612 0.057203
vt 0.938404 0.050486
vt 0.921612 0.053844
vt 0.894743 0.090790
vt 0.931688 0.063920
vt 0.938404 0.053844
vt 0.921612 0.057203
vt 0.928329 0.053844
vt 0.924969 0.053844
vt 0.921612 0.063920
vt 0.043240 0.960644
vt 0.928329 0.053844
vt 0.928329 0.057203
vt 0.924969 0.057203
vt 0.894743 0.060562
vt 0.921612 0.053844
vn 0.0000 -1.0000 -0.0000
vn -0.0000 0.0000 1.0000
vn 0.0000 1.0000 0.0000
vn 1.0000 0.0000 0.0000
vn 0.0000 0.0000 -1.0000
vn -1.0000 0.0000 0.0000
usemtl Stand_sep29_auv.004
s 1
f 105/215/27 106/216/27 107/217/27
f 105/218/28 108/219/28 109/220/28
f 110/221/27 111/222/27 112/223/27
f 110/224/28 113/225/28 108/219/28
f 114/226/28 115/227/28 116/228/28
f 115/229/29 117/230/29 118/231/29
f 107/217/27 119/232/27 110/221/27
f 109/233/30 117/234/30 114/235/30
f 109/236/28 113/237/28 120/238/28
f 111/222/27 119/232/27 121/239/27
f 122/240/31 123/241/31 124/242/31
f 125/243/31 126/244/31 127/245/31
f 125/243/31 128/246/31 122/240/31
f 117/234/30 128/247/30 127/248/30
f 126/249/32 129/250/32 118/251/32
f 130/252/29 131/253/29 132/254/29
f 129/250/32 106/255/32 116/256/32
f 106/216/27 124/257/27 119/232/27
f 133/258/29 134/259/29 132/254/29
f 131/260/31 135/261/31 123/262/31
f 130/263/31 136/264/31 135/261/31
f 137/265/27 138/266/27 139/267/27
f 139/267/27 140/268/27 112/223/27
f 141/269/32 142/270/32 143/271/32
f 144/272/28 145/273/28 141/274/28
f 144/272/28 143/275/28 146/276/28
f 144/277/30 147/278/30 148/279/30
f 149/280/28 150/281/28 151/282/28
f 152/283/27 147/284/27 146/285/27
f 152/286/28 153/287/28 154/288/28
f 155/289/28 156/290/28 143/291/28
f 151/282/28 157/292/28 155/289/28
f 158/293/27 159/294/27 160/295/27
f 160/295/27 161/296/27 154/297/27
f 162/298/31 163/299/31 164/300/31
f 165/301/27 166/302/27 161/296/27
f 167/303/29 142/304/29 145/305/29
f 142/304/29 168/306/29 169/307/29
f 142/270/32 163/308/32 170/309/32
f 168/310/30 148/279/30 164/311/30
f 134/312/31 171/313/31 136/264/31
f 138/314/31 171/315/31 172/316/31
f 109/317/29 120/318/29 173/319/29
f 166/320/31 174/321/31 162/298/31
f 163/322/31 175/323/31 176/324/31
f 177/325/27 159/294/27 140/268/27
f 131/253/29 173/319/29 132/254/29
f 176/324/31 172/326/31 133/327/31
f 178/328/27 159/294/27 138/266/27
f 179/329/28 113/225/28 110/221/28 112/330/28
f 113/237/28 179/331/28 180/332/28
f 150/333/28 179/329/28 140/334/28
f 110/221/27 119/232/27 111/222/27
f 114/335/29 117/230/29 115/229/29
f 116/228/28 109/220/28 114/226/28
f 116/256/32 106/255/32 105/336/32
f 107/217/27 106/216/27 119/232/27
f 107/337/28 108/219/28 105/218/28
f 109/233/30 173/338/30 117/234/30
f 143/339/29 170/340/29 155/341/29
f 120/238/28 113/237/28 180/332/28
f 180/332/28 179/331/28 150/281/28
f 111/222/27 139/267/27 112/223/27
f 122/342/27 124/257/27 106/216/27
f 121/239/27 137/265/27 111/222/27
f 127/245/31 128/246/31 125/243/31
f 118/251/32 129/250/32 115/343/32
f 125/344/32 106/255/32 129/250/32
f 117/230/29 126/345/29 118/231/29
f 119/232/27 124/257/27 121/239/27
f 170/340/29 163/346/29 176/347/29
f 131/260/31 123/262/31 128/348/31
f 130/263/31 135/261/31 131/260/31
f 137/349/31 171/315/31 138/314/31
f 139/267/27 177/325/27 140/268/27
f 146/350/30 147/278/30 144/277/30
f 146/276/28 153/287/28 152/286/28
f 141/274/28 143/275/28 144/272/28
f 144/277/30 148/279/30 145/351/30
f 145/305/29 142/304/29 141/352/29
f 149/353/29 132/254/29 180/354/29
f 140/268/27 159/294/27 158/293/27
f 132/254/29 149/353/29 151/355/29
f 143/291/28 156/290/28 153/356/28
f 120/318/29 180/354/29 132/254/29
f 158/293/27 160/295/27 154/297/27
f 160/295/27 159/294/27 178/328/27
f 162/298/31 174/321/31 163/299/31
f 165/301/27 161/296/27 160/295/27
f 165/357/31 174/321/31 166/320/31
f 169/358/31 168/359/31 164/300/31
f 169/360/32 163/308/32 142/270/32
f 167/361/30 148/279/30 168/310/30
f 142/270/32 170/309/32 143/271/32
f 134/312/31 136/264/31 130/263/31
f 138/266/27 159/294/27 177/325/27
f 161/296/27 147/284/27 152/283/27
f 148/279/30 147/278/30 164/311/30
f 147/284/27 166/302/27 162/362/27
f 120/318/29 132/254/29 173/319/29
f 132/254/29 151/355/29 155/341/29
f 175/323/31 172/326/31 176/324/31
f 123/241/31 135/363/31 124/242/31
f 172/326/31 171/313/31 133/327/31
f 108/364/28 113/237/28 109/236/28
f 150/281/28 157/292/28 151/282/28
f 157/292/28 156/290/28 155/289/28
f 105/218/28 109/220/28 116/228/28
f 110/224/28 108/219/28 107/337/28
f 115/343/32 129/250/32 116/256/32
f 176/347/29 133/258/29 132/254/29
f 180/332/28 150/281/28 149/280/28
f 122/365/32 106/255/32 125/344/32
f 127/366/29 126/345/29 117/230/29
f 125/344/32 129/250/32 126/249/32
f 173/338/30 128/247/30 117/234/30
f 124/242/31 135/363/31 121/367/31
f 128/246/31 123/241/31 122/240/31
f 132/254/29 155/341/29 170/340/29
f 137/265/27 139/267/27 111/222/27
f 154/297/27 161/296/27 152/283/27
f 145/351/30 148/279/30 167/361/30
f 140/334/28 179/329/28 112/330/28
f 140/334/28 157/368/28 150/333/28
f 143/275/28 153/287/28 146/276/28
f 160/295/27 178/328/27 165/301/27
f 165/357/31 175/369/31 174/321/31
f 167/303/29 168/306/29 142/304/29
f 164/311/30 147/278/30 162/370/30
f 164/300/31 163/299/31 169/358/31
f 138/266/27 177/325/27 139/267/27
f 161/296/27 166/302/27 147/284/27
f 128/371/29 173/319/29 131/253/29
f 134/259/29 130/252/29 132/254/29
f 133/327/31 171/313/31 134/312/31
f 153/287/28 156/372/28 154/288/28
f 158/373/28 157/368/28 140/334/28
f 138/314/31 172/316/31 178/374/31
f 174/375/31 175/323/31 163/322/31
f 121/239/31 135/261/31 136/376/31 137/265/31
f 136/376/31 171/315/31 137/349/31
f 132/254/29 170/340/29 176/347/29
f 165/301/31 178/328/31 172/316/31 175/323/31
f 157/368/28 158/373/28 154/297/28 156/372/28
o Cylinder.038
v 0.261582 3.085143 -1.355054
v 0.232723 3.085143 -1.355054
v 0.232723 3.085143 -1.326791
v 0.261582 3.085143 -1.326791
vt 0.935800 0.143836
vt 0.928100 0.143836
vt 0.928100 0.136636
vt 0.935700 0.136736
vn 0.0000 1.0000 0.0000
usemtl image.001
s 1
f 181/377/33 182/378/33 183/379/33 184/380/33
o Cylinder.015
v -0.232723 3.075500 -1.326791
v -0.261582 3.075500 -1.326791
v -0.261582 3.075500 -1.355054
v -0.232723 3.075500 -1.355054
vt 0.928000 0.143836
vt 0.935800 0.143836
vt 0.935700 0.136736
vt 0.928000 0.136636
vn 0.0000 -1.0000 0.0000
usemtl image.001
s 1
f 185/381/34 186/382/34 187/383/34 188/384/34
