# Blender v2.77 (sub 0) OBJ File: ''
# www.blender.org
mtllib station1.mtl
o Station_Mesh_Mesh.001
v -0.042500 -0.050000 1.799345
v -0.315367 -0.050000 1.818080
v -1.901575 -0.050000 -0.396715
v -1.123088 0.050000 -1.553110
v 0.866413 0.050000 -1.559802
v -0.877340 0.050000 -1.753708
v 0.925989 0.050000 1.640134
v 0.711892 -0.050000 1.665527
v 0.925989 -0.050000 1.640134
v -1.426949 0.050000 -1.282688
v -1.284093 -0.050000 -1.425894
v -1.426949 -0.050000 -1.282688
v 1.122673 0.050000 1.616140
v 1.122673 -0.050000 1.616140
v -1.552586 0.050000 -1.125492
v -1.552586 -0.050000 -1.125492
v 1.899926 0.050000 -0.701355
v 1.913098 -0.050000 -0.477795
v 1.899926 -0.050000 -0.701355
v 1.302706 0.050000 1.588619
v 1.302706 -0.050000 1.588619
v -1.661936 0.050000 -0.956302
v -1.661936 -0.050000 -0.956302
v 1.863684 0.050000 -0.869275
v 1.863684 -0.050000 -0.869275
v 1.466852 0.050000 1.552644
v 1.466852 -0.050000 1.552644
v -1.755930 0.050000 -0.777111
v -1.755930 -0.050000 -0.777111
v 1.806598 0.050000 -0.991756
v 1.806598 -0.050000 -0.991756
v 1.615873 -0.050000 1.503294
v -1.835499 0.050000 -0.589917
v -1.835499 -0.050000 -0.589917
v 1.730891 0.050000 -1.079000
v 1.730891 -0.050000 -1.079000
v 1.750530 0.050000 1.435640
v 1.750530 -0.050000 1.435640
v -1.901575 0.050000 -0.396715
v 1.638788 0.050000 -1.141204
v 1.638788 -0.050000 -1.141204
v 1.871589 -0.050000 1.344759
v -1.955090 0.050000 -0.199503
v -1.955090 -0.050000 -0.199503
v 1.532513 0.050000 -1.188568
v 1.532513 -0.050000 -1.188568
v 1.979810 0.050000 1.225724
v 1.979810 -0.050000 1.225724
v -1.996974 0.050000 -0.000275
v -1.996974 -0.050000 -0.000275
v 1.414292 0.050000 -1.231294
v 1.414292 -0.050000 -1.231294
v 2.075957 0.050000 1.073611
v 2.075957 -0.050000 1.073611
v -2.028160 0.050000 0.198973
v -2.028160 -0.050000 0.198972
v 1.286346 0.050000 -1.279580
v 1.286346 -0.050000 -1.279580
v 2.109921 0.050000 0.923123
v 2.109921 -0.050000 0.923123
v -2.049577 0.050000 0.396243
v -2.049577 -0.050000 0.396243
v 1.150902 0.050000 -1.343626
v 1.150902 -0.050000 -1.343626
v 2.126345 0.050000 0.787505
v 2.126345 -0.050000 0.787505
v -2.062159 0.050000 0.589541
v -2.062159 -0.050000 0.589541
v 1.010182 0.050000 -1.433635
v 1.010182 -0.050000 -1.433635
v 2.127899 0.050000 0.663454
v 2.127899 -0.050000 0.663454
v -2.047945 0.050000 0.842040
v -2.047945 -0.050000 0.842040
v 0.866413 -0.050000 -1.559802
v 2.117251 0.050000 0.547664
v 2.117251 -0.050000 0.547664
v -1.996709 0.050000 1.061118
v -1.996709 -0.050000 1.061118
v 0.721817 0.050000 -1.732330
v 0.721817 -0.050000 -1.732330
v 2.097070 0.050000 0.436830
v 2.097070 -0.050000 0.436830
v -1.911153 0.050000 1.248529
v -1.911153 -0.050000 1.248529
v 0.574995 0.050000 -1.970718
v 0.574995 -0.050000 -1.970718
v 2.070026 0.050000 0.327650
v 2.070026 -0.050000 0.327650
v -1.793978 0.050000 1.406025
v -1.793978 -0.050000 1.406025
v 0.442385 0.050000 -2.150745
v 0.442385 -0.050000 -2.150745
v 2.038787 0.050000 0.216817
v 2.038787 -0.050000 0.216817
v -1.647886 0.050000 1.535358
v -1.647886 -0.050000 1.535358
v 0.319346 0.050000 -2.276103
v 0.319346 -0.050000 -2.276103
v 2.006023 0.050000 0.101027
v 2.006023 -0.050000 0.101027
v -1.475579 0.050000 1.638281
v -1.475579 -0.050000 1.638281
v 0.201236 -0.050000 -2.350482
v 1.974404 0.050000 -0.023024
v 1.974404 -0.050000 -0.023025
v -1.279757 0.050000 1.716547
v -1.279757 -0.050000 1.716547
v 0.083416 0.050000 -2.377570
v 0.083416 -0.050000 -2.377570
v 1.946597 0.050000 -0.158642
v 1.946597 -0.050000 -0.158642
v -1.063123 0.050000 1.771906
v -1.063123 -0.050000 1.771906
v -0.038757 0.050000 -2.361062
v -0.038757 -0.050000 -2.361062
v 1.925272 0.050000 -0.309131
v 1.925272 -0.050000 -0.309131
v -0.828379 0.050000 1.806114
v -0.828379 -0.050000 1.806114
v -0.169924 0.050000 -2.304645
v -0.169924 -0.050000 -2.304645
v 1.913098 0.050000 -0.477795
v -0.578227 0.050000 1.820921
v -0.578227 -0.050000 1.820921
v -0.314724 0.050000 -2.212010
v -0.314724 -0.050000 -2.212010
v -0.315367 0.050000 1.818080
v -0.477800 0.050000 -2.086849
v -0.477800 -0.050000 -2.086849
v -0.042500 0.050000 1.799345
v -0.663791 -0.050000 -1.932852
v 0.228410 0.050000 1.740206
v 0.228410 -0.050000 1.740206
v -0.877340 -0.050000 -1.753708
v 0.479620 -0.050000 1.697242
v -1.123088 -0.050000 -1.553110
v 0.711892 0.050000 1.665527
v -1.284093 0.050000 -1.425894
v 0.479620 0.050000 1.697242
v 1.871589 0.050000 1.344759
v 1.615873 0.050000 1.503294
v 0.201236 0.050000 -2.350482
v -0.663791 0.050000 -1.932852
vt 0.2760 0.4895
vt 0.2458 0.4874
vt 0.0708 0.7319
vt 0.1567 0.8595
vt 0.3763 0.8602
vt 0.1838 0.8817
vt 0.8882 0.8753
vt 0.9014 0.8519
vt 0.9014 0.8753
vt 0.8882 0.8013
vt 0.8750 0.8252
vt 0.8750 0.8013
vt 0.8882 0.8969
vt 0.9014 0.8969
vt 0.8882 0.7768
vt 0.8750 0.7768
vt 0.9542 0.5135
vt 0.9410 0.5366
vt 0.9410 0.5135
vt 0.8882 0.9163
vt 0.9014 0.9163
vt 0.8882 0.7520
vt 0.8750 0.7520
vt 0.9014 0.5297
vt 0.9146 0.5135
vt 0.9146 0.5297
vt 0.8882 0.9335
vt 0.9014 0.9335
vt 0.8882 0.7271
vt 0.8750 0.7271
vt 0.9014 0.5445
vt 0.9146 0.5445
vt 0.9014 0.9484
vt 0.8882 0.7021
vt 0.8750 0.7021
vt 0.9014 0.5585
vt 0.9146 0.5585
vt 0.9146 0.5291
vt 0.9278 0.5135
vt 0.9278 0.5291
vt 0.8882 0.6772
vt 0.8750 0.6772
vt 0.9014 0.5722
vt 0.9146 0.5722
vt 0.9278 0.5463
vt 0.8882 0.6527
vt 0.8750 0.6527
vt 0.9014 0.5861
vt 0.9146 0.5861
vt 0.9146 0.5657
vt 0.9278 0.5657
vt 0.8882 0.6286
vt 0.8750 0.6286
vt 0.9014 0.6009
vt 0.9146 0.6009
vt 0.9146 0.5879
vt 0.9278 0.5879
vt 0.8882 0.6052
vt 0.8750 0.6052
vt 0.9014 0.6171
vt 0.9146 0.6171
vt 0.9146 0.6060
vt 0.9278 0.6060
vt 0.8882 0.5825
vt 0.8750 0.5825
vt 0.9014 0.6351
vt 0.9146 0.6351
vt 0.9146 0.6215
vt 0.9278 0.6215
vt 0.8882 0.5608
vt 0.8750 0.5608
vt 0.9014 0.6557
vt 0.9146 0.6557
vt 0.9146 0.6349
vt 0.9278 0.6349
vt 0.8882 0.5342
vt 0.8750 0.5342
vt 0.9014 0.6792
vt 0.9146 0.6792
vt 0.9146 0.6466
vt 0.9278 0.6466
vt 0.8882 0.5135
vt 0.8750 0.5135
vt 0.9014 0.7063
vt 0.9146 0.7063
vt 0.9146 0.6572
vt 0.9278 0.6572
vt 0.8882 0.5318
vt 0.9014 0.5135
vt 0.9014 0.5318
vt 0.9014 0.7387
vt 0.9146 0.7387
vt 0.9278 0.5244
vt 0.9410 0.5135
vt 0.9410 0.5244
vt 0.8882 0.5524
vt 0.9014 0.5524
vt 0.9014 0.7652
vt 0.9146 0.7652
vt 0.9278 0.5358
vt 0.9410 0.5358
vt 0.8882 0.5750
vt 0.9014 0.5750
vt 0.9014 0.7867
vt 0.9146 0.7867
vt 0.9278 0.5477
vt 0.9410 0.5477
vt 0.8882 0.5994
vt 0.9014 0.5994
vt 0.9146 0.8038
vt 0.9278 0.5601
vt 0.9410 0.5601
vt 0.8882 0.6255
vt 0.9014 0.6255
vt 0.9014 0.8174
vt 0.9146 0.8174
vt 0.9278 0.5731
vt 0.9410 0.5731
vt 0.8882 0.6528
vt 0.9014 0.6528
vt 0.9014 0.8281
vt 0.9146 0.8281
vt 0.9542 0.5538
vt 0.9410 0.5685
vt 0.9410 0.5538
vt 0.8882 0.6814
vt 0.9014 0.6814
vt 0.8882 0.9862
vt 0.8750 1.0000
vt 0.8750 0.9862
vt 0.9542 0.5366
vt 0.8882 0.7108
vt 0.9014 0.7108
vt 0.8882 0.9676
vt 0.8750 0.9676
vt 0.8882 0.7408
vt 0.9014 0.7408
vt 0.8882 0.9444
vt 0.8750 0.9444
vt 0.8882 0.7713
vt 0.9014 0.7713
vt 0.8750 0.9167
vt 0.8882 0.7998
vt 0.9014 0.7998
vt 0.8882 0.8847
vt 0.8750 0.8847
vt 0.9014 0.8267
vt 0.8882 0.8485
vt 0.8750 0.8485
vt 0.8882 0.8519
vt 0.8882 0.8252
vt 0.5021 0.6769
vt 0.5057 0.6642
vt 0.4046 0.5097
vt 0.5091 0.6519
vt 0.5121 0.6399
vt 0.4244 0.5127
vt 0.5143 0.6276
vt 0.4425 0.5167
vt 0.5153 0.6012
vt 0.5135 0.5862
vt 0.4739 0.5296
vt 0.5098 0.5696
vt 0.4992 0.5528
vt 0.4872 0.5397
vt 0.4590 0.5222
vt 0.3828 0.5071
vt 0.5155 0.6149
vt 0.4986 0.6906
vt 0.4955 0.7056
vt 0.3592 0.5042
vt 0.3059 0.4960
vt 0.0780 0.7532
vt 0.3336 0.5007
vt 0.4077 0.8364
vt 0.3921 0.8463
vt 0.2168 0.4871
vt 0.1892 0.4887
vt 0.0568 0.6661
vt 0.1633 0.4925
vt 0.1394 0.4986
vt 0.0530 0.6230
vt 0.1178 0.5073
vt 0.0988 0.5186
vt 0.0603 0.5710
vt 0.0826 0.5329
vt 0.0697 0.5503
vt 0.0546 0.5951
vt 0.0544 0.6443
vt 0.0602 0.6881
vt 0.0648 0.7101
vt 0.0868 0.7739
vt 0.0972 0.7936
vt 0.1093 0.8123
vt 0.1231 0.8297
vt 0.1389 0.8455
vt 0.1567 0.8595
vt 0.1838 0.8817
vt 0.3603 0.8793
vt 0.3763 0.8602
vt 0.4931 0.7222
vt 0.2074 0.9014
vt 0.2459 0.9322
vt 0.2619 0.9425
vt 0.3295 0.9255
vt 0.2764 0.9487
vt 0.2898 0.9505
vt 0.3029 0.9475
vt 0.3159 0.9393
vt 0.3441 0.9056
vt 0.4918 0.7408
vt 0.4226 0.8293
vt 0.4863 0.7840
vt 0.4903 0.7655
vt 0.4498 0.8193
vt 0.4717 0.8072
vt 0.4800 0.7975
vt 0.4615 0.8140
vt 0.4367 0.8240
vt 0.2279 0.9184
vt 0.4918 0.7408
vt 0.4903 0.7655
vt 0.4367 0.8240
vt 0.4863 0.7840
vt 0.4800 0.7975
vt 0.4615 0.8140
vt 0.4717 0.8072
vt 0.4498 0.8193
vt 0.4931 0.7222
vt 0.4226 0.8293
vt 0.4955 0.7056
vt 0.4077 0.8364
vt 0.4986 0.6906
vt 0.3592 0.5042
vt 0.3336 0.5007
vt 0.5091 0.6519
vt 0.5057 0.6642
vt 0.4046 0.5097
vt 0.5021 0.6769
vt 0.3828 0.5071
vt 0.3921 0.8463
vt 0.5121 0.6399
vt 0.4244 0.5127
vt 0.5155 0.6149
vt 0.5143 0.6276
vt 0.4425 0.5167
vt 0.5135 0.5862
vt 0.5153 0.6012
vt 0.4739 0.5296
vt 0.4992 0.5528
vt 0.5098 0.5696
vt 0.4872 0.5397
vt 0.4590 0.5222
vt 0.3059 0.4960
vt 0.3603 0.8793
vt 0.3441 0.9056
vt 0.2279 0.9184
vt 0.3295 0.9255
vt 0.3159 0.9393
vt 0.2619 0.9425
vt 0.3029 0.9475
vt 0.2898 0.9505
vt 0.2764 0.9487
vt 0.2459 0.9322
vt 0.2074 0.9014
vt 0.2458 0.4874
vt 0.2760 0.4895
vt 0.0708 0.7319
vt 0.1892 0.4887
vt 0.0568 0.6661
vt 0.0544 0.6443
vt 0.1394 0.4986
vt 0.1633 0.4925
vt 0.0530 0.6230
vt 0.0988 0.5186
vt 0.1178 0.5073
vt 0.0603 0.5710
vt 0.0697 0.5503
vt 0.0826 0.5329
vt 0.0546 0.5951
vt 0.0602 0.6881
vt 0.2168 0.4871
vt 0.0648 0.7101
vt 0.0868 0.7739
vt 0.0780 0.7532
vt 0.1093 0.8123
vt 0.0972 0.7936
vt 0.1389 0.8455
vt 0.1231 0.8297
vt 0.9014 0.5135
vt 0.8882 0.9484
vt 0.9146 0.5135
vt 0.9146 0.5463
vt 0.9278 0.5135
vt 0.9014 0.8038
vt 0.9542 0.5685
vt 0.8882 1.0000
vt 0.8882 0.9167
vt 0.8882 0.8267
vn 0.0000 -1.0000 -0.0000
vn -0.0000 1.0000 0.0000
vn 0.1178 0.0000 0.9930
vn -0.7080 0.0000 -0.7062
vn 0.1211 0.0000 0.9926
vn -0.7812 0.0000 -0.6243
vn 0.9983 0.0000 -0.0588
vn 0.1511 0.0000 0.9885
vn -0.8399 0.0000 -0.5428
vn 0.9775 0.0000 -0.2110
vn 0.2141 0.0000 0.9768
vn -0.8856 0.0000 -0.4645
vn 0.9064 0.0000 -0.4224
vn 0.3144 0.0000 0.9493
vn -0.9203 0.0000 -0.3912
vn 0.7553 0.0000 -0.6554
vn 0.4489 0.0000 0.8936
vn -0.9462 0.0000 -0.3236
vn 0.5597 0.0000 -0.8287
vn 0.6004 0.0000 0.7997
vn -0.9651 0.0000 -0.2619
vn 0.4071 0.0000 -0.9134
vn 0.7399 0.0000 0.6727
vn -0.9786 0.0000 -0.2057
vn 0.3399 0.0000 -0.9405
vn 0.8453 0.0000 0.5343
vn -0.9880 -0.0000 -0.1546
vn 0.3531 0.0000 -0.9356
vn 0.9755 0.0000 0.2202
vn -0.9942 -0.0000 -0.1079
vn 0.4275 0.0000 -0.9040
vn 0.9927 0.0000 0.1202
vn -0.9979 0.0000 -0.0650
vn 0.5388 0.0000 -0.8424
vn 0.9999 0.0000 0.0125
vn -0.9984 0.0000 0.0562
vn 0.6596 0.0000 -0.7516
vn 0.9958 0.0000 -0.0916
vn -0.9737 0.0000 0.2277
vn 0.7664 0.0000 -0.6423
vn 0.9838 0.0000 -0.1791
vn -0.9097 0.0000 0.4153
vn 0.8515 0.0000 -0.5244
vn 0.9707 0.0000 -0.2404
vn -0.8023 0.0000 0.5969
vn 0.8051 0.0000 -0.5931
vn 0.9624 0.0000 -0.2718
vn 0.9625 0.0000 -0.2713
vn -0.6629 0.0000 0.7487
vn 0.7137 0.0000 -0.7005
vn 0.9622 0.0000 -0.2723
vn -0.5128 0.0000 0.8585
vn 0.5329 0.0000 -0.8462
vn 0.9690 0.0000 -0.2470
vn -0.3711 0.0000 0.9286
vn 0.2241 0.0000 -0.9746
vn 0.9796 -0.0000 -0.2009
vn -0.2476 0.0000 0.9689
vn -0.1339 0.0000 -0.9910
vn 0.9901 -0.0000 -0.1403
vn -0.1442 0.0000 0.9895
vn -0.3951 0.0000 -0.9186
vn 0.9974 0.0000 -0.0720
vn -0.0591 0.0000 0.9983
vn -0.5389 0.0000 -0.8424
vn 0.0108 0.0000 0.9999
vn -0.6089 0.0000 -0.7933
vn 0.0685 0.0000 0.9977
vn -0.6377 0.0000 -0.7702
vn 0.2133 0.0000 0.9770
vn -0.6427 0.0000 -0.7661
vn 0.1686 0.0000 0.9857
vn -0.6324 0.0000 -0.7747
vn 0.1353 0.0000 0.9908
vn -0.6200 0.0000 -0.7846
usemtl Material.006
s 1
f 1/1/1 2/2/1 3/3/1
f 4/4/2 5/5/2 6/6/2
f 7/7/3 8/8/3 9/9/3
f 10/10/4 11/11/4 12/12/4
f 13/13/5 9/9/5 14/14/5
f 15/15/6 12/12/6 16/16/6
f 17/17/7 18/18/7 19/19/7
f 20/20/8 14/14/8 21/21/8
f 22/22/9 16/16/9 23/23/9
f 24/24/10 19/25/10 25/26/10
f 26/27/11 21/21/11 27/28/11
f 28/29/12 23/23/12 29/30/12
f 30/31/13 25/26/13 31/32/13
f 32/33/14 26/27/14 27/28/14
f 33/34/15 29/30/15 34/35/15
f 35/36/16 31/32/16 36/37/16
f 37/38/17 32/39/17 38/40/17
f 39/41/18 34/35/18 3/42/18
f 40/43/19 36/37/19 41/44/19
f 42/45/20 37/38/20 38/40/20
f 43/46/21 3/42/21 44/47/21
f 45/48/22 41/44/22 46/49/22
f 47/50/23 42/45/23 48/51/23
f 49/52/24 44/47/24 50/53/24
f 51/54/25 46/49/25 52/55/25
f 53/56/26 48/51/26 54/57/26
f 55/58/27 50/53/27 56/59/27
f 57/60/28 52/55/28 58/61/28
f 59/62/29 54/57/29 60/63/29
f 61/64/30 56/59/30 62/65/30
f 63/66/31 58/61/31 64/67/31
f 65/68/32 60/63/32 66/69/32
f 67/70/33 62/65/33 68/71/33
f 69/72/34 64/67/34 70/73/34
f 71/74/35 66/69/35 72/75/35
f 73/76/36 68/71/36 74/77/36
f 5/78/37 70/73/37 75/79/37
f 76/80/38 72/75/38 77/81/38
f 78/82/39 74/77/39 79/83/39
f 80/84/40 75/79/40 81/85/40
f 82/86/41 77/81/41 83/87/41
f 84/88/42 79/89/42 85/90/42
f 86/91/43 81/85/43 87/92/43
f 88/93/44 83/94/44 89/95/44
f 90/96/45 85/90/45 91/97/45
f 92/98/46 87/92/46 93/99/46
f 94/100/47 89/95/48 95/101/47
f 96/102/49 91/97/49 97/103/49
f 98/104/50 93/99/50 99/105/50
f 100/106/51 95/101/47 101/107/51
f 102/108/52 97/103/52 103/109/52
f 104/110/53 98/104/53 99/105/53
f 105/111/54 101/107/54 106/112/54
f 107/113/55 103/109/55 108/114/55
f 109/115/56 104/110/56 110/116/56
f 111/117/57 106/112/57 112/118/57
f 113/119/58 108/114/58 114/120/58
f 115/121/59 110/116/59 116/122/59
f 117/123/60 112/124/60 118/125/60
f 119/126/61 114/120/61 120/127/61
f 121/128/62 116/129/62 122/130/62
f 123/131/63 118/125/63 18/18/63
f 124/132/64 120/127/64 125/133/64
f 126/134/65 122/130/65 127/135/65
f 128/136/66 125/133/66 2/137/66
f 129/138/67 127/135/67 130/139/67
f 131/140/68 2/137/68 1/141/68
f 132/142/69 129/138/69 130/139/69
f 133/143/70 1/141/70 134/144/70
f 6/145/71 132/142/71 135/146/71
f 136/147/72 133/143/72 134/144/72
f 4/148/73 135/146/73 137/149/73
f 138/150/74 136/147/74 8/8/74
f 139/151/75 137/149/75 11/11/75
f 101/152/1 95/153/1 14/154/1
f 89/155/1 83/156/1 21/157/1
f 77/158/1 27/159/1 83/156/1
f 66/160/1 60/161/1 38/162/1
f 54/163/1 48/164/1 60/161/1
f 42/165/1 38/162/1 60/161/1
f 32/166/1 27/159/1 66/160/1
f 21/157/1 14/154/1 89/155/1
f 14/154/1 9/167/1 101/152/1
f 38/162/1 32/166/1 66/160/1
f 60/161/1 48/164/1 42/165/1
f 83/156/1 27/159/1 21/157/1
f 95/153/1 89/155/1 14/154/1
f 66/160/1 27/159/1 72/168/1
f 27/159/1 77/158/1 72/168/1
f 106/169/1 101/152/1 9/167/1
f 112/170/1 106/169/1 8/171/1
f 9/167/1 8/171/1 106/169/1
f 134/172/1 3/3/1 34/173/1
f 8/171/1 136/174/1 112/170/1
f 112/170/1 136/174/1 64/175/1
f 134/172/1 70/176/1 136/174/1
f 125/177/1 120/178/1 56/179/1
f 114/180/1 108/181/1 68/182/1
f 103/183/1 97/184/1 79/185/1
f 91/186/1 85/187/1 97/184/1
f 79/185/1 74/188/1 103/183/1
f 68/182/1 62/189/1 114/180/1
f 56/179/1 50/190/1 125/177/1
f 44/191/1 2/2/1 50/190/1
f 34/173/1 29/192/1 134/172/1
f 23/193/1 16/194/1 70/176/1
f 12/195/1 11/196/1 137/197/1
f 135/198/1 81/199/1 75/200/1
f 12/195/1 137/197/1 70/176/1
f 29/192/1 70/176/1 134/172/1
f 50/190/1 2/2/1 125/177/1
f 74/188/1 68/182/1 108/181/1
f 97/184/1 85/187/1 79/185/1
f 120/178/1 114/180/1 62/189/1
f 136/174/1 70/176/1 64/175/1
f 118/201/1 112/170/1 64/175/1
f 108/181/1 103/183/1 74/188/1
f 62/189/1 56/179/1 120/178/1
f 16/194/1 12/195/1 70/176/1
f 132/202/1 81/199/1 135/198/1
f 127/203/1 122/204/1 93/205/1
f 116/206/1 110/207/1 104/208/1
f 104/208/1 99/209/1 116/206/1
f 93/205/1 87/210/1 127/203/1
f 99/209/1 93/205/1 122/204/1
f 122/204/1 116/206/1 99/209/1
f 137/197/1 135/198/1 75/200/1
f 44/191/1 3/3/1 2/2/1
f 18/211/1 118/201/1 58/212/1
f 25/213/1 19/214/1 46/215/1
f 36/216/1 31/217/1 41/218/1
f 46/215/1 41/218/1 25/213/1
f 52/219/1 46/215/1 19/214/1
f 31/217/1 25/213/1 41/218/1
f 118/201/1 64/175/1 58/212/1
f 130/220/1 81/199/1 132/202/1
f 87/210/1 130/220/1 127/203/1
f 87/210/1 81/199/1 130/220/1
f 19/214/1 18/211/1 52/219/1
f 58/212/1 52/219/1 18/211/1
f 23/193/1 70/176/1 29/192/1
f 137/197/1 75/200/1 70/176/1
f 3/3/1 134/172/1 1/1/1
f 123/221/2 17/222/2 51/223/2
f 24/224/2 30/225/2 40/226/2
f 35/227/2 40/226/2 30/225/2
f 40/226/2 45/228/2 24/224/2
f 17/222/2 45/228/2 51/223/2
f 117/229/2 123/221/2 57/230/2
f 45/228/2 17/222/2 24/224/2
f 123/221/2 51/223/2 57/230/2
f 111/231/2 117/229/2 63/232/2
f 117/229/2 57/230/2 63/232/2
f 105/233/2 111/231/2 138/234/2
f 111/231/2 63/232/2 140/235/2
f 88/236/2 94/237/2 13/238/2
f 100/239/2 105/233/2 7/240/2
f 63/232/2 69/241/2 140/235/2
f 82/242/2 88/236/2 20/243/2
f 71/244/2 76/245/2 26/246/2
f 59/247/2 65/248/2 37/249/2
f 47/250/2 53/251/2 59/247/2
f 37/249/2 141/252/2 59/247/2
f 26/246/2 65/248/2 71/244/2
f 13/238/2 20/243/2 88/236/2
f 138/234/2 7/240/2 105/233/2
f 7/240/2 13/238/2 100/239/2
f 142/253/2 65/248/2 26/246/2
f 47/250/2 59/247/2 141/252/2
f 76/245/2 82/242/2 26/246/2
f 69/241/2 133/254/2 140/235/2
f 80/255/2 86/256/2 129/257/2
f 92/258/2 98/259/2 121/260/2
f 143/261/2 109/262/2 115/263/2
f 115/263/2 98/259/2 143/261/2
f 126/264/2 129/257/2 86/256/2
f 129/257/2 144/265/2 80/255/2
f 115/263/2 121/260/2 98/259/2
f 86/256/2 92/258/2 126/264/2
f 94/237/2 100/239/2 13/238/2
f 37/249/2 65/248/2 142/253/2
f 140/235/2 138/234/2 111/231/2
f 128/266/2 131/267/2 39/268/2
f 20/243/2 26/246/2 82/242/2
f 131/267/2 133/254/2 39/268/2
f 119/269/2 55/270/2 61/271/2
f 107/272/2 113/273/2 67/274/2
f 96/275/2 102/276/2 78/277/2
f 84/278/2 90/279/2 96/275/2
f 73/280/2 78/277/2 102/276/2
f 61/271/2 67/274/2 113/273/2
f 49/281/2 124/282/2 128/266/2
f 39/268/2 43/283/2 128/266/2
f 28/284/2 33/285/2 133/254/2
f 15/286/2 22/287/2 69/241/2
f 139/288/2 10/289/2 4/4/2
f 144/265/2 6/6/2 80/255/2
f 4/4/2 10/289/2 69/241/2
f 22/287/2 28/284/2 69/241/2
f 43/283/2 49/281/2 128/266/2
f 67/274/2 73/280/2 107/272/2
f 84/278/2 96/275/2 78/277/2
f 113/273/2 119/269/2 61/271/2
f 69/241/2 10/289/2 15/286/2
f 28/284/2 133/254/2 69/241/2
f 121/260/2 126/264/2 92/258/2
f 4/4/2 69/241/2 5/5/2
f 55/270/2 124/282/2 49/281/2
f 102/276/2 107/272/2 73/280/2
f 133/254/2 33/285/2 39/268/2
f 6/6/2 5/5/2 80/255/2
f 119/269/2 124/282/2 55/270/2
f 7/7/3 138/150/3 8/8/3
f 10/10/4 139/151/4 11/11/4
f 13/13/5 7/7/5 9/9/5
f 15/15/6 10/10/6 12/12/6
f 17/17/7 123/131/7 18/18/7
f 20/20/8 13/13/8 14/14/8
f 22/22/9 15/15/9 16/16/9
f 24/24/10 17/290/10 19/25/10
f 26/27/11 20/20/11 21/21/11
f 28/29/12 22/22/12 23/23/12
f 30/31/13 24/24/13 25/26/13
f 32/33/14 142/291/14 26/27/14
f 33/34/15 28/29/15 29/30/15
f 35/36/16 30/31/16 31/32/16
f 37/38/17 142/292/17 32/39/17
f 39/41/18 33/34/18 34/35/18
f 40/43/19 35/36/19 36/37/19
f 42/45/20 141/293/20 37/38/20
f 43/46/21 39/41/21 3/42/21
f 45/48/22 40/43/22 41/44/22
f 47/50/23 141/293/23 42/45/23
f 49/52/24 43/46/24 44/47/24
f 51/54/25 45/48/25 46/49/25
f 53/56/26 47/50/26 48/51/26
f 55/58/27 49/52/27 50/53/27
f 57/60/28 51/54/28 52/55/28
f 59/62/29 53/56/29 54/57/29
f 61/64/30 55/58/30 56/59/30
f 63/66/31 57/60/31 58/61/31
f 65/68/32 59/62/32 60/63/32
f 67/70/33 61/64/33 62/65/33
f 69/72/34 63/66/34 64/67/34
f 71/74/35 65/68/35 66/69/35
f 73/76/36 67/70/36 68/71/36
f 5/78/37 69/72/37 70/73/37
f 76/80/38 71/74/38 72/75/38
f 78/82/39 73/76/39 74/77/39
f 80/84/40 5/78/40 75/79/40
f 82/86/41 76/80/41 77/81/41
f 84/88/42 78/82/42 79/89/42
f 86/91/43 80/84/43 81/85/43
f 88/93/44 82/294/44 83/94/44
f 90/96/45 84/88/45 85/90/45
f 92/98/46 86/91/46 87/92/46
f 94/100/47 88/93/48 89/95/48
f 96/102/49 90/96/49 91/97/49
f 98/104/50 92/98/50 93/99/50
f 100/106/51 94/100/47 95/101/47
f 102/108/52 96/102/52 97/103/52
f 104/110/53 143/295/53 98/104/53
f 105/111/54 100/106/54 101/107/54
f 107/113/55 102/108/55 103/109/55
f 109/115/56 143/295/56 104/110/56
f 111/117/57 105/111/57 106/112/57
f 113/119/58 107/113/58 108/114/58
f 115/121/59 109/115/59 110/116/59
f 117/123/60 111/296/60 112/124/60
f 119/126/61 113/119/61 114/120/61
f 121/128/62 115/297/62 116/129/62
f 123/131/63 117/123/63 118/125/63
f 124/132/64 119/126/64 120/127/64
f 126/134/65 121/128/65 122/130/65
f 128/136/66 124/132/66 125/133/66
f 129/138/67 126/134/67 127/135/67
f 131/140/68 128/136/68 2/137/68
f 132/142/69 144/298/69 129/138/69
f 133/143/70 131/140/70 1/141/70
f 6/145/71 144/298/71 132/142/71
f 136/147/72 140/299/72 133/143/72
f 4/148/73 6/145/73 135/146/73
f 138/150/74 140/299/74 136/147/74
f 139/151/75 4/148/75 137/149/75