# Blender v2.76 (sub 0) OBJ File: 'Blue Cloud F.blend'
# www.blender.org
mtllib Blue Cloud F.mtl
o Plane
v -1.515321 -0.020000 -1.008818
v -1.061746 -0.020000 -1.297686
v -0.661384 -0.020000 -1.675243
v -0.383218 -0.020000 -2.007284
v -2.034778 -0.020000 -0.849179
v -2.533963 -0.020000 -0.659134
v -2.736678 -0.020000 -0.469089
v -2.835501 -0.020000 -0.246102
v -2.820298 -0.020000 0.007291
v -2.579574 -0.020000 0.483671
v -2.351520 -0.020000 0.628105
v -2.098126 -0.020000 0.734531
v -1.680027 -0.020000 1.056341
v -1.302470 -0.020000 1.451634
v -0.874235 -0.020000 1.801318
v -0.410525 -0.020000 2.021771
v 0.124136 -0.020000 2.110458
v 0.694271 -0.020000 2.128196
v 0.922325 -0.020000 2.059779
v 1.155447 -0.020000 1.940685
v 1.500062 -0.020000 1.522586
v 1.609022 -0.020000 1.299600
v 1.793999 -0.020000 1.081681
v 2.115808 -0.020000 0.630641
v 2.171555 -0.020000 0.369645
v 2.219699 -0.020000 -0.147278
v 2.209564 -0.020000 -0.702210
v 2.095535 -0.020000 -1.239404
v 1.978974 -0.020000 -1.475060
v 1.806666 -0.020000 -1.685377
v 1.578612 -0.020000 -1.804472
v 1.054087 -0.020000 -1.933702
v 0.511825 -0.020000 -2.047729
v -0.027903 -0.020000 -2.085739
v -1.515321 0.020000 -1.008818
v -1.061746 0.020000 -1.297686
v -0.661384 0.020000 -1.675243
v -0.383218 0.020000 -2.007284
v -2.034778 0.020000 -0.849179
v -2.533963 0.020000 -0.659134
v -2.736678 0.020000 -0.469089
v -2.835501 0.020000 -0.246102
v -2.820298 0.020000 0.007291
v -2.579574 0.020000 0.483671
v -2.351520 0.020000 0.628105
v -2.098126 0.020000 0.734531
v -1.680027 0.020000 1.056341
v -1.302470 0.020000 1.451634
v -0.874235 0.020000 1.801318
v -0.410525 0.020000 2.021771
v 0.124136 0.020000 2.110458
v 0.694271 0.020000 2.128196
v 0.922325 0.020000 2.059779
v 1.155447 0.020000 1.940685
v 1.500062 0.020000 1.522586
v 1.609022 0.020000 1.299600
v 1.793999 0.020000 1.081681
v 2.115808 0.020000 0.630641
v 2.171555 0.020000 0.369645
v 2.219699 0.020000 -0.147278
v 2.209564 0.020000 -0.702210
v 2.095535 0.020000 -1.239404
v 1.978974 0.020000 -1.475060
v 1.806666 0.020000 -1.685377
v 1.578612 0.020000 -1.804472
v 1.054087 0.020000 -1.933702
v 0.511825 0.020000 -2.047729
v -0.027903 0.020000 -2.085739
vt 0.896414 0.113989
vt 0.733911 0.102409
vt 0.737075 0.380228
vt 0.761300 0.073802
vt 0.897639 0.113434
vt 0.733735 0.102028
vt 0.572643 0.059159
vt 0.541202 0.059159
vt 0.541202 0.034043
vt 0.365921 0.042608
vt 0.382332 0.042608
vt 0.382332 0.075006
vt 0.427233 0.036822
vt 0.469925 0.036822
vt 0.469925 0.069219
vt 0.511442 0.059159
vt 0.511442 0.034043
vt 0.377422 0.059159
vt 0.365943 0.059159
vt 0.365943 0.034043
vt 0.382451 0.036822
vt 0.427233 0.069219
vt 0.489624 0.059159
vt 0.489624 0.034043
vt 0.406192 0.059159
vt 0.377422 0.034043
vt 0.365269 0.036822
vt 0.382451 0.069219
vt 0.638354 0.059159
vt 0.605846 0.059159
vt 0.605846 0.034043
vt 0.436256 0.059159
vt 0.406192 0.034043
vt 0.348180 0.036822
vt 0.365269 0.069219
vt 0.653403 0.059159
vt 0.638354 0.034043
vt 0.467416 0.059159
vt 0.436256 0.034043
vt 0.619119 0.042608
vt 0.652417 0.042608
vt 0.652417 0.075006
vt 0.584329 0.041470
vt 0.601603 0.041470
vt 0.601603 0.073867
vt 0.467416 0.034043
vt 0.601434 0.042608
vt 0.619119 0.075006
vt 0.564320 0.041470
vt 0.584329 0.073867
vt 0.584073 0.042608
vt 0.601434 0.075006
vt 0.526074 0.041470
vt 0.564320 0.073867
vt 0.548200 0.042608
vt 0.584073 0.075006
vt 0.635279 0.036822
vt 0.654520 0.036822
vt 0.654520 0.069220
vt 0.527570 0.042608
vt 0.548200 0.075006
vt 0.614423 0.036822
vt 0.635279 0.069219
vt 0.486772 0.042608
vt 0.527570 0.075006
vt 0.578596 0.036822
vt 0.614423 0.069219
vt 0.443034 0.042608
vt 0.486772 0.075006
vt 0.545230 0.036822
vt 0.578596 0.069219
vt 0.400796 0.042608
vt 0.443034 0.075006
vt 0.508341 0.036822
vt 0.545230 0.069219
vt 0.572643 0.034043
vt 0.400796 0.075006
vt 0.508341 0.069219
vt 0.761663 0.415427
vt 0.778438 0.446666
vt 0.800920 0.454555
vt 0.641643 0.316188
vt 0.673726 0.336427
vt 0.640242 0.211061
vt 0.942295 0.246119
vt 0.630574 0.299708
vt 0.625335 0.254829
vt 0.836247 0.449686
vt 0.624212 0.280550
vt 0.707053 0.350622
vt 0.683967 0.174159
vt 0.871349 0.437555
vt 0.901144 0.426534
vt 0.916390 0.415129
vt 0.927470 0.393108
vt 0.939777 0.347952
vt 0.943834 0.298184
vt 0.936584 0.196315
vt 0.926634 0.174502
vt 0.906689 0.135462
vt 0.873851 0.073926
vt 0.793906 0.058225
vt 0.669486 0.188055
vt 0.631866 0.232542
vt 0.708982 0.136874
vt 0.760870 0.075037
vt 0.864241 0.063308
vt 0.849563 0.056538
vt 0.828701 0.055968
vt 0.706506 0.350539
vt 0.673828 0.336333
vt 0.669189 0.188735
vt 0.801374 0.454152
vt 0.778576 0.446569
vt 0.761651 0.416035
vt 0.641564 0.316402
vt 0.639815 0.211103
vt 0.836220 0.450079
vt 0.629954 0.300247
vt 0.624969 0.254548
vt 0.870139 0.439278
vt 0.624134 0.280473
vt 0.737378 0.380330
vt 0.942444 0.245952
vt 0.901504 0.428040
vt 0.940282 0.348316
vt 0.928164 0.394982
vt 0.917551 0.415677
vt 0.944750 0.297848
vt 0.937471 0.197341
vt 0.907298 0.134674
vt 0.927742 0.175382
vt 0.863740 0.062101
vt 0.874857 0.072657
vt 0.849541 0.054392
vt 0.683532 0.172991
vt 0.630685 0.231731
vt 0.708836 0.136866
vt 0.827856 0.054643
vt 0.793790 0.058077
vt 0.365921 0.075006
vt 0.348180 0.069219
vt 0.653403 0.034043
vt 0.526074 0.073867
vn 0.000000 -1.000000 -0.000000
vn 0.000000 1.000000 0.000000
vn -0.537200 0.000000 -0.843500
vn 0.773500 0.000000 -0.633700
vn -0.163600 0.000000 0.986500
vn -0.686100 0.000000 -0.727500
vn 0.462900 0.000000 -0.886400
vn -0.031100 0.000000 0.999500
vn -0.766600 0.000000 -0.642200
vn 0.239200 0.000000 -0.971000
vn 0.287400 0.000000 0.957800
vn -0.355800 0.000000 -0.934600
vn 0.205800 0.000000 -0.978600
vn 0.454900 0.000000 0.890500
vn -0.683900 0.000000 -0.729500
vn 0.070200 0.000000 -0.997500
vn 0.771700 0.000000 0.636000
vn -0.914200 0.000000 -0.405200
vn -0.215600 0.000000 -0.976500
vn 0.898500 0.000000 0.439000
vn -0.998200 0.000000 0.059900
vn 0.762400 0.000000 0.647100
vn -0.892500 0.000000 0.451000
vn 0.814000 0.000000 0.580800
vn -0.535100 0.000000 0.844800
vn 0.977900 0.000000 0.208900
vn -0.387200 0.000000 0.922000
vn 0.995700 0.000000 0.092700
vn -0.609900 0.000000 0.792400
vn 0.999800 0.000000 -0.018300
vn -0.723100 0.000000 0.690700
vn 0.978200 0.000000 -0.207600
vn -0.632500 0.000000 0.774600
vn -0.293800 0.000000 -0.955900
vn 0.896300 0.000000 -0.443400
vn -0.429400 0.000000 0.903100
vn 0.287300 0.000000 0.957800
usemtl None
s off
f 22/1/1 15/2/1 2/3/1
f 50/4/2 56/5/2 49/6/2
f 35/7/3 36/8/3 2/9/3
f 64/10/4 63/11/4 29/12/4
f 51/13/5 50/14/5 16/15/5
f 36/8/6 37/16/6 3/17/6
f 65/18/7 64/19/7 30/20/7
f 52/21/8 51/13/8 17/22/8
f 37/16/9 38/23/9 4/24/9
f 66/25/10 65/18/10 31/26/10
f 53/27/11 52/21/11 18/28/11
f 40/29/12 39/30/12 5/31/12
f 67/32/13 66/25/13 32/33/13
f 54/34/14 53/27/14 19/35/14
f 41/36/15 40/29/15 6/37/15
f 68/38/16 67/32/16 33/39/16
f 55/40/17 54/41/17 20/42/17
f 42/43/18 41/44/18 7/45/18
f 38/23/19 68/38/19 34/46/19
f 56/47/20 55/40/20 21/48/20
f 43/49/21 42/43/21 8/50/21
f 57/51/22 56/47/22 22/52/22
f 44/53/23 43/49/23 9/54/23
f 58/55/24 57/51/24 23/56/24
f 45/57/25 44/58/25 10/59/25
f 59/60/26 58/55/26 24/61/26
f 46/62/27 45/57/27 11/63/27
f 60/64/28 59/60/28 25/65/28
f 47/66/29 46/62/29 12/67/29
f 61/68/30 60/64/30 26/69/30
f 48/70/31 47/66/31 13/71/31
f 62/72/32 61/68/32 27/73/32
f 49/74/33 48/70/33 14/75/33
f 39/30/34 35/7/34 1/76/34
f 63/11/35 62/72/35 28/77/35
f 50/14/36 49/74/36 15/78/36
f 3/79/1 4/80/1 34/81/1
f 6/82/1 5/83/1 11/84/1
f 2/3/1 3/79/1 26/85/1
f 7/86/1 6/82/1 9/87/1
f 3/79/1 34/81/1 33/88/1
f 8/89/1 7/86/1 9/87/1
f 1/90/1 2/3/1 13/91/1
f 33/88/1 32/92/1 3/79/1
f 31/93/1 30/94/1 29/95/1
f 29/95/1 28/96/1 31/93/1
f 27/97/1 26/85/1 32/92/1
f 25/98/1 24/99/1 23/100/1
f 22/1/1 21/101/1 17/102/1
f 25/98/1 23/100/1 26/85/1
f 28/96/1 27/97/1 32/92/1
f 32/92/1 31/93/1 28/96/1
f 5/83/1 1/90/1 12/103/1
f 10/104/1 6/82/1 11/84/1
f 12/103/1 11/84/1 5/83/1
f 15/2/1 14/105/1 2/3/1
f 10/104/1 9/87/1 6/82/1
f 16/106/1 15/2/1 22/1/1
f 13/91/1 12/103/1 1/90/1
f 2/3/1 14/105/1 13/91/1
f 26/85/1 3/79/1 32/92/1
f 21/101/1 20/107/1 19/108/1
f 19/108/1 18/109/1 21/101/1
f 17/102/1 16/106/1 22/1/1
f 2/3/1 23/100/1 22/1/1
f 23/100/1 2/3/1 26/85/1
f 18/109/1 17/102/1 21/101/1
f 35/110/2 39/111/2 46/112/2
f 68/113/2 38/114/2 37/115/2
f 39/111/2 40/116/2 45/117/2
f 68/113/2 37/115/2 67/118/2
f 40/116/2 41/119/2 43/120/2
f 67/118/2 37/115/2 66/121/2
f 41/119/2 42/122/2 43/120/2
f 37/115/2 36/123/2 60/124/2
f 65/125/2 62/126/2 63/127/2
f 63/127/2 64/128/2 65/125/2
f 61/129/2 62/126/2 66/121/2
f 59/130/2 60/124/2 57/131/2
f 57/131/2 58/132/2 59/130/2
f 54/133/2 55/134/2 53/135/2
f 56/5/2 57/131/2 36/123/2
f 60/124/2 66/121/2 37/115/2
f 65/125/2 66/121/2 62/126/2
f 36/123/2 35/110/2 47/136/2
f 43/120/2 44/137/2 40/116/2
f 47/136/2 48/138/2 36/123/2
f 44/137/2 45/117/2 40/116/2
f 48/138/2 49/6/2 36/123/2
f 45/117/2 46/112/2 39/111/2
f 66/121/2 60/124/2 61/129/2
f 57/131/2 60/124/2 36/123/2
f 53/135/2 55/134/2 52/139/2
f 51/140/2 52/139/2 55/134/2
f 49/6/2 56/5/2 36/123/2
f 35/110/2 46/112/2 47/136/2
f 55/134/2 56/5/2 51/140/2
f 50/4/2 51/140/2 56/5/2
f 1/76/3 35/7/3 2/9/3
f 30/141/4 64/10/4 29/12/4
f 17/22/5 51/13/5 16/15/5
f 2/9/6 36/8/6 3/17/6
f 31/26/7 65/18/7 30/20/7
f 18/28/8 52/21/8 17/22/8
f 3/17/9 37/16/9 4/24/9
f 32/33/10 66/25/10 31/26/10
f 19/35/37 53/27/37 18/28/37
f 6/37/12 40/29/12 5/31/12
f 33/39/13 67/32/13 32/33/13
f 20/142/14 54/34/14 19/35/14
f 7/143/15 41/36/15 6/37/15
f 34/46/16 68/38/16 33/39/16
f 21/48/17 55/40/17 20/42/17
f 8/50/18 42/43/18 7/45/18
f 4/24/19 38/23/19 34/46/19
f 22/52/20 56/47/20 21/48/20
f 9/54/21 43/49/21 8/50/21
f 23/56/22 57/51/22 22/52/22
f 10/144/23 44/53/23 9/54/23
f 24/61/24 58/55/24 23/56/24
f 11/63/25 45/57/25 10/59/25
f 25/65/26 59/60/26 24/61/26
f 12/67/27 46/62/27 11/63/27
f 26/69/28 60/64/28 25/65/28
f 13/71/29 47/66/29 12/67/29
f 27/73/30 61/68/30 26/69/30
f 14/75/31 48/70/31 13/71/31
f 28/77/32 62/72/32 27/73/32
f 15/78/33 49/74/33 14/75/33
f 5/31/34 39/30/34 1/76/34
f 29/12/35 63/11/35 28/77/35
f 16/15/36 50/14/36 15/78/36
