# Blender v2.76 (sub 0) OBJ File: 'Blue Cloud B.blend'
# www.blender.org
mtllib Blue Cloud B.mtl
o Plane_Plane.002
v -2.497967 -0.020000 -0.942127
v -2.487338 -0.020000 -1.526743
v -2.086400 -0.020000 -2.449193
v -2.366872 -0.020000 -2.090100
v -2.522769 -0.020000 -0.350425
v -2.529856 -0.020000 0.230648
v -2.505054 -0.020000 0.825893
v -2.434192 -0.020000 1.410509
v -2.271208 -0.020000 1.963236
v -1.920439 -0.020000 2.416756
v -1.427944 -0.020000 2.735638
v -0.907104 -0.020000 3.001372
v -0.361464 -0.020000 3.199787
v 0.219609 -0.020000 3.320253
v 0.786508 -0.020000 3.306081
v 1.321520 -0.020000 3.128925
v 1.764410 -0.020000 2.763983
v 2.023059 -0.020000 2.236057
v 2.214387 -0.020000 1.686873
v 2.391543 -0.020000 1.123515
v 2.540355 -0.020000 0.556615
v 2.653733 -0.020000 -0.028001
v 2.614758 -0.020000 -0.601987
v 2.391543 -0.020000 -1.151171
v 2.143524 -0.020000 -1.679097
v 1.920307 -0.020000 -2.221195
v 1.711262 -0.020000 -2.773923
v 1.349864 -0.020000 -3.195555
v 0.800679 -0.020000 -3.333737
v 0.226693 -0.020000 -3.248702
v -0.326035 -0.020000 -3.075089
v -0.882305 -0.020000 -2.905019
v -1.456291 -0.020000 -2.759751
v -1.761000 -0.020000 -2.642828
v -2.497967 0.020000 -0.942127
v -2.487338 0.020000 -1.526743
v -2.086400 0.020000 -2.449193
v -2.366872 0.020000 -2.090100
v -2.522769 0.020000 -0.350425
v -2.529856 0.020000 0.230648
v -2.505054 0.020000 0.825893
v -2.434192 0.020000 1.410509
v -2.271208 0.020000 1.963236
v -1.920439 0.020000 2.416756
v -1.427944 0.020000 2.735638
v -0.907104 0.020000 3.001372
v -0.361464 0.020000 3.199787
v 0.219609 0.020000 3.320253
v 0.786508 0.020000 3.306081
v 1.321520 0.020000 3.128925
v 1.764410 0.020000 2.763983
v 2.023059 0.020000 2.236057
v 2.214387 0.020000 1.686873
v 2.391543 0.020000 1.123515
v 2.540355 0.020000 0.556615
v 2.653733 0.020000 -0.028001
v 2.614758 0.020000 -0.601987
v 2.391543 0.020000 -1.151171
v 2.143524 0.020000 -1.679097
v 1.920307 0.020000 -2.221195
v 1.711262 0.020000 -2.773923
v 1.349864 0.020000 -3.195555
v 0.800679 0.020000 -3.333737
v 0.226693 0.020000 -3.248702
v -0.326035 0.020000 -3.075089
v -0.882305 0.020000 -2.905019
v -1.456291 0.020000 -2.759751
v -1.761000 0.020000 -2.642828
vt 0.934789 0.261563
vt 0.647139 0.293548
vt 0.646179 0.345690
vt 0.644267 0.340721
vt 0.948829 0.312576
vt 0.644696 0.392102
vt 0.165356 0.062769
vt 0.154035 0.062769
vt 0.154035 0.022053
vt 0.357828 0.022005
vt 0.364716 0.022005
vt 0.364716 0.058445
vt 0.389352 0.022005
vt 0.400550 0.022005
vt 0.400550 0.058445
vt 0.177148 0.062769
vt 0.165356 0.022053
vt 0.485024 0.059659
vt 0.473676 0.059659
vt 0.473676 0.022731
vt 0.377936 0.022005
vt 0.389352 0.058445
vt 0.189249 0.062769
vt 0.177148 0.022053
vt 0.496664 0.059659
vt 0.485024 0.022731
vt 0.371695 0.022005
vt 0.377936 0.058445
vt 0.201432 0.062769
vt 0.189249 0.022053
vt 0.508117 0.059659
vt 0.496664 0.022731
vt 0.371695 0.058445
vt 0.214004 0.062769
vt 0.201432 0.022053
vt 0.518990 0.059659
vt 0.508117 0.022731
vt 0.226379 0.062769
vt 0.214004 0.022053
vt 0.528011 0.059659
vt 0.518990 0.022731
vt 0.238257 0.062769
vt 0.226379 0.022053
vt 0.303496 0.058114
vt 0.293943 0.058114
vt 0.293943 0.025201
vt 0.249683 0.062769
vt 0.238257 0.022053
vt 0.313337 0.058114
vt 0.303496 0.025201
vt 0.261408 0.062769
vt 0.249683 0.022053
vt 0.323354 0.058114
vt 0.313337 0.025201
vt 0.273360 0.062769
vt 0.261408 0.022053
vt 0.333689 0.058114
vt 0.323354 0.025201
vt 0.282519 0.062769
vt 0.273360 0.022053
vt 0.343290 0.058114
vt 0.333689 0.025201
vt 0.462128 0.059659
vt 0.462128 0.022731
vt 0.422839 0.022005
vt 0.432502 0.022005
vt 0.432502 0.058445
vt 0.351752 0.058114
vt 0.343290 0.025201
vt 0.450713 0.059659
vt 0.450713 0.022731
vt 0.411697 0.022005
vt 0.422839 0.058445
vt 0.146264 0.062769
vt 0.146264 0.022053
vt 0.439763 0.059659
vt 0.439763 0.022731
vt 0.411697 0.058445
vt 0.649036 0.448325
vt 0.711803 0.606192
vt 0.745673 0.618215
vt 0.647082 0.396553
vt 0.944013 0.311014
vt 0.650816 0.242281
vt 0.708870 0.125051
vt 0.680180 0.153564
vt 0.659936 0.193693
vt 0.739270 0.101156
vt 0.805250 0.071874
vt 0.771186 0.083124
vt 0.912193 0.164609
vt 0.870198 0.087290
vt 0.838593 0.072428
vt 0.896543 0.118704
vt 0.923902 0.212457
vt 0.951169 0.362058
vt 0.936693 0.460706
vt 0.949358 0.412356
vt 0.877158 0.640948
vt 0.898054 0.603597
vt 0.844984 0.653710
vt 0.922553 0.507225
vt 0.909882 0.554954
vt 0.811165 0.646961
vt 0.693790 0.596325
vt 0.650150 0.499494
vt 0.778522 0.632430
vt 0.674495 0.579767
vt 0.657704 0.548668
vt 0.646189 0.444424
vt 0.925003 0.510210
vt 0.654070 0.545948
vt 0.646831 0.496119
vt 0.690467 0.594903
vt 0.670919 0.577738
vt 0.743251 0.618204
vt 0.708771 0.605282
vt 0.844349 0.656337
vt 0.809869 0.648741
vt 0.899044 0.606959
vt 0.776666 0.633316
vt 0.911598 0.558113
vt 0.877337 0.644192
vt 0.953305 0.415032
vt 0.939899 0.463563
vt 0.955643 0.364284
vt 0.645754 0.288091
vt 0.939887 0.262430
vt 0.650008 0.236408
vt 0.659795 0.187556
vt 0.680863 0.147502
vt 0.710445 0.119372
vt 0.741730 0.095945
vt 0.774505 0.078473
vt 0.929243 0.212593
vt 0.809409 0.067899
vt 0.843462 0.069228
vt 0.917747 0.164007
vt 0.875601 0.084964
vt 0.902207 0.117292
vt 0.357828 0.058445
vt 0.528011 0.022731
vt 0.282519 0.022053
vt 0.351752 0.025201
vn 0.000000 -1.000000 -0.000000
vn 0.000000 1.000000 0.000000
vn 0.898000 0.000000 0.440000
vn -0.788100 0.000000 -0.615500
vn -0.292400 0.000000 -0.956300
vn 0.944300 0.000000 0.329000
vn -0.999900 0.000000 -0.012200
vn -0.245400 0.000000 -0.969400
vn 0.953900 0.000000 0.300000
vn -0.999100 0.000000 0.041600
vn -0.358300 0.000000 -0.933600
vn 0.967200 0.000000 0.253900
vn -0.992700 0.000000 0.120300
vn -0.511400 0.000000 -0.859400
vn 0.981700 0.000000 0.190400
vn -0.959200 0.000000 0.282800
vn 0.997700 0.000000 -0.067700
vn -0.791000 0.000000 0.611800
vn 0.926400 0.000000 -0.376500
vn -0.543500 0.000000 0.839400
vn 0.905100 0.000000 -0.425200
vn -0.454500 0.000000 0.890800
vn 0.924700 0.000000 -0.380700
vn -0.341700 0.000000 0.939800
vn 0.935300 0.000000 -0.353800
vn -0.203000 0.000000 0.979200
vn 0.759300 0.000000 -0.650800
vn 0.025000 0.000000 0.999700
vn -0.999100 0.000000 -0.041900
vn 0.244000 0.000000 -0.969800
vn 0.314300 0.000000 0.949300
vn -0.999800 0.000000 -0.018200
vn -0.146500 0.000000 -0.989200
vn 0.635900 0.000000 0.771800
vn -0.977900 0.000000 -0.209100
vn -0.299700 0.000000 -0.954000
usemtl None
s off
f 20/1/1 7/2/1 6/3/1
f 40/4/2 55/5/2 39/6/2
f 52/7/3 51/8/3 17/9/3
f 38/10/4 37/11/4 3/12/4
f 66/13/5 65/14/5 31/15/5
f 53/16/6 52/7/6 18/17/6
f 40/18/7 39/19/7 5/20/7
f 67/21/8 66/13/8 32/22/8
f 54/23/9 53/16/9 19/24/9
f 41/25/10 40/18/10 6/26/10
f 68/27/11 67/21/11 33/28/11
f 55/29/12 54/23/12 20/30/12
f 42/31/13 41/25/13 7/32/13
f 37/11/14 68/27/14 34/33/14
f 56/34/15 55/29/15 21/35/15
f 43/36/16 42/31/16 8/37/16
f 57/38/17 56/34/17 22/39/17
f 44/40/18 43/36/18 9/41/18
f 58/42/19 57/38/19 23/43/19
f 45/44/20 44/45/20 10/46/20
f 59/47/21 58/42/21 24/48/21
f 46/49/22 45/44/22 11/50/22
f 60/51/23 59/47/23 25/52/23
f 47/53/24 46/49/24 12/54/24
f 61/55/25 60/51/25 26/56/25
f 48/57/26 47/53/26 13/58/26
f 62/59/27 61/55/27 27/60/27
f 49/61/28 48/57/28 14/62/28
f 39/19/29 35/63/29 1/64/29
f 63/65/30 62/66/30 28/67/30
f 50/68/31 49/61/31 15/69/31
f 35/63/32 36/70/32 2/71/32
f 64/72/33 63/65/33 29/73/33
f 51/8/34 50/74/34 16/75/34
f 36/70/35 38/76/35 4/77/35
f 65/14/36 64/72/36 30/78/36
f 1/79/1 33/80/1 32/81/1
f 6/3/1 5/82/1 21/83/1
f 8/84/1 7/2/1 11/85/1
f 10/86/1 9/87/1 8/84/1
f 12/88/1 11/85/1 7/2/1
f 14/89/1 13/90/1 18/91/1
f 16/92/1 15/93/1 18/91/1
f 18/91/1 17/94/1 16/92/1
f 20/1/1 19/95/1 7/2/1
f 22/96/1 21/83/1 24/97/1
f 24/97/1 23/98/1 22/96/1
f 28/99/1 27/100/1 29/101/1
f 25/102/1 24/97/1 5/82/1
f 27/100/1 26/103/1 30/104/1
f 30/104/1 29/101/1 27/100/1
f 34/105/1 33/80/1 2/106/1
f 31/107/1 30/104/1 26/103/1
f 3/108/1 34/105/1 4/109/1
f 32/81/1 31/107/1 25/102/1
f 26/103/1 25/102/1 31/107/1
f 21/83/1 20/1/1 6/3/1
f 18/91/1 15/93/1 14/89/1
f 13/90/1 12/88/1 19/95/1
f 10/86/1 8/84/1 11/85/1
f 5/82/1 1/79/1 25/102/1
f 4/109/1 34/105/1 2/106/1
f 32/81/1 25/102/1 1/79/1
f 19/95/1 18/91/1 13/90/1
f 12/88/1 7/2/1 19/95/1
f 2/106/1 33/80/1 1/79/1
f 24/97/1 21/83/1 5/82/1
f 35/110/2 39/6/2 59/111/2
f 38/112/2 36/113/2 68/114/2
f 68/114/2 37/115/2 38/112/2
f 66/116/2 67/117/2 35/110/2
f 63/118/2 64/119/2 61/120/2
f 67/117/2 68/114/2 36/113/2
f 64/119/2 65/121/2 60/122/2
f 61/120/2 62/123/2 63/118/2
f 57/124/2 58/125/2 56/126/2
f 60/122/2 61/120/2 64/119/2
f 56/126/2 58/125/2 55/5/2
f 59/111/2 60/122/2 65/121/2
f 65/121/2 66/116/2 59/111/2
f 36/113/2 35/110/2 67/117/2
f 40/4/2 41/127/2 54/128/2
f 42/129/2 43/130/2 44/131/2
f 44/131/2 45/132/2 42/129/2
f 46/133/2 47/134/2 53/135/2
f 48/136/2 49/137/2 52/138/2
f 50/139/2 51/140/2 52/138/2
f 52/138/2 47/134/2 48/136/2
f 54/128/2 55/5/2 40/4/2
f 58/125/2 39/6/2 55/5/2
f 66/116/2 35/110/2 59/111/2
f 41/127/2 45/132/2 46/133/2
f 45/132/2 41/127/2 42/129/2
f 49/137/2 50/139/2 52/138/2
f 53/135/2 47/134/2 52/138/2
f 59/111/2 39/6/2 58/125/2
f 41/127/2 53/135/2 54/128/2
f 53/135/2 41/127/2 46/133/2
f 18/17/3 52/7/3 17/9/3
f 4/141/4 38/10/4 3/12/4
f 32/22/5 66/13/5 31/15/5
f 19/24/6 53/16/6 18/17/6
f 6/26/7 40/18/7 5/20/7
f 33/28/8 67/21/8 32/22/8
f 20/30/9 54/23/9 19/24/9
f 7/32/10 41/25/10 6/26/10
f 34/33/11 68/27/11 33/28/11
f 21/35/12 55/29/12 20/30/12
f 8/37/13 42/31/13 7/32/13
f 3/12/14 37/11/14 34/33/14
f 22/39/15 56/34/15 21/35/15
f 9/41/16 43/36/16 8/37/16
f 23/43/17 57/38/17 22/39/17
f 10/142/18 44/40/18 9/41/18
f 24/48/19 58/42/19 23/43/19
f 11/50/20 45/44/20 10/46/20
f 25/52/21 59/47/21 24/48/21
f 12/54/22 46/49/22 11/50/22
f 26/56/23 60/51/23 25/52/23
f 13/58/24 47/53/24 12/54/24
f 27/60/25 61/55/25 26/56/25
f 14/62/26 48/57/26 13/58/26
f 28/143/27 62/59/27 27/60/27
f 15/69/28 49/61/28 14/62/28
f 5/20/29 39/19/29 1/64/29
f 29/73/30 63/65/30 28/67/30
f 16/144/31 50/68/31 15/69/31
f 1/64/32 35/63/32 2/71/32
f 30/78/33 64/72/33 29/73/33
f 17/9/34 51/8/34 16/75/34
f 2/71/35 36/70/35 4/77/35
f 31/15/36 65/14/36 30/78/36
