# Blender v2.76 (sub 0) OBJ File: 'Blue Cloud I.blend'
# www.blender.org
mtllib Blue Cloud I 1.mtl
o Plane
v -1.650796 -0.020000 -1.347930
v -1.414335 -0.020000 -1.564918
v -0.842631 -0.020000 -1.791241
v -1.147272 -0.020000 -1.712359
v -1.750945 -0.020000 -1.066958
v -1.695307 -0.020000 -0.777641
v -1.620195 -0.020000 -0.454940
v -1.617413 -0.020000 -0.137804
v -1.606286 -0.020000 0.179333
v -1.500574 -0.020000 0.460305
v -1.316968 -0.020000 0.732931
v -1.088853 -0.020000 0.969393
v -0.813445 -0.020000 1.139089
v -0.540818 -0.020000 1.303221
v -0.248719 -0.020000 1.422842
v 0.060072 -0.020000 1.481262
v 0.371644 -0.020000 1.478480
v 0.685999 -0.020000 1.447879
v 1.017045 -0.020000 1.414497
v 1.320273 -0.020000 1.344949
v 1.631846 -0.020000 1.233673
v 1.832142 -0.020000 1.022249
v 1.935073 -0.020000 0.727367
v 1.948982 -0.020000 0.399103
v 1.879435 -0.020000 0.084748
v 1.754249 -0.020000 -0.212915
v 1.592899 -0.020000 -0.516142
v 1.378693 -0.020000 -0.660801
v 1.064338 -0.020000 -0.727567
v 0.737246 -0.020000 -0.743679
v 0.449538 -0.020000 -0.913954
v 0.188040 -0.020000 -1.083650
v -0.059550 -0.020000 -1.314548
v -0.259846 -0.020000 -1.553791
v -0.521345 -0.020000 -1.731833
v -1.650796 0.020000 -1.347930
v -1.414335 0.020000 -1.564918
v -0.842631 0.020000 -1.791241
v -1.147272 0.020000 -1.712359
v -1.750945 0.020000 -1.066958
v -1.695307 0.020000 -0.777641
v -1.620195 0.020000 -0.454940
v -1.617413 0.020000 -0.137804
v -1.606286 0.020000 0.179333
v -1.500574 0.020000 0.460305
v -1.316968 0.020000 0.732931
v -1.088853 0.020000 0.969393
v -0.813445 0.020000 1.139089
v -0.540818 0.020000 1.303221
v -0.248719 0.020000 1.422842
v 0.060072 0.020000 1.481262
v 0.371644 0.020000 1.478480
v 0.685999 0.020000 1.447879
v 1.017045 0.020000 1.414497
v 1.320273 0.020000 1.344949
v 1.631846 0.020000 1.233673
v 1.832142 0.020000 1.022249
v 1.935073 0.020000 0.727367
v 1.948982 0.020000 0.399103
v 1.879435 0.020000 0.084748
v 1.754249 0.020000 -0.212915
v 1.592899 0.020000 -0.516142
v 1.378693 0.020000 -0.660801
v 1.064338 0.020000 -0.727567
v 0.737246 0.020000 -0.743679
v 0.449538 0.020000 -0.913954
v 0.188040 0.020000 -1.083650
v -0.059550 0.020000 -1.314548
v -0.259846 0.020000 -1.553791
v -0.521345 0.020000 -1.731833
vt 0.331999 0.436119
vt 0.178149 0.154434
vt 0.155744 0.190232
vt 0.331757 0.436238
vt 0.155615 0.189397
vt 0.178108 0.153688
vt 0.383254 0.957168
vt 0.342901 0.957168
vt 0.342901 0.944062
vt 0.398604 0.928192
vt 0.431372 0.928192
vt 0.431372 0.939265
vt 0.000000 1.000000
vt 0.000000 0.957353
vt 0.008737 0.957353
vt 0.423139 0.957168
vt 0.383254 0.944062
vt 0.365832 0.928192
vt 0.398604 0.939265
vt 0.000000 0.904938
vt 0.008737 0.904938
vt 0.459810 0.957168
vt 0.423139 0.944062
vt 0.331331 0.928192
vt 0.365832 0.939265
vt 0.336510 0.940473
vt 0.299846 0.940473
vt 0.299846 0.927367
vt 0.496506 0.957168
vt 0.459810 0.944062
vt 0.300134 0.928192
vt 0.331331 0.939265
vt 0.377538 0.940473
vt 0.336510 0.927367
vt 0.008737 0.838247
vt 0.008737 0.788285
vt 0.017474 0.788285
vt 0.268490 0.928192
vt 0.300134 0.939265
vt 0.417136 0.940473
vt 0.377538 0.927367
vt 0.000000 0.843644
vt 0.000000 0.788285
vt 0.467372 0.930957
vt 0.489869 0.930957
vt 0.489869 0.944062
vt 0.456818 0.940473
vt 0.417136 0.927367
vt 0.008737 0.843644
vt 0.432750 0.930957
vt 0.467372 0.944062
vt 0.492951 0.940473
vt 0.456818 0.927367
vt 0.392358 0.930957
vt 0.432750 0.944062
vt 0.528835 0.940472
vt 0.492951 0.927367
vt 0.352154 0.930957
vt 0.392358 0.944062
vt 0.560660 0.940472
vt 0.528835 0.927367
vt 0.312993 0.930957
vt 0.352154 0.944062
vt 0.526867 0.928192
vt 0.557616 0.928192
vt 0.557616 0.939265
vt 0.272478 0.930957
vt 0.312993 0.944062
vt 0.496469 0.928192
vt 0.526867 0.939265
vt 0.302676 0.957168
vt 0.272478 0.957168
vt 0.272478 0.944062
vt 0.464482 0.928192
vt 0.496469 0.939265
vt 0.265808 0.940473
vt 0.265808 0.927367
vt 0.302676 0.944062
vt 0.464482 0.939265
vt 0.241140 0.940473
vt 0.241140 0.927367
vt 0.111434 0.458612
vt 0.120796 0.500668
vt 0.117956 0.415266
vt 0.143791 0.533107
vt 0.170976 0.555123
vt 0.202841 0.567837
vt 0.233555 0.560486
vt 0.359841 0.411195
vt 0.392320 0.407072
vt 0.460827 0.331771
vt 0.260271 0.533429
vt 0.422568 0.399923
vt 0.444804 0.376250
vt 0.280720 0.495268
vt 0.387565 0.088867
vt 0.304658 0.463228
vt 0.125258 0.368869
vt 0.233195 0.106577
vt 0.473803 0.285856
vt 0.418229 0.098230
vt 0.479420 0.189921
vt 0.467863 0.146759
vt 0.449184 0.116446
vt 0.356566 0.083300
vt 0.324003 0.078145
vt 0.292075 0.079760
vt 0.262202 0.087936
vt 0.204737 0.129274
vt 0.136895 0.230459
vt 0.124962 0.319417
vt 0.126819 0.271265
vt 0.480296 0.239733
vt 0.120646 0.501016
vt 0.117743 0.414906
vt 0.111478 0.458452
vt 0.125101 0.369950
vt 0.125167 0.319990
vt 0.304817 0.463415
vt 0.126347 0.270813
vt 0.136508 0.230685
vt 0.204537 0.129321
vt 0.232871 0.106612
vt 0.262067 0.087552
vt 0.292388 0.079143
vt 0.360246 0.410909
vt 0.323524 0.078167
vt 0.356303 0.083358
vt 0.388030 0.088887
vt 0.418039 0.098679
vt 0.473904 0.286533
vt 0.450249 0.116268
vt 0.468554 0.146590
vt 0.479632 0.190483
vt 0.480427 0.239969
vt 0.460956 0.331687
vt 0.445181 0.376188
vt 0.422466 0.400257
vt 0.280362 0.495103
vt 0.260399 0.533150
vt 0.392130 0.407469
vt 0.233457 0.559925
vt 0.171180 0.554904
vt 0.202697 0.568126
vt 0.008737 1.000000
vt 0.496506 0.944062
vt 0.017474 0.838247
vt 0.268490 0.939265
vt 0.560660 0.927367
vn 0.000000 -1.000000 0.000000
vn 0.000000 1.000000 -0.000000
vn 0.049200 0.000000 -0.998800
vn 0.008900 0.000000 1.000000
vn -0.483300 0.000000 -0.875400
vn 0.509300 0.000000 -0.860600
vn 0.096900 0.000000 0.995300
vn -0.250700 0.000000 -0.968100
vn 0.544400 0.000000 -0.838900
vn 0.100300 0.000000 0.995000
vn -0.982000 0.000000 0.188800
vn 0.682000 0.000000 -0.731300
vn 0.223600 0.000000 0.974700
vn -0.974000 0.000000 0.226700
vn 0.766800 0.000000 -0.641900
vn 0.336300 0.000000 0.941700
vn -1.000000 0.000000 0.008800
vn 0.562800 0.000000 -0.826600
vn 0.726000 0.000000 0.687700
vn -0.999400 0.000000 0.035100
vn 0.181800 0.000000 -0.983300
vn 0.944100 0.000000 0.329600
vn -0.935900 0.000000 0.352100
vn 0.999100 0.000000 0.042300
vn -0.829400 0.000000 0.558600
vn 0.976400 0.000000 -0.216000
vn -0.719700 0.000000 0.694300
vn 0.921800 0.000000 -0.387700
vn -0.524600 0.000000 0.851400
vn 0.882800 0.000000 -0.469700
vn -0.515800 0.000000 0.856700
vn 0.559700 0.000000 -0.828700
vn -0.379000 0.000000 0.925400
vn -0.942000 0.000000 -0.335700
vn 0.207800 0.000000 -0.978200
vn -0.185900 0.000000 0.982600
vn -0.676100 0.000000 -0.736800
usemtl None
s off
f 31/1/1 12/2/1 11/3/1
f 66/4/2 46/5/2 47/6/2
f 65/7/3 64/8/3 29/9/3
f 52/10/4 51/11/4 16/12/4
f 37/13/5 39/14/5 4/15/5
f 66/16/6 65/7/6 30/17/6
f 53/18/7 52/10/7 17/19/7
f 39/14/8 38/20/8 3/21/8
f 67/22/9 66/16/9 31/23/9
f 54/24/10 53/18/10 18/25/10
f 41/26/11 40/27/11 5/28/11
f 68/29/12 67/22/12 32/30/12
f 55/31/13 54/24/13 19/32/13
f 42/33/14 41/26/14 6/34/14
f 69/35/15 68/36/15 33/37/15
f 56/38/16 55/31/16 20/39/16
f 43/40/17 42/33/17 7/41/17
f 70/42/18 69/43/18 34/36/18
f 57/44/19 56/45/19 21/46/19
f 44/47/20 43/40/20 8/48/20
f 38/20/21 70/42/21 35/49/21
f 58/50/22 57/44/22 22/51/22
f 45/52/23 44/47/23 9/53/23
f 59/54/24 58/50/24 23/55/24
f 46/56/25 45/52/25 10/57/25
f 60/58/26 59/54/26 24/59/26
f 47/60/27 46/56/27 11/61/27
f 61/62/28 60/58/28 25/63/28
f 48/64/29 47/65/29 12/66/29
f 62/67/30 61/62/30 26/68/30
f 49/69/31 48/64/31 13/70/31
f 63/71/32 62/72/32 27/73/32
f 50/74/33 49/69/33 14/75/33
f 40/27/34 36/76/34 1/77/34
f 64/8/35 63/71/35 28/78/35
f 51/11/36 50/74/36 15/79/36
f 36/76/37 37/80/37 2/81/37
f 5/82/1 1/83/1 6/84/1
f 2/85/1 4/86/1 6/84/1
f 3/87/1 35/88/1 4/86/1
f 30/89/1 29/90/1 26/91/1
f 35/88/1 34/92/1 4/86/1
f 29/90/1 28/93/1 26/91/1
f 34/92/1 6/84/1 4/86/1
f 28/93/1 27/94/1 26/91/1
f 34/92/1 33/95/1 6/84/1
f 30/89/1 26/91/1 19/96/1
f 33/95/1 32/97/1 7/98/1
f 31/1/1 30/89/1 14/99/1
f 25/100/1 20/101/1 19/96/1
f 23/102/1 22/103/1 20/101/1
f 21/104/1 20/101/1 22/103/1
f 19/96/1 18/105/1 30/89/1
f 17/106/1 16/107/1 30/89/1
f 15/108/1 14/99/1 30/89/1
f 13/109/1 12/2/1 31/1/1
f 11/3/1 10/110/1 8/111/1
f 9/112/1 8/111/1 10/110/1
f 7/98/1 6/84/1 33/95/1
f 1/83/1 2/85/1 6/84/1
f 26/91/1 25/100/1 19/96/1
f 23/102/1 20/101/1 24/113/1
f 18/105/1 17/106/1 30/89/1
f 14/99/1 13/109/1 31/1/1
f 11/3/1 32/97/1 31/1/1
f 7/98/1 32/97/1 8/111/1
f 24/113/1 20/101/1 25/100/1
f 16/107/1 15/108/1 30/89/1
f 8/111/1 32/97/1 11/3/1
f 37/85/2 36/114/2 41/115/2
f 40/116/2 41/115/2 36/114/2
f 42/117/2 43/118/2 67/119/2
f 44/120/2 45/121/2 43/118/2
f 46/5/2 66/4/2 67/119/2
f 48/122/2 49/123/2 66/4/2
f 50/124/2 51/125/2 65/126/2
f 52/127/2 53/128/2 65/126/2
f 54/129/2 55/130/2 60/131/2
f 56/132/2 57/133/2 55/130/2
f 58/134/2 59/135/2 55/130/2
f 60/131/2 61/136/2 54/129/2
f 62/137/2 63/138/2 61/136/2
f 68/139/2 69/140/2 41/115/2
f 63/138/2 64/141/2 61/136/2
f 67/119/2 68/139/2 42/117/2
f 61/136/2 64/141/2 65/126/2
f 69/140/2 70/142/2 39/143/2
f 61/136/2 65/126/2 54/129/2
f 70/142/2 38/144/2 39/143/2
f 65/126/2 51/125/2 52/127/2
f 57/133/2 58/134/2 55/130/2
f 53/128/2 54/129/2 65/126/2
f 49/123/2 65/126/2 66/4/2
f 45/121/2 46/5/2 43/118/2
f 37/85/2 41/115/2 39/143/2
f 43/118/2 46/5/2 67/119/2
f 48/122/2 66/4/2 47/6/2
f 59/135/2 60/131/2 55/130/2
f 69/140/2 39/143/2 41/115/2
f 41/115/2 42/117/2 68/139/2
f 65/126/2 49/123/2 50/124/2
f 30/17/3 65/7/3 29/9/3
f 17/19/4 52/10/4 16/12/4
f 2/145/5 37/13/5 4/15/5
f 31/23/6 66/16/6 30/17/6
f 18/25/7 53/18/7 17/19/7
f 4/15/8 39/14/8 3/21/8
f 32/30/9 67/22/9 31/23/9
f 19/32/10 54/24/10 18/25/10
f 6/34/11 41/26/11 5/28/11
f 33/146/12 68/29/12 32/30/12
f 20/39/13 55/31/13 19/32/13
f 7/41/14 42/33/14 6/34/14
f 34/147/15 69/35/15 33/37/15
f 21/148/16 56/38/16 20/39/16
f 8/48/17 43/40/17 7/41/17
f 35/49/18 70/42/18 34/36/18
f 22/51/19 57/44/19 21/46/19
f 9/53/20 44/47/20 8/48/20
f 3/21/21 38/20/21 35/49/21
f 23/55/22 58/50/22 22/51/22
f 10/57/23 45/52/23 9/53/23
f 24/59/24 59/54/24 23/55/24
f 11/61/25 46/56/25 10/57/25
f 25/63/26 60/58/26 24/59/26
f 12/149/27 47/60/27 11/61/27
f 26/68/28 61/62/28 25/63/28
f 13/70/29 48/64/29 12/66/29
f 27/73/30 62/67/30 26/68/30
f 14/75/31 49/69/31 13/70/31
f 28/78/32 63/71/32 27/73/32
f 15/79/33 50/74/33 14/75/33
f 5/28/34 40/27/34 1/77/34
f 29/9/35 64/8/35 28/78/35
f 16/12/36 51/11/36 15/79/36
f 1/77/37 36/76/37 2/81/37
