# Blender v2.76 (sub 0) OBJ File: 'Blue Cloud A.blend'
# www.blender.org
mtllib Blue Cloud A 1.mtl
o Plane
v 2.284624 -0.020000 -3.149518
v 1.080941 -0.020000 -2.487327
v 1.494834 -0.020000 -2.859831
v 1.958395 -0.020000 -3.083333
v 0.802694 -0.020000 -2.217206
v 0.456719 -0.020000 -1.827984
v 0.104089 -0.020000 -1.428781
v -0.132105 -0.020000 -1.165972
v -0.331707 -0.020000 -0.953065
v -0.574555 -0.020000 -0.740157
v -1.040291 -0.020000 -0.470695
v -1.559255 -0.020000 -0.297707
v -2.101505 -0.020000 -0.257787
v -2.620471 -0.020000 -0.307687
v -3.139434 -0.020000 -0.397508
v -3.665050 -0.020000 -0.424122
v -4.177361 -0.020000 -0.327648
v -4.626463 -0.020000 -0.098107
v -5.002379 -0.020000 0.267829
v -5.185347 -0.020000 0.760179
v -5.168714 -0.020000 1.272489
v -4.953811 -0.020000 1.719264
v -4.590537 -0.020000 2.090522
v -4.099518 -0.020000 2.270164
v -3.592530 -0.020000 2.357988
v -3.061592 -0.020000 2.385932
v -2.542629 -0.020000 2.385932
v -2.015681 -0.020000 2.361980
v -1.484741 -0.020000 2.314076
v -0.965778 -0.020000 2.246211
v -0.438830 -0.020000 2.170365
v 0.100094 -0.020000 2.098508
v 0.611073 -0.020000 1.978747
v 1.130036 -0.020000 1.870963
v 1.633031 -0.020000 1.743219
v 2.124050 -0.020000 1.615474
v 2.643014 -0.020000 1.479745
v 3.165970 -0.020000 1.355992
v 3.664973 -0.020000 1.208287
v 4.120065 -0.020000 0.944813
v 4.407491 -0.020000 0.517666
v 4.391522 -0.020000 -0.009281
v 4.339626 -0.020000 -0.520261
v 4.443419 -0.020000 -1.051200
v 4.367570 -0.020000 -1.546212
v 4.227849 -0.020000 -2.057191
v 4.016272 -0.020000 -2.540227
v 3.668965 -0.020000 -2.899509
v 3.185930 -0.020000 -3.119071
v 2.647006 -0.020000 -3.178951
v 2.284624 0.020000 -3.149518
v 1.080941 0.020000 -2.487327
v 1.494834 0.020000 -2.859831
v 1.958395 0.020000 -3.083333
v 0.802694 0.020000 -2.217206
v 0.456719 0.020000 -1.827984
v 0.104089 0.020000 -1.428781
v -0.132105 0.020000 -1.165972
v -0.331707 0.020000 -0.953065
v -0.574555 0.020000 -0.740157
v -1.040291 0.020000 -0.470695
v -1.559255 0.020000 -0.297707
v -2.101505 0.020000 -0.257787
v -2.620471 0.020000 -0.307687
v -3.139434 0.020000 -0.397508
v -3.665050 0.020000 -0.424122
v -4.177361 0.020000 -0.327648
v -4.626463 0.020000 -0.098107
v -5.002379 0.020000 0.267829
v -5.185347 0.020000 0.760179
v -5.168714 0.020000 1.272489
v -4.953811 0.020000 1.719264
v -4.590537 0.020000 2.090522
v -4.099518 0.020000 2.270164
v -3.592530 0.020000 2.357988
v -3.061592 0.020000 2.385932
v -2.542629 0.020000 2.385932
v -2.015681 0.020000 2.361980
v -1.484741 0.020000 2.314076
v -0.965778 0.020000 2.246211
v -0.438830 0.020000 2.170365
v 0.100094 0.020000 2.098508
v 0.611073 0.020000 1.978747
v 1.130036 0.020000 1.870963
v 1.633031 0.020000 1.743219
v 2.124050 0.020000 1.615474
v 2.643014 0.020000 1.479745
v 3.165970 0.020000 1.355992
v 3.664973 0.020000 1.208287
v 4.120065 0.020000 0.944813
v 4.407491 0.020000 0.517666
v 4.391522 0.020000 -0.009281
v 4.339626 0.020000 -0.520261
v 4.443419 0.020000 -1.051200
v 4.367570 0.020000 -1.546212
v 4.227849 0.020000 -2.057191
v 4.016272 0.020000 -2.540227
v 3.668965 0.020000 -2.899509
v 3.185930 0.020000 -3.119071
v 2.647006 0.020000 -3.178951
vt 0.482044 0.155602
vt 0.453523 0.144916
vt 0.366270 0.424830
vt 0.394769 0.126612
vt 0.326210 0.365076
vt 0.365215 0.116344
vt 0.113889 0.055863
vt 0.091336 0.055863
vt 0.091336 0.039918
vt 0.299022 0.055863
vt 0.288017 0.055863
vt 0.288017 0.039918
vt 0.446099 0.060513
vt 0.418390 0.060513
vt 0.418390 0.042792
vt 0.351467 0.054803
vt 0.325570 0.054803
vt 0.325570 0.033201
vt 0.140078 0.055863
vt 0.113889 0.039918
vt 0.312155 0.055863
vt 0.299022 0.039918
vt 0.475391 0.060513
vt 0.446099 0.042792
vt 0.101793 0.060513
vt 0.076284 0.060513
vt 0.076284 0.042792
vt 0.158075 0.055863
vt 0.140078 0.039917
vt 0.336570 0.055863
vt 0.312155 0.039918
vt 0.504815 0.060513
vt 0.475391 0.042792
vt 0.128830 0.060513
vt 0.101793 0.042792
vt 0.363070 0.055863
vt 0.336570 0.039918
vt 0.533103 0.060513
vt 0.504815 0.042792
vt 0.157604 0.060513
vt 0.128830 0.042792
vt 0.389977 0.055863
vt 0.363070 0.039918
vt 0.559823 0.060513
vt 0.533103 0.042792
vt 0.185923 0.060513
vt 0.157604 0.042792
vt 0.415240 0.055863
vt 0.389977 0.039918
vt 0.403537 0.024830
vt 0.429486 0.024830
vt 0.429486 0.046432
vt 0.214850 0.060513
vt 0.185923 0.042792
vt 0.440281 0.055863
vt 0.415240 0.039918
vt 0.368337 0.024830
vt 0.403537 0.046432
vt 0.198551 0.055863
vt 0.174497 0.055863
vt 0.174497 0.039918
vt 0.244167 0.060513
vt 0.214850 0.042792
vt 0.466000 0.055863
vt 0.440281 0.039918
vt 0.333889 0.024830
vt 0.368337 0.046432
vt 0.236179 0.055863
vt 0.220987 0.055863
vt 0.220987 0.039918
vt 0.272972 0.060513
vt 0.244167 0.042792
vt 0.491747 0.055863
vt 0.466000 0.039918
vt 0.299454 0.024830
vt 0.333889 0.046432
vt 0.198551 0.039918
vt 0.302271 0.060513
vt 0.272972 0.042792
vt 0.515123 0.055863
vt 0.491747 0.039918
vt 0.265863 0.024830
vt 0.299454 0.046432
vt 0.158075 0.039917
vt 0.332194 0.060513
vt 0.302271 0.042792
vt 0.535653 0.055863
vt 0.515123 0.039918
vt 0.230661 0.024830
vt 0.265863 0.046432
vt 0.255366 0.055863
vt 0.236179 0.039918
vt 0.360936 0.060513
vt 0.332194 0.042792
vt 0.260634 0.054803
vt 0.228136 0.054803
vt 0.228136 0.033201
vt 0.196699 0.024830
vt 0.230661 0.046432
vt 0.274935 0.055863
vt 0.255366 0.039918
vt 0.390027 0.060513
vt 0.360936 0.042792
vt 0.295023 0.054803
vt 0.260634 0.033201
vt 0.169803 0.024830
vt 0.196699 0.046432
vt 0.274935 0.039918
vt 0.390027 0.042792
vt 0.295023 0.033201
vt 0.447520 0.548901
vt 0.474492 0.568017
vt 0.493433 0.573477
vt 0.514455 0.575674
vt 0.605611 0.475578
vt 0.545672 0.569847
vt 0.573579 0.550071
vt 0.593556 0.518181
vt 0.613488 0.430600
vt 0.617669 0.387091
vt 0.611420 0.340620
vt 0.614206 0.295736
vt 0.542561 0.177259
vt 0.614901 0.249488
vt 0.598052 0.212319
vt 0.571554 0.189687
vt 0.512190 0.166958
vt 0.386888 0.459478
vt 0.424307 0.134244
vt 0.340798 0.383557
vt 0.394174 0.125339
vt 0.364499 0.115375
vt 0.326627 0.365136
vt 0.333225 0.109644
vt 0.269348 0.327365
vt 0.299509 0.341991
vt 0.272527 0.098148
vt 0.237894 0.324440
vt 0.211167 0.092968
vt 0.207830 0.329369
vt 0.150314 0.096536
vt 0.120960 0.104780
vt 0.147324 0.340695
vt 0.092573 0.121062
vt 0.071675 0.154020
vt 0.059411 0.193445
vt 0.058671 0.238409
vt 0.069493 0.281409
vt 0.091446 0.313114
vt 0.117582 0.332775
vt 0.177784 0.337801
vt 0.407115 0.493258
vt 0.352463 0.402024
vt 0.423363 0.516660
vt 0.181081 0.093520
vt 0.241726 0.094509
vt 0.302643 0.103550
vt 0.491585 0.574749
vt 0.472717 0.569093
vt 0.445906 0.549727
vt 0.421966 0.517298
vt 0.405872 0.493773
vt 0.385860 0.459853
vt 0.610427 0.343766
vt 0.207879 0.328085
vt 0.177865 0.336164
vt 0.182353 0.092517
vt 0.147465 0.338714
vt 0.151646 0.095185
vt 0.512291 0.169432
vt 0.237894 0.323499
vt 0.212368 0.092299
vt 0.482275 0.157771
vt 0.117835 0.330486
vt 0.122324 0.103085
vt 0.612048 0.433548
vt 0.091859 0.310584
vt 0.365463 0.425061
vt 0.269256 0.326765
vt 0.273553 0.098143
vt 0.512545 0.577173
vt 0.603969 0.478329
vt 0.072918 0.151660
vt 0.543714 0.571706
vt 0.070116 0.278714
vt 0.059531 0.235699
vt 0.571649 0.552286
vt 0.591735 0.520695
vt 0.299272 0.341688
vt 0.334045 0.110282
vt 0.616432 0.390191
vt 0.614347 0.252895
vt 0.613426 0.299021
vt 0.597721 0.215630
vt 0.453876 0.146796
vt 0.093926 0.119014
vt 0.242845 0.094174
vt 0.303568 0.103865
vt 0.060491 0.190854
vt 0.351801 0.402159
vt 0.571399 0.192762
vt 0.542538 0.180044
vt 0.340256 0.383608
vt 0.424784 0.135827
vt 0.351467 0.033201
vt 0.559823 0.042792
vt 0.535653 0.039918
vt 0.169803 0.046432
vn 0.000000 -1.000000 0.000000
vn 0.000000 1.000000 -0.000000
vn 0.413800 0.000000 -0.910400
vn -0.729500 0.000000 -0.683900
vn 0.251800 0.000000 0.967800
vn -0.714800 0.000000 0.699400
vn 0.110400 0.000000 -0.993900
vn -0.659200 0.000000 -0.751900
vn 0.253000 0.000000 0.967500
vn -0.343600 0.000000 0.939100
vn -0.081000 0.000000 -0.996700
vn -0.500800 0.000000 -0.865600
vn 0.230300 0.000000 0.973100
vn -0.170700 0.000000 0.985300
vn -0.316200 0.000000 -0.948700
vn 0.283800 0.000000 0.958900
vn -0.052600 0.000000 0.998600
vn -0.073400 0.000000 -0.997300
vn 0.501000 0.000000 0.865400
vn 0.000000 0.000000 1.000000
vn 0.095700 0.000000 -0.995400
vn 0.829700 0.000000 0.558300
vn 0.045400 0.000000 0.999000
vn 0.170500 0.000000 -0.985400
vn 0.999500 0.000000 -0.030300
vn -0.434300 0.000000 -0.900800
vn 0.089900 0.000000 0.996000
vn 0.050600 0.000000 -0.998700
vn 0.994900 0.000000 -0.101000
vn -0.696600 0.000000 -0.717500
vn 0.129700 0.000000 0.991600
vn -0.185100 0.000000 -0.982700
vn 0.981400 0.000000 0.191900
vn -0.669000 0.000000 -0.743300
vn 0.142500 0.000000 0.989800
vn -0.455100 0.000000 -0.890400
vn 0.988500 0.000000 -0.151500
vn -0.198800 0.000000 -0.980000
vn 0.132200 0.000000 0.991200
vn -0.697500 0.000000 -0.716600
vn 0.964600 0.000000 -0.263800
vn -0.747400 0.000000 -0.664400
vn 0.228200 0.000000 0.973600
vn -0.937400 0.000000 -0.348300
vn 0.916000 0.000000 -0.401200
vn -0.749500 0.000000 -0.662000
vn 0.203400 0.000000 0.979100
vn -0.999500 0.000000 0.032500
vn 0.719000 0.000000 -0.695000
vn -0.743800 0.000000 -0.668400
vn 0.246200 0.000000 0.969200
vn -0.901200 0.000000 0.433500
usemtl None
s off
f 36/1/1 35/2/1 7/3/1
f 83/4/2 60/5/2 82/6/2
f 99/7/3 98/8/3 48/9/3
f 59/10/4 58/11/4 8/12/4
f 86/13/5 85/14/5 35/15/5
f 73/16/6 72/17/6 22/18/6
f 100/19/7 99/7/7 49/20/7
f 60/21/8 59/10/8 9/22/8
f 87/23/9 86/13/9 36/24/9
f 74/25/10 73/26/10 23/27/10
f 51/28/11 100/19/11 50/29/11
f 61/30/12 60/21/12 10/31/12
f 88/32/13 87/23/13 37/33/13
f 75/34/14 74/25/14 24/35/14
f 62/36/15 61/30/15 11/37/15
f 89/38/16 88/32/16 38/39/16
f 76/40/17 75/34/17 25/41/17
f 63/42/18 62/36/18 12/43/18
f 90/44/19 89/38/19 39/45/19
f 77/46/20 76/40/20 26/47/20
f 64/48/21 63/42/21 13/49/21
f 91/50/22 90/51/22 40/52/22
f 78/53/23 77/46/23 27/54/23
f 65/55/24 64/48/24 14/56/24
f 92/57/25 91/50/25 41/58/25
f 53/59/26 54/60/26 4/61/26
f 79/62/27 78/53/27 28/63/27
f 66/64/28 65/55/28 15/65/28
f 93/66/29 92/57/29 42/67/29
f 55/68/30 52/69/30 2/70/30
f 80/71/31 79/62/31 29/72/31
f 67/73/32 66/64/32 16/74/32
f 94/75/33 93/66/33 43/76/33
f 52/69/34 53/59/34 3/77/34
f 81/78/35 80/71/35 30/79/35
f 68/80/36 67/73/36 17/81/36
f 95/82/37 94/75/37 44/83/37
f 54/60/38 51/28/38 1/84/38
f 82/85/39 81/78/39 31/86/39
f 69/87/40 68/80/40 18/88/40
f 96/89/41 95/82/41 45/90/41
f 56/91/42 55/68/42 5/92/42
f 83/93/43 82/85/43 32/94/43
f 70/95/44 69/96/44 19/97/44
f 97/98/45 96/89/45 46/99/45
f 57/100/46 56/91/46 6/101/46
f 84/102/47 83/93/47 33/103/47
f 71/104/48 70/95/48 20/105/48
f 98/106/49 97/98/49 47/107/49
f 58/11/50 57/100/50 7/108/50
f 85/14/51 84/102/51 34/109/51
f 72/17/52 71/104/52 21/110/52
f 3/111/1 4/112/1 1/113/1
f 1/113/1 50/114/1 46/115/1
f 49/116/1 48/117/1 47/118/1
f 47/118/1 46/115/1 49/116/1
f 45/119/1 44/120/1 43/121/1
f 43/121/1 42/122/1 38/123/1
f 41/124/1 40/125/1 42/122/1
f 39/126/1 38/123/1 42/122/1
f 37/127/1 36/1/1 6/128/1
f 35/2/1 34/129/1 9/130/1
f 33/131/1 32/132/1 10/133/1
f 31/134/1 12/135/1 11/136/1
f 29/137/1 13/138/1 12/135/1
f 27/139/1 14/140/1 13/138/1
f 25/141/1 24/142/1 16/143/1
f 23/144/1 22/145/1 24/142/1
f 21/146/1 20/147/1 22/145/1
f 19/148/1 18/149/1 20/147/1
f 17/150/1 16/143/1 24/142/1
f 7/3/1 6/128/1 36/1/1
f 16/143/1 15/151/1 25/141/1
f 6/128/1 5/152/1 43/121/1
f 17/150/1 24/142/1 18/149/1
f 8/153/1 7/3/1 35/2/1
f 18/149/1 24/142/1 22/145/1
f 5/152/1 2/154/1 43/121/1
f 26/155/1 25/141/1 15/151/1
f 9/130/1 8/153/1 35/2/1
f 20/147/1 18/149/1 22/145/1
f 2/154/1 45/119/1 43/121/1
f 26/155/1 15/151/1 14/140/1
f 10/133/1 9/130/1 34/129/1
f 27/139/1 26/155/1 14/140/1
f 1/113/1 45/119/1 2/154/1
f 29/137/1 28/156/1 13/138/1
f 27/139/1 13/138/1 28/156/1
f 31/134/1 11/136/1 32/132/1
f 34/129/1 33/131/1 10/133/1
f 38/123/1 37/127/1 43/121/1
f 42/122/1 40/125/1 39/126/1
f 46/115/1 50/114/1 49/116/1
f 1/113/1 2/154/1 3/111/1
f 12/135/1 30/157/1 29/137/1
f 32/132/1 11/136/1 10/133/1
f 43/121/1 37/127/1 6/128/1
f 46/115/1 45/119/1 1/113/1
f 12/135/1 31/134/1 30/157/1
f 51/158/2 54/159/2 53/160/2
f 53/160/2 52/161/2 51/158/2
f 55/162/2 56/163/2 93/164/2
f 64/165/2 65/166/2 76/167/2
f 52/161/2 55/162/2 93/164/2
f 65/166/2 66/168/2 75/169/2
f 56/163/2 87/170/2 93/164/2
f 63/171/2 64/165/2 77/172/2
f 86/173/2 87/170/2 56/163/2
f 66/168/2 67/174/2 74/175/2
f 51/158/2 52/161/2 95/176/2
f 67/174/2 68/177/2 74/175/2
f 86/173/2 56/163/2 57/178/2
f 62/179/2 63/171/2 79/180/2
f 100/181/2 51/158/2 96/182/2
f 68/177/2 72/183/2 74/175/2
f 99/184/2 100/181/2 96/182/2
f 69/185/2 70/186/2 68/177/2
f 98/187/2 99/184/2 97/188/2
f 61/189/2 62/179/2 81/190/2
f 51/158/2 95/176/2 96/182/2
f 96/182/2 97/188/2 99/184/2
f 94/191/2 95/176/2 93/164/2
f 91/192/2 92/193/2 90/194/2
f 93/164/2 95/176/2 52/161/2
f 86/173/2 57/178/2 85/195/2
f 70/186/2 72/183/2 68/177/2
f 72/183/2 73/196/2 74/175/2
f 74/175/2 75/169/2 66/168/2
f 76/167/2 77/172/2 64/165/2
f 78/197/2 79/180/2 63/171/2
f 81/190/2 82/6/2 61/189/2
f 79/180/2 80/198/2 62/179/2
f 75/169/2 76/167/2 65/166/2
f 71/199/2 72/183/2 70/186/2
f 85/195/2 57/178/2 58/200/2
f 90/194/2 92/193/2 89/201/2
f 88/202/2 89/201/2 92/193/2
f 85/195/2 59/203/2 84/204/2
f 87/170/2 88/202/2 93/164/2
f 92/193/2 93/164/2 88/202/2
f 63/171/2 77/172/2 78/197/2
f 80/198/2 81/190/2 62/179/2
f 83/4/2 84/204/2 60/5/2
f 58/200/2 59/203/2 85/195/2
f 60/5/2 84/204/2 59/203/2
f 82/6/2 60/5/2 61/189/2
f 49/20/3 99/7/3 48/9/3
f 9/22/4 59/10/4 8/12/4
f 36/24/5 86/13/5 35/15/5
f 23/205/6 73/16/6 22/18/6
f 50/29/7 100/19/7 49/20/7
f 10/31/8 60/21/8 9/22/8
f 37/33/9 87/23/9 36/24/9
f 24/35/10 74/25/10 23/27/10
f 1/84/11 51/28/11 50/29/11
f 11/37/12 61/30/12 10/31/12
f 38/39/13 88/32/13 37/33/13
f 25/41/14 75/34/14 24/35/14
f 12/43/15 62/36/15 11/37/15
f 39/45/16 89/38/16 38/39/16
f 26/47/17 76/40/17 25/41/17
f 13/49/18 63/42/18 12/43/18
f 40/206/19 90/44/19 39/45/19
f 27/54/20 77/46/20 26/47/20
f 14/56/21 64/48/21 13/49/21
f 41/58/22 91/50/22 40/52/22
f 28/63/23 78/53/23 27/54/23
f 15/65/24 65/55/24 14/56/24
f 42/67/25 92/57/25 41/58/25
f 3/77/26 53/59/26 4/61/26
f 29/72/27 79/62/27 28/63/27
f 16/74/28 66/64/28 15/65/28
f 43/76/29 93/66/29 42/67/29
f 5/92/30 55/68/30 2/70/30
f 30/79/31 80/71/31 29/72/31
f 17/81/32 67/73/32 16/74/32
f 44/83/33 94/75/33 43/76/33
f 2/70/34 52/69/34 3/77/34
f 31/86/35 81/78/35 30/79/35
f 18/88/36 68/80/36 17/81/36
f 45/90/37 95/82/37 44/83/37
f 4/61/38 54/60/38 1/84/38
f 32/94/39 82/85/39 31/86/39
f 19/207/40 69/87/40 18/88/40
f 46/99/41 96/89/41 45/90/41
f 6/101/42 56/91/42 5/92/42
f 33/103/43 83/93/43 32/94/43
f 20/105/44 70/95/44 19/97/44
f 47/107/45 97/98/45 46/99/45
f 7/108/46 57/100/46 6/101/46
f 34/109/47 84/102/47 33/103/47
f 21/110/48 71/104/48 20/105/48
f 48/208/49 98/106/49 47/107/49
f 8/12/50 58/11/50 7/108/50
f 35/15/51 85/14/51 34/109/51
f 22/18/52 72/17/52 21/110/52
