# Blender v2.76 (sub 0) OBJ File: 'Blue Cloud E.blend'
# www.blender.org
mtllib Blue Cloud E.mtl
o Plane
v -2.674274 -0.020000 -1.006151
v -2.589283 -0.020000 -1.567835
v -2.633773 -0.020000 -1.933076
v 2.163363 -0.020000 -1.933076
v -2.836867 -0.020000 -0.466638
v -2.932945 -0.020000 0.047007
v -2.807304 -0.020000 0.564348
v -2.537548 -0.020000 1.011478
v -2.101503 -0.020000 1.340359
v -1.794794 -0.020000 1.776402
v -1.425265 -0.020000 2.212447
v -0.952268 -0.020000 2.456336
v -0.420146 -0.020000 2.441555
v 0.082413 -0.020000 2.278962
v 0.599754 -0.020000 2.060940
v 1.109704 -0.020000 1.868785
v 1.623349 -0.020000 1.687715
v 2.118518 -0.020000 1.458608
v 2.554563 -0.020000 1.148203
v 2.898224 -0.020000 0.726941
v 3.090379 -0.020000 0.231771
v 3.082989 -0.020000 -0.304046
v 2.894529 -0.020000 -0.788129
v 2.602602 -0.020000 -1.253735
v 2.351322 -0.020000 -1.619569
v -2.674274 0.020000 -1.006151
v -2.589283 0.020000 -1.567835
v -2.633773 0.020000 -1.933076
v 2.163363 0.020000 -1.933076
v -2.836867 0.020000 -0.466638
v -2.932945 0.020000 0.047007
v -2.807304 0.020000 0.564348
v -2.537548 0.020000 1.011478
v -2.101503 0.020000 1.340359
v -1.794794 0.020000 1.776402
v -1.425265 0.020000 2.212447
v -0.952268 0.020000 2.456336
v -0.420146 0.020000 2.441555
v 0.082413 0.020000 2.278962
v 0.599754 0.020000 2.060940
v 1.109704 0.020000 1.868785
v 1.623349 0.020000 1.687715
v 2.118518 0.020000 1.458608
v 2.554563 0.020000 1.148203
v 2.898224 0.020000 0.726941
v 3.090379 0.020000 0.231771
v 3.082989 0.020000 -0.304046
v 2.894529 0.020000 -0.788129
v 2.602602 0.020000 -1.253735
v 2.351322 0.020000 -1.619569
vt 0.329289 0.132967
vt 0.374945 0.441263
vt 0.390720 0.407164
vt 0.264751 0.096308
vt 0.058519 0.384827
vt 0.094617 0.164078
vt 0.579873 0.114724
vt 0.542763 0.114724
vt 0.542763 0.028707
vt 0.545538 0.030891
vt 0.571943 0.030891
vt 0.571943 0.092637
vt 0.559429 0.098213
vt 0.526673 0.098213
vt 0.526673 0.025145
vt 0.424755 0.030891
vt 0.448902 0.030891
vt 0.448902 0.092637
vt 0.609385 0.114724
vt 0.579873 0.028707
vt 0.599973 0.030891
vt 0.599973 0.092637
vt 0.591684 0.098213
vt 0.559429 0.025145
vt 0.400206 0.030891
vt 0.424755 0.092637
vt 0.634234 0.114724
vt 0.609385 0.028707
vt 0.618838 0.030891
vt 0.618838 0.092637
vt 0.621439 0.098213
vt 0.591684 0.025145
vt 0.396911 0.098213
vt 0.371853 0.098213
vt 0.371853 0.025145
vt 0.629340 0.095246
vt 0.382654 0.095246
vt 0.382654 0.033320
vt 0.647086 0.098213
vt 0.621439 0.025145
vt 0.428697 0.098213
vt 0.396911 0.025145
vt 0.520023 0.030891
vt 0.545538 0.092637
vt 0.468635 0.114724
vt 0.437284 0.114724
vt 0.437284 0.028707
vt 0.460565 0.098213
vt 0.428697 0.025145
vt 0.492900 0.030891
vt 0.520023 0.092637
vt 0.506037 0.114724
vt 0.468635 0.028707
vt 0.493999 0.098213
vt 0.460565 0.025145
vt 0.468425 0.030891
vt 0.492900 0.092637
vt 0.506037 0.028707
vt 0.493999 0.025145
vt 0.468425 0.092637
vt 0.064851 0.436402
vt 0.062055 0.470448
vt 0.363144 0.470485
vt 0.043298 0.285871
vt 0.049323 0.333752
vt 0.051189 0.237648
vt 0.059523 0.384044
vt 0.297052 0.116085
vt 0.095497 0.165317
vt 0.068125 0.195971
vt 0.137950 0.084030
vt 0.114752 0.124674
vt 0.201038 0.062682
vt 0.167639 0.061300
vt 0.265047 0.098169
vt 0.232579 0.077842
vt 0.360365 0.154327
vt 0.409047 0.363764
vt 0.420881 0.318642
vt 0.409295 0.222536
vt 0.421351 0.268695
vt 0.387730 0.183265
vt 0.048284 0.334070
vt 0.363186 0.472068
vt 0.061060 0.472030
vt 0.063866 0.437670
vt 0.042239 0.285746
vt 0.050157 0.237077
vt 0.409248 0.364360
vt 0.390857 0.408161
vt 0.360398 0.152986
vt 0.375027 0.442575
vt 0.296866 0.114390
vt 0.232171 0.075793
vt 0.067151 0.195014
vt 0.329214 0.131428
vt 0.421593 0.268411
vt 0.421122 0.318820
vt 0.409496 0.221826
vt 0.387857 0.182192
vt 0.200521 0.060493
vt 0.113938 0.123058
vt 0.137216 0.082039
vt 0.167008 0.059098
vt 0.400206 0.092637
vt 0.634234 0.028707
vt 0.629340 0.033320
vt 0.647086 0.025145
vn 0.000000 -1.000000 0.000000
vn 0.000000 1.000000 0.000000
vn 0.847200 0.000000 -0.531200
vn -0.957500 0.000000 -0.288600
vn 0.332500 0.000000 0.943100
vn -0.817900 0.000000 0.575300
vn 0.824300 0.000000 -0.566200
vn -0.988700 0.000000 -0.149600
vn 0.419900 0.000000 0.907600
vn -0.762900 0.000000 0.646500
vn 0.857700 0.000000 -0.514200
vn -0.992700 0.000000 0.120900
vn 0.579900 0.000000 0.814700
vn -0.458300 0.000000 0.888800
vn 0.000000 0.000000 -1.000000
vn 0.774900 0.000000 0.632100
vn 0.027800 0.000000 0.999600
vn -0.983000 0.000000 -0.183900
vn 0.932300 0.000000 0.361800
vn 0.307800 0.000000 0.951400
vn -0.971800 0.000000 0.236000
vn 0.999900 0.000000 -0.013800
vn 0.388400 0.000000 0.921500
vn -0.856200 0.000000 0.516600
vn 0.931900 0.000000 -0.362800
vn 0.352600 0.000000 0.935800
vn -0.602200 0.000000 0.798400
usemtl None
s off
f 17/1/1 25/2/1 24/3/1
f 40/4/2 26/5/2 34/6/2
f 49/7/3 48/8/3 23/9/3
f 30/10/4 26/11/4 1/12/4
f 42/13/5 41/14/5 16/15/5
f 35/16/6 34/17/6 9/18/6
f 50/19/7 49/7/7 24/20/7
f 26/11/8 27/21/8 2/22/8
f 43/23/9 42/13/9 17/24/9
f 36/25/10 35/16/10 10/26/10
f 29/27/11 50/19/11 25/28/11
f 27/21/12 28/29/12 3/30/12
f 44/31/13 43/23/13 18/32/13
f 37/33/14 36/34/14 11/35/14
f 28/36/15 29/37/15 4/38/15
f 45/39/16 44/31/16 19/40/16
f 38/41/17 37/33/17 12/42/17
f 31/43/18 30/10/18 5/44/18
f 46/45/19 45/46/19 20/47/19
f 39/48/20 38/41/20 13/49/20
f 32/50/21 31/43/21 6/51/21
f 47/52/22 46/45/22 21/53/22
f 40/54/23 39/48/23 14/55/23
f 33/56/24 32/50/24 7/57/24
f 48/8/25 47/52/25 22/58/25
f 41/14/26 40/54/26 15/59/26
f 34/17/27 33/56/27 8/60/27
f 2/61/1 3/62/1 4/63/1
f 6/64/1 5/65/1 7/66/1
f 1/67/1 2/61/1 4/63/1
f 25/2/1 17/1/1 16/68/1
f 1/67/1 4/63/1 16/68/1
f 7/66/1 5/65/1 9/69/1
f 9/69/1 8/70/1 7/66/1
f 11/71/1 10/72/1 13/73/1
f 13/73/1 12/74/1 11/71/1
f 15/75/1 14/76/1 9/69/1
f 18/77/1 24/3/1 23/78/1
f 16/68/1 15/75/1 1/67/1
f 13/73/1 10/72/1 14/76/1
f 9/69/1 5/65/1 1/67/1
f 4/63/1 25/2/1 16/68/1
f 23/78/1 22/79/1 20/80/1
f 21/81/1 20/80/1 22/79/1
f 19/82/1 18/77/1 23/78/1
f 14/76/1 10/72/1 9/69/1
f 9/69/1 1/67/1 15/75/1
f 23/78/1 20/80/1 19/82/1
f 17/1/1 24/3/1 18/77/1
f 26/5/2 30/83/2 34/6/2
f 29/84/2 28/85/2 27/86/2
f 30/83/2 31/87/2 32/88/2
f 29/84/2 27/86/2 26/5/2
f 48/89/2 49/90/2 43/91/2
f 50/92/2 29/84/2 41/93/2
f 30/83/2 32/88/2 34/6/2
f 34/6/2 39/94/2 40/4/2
f 32/88/2 33/95/2 34/6/2
f 49/90/2 50/92/2 42/96/2
f 46/97/2 47/98/2 45/99/2
f 44/100/2 45/99/2 48/89/2
f 42/96/2 43/91/2 49/90/2
f 38/101/2 35/102/2 36/103/2
f 41/93/2 42/96/2 50/92/2
f 39/94/2 35/102/2 38/101/2
f 36/103/2 37/104/2 38/101/2
f 26/5/2 40/4/2 41/93/2
f 47/98/2 48/89/2 45/99/2
f 43/91/2 44/100/2 48/89/2
f 39/94/2 34/6/2 35/102/2
f 29/84/2 26/5/2 41/93/2
f 24/20/3 49/7/3 23/9/3
f 5/44/4 30/10/4 1/12/4
f 17/24/5 42/13/5 16/15/5
f 10/26/6 35/16/6 9/18/6
f 25/28/7 50/19/7 24/20/7
f 1/12/8 26/11/8 2/22/8
f 18/32/9 43/23/9 17/24/9
f 11/105/10 36/25/10 10/26/10
f 4/106/11 29/27/11 25/28/11
f 2/22/12 27/21/12 3/30/12
f 19/40/13 44/31/13 18/32/13
f 12/42/14 37/33/14 11/35/14
f 3/107/15 28/36/15 4/38/15
f 20/108/16 45/39/16 19/40/16
f 13/49/17 38/41/17 12/42/17
f 6/51/18 31/43/18 5/44/18
f 21/53/19 46/45/19 20/47/19
f 14/55/20 39/48/20 13/49/20
f 7/57/21 32/50/21 6/51/21
f 22/58/22 47/52/22 21/53/22
f 15/59/23 40/54/23 14/55/23
f 8/60/24 33/56/24 7/57/24
f 23/9/25 48/8/25 22/58/25
f 16/15/26 41/14/26 15/59/26
f 9/18/27 34/17/27 8/60/27
