# Blender v2.76 (sub 0) OBJ File: ''
# www.blender.org
mtllib Container.mtl
o Plane
v -0.506437 0.000000 -0.647384
v -0.379312 0.000000 0.409896
v -0.441853 0.000000 0.347355
v 0.608683 0.000000 0.356780
v 0.555568 0.000000 0.409896
v 0.557918 0.000000 -0.923642
v 0.608683 0.000000 -0.872877
v -0.441853 0.000000 -0.865986
v -0.384197 0.000000 -0.923642
v -0.506437 0.000000 0.213887
v -0.506437 0.000000 -0.716677
v -0.441853 0.000000 -0.624883
v -0.441853 0.000000 0.116079
v -0.441853 0.000000 0.236631
v -0.441853 0.000000 -0.737715
v -0.506437 0.000000 0.140002
v 0.608683 0.000000 -0.624786
v 0.677117 0.000000 -0.714614
v 0.677117 0.000000 0.216065
v 0.608683 0.000000 -0.734962
v 0.608683 0.000000 0.116754
v 0.677117 0.000000 -0.641624
v 0.608683 0.000000 0.232904
v 0.677117 0.000000 0.125174
v 0.677117 0.000000 -0.714614
v -0.506437 0.089469 -0.647384
v -0.379312 0.089469 0.409896
v -0.441853 0.089469 0.347355
v 0.608683 0.089469 0.356780
v 0.555568 0.089469 0.409896
v 0.557918 0.089469 -0.923642
v 0.608683 0.089469 -0.872877
v -0.441853 0.089469 -0.865986
v -0.384197 0.089469 -0.923642
v -0.506437 0.089469 0.213887
v -0.506437 0.089469 -0.716677
v -0.441853 0.089469 -0.624883
v -0.441853 0.089469 0.116079
v -0.441853 0.089469 0.236631
v -0.441853 0.089469 -0.737715
v -0.506437 0.089469 0.140002
v 0.608683 0.089469 -0.624786
v 0.677117 0.089469 -0.714614
v 0.677117 0.089469 0.216065
v 0.608683 0.089469 -0.734962
v 0.608683 0.089469 0.116754
v 0.677117 0.089469 -0.641624
v 0.608683 0.089469 0.232904
v 0.677117 0.089469 0.125174
v 0.677117 0.089469 -0.714614
vt 0.366484 0.195988
vt 0.348216 0.323939
vt 0.348216 0.275616
vt 0.661749 0.193188
vt 0.347162 0.321181
vt 0.347162 0.273995
vt 0.823333 0.157054
vt 0.851681 0.157054
vt 0.851681 0.560000
vt 0.890129 0.565602
vt 0.861782 0.565602
vt 0.861782 0.526676
vt 0.906753 0.765325
vt 0.878405 0.765325
vt 0.878405 0.738540
vt 0.831695 0.375565
vt 0.860043 0.375565
vt 0.860043 0.693147
vt 0.823333 0.131120
vt 0.851681 0.131120
vt 0.000000 0.000000
vt 0.875029 0.694153
vt 0.846681 0.694153
vt 0.846681 0.313342
vt 0.838539 0.696104
vt 0.838539 0.657787
vt 0.861665 0.657787
vt 0.855939 0.811120
vt 0.855939 0.849438
vt 0.835159 0.849438
vt 0.875029 0.722815
vt 0.846681 0.722815
vt 0.865603 0.189438
vt 0.865603 0.151120
vt 0.887873 0.151120
vt 0.872873 0.380549
vt 0.872873 0.342231
vt 0.894828 0.342231
vt 0.883391 0.201750
vt 0.911739 0.201750
vt 0.911739 0.260816
vt 0.824678 0.313882
vt 0.824678 0.275565
vt 0.845999 0.275565
vt 0.901724 0.619566
vt 0.873376 0.619566
vt 0.873376 0.302231
vt 0.883391 0.180009
vt 0.911739 0.180009
vt 0.848162 0.422771
vt 0.848162 0.384454
vt 0.869678 0.384454
vt 0.818463 0.767755
vt 0.818463 0.729438
vt 0.835699 0.729438
vt 0.848463 0.502771
vt 0.848463 0.464453
vt 0.871872 0.464453
vt 0.861665 0.696104
vt 0.883936 0.657787
vt 0.890101 0.374944
vt 0.861753 0.374944
vt 0.861753 0.320009
vt 0.906753 0.738540
vt 0.878405 0.691120
vt 0.903448 0.824173
vt 0.875101 0.824173
vt 0.875101 0.771120
vt 0.809272 0.596104
vt 0.809272 0.557787
vt 0.826533 0.557787
vt 0.873493 0.742231
vt 0.873493 0.780549
vt 0.852666 0.780549
vt 0.368031 0.767108
vt 0.348216 0.740323
vt 0.348216 0.692903
vt 0.327753 0.683162
vt 0.327753 0.651519
vt 0.327753 0.314302
vt 0.348216 0.641274
vt 0.327753 0.284626
vt 0.664241 0.767108
vt 0.681070 0.641563
vt 0.681070 0.691307
vt 0.681070 0.744360
vt 0.701099 0.652224
vt 0.701099 0.685418
vt 0.701430 0.282422
vt 0.699777 0.311918
vt 0.681070 0.323980
vt 0.681070 0.276794
vt 0.664986 0.195988
vt 0.681070 0.217729
vt 0.348216 0.220680
vt 0.680017 0.690103
vt 0.680017 0.737523
vt 0.660201 0.764308
vt 0.363992 0.764308
vt 0.347162 0.638763
vt 0.347162 0.688507
vt 0.326802 0.682177
vt 0.347162 0.741560
vt 0.703125 0.652688
vt 0.700480 0.680362
vt 0.681670 0.642442
vt 0.328125 0.651629
vt 0.325480 0.313969
vt 0.325480 0.282709
vt 0.700480 0.281826
vt 0.700480 0.311502
vt 0.680017 0.272816
vt 0.680017 0.321139
vt 0.350139 0.218898
vt 0.365893 0.195834
vt 0.680017 0.217880
vt 0.823333 0.560000
vt 0.890129 0.526676
vt 0.831695 0.693147
vt 0.875029 0.313342
vt 0.835159 0.811120
vt 0.887873 0.189438
vt 0.894828 0.380549
vt 0.883391 0.260816
vt 0.845999 0.313882
vt 0.901724 0.302231
vt 0.869678 0.422771
vt 0.835699 0.767755
vt 0.871872 0.502771
vt 0.883936 0.696104
vt 0.890101 0.320009
vt 0.906753 0.691120
vt 0.903448 0.771120
vt 0.826533 0.596104
vt 0.852666 0.742231
vn 0.000000 -1.000000 0.000000
vn 0.000000 1.000000 0.000000
vn 0.000000 0.000000 -1.000000
vn 1.000000 0.000000 0.000000
vn -0.707100 0.000000 0.707100
vn -0.707100 0.000000 -0.707100
vn 0.000000 0.000000 1.000000
vn -0.309700 0.000000 -0.950800
vn 0.707100 0.000000 0.707100
vn 0.238900 0.000000 0.971000
vn -1.000000 0.000000 0.000000
vn 0.285000 0.000000 -0.958500
vn 0.707100 0.000000 -0.707100
vn 0.122100 0.000000 -0.992500
vn -0.332200 0.000000 0.943200
vn -0.329000 0.000000 0.944300
vn -0.347400 0.000000 -0.937700
usemtl None
s off
f 9/1/1 12/2/1 15/3/1
f 34/4/2 42/5/2 45/6/2
f 9/7/3 34/8/3 31/9/3
f 24/10/4 49/11/4 44/12/4
f 2/13/5 27/14/5 28/15/5
f 17/16/4 42/17/4 46/18/4
f 8/19/6 33/20/6 34/8/6
f 18/21/7 25/21/7 50/21/7
f 5/22/7 30/23/7 27/24/7
f 18/25/4 43/26/4 47/27/4
f 11/28/8 36/29/8 40/30/8
f 4/31/9 29/32/9 30/23/9
f 19/33/10 44/34/10 48/35/10
f 1/36/11 26/37/11 36/38/11
f 7/39/4 32/40/4 45/41/4
f 20/42/12 45/43/12 43/44/12
f 13/45/11 38/46/11 37/47/11
f 6/48/13 31/49/13 32/40/13
f 21/50/14 46/51/14 49/52/14
f 14/53/15 39/54/15 35/55/15
f 10/56/11 35/57/11 41/58/11
f 22/59/10 47/27/10 42/60/10
f 15/61/11 40/62/11 33/63/11
f 3/64/11 28/15/11 39/65/11
f 23/66/4 48/67/4 29/68/4
f 12/69/16 37/70/16 26/71/16
f 16/72/17 41/73/17 38/74/17
f 2/75/1 3/76/1 14/77/1
f 14/77/1 10/78/1 16/79/1
f 12/2/1 1/80/1 15/3/1
f 14/77/1 16/79/1 13/81/1
f 1/80/1 11/82/1 15/3/1
f 14/77/1 13/81/1 2/75/1
f 5/83/1 2/75/1 21/84/1
f 23/85/1 4/86/1 5/83/1
f 24/87/1 19/88/1 21/84/1
f 18/89/1 22/90/1 17/91/1
f 21/84/1 19/88/1 23/85/1
f 20/92/1 18/89/1 17/91/1
f 21/84/1 23/85/1 5/83/1
f 20/92/1 17/91/1 9/1/1
f 6/93/1 7/94/1 20/92/1
f 8/95/1 9/1/1 15/3/1
f 12/2/1 9/1/1 17/91/1
f 2/75/1 13/81/1 21/84/1
f 17/91/1 13/81/1 12/2/1
f 9/1/1 6/93/1 20/92/1
f 13/81/1 17/91/1 21/84/1
f 39/96/2 28/97/2 27/98/2
f 27/98/2 30/99/2 46/100/2
f 48/101/2 44/102/2 46/100/2
f 30/99/2 29/103/2 48/101/2
f 41/104/2 35/105/2 39/96/2
f 39/96/2 27/98/2 38/106/2
f 44/102/2 49/107/2 46/100/2
f 42/5/2 47/108/2 43/109/2
f 30/99/2 48/101/2 46/100/2
f 42/5/2 43/109/2 45/6/2
f 27/98/2 46/100/2 38/106/2
f 38/106/2 41/104/2 39/96/2
f 36/110/2 26/111/2 40/112/2
f 37/113/2 42/5/2 34/4/2
f 46/100/2 42/5/2 38/106/2
f 45/6/2 32/114/2 31/115/2
f 31/115/2 34/4/2 45/6/2
f 40/112/2 26/111/2 37/113/2
f 34/4/2 33/116/2 40/112/2
f 42/5/2 37/113/2 38/106/2
f 40/112/2 37/113/2 34/4/2
f 6/117/3 9/7/3 31/9/3
f 19/118/4 24/10/4 44/12/4
f 3/64/5 2/13/5 28/15/5
f 21/119/4 17/16/4 46/18/4
f 9/7/6 8/19/6 34/8/6
f 43/21/7 18/21/7 50/21/7
f 2/120/7 5/22/7 27/24/7
f 22/59/4 18/25/4 47/27/4
f 15/121/8 11/28/8 40/30/8
f 5/22/9 4/31/9 30/23/9
f 23/122/10 19/33/10 48/35/10
f 11/123/11 1/36/11 36/38/11
f 20/124/4 7/39/4 45/41/4
f 18/125/12 20/42/12 43/44/12
f 12/126/11 13/45/11 37/47/11
f 7/39/13 6/48/13 32/40/13
f 24/127/14 21/50/14 49/52/14
f 10/128/15 14/53/15 35/55/15
f 16/129/11 10/56/11 41/58/11
f 17/130/10 22/59/10 42/60/10
f 8/131/11 15/61/11 33/63/11
f 14/132/11 3/64/11 39/65/11
f 4/133/4 23/66/4 29/68/4
f 1/134/16 12/69/16 26/71/16
f 13/135/17 16/72/17 38/74/17
