# Blender v2.76 (sub 0) OBJ File: 'Minefield.blend'
# www.blender.org
mtllib Minefield 1.mtl
o Cylinder
v 0.000000 -0.020000 -1.000000
v 0.000000 0.020000 -1.000000
v 0.195090 -0.020000 -0.980785
v 0.195090 0.020000 -0.980785
v 0.382683 -0.020000 -0.923880
v 0.382683 0.020000 -0.923880
v 0.555570 -0.020000 -0.831470
v 0.555570 0.020000 -0.831470
v 0.707107 -0.020000 -0.707107
v 0.707107 0.020000 -0.707107
v 0.831470 -0.020000 -0.555570
v 0.831470 0.020000 -0.555570
v 0.923880 -0.020000 -0.382683
v 0.923880 0.020000 -0.382683
v 0.980785 -0.020000 -0.195090
v 0.980785 0.020000 -0.195090
v 1.000000 -0.020000 -0.000000
v 1.000000 0.020000 -0.000000
v 0.980785 -0.020000 0.195090
v 0.980785 0.020000 0.195090
v 0.923880 -0.020000 0.382683
v 0.923880 0.020000 0.382683
v 0.831470 -0.020000 0.555570
v 0.831470 0.020000 0.555570
v 0.707107 -0.020000 0.707107
v 0.707107 0.020000 0.707107
v 0.555570 -0.020000 0.831470
v 0.555570 0.020000 0.831470
v 0.382683 -0.020000 0.923880
v 0.382683 0.020000 0.923880
v 0.195090 -0.020000 0.980785
v 0.195090 0.020000 0.980785
v -0.000000 -0.020000 1.000000
v -0.000000 0.020000 1.000000
v -0.195091 -0.020000 0.980785
v -0.195091 0.020000 0.980785
v -0.382684 -0.020000 0.923879
v -0.382684 0.020000 0.923879
v -0.555571 -0.020000 0.831469
v -0.555571 0.020000 0.831469
v -0.707107 -0.020000 0.707106
v -0.707107 0.020000 0.707106
v -0.831470 -0.020000 0.555570
v -0.831470 0.020000 0.555570
v -0.923880 -0.020000 0.382683
v -0.923880 0.020000 0.382683
v -0.980785 -0.020000 0.195089
v -0.980785 0.020000 0.195089
v -1.000000 -0.020000 -0.000001
v -1.000000 0.020000 -0.000001
v -0.980785 -0.020000 -0.195091
v -0.980785 0.020000 -0.195091
v -0.923879 -0.020000 -0.382684
v -0.923879 0.020000 -0.382684
v -0.831469 -0.020000 -0.555571
v -0.831469 0.020000 -0.555571
v -0.707106 -0.020000 -0.707108
v -0.707106 0.020000 -0.707108
v -0.555569 -0.020000 -0.831470
v -0.555569 0.020000 -0.831470
v -0.382682 -0.020000 -0.923880
v -0.382682 0.020000 -0.923880
v -0.195089 -0.020000 -0.980786
v -0.195089 0.020000 -0.980786
vt 0.873619 0.886269
vt 0.871561 0.895305
vt 0.857264 0.891039
vt 0.857668 0.881509
vt 0.854475 0.889770
vt 0.841007 0.881402
vt 0.842643 0.872174
vt 0.838437 0.879341
vt 0.826316 0.867194
vt 0.829121 0.858621
vt 0.824063 0.864419
vt 0.813756 0.848958
vt 0.817621 0.841371
vt 0.811906 0.845578
vt 0.803808 0.827398
vt 0.808586 0.821088
vt 0.802433 0.823542
vt 0.796855 0.803341
vt 0.802362 0.798550
vt 0.796009 0.799156
vt 0.793165 0.777711
vt 0.799189 0.774624
vt 0.792879 0.773359
vt 0.792879 0.751495
vt 0.799189 0.750230
vt 0.793165 0.747143
vt 0.796009 0.725698
vt 0.802362 0.726304
vt 0.796855 0.721513
vt 0.802433 0.701312
vt 0.808586 0.703766
vt 0.803808 0.697456
vt 0.811906 0.679276
vt 0.817621 0.683483
vt 0.813756 0.675895
vt 0.824063 0.660434
vt 0.829121 0.666233
vt 0.826317 0.657661
vt 0.838437 0.645513
vt 0.842643 0.652680
vt 0.841008 0.643452
vt 0.854475 0.635085
vt 0.857668 0.643345
vt 0.857264 0.633815
vt 0.871561 0.629550
vt 0.873619 0.638586
vt 0.874462 0.629121
vt 0.889039 0.629121
vt 0.889882 0.638586
vt 0.891940 0.629549
vt 0.906237 0.633815
vt 0.905833 0.643345
vt 0.909027 0.635085
vt 0.922494 0.643452
vt 0.920858 0.652681
vt 0.925065 0.645514
vt 0.937185 0.657662
vt 0.934380 0.666234
vt 0.939438 0.660436
vt 0.949745 0.675897
vt 0.945880 0.683484
vt 0.951595 0.679277
vt 0.959693 0.697457
vt 0.954915 0.703767
vt 0.961068 0.701314
vt 0.966646 0.721515
vt 0.961139 0.726305
vt 0.967492 0.725699
vt 0.970336 0.747144
vt 0.964311 0.750231
vt 0.970621 0.751496
vt 0.970621 0.773361
vt 0.964311 0.774626
vt 0.970335 0.777713
vt 0.967491 0.799157
vt 0.961138 0.798551
vt 0.966645 0.803342
vt 0.961067 0.823542
vt 0.954915 0.821089
vt 0.959692 0.827399
vt 0.951594 0.845578
vt 0.945880 0.841372
vt 0.949745 0.848959
vt 0.939438 0.864419
vt 0.934380 0.858621
vt 0.937184 0.867194
vt 0.925064 0.879341
vt 0.920858 0.872174
vt 0.922493 0.881402
vt 0.909026 0.889770
vt 0.905832 0.881509
vt 0.808780 0.704145
vt 0.921004 0.653081
vt 0.842822 0.872481
vt 0.889882 0.886269
vt 0.889039 0.895734
vt 0.874462 0.895734
vt 0.906237 0.891039
vt 0.891940 0.895305
vt 0.955047 0.821417
vt 0.946015 0.841692
vt 0.934521 0.858934
vt 0.921004 0.872481
vt 0.905985 0.881813
vt 0.890042 0.886570
vt 0.873785 0.886570
vt 0.857841 0.881813
vt 0.829306 0.858934
vt 0.817811 0.841692
vt 0.808780 0.821417
vt 0.802559 0.798889
vt 0.799387 0.774973
vt 0.799387 0.750589
vt 0.802559 0.726673
vt 0.817811 0.683870
vt 0.829306 0.666628
vt 0.842823 0.653081
vt 0.857841 0.643749
vt 0.873785 0.638992
vt 0.890042 0.638992
vt 0.905985 0.643749
vt 0.934521 0.666628
vt 0.946015 0.683870
vt 0.955047 0.704145
vt 0.961268 0.726673
vt 0.964439 0.750589
vt 0.964439 0.774973
vt 0.961268 0.798889
vn 0.098000 0.000000 -0.995200
vn 0.290300 0.000000 -0.956900
vn 0.471400 0.000000 -0.881900
vn 0.634400 0.000000 -0.773000
vn 0.773000 0.000000 -0.634400
vn 0.881900 0.000000 -0.471400
vn 0.956900 0.000000 -0.290300
vn 0.995200 0.000000 -0.098000
vn 0.995200 0.000000 0.098000
vn 0.956900 0.000000 0.290300
vn 0.881900 0.000000 0.471400
vn 0.773000 0.000000 0.634400
vn 0.634400 0.000000 0.773000
vn 0.471400 0.000000 0.881900
vn 0.290300 0.000000 0.956900
vn 0.098000 0.000000 0.995200
vn -0.098000 0.000000 0.995200
vn -0.290300 0.000000 0.956900
vn -0.471400 0.000000 0.881900
vn -0.634400 0.000000 0.773000
vn -0.773000 0.000000 0.634400
vn -0.881900 0.000000 0.471400
vn -0.956900 0.000000 0.290300
vn -0.995200 0.000000 0.098000
vn -0.995200 0.000000 -0.098000
vn -0.956900 0.000000 -0.290300
vn -0.881900 0.000000 -0.471400
vn -0.773000 0.000000 -0.634400
vn -0.634400 0.000000 -0.773000
vn -0.471400 0.000000 -0.881900
vn 0.000000 1.000000 0.000000
vn -0.098000 0.000000 -0.995200
vn -0.290300 0.000000 -0.956900
vn 0.000000 -1.000000 0.000000
usemtl None
s off
f 1/1/1 2/2/1 4/3/1 3/4/1
f 3/4/2 4/5/2 6/6/2 5/7/2
f 5/7/3 6/8/3 8/9/3 7/10/3
f 7/10/4 8/11/4 10/12/4 9/13/4
f 9/13/5 10/14/5 12/15/5 11/16/5
f 11/16/6 12/17/6 14/18/6 13/19/6
f 13/19/7 14/20/7 16/21/7 15/22/7
f 15/22/8 16/23/8 18/24/8 17/25/8
f 17/25/9 18/26/9 20/27/9 19/28/9
f 19/28/10 20/29/10 22/30/10 21/31/10
f 21/31/11 22/32/11 24/33/11 23/34/11
f 23/34/12 24/35/12 26/36/12 25/37/12
f 25/37/13 26/38/13 28/39/13 27/40/13
f 27/40/14 28/41/14 30/42/14 29/43/14
f 29/43/15 30/44/15 32/45/15 31/46/15
f 31/46/16 32/47/16 34/48/16 33/49/16
f 33/49/17 34/50/17 36/51/17 35/52/17
f 35/52/18 36/53/18 38/54/18 37/55/18
f 37/55/19 38/56/19 40/57/19 39/58/19
f 39/58/20 40/59/20 42/60/20 41/61/20
f 41/61/21 42/62/21 44/63/21 43/64/21
f 43/64/22 44/65/22 46/66/22 45/67/22
f 45/67/23 46/68/23 48/69/23 47/70/23
f 47/70/24 48/71/24 50/72/24 49/73/24
f 49/73/25 50/74/25 52/75/25 51/76/25
f 51/76/26 52/77/26 54/78/26 53/79/26
f 53/79/27 54/80/27 56/81/27 55/82/27
f 55/82/28 56/83/28 58/84/28 57/85/28
f 57/85/29 58/86/29 60/87/29 59/88/29
f 59/88/30 60/89/30 62/90/30 61/91/30
f 38/92/31 22/93/31 54/94/31
f 63/95/32 64/96/32 2/97/32 1/1/32
f 61/91/33 62/98/33 64/99/33 63/95/33
f 31/46/34 47/70/34 15/22/34
f 6/100/31 4/101/31 2/102/31
f 2/102/31 64/103/31 6/100/31
f 62/104/31 60/105/31 58/106/31
f 58/106/31 56/107/31 54/94/31
f 54/94/31 52/108/31 50/109/31
f 50/109/31 48/110/31 54/94/31
f 46/111/31 44/112/31 38/92/31
f 42/113/31 40/114/31 38/92/31
f 38/92/31 36/115/31 34/116/31
f 34/116/31 32/117/31 30/118/31
f 30/118/31 28/119/31 26/120/31
f 26/120/31 24/121/31 22/93/31
f 22/93/31 20/122/31 18/123/31
f 18/123/31 16/124/31 22/93/31
f 14/125/31 12/126/31 10/127/31
f 10/127/31 8/128/31 6/100/31
f 6/100/31 64/103/31 62/104/31
f 62/104/31 58/106/31 6/100/31
f 54/94/31 48/110/31 46/111/31
f 44/112/31 42/113/31 38/92/31
f 38/92/31 34/116/31 22/93/31
f 30/118/31 26/120/31 22/93/31
f 22/93/31 16/124/31 14/125/31
f 14/125/31 10/127/31 22/93/31
f 6/100/31 58/106/31 54/94/31
f 54/94/31 46/111/31 38/92/31
f 34/116/31 30/118/31 22/93/31
f 22/93/31 10/127/31 6/100/31
f 6/100/31 54/94/31 22/93/31
f 63/95/34 1/1/34 3/4/34
f 3/4/34 5/7/34 7/10/34
f 7/10/34 9/13/34 11/16/34
f 11/16/34 13/19/34 7/10/34
f 15/22/34 17/25/34 19/28/34
f 19/28/34 21/31/34 15/22/34
f 23/34/34 25/37/34 31/46/34
f 27/40/34 29/43/34 31/46/34
f 31/46/34 33/49/34 35/52/34
f 35/52/34 37/55/34 39/58/34
f 39/58/34 41/61/34 43/64/34
f 43/64/34 45/67/34 47/70/34
f 47/70/34 49/73/34 51/76/34
f 51/76/34 53/79/34 55/82/34
f 55/82/34 57/85/34 63/95/34
f 59/88/34 61/91/34 63/95/34
f 63/95/34 3/4/34 15/22/34
f 7/10/34 13/19/34 15/22/34
f 15/22/34 21/31/34 23/34/34
f 25/37/34 27/40/34 31/46/34
f 31/46/34 35/52/34 47/70/34
f 39/58/34 43/64/34 47/70/34
f 47/70/34 51/76/34 63/95/34
f 57/85/34 59/88/34 63/95/34
f 3/4/34 7/10/34 15/22/34
f 15/22/34 23/34/34 31/46/34
f 35/52/34 39/58/34 47/70/34
f 51/76/34 55/82/34 63/95/34
f 63/95/34 15/22/34 47/70/34
