# Blender v2.76 (sub 0) OBJ File: 'Small Station Module.blend'
# www.blender.org
mtllib Station Module 2.mtl
o Cube
v -1.318145 -0.020000 1.390761
v -1.615833 -0.020000 0.866434
v -1.615833 -0.020000 -0.866435
v -1.318144 -0.020000 -1.390762
v -1.615833 0.020000 0.866434
v -1.318145 0.020000 1.390761
v -1.318144 0.020000 -1.390761
v -1.615833 0.020000 -0.866435
v 0.298355 -0.020000 -1.390761
v 0.605690 -0.020000 -0.887910
v 0.605690 -0.020000 0.900438
v 0.298355 -0.020000 1.390761
v 0.605690 0.020000 -0.887909
v 0.298356 0.020000 -1.390761
v 0.298354 0.020000 1.390762
v 0.605689 0.020000 0.900438
v 0.997383 0.020000 -0.445756
v 0.998187 0.020000 -0.887909
v 0.998186 -0.020000 -0.887909
v 0.997382 -0.020000 -0.445757
v 0.997382 -0.020000 0.452822
v 0.998186 -0.020000 0.900438
v 0.998185 0.020000 0.900439
v 0.997382 0.020000 0.452823
v 1.439062 0.020000 -0.445756
v 1.439062 -0.020000 -0.445757
v 1.439062 -0.020000 0.452822
v 1.439061 0.020000 0.452823
vt 0.590468 0.414892
vt 0.590455 0.577200
vt 0.585694 0.577165
vt 0.710727 0.633235
vt 0.609788 0.633217
vt 0.609039 0.626314
vt 0.753635 0.537826
vt 0.753642 0.453661
vt 0.781222 0.453666
vt 0.709999 0.365802
vt 0.609060 0.365784
vt 0.609084 0.355409
vt 0.585310 0.408081
vt 0.605259 0.629956
vt 0.729187 0.411731
vt 0.709979 0.626332
vt 0.729173 0.579236
vt 0.732218 0.583952
vt 0.713425 0.360584
vt 0.710173 0.905782
vt 0.589680 0.856275
vt 0.729519 0.859485
vt 0.729519 0.690628
vt 0.754175 0.732377
vt 0.754175 0.817221
vt 0.733068 0.403670
vt 0.757577 0.403675
vt 0.753695 0.411736
vt 0.758236 0.537896
vt 0.758283 0.579310
vt 0.753682 0.579240
vt 0.757525 0.406522
vt 0.753511 0.587539
vt 0.781215 0.537831
vt 0.790453 0.453702
vt 0.754437 0.444443
vt 0.782017 0.444448
vt 0.781497 0.546351
vt 0.781978 0.732377
vt 0.781977 0.817221
vt 0.585707 0.414856
vt 0.710023 0.355427
vt 0.603903 0.358974
vt 0.586674 0.580842
vt 0.713023 0.631048
vt 0.732612 0.406513
vt 0.608419 0.643148
vt 0.710173 0.643148
vt 0.589680 0.692656
vt 0.608419 0.905782
vt 0.754225 0.859485
vt 0.754226 0.690628
vt 0.757471 0.448448
vt 0.729003 0.587535
vt 0.790446 0.537867
vt 0.753917 0.546346
vn -1.000000 -0.000000 -0.000000
vn 0.000000 0.000000 -1.000000
vn 0.000000 1.000000 -0.000000
vn -0.000000 0.000000 1.000000
vn -0.869600 -0.000000 0.493700
vn -0.869600 -0.000000 -0.493700
vn 0.853300 0.000000 -0.521500
vn 0.847300 0.000000 0.531100
vn 0.000000 -1.000000 -0.000000
vn 1.000000 -0.000000 0.001800
vn 1.000000 0.000000 -0.001800
vn 1.000000 0.000000 0.000000
usemtl Material
s off
f 5/1/1 8/2/1 3/3/1
f 9/4/2 4/5/2 7/6/2
f 17/7/3 24/8/3 28/9/3
f 15/10/4 6/11/4 1/12/4
f 6/11/5 5/1/5 2/13/5
f 8/2/6 7/6/6 4/14/6
f 5/1/3 15/10/3 16/15/3
f 14/16/7 13/17/7 10/18/7
f 16/15/8 15/10/8 12/19/8
f 12/20/9 2/21/9 11/22/9
f 16/15/3 24/8/3 13/17/3
f 10/23/9 20/24/9 21/25/9
f 11/26/4 22/27/4 23/28/4
f 20/29/10 19/30/10 18/31/10
f 24/8/11 23/28/11 22/32/11
f 13/17/2 18/31/2 19/33/2
f 25/34/12 28/9/12 27/35/12
f 21/36/4 27/37/4 28/9/4
f 17/7/2 25/34/2 26/38/2
f 20/24/9 26/39/9 27/40/9
f 2/41/1 5/1/1 3/3/1
f 14/16/2 9/4/2 7/6/2
f 25/34/3 17/7/3 28/9/3
f 12/42/4 15/10/4 1/12/4
f 1/43/5 6/11/5 2/13/5
f 3/44/6 8/2/6 4/14/6
f 16/15/3 13/17/3 5/1/3
f 14/16/3 7/6/3 8/2/3
f 8/2/3 5/1/3 13/17/3
f 6/11/3 15/10/3 5/1/3
f 13/17/3 14/16/3 8/2/3
f 9/45/7 14/16/7 10/18/7
f 11/46/8 16/15/8 12/19/8
f 4/47/9 9/48/9 3/49/9
f 10/23/9 11/22/9 2/21/9
f 12/20/9 1/50/9 2/21/9
f 2/21/9 3/49/9 10/23/9
f 9/48/9 10/23/9 3/49/9
f 18/31/3 13/17/3 17/7/3
f 16/15/3 23/28/3 24/8/3
f 17/7/3 13/17/3 24/8/3
f 22/51/9 11/22/9 21/25/9
f 10/23/9 19/52/9 20/24/9
f 21/25/9 11/22/9 10/23/9
f 16/15/4 11/26/4 23/28/4
f 17/7/10 20/29/10 18/31/10
f 21/53/11 24/8/11 22/32/11
f 10/54/2 13/17/2 19/33/2
f 26/55/12 25/34/12 27/35/12
f 24/8/4 21/36/4 28/9/4
f 20/56/2 17/7/2 26/38/2
f 21/25/9 20/24/9 27/40/9
