# Blender v2.76 (sub 0) OBJ File: 'tuckbox.blend'
# www.blender.org
mtllib tuckbox.mtl
o Tuckbox_Tuckbox.002
v -0.692861 -0.376423 -0.476631
v 0.695139 -0.376423 -0.476631
v -0.703104 -0.352303 1.172039
v 0.698386 -0.354853 1.181800
v -0.690286 -0.362423 1.203369
v 0.260465 0.331259 -0.758756
v 0.224138 0.315577 -0.779630
v 0.129139 0.315577 -0.684631
v 0.150013 0.321635 -0.648305
v 0.000138 0.315577 -0.650631
v 0.000138 0.318103 -0.608803
v -0.128861 0.315577 -0.684631
v -0.149846 0.321635 -0.648334
v -0.222862 0.315577 -0.779630
v -0.259107 0.331259 -0.758756
v -0.257861 0.315577 -0.908631
v -0.288797 0.331259 -0.868184
v 0.695139 0.298103 -0.925814
v -0.692861 0.298103 -0.925815
v 0.258138 0.315577 -0.908631
v 0.695139 0.315577 -0.908631
v -0.692861 0.315577 -0.908631
v 0.663477 0.320747 -0.868184
v 0.652737 0.318103 1.162923
v 0.289306 0.331259 -0.868184
v -0.663221 0.320747 -0.868184
v -0.653520 0.318103 1.162923
v 0.687370 -0.327938 1.217846
v 0.690082 -0.362423 1.203369
v -0.688953 -0.327938 1.217846
v 0.698386 0.306076 1.181800
v 0.695139 -0.394529 -0.913762
v 0.695139 -0.376423 -0.908631
v -0.692861 -0.394529 -0.913762
v -0.699299 0.301808 1.171245
v -0.692861 -0.376423 -0.908631
v 0.698386 -0.354853 -0.887061
v -0.703103 -0.352303 -0.882505
v -0.688953 0.290459 1.228809
v 0.687370 0.290459 1.228809
v -0.698861 0.326402 1.216369
v -0.698861 0.318181 1.225091
v 0.701139 0.318181 1.225091
v 0.701139 0.326402 1.216369
v 0.699097 -0.354215 1.213092
v -0.696318 -0.362423 1.204207
v 0.697054 -0.362423 1.204207
v -0.697590 -0.354215 1.213092
v -0.692861 -0.357791 -0.930836
v 0.695139 -0.357791 -0.933374
v -0.692861 -0.375694 -0.931836
v 0.695139 -0.374419 -0.928728
v -0.690058 0.268479 -0.917944
v 0.695139 0.265857 -0.939272
v -0.222862 0.334266 -0.779630
v -0.257861 0.334266 -0.908631
v -0.699299 0.308315 -0.883299
v 0.224138 0.334266 -0.779630
v 0.129139 0.334266 -0.684631
v 0.692165 0.312616 -0.882435
v 0.690082 0.327577 1.203369
v 0.000138 0.334266 -0.650631
v -0.128861 0.334266 -0.684631
v -0.690286 0.327577 1.203369
v 0.258138 0.334266 -0.908631
v -0.703862 -0.376423 1.203369
v -0.703862 0.327577 1.203369
v -0.703861 -0.376423 -0.908631
v -0.703861 0.334266 -0.908631
v -0.698861 -0.333286 1.217987
v -0.698861 0.308785 1.229369
v 0.701139 -0.333286 1.217987
v 0.701139 0.308785 1.229369
v -0.688953 -0.018740 1.223327
v 0.687370 -0.018740 1.223327
v -0.000791 0.290459 1.228809
v -0.000791 -0.327938 1.217846
v 0.021535 -0.018740 1.218741
v -0.692861 -0.045967 -0.930825
v 0.695139 -0.045967 -0.930824
v 0.001139 -0.357791 -0.926045
v 0.001139 0.265857 -0.933933
v 0.001139 -0.045967 -0.962065
v 0.704139 0.334266 -0.908631
v 0.704139 -0.376423 -0.908631
v 0.704138 -0.376423 1.203369
v 0.704138 0.327577 1.203369
v 0.692165 -0.021124 -0.882435
v 0.698386 -0.354853 0.147369
v 0.698386 -0.024389 1.181800
v 0.692165 0.309340 0.151995
v 0.654673 -0.022762 0.151995
v -0.703862 -0.376423 -0.464171
v 0.704138 -0.376423 -0.464171
v 0.000138 -0.376423 1.203369
v -0.703862 -0.359216 0.737969
v 0.704138 -0.359216 0.737969
v 0.000138 -0.359216 0.737969
v 0.695139 -0.379006 -0.496151
v -0.692861 -0.379006 -0.496151
v 0.695139 -0.381287 -0.504462
v -0.692861 -0.381287 -0.504462
v 0.695139 -0.379173 -0.486389
v -0.692861 -0.379173 -0.486390
v -0.701201 -0.025247 1.171642
v -0.703103 -0.352303 0.144767
v -0.699299 0.305061 0.143973
v -0.701201 -0.021994 -0.882902
v -0.678656 -0.023621 0.144370
v -0.002050 -0.367722 0.126190
vt 0.662358 0.095363
vt 0.662825 0.092504
vt 0.982869 0.092504
vt 0.578845 0.687711
vt 0.578432 0.490605
vt 0.654045 0.490601
vt 0.750581 0.712243
vt 0.775770 0.712161
vt 0.775787 0.716459
vt 0.795216 0.712273
vt 0.795224 0.716571
vt 0.820070 0.712245
vt 0.844933 0.712301
vt 0.844945 0.716598
vt 0.889400 0.712297
vt 0.889423 0.716594
vt 0.864280 0.716708
vt 0.275471 0.891644
vt 0.172792 0.891644
vt 0.174864 0.886499
vt 0.275495 0.886699
vt 0.174856 0.881654
vt 0.494402 0.881653
vt 0.386256 0.922384
vt 0.334917 0.957870
vt 0.820070 0.716542
vt 0.864257 0.712410
vt 0.172520 0.607252
vt 0.172354 0.376406
vt 0.333393 0.493062
vt 0.672343 0.294529
vt 0.972735 0.294529
vt 0.822661 0.635052
vt 0.169117 0.283364
vt 0.172357 0.287189
vt 0.010557 0.287170
vt 0.500607 0.283414
vt 0.659324 0.283414
vt 0.660021 0.286942
vt 0.013417 0.695229
vt 0.009050 0.692572
vt 0.172524 0.692601
vt 0.169527 0.717636
vt 0.168827 0.789407
vt 0.161306 0.713388
vt 0.656281 0.695989
vt 0.497214 0.695989
vt 0.497170 0.692724
vt 0.984556 0.286729
vt 0.984556 0.692700
vt 0.981121 0.286797
vt 0.498342 0.778902
vt 0.498338 0.707265
vt 0.505873 0.702950
vt 0.090942 0.489976
vt 0.014592 0.489869
vt 0.015204 0.291324
vt 0.663789 0.286797
vt 0.660702 0.692773
vt 0.394265 0.891643
vt 0.394289 0.886699
vt 0.494411 0.886499
vt 0.493945 0.283129
vt 0.334811 0.287189
vt 0.175788 0.283129
vt 0.513688 0.708538
vt 0.514184 0.706936
vt 0.516200 0.786123
vt 0.149232 0.792576
vt 0.150721 0.709668
vt 0.151248 0.713422
vt 0.822485 0.187631
vt 0.980635 0.187624
vt 0.980634 0.272577
vt 0.983824 0.282919
vt 0.662083 0.282919
vt 0.662070 0.280321
vt 0.653131 0.279720
vt 0.653131 0.120174
vt 0.657302 0.126934
vt 0.983811 0.280321
vt 0.662057 0.277612
vt 0.989478 0.124846
vt 0.990864 0.120011
vt 0.993706 0.118131
vt 0.664378 0.092146
vt 0.981185 0.092146
vt 0.494400 0.701089
vt 0.334629 0.701099
vt 0.494417 0.696605
vt 0.662058 0.101201
vt 0.983377 0.095363
vt 0.494432 0.693777
vt 0.174793 0.696475
vt 0.334631 0.786944
vt 0.494399 0.786923
vt 0.493759 0.873505
vt 0.334624 0.872750
vt 0.756216 0.684904
vt 0.763044 0.663873
vt 0.771379 0.667906
vt 0.670112 0.684905
vt 0.763330 0.692700
vt 0.857127 0.642644
vt 0.882527 0.663873
vt 0.874173 0.667906
vt 0.822661 0.643112
vt 0.792996 0.649647
vt 0.788170 0.642650
vt 0.852326 0.649647
vt 0.975205 0.684904
vt 0.881992 0.692700
vt 0.889159 0.684904
vt 0.578097 0.293206
vt 0.497183 0.287127
vt 0.502897 0.490316
vt 0.497156 0.607293
vt 0.497077 0.376438
vt 0.664335 0.187624
vt 0.983800 0.101201
vt 0.983798 0.277612
vt 0.822484 0.272577
vt 0.822486 0.102671
vt 0.664336 0.102671
vt 0.980635 0.102671
vt 0.502897 0.293064
vt 0.174853 0.786923
vt 0.090725 0.688414
vt 0.013980 0.688414
vt 0.167188 0.291324
vt 0.167329 0.489869
vt 0.091196 0.291324
vt 0.664334 0.272577
vt 0.167470 0.688414
vt 0.174728 0.609718
vt 0.494432 0.609718
vt 0.494432 0.611638
vt 0.174728 0.611638
vt 0.494432 0.613508
vt 0.174728 0.693777
vt 0.174728 0.615142
vt 0.494432 0.615142
vt 0.174728 0.613508
vt 0.653297 0.293348
vt 0.502897 0.687568
vt 0.750597 0.716540
vt 0.305218 0.948516
vt 0.283347 0.922384
vt 0.364615 0.948516
vt 0.494432 0.692602
vt 0.174728 0.692602
vt 0.334715 0.376422
vt 0.010537 0.283364
vt 0.497387 0.287148
vt 0.172534 0.694982
vt 0.161306 0.872663
vt 0.162811 0.710819
vt 0.166922 0.713810
vt 0.171147 0.861177
vt 0.166121 0.868602
vt 0.505873 0.862017
vt 0.501043 0.857947
vt 0.501831 0.851132
vt 0.504348 0.700454
vt 0.499392 0.703151
vt 0.496943 0.891643
vt 0.514711 0.703181
vt 0.513688 0.787138
vt 0.514112 0.705062
vt 0.151744 0.715024
vt 0.151744 0.793593
vt 0.151320 0.711549
vt 0.655930 0.122091
vt 0.660444 0.275396
vt 0.659263 0.277569
vt 0.656855 0.279472
vt 0.653458 0.120191
vt 0.993706 0.277683
vt 0.989924 0.277389
vt 0.987517 0.275490
vt 0.986337 0.273318
vt 0.993352 0.118116
vt 0.174853 0.701084
vt 0.174848 0.872739
vt 0.654793 0.687854
vn 0.000000 -0.734500 0.678600
vn -0.997800 -0.062600 0.021800
vn 0.965100 0.000000 -0.261800
vn 0.710800 0.000000 -0.703400
vn -0.254900 0.000000 -0.967000
vn -0.967000 0.000000 -0.254900
vn 0.000000 -0.000000 -1.000000
vn 0.000000 0.701200 -0.713000
vn 0.000000 1.000000 0.000000
vn 0.254900 0.000000 -0.967000
vn -0.707100 0.000000 -0.707100
vn -0.000400 -0.999900 0.014300
vn 0.000000 0.000000 1.000000
vn 1.000000 0.000000 0.000000
vn 0.000000 1.000000 0.003200
vn -1.000000 0.000000 0.000000
vn 0.993700 -0.112200 -0.006400
vn -0.006900 -0.017700 0.999800
vn 0.000000 0.727700 0.685900
vn -0.862500 0.000000 -0.506000
vn 0.000000 0.414400 0.910100
vn 0.685200 0.101800 -0.721200
vn 0.000000 0.995900 0.090000
vn 0.000000 -1.000000 0.000100
vn 0.006900 0.055800 -0.998400
vn 0.000000 -0.227700 0.973700
vn 0.002300 -0.692400 -0.721500
vn -0.044900 0.041300 -0.998100
vn 0.000000 0.244200 -0.969700
vn -0.071500 0.997200 0.019400
vn -0.028000 0.998200 0.052800
vn 0.020600 0.994000 0.107200
vn -0.247300 0.968900 0.001400
vn -0.094600 0.928600 0.358800
vn -0.159300 0.957400 0.241000
vn 0.315900 0.948800 -0.000300
vn 0.056300 0.952600 0.298900
vn -0.000000 0.948400 0.317000
vn 0.071700 0.997200 0.018900
vn 0.000000 0.973600 -0.228100
vn -0.996500 0.000000 -0.083600
vn -0.998800 0.049200 -0.000700
vn -0.984800 -0.173700 -0.000600
vn -0.994700 0.000000 0.102800
vn 0.023800 -0.017700 0.999600
vn -0.017100 -0.017700 0.999700
vn 0.000000 -0.030600 0.999500
vn 0.000000 0.026400 0.999700
vn 0.006500 -0.017700 0.999800
vn -1.000000 0.005800 -0.000000
vn 0.044700 -0.114600 -0.992400
vn 0.006900 0.000000 -1.000000
vn 0.909500 0.000000 0.415700
vn 0.604300 0.796700 0.000000
vn 0.966200 0.000000 -0.257700
vn 0.874300 -0.485400 -0.001500
vn 0.000000 -0.017700 0.999800
vn 0.999200 0.018100 0.036200
vn 0.991400 0.130500 0.000000
vn -0.000000 -0.962500 0.271200
vn 0.000000 -0.999900 -0.017100
vn -0.000000 -0.999500 0.032300
vn 0.000000 -0.964300 0.264700
vn -0.999700 0.005800 -0.021900
vn -0.997200 0.074200 -0.000000
vn 0.000000 -0.999300 -0.036900
vn 0.016200 -0.999800 0.014300
vn 0.000000 -1.000000 -0.000000
vn 0.000200 -0.999900 0.014200
vn -0.028100 0.999600 0.007600
vn 0.028100 0.999600 0.007400
vn -0.066800 0.986100 0.152100
vn 0.067300 0.985900 0.153200
vn -0.002300 1.000000 0.001300
vn 0.002300 1.000000 0.001300
vn 0.021500 0.999700 0.007900
vn -0.021500 0.999700 0.007900
vn -0.994400 -0.074100 0.075300
vn -0.916200 0.024600 -0.400000
vn 0.999100 0.000000 -0.042400
vn -0.749300 0.107300 -0.653500
vn -0.879800 -0.197000 -0.432600
vn -0.684900 -0.530200 -0.499800
vn -0.094800 0.724400 -0.682800
vn -0.950800 0.005500 -0.309700
vn 0.797600 0.000000 -0.603200
vn 0.589200 -0.588000 -0.554200
vn 0.922000 0.006900 -0.387100
vn 0.082500 0.722500 -0.686400
vn 0.820600 -0.236800 -0.520100
vn 0.002000 0.238300 -0.971200
vn -0.010200 -0.269100 -0.963100
vn 0.000000 -0.597000 -0.802200
vn -0.022700 0.089800 -0.995700
vn -0.007100 0.385100 -0.922800
vn -0.023300 -0.258800 -0.965700
vn 0.210800 0.954500 0.210800
vn -0.315900 0.948800 -0.000400
vn -0.056400 0.952600 0.298900
vn -0.052700 0.997200 0.052100
vn 0.251000 0.968000 0.001500
vn 0.094600 0.928600 0.358800
vn 0.028000 0.998200 0.052600
vn -0.989400 0.005600 -0.145000
vn -0.999800 0.005800 -0.019700
vn -0.994000 0.109000 -0.000000
vn -0.999500 0.033000 0.001200
vn -0.999500 0.031400 -0.000000
vn -0.999700 0.005800 0.023700
vn -0.983100 0.005900 0.183100
vn -0.017200 -0.017700 0.999700
vn 0.000000 -0.002900 1.000000
vn 0.969700 0.014700 0.243900
vn 0.966200 0.257700 0.000000
vn 0.963700 0.266900 0.009900
vn 0.912300 0.409500 -0.005900
vn 0.967700 -0.252200 -0.006600
vn -0.998000 -0.062700 -0.000200
vn -0.999700 0.005800 0.022000
vn 0.044800 0.089800 -0.995000
vn -0.000100 -0.999900 0.014600
vn 0.000000 -0.032500 0.999500
vn -0.997000 0.074100 -0.021800
vn -0.010600 0.008200 -0.999900
vn -0.044700 -0.114600 -0.992400
vn 0.993100 -0.112100 0.035800
vn 0.006500 -0.032100 0.999500
vn -0.000000 -0.999900 0.013900
vn -0.007700 -0.027100 -0.999600
usemtl None
s off
f 48/1/1 46/2/1 47/3/1
f 108/4/2 109/5/2 107/6/2
f 56/7/3 55/8/3 14/9/3
f 55/8/4 63/10/4 12/11/4
f 62/12/5 59/13/5 8/14/5
f 65/15/6 20/16/6 7/17/6
f 65/18/7 84/19/7 21/20/7
f 20/21/8 18/22/8 19/23/8
f 20/21/9 14/24/9 10/25/9
f 63/10/10 62/12/10 10/26/10
f 59/13/11 58/27/11 7/17/11
f 94/28/12 97/29/12 110/30/12
f 27/31/9 24/32/9 11/33/9
f 29/34/13 86/35/13 87/36/13
f 5/37/13 64/38/13 67/39/13
f 21/40/7 84/41/7 85/42/7
f 50/43/14 80/44/14 33/45/14
f 22/46/7 36/47/7 68/48/7
f 87/49/15 84/50/15 61/51/15
f 79/52/16 49/53/16 36/54/16
f 92/55/17 91/56/17 31/57/17
f 67/39/15 64/58/15 69/59/15
f 56/60/7 16/61/7 22/62/7
f 5/63/13 95/64/13 29/65/13
f 102/66/16 100/67/16 36/68/16
f 33/69/14 2/70/14 99/71/14
f 78/72/18 75/73/18 40/74/18
f 44/75/19 41/76/19 42/77/19
f 64/78/20 5/79/20 70/80/20
f 43/81/21 42/77/21 71/82/21
f 72/83/22 45/84/22 29/85/22
f 41/76/23 44/75/23 61/51/23
f 46/2/24 5/86/24 29/87/24
f 49/88/25 81/89/25 51/90/25
f 70/91/26 48/1/26 45/92/26
f 34/93/27 51/90/27 52/94/27
f 83/95/28 79/96/28 53/97/28
f 82/98/29 19/23/29 18/22/29
f 17/99/30 15/100/30 55/101/30
f 26/102/31 17/99/31 56/103/31
f 9/104/32 6/105/32 58/106/32
f 24/32/33 61/51/33 84/50/33
f 11/33/34 62/107/34 63/108/34
f 15/100/35 13/109/35 63/108/35
f 27/31/36 26/102/36 69/59/36
f 11/33/37 9/104/37 59/110/37
f 23/111/38 84/50/38 65/112/38
f 25/113/39 65/112/39 58/106/39
f 24/32/40 27/31/40 64/58/40
f 105/114/41 66/115/41 67/39/41
f 106/116/42 93/117/42 96/118/42
f 107/6/43 67/39/43 69/59/43
f 108/4/44 69/59/44 68/48/44
f 74/119/45 71/82/45 70/91/45
f 75/73/46 72/120/46 73/121/46
f 76/122/47 73/121/47 71/82/47
f 77/123/48 70/91/48 72/120/48
f 78/72/49 74/119/49 30/124/49
f 28/125/18 75/73/18 78/72/18
f 106/116/50 3/126/50 105/114/50
f 81/89/51 83/95/51 80/127/51
f 81/89/52 49/88/52 79/96/52
f 88/128/14 60/129/14 91/56/14
f 88/128/53 85/42/53 84/41/53
f 4/130/54 97/29/54 89/131/54
f 90/132/55 87/36/55 86/35/55
f 91/56/56 84/41/56 87/36/56
f 76/122/57 39/133/57 74/119/57
f 37/134/58 88/128/58 92/55/58
f 4/130/59 89/131/59 92/55/59
f 2/135/60 1/136/60 104/137/60
f 103/138/61 104/137/61 100/139/61
f 32/140/62 101/141/62 102/142/62
f 99/143/63 100/139/63 102/142/63
f 109/5/64 105/114/64 35/144/64
f 38/145/65 106/116/65 109/5/65
f 45/92/1 48/1/1 47/3/1
f 16/146/3 56/7/3 14/9/3
f 14/9/4 55/8/4 12/11/4
f 10/26/5 62/12/5 8/14/5
f 58/27/6 65/15/6 7/17/6
f 20/21/7 65/18/7 21/20/7
f 19/23/8 22/62/8 16/61/8
f 16/61/8 20/21/8 19/23/8
f 21/20/8 18/22/8 20/21/8
f 8/147/9 7/148/9 20/21/9
f 20/21/9 16/61/9 14/24/9
f 14/24/9 12/149/9 10/25/9
f 10/25/9 8/147/9 20/21/9
f 12/11/10 63/10/10 10/26/10
f 8/14/11 59/13/11 7/17/11
f 97/29/66 86/35/66 95/64/66
f 95/64/66 66/115/66 96/118/66
f 96/118/67 93/117/67 1/136/67
f 68/48/68 36/150/68 1/136/68
f 2/135/68 33/151/68 85/42/68
f 93/117/68 68/48/68 1/136/68
f 2/135/68 85/42/68 94/28/68
f 1/136/69 110/30/69 96/118/69
f 95/64/66 96/118/66 98/152/66
f 2/135/68 94/28/68 1/136/68
f 15/100/70 17/99/70 26/102/70
f 23/111/71 25/113/71 6/105/71
f 13/109/72 15/100/72 26/102/72
f 23/111/73 6/105/73 9/104/73
f 13/109/74 26/102/74 27/31/74
f 24/32/75 23/111/75 9/104/75
f 11/33/76 13/109/76 27/31/76
f 24/32/77 9/104/77 11/33/77
f 61/153/13 29/34/13 87/36/13
f 66/154/13 5/37/13 67/39/13
f 33/155/7 21/40/7 85/42/7
f 21/156/14 33/45/14 80/44/14
f 32/157/14 52/158/14 33/45/14
f 80/44/14 54/159/14 21/156/14
f 52/158/14 50/43/14 33/45/14
f 18/160/14 21/156/14 54/159/14
f 69/59/7 22/46/7 68/48/7
f 22/161/78 19/162/78 53/163/78
f 34/164/16 36/54/16 51/165/16
f 49/53/16 51/165/16 36/54/16
f 53/163/79 79/52/79 22/161/79
f 36/54/16 22/161/16 79/52/16
f 90/132/80 92/55/80 31/57/80
f 69/166/7 56/60/7 22/62/7
f 86/35/13 29/65/13 95/64/13
f 5/63/13 66/115/13 95/64/13
f 1/167/16 36/68/16 100/67/16
f 34/168/16 102/66/16 36/68/16
f 100/67/16 104/169/16 1/167/16
f 101/170/14 32/171/14 33/69/14
f 2/70/14 103/172/14 99/71/14
f 99/71/14 101/170/14 33/69/14
f 43/81/19 44/75/19 42/77/19
f 48/173/81 70/80/81 5/79/81
f 71/174/82 42/175/82 64/78/82
f 41/176/83 64/78/83 42/175/83
f 5/79/84 46/177/84 48/173/84
f 70/80/85 71/174/85 64/78/85
f 73/121/21 43/81/21 71/82/21
f 29/85/86 61/178/86 72/83/86
f 44/179/87 43/180/87 61/178/87
f 73/181/88 72/83/88 61/178/88
f 45/84/89 47/182/89 29/85/89
f 61/178/90 43/180/90 73/181/90
f 64/58/23 41/76/23 61/51/23
f 47/3/68 46/2/68 29/87/68
f 52/94/91 51/90/91 81/89/91
f 81/89/92 50/183/92 52/94/92
f 72/120/26 70/91/26 45/92/26
f 32/140/93 34/93/93 52/94/93
f 82/98/94 83/95/94 53/97/94
f 18/22/95 54/184/95 82/98/95
f 82/98/96 53/97/96 19/23/96
f 56/103/30 17/99/30 55/101/30
f 69/59/38 26/102/38 56/103/38
f 59/110/97 9/104/97 58/106/97
f 23/111/98 24/32/98 84/50/98
f 13/109/99 11/33/99 63/108/99
f 55/101/100 15/100/100 63/108/100
f 64/58/101 27/31/101 69/59/101
f 62/107/102 11/33/102 59/110/102
f 25/113/103 23/111/103 65/112/103
f 6/105/39 25/113/39 58/106/39
f 61/51/40 24/32/40 64/58/40
f 67/39/104 35/144/104 105/114/104
f 105/114/105 3/126/105 66/115/105
f 3/126/106 106/116/106 96/118/106
f 96/118/107 66/115/107 3/126/107
f 68/48/108 93/117/108 38/145/108
f 106/116/108 38/145/108 93/117/108
f 69/59/43 57/185/43 107/6/43
f 107/6/43 35/144/43 67/39/43
f 68/48/109 38/145/109 108/4/109
f 108/4/110 57/185/110 69/59/110
f 70/91/45 30/124/45 74/119/45
f 74/119/45 39/133/45 71/82/45
f 73/121/46 40/74/46 75/73/46
f 75/73/111 28/125/111 72/120/111
f 71/82/47 39/133/47 76/122/47
f 76/122/47 40/74/47 73/121/47
f 72/120/48 28/125/48 77/123/48
f 77/123/48 30/124/48 70/91/48
f 77/123/112 78/72/112 30/124/112
f 77/123/112 28/125/112 78/72/112
f 84/41/53 60/129/53 88/128/53
f 88/128/113 37/134/113 85/42/113
f 85/42/114 37/134/114 94/28/114
f 4/130/115 86/35/115 97/29/115
f 37/134/114 89/131/114 94/28/114
f 97/29/116 94/28/116 89/131/116
f 86/35/55 4/130/55 90/132/55
f 90/132/55 31/57/55 87/36/55
f 87/36/117 31/57/117 91/56/117
f 91/56/56 60/129/56 84/41/56
f 89/131/59 37/134/59 92/55/59
f 103/138/60 2/135/60 104/137/60
f 99/143/61 103/138/61 100/139/61
f 34/93/62 32/140/62 102/142/62
f 101/141/63 99/143/63 102/142/63
f 107/6/118 109/5/118 35/144/118
f 108/4/119 38/145/119 109/5/119
f 80/127/120 83/95/120 82/98/120
f 57/185/50 108/4/50 107/6/50
f 1/136/121 94/28/121 110/30/121
f 76/122/122 78/72/122 40/74/122
f 109/5/123 106/116/123 105/114/123
f 50/183/124 81/89/124 80/127/124
f 83/95/125 81/89/125 79/96/125
f 92/55/126 88/128/126 91/56/126
f 78/72/127 76/122/127 74/119/127
f 90/132/80 4/130/80 92/55/80
f 98/152/128 96/118/128 110/30/128
f 110/30/128 97/29/128 98/152/128
f 97/29/66 95/64/66 98/152/66
f 54/184/129 80/127/129 82/98/129
l 93 94
l 57 109
l 39 78
l 54 83
l 49 83
l 50 83
l 60 92
l 3 109
